<svg width="3989" height="211" viewBox="0 0 3989 211" fill="none" xmlns="http://www.w3.org/2000/svg">
<path d="M1773.5 46.5V167.5M1773.5 46.5C1773.5 40.9772 1769.02 36.5 1763.5 36.5H1726.09M1773.5 46.5C1773.5 40.9771 1777.98 36.5 1783.5 36.5H1819M1773.5 167.5C1773.5 173.023 1769.02 177.5 1763.5 177.5H1726.5M1773.5 167.5C1773.5 173.023 1777.98 177.5 1783.5 177.5H1819M1331.5 167.5V46.5M1331.5 167.5C1331.5 173.023 1335.98 177.5 1341.5 177.5H1377M1331.5 167.5C1331.5 173.023 1327.02 177.5 1321.5 177.5H1284.5M1331.5 46.5C1331.5 40.9771 1335.98 36.5 1341.5 36.5H1377M1331.5 46.5C1331.5 40.9772 1327.02 36.5 1321.5 36.5H1284.09M1674.5 177.5H1579.17C1575.13 177.5 1571.49 175.073 1569.94 171.346L1561.03 149.964C1560.35 148.349 1559.27 146.94 1557.88 145.876L1524.73 120.444C1523.92 119.818 1523.2 119.071 1522.61 118.228L1512 103L1503.79 132.156C1502.7 136.005 1504.02 140.13 1507.13 142.644L1521.79 154.498C1524.14 156.397 1525.5 159.255 1525.5 162.274V167.5C1525.5 173.023 1521.02 177.5 1515.5 177.5H1430M1674.5 177.5L1674.56 195.532C1674.57 201.042 1679.05 205.5 1684.56 205.5H1716.23C1721.7 205.5 1726.15 201.112 1726.23 195.647L1726.5 177.5M1674.5 177.5V36.5M1726.5 177.5L1726.09 36.5M1430 177.5V195.5C1430 201.023 1425.52 205.5 1420 205.5H1387C1381.48 205.5 1377 201.023 1377 195.5V177.5M1430 177.5V36.5M1377 177.5V36.5M1377 36.5V15.5C1377 9.97716 1381.48 5.5 1387 5.5H1420C1425.52 5.5 1430 9.97716 1430 15.5V36.5M1430 36.5H1674.5M1674.5 36.5L1674.56 15.4715C1674.58 9.95982 1679.05 5.5 1684.56 5.5H1716.09C1721.61 5.5 1726.09 9.97716 1726.09 15.5V36.5M2215.5 46.5V167.5M2215.5 46.5C2215.5 40.9772 2211.02 36.5 2205.5 36.5H2168.09M2215.5 46.5C2215.5 40.9771 2219.98 36.5 2225.5 36.5H2261M2215.5 167.5C2215.5 173.023 2211.02 177.5 2205.5 177.5H2168.5M2215.5 167.5C2215.5 173.023 2219.98 177.5 2225.5 177.5H2261M2116.5 177.5L2116.56 195.532C2116.57 201.042 2121.05 205.5 2126.56 205.5H2158.23C2163.7 205.5 2168.15 201.112 2168.23 195.647L2168.5 177.5M2116.5 177.5V36.5M2116.5 177.5H1872M2168.5 177.5L2168.09 36.5M1872 177.5V195.5C1872 201.023 1867.52 205.5 1862 205.5H1829C1823.48 205.5 1819 201.023 1819 195.5V177.5M1872 177.5V36.5M1819 177.5V36.5M1819 36.5V15.5C1819 9.97716 1823.48 5.5 1829 5.5H1862C1867.52 5.5 1872 9.97716 1872 15.5V36.5M1872 36.5H2116.5M2116.5 36.5L2116.56 15.4715C2116.58 9.95982 2121.05 5.5 2126.56 5.5H2158.09C2163.61 5.5 2168.09 9.97716 2168.09 15.5V36.5M2657.5 46.5V167.5M2657.5 46.5C2657.5 40.9772 2653.02 36.5 2647.5 36.5H2610.09M2657.5 46.5C2657.5 40.9771 2661.98 36.5 2667.5 36.5H2703M2657.5 167.5C2657.5 173.023 2653.02 177.5 2647.5 177.5H2610.5M2657.5 167.5C2657.5 173.023 2661.98 177.5 2667.5 177.5H2703M2558.5 177.5L2558.56 195.532C2558.57 201.042 2563.05 205.5 2568.56 205.5H2600.23C2605.7 205.5 2610.15 201.112 2610.23 195.647L2610.5 177.5M2558.5 177.5V36.5M2558.5 177.5H2314M2610.5 177.5L2610.09 36.5M2314 177.5V195.5C2314 201.023 2309.52 205.5 2304 205.5H2271C2265.48 205.5 2261 201.023 2261 195.5V177.5M2314 177.5V36.5M2261 177.5V36.5M2261 36.5V15.5C2261 9.97716 2265.48 5.5 2271 5.5H2304C2309.52 5.5 2314 9.97716 2314 15.5V36.5M2314 36.5H2558.5M2558.5 36.5L2558.56 15.4715C2558.58 9.95982 2563.05 5.5 2568.56 5.5H2600.09C2605.61 5.5 2610.09 9.97716 2610.09 15.5V36.5M3099.5 46.5V167.5M3099.5 46.5C3099.5 40.9772 3095.02 36.5 3089.5 36.5H3052.09M3099.5 46.5C3099.5 40.9771 3103.98 36.5 3109.5 36.5H3145M3099.5 167.5C3099.5 173.023 3095.02 177.5 3089.5 177.5H3052.5M3099.5 167.5C3099.5 173.023 3103.98 177.5 3109.5 177.5H3145M3000.5 177.5L3000.56 195.532C3000.57 201.042 3005.05 205.5 3010.56 205.5H3042.23C3047.7 205.5 3052.15 201.112 3052.23 195.647L3052.5 177.5M3000.5 177.5V36.5M3000.5 177.5H2756M3052.5 177.5L3052.09 36.5M2756 177.5V195.5C2756 201.023 2751.52 205.5 2746 205.5H2713C2707.48 205.5 2703 201.023 2703 195.5V177.5M2756 177.5V36.5M2703 177.5V36.5M2703 36.5V15.5C2703 9.97716 2707.48 5.5 2713 5.5H2746C2751.52 5.5 2756 9.97716 2756 15.5V36.5M2756 36.5H3000.5M3000.5 36.5L3000.56 15.4715C3000.58 9.95982 3005.05 5.5 3010.56 5.5H3042.09C3047.61 5.5 3052.09 9.97716 3052.09 15.5V36.5M3541.5 46.5V167.5M3541.5 46.5C3541.5 40.9772 3537.02 36.5 3531.5 36.5H3494.09M3541.5 46.5C3541.5 40.9771 3545.98 36.5 3551.5 36.5H3587M3541.5 167.5C3541.5 173.023 3537.02 177.5 3531.5 177.5H3494.5M3541.5 167.5C3541.5 173.023 3545.98 177.5 3551.5 177.5H3587M3442.5 177.5L3442.56 195.532C3442.57 201.042 3447.05 205.5 3452.56 205.5H3484.23C3489.7 205.5 3494.15 201.112 3494.23 195.647L3494.5 177.5M3442.5 177.5V36.5M3442.5 177.5H3198M3494.5 177.5L3494.09 36.5M3198 177.5V195.5C3198 201.023 3193.52 205.5 3188 205.5H3155C3149.48 205.5 3145 201.023 3145 195.5V177.5M3198 177.5V36.5M3145 177.5V36.5M3145 36.5V15.5C3145 9.97716 3149.48 5.5 3155 5.5H3188C3193.52 5.5 3198 9.97716 3198 15.5V36.5M3198 36.5H3442.5M3442.5 36.5L3442.56 15.4715C3442.58 9.95982 3447.05 5.5 3452.56 5.5H3484.09C3489.61 5.5 3494.09 9.97716 3494.09 15.5V36.5M3884.5 177.5L3884.56 195.532C3884.57 201.042 3889.05 205.5 3894.56 205.5H3926.23C3931.7 205.5 3936.15 201.112 3936.23 195.647L3936.5 177.5M3884.5 177.5V36.5M3884.5 177.5H3640M3936.5 177.5H3973.5C3979.02 177.5 3983.5 173.023 3983.5 167.5V46.5C3983.5 40.9772 3979.02 36.5 3973.5 36.5H3936.09M3936.5 177.5L3936.09 36.5M3640 177.5V195.5C3640 201.023 3635.52 205.5 3630 205.5H3597C3591.48 205.5 3587 201.023 3587 195.5V177.5M3640 177.5V36.5M3587 177.5V36.5M3587 36.5V15.5C3587 9.97716 3591.48 5.5 3597 5.5H3630C3635.52 5.5 3640 9.97716 3640 15.5V36.5M3640 36.5H3884.5M3884.5 36.5L3884.56 15.4715C3884.58 9.95982 3889.05 5.5 3894.56 5.5H3926.09C3931.61 5.5 3936.09 9.97716 3936.09 15.5V36.5M889.5 167.5V46.5M889.5 167.5C889.5 173.023 893.977 177.5 899.5 177.5H935M889.5 167.5C889.5 173.023 885.023 177.5 879.5 177.5H842.5M889.5 46.5C889.5 40.9771 893.977 36.5 899.5 36.5H935M889.5 46.5C889.5 40.9772 885.023 36.5 879.5 36.5H842.088M1232.5 177.5L1232.56 195.532C1232.57 201.042 1237.05 205.5 1242.56 205.5H1274.23C1279.7 205.5 1284.15 201.112 1284.23 195.647L1284.5 177.5M1232.5 177.5V36.5M1232.5 177.5H988M1284.5 177.5L1284.09 36.5M988 177.5V195.5C988 201.023 983.523 205.5 978 205.5H945C939.477 205.5 935 201.023 935 195.5V177.5M988 177.5V36.5M935 177.5V36.5M935 36.5V15.5C935 9.97716 939.477 5.5 945 5.5H978C983.523 5.5 988 9.97716 988 15.5V36.5M988 36.5H1232.5M1232.5 36.5L1232.56 15.4715C1232.58 9.95982 1237.05 5.5 1242.56 5.5H1274.09C1279.61 5.5 1284.09 9.97716 1284.09 15.5V36.5M447.5 167.5V46.5M447.5 167.5C447.5 173.023 451.977 177.5 457.5 177.5H493M447.5 167.5C447.5 173.023 443.023 177.5 437.5 177.5H400.5M447.5 46.5C447.5 40.9771 451.977 36.5 457.5 36.5H493M447.5 46.5C447.5 40.9772 443.023 36.5 437.5 36.5H400.088M790.5 177.5L790.557 195.532C790.574 201.042 795.046 205.5 800.557 205.5H832.234C837.7 205.5 842.153 201.112 842.233 195.647L842.5 177.5M790.5 177.5V36.5M790.5 177.5H546M842.5 177.5L842.088 36.5M546 177.5V195.5C546 201.023 541.523 205.5 536 205.5H503C497.477 205.5 493 201.023 493 195.5V177.5M546 177.5V36.5M493 177.5V36.5M493 36.5V15.5C493 9.97716 497.477 5.5 503 5.5H536C541.523 5.5 546 9.97716 546 15.5V36.5M546 36.5H790.5M790.5 36.5L790.56 15.4715C790.576 9.95982 795.048 5.5 800.56 5.5H832.088C837.611 5.5 842.088 9.97716 842.088 15.5V36.5M348.5 177.5L348.557 195.532C348.574 201.042 353.046 205.5 358.557 205.5H390.234C395.7 205.5 400.153 201.112 400.233 195.647L400.5 177.5M348.5 177.5V36.5M348.5 177.5H104M400.5 177.5L400.088 36.5M104 177.5V195.5C104 201.023 99.5229 205.5 94 205.5H61C55.4771 205.5 51 201.023 51 195.5V177.5M104 177.5V36.5M51 177.5H15.5C9.97714 177.5 5.5 173.023 5.5 167.5V46.5C5.5 40.9771 9.97714 36.5 15.5 36.5H51M51 177.5V36.5M51 36.5V15.5C51 9.97716 55.4771 5.5 61 5.5H94C99.5229 5.5 104 9.97716 104 15.5V36.5M104 36.5H348.5M348.5 36.5L348.56 15.4715C348.576 9.95982 353.048 5.5 358.56 5.5H390.088C395.611 5.5 400.088 9.97716 400.088 15.5V36.5" stroke="white" stroke-width="11"/>
</svg>
