<svg width="54" height="49" viewBox="0 0 54 49" fill="none" xmlns="http://www.w3.org/2000/svg">
<mask id="path-1-inside-1_81_142" fill="white">
<path d="M1.86398 18.0846L1.84989 17.4575L2.37741 16.681L2.37807 15.9083L2.91919 14.7921L2.99962 13.721L3.59099 12.7027L3.79795 11.5246L4.5462 9.98349L4.4918 8.49564L5.87221 5.95304L5.97586 4.01959L6.84649 2.65564L6.81067 1.5661L7.47302 0.199437L8.26422 0.576007L8.70169 0.0950856L9.37879 0L10.0249 0.201054L11.0345 1.25637L12.0409 1.6938L13.1185 1.33733L13.5673 0.847168L14.0026 1.29384L14.9275 0.751522L16.4072 0.175516L17.1087 0.338531L17.9151 2.46978L18.2319 2.49588L20.4322 3.73104L21.4196 3.67071L21.6988 4.48584L20.9864 5.49658L21.8043 5.95629L22.9927 6.30407L23.6779 7.11591L23.3194 7.77563L23.8676 8.10276L23.9507 9.04557L24.749 9.39552L25.2169 10.6176L25.3572 9.04068L25.8374 9.68679L26.0114 10.4878L27.4737 10.6818L26.7911 12.8717L27.4291 13.4151L28.5236 13.1798L29.1583 13.4129L29.7566 13.1994L30.5222 12.4707L30.808 11.8485L31.603 11.9186L32.0139 11.6012L32.6333 9.99164L33.3431 9.82645L33.9398 10.2748L34.4902 10.146L35.2107 10.9377L36.2857 11.0263L36.4736 11.7724L36.3003 12.5266L36.6872 13.5906L37.3812 13.2776L38.2445 13.2135L40.4312 13.576L41.3801 13.5613L41.7947 13.032L42.3539 13.1548L42.9342 12.2294L43.4678 12.3783L44.102 10.7742L44.828 10.8073L46.2126 8.13698L47.4303 7.35175L48.1477 6.61545L48.8933 5.31943L49.178 5.29876L50.4234 5.68567L51.7896 6.77902L52.3416 7.37839L52.7405 7.31046L53.0872 7.98754L52.639 8.84885L51.9037 9.47106L51.2619 10.8214L51.312 11.5637L50.6044 12.3234L50.6299 12.6522L51.412 14.1145L50.5636 14.8399L49.8914 14.384L49.0508 14.4476L48.5236 15.1725L48.0644 14.7916L47.4281 15.1421L46.8787 15.7534L46.0545 15.9273L45.4865 17.0043L46.6359 17.7477L46.0935 18.6324L45.1991 20.4457L44.7366 20.6669L43.7831 20.549L42.8733 21.1527L42.6055 21.8091L42.8325 22.7514L42.4766 22.9563L41.53 22.891L40.5546 21.8173L39.7374 24.0306L40.0004 24.443L39.7037 25.1924L39.8937 26.0336L39.6417 26.6889L39.8231 28.123L40.6143 28.7816L40.7427 30.0521L40.4964 30.7373L40.2732 31.2036L40.5243 32.1507L39.9704 34.1776L39.5901 35.1139L39.3483 36.4317L38.9075 37.0175L38.9684 37.6147L38.6765 40.0818L38.7772 41.0844L38.5924 41.875L37.8185 42.9298L37.155 42.8146L35.7449 42.9135L36.059 44.2236L35.1721 45.174L35.3981 46.0685L34.9439 46.6211L33.9224 46.7869L33.2686 48.028L32.9252 47.915L32.3138 46.5603L32.1813 45.887L31.5901 45.4854L31.5862 45.0936L30.8423 44.7877L30.143 44.1715L30.0473 43.5954L30.6504 43.3259L30.0495 42.6217L29.3435 42.4891L29.079 41.7381L27.7737 40.5323L26.9498 39.2047L26.4037 38.7716L25.4935 37.5223L25.4696 36.9702L26.0527 36.4893L25.3431 35.9198L25.2273 35.3302L24.0273 34.5428L22.9499 33.6478L22.4205 33.9364L22.0804 34.7216L21.1071 35.5166L20.6654 37.3229L19.7899 38.6238L18.2178 39.7014L16.9158 39.4503L16.4051 38.3396L15.7731 37.8701L14.6585 37.4919L13.7076 37.3549L12.1186 37.5267L11.7839 37.4288L10.3552 37.7831L9.95806 37.5256L9.27979 37.787L8.60435 37.4799L6.95677 37.7016L7.03604 36.7664L6.90736 35.6725L6.35678 35.1183L6.60852 34.1385L5.6825 33.8255L5.5689 32.9093L4.54736 32.3214L3.88866 32.2866L2.79216 32.9658L2.96546 31.8225L2.18073 31.51L1.75802 30.7406L1.1494 30.921L0.222385 30.7161L0 30.1189L0.863502 29.1707L0.617403 25.6853L0.359198 25.0685L1.15637 24.0882L1.08854 23.4953L0.663008 22.677L1.36615 21.832L1.57875 21.1766L2.55635 19.9306L2.62467 19.0263L1.86398 18.0846Z"/>
</mask>
<path d="M1.86398 18.0846L1.84989 17.4575L2.37741 16.681L2.37807 15.9083L2.91919 14.7921L2.99962 13.721L3.59099 12.7027L3.79795 11.5246L4.5462 9.98349L4.4918 8.49564L5.87221 5.95304L5.97586 4.01959L6.84649 2.65564L6.81067 1.5661L7.47302 0.199437L8.26422 0.576007L8.70169 0.0950856L9.37879 0L10.0249 0.201054L11.0345 1.25637L12.0409 1.6938L13.1185 1.33733L13.5673 0.847168L14.0026 1.29384L14.9275 0.751522L16.4072 0.175516L17.1087 0.338531L17.9151 2.46978L18.2319 2.49588L20.4322 3.73104L21.4196 3.67071L21.6988 4.48584L20.9864 5.49658L21.8043 5.95629L22.9927 6.30407L23.6779 7.11591L23.3194 7.77563L23.8676 8.10276L23.9507 9.04557L24.749 9.39552L25.2169 10.6176L25.3572 9.04068L25.8374 9.68679L26.0114 10.4878L27.4737 10.6818L26.7911 12.8717L27.4291 13.4151L28.5236 13.1798L29.1583 13.4129L29.7566 13.1994L30.5222 12.4707L30.808 11.8485L31.603 11.9186L32.0139 11.6012L32.6333 9.99164L33.3431 9.82645L33.9398 10.2748L34.4902 10.146L35.2107 10.9377L36.2857 11.0263L36.4736 11.7724L36.3003 12.5266L36.6872 13.5906L37.3812 13.2776L38.2445 13.2135L40.4312 13.576L41.3801 13.5613L41.7947 13.032L42.3539 13.1548L42.9342 12.2294L43.4678 12.3783L44.102 10.7742L44.828 10.8073L46.2126 8.13698L47.4303 7.35175L48.1477 6.61545L48.8933 5.31943L49.178 5.29876L50.4234 5.68567L51.7896 6.77902L52.3416 7.37839L52.7405 7.31046L53.0872 7.98754L52.639 8.84885L51.9037 9.47106L51.2619 10.8214L51.312 11.5637L50.6044 12.3234L50.6299 12.6522L51.412 14.1145L50.5636 14.8399L49.8914 14.384L49.0508 14.4476L48.5236 15.1725L48.0644 14.7916L47.4281 15.1421L46.8787 15.7534L46.0545 15.9273L45.4865 17.0043L46.6359 17.7477L46.0935 18.6324L45.1991 20.4457L44.7366 20.6669L43.7831 20.549L42.8733 21.1527L42.6055 21.8091L42.8325 22.7514L42.4766 22.9563L41.53 22.891L40.5546 21.8173L39.7374 24.0306L40.0004 24.443L39.7037 25.1924L39.8937 26.0336L39.6417 26.6889L39.8231 28.123L40.6143 28.7816L40.7427 30.0521L40.4964 30.7373L40.2732 31.2036L40.5243 32.1507L39.9704 34.1776L39.5901 35.1139L39.3483 36.4317L38.9075 37.0175L38.9684 37.6147L38.6765 40.0818L38.7772 41.0844L38.5924 41.875L37.8185 42.9298L37.155 42.8146L35.7449 42.9135L36.059 44.2236L35.1721 45.174L35.3981 46.0685L34.9439 46.6211L33.9224 46.7869L33.2686 48.028L32.9252 47.915L32.3138 46.5603L32.1813 45.887L31.5901 45.4854L31.5862 45.0936L30.8423 44.7877L30.143 44.1715L30.0473 43.5954L30.6504 43.3259L30.0495 42.6217L29.3435 42.4891L29.079 41.7381L27.7737 40.5323L26.9498 39.2047L26.4037 38.7716L25.4935 37.5223L25.4696 36.9702L26.0527 36.4893L25.3431 35.9198L25.2273 35.3302L24.0273 34.5428L22.9499 33.6478L22.4205 33.9364L22.0804 34.7216L21.1071 35.5166L20.6654 37.3229L19.7899 38.6238L18.2178 39.7014L16.9158 39.4503L16.4051 38.3396L15.7731 37.8701L14.6585 37.4919L13.7076 37.3549L12.1186 37.5267L11.7839 37.4288L10.3552 37.7831L9.95806 37.5256L9.27979 37.787L8.60435 37.4799L6.95677 37.7016L7.03604 36.7664L6.90736 35.6725L6.35678 35.1183L6.60852 34.1385L5.6825 33.8255L5.5689 32.9093L4.54736 32.3214L3.88866 32.2866L2.79216 32.9658L2.96546 31.8225L2.18073 31.51L1.75802 30.7406L1.1494 30.921L0.222385 30.7161L0 30.1189L0.863502 29.1707L0.617403 25.6853L0.359198 25.0685L1.15637 24.0882L1.08854 23.4953L0.663008 22.677L1.36615 21.832L1.57875 21.1766L2.55635 19.9306L2.62467 19.0263L1.86398 18.0846Z" fill="#F2F2F2" stroke="#07122B" mask="url(#path-1-inside-1_81_142)"/>
</svg>
