<svg width="55" height="44" viewBox="0 0 55 44" fill="none" xmlns="http://www.w3.org/2000/svg">
<mask id="path-1-inside-1_81_178" fill="white">
<path d="M6.16873 5.38409L6.48497 6.32527L7.08115 6.2568L7.14583 7.34688L7.52559 7.2132L7.96688 8.03375L8.58262 7.61043L9.03684 8.26252L8.84945 8.58911L9.0982 9.82644L9.41345 10.052L11.0393 9.85796L11.635 10.2193L12.8771 9.92534L13.9525 10.5285L14.8931 10.4535L16.0974 11.2322L17.0739 10.7671L17.4999 10.084L17.3249 8.71626L17.4808 7.71368L17.8107 7.54685L18.834 7.91528L19.2252 6.4258L19.6214 6.15029L20.6745 6.32092L20.9327 5.39768L21.6869 4.7445L21.9824 3.51041L22.6128 2.95614L23.6404 3.19307L24.6892 2.80942L24.8369 1.93345L25.431 0.849894L27.2525 1.61936L28.6299 0.51244L31.134 0.800983L31.5018 0L32.2768 0.595575L33.5995 0.139654L34.0336 0.324415L34.6494 1.13518L34.4325 1.83673L34.8079 2.56108L34.2613 3.59845L34.8716 4.72439L34.2303 5.61069L34.7313 6.40896L35.3117 6.62523L37.5006 8.72931L38.7705 9.30641L40.1568 9.56126L40.7713 9.93241L41.3718 9.4102L41.9776 9.82428L42.1174 10.4448L43.7748 9.30858L45.7636 9.02601L46.1179 9.78026L47.0976 9.97154L47.2353 10.2954L47.478 11.1018L46.9043 11.5621L46.6162 13.5059L45.8136 14.015L45.9696 14.4742L47.3227 15.1122L47.4759 15.7175L47.9633 16.249L48.4883 17.4032L48.3525 17.8287L50.5473 18.3319L50.3896 19.4986L51.214 20.0746L51.8357 20.0398L52.8834 20.7582L53.1622 21.2054L52.534 21.8993L52.9551 22.4987L53.0013 23.0611L53.8995 23.3828L53.5892 24.0887L54.0522 24.8696L53.6768 25.5396L54.0143 27.1318L53.4658 27.8469L54.2728 28.092L54.3706 28.7153L53.3947 30.4553L53.3882 31.3666L53.9023 31.7421L53.1083 32.6501L53.2997 33.9451L52.7572 34.0662L49.517 33.175L49.2588 33.8804L48.4697 34.257L48.5795 34.8096L46.9293 35.5133L47.958 35.7236L48.7437 37.0044L48.5024 38.6434L48.354 38.4363L47.2694 38.921L46.4157 38.3429L45.399 38.3689L45.2675 38.0614L43.903 38.1483L42.7814 39.5014L42.2907 39.6862L42.9998 40.5306L42.965 41.549L42.1375 41.4153L41.6272 41.5881L40.7143 41.5153L39.6161 42.0168L38.7319 42.0788L37.9326 41.4783L37.1815 41.8429L36.2671 41.8707L35.8616 42.1244L33.931 41.8897L33.5711 42.4869L33.6826 43.2661L33.3283 43.8432L32.3849 43.9492L31.4498 43.4813L30.7151 42.5124L30.9536 41.4517L30.0276 41.2262L30.1972 42.6988L29.3767 43.0466L29.3108 42.182L28.3084 42.1685L27.442 43.1749L26.5813 43.8481L25.9124 43.6275L25.9575 42.9265L24.7782 42.7428L24.7126 43.5139L24.2539 43.7889L23.703 43.4286L23.2003 43.6731L22.721 42.9107L22.2249 43.483L21.1521 43.2759L20.6392 43.5541L19.8159 43.352L19.0334 43.8922L18.9372 42.4777L19.3947 41.0952L18.8763 39.9084L18.1758 39.7351L18.1135 40.9083L17.445 41.0512L16.6875 39.9872L16.8744 39.5699L17.8064 39.1928L16.7722 37.7919L16.1192 37.4522L16.2571 36.5838L15.0747 34.671L15.3285 34.0657L14.8523 33.2511L14.2248 32.6393L13.5797 32.8468L12.9386 32.1143L13.5015 31.4764L13.2248 30.5732L12.1691 30.0706L12.3011 31.1606L11.6703 31.8002L11.1279 31.7644L10.2992 32.0741L10.0292 30.9737L9.36022 29.575L8.65327 29.1419L7.56638 29.9016L6.8654 29.3391L7.78761 28.6028L8.60269 27.3095L7.79026 26.7123L8.6924 25.707L8.46405 24.8723L7.80983 24.3305L7.34035 24.2974L7.34516 23.1356L6.56756 22.7813L6.43672 21.9966L5.72048 22.0341L5.74701 21.2614L5.351 21.0239L4.67654 19.9572L4.0152 19.3176L3.19415 19.3442L3.02682 19.0405L1.4363 19.9012L0.939621 18.9905L0.965657 18.1841L1.24708 16.7397L0.324871 16.2745L0.662345 14.7204L0.270643 14.2367L0 13.3504L0.603142 12.731L1.72203 12.2555L1.30479 11.2888L0.621052 10.5329L0.947747 10.2199L1.67858 10.4823L2.60394 10.3742L3.20874 9.78026L3.26595 8.88907L2.83279 8.1571L3.56744 7.60717L3.86628 7.06811L4.66842 7.10126L4.21785 6.25299L5.40522 5.93891L6.16873 5.38409Z"/>
</mask>
<path d="M6.16873 5.38409L6.48497 6.32527L7.08115 6.2568L7.14583 7.34688L7.52559 7.2132L7.96688 8.03375L8.58262 7.61043L9.03684 8.26252L8.84945 8.58911L9.0982 9.82644L9.41345 10.052L11.0393 9.85796L11.635 10.2193L12.8771 9.92534L13.9525 10.5285L14.8931 10.4535L16.0974 11.2322L17.0739 10.7671L17.4999 10.084L17.3249 8.71626L17.4808 7.71368L17.8107 7.54685L18.834 7.91528L19.2252 6.4258L19.6214 6.15029L20.6745 6.32092L20.9327 5.39768L21.6869 4.7445L21.9824 3.51041L22.6128 2.95614L23.6404 3.19307L24.6892 2.80942L24.8369 1.93345L25.431 0.849894L27.2525 1.61936L28.6299 0.51244L31.134 0.800983L31.5018 0L32.2768 0.595575L33.5995 0.139654L34.0336 0.324415L34.6494 1.13518L34.4325 1.83673L34.8079 2.56108L34.2613 3.59845L34.8716 4.72439L34.2303 5.61069L34.7313 6.40896L35.3117 6.62523L37.5006 8.72931L38.7705 9.30641L40.1568 9.56126L40.7713 9.93241L41.3718 9.4102L41.9776 9.82428L42.1174 10.4448L43.7748 9.30858L45.7636 9.02601L46.1179 9.78026L47.0976 9.97154L47.2353 10.2954L47.478 11.1018L46.9043 11.5621L46.6162 13.5059L45.8136 14.015L45.9696 14.4742L47.3227 15.1122L47.4759 15.7175L47.9633 16.249L48.4883 17.4032L48.3525 17.8287L50.5473 18.3319L50.3896 19.4986L51.214 20.0746L51.8357 20.0398L52.8834 20.7582L53.1622 21.2054L52.534 21.8993L52.9551 22.4987L53.0013 23.0611L53.8995 23.3828L53.5892 24.0887L54.0522 24.8696L53.6768 25.5396L54.0143 27.1318L53.4658 27.8469L54.2728 28.092L54.3706 28.7153L53.3947 30.4553L53.3882 31.3666L53.9023 31.7421L53.1083 32.6501L53.2997 33.9451L52.7572 34.0662L49.517 33.175L49.2588 33.8804L48.4697 34.257L48.5795 34.8096L46.9293 35.5133L47.958 35.7236L48.7437 37.0044L48.5024 38.6434L48.354 38.4363L47.2694 38.921L46.4157 38.3429L45.399 38.3689L45.2675 38.0614L43.903 38.1483L42.7814 39.5014L42.2907 39.6862L42.9998 40.5306L42.965 41.549L42.1375 41.4153L41.6272 41.5881L40.7143 41.5153L39.6161 42.0168L38.7319 42.0788L37.9326 41.4783L37.1815 41.8429L36.2671 41.8707L35.8616 42.1244L33.931 41.8897L33.5711 42.4869L33.6826 43.2661L33.3283 43.8432L32.3849 43.9492L31.4498 43.4813L30.7151 42.5124L30.9536 41.4517L30.0276 41.2262L30.1972 42.6988L29.3767 43.0466L29.3108 42.182L28.3084 42.1685L27.442 43.1749L26.5813 43.8481L25.9124 43.6275L25.9575 42.9265L24.7782 42.7428L24.7126 43.5139L24.2539 43.7889L23.703 43.4286L23.2003 43.6731L22.721 42.9107L22.2249 43.483L21.1521 43.2759L20.6392 43.5541L19.8159 43.352L19.0334 43.8922L18.9372 42.4777L19.3947 41.0952L18.8763 39.9084L18.1758 39.7351L18.1135 40.9083L17.445 41.0512L16.6875 39.9872L16.8744 39.5699L17.8064 39.1928L16.7722 37.7919L16.1192 37.4522L16.2571 36.5838L15.0747 34.671L15.3285 34.0657L14.8523 33.2511L14.2248 32.6393L13.5797 32.8468L12.9386 32.1143L13.5015 31.4764L13.2248 30.5732L12.1691 30.0706L12.3011 31.1606L11.6703 31.8002L11.1279 31.7644L10.2992 32.0741L10.0292 30.9737L9.36022 29.575L8.65327 29.1419L7.56638 29.9016L6.8654 29.3391L7.78761 28.6028L8.60269 27.3095L7.79026 26.7123L8.6924 25.707L8.46405 24.8723L7.80983 24.3305L7.34035 24.2974L7.34516 23.1356L6.56756 22.7813L6.43672 21.9966L5.72048 22.0341L5.74701 21.2614L5.351 21.0239L4.67654 19.9572L4.0152 19.3176L3.19415 19.3442L3.02682 19.0405L1.4363 19.9012L0.939621 18.9905L0.965657 18.1841L1.24708 16.7397L0.324871 16.2745L0.662345 14.7204L0.270643 14.2367L0 13.3504L0.603142 12.731L1.72203 12.2555L1.30479 11.2888L0.621052 10.5329L0.947747 10.2199L1.67858 10.4823L2.60394 10.3742L3.20874 9.78026L3.26595 8.88907L2.83279 8.1571L3.56744 7.60717L3.86628 7.06811L4.66842 7.10126L4.21785 6.25299L5.40522 5.93891L6.16873 5.38409Z" fill="#F2F2F2" stroke="#07122B" mask="url(#path-1-inside-1_81_178)"/>
</svg>
