<svg width="58" height="41" viewBox="0 0 58 41" fill="none" xmlns="http://www.w3.org/2000/svg">
<mask id="path-1-inside-1_81_93" fill="white">
<path d="M0 9.06673L0.382084 8.87764L0.960184 7.28003L1.75851 6.89799L1.3227 6.27743L2.24706 5.46451L3.0638 5.85414L3.45501 5.39494L4.32182 5.67371L4.72066 5.22106L4.26743 4.7787L4.54835 2.89146L4.93956 1.81875L5.88018 1.34874L6.17636 0.457L6.77734 1.15309L7.66423 1.7688L8.32558 2.62086L8.48594 1.65847L9.05807 1.38949L9.63849 1.64977L11.3849 1.99756L12.0011 1.9166L12.5496 0.797707L13.4179 1.10906L13.9983 2.13069L14.1792 2.92462L14.6155 2.72844L15.4981 2.94743L16.1638 2.70344L17.3505 1.88616L17.7515 1.82638L18.3118 2.90775L19.4758 3.43432L19.9627 2.38719L19.6861 1.79052L19.6856 1.05094L20.9246 0L22.0124 0.429803L22.9617 0.559693L24.3132 0.998782L25.0223 1.47481L26.2928 1.79487L27.2432 0.860725L28.1523 1.05094L28.6127 0.845509L29.7908 0.784648L30.6053 1.46503L32.3355 1.51664L32.8551 2.02746L31.8111 3.75276L32.0095 4.39832L31.4954 5.33516L31.9584 5.83022L33.0615 6.0378L33.2842 6.81378L34.2646 8.38586L34.7716 7.89951L35.5449 8.03429L36.4567 7.38218L37.061 6.71163L37.2187 7.60826L37.5294 8.02123L37.2354 8.7407L38.7195 9.41942L39.2128 10.0258L39.9367 9.87045L40.5024 9.13303L40.4654 8.4592L40.8486 7.84569L41.6315 7.25884L41.4279 6.5426L42.4635 6.57739L43.4912 6.22743L43.7547 5.68893L43.5357 4.71514L43.1287 3.77722L44.2862 4.42551L44.3531 5.65199L44.1633 6.21495L45.1686 6.73609L45.4343 6.41168L46.3359 7.1268L48.4807 6.72519L48.5084 8.48693L50.3337 8.75103L51.2445 9.69002L51.4531 9.54819L52.4216 10.0971L52.8008 9.67916L53.5403 9.78459L53.6284 10.3546L54.1338 10.6589L54.7842 10.5959L55.2532 10.2101L55.8547 10.6861L57.1943 12.1604L56.6106 12.6163L54.3718 15.1453L52.7149 17.639L51.4727 20.0077L50.7516 21.8281L50.0435 24.3985L49.8077 26.408L50.569 27.0606L50.2261 28.6349L49.942 31.0335L47.4639 29.4174L46.1223 29.0837L45.2801 28.7093L44.8865 28.1692L44.0395 27.8953L43.3597 26.9883L42.2499 27.3133L41.6571 27.8855L40.6594 28.1991L39.6052 29.2462L39.2749 30.3466L38.6515 31.1677L37.6908 31.1438L36.5442 31.4111L36.0263 31.1128L34.6341 31.04L33.9957 31.1612L31.9513 30.6264L30.6402 30.715L29.9647 30.3623L28.9642 30.9634L27.8225 31.0867L26.552 30.8482L25.5615 30.5129L23.5514 31.0813L23.7719 32.8729L24.1137 32.8897L24.1204 34.1662L24.6772 36.304L23.7297 37.2843L22.1564 37.9798L21.2332 37.8597L20.5761 38.8901L19.6453 39.3025L18.0667 40.4469L17.5853 39.7916L17.9543 38.833L17.6674 38.0853L16.9235 37.8908L16.6185 37.3783L14.8568 36.2236L14.5122 35.3965L13.7091 35.1927L11.9409 36.2062L9.5972 36.1317L9.52821 35.7117L8.92391 35.2231L8.31032 35.1074L8.09838 34.5124L8.52226 33.9342L7.40403 32.3828L6.42959 32.0469L6.28896 31.6839L6.94152 30.9107L6.93721 30.2955L9.47929 30.1548L11.0106 29.406L10.7677 29.0022L11.1746 27.647L10.7617 26.4275L9.02275 25.9314L9.13634 25.213L10.94 24.5599L10.8388 23.5893L10.9975 22.7802L10.4438 22.3542L10.9541 21.7005L10.4629 20.5413L9.34994 20.305L9.51776 19.5833L10.0564 19.5317L9.61246 17.5282L9.6108 16.7951L8.44183 16.1691L7.07518 16.4587L7.07468 15.8197L6.03788 15.4273L5.07223 15.5545L4.27821 14.973L3.48767 15.0622L3.0633 14.5845L2.06166 14.0025L0.760187 12.8098L1.33033 12.1511L1.2824 11.5382L0.531501 10.8154L0.435814 9.66125L0 9.06673Z"/>
</mask>
<path d="M0 9.06673L0.382084 8.87764L0.960184 7.28003L1.75851 6.89799L1.3227 6.27743L2.24706 5.46451L3.0638 5.85414L3.45501 5.39494L4.32182 5.67371L4.72066 5.22106L4.26743 4.7787L4.54835 2.89146L4.93956 1.81875L5.88018 1.34874L6.17636 0.457L6.77734 1.15309L7.66423 1.7688L8.32558 2.62086L8.48594 1.65847L9.05807 1.38949L9.63849 1.64977L11.3849 1.99756L12.0011 1.9166L12.5496 0.797707L13.4179 1.10906L13.9983 2.13069L14.1792 2.92462L14.6155 2.72844L15.4981 2.94743L16.1638 2.70344L17.3505 1.88616L17.7515 1.82638L18.3118 2.90775L19.4758 3.43432L19.9627 2.38719L19.6861 1.79052L19.6856 1.05094L20.9246 0L22.0124 0.429803L22.9617 0.559693L24.3132 0.998782L25.0223 1.47481L26.2928 1.79487L27.2432 0.860725L28.1523 1.05094L28.6127 0.845509L29.7908 0.784648L30.6053 1.46503L32.3355 1.51664L32.8551 2.02746L31.8111 3.75276L32.0095 4.39832L31.4954 5.33516L31.9584 5.83022L33.0615 6.0378L33.2842 6.81378L34.2646 8.38586L34.7716 7.89951L35.5449 8.03429L36.4567 7.38218L37.061 6.71163L37.2187 7.60826L37.5294 8.02123L37.2354 8.7407L38.7195 9.41942L39.2128 10.0258L39.9367 9.87045L40.5024 9.13303L40.4654 8.4592L40.8486 7.84569L41.6315 7.25884L41.4279 6.5426L42.4635 6.57739L43.4912 6.22743L43.7547 5.68893L43.5357 4.71514L43.1287 3.77722L44.2862 4.42551L44.3531 5.65199L44.1633 6.21495L45.1686 6.73609L45.4343 6.41168L46.3359 7.1268L48.4807 6.72519L48.5084 8.48693L50.3337 8.75103L51.2445 9.69002L51.4531 9.54819L52.4216 10.0971L52.8008 9.67916L53.5403 9.78459L53.6284 10.3546L54.1338 10.6589L54.7842 10.5959L55.2532 10.2101L55.8547 10.6861L57.1943 12.1604L56.6106 12.6163L54.3718 15.1453L52.7149 17.639L51.4727 20.0077L50.7516 21.8281L50.0435 24.3985L49.8077 26.408L50.569 27.0606L50.2261 28.6349L49.942 31.0335L47.4639 29.4174L46.1223 29.0837L45.2801 28.7093L44.8865 28.1692L44.0395 27.8953L43.3597 26.9883L42.2499 27.3133L41.6571 27.8855L40.6594 28.1991L39.6052 29.2462L39.2749 30.3466L38.6515 31.1677L37.6908 31.1438L36.5442 31.4111L36.0263 31.1128L34.6341 31.04L33.9957 31.1612L31.9513 30.6264L30.6402 30.715L29.9647 30.3623L28.9642 30.9634L27.8225 31.0867L26.552 30.8482L25.5615 30.5129L23.5514 31.0813L23.7719 32.8729L24.1137 32.8897L24.1204 34.1662L24.6772 36.304L23.7297 37.2843L22.1564 37.9798L21.2332 37.8597L20.5761 38.8901L19.6453 39.3025L18.0667 40.4469L17.5853 39.7916L17.9543 38.833L17.6674 38.0853L16.9235 37.8908L16.6185 37.3783L14.8568 36.2236L14.5122 35.3965L13.7091 35.1927L11.9409 36.2062L9.5972 36.1317L9.52821 35.7117L8.92391 35.2231L8.31032 35.1074L8.09838 34.5124L8.52226 33.9342L7.40403 32.3828L6.42959 32.0469L6.28896 31.6839L6.94152 30.9107L6.93721 30.2955L9.47929 30.1548L11.0106 29.406L10.7677 29.0022L11.1746 27.647L10.7617 26.4275L9.02275 25.9314L9.13634 25.213L10.94 24.5599L10.8388 23.5893L10.9975 22.7802L10.4438 22.3542L10.9541 21.7005L10.4629 20.5413L9.34994 20.305L9.51776 19.5833L10.0564 19.5317L9.61246 17.5282L9.6108 16.7951L8.44183 16.1691L7.07518 16.4587L7.07468 15.8197L6.03788 15.4273L5.07223 15.5545L4.27821 14.973L3.48767 15.0622L3.0633 14.5845L2.06166 14.0025L0.760187 12.8098L1.33033 12.1511L1.2824 11.5382L0.531501 10.8154L0.435814 9.66125L0 9.06673Z" fill="#F2F2F2" stroke="#07122B" mask="url(#path-1-inside-1_81_93)"/>
</svg>
