<svg width="60" height="65" viewBox="0 0 60 65" fill="none" xmlns="http://www.w3.org/2000/svg">
<mask id="path-1-inside-1_81_114" fill="white">
<path d="M13.5429 16.6479L13.9189 16.3321L13.5988 15.1948L14.3379 14.6182L15.1649 14.7801L15.6736 14.3329L16.7838 14.0053L17.187 14.2395L17.9538 13.8525L18.2732 14.1965L18.2075 14.9676L18.9563 15.4094L19.8823 14.8285L21.9141 15.466L22.4201 14.9573L23.1955 15.1986L23.865 14.5449L23.9149 13.8281L24.3534 12.7842L24.8512 12.6484L25.4963 11.7371L26.1288 11.4523L26.3548 9.97263L26.1792 9.45203L26.5434 9.1124L26.6498 8.26362L27.5274 7.93323L28.047 7.43436L28.078 6.42202L28.4387 5.40856L28.1351 4.9749L28.717 4.38366L29.1452 3.31154L30.0266 3.47294L30.8373 1.6911L31.7259 1.69054L32.2844 0.565704L33.3066 0L33.9321 0.375512L34.5114 1.40309L34.3582 1.80683L34.6043 2.55674L34.1995 3.72235L34.6988 4.1223L35.0592 3.56858L36.5905 3.32949L37.261 3.40498L37.4158 4.47118L37.9206 5.36345L38.0576 6.13944L38.7989 7.80388L39.2749 7.93647L39.835 7.39145L40.479 8.40545L40.2198 9.09283L40.2513 10.3443L39.9775 10.7644L40.3438 11.9202L40.3334 12.4435L41.1241 14.3422L41.78 15.0937L42.1158 15.135L43.3471 16.5115L43.9514 17.5928L44.6171 17.9515L45.0051 18.5384L45.5767 18.8644L45.8665 19.5551L45.5061 20.9756L45.6681 21.7624L45.2822 22.5248L46.4961 23.7062L46.951 23.8572L47.695 24.7544L48.0047 26.4167L47.557 26.7156L47.8281 27.2448L47.9537 28.2083L47.2434 28.3844L47.1897 29.7472L47.6374 30.0184L47.4699 30.5493L47.7064 31.415L48.2525 31.879L48.459 32.5251L47.414 33.9087L47.2505 34.6184L47.8673 34.82L48.4694 34.3477L48.7112 35.8035L49.7566 35.6823L50.981 36.5426L51.0483 37.4952L50.574 38.3488L51.6863 38.5293L52.5975 38.0299L53.2648 38.1358L53.6083 37.7413L54.4484 38.0695L55.1408 37.8875L55.9255 38.0657L56.0699 38.7417L56.5943 39.1852L56.5439 39.6074L55.1033 40.2252L54.9391 41.0844L54.5821 41.4022L54.7028 42.6184L54.1398 43.0167L53.5056 42.9645L52.8617 43.8639L53.4648 44.7035L54.0914 44.8518L54.9043 44.3182L55.262 45.4202L55.7695 45.8294L57.1101 45.4262L57.5545 46.169L58.1361 46.2304L59.1016 47.107L59.3369 47.7694L58.9827 48.4698L58.1638 48.7524L57.7311 49.9365L56.6716 50.037L56.6084 50.6375L55.9988 50.8744L55.6895 51.8411L55.9749 52.7888L55.4499 53.1871L55.3597 53.7463L54.5327 53.9773L52.9214 53.5838L52.4601 53.8713L52.3438 54.4294L51.7113 54.8043L51.4103 55.6575L52.0335 56.4568L51.9292 57.103L51.2337 57.3333L50.4163 57.9713L49.5148 57.9582L48.5356 57.7214L48.2966 57.9115L47.2787 57.6126L46.8658 57.1644L45.8854 56.7742L45.1643 56.7948L44.8899 57.6599L44.9829 58.1196L44.553 58.5288L44.8655 59.4907L45.5648 60.2151L44.7084 61.3681L44.9545 61.7654L44.8035 62.9636L45.3209 63.3679L45.0078 64.0808L44.4063 63.8466L43.564 63.9841L42.2169 63.2478L41.1291 63.9004L40.3584 63.9787L40.0558 63.5412L39.9508 62.4126L39.5205 61.6436L38.0648 61.6779L37.6707 61.2247L36.8736 61.166L35.927 60.5438L34.9776 61.0111L34.7527 61.7898L33.0658 62.1936L32.0519 61.5007L31.1173 61.4198L30.1559 60.7883L29.0017 59.2358L28.404 58.6125L28.3327 58.1278L27.5699 57.5958L27.0966 56.6753L26.6211 56.328L26.7553 55.1336L27.2613 54.5022L26.4792 54.1289L26.1961 53.6697L26.426 52.5454L25.5908 51.6433L24.3023 51.1798L24.5306 50.6543L25.0436 50.4712L25.213 49.3556L24.4099 49.1187L24.1459 48.5459L24.049 47.4765L23.7507 47.0673L22.9851 46.6798L22.8688 45.7424L21.1093 45.5598L21.1201 44.7991L20.7663 44.1459L19.9344 43.4265L19.0579 43.1194L18.4677 42.6586L18.1684 42.0598L17.2918 42.3369L16.7289 41.8544L16.8903 41.3017L15.9251 40.7801L14.9057 41.4349L13.5434 41.3044L14.0074 40.5844L14.5139 40.4078L14.195 39.7318L13.5391 39.5769L12.9641 40.0573L12.6234 39.2177L11.6426 39.1243L11.3665 38.0581L9.82754 38.394L8.87714 39.1411L8.38478 38.6151L7.78761 38.764L8.13652 39.4645L6.89641 39.8351L7.05031 40.2774L5.55149 40.7029L5.11949 40.1084L5.08367 39.1498L4.50922 38.9156L3.3953 39.2498L2.3454 38.4852L2.38404 37.6163L3.10294 36.6431L3.45932 35.7437L4.50225 35.9388L4.58318 34.7379L4.35549 33.9674L2.26332 34.0276L1.07876 33.3631L1.52983 32.7632L0.728844 31.904L1.55304 30.8846L1.77427 30.3982L2.53993 30.3705L2.53396 29.6608L1.97592 29.3239L1.91291 28.8566L1.0043 27.9176L1.29235 27.4877L1.13746 26.4357L0.366329 25.9461L0.236978 25.4799L0.50646 24.5561L0 23.8964L0.695014 23.3024L1.54823 23.4747L1.79931 22.3417L2.64258 22.6286L3.42035 22.2634L3.67722 21.7977L4.519 21.5521L5.44071 20.0213L5.915 19.7431L6.66938 19.7703L7.17518 19.0166L8.06969 18.3313L8.40053 18.7215L9.00915 18.1471L9.61461 18.8584L11.3302 18.9981L12.1491 17.9118L12.9718 18.1221L13.6983 17.2016L13.5429 16.6479Z"/>
</mask>
<path d="M13.5429 16.6479L13.9189 16.3321L13.5988 15.1948L14.3379 14.6182L15.1649 14.7801L15.6736 14.3329L16.7838 14.0053L17.187 14.2395L17.9538 13.8525L18.2732 14.1965L18.2075 14.9676L18.9563 15.4094L19.8823 14.8285L21.9141 15.466L22.4201 14.9573L23.1955 15.1986L23.865 14.5449L23.9149 13.8281L24.3534 12.7842L24.8512 12.6484L25.4963 11.7371L26.1288 11.4523L26.3548 9.97263L26.1792 9.45203L26.5434 9.1124L26.6498 8.26362L27.5274 7.93323L28.047 7.43436L28.078 6.42202L28.4387 5.40856L28.1351 4.9749L28.717 4.38366L29.1452 3.31154L30.0266 3.47294L30.8373 1.6911L31.7259 1.69054L32.2844 0.565704L33.3066 0L33.9321 0.375512L34.5114 1.40309L34.3582 1.80683L34.6043 2.55674L34.1995 3.72235L34.6988 4.1223L35.0592 3.56858L36.5905 3.32949L37.261 3.40498L37.4158 4.47118L37.9206 5.36345L38.0576 6.13944L38.7989 7.80388L39.2749 7.93647L39.835 7.39145L40.479 8.40545L40.2198 9.09283L40.2513 10.3443L39.9775 10.7644L40.3438 11.9202L40.3334 12.4435L41.1241 14.3422L41.78 15.0937L42.1158 15.135L43.3471 16.5115L43.9514 17.5928L44.6171 17.9515L45.0051 18.5384L45.5767 18.8644L45.8665 19.5551L45.5061 20.9756L45.6681 21.7624L45.2822 22.5248L46.4961 23.7062L46.951 23.8572L47.695 24.7544L48.0047 26.4167L47.557 26.7156L47.8281 27.2448L47.9537 28.2083L47.2434 28.3844L47.1897 29.7472L47.6374 30.0184L47.4699 30.5493L47.7064 31.415L48.2525 31.879L48.459 32.5251L47.414 33.9087L47.2505 34.6184L47.8673 34.82L48.4694 34.3477L48.7112 35.8035L49.7566 35.6823L50.981 36.5426L51.0483 37.4952L50.574 38.3488L51.6863 38.5293L52.5975 38.0299L53.2648 38.1358L53.6083 37.7413L54.4484 38.0695L55.1408 37.8875L55.9255 38.0657L56.0699 38.7417L56.5943 39.1852L56.5439 39.6074L55.1033 40.2252L54.9391 41.0844L54.5821 41.4022L54.7028 42.6184L54.1398 43.0167L53.5056 42.9645L52.8617 43.8639L53.4648 44.7035L54.0914 44.8518L54.9043 44.3182L55.262 45.4202L55.7695 45.8294L57.1101 45.4262L57.5545 46.169L58.1361 46.2304L59.1016 47.107L59.3369 47.7694L58.9827 48.4698L58.1638 48.7524L57.7311 49.9365L56.6716 50.037L56.6084 50.6375L55.9988 50.8744L55.6895 51.8411L55.9749 52.7888L55.4499 53.1871L55.3597 53.7463L54.5327 53.9773L52.9214 53.5838L52.4601 53.8713L52.3438 54.4294L51.7113 54.8043L51.4103 55.6575L52.0335 56.4568L51.9292 57.103L51.2337 57.3333L50.4163 57.9713L49.5148 57.9582L48.5356 57.7214L48.2966 57.9115L47.2787 57.6126L46.8658 57.1644L45.8854 56.7742L45.1643 56.7948L44.8899 57.6599L44.9829 58.1196L44.553 58.5288L44.8655 59.4907L45.5648 60.2151L44.7084 61.3681L44.9545 61.7654L44.8035 62.9636L45.3209 63.3679L45.0078 64.0808L44.4063 63.8466L43.564 63.9841L42.2169 63.2478L41.1291 63.9004L40.3584 63.9787L40.0558 63.5412L39.9508 62.4126L39.5205 61.6436L38.0648 61.6779L37.6707 61.2247L36.8736 61.166L35.927 60.5438L34.9776 61.0111L34.7527 61.7898L33.0658 62.1936L32.0519 61.5007L31.1173 61.4198L30.1559 60.7883L29.0017 59.2358L28.404 58.6125L28.3327 58.1278L27.5699 57.5958L27.0966 56.6753L26.6211 56.328L26.7553 55.1336L27.2613 54.5022L26.4792 54.1289L26.1961 53.6697L26.426 52.5454L25.5908 51.6433L24.3023 51.1798L24.5306 50.6543L25.0436 50.4712L25.213 49.3556L24.4099 49.1187L24.1459 48.5459L24.049 47.4765L23.7507 47.0673L22.9851 46.6798L22.8688 45.7424L21.1093 45.5598L21.1201 44.7991L20.7663 44.1459L19.9344 43.4265L19.0579 43.1194L18.4677 42.6586L18.1684 42.0598L17.2918 42.3369L16.7289 41.8544L16.8903 41.3017L15.9251 40.7801L14.9057 41.4349L13.5434 41.3044L14.0074 40.5844L14.5139 40.4078L14.195 39.7318L13.5391 39.5769L12.9641 40.0573L12.6234 39.2177L11.6426 39.1243L11.3665 38.0581L9.82754 38.394L8.87714 39.1411L8.38478 38.6151L7.78761 38.764L8.13652 39.4645L6.89641 39.8351L7.05031 40.2774L5.55149 40.7029L5.11949 40.1084L5.08367 39.1498L4.50922 38.9156L3.3953 39.2498L2.3454 38.4852L2.38404 37.6163L3.10294 36.6431L3.45932 35.7437L4.50225 35.9388L4.58318 34.7379L4.35549 33.9674L2.26332 34.0276L1.07876 33.3631L1.52983 32.7632L0.728844 31.904L1.55304 30.8846L1.77427 30.3982L2.53993 30.3705L2.53396 29.6608L1.97592 29.3239L1.91291 28.8566L1.0043 27.9176L1.29235 27.4877L1.13746 26.4357L0.366329 25.9461L0.236978 25.4799L0.50646 24.5561L0 23.8964L0.695014 23.3024L1.54823 23.4747L1.79931 22.3417L2.64258 22.6286L3.42035 22.2634L3.67722 21.7977L4.519 21.5521L5.44071 20.0213L5.915 19.7431L6.66938 19.7703L7.17518 19.0166L8.06969 18.3313L8.40053 18.7215L9.00915 18.1471L9.61461 18.8584L11.3302 18.9981L12.1491 17.9118L12.9718 18.1221L13.6983 17.2016L13.5429 16.6479Z" fill="#F2F2F2" stroke="#07122B" mask="url(#path-1-inside-1_81_114)"/>
</svg>
