<svg width="59" height="39" viewBox="0 0 59 39" fill="none" xmlns="http://www.w3.org/2000/svg">
<mask id="path-1-inside-1_81_95" fill="white">
<path d="M0 23.6594L0.0119401 22.7019L0.337474 21.7107L1.04658 21.2728L2.39963 20.9212L3.30542 20.362L4.4205 19.2844L5.63026 18.9204L5.79925 18.4851L6.68066 18.4731L7.29574 17.2863L7.94233 17.4233L8.48627 17.1276L9.04447 16.2082L8.81728 15.8387L7.67832 15.9778L7.23488 15.4507L7.6425 14.3509L8.29175 13.1575L9.05475 12.9418L9.15857 11.9387L9.81544 11.3871L10.872 11.3577L11.1882 11.1181L12.9592 11.6588L13.759 12.1935L14.6361 12.0109L14.1122 10.816L14.0834 10.1525L14.5659 8.57333L15.517 7.2838L15.6734 5.98453L15.1915 4.77762L16.0707 3.80599L15.3712 3.47345L15.1626 2.92404L17.1543 1.96278L17.4205 1.29331L18.0742 1.02702L18.7796 0L21.8373 0.601525L22.9643 0.675985L24.1469 1.24057L24.7885 1.85408L25.4945 1.88127L27.4888 2.97243L28.2745 4.0739L29.4853 4.97977L29.8951 5.79867L29.9624 6.59965L30.2541 6.96594L34.7917 9.50906L35.2893 9.68132L36.8354 9.0412L37.5006 8.98796L38.4646 9.31507L40.0518 9.62916L40.8728 10.4415L43.5992 11.8186L43.9948 12.1473L46.3694 13.1309L47.9986 13.5504L49.5555 13.3988L50.7521 13.5781L52.2513 12.7016L53.2181 11.7958L54.3962 11.9772L54.7917 11.8349L55.496 10.6095L56.1421 10.2275L57.024 10.2889L57.186 11.1241L57.6125 11.8403L58.3631 12.0229L57.6431 13.47L55.8117 13.6716L54.2401 14.5758L53.4212 15.8333L53.8833 17.3521L52.5615 17.6917L52.9546 18.3107L54.0451 18.4998L55.0667 19.1486L54.839 19.7099L54.7721 21.4342L54.2625 21.8471L54.1365 22.4031L55.2048 23.3323L56.0481 24.9815L57.3615 26.0216L56.0204 26.6509L55.0798 26.2765L54.0501 26.3661L53.543 26.7731L53.8196 27.3062L53.9816 28.549L54.3625 28.9707L53.6761 29.7602L53.8277 30.2129L53.5594 30.8563L53.9532 31.0981L55.1592 30.9199L55.4628 31.6008L56.2519 32.6088L56.4258 33.4516L55.4602 33.7396L54.2179 34.4683L53.5692 35.0308L53.1463 37.8945L52.3725 37.437L51.7689 37.4234L50.9586 37.8434L50.7717 38.8531L49.4822 38.2298L48.6513 37.1941L48.6497 36.4833L48.1726 36.1132L46.8189 37.0028L46.189 36.5431L45.2821 36.2741L44.7474 36.6327L43.9476 36.605L43.2036 36.1486L42.0266 36.4703L40.9425 36.1273L41.3218 35.2128L42.1151 34.5721L42.033 33.4326L41.1516 32.768L41.4533 32.3328L41.6907 31.347L40.8909 30.0352L40.1289 29.4005L39.7725 28.7718L39.053 28.9027L37.9429 29.8641L36.8192 30.3422L34.7296 30.0961L34.5965 30.371L33.3506 30.3086L31.3866 30.37L30.6118 30.2357L29.8461 30.3526L29.0364 29.45L29.2999 29.0723L28.8375 28.611L27.5349 26.4694L27.1203 25.3782L25.889 25.044L25.0696 25.3244L24.9276 25.7059L23.8044 26.0814L23.4491 26.4879L22.1118 25.3097L21.8862 25.4907L23.0894 26.5302L22.4156 27.0073L23.0073 27.3356L22.9448 28.0273L24.0648 28.6887L23.3035 29.8651L22.2351 30.2727L21.3793 29.7374L19.4365 29.2668L17.935 29.2576L16.5939 29.4815L13.6107 28.9153L12.6146 28.455L12.0489 27.9192L11.9885 27.2801L13.1532 26.753L13.3265 26.1417L13.1238 25.4755L12.3234 24.6044L11.299 24.1175L10.0856 23.8714L8.11679 23.8023L7.29524 24.2121L3.93427 23.8697L0 23.6594Z"/>
</mask>
<path d="M0 23.6594L0.0119401 22.7019L0.337474 21.7107L1.04658 21.2728L2.39963 20.9212L3.30542 20.362L4.4205 19.2844L5.63026 18.9204L5.79925 18.4851L6.68066 18.4731L7.29574 17.2863L7.94233 17.4233L8.48627 17.1276L9.04447 16.2082L8.81728 15.8387L7.67832 15.9778L7.23488 15.4507L7.6425 14.3509L8.29175 13.1575L9.05475 12.9418L9.15857 11.9387L9.81544 11.3871L10.872 11.3577L11.1882 11.1181L12.9592 11.6588L13.759 12.1935L14.6361 12.0109L14.1122 10.816L14.0834 10.1525L14.5659 8.57333L15.517 7.2838L15.6734 5.98453L15.1915 4.77762L16.0707 3.80599L15.3712 3.47345L15.1626 2.92404L17.1543 1.96278L17.4205 1.29331L18.0742 1.02702L18.7796 0L21.8373 0.601525L22.9643 0.675985L24.1469 1.24057L24.7885 1.85408L25.4945 1.88127L27.4888 2.97243L28.2745 4.0739L29.4853 4.97977L29.8951 5.79867L29.9624 6.59965L30.2541 6.96594L34.7917 9.50906L35.2893 9.68132L36.8354 9.0412L37.5006 8.98796L38.4646 9.31507L40.0518 9.62916L40.8728 10.4415L43.5992 11.8186L43.9948 12.1473L46.3694 13.1309L47.9986 13.5504L49.5555 13.3988L50.7521 13.5781L52.2513 12.7016L53.2181 11.7958L54.3962 11.9772L54.7917 11.8349L55.496 10.6095L56.1421 10.2275L57.024 10.2889L57.186 11.1241L57.6125 11.8403L58.3631 12.0229L57.6431 13.47L55.8117 13.6716L54.2401 14.5758L53.4212 15.8333L53.8833 17.3521L52.5615 17.6917L52.9546 18.3107L54.0451 18.4998L55.0667 19.1486L54.839 19.7099L54.7721 21.4342L54.2625 21.8471L54.1365 22.4031L55.2048 23.3323L56.0481 24.9815L57.3615 26.0216L56.0204 26.6509L55.0798 26.2765L54.0501 26.3661L53.543 26.7731L53.8196 27.3062L53.9816 28.549L54.3625 28.9707L53.6761 29.7602L53.8277 30.2129L53.5594 30.8563L53.9532 31.0981L55.1592 30.9199L55.4628 31.6008L56.2519 32.6088L56.4258 33.4516L55.4602 33.7396L54.2179 34.4683L53.5692 35.0308L53.1463 37.8945L52.3725 37.437L51.7689 37.4234L50.9586 37.8434L50.7717 38.8531L49.4822 38.2298L48.6513 37.1941L48.6497 36.4833L48.1726 36.1132L46.8189 37.0028L46.189 36.5431L45.2821 36.2741L44.7474 36.6327L43.9476 36.605L43.2036 36.1486L42.0266 36.4703L40.9425 36.1273L41.3218 35.2128L42.1151 34.5721L42.033 33.4326L41.1516 32.768L41.4533 32.3328L41.6907 31.347L40.8909 30.0352L40.1289 29.4005L39.7725 28.7718L39.053 28.9027L37.9429 29.8641L36.8192 30.3422L34.7296 30.0961L34.5965 30.371L33.3506 30.3086L31.3866 30.37L30.6118 30.2357L29.8461 30.3526L29.0364 29.45L29.2999 29.0723L28.8375 28.611L27.5349 26.4694L27.1203 25.3782L25.889 25.044L25.0696 25.3244L24.9276 25.7059L23.8044 26.0814L23.4491 26.4879L22.1118 25.3097L21.8862 25.4907L23.0894 26.5302L22.4156 27.0073L23.0073 27.3356L22.9448 28.0273L24.0648 28.6887L23.3035 29.8651L22.2351 30.2727L21.3793 29.7374L19.4365 29.2668L17.935 29.2576L16.5939 29.4815L13.6107 28.9153L12.6146 28.455L12.0489 27.9192L11.9885 27.2801L13.1532 26.753L13.3265 26.1417L13.1238 25.4755L12.3234 24.6044L11.299 24.1175L10.0856 23.8714L8.11679 23.8023L7.29524 24.2121L3.93427 23.8697L0 23.6594Z" fill="#F2F2F2" stroke="#07122B" mask="url(#path-1-inside-1_81_95)"/>
</svg>
