<svg width="60" height="39" viewBox="0 0 60 39" fill="none" xmlns="http://www.w3.org/2000/svg">
<mask id="path-1-inside-1_81_158" fill="white">
<path d="M1.55968 4.80373L1.46449 4.01144L2.60842 2.69041L3.28436 2.22797L4.28534 2.30514L5.71567 1.89704L8.11264 1.97801L8.83751 2.24102L9.44728 2.84583L11.6307 3.90765L13.3081 4.29293L16.0507 4.70103L16.6419 4.63636L19.1737 4.8021L19.7073 5.05696L20.6425 5.08902L22.206 4.74124L24.0459 4.83959L26.4961 5.36616L27.6769 5.34768L29.186 5.90848L31.2096 7.22027L32.7551 7.799L34.3864 8.16797L36.248 8.14406L37.5674 7.94354L39.1548 7.45828L39.5059 7.57131L40.0243 7.0317L40.6763 6.82521L42.9332 5.76122L44.4046 4.6282L45.8414 3.20068L46.8918 1.9579L47.4047 1.59382L49.1671 1.0026L50.9597 0.126076L53.6541 0L53.6796 1.11018L54.141 2.4285L53.8773 3.07787L53.9963 3.85602L54.7262 5.13684L54.273 6.07422L53.7376 6.51656L54.3283 6.88987L54.6419 7.53381L54.1866 8.06527L54.756 8.51412L55.2973 7.80768L56.0826 7.51045L56.8774 8.15329L56.8742 9.27869L55.263 10.046L54.5045 10.1041L55.2048 11.2659L56.2036 12.0517L56.6542 12.018L57.2943 12.4701L57.0172 13.839L57.2464 14.234L57.1301 15.7833L58.4686 15.992L58.4528 16.812L57.8387 17.3804L57.4318 18.6927L57.4497 19.3692L58.1784 19.6529L58.1431 20.1126L57.1525 19.8741L56.7237 20.2322L56.6981 20.8848L56.2666 21.3228L56.8731 21.7847L57.1101 22.3112L58.4979 22.433L59.0452 22.8601L59.1968 23.4203L58.7359 23.9779L58.4817 25.3706L58.6605 25.9994L57.954 27.0449L57.7106 26.3249L57.0067 26.1618L56.4416 26.3363L55.8993 27.071L55.006 27.4791L54.1403 26.8454L53.2639 27.1394L52.9508 26.1792L51.8194 26.4846L51.3032 27.6714L50.7418 27.2677L49.5616 27.6595L49.3545 28.2094L48.4422 28.4773L48.0911 27.478L47.6895 26.9981L46.5701 27.6279L45.7262 27.7171L45.1844 28.3382L44.8665 29.6059L43.6867 30.1004L41.8783 31.0976L41.3485 31.8703L40.6708 32.3447L40.3296 33.0001L38.2087 33.2278L37.1409 34.3276L36.5829 34.1331L36.2606 33.6424L34.8912 33.2234L34.1336 32.8273L32.3818 32.4344L31.709 32.6512L31.477 32.1969L30.6645 32.2594L30.3624 32.8881L30.6922 33.1952L30.0005 34.2461L29.3397 33.7136L28.9148 32.9235L28.405 32.8093L27.8346 32.0556L27.7835 31.6008L25.4581 31.5927L25.1794 32.1768L23.786 32.6762L22.4597 32.9267L22.1206 33.5315L21.3315 33.3403L20.4539 33.5429L19.7203 33.9586L18.9536 33.9396L18.5699 33.3631L17.4586 33.0832L16.7235 33.3424L17.3168 34.4336L16.4034 35.4813L14.4487 36.1861L13.4582 36.7632L13.1136 37.5191L12.4393 38.1152L11.7322 38.1326L12.0545 37.4071L11.2453 37.4837L10.6123 37.9527L9.4831 37.237L8.21364 36.8735L7.61978 36.0942L6.93505 36.5762L5.63689 36.7322L5.42429 37.0343L4.26196 36.3904L3.64903 36.8816L2.83014 36.7126L2.14109 35.9394L2.50361 35.5008L2.1008 34.6732L0.699492 34.3787L0 34.0092L0.0271969 33.6348L0.688547 33.1256L1.65371 31.9953L2.02203 31.8877L2.51389 30.9971L3.05667 31.5867L3.68817 31.1481L4.05665 30.1972L4.82397 29.7983L5.37769 29.0196L5.11899 28.3235L4.4001 28.6343L4.24952 27.9888L5.46293 27.5741L6.15148 27.5204L6.23125 27.0199L7.98877 26.0483L9.17548 24.5517L9.37332 23.6122L9.79438 23.5111L10.2428 22.8851L10.9312 22.7748L10.9476 22.3129L10.1232 22.089L9.85209 21.5825L10.4199 21.1608L10.6905 20.4441L10.6008 19.685L10.2678 19.1649L10.434 17.9466L9.79504 17.6635L10.0455 16.9804L9.25856 16.4348L8.4463 16.1305L7.93106 15.3442L8.68378 14.916L8.99505 14.1895L9.02822 13.483L9.6292 12.9087L8.76139 11.805L7.60618 12.6288L6.86391 13.4004L6.24053 13.0657L4.97986 12.7799L4.49562 11.749L4.17125 11.8012L2.98553 11.0622L1.61391 9.36455L0.903137 9.05753L0.927681 8.14243L0.718397 6.79749L1.67112 5.8987L1.55968 4.80373Z"/>
</mask>
<path d="M1.55968 4.80373L1.46449 4.01144L2.60842 2.69041L3.28436 2.22797L4.28534 2.30514L5.71567 1.89704L8.11264 1.97801L8.83751 2.24102L9.44728 2.84583L11.6307 3.90765L13.3081 4.29293L16.0507 4.70103L16.6419 4.63636L19.1737 4.8021L19.7073 5.05696L20.6425 5.08902L22.206 4.74124L24.0459 4.83959L26.4961 5.36616L27.6769 5.34768L29.186 5.90848L31.2096 7.22027L32.7551 7.799L34.3864 8.16797L36.248 8.14406L37.5674 7.94354L39.1548 7.45828L39.5059 7.57131L40.0243 7.0317L40.6763 6.82521L42.9332 5.76122L44.4046 4.6282L45.8414 3.20068L46.8918 1.9579L47.4047 1.59382L49.1671 1.0026L50.9597 0.126076L53.6541 0L53.6796 1.11018L54.141 2.4285L53.8773 3.07787L53.9963 3.85602L54.7262 5.13684L54.273 6.07422L53.7376 6.51656L54.3283 6.88987L54.6419 7.53381L54.1866 8.06527L54.756 8.51412L55.2973 7.80768L56.0826 7.51045L56.8774 8.15329L56.8742 9.27869L55.263 10.046L54.5045 10.1041L55.2048 11.2659L56.2036 12.0517L56.6542 12.018L57.2943 12.4701L57.0172 13.839L57.2464 14.234L57.1301 15.7833L58.4686 15.992L58.4528 16.812L57.8387 17.3804L57.4318 18.6927L57.4497 19.3692L58.1784 19.6529L58.1431 20.1126L57.1525 19.8741L56.7237 20.2322L56.6981 20.8848L56.2666 21.3228L56.8731 21.7847L57.1101 22.3112L58.4979 22.433L59.0452 22.8601L59.1968 23.4203L58.7359 23.9779L58.4817 25.3706L58.6605 25.9994L57.954 27.0449L57.7106 26.3249L57.0067 26.1618L56.4416 26.3363L55.8993 27.071L55.006 27.4791L54.1403 26.8454L53.2639 27.1394L52.9508 26.1792L51.8194 26.4846L51.3032 27.6714L50.7418 27.2677L49.5616 27.6595L49.3545 28.2094L48.4422 28.4773L48.0911 27.478L47.6895 26.9981L46.5701 27.6279L45.7262 27.7171L45.1844 28.3382L44.8665 29.6059L43.6867 30.1004L41.8783 31.0976L41.3485 31.8703L40.6708 32.3447L40.3296 33.0001L38.2087 33.2278L37.1409 34.3276L36.5829 34.1331L36.2606 33.6424L34.8912 33.2234L34.1336 32.8273L32.3818 32.4344L31.709 32.6512L31.477 32.1969L30.6645 32.2594L30.3624 32.8881L30.6922 33.1952L30.0005 34.2461L29.3397 33.7136L28.9148 32.9235L28.405 32.8093L27.8346 32.0556L27.7835 31.6008L25.4581 31.5927L25.1794 32.1768L23.786 32.6762L22.4597 32.9267L22.1206 33.5315L21.3315 33.3403L20.4539 33.5429L19.7203 33.9586L18.9536 33.9396L18.5699 33.3631L17.4586 33.0832L16.7235 33.3424L17.3168 34.4336L16.4034 35.4813L14.4487 36.1861L13.4582 36.7632L13.1136 37.5191L12.4393 38.1152L11.7322 38.1326L12.0545 37.4071L11.2453 37.4837L10.6123 37.9527L9.4831 37.237L8.21364 36.8735L7.61978 36.0942L6.93505 36.5762L5.63689 36.7322L5.42429 37.0343L4.26196 36.3904L3.64903 36.8816L2.83014 36.7126L2.14109 35.9394L2.50361 35.5008L2.1008 34.6732L0.699492 34.3787L0 34.0092L0.0271969 33.6348L0.688547 33.1256L1.65371 31.9953L2.02203 31.8877L2.51389 30.9971L3.05667 31.5867L3.68817 31.1481L4.05665 30.1972L4.82397 29.7983L5.37769 29.0196L5.11899 28.3235L4.4001 28.6343L4.24952 27.9888L5.46293 27.5741L6.15148 27.5204L6.23125 27.0199L7.98877 26.0483L9.17548 24.5517L9.37332 23.6122L9.79438 23.5111L10.2428 22.8851L10.9312 22.7748L10.9476 22.3129L10.1232 22.089L9.85209 21.5825L10.4199 21.1608L10.6905 20.4441L10.6008 19.685L10.2678 19.1649L10.434 17.9466L9.79504 17.6635L10.0455 16.9804L9.25856 16.4348L8.4463 16.1305L7.93106 15.3442L8.68378 14.916L8.99505 14.1895L9.02822 13.483L9.6292 12.9087L8.76139 11.805L7.60618 12.6288L6.86391 13.4004L6.24053 13.0657L4.97986 12.7799L4.49562 11.749L4.17125 11.8012L2.98553 11.0622L1.61391 9.36455L0.903137 9.05753L0.927681 8.14243L0.718397 6.79749L1.67112 5.8987L1.55968 4.80373Z" fill="#F2F2F2" stroke="#07122B" mask="url(#path-1-inside-1_81_158)"/>
</svg>
