<svg width="49" height="46" viewBox="0 0 49 46" fill="none" xmlns="http://www.w3.org/2000/svg">
<mask id="path-1-inside-1_81_99" fill="white">
<path d="M0 26.5101L1.10313 26.0276L2.57956 26.0542L2.83229 24.8924L1.97692 24.1773L1.6542 23.0323L1.20098 22.365L1.528 21.8276L2.99415 20.8489L3.78269 20.8929L4.33211 20.3273L4.46676 19.0666L4.26627 18.1678L4.83094 18.2623L5.36177 17.7928L5.86658 16.3973L5.13524 15.9012L4.96079 14.8263L4.68202 14.7226L5.1379 13.4298L5.97636 12.525L6.56607 12.2761L6.67519 11.3474L7.22841 11.1437L7.6425 10.1145L8.39407 10.2193L9.41296 8.40706L10.6362 8.17448L10.904 7.55554L10.5889 7.19962L11.1436 6.66109L11.067 5.49602L11.2866 4.99934L10.8405 4.3978L10.6307 3.65278L11.2307 3.5191L11.9696 3.74843L12.3462 4.34726L13.6286 4.73417L14.0993 5.24932L14.6492 5.13249L15.5872 5.4683L16.987 5.0901L16.8706 4.344L15.6664 3.37348L16.0968 1.18247L16.4163 0.221701L16.7662 0L17.4228 0.245083L17.7705 1.09171L18.6568 0.98139L19.2317 1.72804L19.9349 1.74923L20.6234 1.19494L20.7974 2.08289L21.6652 2.10733L21.932 2.51489L22.9433 2.42631L22.7459 3.97123L23.886 5.23031L25.0472 4.71406L25.7608 5.10098L26.2711 5.03902L27.9566 4.35107L28.2909 4.92001L29.0924 4.77493L29.638 5.61123L30.2063 5.21128L30.8607 5.91446L31.6056 6.35025L32.1247 8.2636L32.6441 9.13522L33.3675 9.22869L34.463 9.94381L36.1518 9.66179L36.9989 8.56085L36.8968 7.90931L37.5462 7.71638L38.3727 6.73881L38.8422 7.83431L38.1309 8.68801L38.7498 9.13468L38.2684 9.60472L37.7419 9.5944L37.6006 10.1161L38.4092 10.0721L38.6233 10.4394L39.9687 10.2459L40.6969 10.3427L40.8838 11.1078L41.9793 10.5264L42.7385 10.8676L42.9824 11.4627L42.6945 12.5506L43.2041 13.0146L43.3504 13.9732L44.398 14.1596L44.5323 15.3725L44.1529 15.7936L44.3192 16.9272L45.1539 19.009L45.5789 18.7563L46.8754 19.5007L47.4281 20.0012L46.5505 20.3169L45.7381 19.9458L45.4137 20.5446L46.1457 20.9223L45.6039 22.0971L45.7684 22.9601L45.4811 23.3345L46.0908 24.0849L46.6228 23.6904L47.0238 23.8676L47.4444 25.1908L48.2263 25.1777L47.9911 25.7787L47.2809 25.9999L47.3732 26.6536L47.8661 26.7878L47.5845 27.6546L46.9596 27.5812L45.6016 28.4382L45.0691 29.1364L44.2008 28.8267L43.8313 28.3567L43.5313 29.6581L42.8955 29.9869L43.2335 31.1938L42.3098 31.8948L41.9033 31.7953L41.442 32.5061L40.7078 31.8019L39.7801 30.3444L39.1677 30.6085L38.614 31.1661L38.5243 32.2024L37.9777 32.893L38.2027 33.9733L37.6016 33.9467L36.2182 35.7872L36.4001 36.6855L36.1115 37.1338L36.3502 37.6169L35.6812 38.3385L35.6306 39.165L35.98 40.1029L35.1563 40.1454L34.5194 42.1592L34.0821 42.8689L33.8869 43.7334L33.5511 43.6922L32.8952 42.9406L32.1045 41.0419L32.1149 40.5187L31.7486 39.3628L32.0224 38.9428L31.9909 37.6913L32.2501 37.0039L31.6061 35.9899L31.046 36.5349L30.57 36.4023L29.8287 34.7379L29.6917 33.9619L29.1869 33.0696L29.0321 32.0034L28.3616 31.9279L26.8303 32.167L26.4699 32.7208L25.9706 32.3208L26.3754 31.1552L26.1293 30.4053L26.2825 30.0015L25.7033 28.974L25.0777 28.5985L24.0555 29.1642L23.497 30.289L22.6084 30.2896L21.7977 32.0714L20.9163 31.91L20.4881 32.9821L19.9062 33.5734L20.2098 34.007L19.8491 35.0205L19.8181 36.0328L19.2985 36.5317L18.4209 36.8621L18.3145 37.7109L17.9503 38.0505L18.1259 38.5711L17.8999 40.0508L17.2674 40.3355L16.6223 41.2468L16.1245 41.3827L15.686 42.4266L15.6361 43.1433L14.9666 43.797L14.1912 43.5558L13.6852 44.0644L11.6534 43.427L10.7274 44.0079L9.97862 43.5661L10.0443 42.795L9.72489 42.451L8.95807 42.8379L8.55493 42.6037L7.44466 42.9314L6.93605 43.3786L6.10903 43.2167L5.3699 43.7932L5.68996 44.9306L5.31401 45.2463L4.65316 44.5459L3.92564 44.0932L4.12713 43.39L3.79248 42.8803L4.19513 42.2793L3.31803 40.8985L2.78652 41.2604L2.52849 40.4062L3.17342 39.7177L3.3832 38.2689L3.14954 37.4392L3.70923 37.2142L4.00375 36.1942L3.77672 34.9933L2.65999 34.2918L2.36597 33.3778L1.99698 33.1848L0.761846 31.2074L0.860186 30.3537L1.40197 30.2042L1.4547 29.4886L0.551567 28.7354L0.64941 27.7247L0 26.5101Z"/>
</mask>
<path d="M0 26.5101L1.10313 26.0276L2.57956 26.0542L2.83229 24.8924L1.97692 24.1773L1.6542 23.0323L1.20098 22.365L1.528 21.8276L2.99415 20.8489L3.78269 20.8929L4.33211 20.3273L4.46676 19.0666L4.26627 18.1678L4.83094 18.2623L5.36177 17.7928L5.86658 16.3973L5.13524 15.9012L4.96079 14.8263L4.68202 14.7226L5.1379 13.4298L5.97636 12.525L6.56607 12.2761L6.67519 11.3474L7.22841 11.1437L7.6425 10.1145L8.39407 10.2193L9.41296 8.40706L10.6362 8.17448L10.904 7.55554L10.5889 7.19962L11.1436 6.66109L11.067 5.49602L11.2866 4.99934L10.8405 4.3978L10.6307 3.65278L11.2307 3.5191L11.9696 3.74843L12.3462 4.34726L13.6286 4.73417L14.0993 5.24932L14.6492 5.13249L15.5872 5.4683L16.987 5.0901L16.8706 4.344L15.6664 3.37348L16.0968 1.18247L16.4163 0.221701L16.7662 0L17.4228 0.245083L17.7705 1.09171L18.6568 0.98139L19.2317 1.72804L19.9349 1.74923L20.6234 1.19494L20.7974 2.08289L21.6652 2.10733L21.932 2.51489L22.9433 2.42631L22.7459 3.97123L23.886 5.23031L25.0472 4.71406L25.7608 5.10098L26.2711 5.03902L27.9566 4.35107L28.2909 4.92001L29.0924 4.77493L29.638 5.61123L30.2063 5.21128L30.8607 5.91446L31.6056 6.35025L32.1247 8.2636L32.6441 9.13522L33.3675 9.22869L34.463 9.94381L36.1518 9.66179L36.9989 8.56085L36.8968 7.90931L37.5462 7.71638L38.3727 6.73881L38.8422 7.83431L38.1309 8.68801L38.7498 9.13468L38.2684 9.60472L37.7419 9.5944L37.6006 10.1161L38.4092 10.0721L38.6233 10.4394L39.9687 10.2459L40.6969 10.3427L40.8838 11.1078L41.9793 10.5264L42.7385 10.8676L42.9824 11.4627L42.6945 12.5506L43.2041 13.0146L43.3504 13.9732L44.398 14.1596L44.5323 15.3725L44.1529 15.7936L44.3192 16.9272L45.1539 19.009L45.5789 18.7563L46.8754 19.5007L47.4281 20.0012L46.5505 20.3169L45.7381 19.9458L45.4137 20.5446L46.1457 20.9223L45.6039 22.0971L45.7684 22.9601L45.4811 23.3345L46.0908 24.0849L46.6228 23.6904L47.0238 23.8676L47.4444 25.1908L48.2263 25.1777L47.9911 25.7787L47.2809 25.9999L47.3732 26.6536L47.8661 26.7878L47.5845 27.6546L46.9596 27.5812L45.6016 28.4382L45.0691 29.1364L44.2008 28.8267L43.8313 28.3567L43.5313 29.6581L42.8955 29.9869L43.2335 31.1938L42.3098 31.8948L41.9033 31.7953L41.442 32.5061L40.7078 31.8019L39.7801 30.3444L39.1677 30.6085L38.614 31.1661L38.5243 32.2024L37.9777 32.893L38.2027 33.9733L37.6016 33.9467L36.2182 35.7872L36.4001 36.6855L36.1115 37.1338L36.3502 37.6169L35.6812 38.3385L35.6306 39.165L35.98 40.1029L35.1563 40.1454L34.5194 42.1592L34.0821 42.8689L33.8869 43.7334L33.5511 43.6922L32.8952 42.9406L32.1045 41.0419L32.1149 40.5187L31.7486 39.3628L32.0224 38.9428L31.9909 37.6913L32.2501 37.0039L31.6061 35.9899L31.046 36.5349L30.57 36.4023L29.8287 34.7379L29.6917 33.9619L29.1869 33.0696L29.0321 32.0034L28.3616 31.9279L26.8303 32.167L26.4699 32.7208L25.9706 32.3208L26.3754 31.1552L26.1293 30.4053L26.2825 30.0015L25.7033 28.974L25.0777 28.5985L24.0555 29.1642L23.497 30.289L22.6084 30.2896L21.7977 32.0714L20.9163 31.91L20.4881 32.9821L19.9062 33.5734L20.2098 34.007L19.8491 35.0205L19.8181 36.0328L19.2985 36.5317L18.4209 36.8621L18.3145 37.7109L17.9503 38.0505L18.1259 38.5711L17.8999 40.0508L17.2674 40.3355L16.6223 41.2468L16.1245 41.3827L15.686 42.4266L15.6361 43.1433L14.9666 43.797L14.1912 43.5558L13.6852 44.0644L11.6534 43.427L10.7274 44.0079L9.97862 43.5661L10.0443 42.795L9.72489 42.451L8.95807 42.8379L8.55493 42.6037L7.44466 42.9314L6.93605 43.3786L6.10903 43.2167L5.3699 43.7932L5.68996 44.9306L5.31401 45.2463L4.65316 44.5459L3.92564 44.0932L4.12713 43.39L3.79248 42.8803L4.19513 42.2793L3.31803 40.8985L2.78652 41.2604L2.52849 40.4062L3.17342 39.7177L3.3832 38.2689L3.14954 37.4392L3.70923 37.2142L4.00375 36.1942L3.77672 34.9933L2.65999 34.2918L2.36597 33.3778L1.99698 33.1848L0.761846 31.2074L0.860186 30.3537L1.40197 30.2042L1.4547 29.4886L0.551567 28.7354L0.64941 27.7247L0 26.5101Z" fill="#F2F2F2" stroke="#07122B" mask="url(#path-1-inside-1_81_99)"/>
</svg>
