<svg width="52" height="50" viewBox="0 0 52 50" fill="none" xmlns="http://www.w3.org/2000/svg">
<mask id="path-1-inside-1_81_171" fill="white">
<path d="M13.2237 9.01514L14.8757 8.09243L15.4251 7.91418L15.1996 6.92844L15.3474 6.30407L15.8963 6.23724L16.1989 5.7275L15.6349 5.06184L15.5746 4.58853L16.1691 4.39181L17.7433 4.59614L18.246 3.86254L19.3382 3.5441L18.9072 3.18872L19.4513 2.57846L21.2798 2.2948L22.0421 1.86552L22.4171 2.2997L23.5794 2.97243L24.3104 2.33176L25.1114 2.38284L25.7678 2.94527L27.1757 3.85494L27.2573 4.22444L29.0516 4.14293L29.5271 3.95002L30.9856 4.11739L31.3796 3.80222L31.8703 4.04784L32.2625 4.78904L33.4293 4.70646L34.3151 4.13153L34.5666 3.37727L34.1912 2.66486L33.5303 2.8632L33.3592 1.99539L34.052 1.53078L34.4389 0.479823L35.1731 0.151594L35.7829 0.39506L35.6655 1.10475L37.0865 2.73986L37.7928 2.59857L38.2352 3.17839L39.3453 2.94906L39.8203 2.48174L40.78 2.51868L41.9841 2.19101L41.9244 1.46936L42.3101 0.962361L44.505 0L46.4955 0.434716L46.9286 0.163016L47.3829 0.57383L47.0172 0.902059L47.7399 1.85084L47.7067 2.67193L47.1955 3.2849L47.522 3.99731L47.0862 4.78197L48.4556 5.60306L48.9578 6.41819L49.8891 5.82804L50.287 6.33286L51.1433 6.83335L50.8791 7.54794L51.4498 7.76095L51.372 8.55594L51.7839 8.99393L51.7732 9.62701L51.0901 9.87371L50.9775 10.7002L49.9657 11.1094L49.619 11.4724L47.8427 11.4985L47.3339 10.9921L46.984 12.857L47.4721 13.6379L47.2986 14.4432L46.3678 16.456L45.7951 17.1423L45.7706 18.5954L44.5545 17.8205L43.5046 17.6819L43.1237 18.2574L43.4025 19.9382L42.3917 20.0827L41.8304 20.506L41.5516 21.1886L40.9251 21.4543L40.8098 22.3819L40.2267 22.4954L39.9546 23.3241L39.3193 23.86L39.0334 24.8794L38.6704 25.4L37.92 25.7722L38.2178 26.3129L37.9288 26.7009L36.8691 27.0329L36.4621 26.3547L35.8421 26.9128L35.6018 27.604L36.086 28.5963L36.0605 29.169L35.5371 29.9385L35.7094 30.9422L34.9394 31.7964L34.2688 31.7725L33.9705 32.4474L33.132 33.5576L33.0136 34.4553L32.6033 34.6162L32.1055 34.2026L30.2732 35.1177L30.3047 35.5459L29.4939 35.7769L28.9879 36.4518L28.3755 35.8714L27.8497 37.2707L27.2132 37.6783L26.8628 38.8884L26.3182 40.1725L26.2454 41.1365L26.8329 42.5342L26.9742 44.0606L26.3933 44.6991L25.1422 44.8301L24.7918 45.8479L24.4076 46.3451L23.3763 46.8341L23.2991 47.6612L22.4383 48.2508L21.8313 49.129L20.3657 48.1307L19.9153 48.4828L19.0485 48.1139L18.315 49.079L17.3069 49.4316L17.2221 49.9375L17.0021 49.0806L17.2505 48.5089L16.9973 48.0492L16.3653 48.0297L15.6925 47.5824L15.4702 47.0531L14.1817 47.1591L12.7744 47.0303L12.9248 46.5L12.8482 45.28L13.0227 44.8583L11.7267 44.5502L11.2174 44.0269L10.2584 43.8324L9.81394 44.0573L8.59655 43.1699L7.22559 44.1921L6.60554 43.7362L6.38 42.7977L6.90719 41.781L7.35975 42.2054L7.81679 42.138L7.78214 41.3001L7.12775 41.287L6.33008 40.5926L5.52479 40.2703L5.60356 39.7497L6.61267 39.6622L6.78215 39.1286L8.36405 38.5211L7.70768 38.1456L7.91795 37.2783L6.92676 35.9812L7.27402 35.3525L7.7032 33.7511L7.15163 33.3527L7.62227 32.699L6.3795 32.2969L5.8024 32.336L5.29644 31.9877L6.1019 30.4194L5.44701 29.6505L4.32381 28.8305L3.73527 28.6599L3.11753 28.0436L3.00393 27.3845L1.75138 27.6877L1.33779 26.9416L1.95354 25.5836L2.40991 25.7858L2.8973 25.3619L1.8872 24.1523L1.50794 22.9959L1.59815 21.8401L2.14043 21.4967L1.7139 21.0663L0.0563839 21.1994L0 20.5626L0.462348 19.9713L1.7741 19.492L2.17575 19.5219L2.20726 18.7063L3.70757 19.0269L4.55416 18.6845L5.67089 18.6878L6.42295 17.6493L8.01845 17.701L8.84829 19.2127L9.61279 19.1432L9.99918 18.521L11.5594 18.5715L11.6436 17.8526L12.0229 16.9538L11.7006 15.8811L12.5108 15.3621L12.1642 13.1787L11.5196 12.6609L12.1157 12.2723L11.6217 11.3958L12.9015 11.1241L13.7552 10.3601L13.5797 9.48192L13.2237 9.01514Z"/>
</mask>
<path d="M13.2237 9.01514L14.8757 8.09243L15.4251 7.91418L15.1996 6.92844L15.3474 6.30407L15.8963 6.23724L16.1989 5.7275L15.6349 5.06184L15.5746 4.58853L16.1691 4.39181L17.7433 4.59614L18.246 3.86254L19.3382 3.5441L18.9072 3.18872L19.4513 2.57846L21.2798 2.2948L22.0421 1.86552L22.4171 2.2997L23.5794 2.97243L24.3104 2.33176L25.1114 2.38284L25.7678 2.94527L27.1757 3.85494L27.2573 4.22444L29.0516 4.14293L29.5271 3.95002L30.9856 4.11739L31.3796 3.80222L31.8703 4.04784L32.2625 4.78904L33.4293 4.70646L34.3151 4.13153L34.5666 3.37727L34.1912 2.66486L33.5303 2.8632L33.3592 1.99539L34.052 1.53078L34.4389 0.479823L35.1731 0.151594L35.7829 0.39506L35.6655 1.10475L37.0865 2.73986L37.7928 2.59857L38.2352 3.17839L39.3453 2.94906L39.8203 2.48174L40.78 2.51868L41.9841 2.19101L41.9244 1.46936L42.3101 0.962361L44.505 0L46.4955 0.434716L46.9286 0.163016L47.3829 0.57383L47.0172 0.902059L47.7399 1.85084L47.7067 2.67193L47.1955 3.2849L47.522 3.99731L47.0862 4.78197L48.4556 5.60306L48.9578 6.41819L49.8891 5.82804L50.287 6.33286L51.1433 6.83335L50.8791 7.54794L51.4498 7.76095L51.372 8.55594L51.7839 8.99393L51.7732 9.62701L51.0901 9.87371L50.9775 10.7002L49.9657 11.1094L49.619 11.4724L47.8427 11.4985L47.3339 10.9921L46.984 12.857L47.4721 13.6379L47.2986 14.4432L46.3678 16.456L45.7951 17.1423L45.7706 18.5954L44.5545 17.8205L43.5046 17.6819L43.1237 18.2574L43.4025 19.9382L42.3917 20.0827L41.8304 20.506L41.5516 21.1886L40.9251 21.4543L40.8098 22.3819L40.2267 22.4954L39.9546 23.3241L39.3193 23.86L39.0334 24.8794L38.6704 25.4L37.92 25.7722L38.2178 26.3129L37.9288 26.7009L36.8691 27.0329L36.4621 26.3547L35.8421 26.9128L35.6018 27.604L36.086 28.5963L36.0605 29.169L35.5371 29.9385L35.7094 30.9422L34.9394 31.7964L34.2688 31.7725L33.9705 32.4474L33.132 33.5576L33.0136 34.4553L32.6033 34.6162L32.1055 34.2026L30.2732 35.1177L30.3047 35.5459L29.4939 35.7769L28.9879 36.4518L28.3755 35.8714L27.8497 37.2707L27.2132 37.6783L26.8628 38.8884L26.3182 40.1725L26.2454 41.1365L26.8329 42.5342L26.9742 44.0606L26.3933 44.6991L25.1422 44.8301L24.7918 45.8479L24.4076 46.3451L23.3763 46.8341L23.2991 47.6612L22.4383 48.2508L21.8313 49.129L20.3657 48.1307L19.9153 48.4828L19.0485 48.1139L18.315 49.079L17.3069 49.4316L17.2221 49.9375L17.0021 49.0806L17.2505 48.5089L16.9973 48.0492L16.3653 48.0297L15.6925 47.5824L15.4702 47.0531L14.1817 47.1591L12.7744 47.0303L12.9248 46.5L12.8482 45.28L13.0227 44.8583L11.7267 44.5502L11.2174 44.0269L10.2584 43.8324L9.81394 44.0573L8.59655 43.1699L7.22559 44.1921L6.60554 43.7362L6.38 42.7977L6.90719 41.781L7.35975 42.2054L7.81679 42.138L7.78214 41.3001L7.12775 41.287L6.33008 40.5926L5.52479 40.2703L5.60356 39.7497L6.61267 39.6622L6.78215 39.1286L8.36405 38.5211L7.70768 38.1456L7.91795 37.2783L6.92676 35.9812L7.27402 35.3525L7.7032 33.7511L7.15163 33.3527L7.62227 32.699L6.3795 32.2969L5.8024 32.336L5.29644 31.9877L6.1019 30.4194L5.44701 29.6505L4.32381 28.8305L3.73527 28.6599L3.11753 28.0436L3.00393 27.3845L1.75138 27.6877L1.33779 26.9416L1.95354 25.5836L2.40991 25.7858L2.8973 25.3619L1.8872 24.1523L1.50794 22.9959L1.59815 21.8401L2.14043 21.4967L1.7139 21.0663L0.0563839 21.1994L0 20.5626L0.462348 19.9713L1.7741 19.492L2.17575 19.5219L2.20726 18.7063L3.70757 19.0269L4.55416 18.6845L5.67089 18.6878L6.42295 17.6493L8.01845 17.701L8.84829 19.2127L9.61279 19.1432L9.99918 18.521L11.5594 18.5715L11.6436 17.8526L12.0229 16.9538L11.7006 15.8811L12.5108 15.3621L12.1642 13.1787L11.5196 12.6609L12.1157 12.2723L11.6217 11.3958L12.9015 11.1241L13.7552 10.3601L13.5797 9.48192L13.2237 9.01514Z" fill="#F2F2F2" stroke="#07122B" mask="url(#path-1-inside-1_81_171)"/>
</svg>
