<svg width="58" height="68" viewBox="0 0 58 68" fill="none" xmlns="http://www.w3.org/2000/svg">
<mask id="path-1-inside-1_81_173" fill="white">
<path d="M15.8875 3.33162L16.187 2.78605L17.9775 2.63932L18.04 2.15133L18.8088 1.31884L20.2456 0.626006L20.9277 0.899882L21.6786 0.854236L22.0347 0.103792L22.5433 0.375492L23.1681 0L22.8567 1.56772L22.0998 2.37903L22.8975 2.75562L23.729 2.89691L24.6207 2.68605L24.8815 2.16765L26.1711 2.66379L26.3134 1.89649L26.8585 1.34167L27.7573 1.53132L28.3387 2.25569L29.945 3.35934L30.002 4.45866L30.5068 5.27921L29.7841 6.09812L29.8846 6.50566L32.1159 7.87507L32.5007 9.07979L32.1904 9.88185L32.8978 9.72916L33.4549 10.5497L34.4184 11.0013L34.4461 11.9631L35.4867 11.9289L36.1082 12.1327L37.2488 11.8724L37.9211 12.1283L38.0765 12.5891L38.6525 12.8695L38.7493 13.7645L39.4938 13.8025L40.3447 14.1275L41.5081 13.9683L42.0277 14.591L42.8249 15.0763L43.339 14.3595L44.3937 15.1611L45.3961 15.1676L46.4102 15.4377L46.8673 14.9111L47.2878 15.3545L47.5334 16.5109L49.7614 17.2146L50.52 17.2923L50.6928 18.1656L51.6639 17.6711L51.5329 18.9943L52.4682 19.586L52.673 20.4756L53.7945 21.1685L54.1506 21.6352L54.326 22.5134L53.4723 23.2774L52.1926 23.5491L52.6866 24.4256L52.0904 24.8142L52.735 25.332L53.0816 27.5155L52.2715 28.0344L52.5937 29.1071L52.2145 30.0059L52.1302 30.7248L50.57 30.6743L50.1836 31.2965L49.4191 31.366L48.5893 29.8543L46.9938 29.8026L46.2417 30.8411L45.125 30.8379L44.2784 31.1802L42.7781 30.8596L42.7466 31.6752L42.345 31.6453L41.0332 32.1246L40.5709 32.7159L40.6272 33.3527L42.2848 33.2196L42.7113 33.65L42.169 33.9934L42.0788 35.1493L42.4581 36.3056L43.4682 37.5152L42.9808 37.9391L42.5244 37.737L41.9086 39.0949L42.3222 39.841L43.5748 39.5378L43.6884 40.197L44.3061 40.8132L44.8947 40.9838L46.0179 41.8038L46.6727 42.5727L45.8673 44.141L46.3732 44.4893L46.9504 44.4502L48.1931 44.8523L47.7225 45.5061L48.274 45.9044L47.8449 47.5058L47.4976 48.1345L48.4888 49.4316L48.2785 50.2989L48.9349 50.6744L47.353 51.2819L47.1835 51.8156L46.1744 51.9031L46.0956 52.4236L46.9009 52.7459L47.6986 53.4403L48.353 53.4534L48.3876 54.2913L47.9306 54.3587L47.478 53.9343L46.9509 54.951L47.1764 55.8895L47.7964 56.3454L49.1674 55.3233L50.3848 56.2106L50.8292 55.9857L51.7883 56.1802L52.2975 56.7035L53.5935 57.0116L53.4191 57.4333L53.4957 58.6533L53.3453 59.1836L54.7526 59.3124L56.0411 59.2064L56.2633 59.7357L56.9361 60.183L57.5681 60.2025L57.8213 60.6622L57.5729 61.2339L57.793 62.0909L57.6381 62.5913L56.986 63.2423L57.0812 63.7868L57.724 64.1977L56.2263 64.8557L56.5306 65.4176L56.0731 66.1784L56.1247 66.7951L55.202 66.9196L54.958 66.4702L53.9952 65.8273L52.8207 66.7136L52.3703 67.444L50.7063 67.1799L49.855 66.8968L49.2094 66.4457L48.5463 66.5012L48.1062 66.0001L47.452 64.7666L46.2537 64.3476L45.1278 63.4173L44.1887 63.2467L43.3013 64.2998L42.7488 62.1979L42.0869 61.2513L42.6667 59.6379L42.5944 59.2141L41.9375 59.169L42.296 58.0408L41.2793 57.2399L39.6384 56.7954L38.5172 57.0383L36.5507 56.4813L36.4023 55.6743L36.6164 54.8853L35.9669 54.1892L35.3127 55.1966L34.1917 55.5053L33.8661 55.3059L31.4921 55.026L31.1942 54.9478L30.2965 51.2705L29.8395 50.0571L29.0445 48.5611L28.0745 47.3705L27.8409 47.4569L26.3818 45.4588L25.4978 45.0887L24.7276 44.3078L24.3419 44.3198L23.929 43.4438L23.1686 42.9422L22.7725 43.2395L22.1628 42.9743L21.1619 41.5881L20.9022 40.7991L20.2771 40.6991L20.3597 40.0731L20.0403 39.6123L19.1861 39.7736L18.0661 38.8966L16.2233 38.0114L14.9671 36.8941L13.1222 35.6133L12.3043 35.7519L11.9847 35.0145L11.7799 31.1965L12.9384 30.4346L13.5857 30.7015L15.0137 30.0173L15.818 30.2738L15.5251 28.8696L15.1246 28.4686L14.7926 27.2802L15.3583 26.884L16.2598 27.0584L16.8755 26.3113L17.0477 25.6298L17.7221 24.9527L18.0486 23.9186L17.8884 22.884L17.2249 22.64L17.1641 22.1221L18.3617 22.2112L17.6873 21.3575L17.6314 20.6413L17.083 20.0969L17.7644 19.7165L18.4818 19.8708L18.7894 19.3067L18.4813 18.1623L18.6262 17.6053L18.4219 16.9799L17.4569 16.6886L17.0195 14.5508L16.4803 14.0889L15.8913 14.1215L16.1603 13.2619L15.9886 12.813L15.2774 12.6907L14.7475 11.9109L14.7251 11.2811L13.3857 11.724L12.3912 11.7121L11.8642 10.891L12.6325 10.3188L13.396 9.23902L13.1351 8.77059L13.4031 8.23806L14.3573 7.72399L15.4485 6.62902L15.549 6.11877L16.2211 5.3944L15.8875 3.33162ZM0 6.56055L0.79551 6.61762L1.87311 5.83457L2.29366 5.83239L2.96745 6.39536L3.26579 7.17949L2.0003 7.50119L2.76364 8.5554L3.52665 8.037L3.86578 7.40339L5.42313 7.29307L5.06228 8.65919L6.21052 8.74885L7.66904 8.60648L8.99986 9.62647L9.89487 9.56233L10.3605 10.7883L10.9023 11.2599L10.4844 11.8648L8.87598 11.8316L7.7027 11.279L6.26375 10.1253L3.47341 8.73745L2.11655 9.28302L1.0232 8.79723L0.735644 7.91636L0 6.56055ZM5.516 17.0771L7.11531 17.451L7.05014 17.8145L8.0022 18.7155L8.37383 18.8198L8.91014 19.648L9.49438 20.0517L10.3051 20.205L11.6376 20.0572L12.1472 20.6196L11.8288 21.8689L12.4244 22.6693L12.169 23.4709L12.4809 24.1382L13.8144 25.5624L13.0504 27.5394L13.5286 28.5045L12.0152 30.089L11.6207 29.1587L11.4023 27.3986L10.8066 25.8581L9.99371 24.9234L8.18744 23.8757L6.55065 22.1129L6.33556 20.9859L6.46109 19.586L6.02147 18.734L5.516 17.0771Z"/>
</mask>
<path d="M15.8875 3.33162L16.187 2.78605L17.9775 2.63932L18.04 2.15133L18.8088 1.31884L20.2456 0.626006L20.9277 0.899882L21.6786 0.854236L22.0347 0.103792L22.5433 0.375492L23.1681 0L22.8567 1.56772L22.0998 2.37903L22.8975 2.75562L23.729 2.89691L24.6207 2.68605L24.8815 2.16765L26.1711 2.66379L26.3134 1.89649L26.8585 1.34167L27.7573 1.53132L28.3387 2.25569L29.945 3.35934L30.002 4.45866L30.5068 5.27921L29.7841 6.09812L29.8846 6.50566L32.1159 7.87507L32.5007 9.07979L32.1904 9.88185L32.8978 9.72916L33.4549 10.5497L34.4184 11.0013L34.4461 11.9631L35.4867 11.9289L36.1082 12.1327L37.2488 11.8724L37.9211 12.1283L38.0765 12.5891L38.6525 12.8695L38.7493 13.7645L39.4938 13.8025L40.3447 14.1275L41.5081 13.9683L42.0277 14.591L42.8249 15.0763L43.339 14.3595L44.3937 15.1611L45.3961 15.1676L46.4102 15.4377L46.8673 14.9111L47.2878 15.3545L47.5334 16.5109L49.7614 17.2146L50.52 17.2923L50.6928 18.1656L51.6639 17.6711L51.5329 18.9943L52.4682 19.586L52.673 20.4756L53.7945 21.1685L54.1506 21.6352L54.326 22.5134L53.4723 23.2774L52.1926 23.5491L52.6866 24.4256L52.0904 24.8142L52.735 25.332L53.0816 27.5155L52.2715 28.0344L52.5937 29.1071L52.2145 30.0059L52.1302 30.7248L50.57 30.6743L50.1836 31.2965L49.4191 31.366L48.5893 29.8543L46.9938 29.8026L46.2417 30.8411L45.125 30.8379L44.2784 31.1802L42.7781 30.8596L42.7466 31.6752L42.345 31.6453L41.0332 32.1246L40.5709 32.7159L40.6272 33.3527L42.2848 33.2196L42.7113 33.65L42.169 33.9934L42.0788 35.1493L42.4581 36.3056L43.4682 37.5152L42.9808 37.9391L42.5244 37.737L41.9086 39.0949L42.3222 39.841L43.5748 39.5378L43.6884 40.197L44.3061 40.8132L44.8947 40.9838L46.0179 41.8038L46.6727 42.5727L45.8673 44.141L46.3732 44.4893L46.9504 44.4502L48.1931 44.8523L47.7225 45.5061L48.274 45.9044L47.8449 47.5058L47.4976 48.1345L48.4888 49.4316L48.2785 50.2989L48.9349 50.6744L47.353 51.2819L47.1835 51.8156L46.1744 51.9031L46.0956 52.4236L46.9009 52.7459L47.6986 53.4403L48.353 53.4534L48.3876 54.2913L47.9306 54.3587L47.478 53.9343L46.9509 54.951L47.1764 55.8895L47.7964 56.3454L49.1674 55.3233L50.3848 56.2106L50.8292 55.9857L51.7883 56.1802L52.2975 56.7035L53.5935 57.0116L53.4191 57.4333L53.4957 58.6533L53.3453 59.1836L54.7526 59.3124L56.0411 59.2064L56.2633 59.7357L56.9361 60.183L57.5681 60.2025L57.8213 60.6622L57.5729 61.2339L57.793 62.0909L57.6381 62.5913L56.986 63.2423L57.0812 63.7868L57.724 64.1977L56.2263 64.8557L56.5306 65.4176L56.0731 66.1784L56.1247 66.7951L55.202 66.9196L54.958 66.4702L53.9952 65.8273L52.8207 66.7136L52.3703 67.444L50.7063 67.1799L49.855 66.8968L49.2094 66.4457L48.5463 66.5012L48.1062 66.0001L47.452 64.7666L46.2537 64.3476L45.1278 63.4173L44.1887 63.2467L43.3013 64.2998L42.7488 62.1979L42.0869 61.2513L42.6667 59.6379L42.5944 59.2141L41.9375 59.169L42.296 58.0408L41.2793 57.2399L39.6384 56.7954L38.5172 57.0383L36.5507 56.4813L36.4023 55.6743L36.6164 54.8853L35.9669 54.1892L35.3127 55.1966L34.1917 55.5053L33.8661 55.3059L31.4921 55.026L31.1942 54.9478L30.2965 51.2705L29.8395 50.0571L29.0445 48.5611L28.0745 47.3705L27.8409 47.4569L26.3818 45.4588L25.4978 45.0887L24.7276 44.3078L24.3419 44.3198L23.929 43.4438L23.1686 42.9422L22.7725 43.2395L22.1628 42.9743L21.1619 41.5881L20.9022 40.7991L20.2771 40.6991L20.3597 40.0731L20.0403 39.6123L19.1861 39.7736L18.0661 38.8966L16.2233 38.0114L14.9671 36.8941L13.1222 35.6133L12.3043 35.7519L11.9847 35.0145L11.7799 31.1965L12.9384 30.4346L13.5857 30.7015L15.0137 30.0173L15.818 30.2738L15.5251 28.8696L15.1246 28.4686L14.7926 27.2802L15.3583 26.884L16.2598 27.0584L16.8755 26.3113L17.0477 25.6298L17.7221 24.9527L18.0486 23.9186L17.8884 22.884L17.2249 22.64L17.1641 22.1221L18.3617 22.2112L17.6873 21.3575L17.6314 20.6413L17.083 20.0969L17.7644 19.7165L18.4818 19.8708L18.7894 19.3067L18.4813 18.1623L18.6262 17.6053L18.4219 16.9799L17.4569 16.6886L17.0195 14.5508L16.4803 14.0889L15.8913 14.1215L16.1603 13.2619L15.9886 12.813L15.2774 12.6907L14.7475 11.9109L14.7251 11.2811L13.3857 11.724L12.3912 11.7121L11.8642 10.891L12.6325 10.3188L13.396 9.23902L13.1351 8.77059L13.4031 8.23806L14.3573 7.72399L15.4485 6.62902L15.549 6.11877L16.2211 5.3944L15.8875 3.33162ZM0 6.56055L0.79551 6.61762L1.87311 5.83457L2.29366 5.83239L2.96745 6.39536L3.26579 7.17949L2.0003 7.50119L2.76364 8.5554L3.52665 8.037L3.86578 7.40339L5.42313 7.29307L5.06228 8.65919L6.21052 8.74885L7.66904 8.60648L8.99986 9.62647L9.89487 9.56233L10.3605 10.7883L10.9023 11.2599L10.4844 11.8648L8.87598 11.8316L7.7027 11.279L6.26375 10.1253L3.47341 8.73745L2.11655 9.28302L1.0232 8.79723L0.735644 7.91636L0 6.56055ZM5.516 17.0771L7.11531 17.451L7.05014 17.8145L8.0022 18.7155L8.37383 18.8198L8.91014 19.648L9.49438 20.0517L10.3051 20.205L11.6376 20.0572L12.1472 20.6196L11.8288 21.8689L12.4244 22.6693L12.169 23.4709L12.4809 24.1382L13.8144 25.5624L13.0504 27.5394L13.5286 28.5045L12.0152 30.089L11.6207 29.1587L11.4023 27.3986L10.8066 25.8581L9.99371 24.9234L8.18744 23.8757L6.55065 22.1129L6.33556 20.9859L6.46109 19.586L6.02147 18.734L5.516 17.0771Z" fill="#F2F2F2" stroke="#07122B" mask="url(#path-1-inside-1_81_173)"/>
</svg>
