<svg width="48" height="66" viewBox="0 0 48 66" fill="none" xmlns="http://www.w3.org/2000/svg">
<mask id="path-1-inside-1_81_133" fill="white">
<path d="M2.20527 22.3031L2.68122 22.17L3.42515 23.091L4.57074 22.5542L5.04022 21.4326L4.23708 20.399L5.33574 19.8626L5.18914 19.5431L6.02429 18.4188L7.46655 19.3654L8.06041 19.8953L8.92772 19.7447L11.0041 18.7199L12.0045 18.7177L12.8842 19.0666L13.42 18.1585L13.9369 18.0357L13.631 16.9163L13.1484 16.8418L12.6245 16.017L12.83 15.5328L12.3305 14.1384L11.7068 14.3166L11.9214 12.9114L12.436 11.9506L13.2066 12.1892L15.1052 10.4421L15.6981 12.206L16.6545 12.0767L17.1424 11.6686L17.2707 10.2552L17.0371 9.74821L17.1739 9.07167L16.8621 8.62172L17.2614 7.50013L16.5246 7.21701L15.4487 7.76259L16.0616 5.84056L15.3454 4.39997L12.9854 4.28043L12.7174 2.51273L13.3293 2.14103L13.7136 1.55416L15.3953 1.21126L16.5518 0.48202L16.9278 0.458637L18.7944 0L18.8574 0.285837L20.1002 1.16725L20.7484 1.2944L21.8635 2.3698L22.1716 2.01388L24.2214 1.0401L24.717 1.27212L24.8882 1.86879L26.2314 3.33925L26.9195 3.30285L28.304 2.9393L28.88 3.11809L29.2136 3.743L29.8349 3.87015L30.8771 4.93253L30.6738 5.6069L31.5791 6.21062L32.2302 6.37146L32.3682 7.75173L33.3794 7.97614L34.9293 7.13115L34.7482 5.88022L35.3434 5.48354L36.4024 5.67048L37.9006 7.35884L38.5412 7.20669L39.071 6.42635L40.346 5.99543L40.9405 6.67359L41.305 8.13319L41.8534 8.68204L42.431 10.221L42.0343 11.335L42.0164 12.1582L41.4441 12.9739L40.9632 14.3682L40.2622 15.3953L40.44 16.7506L41.542 17.3135L43.0239 18.8117L44.0547 19.7268L44.3356 20.4506L44.1519 21.407L44.3492 22.2596L44.8421 23.0916L45.3366 24.4936L45.7164 26.0021L45.6605 26.7052L46.0534 27.2693L46.1457 29.2636L45.7316 30.0809L45.7877 30.7286L47.2875 31.7475L47.8472 32.5882L47.7047 33.5777L47.4348 34.0059L47.2689 35.3318L47.8498 36.7855L46.8276 39.0558L47.2276 39.7313L47.5026 40.855L47.5515 42.232L47.0081 42.951L47.1081 43.6846L46.5446 44.2926L46.1686 45.2795L45.6044 44.9931L44.8335 45.1681L44.1676 44.785L43.5347 44.7975L43.2413 45.4664L42.4305 45.2257L41.7909 45.4735L41.6947 46.094L40.4296 46.6831L40.4513 47.0776L38.6261 48.4671L37.4359 48.5106L37.0877 49.1627L35.9497 49.3349L35.4048 48.1324L34.9857 47.7335L34.1114 48.2552L33.9685 49.236L33.1088 50.1185L32.3753 50.4685L32.0546 50.9244L31.0972 50.9293L30.9727 51.4597L31.4748 51.6862L31.297 52.5486L30.15 52.2634L29.2821 52.4737L29.1289 53.0105L29.9745 53.2257L30.1184 53.7045L29.7034 54.2761L29.7876 54.9418L29.4234 55.3211L30.3619 56.4123L30.7781 58.0925L30.6118 58.4022L29.6533 58.8082L29.2821 59.2103L27.9062 60.0395L27.3031 59.4396L26.4537 59.9531L26.4417 59.3081L25.9217 59.3499L24.7164 59.9977L24.1263 59.6885L23.5041 59.9949L21.7022 60.1015L20.436 61.0503L20.0713 61.7246L20.2866 62.2023L19.9725 62.7739L19.3844 62.412L18.5715 63.8053L18.4911 65.3568L17.3218 65.0432L16.7387 65.2541L15.5084 64.947L14.3298 65.1802L13.8102 64.6221L13.7167 63.8934L13.9119 63.1684L15.2416 62.6946L15.6606 61.9219L14.8807 60.615L14.8079 59.5613L13.9716 58.0289L14.4434 57.4969L14.2873 56.3177L14.9666 55.5738L14.7542 54.3038L15.1067 53.4817L14.6052 53.0013L13.2577 52.2873L13.8444 50.7869L13.3277 50.5951L12.9424 50.0522L12.3219 49.762L11.4204 49.6784L11.4856 48.879L10.7813 48.4877L10.5857 47.5944L11.6274 47.4183L12.4137 46.0544L11.5665 44.9882L10.7765 44.4861L9.92821 43.3949L10.077 43.0912L10.9509 42.9716L11.6632 41.9897L11.1769 41.2958L12.0708 41.1028L13.251 40.1894L13.8336 38.9738L13.5179 38.6542L12.1899 38.8841L10.7106 37.7603L10.7144 36.6692L11.3378 36.3621L11.5176 34.8368L12.135 34.3553L11.5632 33.3435L10.5808 32.7751L10.0194 31.9182L9.35541 31.8779L9.64231 30.6482L10.171 30.3102L9.7972 28.4518L9.02507 28.5463L8.94398 29.1239L8.25178 29.1038L8.37566 28.167L7.96207 27.3421L7.02908 27.6883L6.7916 27.4617L5.38532 28.4534L4.62613 28.3126L3.79911 28.693L2.55353 28.2947L1.75851 27.6138L0.509279 27.6513L0 27.1845L0.104974 26.7362L0.892358 26.1298L1.17063 25.2924L1.62319 24.7838L2.31224 24.5821L2.13512 23.3671L2.20527 22.3031Z"/>
</mask>
<path d="M2.20527 22.3031L2.68122 22.17L3.42515 23.091L4.57074 22.5542L5.04022 21.4326L4.23708 20.399L5.33574 19.8626L5.18914 19.5431L6.02429 18.4188L7.46655 19.3654L8.06041 19.8953L8.92772 19.7447L11.0041 18.7199L12.0045 18.7177L12.8842 19.0666L13.42 18.1585L13.9369 18.0357L13.631 16.9163L13.1484 16.8418L12.6245 16.017L12.83 15.5328L12.3305 14.1384L11.7068 14.3166L11.9214 12.9114L12.436 11.9506L13.2066 12.1892L15.1052 10.4421L15.6981 12.206L16.6545 12.0767L17.1424 11.6686L17.2707 10.2552L17.0371 9.74821L17.1739 9.07167L16.8621 8.62172L17.2614 7.50013L16.5246 7.21701L15.4487 7.76259L16.0616 5.84056L15.3454 4.39997L12.9854 4.28043L12.7174 2.51273L13.3293 2.14103L13.7136 1.55416L15.3953 1.21126L16.5518 0.48202L16.9278 0.458637L18.7944 0L18.8574 0.285837L20.1002 1.16725L20.7484 1.2944L21.8635 2.3698L22.1716 2.01388L24.2214 1.0401L24.717 1.27212L24.8882 1.86879L26.2314 3.33925L26.9195 3.30285L28.304 2.9393L28.88 3.11809L29.2136 3.743L29.8349 3.87015L30.8771 4.93253L30.6738 5.6069L31.5791 6.21062L32.2302 6.37146L32.3682 7.75173L33.3794 7.97614L34.9293 7.13115L34.7482 5.88022L35.3434 5.48354L36.4024 5.67048L37.9006 7.35884L38.5412 7.20669L39.071 6.42635L40.346 5.99543L40.9405 6.67359L41.305 8.13319L41.8534 8.68204L42.431 10.221L42.0343 11.335L42.0164 12.1582L41.4441 12.9739L40.9632 14.3682L40.2622 15.3953L40.44 16.7506L41.542 17.3135L43.0239 18.8117L44.0547 19.7268L44.3356 20.4506L44.1519 21.407L44.3492 22.2596L44.8421 23.0916L45.3366 24.4936L45.7164 26.0021L45.6605 26.7052L46.0534 27.2693L46.1457 29.2636L45.7316 30.0809L45.7877 30.7286L47.2875 31.7475L47.8472 32.5882L47.7047 33.5777L47.4348 34.0059L47.2689 35.3318L47.8498 36.7855L46.8276 39.0558L47.2276 39.7313L47.5026 40.855L47.5515 42.232L47.0081 42.951L47.1081 43.6846L46.5446 44.2926L46.1686 45.2795L45.6044 44.9931L44.8335 45.1681L44.1676 44.785L43.5347 44.7975L43.2413 45.4664L42.4305 45.2257L41.7909 45.4735L41.6947 46.094L40.4296 46.6831L40.4513 47.0776L38.6261 48.4671L37.4359 48.5106L37.0877 49.1627L35.9497 49.3349L35.4048 48.1324L34.9857 47.7335L34.1114 48.2552L33.9685 49.236L33.1088 50.1185L32.3753 50.4685L32.0546 50.9244L31.0972 50.9293L30.9727 51.4597L31.4748 51.6862L31.297 52.5486L30.15 52.2634L29.2821 52.4737L29.1289 53.0105L29.9745 53.2257L30.1184 53.7045L29.7034 54.2761L29.7876 54.9418L29.4234 55.3211L30.3619 56.4123L30.7781 58.0925L30.6118 58.4022L29.6533 58.8082L29.2821 59.2103L27.9062 60.0395L27.3031 59.4396L26.4537 59.9531L26.4417 59.3081L25.9217 59.3499L24.7164 59.9977L24.1263 59.6885L23.5041 59.9949L21.7022 60.1015L20.436 61.0503L20.0713 61.7246L20.2866 62.2023L19.9725 62.7739L19.3844 62.412L18.5715 63.8053L18.4911 65.3568L17.3218 65.0432L16.7387 65.2541L15.5084 64.947L14.3298 65.1802L13.8102 64.6221L13.7167 63.8934L13.9119 63.1684L15.2416 62.6946L15.6606 61.9219L14.8807 60.615L14.8079 59.5613L13.9716 58.0289L14.4434 57.4969L14.2873 56.3177L14.9666 55.5738L14.7542 54.3038L15.1067 53.4817L14.6052 53.0013L13.2577 52.2873L13.8444 50.7869L13.3277 50.5951L12.9424 50.0522L12.3219 49.762L11.4204 49.6784L11.4856 48.879L10.7813 48.4877L10.5857 47.5944L11.6274 47.4183L12.4137 46.0544L11.5665 44.9882L10.7765 44.4861L9.92821 43.3949L10.077 43.0912L10.9509 42.9716L11.6632 41.9897L11.1769 41.2958L12.0708 41.1028L13.251 40.1894L13.8336 38.9738L13.5179 38.6542L12.1899 38.8841L10.7106 37.7603L10.7144 36.6692L11.3378 36.3621L11.5176 34.8368L12.135 34.3553L11.5632 33.3435L10.5808 32.7751L10.0194 31.9182L9.35541 31.8779L9.64231 30.6482L10.171 30.3102L9.7972 28.4518L9.02507 28.5463L8.94398 29.1239L8.25178 29.1038L8.37566 28.167L7.96207 27.3421L7.02908 27.6883L6.7916 27.4617L5.38532 28.4534L4.62613 28.3126L3.79911 28.693L2.55353 28.2947L1.75851 27.6138L0.509279 27.6513L0 27.1845L0.104974 26.7362L0.892358 26.1298L1.17063 25.2924L1.62319 24.7838L2.31224 24.5821L2.13512 23.3671L2.20527 22.3031Z" fill="#F2F2F2" stroke="#07122B" mask="url(#path-1-inside-1_81_133)"/>
</svg>
