<svg width="48" height="45" viewBox="0 0 48 45" fill="none" xmlns="http://www.w3.org/2000/svg">
<mask id="path-1-inside-1_81_98" fill="white">
<path d="M0.939621 16.8462L1.44442 16.0295L1.60578 15.0747L2.2129 14.6356L3.09697 14.7932L3.66313 15.3024L4.49728 15.6523L5.08798 14.5383L5.98681 13.6738L6.65197 12.4728L7.30138 12.2816L7.91696 12.7266L8.38262 11.4578L9.73302 10.7122L10.3325 11.2431L10.8765 10.5405L12.0937 11.3143L13.1088 11.0029L13.4733 9.90851L14.3998 9.87319L15.31 9.48138L15.8545 8.98363L15.9654 8.20709L16.7208 7.3083L17.851 6.45678L18.4782 6.61816L19.3687 5.8911L20.2121 5.56015L20.5599 4.30217L21.137 4.61788L21.6891 4.38368L22.0103 5.14553L22.9036 5.32432L24.097 5.06837L24.1056 4.36303L24.9278 4.53583L25.1572 3.77179L24.7436 3.4588L25.5968 2.63825L25.963 3.04255L26.8618 2.05952L28.1079 2.08942L28.4491 1.62806L28.5491 0.774366L28.949 0.495059L29.7642 0.455922L30.1869 0L31.0912 0.824345L31.5667 0.949882L32.5388 1.98017L32.9307 1.66065L34.1434 2.1606L34.3897 1.46449L34.9396 1.69436L35.2456 2.31819L35.79 2.34862L35.6232 3.43108L36.4149 3.12406L37.7898 3.95873L38.5206 3.98101L38.4147 5.20313L38.8755 5.2727L39.8319 4.62006L40.2851 5.04173L41.3415 3.73267L41.1317 3.06048L42.0256 2.66922L42.5793 2.97298L43.5456 2.85833L44.5404 3.42294L45.8968 2.36601L45.8577 1.97366L46.5963 1.37156L47.3782 2.35513L47.8825 4.16196L47.3608 4.98904L47.8819 5.66884L47.5178 6.58773L46.3114 6.53504L46.1724 8.03918L45.5371 8.67715L45.9534 9.77101L46.5865 10.3329L46.5321 10.6829L47.5945 11.5072L47.6353 12.7424L47.1875 13.6732L47.413 14.3172L47.1999 15.0203L46.8804 15.9811L46.45 18.1721L47.6542 19.1426L47.7706 19.8887L46.3708 20.2669L45.4328 19.9311L44.8829 20.0479L44.4123 19.5328L43.1299 19.1459L42.7532 18.5471L42.0143 18.3177L41.4143 18.4514L41.6241 19.1964L42.0702 19.798L41.8506 20.2946L41.9272 21.4597L41.3725 21.9983L41.6876 22.3542L41.4198 22.9731L40.1966 23.2057L39.1777 25.018L38.4261 24.9131L38.012 25.9423L37.4588 26.1461L37.3497 27.0747L36.76 27.3236L35.9215 28.2284L35.4656 29.5212L35.7444 29.625L35.9189 30.6998L36.6502 31.196L36.1454 32.5914L35.6145 33.0609L35.0499 32.9664L35.2504 33.8652L35.1157 35.1259L34.5663 35.6916L33.7778 35.6476L32.3116 36.6262L31.9846 37.1637L32.4378 37.831L32.7605 38.9759L33.6159 39.6911L33.3632 40.8529L31.8867 40.8262L30.7836 41.3088L30.1261 40.9414L29.0914 41.2544L27.947 41.4017L26.6701 42.5238L25.8522 41.2202L25.2631 41.1887L24.7257 41.5419L24.023 42.3918L22.9695 42.8955L21.9924 43.8498L21.1816 43.9606L20.7212 43.5851L20.1599 44.0617L19.8823 43.5476L19.3763 43.3977L19.2715 42.382L18.27 41.7511L17.8147 41.7951L17.5142 40.7377L16.8306 39.9606L15.7921 39.3014L15.4785 38.6618L14.8454 38.3548L13.4744 38.2793L12.8582 37.9668L11.9486 38.6102L11.4643 37.6593L10.1824 38.0641L9.39936 38.5086L9.18211 39.1264L8.55443 39.3824L8.12342 39.0808L7.31432 38.2315L7.00354 37.5191L6.32528 36.8952L6.59542 36.3975L6.13622 35.7274L6.20587 34.5167L6.77751 34.1613L6.83339 33.5636L5.53524 33.0099L5.03259 33.1957L4.57986 32.717L3.80658 32.905L3.51487 32.6246L2.43943 32.8392L1.88455 32.1991L1.21839 31.8127L2.10743 30.9384L2.37691 30.3607L1.6358 29.5538L0.169152 29.7744L0 29.3321L0.209781 28.4795L1.05106 28.2137L1.73132 27.6415L1.85586 26.8933L0.435317 26.4531L0.00928676 25.8586L0.065339 25.3223L0.525531 24.3816L0.285899 23.2644L1.16466 23.3377L1.91937 22.559L2.16332 21.8042L3.24755 21.2174L3.51869 20.0659L2.61654 19.4942L1.91175 19.9322L1.62004 19.3193L1.0761 19.059L1.17444 18.1265L1.85685 18.502L2.22202 17.7347L1.50213 17.019L0.939621 16.8462Z"/>
</mask>
<path d="M0.939621 16.8462L1.44442 16.0295L1.60578 15.0747L2.2129 14.6356L3.09697 14.7932L3.66313 15.3024L4.49728 15.6523L5.08798 14.5383L5.98681 13.6738L6.65197 12.4728L7.30138 12.2816L7.91696 12.7266L8.38262 11.4578L9.73302 10.7122L10.3325 11.2431L10.8765 10.5405L12.0937 11.3143L13.1088 11.0029L13.4733 9.90851L14.3998 9.87319L15.31 9.48138L15.8545 8.98363L15.9654 8.20709L16.7208 7.3083L17.851 6.45678L18.4782 6.61816L19.3687 5.8911L20.2121 5.56015L20.5599 4.30217L21.137 4.61788L21.6891 4.38368L22.0103 5.14553L22.9036 5.32432L24.097 5.06837L24.1056 4.36303L24.9278 4.53583L25.1572 3.77179L24.7436 3.4588L25.5968 2.63825L25.963 3.04255L26.8618 2.05952L28.1079 2.08942L28.4491 1.62806L28.5491 0.774366L28.949 0.495059L29.7642 0.455922L30.1869 0L31.0912 0.824345L31.5667 0.949882L32.5388 1.98017L32.9307 1.66065L34.1434 2.1606L34.3897 1.46449L34.9396 1.69436L35.2456 2.31819L35.79 2.34862L35.6232 3.43108L36.4149 3.12406L37.7898 3.95873L38.5206 3.98101L38.4147 5.20313L38.8755 5.2727L39.8319 4.62006L40.2851 5.04173L41.3415 3.73267L41.1317 3.06048L42.0256 2.66922L42.5793 2.97298L43.5456 2.85833L44.5404 3.42294L45.8968 2.36601L45.8577 1.97366L46.5963 1.37156L47.3782 2.35513L47.8825 4.16196L47.3608 4.98904L47.8819 5.66884L47.5178 6.58773L46.3114 6.53504L46.1724 8.03918L45.5371 8.67715L45.9534 9.77101L46.5865 10.3329L46.5321 10.6829L47.5945 11.5072L47.6353 12.7424L47.1875 13.6732L47.413 14.3172L47.1999 15.0203L46.8804 15.9811L46.45 18.1721L47.6542 19.1426L47.7706 19.8887L46.3708 20.2669L45.4328 19.9311L44.8829 20.0479L44.4123 19.5328L43.1299 19.1459L42.7532 18.5471L42.0143 18.3177L41.4143 18.4514L41.6241 19.1964L42.0702 19.798L41.8506 20.2946L41.9272 21.4597L41.3725 21.9983L41.6876 22.3542L41.4198 22.9731L40.1966 23.2057L39.1777 25.018L38.4261 24.9131L38.012 25.9423L37.4588 26.1461L37.3497 27.0747L36.76 27.3236L35.9215 28.2284L35.4656 29.5212L35.7444 29.625L35.9189 30.6998L36.6502 31.196L36.1454 32.5914L35.6145 33.0609L35.0499 32.9664L35.2504 33.8652L35.1157 35.1259L34.5663 35.6916L33.7778 35.6476L32.3116 36.6262L31.9846 37.1637L32.4378 37.831L32.7605 38.9759L33.6159 39.6911L33.3632 40.8529L31.8867 40.8262L30.7836 41.3088L30.1261 40.9414L29.0914 41.2544L27.947 41.4017L26.6701 42.5238L25.8522 41.2202L25.2631 41.1887L24.7257 41.5419L24.023 42.3918L22.9695 42.8955L21.9924 43.8498L21.1816 43.9606L20.7212 43.5851L20.1599 44.0617L19.8823 43.5476L19.3763 43.3977L19.2715 42.382L18.27 41.7511L17.8147 41.7951L17.5142 40.7377L16.8306 39.9606L15.7921 39.3014L15.4785 38.6618L14.8454 38.3548L13.4744 38.2793L12.8582 37.9668L11.9486 38.6102L11.4643 37.6593L10.1824 38.0641L9.39936 38.5086L9.18211 39.1264L8.55443 39.3824L8.12342 39.0808L7.31432 38.2315L7.00354 37.5191L6.32528 36.8952L6.59542 36.3975L6.13622 35.7274L6.20587 34.5167L6.77751 34.1613L6.83339 33.5636L5.53524 33.0099L5.03259 33.1957L4.57986 32.717L3.80658 32.905L3.51487 32.6246L2.43943 32.8392L1.88455 32.1991L1.21839 31.8127L2.10743 30.9384L2.37691 30.3607L1.6358 29.5538L0.169152 29.7744L0 29.3321L0.209781 28.4795L1.05106 28.2137L1.73132 27.6415L1.85586 26.8933L0.435317 26.4531L0.00928676 25.8586L0.065339 25.3223L0.525531 24.3816L0.285899 23.2644L1.16466 23.3377L1.91937 22.559L2.16332 21.8042L3.24755 21.2174L3.51869 20.0659L2.61654 19.4942L1.91175 19.9322L1.62004 19.3193L1.0761 19.059L1.17444 18.1265L1.85685 18.502L2.22202 17.7347L1.50213 17.019L0.939621 16.8462Z" fill="#F2F2F2" stroke="#07122B" mask="url(#path-1-inside-1_81_98)"/>
</svg>
