<svg width="48" height="70" viewBox="0 0 48 70" fill="none" xmlns="http://www.w3.org/2000/svg">
<mask id="path-1-inside-1_81_135" fill="white">
<path d="M5.87852 20.7908L5.90737 20.092L5.40257 19.4861L4.98185 18.3166L4.90258 17.4222L4.11619 17.3151L3.8419 16.5109L4.68301 15.8816L4.74819 15.2334L3.75716 14.2813L3.55384 13.5928L4.67008 12.9407L4.44885 11.6463L5.49544 11.1083L5.93988 10.6095L5.79858 9.22543L6.35944 8.04461L7.26755 7.13984L7.70602 6.18887L7.50818 5.98727L8.92441 4.86839L8.60915 4.62005L7.91464 4.79612L7.39242 4.33313L7.87119 3.29794L8.93635 3.01428L10.0161 2.17689L11.0328 2.58499L11.5131 2.29916L11.7555 3.15122L13.0537 2.83767L13.9373 2.99581L14.4351 2.00191L15.4338 1.87421L16.2197 1.98507L16.7555 2.5062L19.5833 2.89799L20.2028 1.92964L21.0174 1.84106L21.5667 0.879231L22.2204 0.878692L23.4545 1.46448L24.1615 2.52902L25.1494 1.74597L25.552 1.67804L26.0303 0.828698L27.3361 0.36408L27.8762 0L29.0309 0.941725L30.9921 1.22104L31.6176 1.72152L32.3159 1.21017L32.874 1.70902L33.7744 1.90084L34.5101 3.08438L36.3344 2.2421L38.026 1.6324L38.1994 2.45349L37.6309 3.82559L37.6787 4.34726L38.5699 4.20109L38.8157 4.81024L40.4811 4.83579L41.4566 5.1928L41.3936 5.64003L42.8461 5.50472L43.5547 5.18465L43.9758 5.42756L44.8469 5.36615L45.6608 5.84979L45.5685 6.50024L46.963 6.40732L46.5086 7.57891L46.3679 8.89395L47.4041 9.57647L47.8008 9.47975L47.6895 11.4458L47.5422 12.1805L46.9596 12.6592L46.6157 13.4754L46.2701 15.0758L46.7157 15.7931L46.0233 16.5049L46.2582 17.0744L46.8004 16.9619L47.3243 17.3043L47.5737 17.8776L46.8391 18.4748L46.7782 19.4268L45.4293 20.2164L45.1985 21.1945L43.6834 21.7749L43.8763 22.3504L43.0139 22.7009L43.0003 23.9148L42.6113 24.8397L42.0256 25.2087L40.9153 24.6892L39.9818 24.9397L39.3732 25.8048L40.6556 27.4421L40.7294 28.449L40.58 29.4451L40.1692 29.9276L41.148 30.1445L41.2305 30.8982L40.4556 31.3068L40.6544 31.7812L39.873 32.0247L39.9073 34.1532L40.3952 34.8096L39.7627 35.9872L39.9871 36.5415L40.148 37.8549L39.8508 38.3217L39.6947 40.4187L39.0238 40.4111L38.1923 39.4107L36.9545 39.4481L36.3072 38.7662L35.6437 37.7717L35.0709 38.4668L33.5358 37.8033L32.3837 38.3766L33.0794 39.2438L33.1696 40.7665L32.9496 41.2881L31.0753 40.5002L29.4402 41.1305L28.8244 41.1398L28.9006 41.7419L27.2795 41.9962L26.1704 42.4233L25.4004 42.9292L25.2266 44.0856L25.7472 44.3502L25.5646 45.0616L25.9059 45.5153L25.6754 45.9636L26.516 47.4987L26.0809 48.2601L25.5656 48.6345L27.5127 49.5224L27.4915 50.5353L28.2583 50.9651L29.2065 50.7315L29.1309 51.8927L28.7734 51.9036L27.5502 52.5508L26.7139 52.0204L25.6754 52.372L24.4837 52.2144L24.0175 53.1274L24.0658 54.0892L24.6462 55.5249L25.0761 56.2068L24.8228 56.6687L23.992 56.6182L23.7044 57.2024L23.2166 57.3888L23.1779 58.8321L24.1724 58.8527L25.4787 58.3272L25.9873 58.631L26.3959 60.0792L26.0434 60.4155L25.1076 60.4965L24.5011 61.6969L24.4001 62.6441L23.7094 62.6495L23.7061 63.3668L22.7008 64.1488L22.5395 65.4986L22.1509 65.4029L21.0184 65.6431L20.3005 66.9533L19.9871 67.9597L19.2747 68.2613L19.3931 69.0498L18.8475 69.0867L18.6976 69.5687L17.9481 69.5301L18.1792 68.809L17.5293 68.6188L16.4777 67.6929L15.5376 67.7994L15.6528 67.2201L15.1263 66.6979L15.3833 65.8186L14.8469 65.2823L13.6895 65.8632L13.063 65.1573L13.0379 64.4493L12.7341 63.6119L12.0045 64.0754L11.2832 64.1759L10.7828 62.2512L10.0357 62.0349L9.81063 61.2269L9.23468 61.0758L8.81678 60.24L7.7289 59.7825L8.51413 58.1501L8.2206 57.2355L7.64134 56.353L7.17186 56.0547L7.60502 55.1255L5.29378 54.6625L4.16843 54.1126L5.0238 53.3643L5.61169 53.329L5.59925 52.5296L6.5523 52.228L6.75893 51.6145L6.0014 51.6455L5.71832 50.6945L5.83391 50.0739L5.2976 49.6082L3.92233 49.805L3.25932 48.9263L2.79747 49.0665L2.16862 48.5171L1.52634 48.7078L1.59865 50.1462L1.98504 50.3495L2.44258 49.8756L2.91969 50.8907L2.3595 51.1608L2.11008 50.4554L1.41225 50.2304L0.918891 50.3598L0.322217 49.9441L0.438468 48.6644L0 47.8617L1.25355 47.4803L2.38222 48.541L2.8779 48.222L2.69631 46.4358L2.46381 46.1315L2.50079 45.2159L2.89631 44.6051L2.0139 44.4442L0.466825 43.6672L0.786887 43.196L0.206464 42.6124L1.26781 41.9592L1.57527 41.5555L2.76049 42.0777L3.77988 41.2648L4.28368 41.0577L4.35698 39.7883L5.01402 39.5036L4.85581 38.7852L5.1238 37.5951L4.94769 36.3257L5.52811 35.979L6.35297 36.385L7.50436 35.8714L7.24085 35.1074L5.4704 34.3037L5.62529 33.7288L6.09692 33.6315L6.00405 32.855L5.2107 32.1692L5.05316 31.4834L5.99162 31.3237L6.23772 30.9427L6.15513 30.1091L6.44534 29.1375L6.15778 28.8289L6.61267 28.1871L6.03341 26.7351L4.96012 25.5467L5.67089 25.0353L5.40423 23.9703L5.52595 23.1497L6.0883 22.4525L5.77089 22.2004L6.1203 21.3532L5.87852 20.7908Z"/>
</mask>
<path d="M5.87852 20.7908L5.90737 20.092L5.40257 19.4861L4.98185 18.3166L4.90258 17.4222L4.11619 17.3151L3.8419 16.5109L4.68301 15.8816L4.74819 15.2334L3.75716 14.2813L3.55384 13.5928L4.67008 12.9407L4.44885 11.6463L5.49544 11.1083L5.93988 10.6095L5.79858 9.22543L6.35944 8.04461L7.26755 7.13984L7.70602 6.18887L7.50818 5.98727L8.92441 4.86839L8.60915 4.62005L7.91464 4.79612L7.39242 4.33313L7.87119 3.29794L8.93635 3.01428L10.0161 2.17689L11.0328 2.58499L11.5131 2.29916L11.7555 3.15122L13.0537 2.83767L13.9373 2.99581L14.4351 2.00191L15.4338 1.87421L16.2197 1.98507L16.7555 2.5062L19.5833 2.89799L20.2028 1.92964L21.0174 1.84106L21.5667 0.879231L22.2204 0.878692L23.4545 1.46448L24.1615 2.52902L25.1494 1.74597L25.552 1.67804L26.0303 0.828698L27.3361 0.36408L27.8762 0L29.0309 0.941725L30.9921 1.22104L31.6176 1.72152L32.3159 1.21017L32.874 1.70902L33.7744 1.90084L34.5101 3.08438L36.3344 2.2421L38.026 1.6324L38.1994 2.45349L37.6309 3.82559L37.6787 4.34726L38.5699 4.20109L38.8157 4.81024L40.4811 4.83579L41.4566 5.1928L41.3936 5.64003L42.8461 5.50472L43.5547 5.18465L43.9758 5.42756L44.8469 5.36615L45.6608 5.84979L45.5685 6.50024L46.963 6.40732L46.5086 7.57891L46.3679 8.89395L47.4041 9.57647L47.8008 9.47975L47.6895 11.4458L47.5422 12.1805L46.9596 12.6592L46.6157 13.4754L46.2701 15.0758L46.7157 15.7931L46.0233 16.5049L46.2582 17.0744L46.8004 16.9619L47.3243 17.3043L47.5737 17.8776L46.8391 18.4748L46.7782 19.4268L45.4293 20.2164L45.1985 21.1945L43.6834 21.7749L43.8763 22.3504L43.0139 22.7009L43.0003 23.9148L42.6113 24.8397L42.0256 25.2087L40.9153 24.6892L39.9818 24.9397L39.3732 25.8048L40.6556 27.4421L40.7294 28.449L40.58 29.4451L40.1692 29.9276L41.148 30.1445L41.2305 30.8982L40.4556 31.3068L40.6544 31.7812L39.873 32.0247L39.9073 34.1532L40.3952 34.8096L39.7627 35.9872L39.9871 36.5415L40.148 37.8549L39.8508 38.3217L39.6947 40.4187L39.0238 40.4111L38.1923 39.4107L36.9545 39.4481L36.3072 38.7662L35.6437 37.7717L35.0709 38.4668L33.5358 37.8033L32.3837 38.3766L33.0794 39.2438L33.1696 40.7665L32.9496 41.2881L31.0753 40.5002L29.4402 41.1305L28.8244 41.1398L28.9006 41.7419L27.2795 41.9962L26.1704 42.4233L25.4004 42.9292L25.2266 44.0856L25.7472 44.3502L25.5646 45.0616L25.9059 45.5153L25.6754 45.9636L26.516 47.4987L26.0809 48.2601L25.5656 48.6345L27.5127 49.5224L27.4915 50.5353L28.2583 50.9651L29.2065 50.7315L29.1309 51.8927L28.7734 51.9036L27.5502 52.5508L26.7139 52.0204L25.6754 52.372L24.4837 52.2144L24.0175 53.1274L24.0658 54.0892L24.6462 55.5249L25.0761 56.2068L24.8228 56.6687L23.992 56.6182L23.7044 57.2024L23.2166 57.3888L23.1779 58.8321L24.1724 58.8527L25.4787 58.3272L25.9873 58.631L26.3959 60.0792L26.0434 60.4155L25.1076 60.4965L24.5011 61.6969L24.4001 62.6441L23.7094 62.6495L23.7061 63.3668L22.7008 64.1488L22.5395 65.4986L22.1509 65.4029L21.0184 65.6431L20.3005 66.9533L19.9871 67.9597L19.2747 68.2613L19.3931 69.0498L18.8475 69.0867L18.6976 69.5687L17.9481 69.5301L18.1792 68.809L17.5293 68.6188L16.4777 67.6929L15.5376 67.7994L15.6528 67.2201L15.1263 66.6979L15.3833 65.8186L14.8469 65.2823L13.6895 65.8632L13.063 65.1573L13.0379 64.4493L12.7341 63.6119L12.0045 64.0754L11.2832 64.1759L10.7828 62.2512L10.0357 62.0349L9.81063 61.2269L9.23468 61.0758L8.81678 60.24L7.7289 59.7825L8.51413 58.1501L8.2206 57.2355L7.64134 56.353L7.17186 56.0547L7.60502 55.1255L5.29378 54.6625L4.16843 54.1126L5.0238 53.3643L5.61169 53.329L5.59925 52.5296L6.5523 52.228L6.75893 51.6145L6.0014 51.6455L5.71832 50.6945L5.83391 50.0739L5.2976 49.6082L3.92233 49.805L3.25932 48.9263L2.79747 49.0665L2.16862 48.5171L1.52634 48.7078L1.59865 50.1462L1.98504 50.3495L2.44258 49.8756L2.91969 50.8907L2.3595 51.1608L2.11008 50.4554L1.41225 50.2304L0.918891 50.3598L0.322217 49.9441L0.438468 48.6644L0 47.8617L1.25355 47.4803L2.38222 48.541L2.8779 48.222L2.69631 46.4358L2.46381 46.1315L2.50079 45.2159L2.89631 44.6051L2.0139 44.4442L0.466825 43.6672L0.786887 43.196L0.206464 42.6124L1.26781 41.9592L1.57527 41.5555L2.76049 42.0777L3.77988 41.2648L4.28368 41.0577L4.35698 39.7883L5.01402 39.5036L4.85581 38.7852L5.1238 37.5951L4.94769 36.3257L5.52811 35.979L6.35297 36.385L7.50436 35.8714L7.24085 35.1074L5.4704 34.3037L5.62529 33.7288L6.09692 33.6315L6.00405 32.855L5.2107 32.1692L5.05316 31.4834L5.99162 31.3237L6.23772 30.9427L6.15513 30.1091L6.44534 29.1375L6.15778 28.8289L6.61267 28.1871L6.03341 26.7351L4.96012 25.5467L5.67089 25.0353L5.40423 23.9703L5.52595 23.1497L6.0883 22.4525L5.77089 22.2004L6.1203 21.3532L5.87852 20.7908Z" fill="#F2F2F2" stroke="#07122B" mask="url(#path-1-inside-1_81_135)"/>
</svg>
