<svg width="54" height="62" viewBox="0 0 54 62" fill="none" xmlns="http://www.w3.org/2000/svg">
<mask id="path-1-inside-1_81_167" fill="white">
<path d="M8.37881 5.78185L8.73303 5.20477L8.62159 4.42551L8.98145 3.82832L10.9121 4.06306L11.3176 3.80929L12.232 3.78157L12.9831 3.41695L13.7824 4.01741L14.6666 3.95547L15.7648 3.45391L16.6777 3.52673L17.188 3.35391L18.0155 3.48759L18.0503 2.46924L17.3412 1.62479L17.8319 1.44003L18.9534 0.0869389L20.3179 0L20.4494 0.307562L21.4662 0.281484L22.3199 0.859667L23.4045 0.374953L23.5529 0.581998L24.0039 1.08193L24.882 1.44384L26.7644 1.36667L26.9585 1.99866L26.5731 3.68539L27.6561 3.9283L28.7223 3.82994L29.4956 4.98087L28.1382 6.36603L28.3082 6.80727L29.1684 7.43274L29.8695 6.08888L30.9063 6.07366L31.3176 7.20341L31.8241 7.94625L31.7789 8.77441L32.7587 9.02928L33.0511 9.66614L33.288 10.9344L33.8874 11.1132L34.1869 11.8506L34.0205 12.4734L32.8723 13.2244L31.5844 13.8031L31.7186 14.8752L32.8522 14.734L33.3494 16.6571L32.7436 17.7912L32.9642 18.3438L33.688 18.9492L34.3036 18.7601L34.9497 17.8798L35.7731 18.5954L36.6892 18.4568L36.2648 19.6007L37.6706 20.5245L39.1818 21.0413L40.2181 19.9186L40.8773 19.742L41.0788 20.919L42.2151 21.3391L43.2144 22.509L43.9899 22.4281L43.2297 23.829L43.9018 24.9201L44.705 24.6544L44.6844 24.186L45.7396 23.2454L46.3363 22.9677L46.9434 23.1225L47.0227 23.8192L47.6878 23.9893L48.2334 23.322L49.1652 23.8279L50.1288 21.9129L52.0541 23.1725L52.7284 25.9988L52.7675 26.6895L52.3818 27.628L51.8563 27.6127L50.913 29.3006L50.5569 29.6076L49.9641 29.2544L49.1652 29.1647L48.8017 29.8831L49.2903 30.5091L48.5394 30.9726L48.7843 31.6758L49.4349 31.1791L49.8598 31.8812L50.5407 31.7964L50.3163 33.4022L50.7271 34.0076L50.4178 34.8466L51.1438 35.4715L52.0649 34.8069L52.647 35.4112L52.4737 36.974L52.6317 38.2298L51.8732 39.083L53.0441 39.2846L53.5663 39.7737L53.0241 40.8898L52.4503 40.5926L52.4388 41.825L52.1367 42.4353L52.3747 43.0738L51.9567 43.9579L52.1703 44.4133L51.5796 45.0588L51.0254 45.2528L51.3732 46.3706L51.077 47.4629L50.5815 47.9845L50.5929 48.5888L49.5055 49.3952L49.6039 50.0402L49.1344 50.5706L49.1588 51.0347L48.6235 51.8759L47.6895 51.9003L46.3869 52.247L44.9121 53.6664L44.5996 54.7853L46.119 55.395L45.518 56.1574L44.7839 56.3346L43.8497 57.3648L42.645 56.8453L42.2537 57.3398L41.6776 57.4339L40.579 58.2158L38.921 58.2381L38.4515 58.4424L37.1364 58.4006L37.1452 58.0523L36.2648 57.2491L34.5738 57.7637L33.9038 58.4995L32.53 58.0756L30.5519 58.0811L30.5314 58.9081L29.9684 58.8978L28.1165 59.5972L26.3487 60.6487L25.5336 60.7372L25.026 60.3319L24.4288 60.6123L24.0326 61.229L22.9361 61.6665L22.0678 60.9187L22.6378 60.0357L21.5325 59.4173L20.4494 59.4624L20.232 59.0027L19.3219 58.6391L19.436 57.9903L18.747 57.7295L18.0682 56.2894L18.1508 55.389L16.4288 55.6319L15.6643 54.6326L14.9578 54.6158L14.3714 53.9919L13.4048 54.2234L12.6494 53.5914L12.4086 53.0768L12.7444 51.9628L11.7164 51.7754L11.368 51.9558L10.8338 52.9154L10.2753 52.3367L10.3698 50.7858L8.839 50.6543L8.60534 50.1745L7.75709 50.4163L6.97452 49.9348L7.06324 49.4724L6.0024 48.3106L5.42861 48.4475L5.32363 47.8481L5.36128 46.475L6.13224 45.5131L5.99759 44.9485L4.51303 43.0096L3.75765 42.708L2.71638 43.2428L2.21821 42.8559L2.24093 42.2217L1.81224 41.005L1.79748 39.5606L2.40129 38.8689L2.16381 38.4825L2.16332 37.6343L1.50412 37.8723L1.20744 36.9968L1.49649 36.1698L0.547753 35.879L0.578101 34.858L0 34.164L1.93281 32.1241L2.39482 30.6683L1.83944 30.095L2.14524 29.6212L1.73613 28.9142L1.83944 28.3306L2.60444 28.1534L3.13544 27.3318L2.96745 26.8998L3.32665 26.3412L3.93526 26.3574L4.55267 24.9392L4.45433 24.6713L5.03243 23.5839L5.47421 23.5524L5.41235 22.1026L5.7888 21.952L5.98283 21.2739L6.77734 20.3354L5.93125 19.736L6.03888 19.291L6.77403 19.4268L7.23272 18.4943L6.90288 17.2858L7.22294 15.8333L8.23089 16.3283L8.97482 15.417L9.86005 15.0698L9.64115 13.4689L10.1242 12.725L9.37598 12.0528L9.59985 11.5735L9.42539 10.923L9.75192 10.1759L8.66521 10.0378L7.58861 10.5508L7.34251 10.046L7.19143 8.53803L7.8168 7.22406L8.99223 6.99475L8.84066 6.03401L8.37881 5.78185ZM4.2928 48.1269L4.52928 48.823L3.89016 49.7446L3.26363 50.0533L1.88073 49.5919L1.61109 49.0784L2.35071 48.535L4.2928 48.1269Z"/>
</mask>
<path d="M8.37881 5.78185L8.73303 5.20477L8.62159 4.42551L8.98145 3.82832L10.9121 4.06306L11.3176 3.80929L12.232 3.78157L12.9831 3.41695L13.7824 4.01741L14.6666 3.95547L15.7648 3.45391L16.6777 3.52673L17.188 3.35391L18.0155 3.48759L18.0503 2.46924L17.3412 1.62479L17.8319 1.44003L18.9534 0.0869389L20.3179 0L20.4494 0.307562L21.4662 0.281484L22.3199 0.859667L23.4045 0.374953L23.5529 0.581998L24.0039 1.08193L24.882 1.44384L26.7644 1.36667L26.9585 1.99866L26.5731 3.68539L27.6561 3.9283L28.7223 3.82994L29.4956 4.98087L28.1382 6.36603L28.3082 6.80727L29.1684 7.43274L29.8695 6.08888L30.9063 6.07366L31.3176 7.20341L31.8241 7.94625L31.7789 8.77441L32.7587 9.02928L33.0511 9.66614L33.288 10.9344L33.8874 11.1132L34.1869 11.8506L34.0205 12.4734L32.8723 13.2244L31.5844 13.8031L31.7186 14.8752L32.8522 14.734L33.3494 16.6571L32.7436 17.7912L32.9642 18.3438L33.688 18.9492L34.3036 18.7601L34.9497 17.8798L35.7731 18.5954L36.6892 18.4568L36.2648 19.6007L37.6706 20.5245L39.1818 21.0413L40.2181 19.9186L40.8773 19.742L41.0788 20.919L42.2151 21.3391L43.2144 22.509L43.9899 22.4281L43.2297 23.829L43.9018 24.9201L44.705 24.6544L44.6844 24.186L45.7396 23.2454L46.3363 22.9677L46.9434 23.1225L47.0227 23.8192L47.6878 23.9893L48.2334 23.322L49.1652 23.8279L50.1288 21.9129L52.0541 23.1725L52.7284 25.9988L52.7675 26.6895L52.3818 27.628L51.8563 27.6127L50.913 29.3006L50.5569 29.6076L49.9641 29.2544L49.1652 29.1647L48.8017 29.8831L49.2903 30.5091L48.5394 30.9726L48.7843 31.6758L49.4349 31.1791L49.8598 31.8812L50.5407 31.7964L50.3163 33.4022L50.7271 34.0076L50.4178 34.8466L51.1438 35.4715L52.0649 34.8069L52.647 35.4112L52.4737 36.974L52.6317 38.2298L51.8732 39.083L53.0441 39.2846L53.5663 39.7737L53.0241 40.8898L52.4503 40.5926L52.4388 41.825L52.1367 42.4353L52.3747 43.0738L51.9567 43.9579L52.1703 44.4133L51.5796 45.0588L51.0254 45.2528L51.3732 46.3706L51.077 47.4629L50.5815 47.9845L50.5929 48.5888L49.5055 49.3952L49.6039 50.0402L49.1344 50.5706L49.1588 51.0347L48.6235 51.8759L47.6895 51.9003L46.3869 52.247L44.9121 53.6664L44.5996 54.7853L46.119 55.395L45.518 56.1574L44.7839 56.3346L43.8497 57.3648L42.645 56.8453L42.2537 57.3398L41.6776 57.4339L40.579 58.2158L38.921 58.2381L38.4515 58.4424L37.1364 58.4006L37.1452 58.0523L36.2648 57.2491L34.5738 57.7637L33.9038 58.4995L32.53 58.0756L30.5519 58.0811L30.5314 58.9081L29.9684 58.8978L28.1165 59.5972L26.3487 60.6487L25.5336 60.7372L25.026 60.3319L24.4288 60.6123L24.0326 61.229L22.9361 61.6665L22.0678 60.9187L22.6378 60.0357L21.5325 59.4173L20.4494 59.4624L20.232 59.0027L19.3219 58.6391L19.436 57.9903L18.747 57.7295L18.0682 56.2894L18.1508 55.389L16.4288 55.6319L15.6643 54.6326L14.9578 54.6158L14.3714 53.9919L13.4048 54.2234L12.6494 53.5914L12.4086 53.0768L12.7444 51.9628L11.7164 51.7754L11.368 51.9558L10.8338 52.9154L10.2753 52.3367L10.3698 50.7858L8.839 50.6543L8.60534 50.1745L7.75709 50.4163L6.97452 49.9348L7.06324 49.4724L6.0024 48.3106L5.42861 48.4475L5.32363 47.8481L5.36128 46.475L6.13224 45.5131L5.99759 44.9485L4.51303 43.0096L3.75765 42.708L2.71638 43.2428L2.21821 42.8559L2.24093 42.2217L1.81224 41.005L1.79748 39.5606L2.40129 38.8689L2.16381 38.4825L2.16332 37.6343L1.50412 37.8723L1.20744 36.9968L1.49649 36.1698L0.547753 35.879L0.578101 34.858L0 34.164L1.93281 32.1241L2.39482 30.6683L1.83944 30.095L2.14524 29.6212L1.73613 28.9142L1.83944 28.3306L2.60444 28.1534L3.13544 27.3318L2.96745 26.8998L3.32665 26.3412L3.93526 26.3574L4.55267 24.9392L4.45433 24.6713L5.03243 23.5839L5.47421 23.5524L5.41235 22.1026L5.7888 21.952L5.98283 21.2739L6.77734 20.3354L5.93125 19.736L6.03888 19.291L6.77403 19.4268L7.23272 18.4943L6.90288 17.2858L7.22294 15.8333L8.23089 16.3283L8.97482 15.417L9.86005 15.0698L9.64115 13.4689L10.1242 12.725L9.37598 12.0528L9.59985 11.5735L9.42539 10.923L9.75192 10.1759L8.66521 10.0378L7.58861 10.5508L7.34251 10.046L7.19143 8.53803L7.8168 7.22406L8.99223 6.99475L8.84066 6.03401L8.37881 5.78185ZM4.2928 48.1269L4.52928 48.823L3.89016 49.7446L3.26363 50.0533L1.88073 49.5919L1.61109 49.0784L2.35071 48.535L4.2928 48.1269Z" fill="#F2F2F2" stroke="#07122B" mask="url(#path-1-inside-1_81_167)"/>
</svg>
