<svg width="65" height="47" viewBox="0 0 65 47" fill="none" xmlns="http://www.w3.org/2000/svg">
<mask id="path-1-inside-1_81_140" fill="white">
<path d="M0.236315 11.6333L1.05305 10.8616L1.06615 10.3791L1.84491 10.3172L2.06431 11.0355L2.59366 11.0812L3.39249 10.7312L3.57242 10.115L3.17027 9.53735L3.12831 8.15601L4.24836 7.50229L4.25383 6.64208L3.85815 6.09324L3.20493 5.96282L2.95617 5.0249L3.68751 3.95547L4.08252 4.14295L4.79877 3.6691L4.65217 2.83931L5.34818 2.09539L6.37304 2.14266L6.83389 1.66772L7.28165 2.45947L7.78429 2.89583L8.44514 2.62684L8.30816 3.86852L9.98459 3.70169L10.4844 2.86051L11.3756 2.66759L12.6663 1.6525L13.6172 1.92693L14.2845 1.44873L14.9127 1.74163L15.9115 0L16.4407 0.0374994L16.7609 0.698279L16.682 1.32864L17.0531 1.7976L18.6959 0.878148L19.6572 0.461353L19.7556 0.165742L21.3521 0.0364111L21.4609 1.09062L21.1217 1.7601L21.4526 2.52685L20.9124 3.50389L20.8523 4.59234L20.0067 5.39713L20.7566 5.66014L21.0499 4.82057L21.0597 4.04948L21.4934 3.01755L22.1987 2.54261L22.5922 2.90778L24.0104 2.55131L24.0495 3.39142L23.4801 4.6706L23.9572 5.65579L25.2679 5.91011L26.3162 5.74002L27.0623 6.39918L26.6742 6.86216L26.9764 7.2545L26.4921 7.84301L27.216 8.76626L28.1979 9.43248L28.5571 9.40205L28.9435 10.7801L30.3455 11.373L30.9302 11.8295L30.9166 12.8864L31.3942 14.3731L31.129 15.254L32.4789 15.7393L32.8338 16.5033L33.4098 16.888L34.8802 17.4179L34.6852 17.9113L34.9194 18.5346L34.6177 18.8612L35.5383 19.9371L36.486 20.0441L36.249 18.7226L36.9674 18.6829L37.2746 19.0997L38.1462 19.0024L38.0808 18.402L39.2183 17.5184L41.0038 15.317L42.9808 14.4932L43.7216 13.8493L44.1638 13.0978L43.6856 12.8706L44.171 12.1506L45.2283 11.9691L46.8353 12.5163L47.1732 11.9984L48.0248 11.8604L49.1354 10.9883L49.8576 10.8605L50.8569 11.185L50.019 12.4527L49.8972 13.0244L49.0769 13.6846L49.9349 14.1965L50.4554 13.4678L51.7791 12.4571L52.8921 14.3454L53.9637 15.9735L54.9206 16.2495L55.5607 15.6393L55.1721 15.3268L55.2494 14.7014L56.1514 14.3242L56.8507 14.7802L56.9258 15.6252L57.4132 15.8691L57.9039 16.5517L58.5722 16.744L59.2527 16.5935L59.7515 16.9277L59.4221 17.4939L59.757 18.1781L60.2797 17.4467L61.1735 16.7185L61.6697 17.2016L61.8143 17.9569L62.3723 18.0303L62.3554 18.7106L61.9012 19.5741L62.4261 19.7757L62.6549 19.0209L63.2564 18.9378L63.3831 18.2754L63.9161 17.676L64.2846 18.0759L64.6562 20.1708L64.3199 20.9408L64.7519 21.5277L64.0325 21.8548L64.2101 22.6569L64.0471 23.1204L63.2955 23.4845L63.1549 24.3762L63.7471 24.9696L63.845 26.2868L63.3891 27.1514L63.3435 27.8926L63.8722 28.2366L64.0183 29.0001L63.3826 29.2565L62.6223 29.2261L63.0967 30.7379L62.975 31.772L62.3022 31.6437L61.4687 31.7709L61.3312 32.4512L60.8807 32.7344L59.5286 32.1366L59.4407 31.7046L58.4522 31.9855L58.6435 32.4344L57.586 33.9206L55.7792 33.8646L54.5086 34.5118L54.3668 35.7394L54.625 36.5643L53.1372 36.6817L53.2718 37.6446L52.9856 39.0634L52.2422 39.3895L52.0422 40.2062L51.5541 39.8084L50.9357 40.2595L50.8156 40.8284L50.0626 40.6339L49.5669 40.8431L49.4225 41.4963L48.4318 41.2794L47.9198 41.8239L47.5628 41.2186L47.5797 40.5268L45.9675 38.6461L44.8328 38.6488L44.697 39.1639L43.5368 39.5699L42.5363 39.3688L41.6821 39.5547L42.3342 40.3513L42.4607 40.8159L41.5125 42.495L40.9816 42.7841L41.0931 43.8106L40.1224 44.2807L39.7112 45.0126L38.2646 46.2804L37.2903 46.1027L36.8039 45.6963L36.6495 44.8447L37.0099 43.6476L37.4467 42.7488L37.2278 42.4912L37.3653 41.5979L36.787 40.8501L35.6535 41.5164L35.4721 41.9777L33.5821 41.8163L33.3343 42.8292L32.525 42.0761L32.3002 40.9425L31.2388 40.06L30.3347 40.4285L28.8778 39.7443L28.5435 39.0949L25.9076 38.8086L24.994 39.3694L24.7185 38.7624L24.0892 38.6265L24.0426 37.8761L23.2073 36.9349L21.7113 36.5866L21.1212 37.0338L20.5196 36.705L19.7284 37.1365L19.4839 38.0989L19.7403 38.4477L19.4095 39.1324L18.8264 39.4411L18.0797 39.4041L17.489 39.09L16.2679 39.9753L15.6626 39.8253L14.121 40.3845L13.8819 39.9725L12.9093 39.6052L11.9131 38.7271L10.1644 39.7693L9.64496 39.5693L9.16503 40.1144L8.45327 39.609L8.38362 39.2254L9.05907 38.5814L8.38478 38.0081L7.85709 38.332L6.9659 37.9223L5.27106 38.3228L4.04621 38.2494L3.72399 37.9277L4.47008 37.481L5.38134 37.7408L5.34867 36.9827L4.65051 36.7577L3.97987 35.5606L4.04952 34.8227L4.57107 34.7482L4.78301 34.0722L5.19163 34.0499L5.19229 33.0343L5.39876 32.5947L4.71071 32.3529L4.6651 30.8411L4.00657 29.6016L3.92332 27.9556L4.03311 27.2198L2.83379 27.0574L2.17575 26.7878L2.47409 25.7852L2.40942 24.8403L3.06264 24.1958L4.03476 23.6638L2.68437 22.5112L2.27907 20.6952L3.00825 20.2593L3.94074 18.9187L4.15649 18.2357L3.52449 17.4711L2.67359 17.4717L3.01753 16.3691L2.84142 15.9066L1.76763 15.4855L1.27908 15.4953L0.603142 14.3596L0 12.0213L0.236315 11.6333Z"/>
</mask>
<path d="M0.236315 11.6333L1.05305 10.8616L1.06615 10.3791L1.84491 10.3172L2.06431 11.0355L2.59366 11.0812L3.39249 10.7312L3.57242 10.115L3.17027 9.53735L3.12831 8.15601L4.24836 7.50229L4.25383 6.64208L3.85815 6.09324L3.20493 5.96282L2.95617 5.0249L3.68751 3.95547L4.08252 4.14295L4.79877 3.6691L4.65217 2.83931L5.34818 2.09539L6.37304 2.14266L6.83389 1.66772L7.28165 2.45947L7.78429 2.89583L8.44514 2.62684L8.30816 3.86852L9.98459 3.70169L10.4844 2.86051L11.3756 2.66759L12.6663 1.6525L13.6172 1.92693L14.2845 1.44873L14.9127 1.74163L15.9115 0L16.4407 0.0374994L16.7609 0.698279L16.682 1.32864L17.0531 1.7976L18.6959 0.878148L19.6572 0.461353L19.7556 0.165742L21.3521 0.0364111L21.4609 1.09062L21.1217 1.7601L21.4526 2.52685L20.9124 3.50389L20.8523 4.59234L20.0067 5.39713L20.7566 5.66014L21.0499 4.82057L21.0597 4.04948L21.4934 3.01755L22.1987 2.54261L22.5922 2.90778L24.0104 2.55131L24.0495 3.39142L23.4801 4.6706L23.9572 5.65579L25.2679 5.91011L26.3162 5.74002L27.0623 6.39918L26.6742 6.86216L26.9764 7.2545L26.4921 7.84301L27.216 8.76626L28.1979 9.43248L28.5571 9.40205L28.9435 10.7801L30.3455 11.373L30.9302 11.8295L30.9166 12.8864L31.3942 14.3731L31.129 15.254L32.4789 15.7393L32.8338 16.5033L33.4098 16.888L34.8802 17.4179L34.6852 17.9113L34.9194 18.5346L34.6177 18.8612L35.5383 19.9371L36.486 20.0441L36.249 18.7226L36.9674 18.6829L37.2746 19.0997L38.1462 19.0024L38.0808 18.402L39.2183 17.5184L41.0038 15.317L42.9808 14.4932L43.7216 13.8493L44.1638 13.0978L43.6856 12.8706L44.171 12.1506L45.2283 11.9691L46.8353 12.5163L47.1732 11.9984L48.0248 11.8604L49.1354 10.9883L49.8576 10.8605L50.8569 11.185L50.019 12.4527L49.8972 13.0244L49.0769 13.6846L49.9349 14.1965L50.4554 13.4678L51.7791 12.4571L52.8921 14.3454L53.9637 15.9735L54.9206 16.2495L55.5607 15.6393L55.1721 15.3268L55.2494 14.7014L56.1514 14.3242L56.8507 14.7802L56.9258 15.6252L57.4132 15.8691L57.9039 16.5517L58.5722 16.744L59.2527 16.5935L59.7515 16.9277L59.4221 17.4939L59.757 18.1781L60.2797 17.4467L61.1735 16.7185L61.6697 17.2016L61.8143 17.9569L62.3723 18.0303L62.3554 18.7106L61.9012 19.5741L62.4261 19.7757L62.6549 19.0209L63.2564 18.9378L63.3831 18.2754L63.9161 17.676L64.2846 18.0759L64.6562 20.1708L64.3199 20.9408L64.7519 21.5277L64.0325 21.8548L64.2101 22.6569L64.0471 23.1204L63.2955 23.4845L63.1549 24.3762L63.7471 24.9696L63.845 26.2868L63.3891 27.1514L63.3435 27.8926L63.8722 28.2366L64.0183 29.0001L63.3826 29.2565L62.6223 29.2261L63.0967 30.7379L62.975 31.772L62.3022 31.6437L61.4687 31.7709L61.3312 32.4512L60.8807 32.7344L59.5286 32.1366L59.4407 31.7046L58.4522 31.9855L58.6435 32.4344L57.586 33.9206L55.7792 33.8646L54.5086 34.5118L54.3668 35.7394L54.625 36.5643L53.1372 36.6817L53.2718 37.6446L52.9856 39.0634L52.2422 39.3895L52.0422 40.2062L51.5541 39.8084L50.9357 40.2595L50.8156 40.8284L50.0626 40.6339L49.5669 40.8431L49.4225 41.4963L48.4318 41.2794L47.9198 41.8239L47.5628 41.2186L47.5797 40.5268L45.9675 38.6461L44.8328 38.6488L44.697 39.1639L43.5368 39.5699L42.5363 39.3688L41.6821 39.5547L42.3342 40.3513L42.4607 40.8159L41.5125 42.495L40.9816 42.7841L41.0931 43.8106L40.1224 44.2807L39.7112 45.0126L38.2646 46.2804L37.2903 46.1027L36.8039 45.6963L36.6495 44.8447L37.0099 43.6476L37.4467 42.7488L37.2278 42.4912L37.3653 41.5979L36.787 40.8501L35.6535 41.5164L35.4721 41.9777L33.5821 41.8163L33.3343 42.8292L32.525 42.0761L32.3002 40.9425L31.2388 40.06L30.3347 40.4285L28.8778 39.7443L28.5435 39.0949L25.9076 38.8086L24.994 39.3694L24.7185 38.7624L24.0892 38.6265L24.0426 37.8761L23.2073 36.9349L21.7113 36.5866L21.1212 37.0338L20.5196 36.705L19.7284 37.1365L19.4839 38.0989L19.7403 38.4477L19.4095 39.1324L18.8264 39.4411L18.0797 39.4041L17.489 39.09L16.2679 39.9753L15.6626 39.8253L14.121 40.3845L13.8819 39.9725L12.9093 39.6052L11.9131 38.7271L10.1644 39.7693L9.64496 39.5693L9.16503 40.1144L8.45327 39.609L8.38362 39.2254L9.05907 38.5814L8.38478 38.0081L7.85709 38.332L6.9659 37.9223L5.27106 38.3228L4.04621 38.2494L3.72399 37.9277L4.47008 37.481L5.38134 37.7408L5.34867 36.9827L4.65051 36.7577L3.97987 35.5606L4.04952 34.8227L4.57107 34.7482L4.78301 34.0722L5.19163 34.0499L5.19229 33.0343L5.39876 32.5947L4.71071 32.3529L4.6651 30.8411L4.00657 29.6016L3.92332 27.9556L4.03311 27.2198L2.83379 27.0574L2.17575 26.7878L2.47409 25.7852L2.40942 24.8403L3.06264 24.1958L4.03476 23.6638L2.68437 22.5112L2.27907 20.6952L3.00825 20.2593L3.94074 18.9187L4.15649 18.2357L3.52449 17.4711L2.67359 17.4717L3.01753 16.3691L2.84142 15.9066L1.76763 15.4855L1.27908 15.4953L0.603142 14.3596L0 12.0213L0.236315 11.6333Z" fill="#F2F2F2" stroke="#07122B" mask="url(#path-1-inside-1_81_140)"/>
</svg>
