<svg width="46" height="42" viewBox="0 0 46 42" fill="none" xmlns="http://www.w3.org/2000/svg">
<mask id="path-1-inside-1_81_97" fill="white">
<path d="M1.53895 5.7536L2.36812 5.32701L2.24806 4.81404L2.91107 4.18967L3.64953 3.8158L3.84356 3.2463L4.68749 2.88874L5.04768 1.84214L5.6699 1.50632L6.2601 1.90138L6.35397 3.29087L7.57501 2.41L8.17168 2.47303L8.2934 1.88453L8.96139 1.71336L8.86786 2.59965L9.27216 3.46748L9.802 3.71093L10.6498 2.62736L11.4224 1.96224L12.3973 3.33055L13.0315 3.42455L13.8814 2.64747L13.8069 2.24536L14.2361 1.48785L13.7786 0.265709L15.6447 0L16.3044 0.853677L16.4201 1.32753L17.7173 1.11779L18.7932 1.17266L19.7453 0.593938L20.2751 1.22374L22.3948 0.775444L22.8889 1.29656L23.8089 1.34113L24.7587 1.79976L25.8047 1.85953L25.989 2.23937L26.8726 2.41545L27.347 1.74651L27.754 1.89595L29.2805 1.66119L30.4591 1.42807L31.6894 1.73509L32.2725 1.52425L33.4418 1.8378L33.3179 2.41381L33.6761 3.87069L34.0668 3.78808L34.9943 4.67167L34.4036 5.2955L34.3792 6.01334L34.9318 6.72249L35.4683 7.02462L36.1595 6.89312L36.717 7.62184L37.0522 6.80021L37.5099 6.65945L38.5429 7.77073L38.3445 8.41575L39.4117 8.53258L40.6306 9.29878L40.9191 10.5274L42.094 11.6767L42.4657 14.2639L43.127 14.8991L43.7166 15.0203L43.9531 16.6294L43.6715 17.5727L43.2786 18.1906L43.3769 19.5681L43.6156 20.5609L44.2758 21.839L45.1913 22.3678L45.2691 23.2551L44.9491 24.662L45.6185 25.7113L45.2207 26.1336L43.8388 26.5601L44.0774 27.0242L43.3992 27.3481L43.0249 28.4289L43.4781 28.7935L43.0318 29.4739L42.0418 30.0488L41.2012 31.2758L39.4166 31.3155L39.5107 32.4393L38.9608 33.0196L37.9216 32.7865L37.4386 33.5734L39.008 35.5019L39.0682 36.4089L39.4666 37.0148L40.2697 37.0631L40.5518 37.6761L41.2105 38.1037L40.4718 38.7058L40.511 39.0982L39.1546 40.1551L38.1598 39.5905L37.1935 39.7052L36.6397 39.4014L35.7459 39.7927L35.9557 40.4649L34.8993 41.7739L34.4461 41.3522L33.4897 42.0049L33.0288 41.9353L33.1348 40.7132L32.404 40.6909L31.029 39.8562L30.2373 40.1633L30.4042 39.0808L29.8597 39.0504L29.5538 38.4265L29.0039 38.1967L28.7576 38.8928L27.5448 38.3928L27.153 38.7124L26.1809 37.6821L25.7054 37.5565L24.8011 36.7322L24.3784 37.1881L23.5632 37.2272L23.1633 37.5066L23.0633 38.3602L22.722 38.8216L21.476 38.7917L20.5771 39.7747L20.211 39.3704L19.3577 40.191L18.667 39.4427L19.0964 39.1107L18.4443 38.4526L18.8563 37.9157L18.583 36.9957L19.2181 36.968L18.6954 34.9335L18.3835 34.9004L17.7047 34.1244L16.7586 33.725L16.0333 33.6413L14.7921 33.0115L15.0132 32.0317L14.6432 31.2237L14.084 31.8154L12.5756 32.7229L11.7197 32.4681L10.5383 33.012L10.3508 32.4213L9.68244 32.4262L8.63154 31.8372L8.48362 30.5064L8.21795 30.0972L9.89603 29.8026L9.25359 28.6805L9.61726 28.173L9.35309 27.8056L7.88976 27.8458L7.46373 28.6539L6.50405 28.6588L5.76392 27.8382L5.14818 27.9094L4.98135 27.4106L5.47703 26.7275L7.11531 26.158L7.50386 25.4049L6.78066 24.2213L6.04817 24.3582L5.84817 23.8262L5.97536 22.8693L6.44418 22.2759L5.9888 21.814L5.81119 21.1271L6.25131 20.23L5.59162 19.9594L5.54701 19.466L4.61237 19.1035L4.34338 18.1243L4.90805 17.7553L3.07193 16.1055L3.22615 15.3561L3.00128 14.6209L1.43016 14.7888L0.749408 14.1232L0.787384 13.6368L0 12.6935L0.845592 11.442L1.61656 11.386L1.11225 10.4046L1.69268 9.48897L1.90511 8.36903L2.4595 8.24513L2.46978 6.35135L1.86714 6.38721L1.53895 5.7536Z"/>
</mask>
<path d="M1.53895 5.7536L2.36812 5.32701L2.24806 4.81404L2.91107 4.18967L3.64953 3.8158L3.84356 3.2463L4.68749 2.88874L5.04768 1.84214L5.6699 1.50632L6.2601 1.90138L6.35397 3.29087L7.57501 2.41L8.17168 2.47303L8.2934 1.88453L8.96139 1.71336L8.86786 2.59965L9.27216 3.46748L9.802 3.71093L10.6498 2.62736L11.4224 1.96224L12.3973 3.33055L13.0315 3.42455L13.8814 2.64747L13.8069 2.24536L14.2361 1.48785L13.7786 0.265709L15.6447 0L16.3044 0.853677L16.4201 1.32753L17.7173 1.11779L18.7932 1.17266L19.7453 0.593938L20.2751 1.22374L22.3948 0.775444L22.8889 1.29656L23.8089 1.34113L24.7587 1.79976L25.8047 1.85953L25.989 2.23937L26.8726 2.41545L27.347 1.74651L27.754 1.89595L29.2805 1.66119L30.4591 1.42807L31.6894 1.73509L32.2725 1.52425L33.4418 1.8378L33.3179 2.41381L33.6761 3.87069L34.0668 3.78808L34.9943 4.67167L34.4036 5.2955L34.3792 6.01334L34.9318 6.72249L35.4683 7.02462L36.1595 6.89312L36.717 7.62184L37.0522 6.80021L37.5099 6.65945L38.5429 7.77073L38.3445 8.41575L39.4117 8.53258L40.6306 9.29878L40.9191 10.5274L42.094 11.6767L42.4657 14.2639L43.127 14.8991L43.7166 15.0203L43.9531 16.6294L43.6715 17.5727L43.2786 18.1906L43.3769 19.5681L43.6156 20.5609L44.2758 21.839L45.1913 22.3678L45.2691 23.2551L44.9491 24.662L45.6185 25.7113L45.2207 26.1336L43.8388 26.5601L44.0774 27.0242L43.3992 27.3481L43.0249 28.4289L43.4781 28.7935L43.0318 29.4739L42.0418 30.0488L41.2012 31.2758L39.4166 31.3155L39.5107 32.4393L38.9608 33.0196L37.9216 32.7865L37.4386 33.5734L39.008 35.5019L39.0682 36.4089L39.4666 37.0148L40.2697 37.0631L40.5518 37.6761L41.2105 38.1037L40.4718 38.7058L40.511 39.0982L39.1546 40.1551L38.1598 39.5905L37.1935 39.7052L36.6397 39.4014L35.7459 39.7927L35.9557 40.4649L34.8993 41.7739L34.4461 41.3522L33.4897 42.0049L33.0288 41.9353L33.1348 40.7132L32.404 40.6909L31.029 39.8562L30.2373 40.1633L30.4042 39.0808L29.8597 39.0504L29.5538 38.4265L29.0039 38.1967L28.7576 38.8928L27.5448 38.3928L27.153 38.7124L26.1809 37.6821L25.7054 37.5565L24.8011 36.7322L24.3784 37.1881L23.5632 37.2272L23.1633 37.5066L23.0633 38.3602L22.722 38.8216L21.476 38.7917L20.5771 39.7747L20.211 39.3704L19.3577 40.191L18.667 39.4427L19.0964 39.1107L18.4443 38.4526L18.8563 37.9157L18.583 36.9957L19.2181 36.968L18.6954 34.9335L18.3835 34.9004L17.7047 34.1244L16.7586 33.725L16.0333 33.6413L14.7921 33.0115L15.0132 32.0317L14.6432 31.2237L14.084 31.8154L12.5756 32.7229L11.7197 32.4681L10.5383 33.012L10.3508 32.4213L9.68244 32.4262L8.63154 31.8372L8.48362 30.5064L8.21795 30.0972L9.89603 29.8026L9.25359 28.6805L9.61726 28.173L9.35309 27.8056L7.88976 27.8458L7.46373 28.6539L6.50405 28.6588L5.76392 27.8382L5.14818 27.9094L4.98135 27.4106L5.47703 26.7275L7.11531 26.158L7.50386 25.4049L6.78066 24.2213L6.04817 24.3582L5.84817 23.8262L5.97536 22.8693L6.44418 22.2759L5.9888 21.814L5.81119 21.1271L6.25131 20.23L5.59162 19.9594L5.54701 19.466L4.61237 19.1035L4.34338 18.1243L4.90805 17.7553L3.07193 16.1055L3.22615 15.3561L3.00128 14.6209L1.43016 14.7888L0.749408 14.1232L0.787384 13.6368L0 12.6935L0.845592 11.442L1.61656 11.386L1.11225 10.4046L1.69268 9.48897L1.90511 8.36903L2.4595 8.24513L2.46978 6.35135L1.86714 6.38721L1.53895 5.7536Z" fill="#F2F2F2" stroke="#07122B" mask="url(#path-1-inside-1_81_97)"/>
</svg>
