<svg width="55" height="60" viewBox="0 0 55 60" fill="none" xmlns="http://www.w3.org/2000/svg">
<mask id="path-1-inside-1_81_121" fill="white">
<path d="M1.71987 27.4421L1.80462 26.9362L2.81273 26.5835L3.54621 25.6184L4.41303 25.9874L4.86344 25.6353L6.32909 26.6335L6.93605 25.7554L7.79689 25.1658L7.87401 24.3387L8.90534 23.8496L9.28957 23.3524L9.63998 22.3346L10.891 22.2037L11.472 21.5652L11.3307 20.0387L10.7431 18.6411L10.8159 17.6771L11.3605 16.393L11.7109 15.1828L12.3474 14.7753L12.8733 13.376L13.4857 13.9564L13.9917 13.2814L14.8024 13.0505L14.7709 12.6223L16.6032 11.7072L17.1011 12.1207L17.5113 11.9599L17.6297 11.0622L18.4682 9.95198L18.7665 9.27705L19.4372 9.30098L20.2072 8.44674L20.0348 7.44307L20.5582 6.67359L20.5838 6.10084L20.0995 5.10859L20.3398 4.41737L20.9599 3.85929L21.3668 4.53745L22.4265 4.20543L22.7156 3.81744L22.4177 3.27675L23.1681 2.90452L23.5311 2.38394L23.817 1.36451L24.4524 0.828698L24.7245 0L25.125 0.891736L26.2124 1.52699L27.3992 1.46285L28.2578 1.00096L28.912 1.2857L29.6738 2.4698L30.145 2.47034L30.0097 3.42184L29.6853 3.85276L29.6707 4.56463L29.2506 5.05966L30.2113 6.52361L31.2715 6.3356L31.4242 7.32296L32.4975 7.02682L33.5315 4.84122L34.0423 5.61884L34.6379 6.05086L36.0915 5.44386L37.8662 5.84272L38.188 5.52048L39.2438 5.52537L39.6465 6.14487L39.6584 7.38817L40.078 8.31849L41.1723 8.93417L41.3539 9.41074L42.2234 9.3738L42.301 8.97167L43.1569 8.98796L44.5605 10.009L43.8075 10.49L43.2667 11.1969L42.7184 12.2718L43.1657 12.7473L44.6312 12.6935L44.9355 13.5895L46.3701 13.3325L47.0825 13.6857L47.0026 14.4655L47.721 14.2509L48.2835 14.4237L49.0034 15.1393L48.6382 15.9066L47.9558 15.5311L47.8575 16.4636L48.4014 16.7239L48.6931 17.3369L49.3979 16.8989L50.3001 17.4706L50.0289 18.622L48.9447 19.2089L48.7007 19.9637L47.946 20.7424L47.0673 20.6691L47.3069 21.7863L46.8467 22.727L46.7907 23.2633L47.2167 23.8578L48.6372 24.2979L48.5127 25.0462L47.8324 25.6184L46.9911 25.8842L46.7814 26.7368L46.9505 27.1791L48.4172 26.9585L49.1583 27.7654L48.8888 28.3431L47.9998 29.2174L48.6659 29.6038L49.2208 30.2439L50.2962 30.0293L50.5879 30.3097L51.3612 30.1217L51.814 30.6004L52.3166 30.4145L53.6148 30.9683L53.5589 31.566L52.9872 31.9214L52.9176 33.1321L53.3768 33.8022L53.1066 34.2999L53.7849 34.9237L54.0957 35.6361L54.9048 36.4855L54.4821 36.861L53.4658 37.1398L53.9174 39.133L53.8327 39.7677L54.4821 40.5931L54.5907 41.8495L54.0587 41.6664L53.6219 42.0451L53.9696 42.9401L54.5952 43.2841L54.306 44.1709L53.6403 44.1568L53.2458 45.2523L52.2975 45.7229L51.7677 45.6712L51.6596 46.5902L51.8075 47.2988L50.5549 47.5335L49.4702 48.0253L49.3017 49.0904L50.2783 49.6963L50.0294 50.9902L49.5458 50.7875L49.3855 51.7373L48.7019 52.2699L47.5613 52.6628L47.3727 53.3241L46.6603 53.8968L45.0958 53.9582L43.8471 54.6228L44.0552 56.196L43.7662 56.672L41.8599 58.6669L42.1972 59.6249L41.6208 59.7732L41.1587 59.4526L41.0747 58.462L38.8918 57.5311L38.019 56.3215L37.6152 56.039L37.2094 56.4889L36.4757 56.1302L35.6795 56.4568L35.4194 56.8937L34.5716 57.4518L33.8565 57.4425L33.588 58.406L32.693 58.2071L31.6454 56.8747L32.3562 56.3433L32.5887 54.8418L32.0176 54.4951L32.1839 53.9159L31.6574 53.2029L30.8775 52.9812L30.2896 53.955L29.6526 53.6126L28.4034 54.3316L26.6563 54.3625L25.814 54.0979L25.6522 53.2621L25.3028 52.8622L24.7126 52.8035L24.5169 53.4518L23.1008 53.1415L22.7113 53.5409L22.5449 54.4315L21.4602 54.9021L21.2902 54.4413L20.3518 54.2174L19.748 54.7473L18.8536 54.7538L18.1944 55.3939L16.8299 55.9031L15.1139 55.0945L14.3747 54.9657L14.4215 54.3299L14.7807 53.6023L14.0754 52.9317L14.3378 52.0406L13.3026 50.4348L12.4794 49.8642L11.7725 49.198L11.5133 48.6432L11.63 47.8362L11.2555 46.5396L12.0978 46.7124L12.8928 45.2278L11.7904 44.4002L10.8725 44.3866L9.84927 45.505L9.17332 45.8256L8.7065 46.7173L6.92527 46.3809L6.04916 46.4739L5.44055 46.1918L4.58915 46.2614L4.4195 46.7494L3.36147 46.6336L2.90891 45.8305L2.36713 45.3474L1.58886 45.5142L1.14924 44.8681L1.64492 43.6389L2.77525 41.962L1.65354 40.2627L2.22152 38.4994L2.62732 38.7667L2.89531 37.9152L2.85783 36.68L3.16595 35.6367L3.52233 35.4655L4.23211 33.8478L3.92399 33.2642L3.86694 32.5132L3.15783 31.4671L1.39003 31.2644L0.59286 31.4688L0.0515747 32.1464L0 31.5296L0.457539 30.7688L0.153231 30.207L1.65089 29.5489L1.00811 29.1381L0.912921 28.5936L1.56498 27.9426L1.71987 27.4421Z"/>
</mask>
<path d="M1.71987 27.4421L1.80462 26.9362L2.81273 26.5835L3.54621 25.6184L4.41303 25.9874L4.86344 25.6353L6.32909 26.6335L6.93605 25.7554L7.79689 25.1658L7.87401 24.3387L8.90534 23.8496L9.28957 23.3524L9.63998 22.3346L10.891 22.2037L11.472 21.5652L11.3307 20.0387L10.7431 18.6411L10.8159 17.6771L11.3605 16.393L11.7109 15.1828L12.3474 14.7753L12.8733 13.376L13.4857 13.9564L13.9917 13.2814L14.8024 13.0505L14.7709 12.6223L16.6032 11.7072L17.1011 12.1207L17.5113 11.9599L17.6297 11.0622L18.4682 9.95198L18.7665 9.27705L19.4372 9.30098L20.2072 8.44674L20.0348 7.44307L20.5582 6.67359L20.5838 6.10084L20.0995 5.10859L20.3398 4.41737L20.9599 3.85929L21.3668 4.53745L22.4265 4.20543L22.7156 3.81744L22.4177 3.27675L23.1681 2.90452L23.5311 2.38394L23.817 1.36451L24.4524 0.828698L24.7245 0L25.125 0.891736L26.2124 1.52699L27.3992 1.46285L28.2578 1.00096L28.912 1.2857L29.6738 2.4698L30.145 2.47034L30.0097 3.42184L29.6853 3.85276L29.6707 4.56463L29.2506 5.05966L30.2113 6.52361L31.2715 6.3356L31.4242 7.32296L32.4975 7.02682L33.5315 4.84122L34.0423 5.61884L34.6379 6.05086L36.0915 5.44386L37.8662 5.84272L38.188 5.52048L39.2438 5.52537L39.6465 6.14487L39.6584 7.38817L40.078 8.31849L41.1723 8.93417L41.3539 9.41074L42.2234 9.3738L42.301 8.97167L43.1569 8.98796L44.5605 10.009L43.8075 10.49L43.2667 11.1969L42.7184 12.2718L43.1657 12.7473L44.6312 12.6935L44.9355 13.5895L46.3701 13.3325L47.0825 13.6857L47.0026 14.4655L47.721 14.2509L48.2835 14.4237L49.0034 15.1393L48.6382 15.9066L47.9558 15.5311L47.8575 16.4636L48.4014 16.7239L48.6931 17.3369L49.3979 16.8989L50.3001 17.4706L50.0289 18.622L48.9447 19.2089L48.7007 19.9637L47.946 20.7424L47.0673 20.6691L47.3069 21.7863L46.8467 22.727L46.7907 23.2633L47.2167 23.8578L48.6372 24.2979L48.5127 25.0462L47.8324 25.6184L46.9911 25.8842L46.7814 26.7368L46.9505 27.1791L48.4172 26.9585L49.1583 27.7654L48.8888 28.3431L47.9998 29.2174L48.6659 29.6038L49.2208 30.2439L50.2962 30.0293L50.5879 30.3097L51.3612 30.1217L51.814 30.6004L52.3166 30.4145L53.6148 30.9683L53.5589 31.566L52.9872 31.9214L52.9176 33.1321L53.3768 33.8022L53.1066 34.2999L53.7849 34.9237L54.0957 35.6361L54.9048 36.4855L54.4821 36.861L53.4658 37.1398L53.9174 39.133L53.8327 39.7677L54.4821 40.5931L54.5907 41.8495L54.0587 41.6664L53.6219 42.0451L53.9696 42.9401L54.5952 43.2841L54.306 44.1709L53.6403 44.1568L53.2458 45.2523L52.2975 45.7229L51.7677 45.6712L51.6596 46.5902L51.8075 47.2988L50.5549 47.5335L49.4702 48.0253L49.3017 49.0904L50.2783 49.6963L50.0294 50.9902L49.5458 50.7875L49.3855 51.7373L48.7019 52.2699L47.5613 52.6628L47.3727 53.3241L46.6603 53.8968L45.0958 53.9582L43.8471 54.6228L44.0552 56.196L43.7662 56.672L41.8599 58.6669L42.1972 59.6249L41.6208 59.7732L41.1587 59.4526L41.0747 58.462L38.8918 57.5311L38.019 56.3215L37.6152 56.039L37.2094 56.4889L36.4757 56.1302L35.6795 56.4568L35.4194 56.8937L34.5716 57.4518L33.8565 57.4425L33.588 58.406L32.693 58.2071L31.6454 56.8747L32.3562 56.3433L32.5887 54.8418L32.0176 54.4951L32.1839 53.9159L31.6574 53.2029L30.8775 52.9812L30.2896 53.955L29.6526 53.6126L28.4034 54.3316L26.6563 54.3625L25.814 54.0979L25.6522 53.2621L25.3028 52.8622L24.7126 52.8035L24.5169 53.4518L23.1008 53.1415L22.7113 53.5409L22.5449 54.4315L21.4602 54.9021L21.2902 54.4413L20.3518 54.2174L19.748 54.7473L18.8536 54.7538L18.1944 55.3939L16.8299 55.9031L15.1139 55.0945L14.3747 54.9657L14.4215 54.3299L14.7807 53.6023L14.0754 52.9317L14.3378 52.0406L13.3026 50.4348L12.4794 49.8642L11.7725 49.198L11.5133 48.6432L11.63 47.8362L11.2555 46.5396L12.0978 46.7124L12.8928 45.2278L11.7904 44.4002L10.8725 44.3866L9.84927 45.505L9.17332 45.8256L8.7065 46.7173L6.92527 46.3809L6.04916 46.4739L5.44055 46.1918L4.58915 46.2614L4.4195 46.7494L3.36147 46.6336L2.90891 45.8305L2.36713 45.3474L1.58886 45.5142L1.14924 44.8681L1.64492 43.6389L2.77525 41.962L1.65354 40.2627L2.22152 38.4994L2.62732 38.7667L2.89531 37.9152L2.85783 36.68L3.16595 35.6367L3.52233 35.4655L4.23211 33.8478L3.92399 33.2642L3.86694 32.5132L3.15783 31.4671L1.39003 31.2644L0.59286 31.4688L0.0515747 32.1464L0 31.5296L0.457539 30.7688L0.153231 30.207L1.65089 29.5489L1.00811 29.1381L0.912921 28.5936L1.56498 27.9426L1.71987 27.4421Z" fill="#F2F2F2" stroke="#07122B" mask="url(#path-1-inside-1_81_121)"/>
</svg>
