<svg width="51" height="56" viewBox="0 0 51 56" fill="none" xmlns="http://www.w3.org/2000/svg">
<mask id="path-1-inside-1_81_185" fill="white">
<path d="M0 16.737L0.508616 16.4278L1.30578 16.8332L2.2003 16.1099L2.67027 16.0746L3.2099 15.2975L3.63709 15.4067L5.38731 14.6959L6.01666 13.9591L6.80354 13.6553L7.62128 13.0646L8.174 13.3249L8.51463 12.4163L9.84827 12.8201L10.3101 13.4314L10.9502 12.6935L11.9741 13.0815L12.5326 12.3375L14.0384 11.9055L14.3232 10.8562L15.2688 11.4784L15.4974 11.0763L14.8497 10.4313L15.6387 9.63518L15.8671 10.033L16.718 10.184L17.2598 9.78569L17.9896 8.61519L18.7737 7.85009L19.466 8.2223L20.5528 8.04625L20.8816 6.85999L21.4358 7.00889L21.6635 6.08726L22.2048 5.68188L22.264 4.42008L22.8645 4.72277L23.4547 3.59356L23.8514 3.65985L24.6631 3.20339L25.5658 3.51694L25.6217 3.04201L26.2646 2.71976L27.0226 3.06917L28.1578 3.28546L28.3702 4.22338L28.9218 4.07774L29.4277 3.5539L30.2781 4.12937L30.664 3.89841L32.2383 4.17991L32.6061 3.35337L32.3226 2.37362L32.5371 1.77261L33.0648 1.64272L33.6 2.27308L34.1587 2.36002L35.0155 1.96877L35.8155 0.771112L35.1358 0L36.2366 0.000559693L36.5829 0.664045L37.4457 1.04063L37.9201 0.622213L38.4314 0.876521L38.8314 1.53677L39.8715 1.93998L40.5045 1.25093L40.8546 0.512451L41.2024 1.31669L42.8406 1.258L43.6688 0.916197L44.3459 1.21615L44.8051 2.01278L44.9719 2.78279L45.4855 2.88333L46.1054 3.46587L46.0582 4.62605L45.5794 4.72495L45.387 3.91472L44.56 4.26739L45.0753 6.00086L45.3622 6.17476L45.7583 7.58L45.6898 9.06406L45.0323 9.11893L44.654 9.58518L44.7176 10.1487L43.67 10.8731L43.6488 11.9859L44.3796 11.6072L45.1605 11.8354L47.7759 11.3958L48.3949 10.8845L49.216 11.0475L49.7991 11.4969L50.2588 12.4413L49.6415 13.3961L48.3279 13.5032L48.5573 14.0379L48.3193 14.6862L46.982 15.3181L46.0718 15.3018L45.7746 15.5839L46.188 16.4745L46.019 17.5249L46.3262 17.8901L45.4159 18.6307L45.061 19.1535L43.5537 20.2381L42.9244 21.351L42.0919 21.8559L42.7576 22.1656L42.4282 22.6319L40.8317 23.9985L38.983 24.7658L38.4314 25.4619L38.3352 26.2015L37.4425 26.3249L36.9137 27.328L37.3268 28.4979L36.7774 29.081L35.9829 29.2365L35.4019 29.6174L34.458 31.1938L33.8859 31.5481L32.9637 31.5454L32.1801 32.0676L29.707 32.9501L29.4012 32.4947L28.6671 33.218L28.0682 34.1276L27.0482 34.9477L28.2236 37.0197L28.0628 39.1216L27.4351 40.1225L27.126 41.8136L27.9997 42.5016L27.2541 43.9519L26.5727 44.4078L25.6727 44.6616L25.5495 45.1751L24.8071 45.968L23.6807 46.719L21.531 47.7297L20.9518 48.5459L19.6785 49.712L18.7503 50.7337L15.7638 53.1736L15.1747 53.8952L16.1925 54.9027L15.9333 55.1032L14.4819 53.7936L12.887 52.2134L13.2995 51.22L14.8318 50.3017L15.0248 49.9126L13.6744 47.8177L14.7084 47.258L16.2328 45.918L17.7841 44.9898L17.871 44.2997L18.745 43.7677L17.771 42.0902L16.913 41.4294L16.6968 40.7866L15.3561 39.997L14.9812 39.4482L13.5119 38.6553L13.1592 39.1987L11.9273 39.0504L12.2691 38.1505L11.3431 37.9391L11.5524 37.3636L10.4607 36.0443L10.4139 35.4519L10.9987 34.6493L9.48029 33.8592L10.3421 33.0734L10.2156 32.4002L9.10102 31.9339L8.22011 31.8861L7.82293 31.1253L7.31548 31.3291L6.74965 30.8156L4.23377 30.1515L4.39131 28.9946L3.68552 28.7099L3.67457 29.5147L3.28652 29.9766L2.11058 30.2782L1.67692 29.9293L2.00312 28.9479L1.33414 28.336L1.72153 27.9997L2.38504 28.68L3.123 28.1241L2.94855 27.071L2.57309 26.2298L3.78916 25.1212L4.57771 23.428L4.05384 22.4259L4.15284 21.9444L3.29531 21.6548L3.01703 20.6462L2.33827 20.6337L2.03181 19.9127L1.4232 19.7806L0.788545 19.1807L0.758031 18.0835L0 16.737Z"/>
</mask>
<path d="M0 16.737L0.508616 16.4278L1.30578 16.8332L2.2003 16.1099L2.67027 16.0746L3.2099 15.2975L3.63709 15.4067L5.38731 14.6959L6.01666 13.9591L6.80354 13.6553L7.62128 13.0646L8.174 13.3249L8.51463 12.4163L9.84827 12.8201L10.3101 13.4314L10.9502 12.6935L11.9741 13.0815L12.5326 12.3375L14.0384 11.9055L14.3232 10.8562L15.2688 11.4784L15.4974 11.0763L14.8497 10.4313L15.6387 9.63518L15.8671 10.033L16.718 10.184L17.2598 9.78569L17.9896 8.61519L18.7737 7.85009L19.466 8.2223L20.5528 8.04625L20.8816 6.85999L21.4358 7.00889L21.6635 6.08726L22.2048 5.68188L22.264 4.42008L22.8645 4.72277L23.4547 3.59356L23.8514 3.65985L24.6631 3.20339L25.5658 3.51694L25.6217 3.04201L26.2646 2.71976L27.0226 3.06917L28.1578 3.28546L28.3702 4.22338L28.9218 4.07774L29.4277 3.5539L30.2781 4.12937L30.664 3.89841L32.2383 4.17991L32.6061 3.35337L32.3226 2.37362L32.5371 1.77261L33.0648 1.64272L33.6 2.27308L34.1587 2.36002L35.0155 1.96877L35.8155 0.771112L35.1358 0L36.2366 0.000559693L36.5829 0.664045L37.4457 1.04063L37.9201 0.622213L38.4314 0.876521L38.8314 1.53677L39.8715 1.93998L40.5045 1.25093L40.8546 0.512451L41.2024 1.31669L42.8406 1.258L43.6688 0.916197L44.3459 1.21615L44.8051 2.01278L44.9719 2.78279L45.4855 2.88333L46.1054 3.46587L46.0582 4.62605L45.5794 4.72495L45.387 3.91472L44.56 4.26739L45.0753 6.00086L45.3622 6.17476L45.7583 7.58L45.6898 9.06406L45.0323 9.11893L44.654 9.58518L44.7176 10.1487L43.67 10.8731L43.6488 11.9859L44.3796 11.6072L45.1605 11.8354L47.7759 11.3958L48.3949 10.8845L49.216 11.0475L49.7991 11.4969L50.2588 12.4413L49.6415 13.3961L48.3279 13.5032L48.5573 14.0379L48.3193 14.6862L46.982 15.3181L46.0718 15.3018L45.7746 15.5839L46.188 16.4745L46.019 17.5249L46.3262 17.8901L45.4159 18.6307L45.061 19.1535L43.5537 20.2381L42.9244 21.351L42.0919 21.8559L42.7576 22.1656L42.4282 22.6319L40.8317 23.9985L38.983 24.7658L38.4314 25.4619L38.3352 26.2015L37.4425 26.3249L36.9137 27.328L37.3268 28.4979L36.7774 29.081L35.9829 29.2365L35.4019 29.6174L34.458 31.1938L33.8859 31.5481L32.9637 31.5454L32.1801 32.0676L29.707 32.9501L29.4012 32.4947L28.6671 33.218L28.0682 34.1276L27.0482 34.9477L28.2236 37.0197L28.0628 39.1216L27.4351 40.1225L27.126 41.8136L27.9997 42.5016L27.2541 43.9519L26.5727 44.4078L25.6727 44.6616L25.5495 45.1751L24.8071 45.968L23.6807 46.719L21.531 47.7297L20.9518 48.5459L19.6785 49.712L18.7503 50.7337L15.7638 53.1736L15.1747 53.8952L16.1925 54.9027L15.9333 55.1032L14.4819 53.7936L12.887 52.2134L13.2995 51.22L14.8318 50.3017L15.0248 49.9126L13.6744 47.8177L14.7084 47.258L16.2328 45.918L17.7841 44.9898L17.871 44.2997L18.745 43.7677L17.771 42.0902L16.913 41.4294L16.6968 40.7866L15.3561 39.997L14.9812 39.4482L13.5119 38.6553L13.1592 39.1987L11.9273 39.0504L12.2691 38.1505L11.3431 37.9391L11.5524 37.3636L10.4607 36.0443L10.4139 35.4519L10.9987 34.6493L9.48029 33.8592L10.3421 33.0734L10.2156 32.4002L9.10102 31.9339L8.22011 31.8861L7.82293 31.1253L7.31548 31.3291L6.74965 30.8156L4.23377 30.1515L4.39131 28.9946L3.68552 28.7099L3.67457 29.5147L3.28652 29.9766L2.11058 30.2782L1.67692 29.9293L2.00312 28.9479L1.33414 28.336L1.72153 27.9997L2.38504 28.68L3.123 28.1241L2.94855 27.071L2.57309 26.2298L3.78916 25.1212L4.57771 23.428L4.05384 22.4259L4.15284 21.9444L3.29531 21.6548L3.01703 20.6462L2.33827 20.6337L2.03181 19.9127L1.4232 19.7806L0.788545 19.1807L0.758031 18.0835L0 16.737Z" fill="#F2F2F2" stroke="#07122B" mask="url(#path-1-inside-1_81_185)"/>
</svg>
