<svg width="44" height="64" viewBox="0 0 44 64" fill="none" xmlns="http://www.w3.org/2000/svg">
<mask id="path-1-inside-1_81_175" fill="white">
<path d="M5.68018 2.42359L5.98183 2.24536L7.81315 1.83563L7.80336 2.36763L8.57715 2.45349L10.3906 1.03139L11.5589 0.761327L12.5441 0L13.3565 0.0673912L13.7597 1.2694L15.0208 1.28298L15.7996 3.23057L17.1201 2.88333L17.4662 2.37362L18.0906 2.38883L17.7966 3.35065L17.8151 3.99405L17.471 5.01891L17.8749 5.26292L18.6025 4.71678L18.972 5.09119L19.5224 4.97816L20.231 6.62088L19.5942 6.62741L19.1904 6.97736L19.4849 8.53096L19.9659 9.01895L20.0904 9.80472L19.7594 10.2487L20.0551 10.6584L19.5627 12.2799L19.1121 12.7956L18.6949 13.8281L18.7889 14.4373L19.2839 14.4139L19.6095 13.6357L20.5947 13.5678L21.3098 13.8047L22.0244 14.7687L22.8215 14.8312L23.7426 14.6465L24.3772 15.1709L25.5515 14.7291L25.7701 15.4676L26.7726 15.7012L27.2346 16.1626L28.2258 15.6366L28.5566 15.1616L29.5962 14.2607L30.3161 13.3439L30.8156 13.5917L30.1607 15.6925L30.84 16.7772L30.7216 17.294L31.208 18.1672L30.6266 19.7235L30.8421 22.0107L30.7204 23.3356L30.3395 24.2642L30.5156 24.9288L30.1097 27.0215L30.7287 27.1943L30.4999 27.9225L29.9211 28.4099L30.7808 29.1049L32.5854 29.6652L33.4957 30.0646L33.3701 28.6528L34.4293 29.4603L34.5353 30.1717L35.4595 30.6939L36.0845 30.808L36.2621 31.472L36.8555 32.2991L37.7435 32.3132L39.3677 32.5632L40.1627 32.8457L40.8823 33.7728L41.9125 33.55L42.5559 33.2088L43.5031 33.5495V34.27L42.4809 34.9009L42.08 36.01L40.567 35.9117L39.5938 36.6866L38.3211 36.2372L37.6538 36.2388L37.0306 35.884L36.6132 36.2632L36.8328 38.2581L35.7802 39.565L35.1335 41.0442L35.0074 41.6718L35.684 42.2233L36.0421 42.0831L37.4495 43.6438L36.9984 43.9671L36.1122 43.99L35.7747 45.267L35.2628 45.7044L34.0451 45.1289L33.6272 45.2876L33.1136 44.817L32.0143 44.3372L30.6911 44.36L29.8619 44.1182L30.2629 45.3262L29.9352 45.68L30.1385 46.5967L31.3546 47.1064L30.4951 48.0536L30.102 47.7194L29.0191 47.3536L28.4442 47.8313L28.9093 48.3443L29.3435 49.5316L29.1506 50.7445L30.1662 50.8521L30.313 51.6069L30.7249 51.6047L31.2106 52.2797L32.2307 51.6037L32.8381 52.5514L34.9282 52.6209L35.2895 52.484L36.1795 52.797L35.7172 53.3638L36.0834 54.1424L36.4595 54.1832L36.3523 55.1586L36.8724 55.6602L37.8848 55.483L38.3254 55.9542L37.8054 56.5367L37.8278 57.2931L38.1772 57.6039L37.9483 58.7603L38.3374 59.57L37.9114 59.8406L37.2653 59.9455L36.7435 60.7628L36.86 61.1122L38.1793 61.2714L37.9918 62.0126L37.2001 62.0784L36.2845 61.9034L36.5888 61.0443L35.1988 59.789L34.1799 60.07L33.8207 60.8633L34.5451 61.5627L34.0069 62.0463L33.3179 61.9583L32.961 62.8332L31.8557 63.2902L31.4204 63.7021L29.6234 63.4124L29.1418 61.9773L28.4084 61.6861L27.4699 61.8219L27.159 61.5632L27.2639 60.5378L27.1905 59.3135L26.0956 58.6299L25.3271 59.1961L24.1947 58.8696L22.3514 57.7708L21.8776 57.7931L21.7962 58.6913L20.6202 58.6522L19.499 58.3332L18.5231 57.5399L18.9791 57.0263L18.9367 55.9439L18.4797 55.2635L19.21 54.7576L19.4231 53.8365L18.6558 53.6833L18.2601 54.4115L16.8533 55.2619L15.8333 55.0614L15.2741 53.8251L13.8194 54.4522L13.1874 54.9108L12.5419 54.9619L10.1488 56.3079L9.18908 56.0721L8.37284 56.3063L8.07334 56.8351L7.16971 57.3469L6.62627 57.9229L6.16558 57.7306L6.10903 56.4101L5.78897 55.8189L5.82429 54.5892L5.63292 54.0572L4.88417 53.2893L4.25383 52.9274L2.46331 52.9171L2.43827 53.1747L1.18141 53.1779L0.141291 52.7345L0 51.5917L0.123381 50.2783L0.550406 49.4746L0.6912 47.7014L1.11839 47.1357L1.68837 46.8733L1.98786 45.687L1.93181 44.8627L1.55089 44.2557L1.64226 43.1716L2.16813 42.1658L1.69931 41.687L1.66714 40.9594L2.33943 39.6824L3.47192 39.3243L3.44406 38.6233L4.90639 35.9138L4.74404 35.3699L4.95697 34.5162L4.61137 33.2631L4.27821 32.6289L4.13161 31.0829L4.47821 30.6596L4.22829 29.7011L5.02115 29.2413L5.47272 28.7088L5.52811 28.117L6.0422 27.5318L6.4737 27.4872L6.43506 26.3526L7.24964 26.0521L7.29193 25.4092L7.89142 24.3968L7.62293 23.6344L7.70071 23.0378L8.21032 22.602L8.81894 21.2114L8.44083 20.3175L7.86754 19.7561L7.5425 18.2319L7.02891 17.682L7.30768 16.8989L7.10337 16.08L7.88429 15.0801L7.60884 14.5834L6.94202 14.3894L6.65562 13.9536L6.72146 12.7886L5.78515 11.5692L5.8694 11.0801L6.7795 9.78351L6.2014 9.53246L5.96226 8.99395L6.09112 8.37228L5.82479 7.79737L6.1009 7.25777L5.74104 6.03562L5.7427 4.95969L6.03407 4.22771L6.00953 2.82518L5.68018 2.42359ZM8.20485 51.9112L9.17117 52.2764L8.65111 52.9556L9.01247 54.011L10.1357 53.7746L11.2013 54.1712L12.2789 54.3647L12.7413 53.5186L13.3494 52.991L13.3369 52.4916L13.8776 51.8547L14.0227 50.9858L15.0313 50.8918L15.6442 50.2386L15.2426 49.8881L14.7334 50.0354L14.3243 49.555L13.5874 49.4365L13.5097 48.8029L12.0224 47.4509L11.5202 48.0568L10.0101 48.6763L9.68459 49.248L9.64115 50.2946L8.20485 51.9112Z"/>
</mask>
<path d="M5.68018 2.42359L5.98183 2.24536L7.81315 1.83563L7.80336 2.36763L8.57715 2.45349L10.3906 1.03139L11.5589 0.761327L12.5441 0L13.3565 0.0673912L13.7597 1.2694L15.0208 1.28298L15.7996 3.23057L17.1201 2.88333L17.4662 2.37362L18.0906 2.38883L17.7966 3.35065L17.8151 3.99405L17.471 5.01891L17.8749 5.26292L18.6025 4.71678L18.972 5.09119L19.5224 4.97816L20.231 6.62088L19.5942 6.62741L19.1904 6.97736L19.4849 8.53096L19.9659 9.01895L20.0904 9.80472L19.7594 10.2487L20.0551 10.6584L19.5627 12.2799L19.1121 12.7956L18.6949 13.8281L18.7889 14.4373L19.2839 14.4139L19.6095 13.6357L20.5947 13.5678L21.3098 13.8047L22.0244 14.7687L22.8215 14.8312L23.7426 14.6465L24.3772 15.1709L25.5515 14.7291L25.7701 15.4676L26.7726 15.7012L27.2346 16.1626L28.2258 15.6366L28.5566 15.1616L29.5962 14.2607L30.3161 13.3439L30.8156 13.5917L30.1607 15.6925L30.84 16.7772L30.7216 17.294L31.208 18.1672L30.6266 19.7235L30.8421 22.0107L30.7204 23.3356L30.3395 24.2642L30.5156 24.9288L30.1097 27.0215L30.7287 27.1943L30.4999 27.9225L29.9211 28.4099L30.7808 29.1049L32.5854 29.6652L33.4957 30.0646L33.3701 28.6528L34.4293 29.4603L34.5353 30.1717L35.4595 30.6939L36.0845 30.808L36.2621 31.472L36.8555 32.2991L37.7435 32.3132L39.3677 32.5632L40.1627 32.8457L40.8823 33.7728L41.9125 33.55L42.5559 33.2088L43.5031 33.5495V34.27L42.4809 34.9009L42.08 36.01L40.567 35.9117L39.5938 36.6866L38.3211 36.2372L37.6538 36.2388L37.0306 35.884L36.6132 36.2632L36.8328 38.2581L35.7802 39.565L35.1335 41.0442L35.0074 41.6718L35.684 42.2233L36.0421 42.0831L37.4495 43.6438L36.9984 43.9671L36.1122 43.99L35.7747 45.267L35.2628 45.7044L34.0451 45.1289L33.6272 45.2876L33.1136 44.817L32.0143 44.3372L30.6911 44.36L29.8619 44.1182L30.2629 45.3262L29.9352 45.68L30.1385 46.5967L31.3546 47.1064L30.4951 48.0536L30.102 47.7194L29.0191 47.3536L28.4442 47.8313L28.9093 48.3443L29.3435 49.5316L29.1506 50.7445L30.1662 50.8521L30.313 51.6069L30.7249 51.6047L31.2106 52.2797L32.2307 51.6037L32.8381 52.5514L34.9282 52.6209L35.2895 52.484L36.1795 52.797L35.7172 53.3638L36.0834 54.1424L36.4595 54.1832L36.3523 55.1586L36.8724 55.6602L37.8848 55.483L38.3254 55.9542L37.8054 56.5367L37.8278 57.2931L38.1772 57.6039L37.9483 58.7603L38.3374 59.57L37.9114 59.8406L37.2653 59.9455L36.7435 60.7628L36.86 61.1122L38.1793 61.2714L37.9918 62.0126L37.2001 62.0784L36.2845 61.9034L36.5888 61.0443L35.1988 59.789L34.1799 60.07L33.8207 60.8633L34.5451 61.5627L34.0069 62.0463L33.3179 61.9583L32.961 62.8332L31.8557 63.2902L31.4204 63.7021L29.6234 63.4124L29.1418 61.9773L28.4084 61.6861L27.4699 61.8219L27.159 61.5632L27.2639 60.5378L27.1905 59.3135L26.0956 58.6299L25.3271 59.1961L24.1947 58.8696L22.3514 57.7708L21.8776 57.7931L21.7962 58.6913L20.6202 58.6522L19.499 58.3332L18.5231 57.5399L18.9791 57.0263L18.9367 55.9439L18.4797 55.2635L19.21 54.7576L19.4231 53.8365L18.6558 53.6833L18.2601 54.4115L16.8533 55.2619L15.8333 55.0614L15.2741 53.8251L13.8194 54.4522L13.1874 54.9108L12.5419 54.9619L10.1488 56.3079L9.18908 56.0721L8.37284 56.3063L8.07334 56.8351L7.16971 57.3469L6.62627 57.9229L6.16558 57.7306L6.10903 56.4101L5.78897 55.8189L5.82429 54.5892L5.63292 54.0572L4.88417 53.2893L4.25383 52.9274L2.46331 52.9171L2.43827 53.1747L1.18141 53.1779L0.141291 52.7345L0 51.5917L0.123381 50.2783L0.550406 49.4746L0.6912 47.7014L1.11839 47.1357L1.68837 46.8733L1.98786 45.687L1.93181 44.8627L1.55089 44.2557L1.64226 43.1716L2.16813 42.1658L1.69931 41.687L1.66714 40.9594L2.33943 39.6824L3.47192 39.3243L3.44406 38.6233L4.90639 35.9138L4.74404 35.3699L4.95697 34.5162L4.61137 33.2631L4.27821 32.6289L4.13161 31.0829L4.47821 30.6596L4.22829 29.7011L5.02115 29.2413L5.47272 28.7088L5.52811 28.117L6.0422 27.5318L6.4737 27.4872L6.43506 26.3526L7.24964 26.0521L7.29193 25.4092L7.89142 24.3968L7.62293 23.6344L7.70071 23.0378L8.21032 22.602L8.81894 21.2114L8.44083 20.3175L7.86754 19.7561L7.5425 18.2319L7.02891 17.682L7.30768 16.8989L7.10337 16.08L7.88429 15.0801L7.60884 14.5834L6.94202 14.3894L6.65562 13.9536L6.72146 12.7886L5.78515 11.5692L5.8694 11.0801L6.7795 9.78351L6.2014 9.53246L5.96226 8.99395L6.09112 8.37228L5.82479 7.79737L6.1009 7.25777L5.74104 6.03562L5.7427 4.95969L6.03407 4.22771L6.00953 2.82518L5.68018 2.42359ZM8.20485 51.9112L9.17117 52.2764L8.65111 52.9556L9.01247 54.011L10.1357 53.7746L11.2013 54.1712L12.2789 54.3647L12.7413 53.5186L13.3494 52.991L13.3369 52.4916L13.8776 51.8547L14.0227 50.9858L15.0313 50.8918L15.6442 50.2386L15.2426 49.8881L14.7334 50.0354L14.3243 49.555L13.5874 49.4365L13.5097 48.8029L12.0224 47.4509L11.5202 48.0568L10.0101 48.6763L9.68459 49.248L9.64115 50.2946L8.20485 51.9112Z" fill="#F2F2F2" stroke="#07122B" mask="url(#path-1-inside-1_81_175)"/>
</svg>
