<svg width="56" height="47" viewBox="0 0 56 47" fill="none" xmlns="http://www.w3.org/2000/svg">
<mask id="path-1-inside-1_81_163" fill="white">
<path d="M0 3.11589L1.71606 2.84311L2.45403 2.49369L3.68701 2.13124L4.76825 1.63185L7.02626 0.127693L7.50552 0L8.43901 0.388531L10.0703 2.47522L10.724 3.03276L11.4887 3.17404L12.537 2.71813L12.7103 3.24088L13.4069 3.92829L13.0194 4.30868L13.5781 4.71352L14.5203 4.44562L15.0648 4.67276L15.5142 4.15653L18.4584 3.82504L19.1909 4.8434L19.6702 5.13249L21.2721 5.28898L21.6602 6.13888L22.9084 5.63459L22.8851 6.35515L23.1481 7.14146L23.0099 8.31197L22.2068 7.92886L20.7597 8.2185L20.1077 8.80211L20.8494 9.01677L21.9526 9.67592L21.9819 10.359L23.3219 9.69657L23.6632 9.16403L24.1947 10.8062L24.6847 11.198L24.9961 11.9794L26.4497 13.1505L27.3002 12.6706L28.2664 12.7886L27.8676 11.9767L28.4772 11.7865L27.7001 10.6003L29.1466 9.92588L30.8997 9.90415L30.9009 9.06024L31.8605 8.10655L32.6909 7.98157L33.3152 7.56097L35.9719 7.85007L36.5023 6.74315L36.4593 5.78621L36.749 5.09173L37.2913 5.07434L37.5032 3.70984L37.3462 3.18274L38.2966 3.06644L38.6682 2.08886L40.4415 1.9981L40.6463 1.61663L41.8189 1.64326L42.477 1.96658L43.4958 1.89215L44.23 2.18015L44.4996 2.64204L45.4467 2.42468L47.1916 2.50891L48.2258 4.13914L49.1027 3.95111L49.981 4.77166L50.5531 4.41519L51.6834 4.66569L52.2611 4.27825L53.1272 4.54561L52.8556 5.33463L53.8343 6.47144L53.9463 7.45066L54.4793 8.34674L54.2206 9.56072L54.532 10.5084L55.5144 12.0555L55.0411 13.0831L54.2136 13.1738L54.1408 12.5342L53.0811 12.1462L52.1317 12.4728L51.7078 13.5531L51.9085 14.2873L50.7228 15.7425L50.8732 16.0827L50.4906 17.4206L50.2505 18.8497L50.0156 19.2192L50.0082 20.1045L49.1614 21.1619L48.7067 22.0814L48.9284 22.527L48.3905 22.9987L48.191 22.6905L47.0596 22.9807L46.5217 23.4785L45.8582 23.2345L45.1305 23.4937L43.8894 24.4762L43.0726 23.9512L42.4357 24.3702L42.8302 25.4402L42.8226 25.9113L43.523 26.4275L43.6524 27.3133L42.9502 27.9942L43.5856 28.4621L44.7942 28.7512L44.0715 29.3582L44.4116 30.0303L44.4252 30.6841L42.9378 30.8759L42.5776 31.8915L42.8803 32.1692L42.9373 32.9811L43.3209 33.1202L42.9323 34.5151L41.5821 35.1493L40.9201 35.1596L40.2888 36.0171L39.1546 36.9822L39.0671 37.6745L39.7654 38.8461L39.3921 39.4824L38.5009 40.1774L38.0167 40.8034L36.8679 40.3698L35.929 40.673L34.9752 40.2801L34.164 40.41L34.165 40.9398L32.8527 40.0981L31.8768 40.2301L31.4887 39.9595L31.5052 39.3737L30.2715 39.4525L30.4758 40.2236L30.315 41.1159L29.8743 41.4707L29.1967 41.0039L28.5223 41.4555L28.3077 40.8534L26.5649 42.588L25.6014 42.745L25.0792 42.5026L24.5207 42.7396L24.2963 43.2319L23.0409 43.665L22.2356 43.5906L21.8982 43.0357L21.2645 43.409L20.8304 44.5263L20.9299 44.8594L20.0697 45.3664L19.579 45.2507L19.1637 45.8028L18.2845 45.5892L17.9243 46.0375L17.4123 45.8506L17.1488 45.2816L17.3314 44.3584L16.8276 43.9438L16.0648 43.9992L16.4462 43.2422L17.0672 43.0384L17.5596 41.9848L16.6842 40.7719L17.076 40.404L16.3483 39.8943L15.9658 39.3411L14.4829 38.9471L13.6074 38.0456L12.7847 37.6734L12.0081 36.9191L11.4816 36.7637L12.1315 35.784L11.536 35.6041L11.3555 34.4472L10.8099 34.5118L10.3899 33.3408L9.40035 34.4298L8.26737 34.051L7.31962 34.1771L6.52627 33.688L5.88017 33.9206L4.58036 33.7261L4.61121 33.0631L4.03858 32.9561L3.33378 32.4105L3.47988 31.459L4.29993 30.1608L5.00639 29.1152L4.82762 28.4865L5.08185 27.0938L5.5427 26.5362L5.39113 25.976L4.84387 25.5489L3.456 25.4271L3.21902 24.9006L2.61256 24.4387L3.04407 24.0007L3.0696 23.3481L3.49845 22.99L4.48899 23.2285L4.52431 22.7688L3.79563 22.4851L3.77772 21.8086L4.18468 20.4963L4.79877 19.9279L4.81452 19.1079L3.47607 18.8992L3.59232 17.3499L3.36313 16.9549L3.64024 15.586L3.00012 15.1339L2.54955 15.1676L1.55072 14.3818L0.850401 13.22L1.60893 13.1619L3.22018 12.3946L3.22333 11.2692L2.42849 10.6263L1.64326 10.9236L1.10197 11.63L0.532496 11.1812L0.987879 10.6497L0.674285 10.0058L0.0835808 9.63245L0.618896 9.19012L1.07212 8.25273L0.342283 6.97192L0.223214 6.19376L0.486891 5.54439L0.0255386 4.22608L0 3.11589Z"/>
</mask>
<path d="M0 3.11589L1.71606 2.84311L2.45403 2.49369L3.68701 2.13124L4.76825 1.63185L7.02626 0.127693L7.50552 0L8.43901 0.388531L10.0703 2.47522L10.724 3.03276L11.4887 3.17404L12.537 2.71813L12.7103 3.24088L13.4069 3.92829L13.0194 4.30868L13.5781 4.71352L14.5203 4.44562L15.0648 4.67276L15.5142 4.15653L18.4584 3.82504L19.1909 4.8434L19.6702 5.13249L21.2721 5.28898L21.6602 6.13888L22.9084 5.63459L22.8851 6.35515L23.1481 7.14146L23.0099 8.31197L22.2068 7.92886L20.7597 8.2185L20.1077 8.80211L20.8494 9.01677L21.9526 9.67592L21.9819 10.359L23.3219 9.69657L23.6632 9.16403L24.1947 10.8062L24.6847 11.198L24.9961 11.9794L26.4497 13.1505L27.3002 12.6706L28.2664 12.7886L27.8676 11.9767L28.4772 11.7865L27.7001 10.6003L29.1466 9.92588L30.8997 9.90415L30.9009 9.06024L31.8605 8.10655L32.6909 7.98157L33.3152 7.56097L35.9719 7.85007L36.5023 6.74315L36.4593 5.78621L36.749 5.09173L37.2913 5.07434L37.5032 3.70984L37.3462 3.18274L38.2966 3.06644L38.6682 2.08886L40.4415 1.9981L40.6463 1.61663L41.8189 1.64326L42.477 1.96658L43.4958 1.89215L44.23 2.18015L44.4996 2.64204L45.4467 2.42468L47.1916 2.50891L48.2258 4.13914L49.1027 3.95111L49.981 4.77166L50.5531 4.41519L51.6834 4.66569L52.2611 4.27825L53.1272 4.54561L52.8556 5.33463L53.8343 6.47144L53.9463 7.45066L54.4793 8.34674L54.2206 9.56072L54.532 10.5084L55.5144 12.0555L55.0411 13.0831L54.2136 13.1738L54.1408 12.5342L53.0811 12.1462L52.1317 12.4728L51.7078 13.5531L51.9085 14.2873L50.7228 15.7425L50.8732 16.0827L50.4906 17.4206L50.2505 18.8497L50.0156 19.2192L50.0082 20.1045L49.1614 21.1619L48.7067 22.0814L48.9284 22.527L48.3905 22.9987L48.191 22.6905L47.0596 22.9807L46.5217 23.4785L45.8582 23.2345L45.1305 23.4937L43.8894 24.4762L43.0726 23.9512L42.4357 24.3702L42.8302 25.4402L42.8226 25.9113L43.523 26.4275L43.6524 27.3133L42.9502 27.9942L43.5856 28.4621L44.7942 28.7512L44.0715 29.3582L44.4116 30.0303L44.4252 30.6841L42.9378 30.8759L42.5776 31.8915L42.8803 32.1692L42.9373 32.9811L43.3209 33.1202L42.9323 34.5151L41.5821 35.1493L40.9201 35.1596L40.2888 36.0171L39.1546 36.9822L39.0671 37.6745L39.7654 38.8461L39.3921 39.4824L38.5009 40.1774L38.0167 40.8034L36.8679 40.3698L35.929 40.673L34.9752 40.2801L34.164 40.41L34.165 40.9398L32.8527 40.0981L31.8768 40.2301L31.4887 39.9595L31.5052 39.3737L30.2715 39.4525L30.4758 40.2236L30.315 41.1159L29.8743 41.4707L29.1967 41.0039L28.5223 41.4555L28.3077 40.8534L26.5649 42.588L25.6014 42.745L25.0792 42.5026L24.5207 42.7396L24.2963 43.2319L23.0409 43.665L22.2356 43.5906L21.8982 43.0357L21.2645 43.409L20.8304 44.5263L20.9299 44.8594L20.0697 45.3664L19.579 45.2507L19.1637 45.8028L18.2845 45.5892L17.9243 46.0375L17.4123 45.8506L17.1488 45.2816L17.3314 44.3584L16.8276 43.9438L16.0648 43.9992L16.4462 43.2422L17.0672 43.0384L17.5596 41.9848L16.6842 40.7719L17.076 40.404L16.3483 39.8943L15.9658 39.3411L14.4829 38.9471L13.6074 38.0456L12.7847 37.6734L12.0081 36.9191L11.4816 36.7637L12.1315 35.784L11.536 35.6041L11.3555 34.4472L10.8099 34.5118L10.3899 33.3408L9.40035 34.4298L8.26737 34.051L7.31962 34.1771L6.52627 33.688L5.88017 33.9206L4.58036 33.7261L4.61121 33.0631L4.03858 32.9561L3.33378 32.4105L3.47988 31.459L4.29993 30.1608L5.00639 29.1152L4.82762 28.4865L5.08185 27.0938L5.5427 26.5362L5.39113 25.976L4.84387 25.5489L3.456 25.4271L3.21902 24.9006L2.61256 24.4387L3.04407 24.0007L3.0696 23.3481L3.49845 22.99L4.48899 23.2285L4.52431 22.7688L3.79563 22.4851L3.77772 21.8086L4.18468 20.4963L4.79877 19.9279L4.81452 19.1079L3.47607 18.8992L3.59232 17.3499L3.36313 16.9549L3.64024 15.586L3.00012 15.1339L2.54955 15.1676L1.55072 14.3818L0.850401 13.22L1.60893 13.1619L3.22018 12.3946L3.22333 11.2692L2.42849 10.6263L1.64326 10.9236L1.10197 11.63L0.532496 11.1812L0.987879 10.6497L0.674285 10.0058L0.0835808 9.63245L0.618896 9.19012L1.07212 8.25273L0.342283 6.97192L0.223214 6.19376L0.486891 5.54439L0.0255386 4.22608L0 3.11589Z" fill="#F2F2F2" stroke="#07122B" mask="url(#path-1-inside-1_81_163)"/>
</svg>
