<svg width="46" height="55" viewBox="0 0 46 55" fill="none" xmlns="http://www.w3.org/2000/svg">
<mask id="path-1-inside-1_81_164" fill="white">
<path d="M1.74276 15.1187L2.15801 14.5666L2.64872 14.6823L3.5089 14.1753L3.4094 13.8422L3.84356 12.725L4.47721 12.3517L4.81469 12.9065L5.61998 12.9809L6.87535 12.5478L7.09972 12.0555L7.65826 11.8186L8.18047 12.0609L9.14397 11.9039L10.8867 10.1693L11.1013 10.7714L11.7758 10.3199L12.4534 10.7866L12.894 10.4318L13.0549 9.53953L12.8505 8.76843L14.0842 8.68964L14.0678 9.27543L14.4558 9.54605L15.4318 9.414L16.744 10.2557L16.743 9.72592L17.5543 9.59604L18.508 9.98892L19.447 9.6857L20.5957 10.1193L21.0799 9.49333L21.9711 8.79832L22.3444 8.16199L21.6461 6.9904L21.7337 6.2981L22.8678 5.33301L23.4991 4.47551L24.1612 4.46519L25.5114 3.83103L25.8999 2.4361L25.5164 2.29699L25.4593 1.48513L25.1567 1.20745L25.5169 0.19183L27.0042 0L27.2243 0.756425L28.3671 1.03682L28.3687 1.98236L29.1947 2.99038L28.7067 3.93428L29.1251 4.32988L30.0549 4.5217L29.8087 5.40582L30.3151 7.07463L29.7936 7.62021L29.7304 8.4125L30.1896 9.37325L30.0413 10.0351L30.9455 10.1041L31.6199 10.8073L30.6836 12.3386L29.8544 13.3716L30.3092 13.8982L31.0722 14.0873L30.6798 15.266L31.4211 16.3006L32.5247 16.9418L32.667 17.8102L32.9832 18.1357L34.8656 18.2525L35.0119 18.7498L34.3995 19.9077L35.3243 20.5984L36.4595 20.5261L36.9029 21.4222L37.5469 21.6439L37.1013 23.122L37.4719 25.187L38.1337 26.1651L38.0571 26.5308L39.1923 26.4526L39.7976 27.6138L40.6312 27.9882L41.8523 28.0534L42.469 27.5328L42.5093 26.99L43.0146 27.9219L43.1955 28.7658L42.6489 29.4902L43.3026 29.8608L44.5411 30.2216L44.5084 31.2916L44.7943 31.9497L44.39 32.6409L44.2187 33.4473L44.7313 34.1668L44.6101 34.7107L43.8786 35.2683L44.3743 36.3899L45.1512 36.4752L44.8079 37.7294L44.1139 38.1907L44.0096 40.0323L44.6215 41.0599L44.0585 42.7461L42.6196 42.6945L41.8212 43.8905L42.4494 44.2443L42.1642 45.1925L41.7697 45.0762L41.1186 46.9314L40.4116 47.0711L40.435 47.7069L39.4271 47.8661L38.4875 47.6444L37.9397 48.0905L37.2707 48.0394L36.3399 48.7279L35.2515 48.4247L35.0205 48.6649L33.9217 48.0242L33.5479 48.6915L32.6937 48.1014L31.8937 48.5812L31.5232 48.447L31.4221 49.6572L30.5397 49.9419L30.4266 50.632L29.4044 50.3223L28.6258 49.8686L28.3904 50.2098L27.4019 50.7771L27.6112 51.6689L27.6916 53.2822L26.7226 53.0132L26.25 52.4535L25.3963 51.8846L24.7104 51.6596L24.5127 52.3639L24.6457 53.5925L23.759 53.9859L22.7341 53.3675L22.1602 54.8472L21.1969 54.6576L19.9116 54.8489L19.5644 54.0658L18.1982 54.3522L18.0433 53.7555L17.2647 53.4773L15.9936 53.5702L15.6177 53.1132L15.4301 52.1856L14.8074 51.9732L14.4878 51.3292L14.6417 50.751L13.8281 50.7309L13.0451 50.3332L12.7985 49.4246L12.4424 48.9958L12.6587 47.8672L11.1312 48.1503L10.8366 47.5379L9.28477 47.4846L8.83917 47.7395L8.20601 46.9879L8.67018 46.4962L10.2216 45.8104L9.95209 45.0632L8.94082 45.004L7.83056 45.7191L6.879 46.8255L6.4732 46.1516L5.48582 46.5413L4.55814 46.6902L3.96743 46.2717L2.66596 46.6374L3.18768 45.5441L3.091 44.9387L5.19063 44.811L5.25863 44.0992L4.42182 43.5378L3.37358 43.0716L2.75949 43.227L2.23081 42.8602L1.08307 41.5647L1.36134 40.9724L2.26779 40.5089L1.21839 38.7912L0.633655 37.3424L0.91574 36.1345L0 34.9966L0.00447754 34.5292L0.613092 33.5038L1.81241 32.9995L2.11887 33.3522L4.14786 32.6648L4.84951 31.6426L5.17173 31.8404L6.29824 30.3281L6.6921 30.2396L6.49542 29.1864L7.65013 28.0436L6.98066 27.8268L6.28183 26.834L6.15961 25.9972L6.82742 25.7238L6.88016 24.3615L7.32692 23.3117L6.78563 23.1888L5.66509 22.5368L6.26392 21.8004L4.60009 20.631L3.7094 20.5897L3.09266 20.1039L2.86662 18.747L1.77709 18.2362L2.13396 17.3738L2.0678 16.3702L1.55586 15.6534L1.74276 15.1187Z"/>
</mask>
<path d="M1.74276 15.1187L2.15801 14.5666L2.64872 14.6823L3.5089 14.1753L3.4094 13.8422L3.84356 12.725L4.47721 12.3517L4.81469 12.9065L5.61998 12.9809L6.87535 12.5478L7.09972 12.0555L7.65826 11.8186L8.18047 12.0609L9.14397 11.9039L10.8867 10.1693L11.1013 10.7714L11.7758 10.3199L12.4534 10.7866L12.894 10.4318L13.0549 9.53953L12.8505 8.76843L14.0842 8.68964L14.0678 9.27543L14.4558 9.54605L15.4318 9.414L16.744 10.2557L16.743 9.72592L17.5543 9.59604L18.508 9.98892L19.447 9.6857L20.5957 10.1193L21.0799 9.49333L21.9711 8.79832L22.3444 8.16199L21.6461 6.9904L21.7337 6.2981L22.8678 5.33301L23.4991 4.47551L24.1612 4.46519L25.5114 3.83103L25.8999 2.4361L25.5164 2.29699L25.4593 1.48513L25.1567 1.20745L25.5169 0.19183L27.0042 0L27.2243 0.756425L28.3671 1.03682L28.3687 1.98236L29.1947 2.99038L28.7067 3.93428L29.1251 4.32988L30.0549 4.5217L29.8087 5.40582L30.3151 7.07463L29.7936 7.62021L29.7304 8.4125L30.1896 9.37325L30.0413 10.0351L30.9455 10.1041L31.6199 10.8073L30.6836 12.3386L29.8544 13.3716L30.3092 13.8982L31.0722 14.0873L30.6798 15.266L31.4211 16.3006L32.5247 16.9418L32.667 17.8102L32.9832 18.1357L34.8656 18.2525L35.0119 18.7498L34.3995 19.9077L35.3243 20.5984L36.4595 20.5261L36.9029 21.4222L37.5469 21.6439L37.1013 23.122L37.4719 25.187L38.1337 26.1651L38.0571 26.5308L39.1923 26.4526L39.7976 27.6138L40.6312 27.9882L41.8523 28.0534L42.469 27.5328L42.5093 26.99L43.0146 27.9219L43.1955 28.7658L42.6489 29.4902L43.3026 29.8608L44.5411 30.2216L44.5084 31.2916L44.7943 31.9497L44.39 32.6409L44.2187 33.4473L44.7313 34.1668L44.6101 34.7107L43.8786 35.2683L44.3743 36.3899L45.1512 36.4752L44.8079 37.7294L44.1139 38.1907L44.0096 40.0323L44.6215 41.0599L44.0585 42.7461L42.6196 42.6945L41.8212 43.8905L42.4494 44.2443L42.1642 45.1925L41.7697 45.0762L41.1186 46.9314L40.4116 47.0711L40.435 47.7069L39.4271 47.8661L38.4875 47.6444L37.9397 48.0905L37.2707 48.0394L36.3399 48.7279L35.2515 48.4247L35.0205 48.6649L33.9217 48.0242L33.5479 48.6915L32.6937 48.1014L31.8937 48.5812L31.5232 48.447L31.4221 49.6572L30.5397 49.9419L30.4266 50.632L29.4044 50.3223L28.6258 49.8686L28.3904 50.2098L27.4019 50.7771L27.6112 51.6689L27.6916 53.2822L26.7226 53.0132L26.25 52.4535L25.3963 51.8846L24.7104 51.6596L24.5127 52.3639L24.6457 53.5925L23.759 53.9859L22.7341 53.3675L22.1602 54.8472L21.1969 54.6576L19.9116 54.8489L19.5644 54.0658L18.1982 54.3522L18.0433 53.7555L17.2647 53.4773L15.9936 53.5702L15.6177 53.1132L15.4301 52.1856L14.8074 51.9732L14.4878 51.3292L14.6417 50.751L13.8281 50.7309L13.0451 50.3332L12.7985 49.4246L12.4424 48.9958L12.6587 47.8672L11.1312 48.1503L10.8366 47.5379L9.28477 47.4846L8.83917 47.7395L8.20601 46.9879L8.67018 46.4962L10.2216 45.8104L9.95209 45.0632L8.94082 45.004L7.83056 45.7191L6.879 46.8255L6.4732 46.1516L5.48582 46.5413L4.55814 46.6902L3.96743 46.2717L2.66596 46.6374L3.18768 45.5441L3.091 44.9387L5.19063 44.811L5.25863 44.0992L4.42182 43.5378L3.37358 43.0716L2.75949 43.227L2.23081 42.8602L1.08307 41.5647L1.36134 40.9724L2.26779 40.5089L1.21839 38.7912L0.633655 37.3424L0.91574 36.1345L0 34.9966L0.00447754 34.5292L0.613092 33.5038L1.81241 32.9995L2.11887 33.3522L4.14786 32.6648L4.84951 31.6426L5.17173 31.8404L6.29824 30.3281L6.6921 30.2396L6.49542 29.1864L7.65013 28.0436L6.98066 27.8268L6.28183 26.834L6.15961 25.9972L6.82742 25.7238L6.88016 24.3615L7.32692 23.3117L6.78563 23.1888L5.66509 22.5368L6.26392 21.8004L4.60009 20.631L3.7094 20.5897L3.09266 20.1039L2.86662 18.747L1.77709 18.2362L2.13396 17.3738L2.0678 16.3702L1.55586 15.6534L1.74276 15.1187Z" fill="#F2F2F2" stroke="#07122B" mask="url(#path-1-inside-1_81_164)"/>
</svg>
