<svg width="65" height="54" viewBox="0 0 65 54" fill="none" xmlns="http://www.w3.org/2000/svg">
<mask id="path-1-inside-1_81_165" fill="white">
<path d="M54.6196 3.54628L54.3832 3.93427L54.9864 6.27255L55.6623 7.40828L56.1509 7.3985L57.2247 7.81964L57.4008 8.28208L57.0568 9.38465L57.9077 9.38411L58.5397 10.1487L58.324 10.8317L57.3915 12.1723L56.6623 12.6082L57.0676 14.4242L58.418 15.5768L57.4459 16.1088L56.7927 16.7533L56.8573 17.6982L56.559 18.7008L57.217 18.9704L58.4163 19.1328L58.3066 19.8686L58.3898 21.5146L59.0483 22.7541L59.0939 24.2659L59.782 24.5077L59.5755 24.9473L59.5749 25.9629L59.1663 25.9852L58.9543 26.6612L58.4328 26.7357L58.3631 27.4736L59.0337 28.6707L59.7319 28.8957L59.7646 29.6538L58.8533 29.394L58.1072 29.8407L57.2366 30.2847L55.6754 30.8232L54.3267 31.6943L53.3187 31.7617L52.5937 32.1969L52.3622 32.8865L52.5013 33.4022L51.8423 33.8885L52.2443 34.8373L53.0572 34.7205L53.0221 36.4795L54.0687 36.8311L54.0169 37.4783L54.5267 38.4358L54.5131 39.064L55.0353 39.7416L55.3678 40.9327L56.1129 41.1094L56.9416 40.6116L57.3237 40.9164L57.879 40.5545L59.3662 40.7257L59.7059 41.3501L60.8047 41.4675L61.2009 42.7651L63.3957 41.8843L64.0542 41.9109L64.4781 42.4641L64.132 43.1183L64.6743 44.1579L63.8347 45.0588L64.132 47.0439L63.3048 47.2961L62.273 47.9101L62.3599 48.5644L62.0534 49.0806L61.4198 49.1398L61.072 49.6197L60.0536 49.3322L59.6978 48.8931L59.0135 49.1431L59.1147 50.2L59.6793 50.6136L59.3142 52.1335L59.3261 52.9019L59.0087 53.1159L57.8144 52.7481L57.5301 52.9056L56.4927 52.6334L56.1922 52.779L54.4773 52.1009L53.7866 52.3361L53.2828 51.8552L51.864 50.8858L50.8521 51.6167L48.0568 51.2542L47.6923 51.5205L45.9887 49.2556L45.6452 47.8405L44.6139 46.7135L43.5466 45.7669L42.6962 45.9739L42.4668 46.5711L42.6707 47.6819L42.9575 48.1639L41.0926 48.3714L40.5737 48.6633L39.5954 47.8482L38.4283 47.6661L37.7626 46.8727L37.7822 46.469L36.6132 44.904L36.7013 45.7587L37.5996 46.5771L37.8822 47.3113L36.0921 48.3812L35.7351 46.9847L34.9363 46.9651L34.8754 48.0726L35.6182 49.2154L36.096 49.1659L36.0394 50.3929L34.9602 51.3596L34.5217 51.1271L33.8245 51.5488L32.1987 51.6357L31.3683 51.5069L31.1101 51.1336L30.2027 51.2401L29.3898 51.1238L28.5491 51.3395L28.3301 50.4636L27.9926 50.0337L29.2795 49.2784L29.3055 48.685L28.68 46.2158L27.79 44.1508L27.0319 43.3031L26.6384 42.376L25.4625 41.1577L24.4996 40.8572L23.5801 39.9894L22.5552 39.7574L22.2482 39.4465L21.5874 39.5835L21.4728 40.0899L20.5332 39.8362L20.0186 39.2672L19.1378 39.133L17.613 38.639L16.3638 38.6716L15.8702 38.263L15.279 38.2733L14.8671 37.8826L16.0182 37.6207L15.6628 36.6241L17.1001 36.7355L17.6374 36.2937L18.4407 36.4051L19.4073 36.2203L20.6246 35.5573L21.6934 35.8714L22.2325 35.1433L24.0481 35.3259L24.5061 34.8227L25.4631 34.6537L26.0973 34.7504L27.0749 34.3754L28.7153 34.0798L30.2103 35.0085L30.7466 35.1895L31.496 34.4048L31.728 33.5685L31.5426 33.1321L32.0899 32.6827L31.9405 31.4981L31.1867 31.3574L31.328 30.3537L30.8586 29.2549L29.8206 28.6995L28.4845 28.7718L28.1425 28.0246L27.3167 27.9486L25.0266 26.9172L23.7008 27.2231L23.8426 27.9165L23.0834 28.7582L22.9612 29.5109L22.1613 30.1206L21.7532 30.0907L21.6647 28.4257L21.263 27.3111L21.9227 26.6846L21.5272 25.9005L20.1088 26.1923L19.2823 25.7135L19.6947 24.2898L20.1606 24.8756L21.0663 24.499L21.2 24.1615L20.7083 22.4971L20.7756 22.1075L21.5924 21.4005L22.4569 21.3282L21.9738 22.1591L21.6701 23.8029L22.3141 24.4044L23.1041 23.7958L23.5225 24.562L24.0937 24.4566L25.149 23.9056L26.345 24.011L27.0167 24.8631L27.9661 24.8886L28.6561 24.6984L29.0425 24.3028L29.6402 24.2979L30.7037 23.6736L31.9775 23.7203L31.5003 24.4593L32.3768 24.6631L33.6322 23.7078L32.0557 23.0736L31.671 22.7422L29.8175 22.7248L30.7015 21.4342L28.5583 21.0473L28.3714 22.0102L26.6847 22.1738L26.6183 21.7021L25.5255 22.1417L25.4565 21.4907L26.1885 19.9251L26.6341 19.7203L27.4041 18.7997L26.6188 18.2085L26.0178 18.8932L24.8359 19.0323L24.4757 18.9084L23.6051 19.1997L22.2396 20.3452L20.4914 20.8641L19.6262 21.4152L18.9133 21.4369L18.4335 21.0065L16.9832 20.4267L16.2273 20.7745L15.8941 21.8167L13.694 21.9423L13.4837 21.5097L13.6835 20.8723L13.4184 20.1414L14.0021 19.5458L13.9592 18.9024L13.4532 18.521L13.1957 17.7238L12.7484 17.1505L13.0527 16.5919L13.3277 15.1589L14.0766 14.0634L13.7587 13.7412L13.4162 12.6217L14.0482 11.2485L14.0217 10.704L14.4227 9.97208L15.4459 9.11513L15.9528 9.32379L16.5142 8.53531L18.4352 8.3424L18.7085 8.12503L19.4916 8.36251L19.8164 7.5751L19.6415 7.03224L20.0067 6.39211L20.5957 7.16211L21.3103 6.93171L21.1179 6.35027L21.3196 5.61558L22.089 5.48353L23.2579 5.02L23.3948 5.60145L24.4089 5.51341L25.1452 5.20748L25.7658 4.62222L26.0178 3.92993L27.309 3.75114L29.1578 2.57739L29.9234 2.48174L31.1552 3.22947L30.5559 4.5744L31.5493 4.5217L31.9199 4.10381L33.4778 4.12392L34.062 3.693L34.188 3.04526L35.2976 1.9867L35.6965 2.06278L36.5562 1.68783L37.8153 1.52807L39.935 1.85954L40.152 0.989547L40.7307 0.624379L42.0382 0.622741L42.8075 0L43.3623 0.0163036L42.9473 1.30309L43.1592 2.02365L43.8318 3.30935L44.565 3.64789L44.9557 2.64911L45.6371 3.23708L45.5572 3.58975L45.993 4.42551L47.7623 5.3254L47.045 2.87517L47.8954 0.964009L49.4752 0.547753L50.0289 1.20691L50.6967 0.737945L52.2808 0.91401L53.0209 1.79705L54.0078 1.97963L54.7565 1.44872L55.1706 1.72586L54.7983 2.28449L55.3701 2.75127L54.6196 3.54628ZM0 15.2437L0.533159 14.6198L1.26515 14.3019L1.25537 13.9504L2.99365 13.7705L3.36164 14.7024L3.00128 15.223L1.82103 15.1893L1.55686 14.8296L0.346761 15.2964L0 15.2437Z"/>
</mask>
<path d="M54.6196 3.54628L54.3832 3.93427L54.9864 6.27255L55.6623 7.40828L56.1509 7.3985L57.2247 7.81964L57.4008 8.28208L57.0568 9.38465L57.9077 9.38411L58.5397 10.1487L58.324 10.8317L57.3915 12.1723L56.6623 12.6082L57.0676 14.4242L58.418 15.5768L57.4459 16.1088L56.7927 16.7533L56.8573 17.6982L56.559 18.7008L57.217 18.9704L58.4163 19.1328L58.3066 19.8686L58.3898 21.5146L59.0483 22.7541L59.0939 24.2659L59.782 24.5077L59.5755 24.9473L59.5749 25.9629L59.1663 25.9852L58.9543 26.6612L58.4328 26.7357L58.3631 27.4736L59.0337 28.6707L59.7319 28.8957L59.7646 29.6538L58.8533 29.394L58.1072 29.8407L57.2366 30.2847L55.6754 30.8232L54.3267 31.6943L53.3187 31.7617L52.5937 32.1969L52.3622 32.8865L52.5013 33.4022L51.8423 33.8885L52.2443 34.8373L53.0572 34.7205L53.0221 36.4795L54.0687 36.8311L54.0169 37.4783L54.5267 38.4358L54.5131 39.064L55.0353 39.7416L55.3678 40.9327L56.1129 41.1094L56.9416 40.6116L57.3237 40.9164L57.879 40.5545L59.3662 40.7257L59.7059 41.3501L60.8047 41.4675L61.2009 42.7651L63.3957 41.8843L64.0542 41.9109L64.4781 42.4641L64.132 43.1183L64.6743 44.1579L63.8347 45.0588L64.132 47.0439L63.3048 47.2961L62.273 47.9101L62.3599 48.5644L62.0534 49.0806L61.4198 49.1398L61.072 49.6197L60.0536 49.3322L59.6978 48.8931L59.0135 49.1431L59.1147 50.2L59.6793 50.6136L59.3142 52.1335L59.3261 52.9019L59.0087 53.1159L57.8144 52.7481L57.5301 52.9056L56.4927 52.6334L56.1922 52.779L54.4773 52.1009L53.7866 52.3361L53.2828 51.8552L51.864 50.8858L50.8521 51.6167L48.0568 51.2542L47.6923 51.5205L45.9887 49.2556L45.6452 47.8405L44.6139 46.7135L43.5466 45.7669L42.6962 45.9739L42.4668 46.5711L42.6707 47.6819L42.9575 48.1639L41.0926 48.3714L40.5737 48.6633L39.5954 47.8482L38.4283 47.6661L37.7626 46.8727L37.7822 46.469L36.6132 44.904L36.7013 45.7587L37.5996 46.5771L37.8822 47.3113L36.0921 48.3812L35.7351 46.9847L34.9363 46.9651L34.8754 48.0726L35.6182 49.2154L36.096 49.1659L36.0394 50.3929L34.9602 51.3596L34.5217 51.1271L33.8245 51.5488L32.1987 51.6357L31.3683 51.5069L31.1101 51.1336L30.2027 51.2401L29.3898 51.1238L28.5491 51.3395L28.3301 50.4636L27.9926 50.0337L29.2795 49.2784L29.3055 48.685L28.68 46.2158L27.79 44.1508L27.0319 43.3031L26.6384 42.376L25.4625 41.1577L24.4996 40.8572L23.5801 39.9894L22.5552 39.7574L22.2482 39.4465L21.5874 39.5835L21.4728 40.0899L20.5332 39.8362L20.0186 39.2672L19.1378 39.133L17.613 38.639L16.3638 38.6716L15.8702 38.263L15.279 38.2733L14.8671 37.8826L16.0182 37.6207L15.6628 36.6241L17.1001 36.7355L17.6374 36.2937L18.4407 36.4051L19.4073 36.2203L20.6246 35.5573L21.6934 35.8714L22.2325 35.1433L24.0481 35.3259L24.5061 34.8227L25.4631 34.6537L26.0973 34.7504L27.0749 34.3754L28.7153 34.0798L30.2103 35.0085L30.7466 35.1895L31.496 34.4048L31.728 33.5685L31.5426 33.1321L32.0899 32.6827L31.9405 31.4981L31.1867 31.3574L31.328 30.3537L30.8586 29.2549L29.8206 28.6995L28.4845 28.7718L28.1425 28.0246L27.3167 27.9486L25.0266 26.9172L23.7008 27.2231L23.8426 27.9165L23.0834 28.7582L22.9612 29.5109L22.1613 30.1206L21.7532 30.0907L21.6647 28.4257L21.263 27.3111L21.9227 26.6846L21.5272 25.9005L20.1088 26.1923L19.2823 25.7135L19.6947 24.2898L20.1606 24.8756L21.0663 24.499L21.2 24.1615L20.7083 22.4971L20.7756 22.1075L21.5924 21.4005L22.4569 21.3282L21.9738 22.1591L21.6701 23.8029L22.3141 24.4044L23.1041 23.7958L23.5225 24.562L24.0937 24.4566L25.149 23.9056L26.345 24.011L27.0167 24.8631L27.9661 24.8886L28.6561 24.6984L29.0425 24.3028L29.6402 24.2979L30.7037 23.6736L31.9775 23.7203L31.5003 24.4593L32.3768 24.6631L33.6322 23.7078L32.0557 23.0736L31.671 22.7422L29.8175 22.7248L30.7015 21.4342L28.5583 21.0473L28.3714 22.0102L26.6847 22.1738L26.6183 21.7021L25.5255 22.1417L25.4565 21.4907L26.1885 19.9251L26.6341 19.7203L27.4041 18.7997L26.6188 18.2085L26.0178 18.8932L24.8359 19.0323L24.4757 18.9084L23.6051 19.1997L22.2396 20.3452L20.4914 20.8641L19.6262 21.4152L18.9133 21.4369L18.4335 21.0065L16.9832 20.4267L16.2273 20.7745L15.8941 21.8167L13.694 21.9423L13.4837 21.5097L13.6835 20.8723L13.4184 20.1414L14.0021 19.5458L13.9592 18.9024L13.4532 18.521L13.1957 17.7238L12.7484 17.1505L13.0527 16.5919L13.3277 15.1589L14.0766 14.0634L13.7587 13.7412L13.4162 12.6217L14.0482 11.2485L14.0217 10.704L14.4227 9.97208L15.4459 9.11513L15.9528 9.32379L16.5142 8.53531L18.4352 8.3424L18.7085 8.12503L19.4916 8.36251L19.8164 7.5751L19.6415 7.03224L20.0067 6.39211L20.5957 7.16211L21.3103 6.93171L21.1179 6.35027L21.3196 5.61558L22.089 5.48353L23.2579 5.02L23.3948 5.60145L24.4089 5.51341L25.1452 5.20748L25.7658 4.62222L26.0178 3.92993L27.309 3.75114L29.1578 2.57739L29.9234 2.48174L31.1552 3.22947L30.5559 4.5744L31.5493 4.5217L31.9199 4.10381L33.4778 4.12392L34.062 3.693L34.188 3.04526L35.2976 1.9867L35.6965 2.06278L36.5562 1.68783L37.8153 1.52807L39.935 1.85954L40.152 0.989547L40.7307 0.624379L42.0382 0.622741L42.8075 0L43.3623 0.0163036L42.9473 1.30309L43.1592 2.02365L43.8318 3.30935L44.565 3.64789L44.9557 2.64911L45.6371 3.23708L45.5572 3.58975L45.993 4.42551L47.7623 5.3254L47.045 2.87517L47.8954 0.964009L49.4752 0.547753L50.0289 1.20691L50.6967 0.737945L52.2808 0.91401L53.0209 1.79705L54.0078 1.97963L54.7565 1.44872L55.1706 1.72586L54.7983 2.28449L55.3701 2.75127L54.6196 3.54628ZM0 15.2437L0.533159 14.6198L1.26515 14.3019L1.25537 13.9504L2.99365 13.7705L3.36164 14.7024L3.00128 15.223L1.82103 15.1893L1.55686 14.8296L0.346761 15.2964L0 15.2437Z" fill="#F2F2F2" stroke="#07122B" mask="url(#path-1-inside-1_81_165)"/>
</svg>
