<svg width="32" height="51" viewBox="0 0 32 51" fill="none" xmlns="http://www.w3.org/2000/svg">
<mask id="path-1-inside-1_81_103" fill="white">
<path d="M0.763006 0L1.51076 0.566741L3.18867 0.428186L3.54257 0.992771L4.68583 1.09658L4.87339 1.6438L5.92644 1.62804L6.48133 2.13666L7.55444 2.18774L8.00883 2.85124L9.91228 3.25501L11.023 2.58499L11.335 2.61269L11.2355 4.00653L12.2598 4.98956L12.1147 5.52914L12.9966 6.38937L13.6091 6.19592L14.4303 7.336L15.61 7.53434L16.2044 8.29129L17.2636 8.91947L18.1428 8.72006L18.3612 9.70959L18.2586 10.5481L18.8775 10.7806L19.135 11.3866L19.234 12.5576L19.9556 13.3151L20.3002 13.2243L21.0479 13.8031L21.4153 14.6019L21.1673 15.7028L21.2685 16.3196L21.6983 16.6092L22.3824 17.764L23.1459 17.4782L24.55 17.608L24.4311 19.3121L24.7485 20.9859L24.4111 21.8836L24.9288 22.3938L24.5887 22.8742L25.6038 23.4562L25.7445 24.0121L25.2744 24.8245L24.8364 26.1678L25.1858 26.6047L26.3586 26.8845L27.0764 26.6824L27.8014 26.8791L27.8448 27.3242L29.1267 26.721L30.3989 25.5934L31.2531 25.976L31.4433 27.754L31.1466 28.8674L31.1324 30.2901L31.4894 30.5982L31.2796 32.3806L31.4231 33.2261L31.2345 34.1505L30.3967 34.5705L30.2373 35.1965L30.7199 35.9714L30.0999 36.9887L29.2793 36.9479L29.4321 37.8679L28.7865 37.7272L27.0558 38.3401L26.9959 39.3085L27.3291 39.5878L28.2356 38.5477L28.975 39.0656L29.9103 38.9835L29.3365 39.9921L29.3652 40.3937L27.61 41.4674L26.7357 42.5939L26.6303 43.4634L27.0558 44.0231L26.9367 44.8023L26.4195 45.0621L25.9956 45.8234L25.3782 46.3527L24.6719 46.6016L24.8087 47.2873L24.6235 48.4024L25.494 47.5433L25.9761 47.9269L25.1663 48.8888L24.4223 50.2245L23.1003 50.2636L22.8769 49.6533L22.0031 49.3284L21.0391 48.7198L19.8926 48.892L19.9611 48.0275L20.298 47.3536L20.8902 46.857L19.9007 46.1853L19.3665 46.5988L18.8823 45.825L17.9896 45.8316L16.5256 44.9159L15.8034 44.8165L15.0308 44.1339L14.5188 44.2378L13.3656 43.4069L12.7706 43.2819L11.9496 42.5206L10.6851 42.8075L10.9562 42.125L10.6524 41.4115L9.90698 41.5321L9.4564 41.0153L8.66139 40.9034L9.01843 40.1969L8.77764 39.4764L8.3876 39.4367L8.77383 38.2575L8.88212 37.2245L9.61345 37.3158L11.9501 36.1361L12.068 35.3291L13.0995 34.9791L13.2966 34.339L12.2648 34.3743L11.9627 34.0537L10.6889 34.0168L10.0151 33.3815L8.63038 33.4375L8.0153 33.1598L8.51695 32.2697L8.074 31.8035L5.68631 32.7756L5.68084 32.0893L4.80755 31.5394L5.74336 30.996L6.6052 29.8896L6.16657 29.0153L6.91217 28.9875L7.20122 28.3583L7.96041 28.4072L8.13536 27.6763L7.75345 26.7444L8.61313 26.4564L8.71844 25.6048L8.36471 24.8267L9.18477 24.4256L8.82275 23.3366L8.41098 22.7905L7.78429 22.8139L7.3508 22.314L6.89591 22.4025L6.59857 23.1329L6.11069 23.5594L4.94835 23.5122L4.30491 23.7203L3.25932 23.4643L2.33993 23.9235L2.11224 23.2312L2.56878 22.2303L1.60263 21.3532L1.51457 20.6962L2.28288 20.4408L3.51587 20.5533L4.12232 20.1191L4.20275 19.3502L3.72299 19.0394L3.83593 18.4845L5.08898 17.6205L5.41882 17.721L6.92145 16.9804L7.13554 16.5565L6.81117 15.7784L6.11334 15.8599L5.77537 14.2215L5.43623 13.4483L4.06262 13.7417L3.43278 12.9999L2.47907 12.8315L1.18257 11.4854L1.3368 10.5019L0.860186 9.30367L0.571135 7.54901L0.988542 6.88878L2.47575 6.3448L4.92928 5.96172L5.08301 5.25746L3.96047 3.9989L3.35783 4.07121L2.66646 3.46039L1.87377 3.74136L1.63298 3.15173L2.73943 2.50672L2.35303 1.68944L1.3824 1.44438L0.716739 2.17252L0.226696 2.385L0 0.535771L0.671631 0.595555L0.763006 0Z"/>
</mask>
<path d="M0.763006 0L1.51076 0.566741L3.18867 0.428186L3.54257 0.992771L4.68583 1.09658L4.87339 1.6438L5.92644 1.62804L6.48133 2.13666L7.55444 2.18774L8.00883 2.85124L9.91228 3.25501L11.023 2.58499L11.335 2.61269L11.2355 4.00653L12.2598 4.98956L12.1147 5.52914L12.9966 6.38937L13.6091 6.19592L14.4303 7.336L15.61 7.53434L16.2044 8.29129L17.2636 8.91947L18.1428 8.72006L18.3612 9.70959L18.2586 10.5481L18.8775 10.7806L19.135 11.3866L19.234 12.5576L19.9556 13.3151L20.3002 13.2243L21.0479 13.8031L21.4153 14.6019L21.1673 15.7028L21.2685 16.3196L21.6983 16.6092L22.3824 17.764L23.1459 17.4782L24.55 17.608L24.4311 19.3121L24.7485 20.9859L24.4111 21.8836L24.9288 22.3938L24.5887 22.8742L25.6038 23.4562L25.7445 24.0121L25.2744 24.8245L24.8364 26.1678L25.1858 26.6047L26.3586 26.8845L27.0764 26.6824L27.8014 26.8791L27.8448 27.3242L29.1267 26.721L30.3989 25.5934L31.2531 25.976L31.4433 27.754L31.1466 28.8674L31.1324 30.2901L31.4894 30.5982L31.2796 32.3806L31.4231 33.2261L31.2345 34.1505L30.3967 34.5705L30.2373 35.1965L30.7199 35.9714L30.0999 36.9887L29.2793 36.9479L29.4321 37.8679L28.7865 37.7272L27.0558 38.3401L26.9959 39.3085L27.3291 39.5878L28.2356 38.5477L28.975 39.0656L29.9103 38.9835L29.3365 39.9921L29.3652 40.3937L27.61 41.4674L26.7357 42.5939L26.6303 43.4634L27.0558 44.0231L26.9367 44.8023L26.4195 45.0621L25.9956 45.8234L25.3782 46.3527L24.6719 46.6016L24.8087 47.2873L24.6235 48.4024L25.494 47.5433L25.9761 47.9269L25.1663 48.8888L24.4223 50.2245L23.1003 50.2636L22.8769 49.6533L22.0031 49.3284L21.0391 48.7198L19.8926 48.892L19.9611 48.0275L20.298 47.3536L20.8902 46.857L19.9007 46.1853L19.3665 46.5988L18.8823 45.825L17.9896 45.8316L16.5256 44.9159L15.8034 44.8165L15.0308 44.1339L14.5188 44.2378L13.3656 43.4069L12.7706 43.2819L11.9496 42.5206L10.6851 42.8075L10.9562 42.125L10.6524 41.4115L9.90698 41.5321L9.4564 41.0153L8.66139 40.9034L9.01843 40.1969L8.77764 39.4764L8.3876 39.4367L8.77383 38.2575L8.88212 37.2245L9.61345 37.3158L11.9501 36.1361L12.068 35.3291L13.0995 34.9791L13.2966 34.339L12.2648 34.3743L11.9627 34.0537L10.6889 34.0168L10.0151 33.3815L8.63038 33.4375L8.0153 33.1598L8.51695 32.2697L8.074 31.8035L5.68631 32.7756L5.68084 32.0893L4.80755 31.5394L5.74336 30.996L6.6052 29.8896L6.16657 29.0153L6.91217 28.9875L7.20122 28.3583L7.96041 28.4072L8.13536 27.6763L7.75345 26.7444L8.61313 26.4564L8.71844 25.6048L8.36471 24.8267L9.18477 24.4256L8.82275 23.3366L8.41098 22.7905L7.78429 22.8139L7.3508 22.314L6.89591 22.4025L6.59857 23.1329L6.11069 23.5594L4.94835 23.5122L4.30491 23.7203L3.25932 23.4643L2.33993 23.9235L2.11224 23.2312L2.56878 22.2303L1.60263 21.3532L1.51457 20.6962L2.28288 20.4408L3.51587 20.5533L4.12232 20.1191L4.20275 19.3502L3.72299 19.0394L3.83593 18.4845L5.08898 17.6205L5.41882 17.721L6.92145 16.9804L7.13554 16.5565L6.81117 15.7784L6.11334 15.8599L5.77537 14.2215L5.43623 13.4483L4.06262 13.7417L3.43278 12.9999L2.47907 12.8315L1.18257 11.4854L1.3368 10.5019L0.860186 9.30367L0.571135 7.54901L0.988542 6.88878L2.47575 6.3448L4.92928 5.96172L5.08301 5.25746L3.96047 3.9989L3.35783 4.07121L2.66646 3.46039L1.87377 3.74136L1.63298 3.15173L2.73943 2.50672L2.35303 1.68944L1.3824 1.44438L0.716739 2.17252L0.226696 2.385L0 0.535771L0.671631 0.595555L0.763006 0Z" fill="#F2F2F2" stroke="#07122B" mask="url(#path-1-inside-1_81_103)"/>
</svg>
