<svg width="37" height="59" viewBox="0 0 37 59" fill="none" xmlns="http://www.w3.org/2000/svg">
<mask id="path-1-inside-1_81_104" fill="white">
<path d="M0 31.5655L1.24111 31.3541L1.05421 30.6248L1.38356 29.8874L2.1741 29.6657L3.03544 29.8179L3.48436 28.4169L3.456 27.7763L3.89082 27.2291L3.71371 26.8552L2.78553 26.7818L3.4104 25.852L3.356 25.0179L5.38134 24.4196L5.23524 23.1519L5.62595 22.597L6.69426 22.1069L7.07684 22.8747L7.84399 22.784L8.51579 22.0776L8.37284 21.4803L8.74398 21.1163L8.75161 20.4397L9.59007 20.5859L10.2877 20.0865L11.1061 19.9767L11.2756 19.2176L12.4336 19.2208L12.8217 18.7019L13.5509 18.9665L14.3578 18.9502L15.1633 18.6041L15.9891 18.678L16.7473 18.0237L17.8352 17.7037L17.6579 16.5506L20.2843 14.0889L20.6974 14.2405L21.6406 13.8264L23.0373 14.4345L23.8855 13.9047L24.2403 14.6269L25.0271 14.7921L25.2049 15.5795L25.8928 16.03L26.2895 16.9478L27.5725 15.8197L27.5437 15.0024L28.4289 13.8449L28.1377 12.4027L28.343 10.8312L27.522 9.42539L27.1563 9.14012L27.348 8.44452L28.2392 7.31751L27.9017 7.0882L27.579 5.62806L28.7337 4.8059L28.5735 4.15976L28.9039 3.2827L28.4974 2.96861L28.6229 2.1872L28.343 1.70466L28.3029 0.868892L28.9098 0.231464L29.8201 0.0706042L30.6765 0.305385L31.2639 0L32.0436 0.915616L32.7756 1.25852L32.329 2.47683L32.9811 3.78701L33.106 4.40159L32.9914 5.38242L33.6 8.04515L33.6336 9.56776L33.8021 10.9225L32.993 12.3087L32.5018 14.6209L32.4104 16.0158L32.1964 16.1778L32.2219 17.438L32.737 18.6943L33.3277 19.6453L34.653 21.4097L35.315 23.2154L35.3953 24.4305L35.2346 26.2743L35.647 27.7007L35.7198 29.2375L35.3053 31.591L35.5275 33.5163L35.9459 34.8373L36.3311 36.554L36.0502 39.3508L36.2903 40.8104L36.1187 42.4977L36.2039 43.4824L35.9237 45.4033L35.1993 46.3521L32.5207 50.5016L31.6073 51.5563L30.908 52.8681L31.0226 54.1337L30.5309 55.6259L30.3173 56.8127L30.4901 57.5414L29.6359 57.1589L28.3637 58.2865L27.0818 58.8896L27.0384 58.4446L26.3134 58.2479L25.5956 58.45L24.4228 58.1702L24.0734 57.7333L24.5114 56.39L24.9815 55.5776L24.8407 55.0217L23.8257 54.4397L24.1658 53.9593L23.6481 53.4491L23.9855 52.5513L23.6681 50.8776L23.787 49.1735L22.3829 49.0436L21.6194 49.3295L20.9353 48.1747L20.5055 47.8851L20.4043 47.2683L20.6523 46.1674L20.2849 45.3686L19.5372 44.7898L19.1926 44.8806L18.471 44.1231L18.372 42.952L18.1145 42.3461L17.4956 42.1135L17.5982 41.2751L17.3798 40.2855L16.5006 40.4849L15.4414 39.8568L14.847 39.0998L13.6673 38.9015L12.8461 37.7614L12.2336 37.9548L11.3517 37.0946L11.4968 36.555L10.4725 35.572L10.572 34.1782L10.26 34.1505L9.14928 34.8205L7.24583 34.4167L6.79144 33.7532L5.71832 33.7021L5.16344 33.1935L4.11038 33.2093L3.92283 32.6621L2.77956 32.5582L2.42567 31.9937L0.74775 32.1322L0 31.5655Z"/>
</mask>
<path d="M0 31.5655L1.24111 31.3541L1.05421 30.6248L1.38356 29.8874L2.1741 29.6657L3.03544 29.8179L3.48436 28.4169L3.456 27.7763L3.89082 27.2291L3.71371 26.8552L2.78553 26.7818L3.4104 25.852L3.356 25.0179L5.38134 24.4196L5.23524 23.1519L5.62595 22.597L6.69426 22.1069L7.07684 22.8747L7.84399 22.784L8.51579 22.0776L8.37284 21.4803L8.74398 21.1163L8.75161 20.4397L9.59007 20.5859L10.2877 20.0865L11.1061 19.9767L11.2756 19.2176L12.4336 19.2208L12.8217 18.7019L13.5509 18.9665L14.3578 18.9502L15.1633 18.6041L15.9891 18.678L16.7473 18.0237L17.8352 17.7037L17.6579 16.5506L20.2843 14.0889L20.6974 14.2405L21.6406 13.8264L23.0373 14.4345L23.8855 13.9047L24.2403 14.6269L25.0271 14.7921L25.2049 15.5795L25.8928 16.03L26.2895 16.9478L27.5725 15.8197L27.5437 15.0024L28.4289 13.8449L28.1377 12.4027L28.343 10.8312L27.522 9.42539L27.1563 9.14012L27.348 8.44452L28.2392 7.31751L27.9017 7.0882L27.579 5.62806L28.7337 4.8059L28.5735 4.15976L28.9039 3.2827L28.4974 2.96861L28.6229 2.1872L28.343 1.70466L28.3029 0.868892L28.9098 0.231464L29.8201 0.0706042L30.6765 0.305385L31.2639 0L32.0436 0.915616L32.7756 1.25852L32.329 2.47683L32.9811 3.78701L33.106 4.40159L32.9914 5.38242L33.6 8.04515L33.6336 9.56776L33.8021 10.9225L32.993 12.3087L32.5018 14.6209L32.4104 16.0158L32.1964 16.1778L32.2219 17.438L32.737 18.6943L33.3277 19.6453L34.653 21.4097L35.315 23.2154L35.3953 24.4305L35.2346 26.2743L35.647 27.7007L35.7198 29.2375L35.3053 31.591L35.5275 33.5163L35.9459 34.8373L36.3311 36.554L36.0502 39.3508L36.2903 40.8104L36.1187 42.4977L36.2039 43.4824L35.9237 45.4033L35.1993 46.3521L32.5207 50.5016L31.6073 51.5563L30.908 52.8681L31.0226 54.1337L30.5309 55.6259L30.3173 56.8127L30.4901 57.5414L29.6359 57.1589L28.3637 58.2865L27.0818 58.8896L27.0384 58.4446L26.3134 58.2479L25.5956 58.45L24.4228 58.1702L24.0734 57.7333L24.5114 56.39L24.9815 55.5776L24.8407 55.0217L23.8257 54.4397L24.1658 53.9593L23.6481 53.4491L23.9855 52.5513L23.6681 50.8776L23.787 49.1735L22.3829 49.0436L21.6194 49.3295L20.9353 48.1747L20.5055 47.8851L20.4043 47.2683L20.6523 46.1674L20.2849 45.3686L19.5372 44.7898L19.1926 44.8806L18.471 44.1231L18.372 42.952L18.1145 42.3461L17.4956 42.1135L17.5982 41.2751L17.3798 40.2855L16.5006 40.4849L15.4414 39.8568L14.847 39.0998L13.6673 38.9015L12.8461 37.7614L12.2336 37.9548L11.3517 37.0946L11.4968 36.555L10.4725 35.572L10.572 34.1782L10.26 34.1505L9.14928 34.8205L7.24583 34.4167L6.79144 33.7532L5.71832 33.7021L5.16344 33.1935L4.11038 33.2093L3.92283 32.6621L2.77956 32.5582L2.42567 31.9937L0.74775 32.1322L0 31.5655Z" fill="#F2F2F2" stroke="#07122B" mask="url(#path-1-inside-1_81_104)"/>
</svg>
