<svg width="64" height="47" viewBox="0 0 64 47" fill="none" xmlns="http://www.w3.org/2000/svg">
<mask id="path-1-inside-1_81_126" fill="white">
<path d="M27.8014 0.494499L27.9888 1.65304L28.354 2.40023L29.8473 3.65278L31.3493 4.0973L32.6388 5.85578L33.869 6.63665L34.4146 6.57633L35.0477 5.78295L36.1878 5.16891L36.5469 4.69124L37.707 4.71624L37.7827 5.38953L38.1767 6.17855L39.4961 6.3845L40.0976 6.13998L40.5758 4.90536L41.2186 4.80156L42.5864 4.9999V5.94108L43.3244 6.14159L43.3819 6.90835L43.0907 7.6903L43.401 8.13155L44.6013 7.94353L45.4273 6.5334L46.3908 6.27853L46.7772 6.75782L47.3026 6.18345L46.8059 5.15423L47.2484 4.6896L47.8959 4.782L48.6568 4.09131L47.846 2.91919L48.4274 2.24265L48.7573 2.82626L49.4996 2.64422L49.8234 2.91865L49.5588 3.37402L50.0566 4.08916L50.1387 5.23574L50.6452 5.37322L50.7717 6.24866L51.2896 6.94529L52.3818 7.85496L52.7944 9.12057L53.2947 9.75418L52.8992 10.3443L53.7328 10.7568L53.6794 11.2051L54.0109 12.7793L53.6328 13.8205L54.0973 14.2965L55.0673 14.234L55.3859 14.7986L56.5296 15.2339L57.428 14.6193L58.4958 15.7268L58.387 16.6962L59.6233 17.2771L59.8412 16.7745L60.4613 16.5267L60.9617 16.7826L61.9306 16.8125L61.7007 17.4255L62.4604 17.4048L63.4153 18.1656L63.4332 19.0399L63.0848 19.6545L63.0217 21.3059L62.6795 21.6146L62.9186 22.8302L63.174 23.1644L62.9208 25.3983L61.6126 26.3422L61.3828 27.0422L60.2999 27.1758L59.4793 27.7806L59.7951 28.2866L58.9691 28.292L58.587 29.0109L56.4036 29.3071L56.1792 30.257L55.4554 29.9836L54.9463 30.2961L55.1055 30.8998L55.9835 31.9622L55.6695 32.2344L55.694 33.0952L56.3905 34.3896L55.7227 34.746L56.1874 36.0345L55.9313 37.0061L56.9442 38.1896L56.6819 39.2493L56.383 39.684L56.358 40.5312L56.933 42.2587L57.0177 43.5677L56.0645 43.8074L55.6537 44.3932L54.4191 43.9324L54.4109 44.4682L53.7469 44.7399L53.1693 44.3883L52.4732 44.5741L52.6579 45.1844L52.208 45.6256L52.2047 46.6418L51.5695 45.6577L51.5657 45.192L49.8437 44.8687L49.5676 43.5188L48.4535 41.6827L47.946 42.0071L46.3701 41.7739L45.4469 42.1929L44.3987 42.2092L43.8879 41.7049L43.39 39.5476L42.6005 39.7247L42.1033 39.1063L40.584 39.7307L40.0009 40.1622L38.9739 40.0535L36.9877 39.4416L35.2401 39.5987L34.5272 38.9884L33.4317 38.9808L32.8398 39.4829L31.4595 39.2857L30.8168 38.6466L30.2423 38.5374L30.3456 37.9978L29.9624 37.387L29.2745 37.3175L28.3957 37.6207L28.0453 37.2582L27.2052 37.518L27.02 36.9447L26.388 36.3942L25.2397 36.0421L25.0109 35.415L24.9805 34.1646L23.3872 33.5538L23.6932 32.9245L23.2819 32.1578L23.4177 31.7742L24.2278 31.0585L24.3393 30.1026L23.6524 29.657L22.6232 29.4755L20.661 29.5994L19.904 30.6699L19.8969 32.1534L19.467 32.4887L18.7705 32.4121L18.1287 31.7041L16.7414 31.1824L16.3256 31.703L16.7419 32.5887L16.4142 33.3185L15.7139 33.3468L14.6406 33.8152L14.7003 34.6075L13.9227 36.354L13.4 36.6784L12.2773 36.091L11.5383 36.2165L10.6352 35.3634L10.3987 33.7543L9.80914 33.6331L9.14779 32.9979L8.77615 30.4107L7.60121 29.2614L7.31266 28.0328L6.09377 27.2666L5.02662 27.1497L5.22496 26.5047L4.19198 25.3935L3.73427 25.5342L3.39912 26.3558L2.84158 25.6271L2.15038 25.7586L1.61391 25.4565L1.06134 24.7473L1.08572 24.0295L1.67643 23.4057L0.748911 22.5221L0.358203 22.6047L0 21.1478L0.123879 20.5718L0.204309 19.0204L1.01723 17.6271L1.60528 17.989L1.91937 17.4173L1.70412 16.9397L2.06879 16.2653L3.33494 15.3165L5.1369 15.21L5.75912 14.9035L6.34916 15.2127L7.55444 14.565L8.0745 14.5231L8.08644 15.1682L8.93585 14.6546L9.53899 15.2546L10.9149 14.4253L11.2861 14.0232L12.2446 13.6173L12.4109 13.3075L11.9947 11.6273L11.0562 10.5361L11.4204 10.1569L11.3361 9.49117L11.7512 8.91949L11.6073 8.44075L10.7617 8.22558L10.9149 7.68869L11.7827 7.47839L12.9298 7.76367L13.1076 6.90128L12.6054 6.67469L12.73 6.14431L13.6874 6.13942L14.0081 5.68352L14.7416 5.33356L15.6013 4.45105L15.7442 3.4702L16.6185 2.94855L17.0375 3.3474L17.5825 4.54995L18.7204 4.37769L19.0687 3.72561L20.2589 3.68214L22.0841 2.29265L22.0623 1.89813L23.3275 1.30908L23.4237 0.688505L24.0633 0.440706L24.8741 0.681436L25.1674 0.0124998L25.8004 0L26.4663 0.383099L27.2372 0.208123L27.8014 0.494499Z"/>
</mask>
<path d="M27.8014 0.494499L27.9888 1.65304L28.354 2.40023L29.8473 3.65278L31.3493 4.0973L32.6388 5.85578L33.869 6.63665L34.4146 6.57633L35.0477 5.78295L36.1878 5.16891L36.5469 4.69124L37.707 4.71624L37.7827 5.38953L38.1767 6.17855L39.4961 6.3845L40.0976 6.13998L40.5758 4.90536L41.2186 4.80156L42.5864 4.9999V5.94108L43.3244 6.14159L43.3819 6.90835L43.0907 7.6903L43.401 8.13155L44.6013 7.94353L45.4273 6.5334L46.3908 6.27853L46.7772 6.75782L47.3026 6.18345L46.8059 5.15423L47.2484 4.6896L47.8959 4.782L48.6568 4.09131L47.846 2.91919L48.4274 2.24265L48.7573 2.82626L49.4996 2.64422L49.8234 2.91865L49.5588 3.37402L50.0566 4.08916L50.1387 5.23574L50.6452 5.37322L50.7717 6.24866L51.2896 6.94529L52.3818 7.85496L52.7944 9.12057L53.2947 9.75418L52.8992 10.3443L53.7328 10.7568L53.6794 11.2051L54.0109 12.7793L53.6328 13.8205L54.0973 14.2965L55.0673 14.234L55.3859 14.7986L56.5296 15.2339L57.428 14.6193L58.4958 15.7268L58.387 16.6962L59.6233 17.2771L59.8412 16.7745L60.4613 16.5267L60.9617 16.7826L61.9306 16.8125L61.7007 17.4255L62.4604 17.4048L63.4153 18.1656L63.4332 19.0399L63.0848 19.6545L63.0217 21.3059L62.6795 21.6146L62.9186 22.8302L63.174 23.1644L62.9208 25.3983L61.6126 26.3422L61.3828 27.0422L60.2999 27.1758L59.4793 27.7806L59.7951 28.2866L58.9691 28.292L58.587 29.0109L56.4036 29.3071L56.1792 30.257L55.4554 29.9836L54.9463 30.2961L55.1055 30.8998L55.9835 31.9622L55.6695 32.2344L55.694 33.0952L56.3905 34.3896L55.7227 34.746L56.1874 36.0345L55.9313 37.0061L56.9442 38.1896L56.6819 39.2493L56.383 39.684L56.358 40.5312L56.933 42.2587L57.0177 43.5677L56.0645 43.8074L55.6537 44.3932L54.4191 43.9324L54.4109 44.4682L53.7469 44.7399L53.1693 44.3883L52.4732 44.5741L52.6579 45.1844L52.208 45.6256L52.2047 46.6418L51.5695 45.6577L51.5657 45.192L49.8437 44.8687L49.5676 43.5188L48.4535 41.6827L47.946 42.0071L46.3701 41.7739L45.4469 42.1929L44.3987 42.2092L43.8879 41.7049L43.39 39.5476L42.6005 39.7247L42.1033 39.1063L40.584 39.7307L40.0009 40.1622L38.9739 40.0535L36.9877 39.4416L35.2401 39.5987L34.5272 38.9884L33.4317 38.9808L32.8398 39.4829L31.4595 39.2857L30.8168 38.6466L30.2423 38.5374L30.3456 37.9978L29.9624 37.387L29.2745 37.3175L28.3957 37.6207L28.0453 37.2582L27.2052 37.518L27.02 36.9447L26.388 36.3942L25.2397 36.0421L25.0109 35.415L24.9805 34.1646L23.3872 33.5538L23.6932 32.9245L23.2819 32.1578L23.4177 31.7742L24.2278 31.0585L24.3393 30.1026L23.6524 29.657L22.6232 29.4755L20.661 29.5994L19.904 30.6699L19.8969 32.1534L19.467 32.4887L18.7705 32.4121L18.1287 31.7041L16.7414 31.1824L16.3256 31.703L16.7419 32.5887L16.4142 33.3185L15.7139 33.3468L14.6406 33.8152L14.7003 34.6075L13.9227 36.354L13.4 36.6784L12.2773 36.091L11.5383 36.2165L10.6352 35.3634L10.3987 33.7543L9.80914 33.6331L9.14779 32.9979L8.77615 30.4107L7.60121 29.2614L7.31266 28.0328L6.09377 27.2666L5.02662 27.1497L5.22496 26.5047L4.19198 25.3935L3.73427 25.5342L3.39912 26.3558L2.84158 25.6271L2.15038 25.7586L1.61391 25.4565L1.06134 24.7473L1.08572 24.0295L1.67643 23.4057L0.748911 22.5221L0.358203 22.6047L0 21.1478L0.123879 20.5718L0.204309 19.0204L1.01723 17.6271L1.60528 17.989L1.91937 17.4173L1.70412 16.9397L2.06879 16.2653L3.33494 15.3165L5.1369 15.21L5.75912 14.9035L6.34916 15.2127L7.55444 14.565L8.0745 14.5231L8.08644 15.1682L8.93585 14.6546L9.53899 15.2546L10.9149 14.4253L11.2861 14.0232L12.2446 13.6173L12.4109 13.3075L11.9947 11.6273L11.0562 10.5361L11.4204 10.1569L11.3361 9.49117L11.7512 8.91949L11.6073 8.44075L10.7617 8.22558L10.9149 7.68869L11.7827 7.47839L12.9298 7.76367L13.1076 6.90128L12.6054 6.67469L12.73 6.14431L13.6874 6.13942L14.0081 5.68352L14.7416 5.33356L15.6013 4.45105L15.7442 3.4702L16.6185 2.94855L17.0375 3.3474L17.5825 4.54995L18.7204 4.37769L19.0687 3.72561L20.2589 3.68214L22.0841 2.29265L22.0623 1.89813L23.3275 1.30908L23.4237 0.688505L24.0633 0.440706L24.8741 0.681436L25.1674 0.0124998L25.8004 0L26.4663 0.383099L27.2372 0.208123L27.8014 0.494499Z" fill="#F2F2F2" stroke="#07122B" mask="url(#path-1-inside-1_81_126)"/>
</svg>
