<svg width="58" height="52" viewBox="0 0 58 52" fill="none" xmlns="http://www.w3.org/2000/svg">
<mask id="path-1-inside-1_81_188" fill="white">
<path d="M3.6822 14.878L4.47605 14.9883L5.09279 15.767L5.80024 16.0778L5.85298 16.631L6.51764 17.1521L7.64035 17.2847L8.63685 17.182L9.74595 17.4793L10.0352 17.7896L10.6975 17.3124L12.4272 17.6863L13.295 17.276L13.2804 16.6826L13.8079 16.1403L12.9962 15.7692L13.4673 14.5628L14.3325 14.6791L15.1101 14.3563L15.4354 14.8666L16.6624 15.2144L17.0825 15.6513L17.9123 15.8664L19.2823 17.1184L20.2262 16.6468L21.1559 16.6707L22.1101 16.9543L22.9106 16.0278L23.5035 15.9631L23.5219 15.4263L24.098 15.3676L24.286 14.3454L25.2114 14.8899L25.2608 13.8292L24.4311 13.6298L24.9897 12.2006L24.731 11.7067L25.1016 10.8399L25.8635 10.3519L25.2863 9.74496L24.3452 9.47813L24.4484 8.56032L23.9295 7.96095L24.6577 7.39309L24.9832 6.5698L24.3898 6.38668L23.6046 5.12272L22.9676 3.62237L23.3807 2.93876L24.0696 2.77952L24.7393 3.09742L24.9016 2.40676L25.3641 2.35407L25.7422 1.20856L26.7074 0L27.3367 0.267906L27.6225 0.721672L28.1382 0.700984L28.4752 1.43679L28.074 2.04429L28.8848 2.38068L29.3457 2.87844L28.8778 3.36533L28.2284 3.50824L28.881 4.95208L28.6349 5.82371L28.7571 6.2606L28.1719 6.66217L28.6924 7.35723L29.5321 6.70131L30.207 6.47308L30.9629 6.74314L31.4161 6.30571L32.0143 7.06755L32.0028 7.50175L33.3255 7.55664L33.7255 8.30978L34.6895 8.7065L35.2585 9.41727L36.2306 10.0476L37.0077 9.4977L37.4333 8.63258L37.475 7.76423L38.6288 7.00889L38.8412 6.31114L40.3181 6.21661L41.1969 5.82425L41.6299 6.55458L41.1332 8.18101L41.3332 8.68963L42.9993 9.07818L43.2977 8.40489L43.4177 6.47527L43.6051 6.0764L44.5519 6.34211L45.2739 6.23125L46.7233 7.0018L47.4847 8.18536L49.1523 8.73038L49.5261 9.34065L50.0772 8.94721L50.7075 9.7705L50.8798 10.5872L51.5374 11.2866L51.7612 11.8224V12.7527L52.8388 12.6761L52.7823 13.7406L53.3887 14.0172L53.2078 14.8883L53.3116 16.0599L53.0002 16.7277L52.8057 18.2047L53.6925 19.5757L54.568 19.1084L54.9711 19.9012L55.7874 20.2985L55.8232 20.9587L56.8665 22.0493L56.9545 22.7172L57.7958 23.0139L57.9338 23.8122L57.7533 24.367L56.7378 24.2583L56.8139 25.4641L56.0265 25.9749L55.4575 26.8427L54.3962 27.134L54.03 27.5068L53.3246 28.5338L52.6708 28.8001L52.4047 29.4696L50.413 30.4308L50.6216 30.9802L51.3211 31.3128L50.4418 32.2844L50.9238 33.4913L50.7674 34.7906L49.8163 36.0801L49.3337 37.6592L49.3626 38.3228L49.8865 39.5177L49.0094 39.7003L48.2095 39.1656L46.4386 38.6249L46.1223 38.8645L45.0658 38.8939L44.4089 39.4455L44.3051 40.4486L43.5421 40.6643L42.8929 41.8576L42.4853 42.9575L42.9287 43.4846L44.0676 43.3455L44.2948 43.715L43.7366 44.6344L43.1927 44.9301L42.5461 44.7931L41.931 45.9799L41.0496 45.9919L40.8806 46.4271L39.6709 46.7912L38.5558 47.8688L37.65 48.428L36.297 48.7796L35.5878 49.2175L35.2623 50.2087L35.2504 51.1662L33.0577 50.6234L31.5949 49.9039L31.1199 49.4067L30.8548 48.6981L31.8861 47.5623L31.3987 46.8858L30.4965 46.3907L30.7977 45.6886L30.3896 44.8252L31.4095 44.6339L32.3078 44.8105L32.2708 44.2084L32.9701 43.6373L33.9038 41.9506L33.9413 41.3316L32.8017 39.6688L32.7978 38.6347L32.3517 38.0684L32.0947 37.2012L31.477 36.9083L31.0486 37.0936L30.1786 36.2529L29.9042 35.496L29.2418 35.6286L28.7463 35.2916L28.7647 34.7205L27.448 33.4826L26.8031 33.2131L25.8271 33.8011L25.35 33.0544L25.9596 32.3675L25.745 31.603L25.2331 31.1134L24.4718 31.1487L23.9044 30.9091L23.8044 29.7282L22.9715 29.913L21.5032 29.9325L21.3091 30.4227L19.542 29.8277L19.3773 29.2202L20.4728 27.497L20.1446 26.5955L19.2692 26.5384L18.8932 25.7059L18.2851 25.2364L17.3228 25.356L16.8679 25.0859L16.3245 25.6543L15.8767 25.5891L15.0774 26.3705L14.6573 28.2507L12.8928 27.9056L11.2584 30.1483L11.1028 30.527L11.9675 31.102L10.9486 31.485L9.6161 31.0819L9.21992 30.596L8.90799 29.0669L7.73272 29.1631L6.96755 30.1901L6.2616 30.3602L5.81069 30.1608L6.13556 28.9273L5.33408 28.0273L4.03095 28.2317L3.11322 28.0594L2.82782 27.1117L3.1371 26.145L3.74671 25.9081L3.80989 25.3076L4.86941 25.2071L5.30207 24.023L6.12097 23.7404L6.47519 23.0399L6.23987 22.3776L5.27438 21.501L4.6928 21.4396L4.24836 20.6968L2.90775 21.1L2.40029 20.6908L2.04259 19.5888L1.22967 20.1224L0.603142 19.9741L0 19.1345L0.643937 18.2351L1.27809 18.2873L1.8411 17.889L1.72037 16.6728L2.07741 16.355L2.24159 15.4958L3.6822 14.878Z"/>
</mask>
<path d="M3.6822 14.878L4.47605 14.9883L5.09279 15.767L5.80024 16.0778L5.85298 16.631L6.51764 17.1521L7.64035 17.2847L8.63685 17.182L9.74595 17.4793L10.0352 17.7896L10.6975 17.3124L12.4272 17.6863L13.295 17.276L13.2804 16.6826L13.8079 16.1403L12.9962 15.7692L13.4673 14.5628L14.3325 14.6791L15.1101 14.3563L15.4354 14.8666L16.6624 15.2144L17.0825 15.6513L17.9123 15.8664L19.2823 17.1184L20.2262 16.6468L21.1559 16.6707L22.1101 16.9543L22.9106 16.0278L23.5035 15.9631L23.5219 15.4263L24.098 15.3676L24.286 14.3454L25.2114 14.8899L25.2608 13.8292L24.4311 13.6298L24.9897 12.2006L24.731 11.7067L25.1016 10.8399L25.8635 10.3519L25.2863 9.74496L24.3452 9.47813L24.4484 8.56032L23.9295 7.96095L24.6577 7.39309L24.9832 6.5698L24.3898 6.38668L23.6046 5.12272L22.9676 3.62237L23.3807 2.93876L24.0696 2.77952L24.7393 3.09742L24.9016 2.40676L25.3641 2.35407L25.7422 1.20856L26.7074 0L27.3367 0.267906L27.6225 0.721672L28.1382 0.700984L28.4752 1.43679L28.074 2.04429L28.8848 2.38068L29.3457 2.87844L28.8778 3.36533L28.2284 3.50824L28.881 4.95208L28.6349 5.82371L28.7571 6.2606L28.1719 6.66217L28.6924 7.35723L29.5321 6.70131L30.207 6.47308L30.9629 6.74314L31.4161 6.30571L32.0143 7.06755L32.0028 7.50175L33.3255 7.55664L33.7255 8.30978L34.6895 8.7065L35.2585 9.41727L36.2306 10.0476L37.0077 9.4977L37.4333 8.63258L37.475 7.76423L38.6288 7.00889L38.8412 6.31114L40.3181 6.21661L41.1969 5.82425L41.6299 6.55458L41.1332 8.18101L41.3332 8.68963L42.9993 9.07818L43.2977 8.40489L43.4177 6.47527L43.6051 6.0764L44.5519 6.34211L45.2739 6.23125L46.7233 7.0018L47.4847 8.18536L49.1523 8.73038L49.5261 9.34065L50.0772 8.94721L50.7075 9.7705L50.8798 10.5872L51.5374 11.2866L51.7612 11.8224V12.7527L52.8388 12.6761L52.7823 13.7406L53.3887 14.0172L53.2078 14.8883L53.3116 16.0599L53.0002 16.7277L52.8057 18.2047L53.6925 19.5757L54.568 19.1084L54.9711 19.9012L55.7874 20.2985L55.8232 20.9587L56.8665 22.0493L56.9545 22.7172L57.7958 23.0139L57.9338 23.8122L57.7533 24.367L56.7378 24.2583L56.8139 25.4641L56.0265 25.9749L55.4575 26.8427L54.3962 27.134L54.03 27.5068L53.3246 28.5338L52.6708 28.8001L52.4047 29.4696L50.413 30.4308L50.6216 30.9802L51.3211 31.3128L50.4418 32.2844L50.9238 33.4913L50.7674 34.7906L49.8163 36.0801L49.3337 37.6592L49.3626 38.3228L49.8865 39.5177L49.0094 39.7003L48.2095 39.1656L46.4386 38.6249L46.1223 38.8645L45.0658 38.8939L44.4089 39.4455L44.3051 40.4486L43.5421 40.6643L42.8929 41.8576L42.4853 42.9575L42.9287 43.4846L44.0676 43.3455L44.2948 43.715L43.7366 44.6344L43.1927 44.9301L42.5461 44.7931L41.931 45.9799L41.0496 45.9919L40.8806 46.4271L39.6709 46.7912L38.5558 47.8688L37.65 48.428L36.297 48.7796L35.5878 49.2175L35.2623 50.2087L35.2504 51.1662L33.0577 50.6234L31.5949 49.9039L31.1199 49.4067L30.8548 48.6981L31.8861 47.5623L31.3987 46.8858L30.4965 46.3907L30.7977 45.6886L30.3896 44.8252L31.4095 44.6339L32.3078 44.8105L32.2708 44.2084L32.9701 43.6373L33.9038 41.9506L33.9413 41.3316L32.8017 39.6688L32.7978 38.6347L32.3517 38.0684L32.0947 37.2012L31.477 36.9083L31.0486 37.0936L30.1786 36.2529L29.9042 35.496L29.2418 35.6286L28.7463 35.2916L28.7647 34.7205L27.448 33.4826L26.8031 33.2131L25.8271 33.8011L25.35 33.0544L25.9596 32.3675L25.745 31.603L25.2331 31.1134L24.4718 31.1487L23.9044 30.9091L23.8044 29.7282L22.9715 29.913L21.5032 29.9325L21.3091 30.4227L19.542 29.8277L19.3773 29.2202L20.4728 27.497L20.1446 26.5955L19.2692 26.5384L18.8932 25.7059L18.2851 25.2364L17.3228 25.356L16.8679 25.0859L16.3245 25.6543L15.8767 25.5891L15.0774 26.3705L14.6573 28.2507L12.8928 27.9056L11.2584 30.1483L11.1028 30.527L11.9675 31.102L10.9486 31.485L9.6161 31.0819L9.21992 30.596L8.90799 29.0669L7.73272 29.1631L6.96755 30.1901L6.2616 30.3602L5.81069 30.1608L6.13556 28.9273L5.33408 28.0273L4.03095 28.2317L3.11322 28.0594L2.82782 27.1117L3.1371 26.145L3.74671 25.9081L3.80989 25.3076L4.86941 25.2071L5.30207 24.023L6.12097 23.7404L6.47519 23.0399L6.23987 22.3776L5.27438 21.501L4.6928 21.4396L4.24836 20.6968L2.90775 21.1L2.40029 20.6908L2.04259 19.5888L1.22967 20.1224L0.603142 19.9741L0 19.1345L0.643937 18.2351L1.27809 18.2873L1.8411 17.889L1.72037 16.6728L2.07741 16.355L2.24159 15.4958L3.6822 14.878Z" fill="#F2F2F2" stroke="#07122B" mask="url(#path-1-inside-1_81_188)"/>
</svg>
