<svg width="60" height="63" viewBox="0 0 60 63" fill="none" xmlns="http://www.w3.org/2000/svg">
<mask id="path-1-inside-1_81_146" fill="white">
<path d="M6.09278 31.0867L6.58564 30.8275L7.5294 31.0389L8.57831 30.1542L10.0292 27.7084L10.7648 28.0339L11.4882 27.0992L11.3307 26.8481L11.667 25.8298L12.1164 25.7097L13.464 26.5818L13.9628 25.7042L14.847 26.0662L15.0454 25.8423L17.1636 26.1526L17.9324 26.5634L18.1135 27.1704L18.6944 27.3888L19.2143 27.1921L19.3095 27.9833L19.7816 28.455L20.4045 28.1501L20.6532 27.0693L20.5506 25.9124L21.4163 25.9673L21.4 24.6376L21.8167 24.3207L22.0786 23.3855L21.2304 22.8296L21.4206 22.5031L22.5053 22.1341L22.7602 21.2021L22.7008 20.1055L23.1922 19.1301L23.8127 19.0948L24.4278 19.6866L25.1815 18.7269L26.4205 18.4938L26.626 17.7933L27.9306 17.9661L28.0072 16.5793L27.2318 15.648L26.5983 16.2012L25.8162 15.1605L25.7565 14.2639L24.6257 14.3965L23.8154 14.1031L24.3147 13.3156L23.3464 13.2559L22.9383 12.7532L22.3803 12.5646L22.9449 11.1713L20.8169 9.82099L20.0506 9.06727L20.0425 8.71952L19.116 7.66638L18.8725 6.8518L19.8513 6.90777L20.2544 6.35189L21.9134 5.98507L22.7466 6.27362L23.554 5.61011L23.9996 5.59112L24.8235 6.31873L25.2668 5.66608L26.3542 5.21344L26.5172 5.81119L27.0498 5.9742L27.4057 6.54588L28.5729 6.60782L28.7392 7.62671L30.6335 6.98497L30.9655 6.41491L32.7295 5.71882L33.2234 5.7063L33.9146 5.19876L33.7527 4.48745L33.3875 4.25271L31.9844 4.14562L31.4469 3.71906L32.3415 3.22346L32.7687 3.60931L33.82 3.52345L33.431 2.68984L34.0386 1.6188L34.4384 1.92472L35.4857 1.85246L35.9905 2.57409L36.4822 2.67682L37.4479 2.0231L38.0782 0.98734L38.5016 0.904215L38.7266 1.7503L39.8666 0.902059L40.2198 0L41.1062 0.169525L40.7296 0.904754L41.0833 2.38064L41.6778 3.70712L42.4353 4.00379L42.3299 5.45361L43.8172 6.24319L44.3106 6.18452L44.2144 7.28816L44.7443 7.78595L44.5567 8.70754L44.8333 9.09066L45.6799 9.44169L46.3832 10.0134L46.5033 10.8078L45.2371 11.0991L45.0321 11.5023L47.145 11.9055L47.1227 12.6201L47.5243 13.4678L46.3744 13.8982L45.9467 14.9616L46.5527 15.4952L48.2112 16.3441L48.7415 16.2218L49.3072 17.0679L51.4058 17.5423L51.8906 18.0536L51.9297 18.9791L53.0133 19.4448L53.1257 20.5511L53.5312 20.8848L55.2685 21.7743L56.5497 22.1178L57.0638 22.6313L57.7555 22.5041L58.0321 22.1172L58.0104 21.0071L58.9565 21.4135L59.2178 22.2227L58.8603 22.6704L58.1115 23.0003L58.2414 24.1773L58.5137 24.699L57.9653 25.8178L57.349 25.8988L55.6026 25.551L55.0222 25.2907L54.4501 25.5597L54.2897 26.5221L53.6284 25.67L52.7415 25.0543L52.1405 24.3582L51.8443 25.25L50.9037 25.72L50.5125 26.7927L50.2316 28.6799L50.6848 29.1223L50.286 29.575L49.4191 29.2962L49.0279 29.7554L48.2112 29.3658L47.2868 30.1787L47.7227 30.7992L46.9243 31.1813L46.3462 32.7789L45.9641 32.968L45.4147 32.574L44.5366 33.6185L44.7345 34.4705L43.9812 34.8053L44.0764 33.8831L42.9673 33.6418L42.6917 33.3305L41.762 33.538L41.4382 34.0178L40.8561 32.924L40.5078 32.7408L39.678 33.1663L39.6732 32.1844L39.1336 32.2942L38.5488 33.1968L38.6206 33.7222L39.1841 34.1988L38.5696 35.3204L37.8206 36.2442L36.5535 35.8334L35.9024 35.3481L36.3822 33.9314L36.0106 33.4125L34.7119 32.2518L34.4962 31.8372L33.4706 30.8335L32.5381 31.1171L32.2997 31.8442L31.5579 32.3061L31.8758 33.4342L32.8143 33.7956L33.1038 34.4537L34.0923 34.5759L34.7036 35.2161L34.3831 35.9872L33.3 36.0883L32.6371 36.5751L32.5436 37.1049L31.8627 36.9409L31.4997 37.2305L30.6829 36.8833L30.2564 37.3891L29.0163 37.3566L28.9795 38.019L28.4735 38.5988L28.6501 39.0292L30.3276 39.4221L30.6851 39.3025L31.3161 40.5317L30.9123 41.2365L30.1184 41.4577L30.1907 42.1858L28.8088 42.4075L28.2148 40.7306L26.9188 39.8329L26.7026 40.2415L25.9391 39.8426L25.1837 38.9455L24.7517 39.497L23.8872 39.6372L23.6741 39.954L22.9058 39.7769L22.0124 41.7207L21.5 41.6636L20.9418 41.1485L20.2523 42.1299L20.8246 42.6488L20.0213 43.359L19.9718 44.5323L20.0969 45.4881L20.826 45.7696L21.2038 46.2761L20.6397 46.6733L19.8534 48.0628L18.8536 48.4867L17.9238 48.4812L17.2304 48.9051L16.0736 48.892L16.3822 50.1131L15.9762 50.5255L14.8232 50.544L14.1928 51.1135L14.8356 52.3454L14.5291 53.0187L15.4421 54.9972L15.3626 55.5624L14.4747 55.4238L13.4558 54.8684L12.6945 55.0467L11.893 54.8701L10.8106 54.1245L9.83948 53.7637L8.07334 54.8538L8.38594 55.6336L8.00054 56.9709L7.52559 57.723L7.91795 58.4267L8.01629 59.2483L8.46422 60.3574L8.40601 60.9209L8.88859 61.4274L8.59622 62.3136L8.00286 62.3506L6.20687 61.992L5.56608 61.6681L5.36012 62.1359L3.76528 61.7974L3.13163 61.8387L2.86264 62.2849L2.12368 62.2707L1.18456 61.8529L1.37693 61.2779L0.343444 60.2971L0.764002 59.8596L0.815079 58.9744L0.477605 58.3071L0.824863 57.3349L0.539627 56.0166L0.902142 54.7891L0.694517 54.3125L1.1363 53.8854L1.3101 52.9111L1.77045 52.9676L3.37341 53.6447L4.13974 53.8256L4.93027 53.2855L5.30257 51.7634L5.69759 51.2765L6.00903 50.1304L6.80786 49.7664L7.50984 48.7121L6.52743 48.1878L6.32412 47.7107L6.83887 46.7765L6.35728 46.1005L6.12578 45.0637L5.13574 45.8419L4.59512 45.7419L3.70326 46.7417L3.38486 46.0935L3.5696 44.7132L4.36361 44.8773L4.519 43.0374L3.31587 42.6081L3.23212 42.0994L2.19914 41.9559L2.23346 41.3832L1.35636 41.1381L0.366329 40.2975L0 40.1855L1.20645 38.7009L1.70694 38.4575L2.5779 37.5321L2.36763 36.7164L2.79482 36.0692L3.47408 36.3013L4.36411 36.1295L4.88798 35.6617L4.8054 35.0085L4.3739 34.9232L4.59943 34.0521L5.71882 32.9566L6.36657 32.768L6.41665 32.2078L7.15777 31.6198L6.09278 31.0867Z"/>
</mask>
<path d="M6.09278 31.0867L6.58564 30.8275L7.5294 31.0389L8.57831 30.1542L10.0292 27.7084L10.7648 28.0339L11.4882 27.0992L11.3307 26.8481L11.667 25.8298L12.1164 25.7097L13.464 26.5818L13.9628 25.7042L14.847 26.0662L15.0454 25.8423L17.1636 26.1526L17.9324 26.5634L18.1135 27.1704L18.6944 27.3888L19.2143 27.1921L19.3095 27.9833L19.7816 28.455L20.4045 28.1501L20.6532 27.0693L20.5506 25.9124L21.4163 25.9673L21.4 24.6376L21.8167 24.3207L22.0786 23.3855L21.2304 22.8296L21.4206 22.5031L22.5053 22.1341L22.7602 21.2021L22.7008 20.1055L23.1922 19.1301L23.8127 19.0948L24.4278 19.6866L25.1815 18.7269L26.4205 18.4938L26.626 17.7933L27.9306 17.9661L28.0072 16.5793L27.2318 15.648L26.5983 16.2012L25.8162 15.1605L25.7565 14.2639L24.6257 14.3965L23.8154 14.1031L24.3147 13.3156L23.3464 13.2559L22.9383 12.7532L22.3803 12.5646L22.9449 11.1713L20.8169 9.82099L20.0506 9.06727L20.0425 8.71952L19.116 7.66638L18.8725 6.8518L19.8513 6.90777L20.2544 6.35189L21.9134 5.98507L22.7466 6.27362L23.554 5.61011L23.9996 5.59112L24.8235 6.31873L25.2668 5.66608L26.3542 5.21344L26.5172 5.81119L27.0498 5.9742L27.4057 6.54588L28.5729 6.60782L28.7392 7.62671L30.6335 6.98497L30.9655 6.41491L32.7295 5.71882L33.2234 5.7063L33.9146 5.19876L33.7527 4.48745L33.3875 4.25271L31.9844 4.14562L31.4469 3.71906L32.3415 3.22346L32.7687 3.60931L33.82 3.52345L33.431 2.68984L34.0386 1.6188L34.4384 1.92472L35.4857 1.85246L35.9905 2.57409L36.4822 2.67682L37.4479 2.0231L38.0782 0.98734L38.5016 0.904215L38.7266 1.7503L39.8666 0.902059L40.2198 0L41.1062 0.169525L40.7296 0.904754L41.0833 2.38064L41.6778 3.70712L42.4353 4.00379L42.3299 5.45361L43.8172 6.24319L44.3106 6.18452L44.2144 7.28816L44.7443 7.78595L44.5567 8.70754L44.8333 9.09066L45.6799 9.44169L46.3832 10.0134L46.5033 10.8078L45.2371 11.0991L45.0321 11.5023L47.145 11.9055L47.1227 12.6201L47.5243 13.4678L46.3744 13.8982L45.9467 14.9616L46.5527 15.4952L48.2112 16.3441L48.7415 16.2218L49.3072 17.0679L51.4058 17.5423L51.8906 18.0536L51.9297 18.9791L53.0133 19.4448L53.1257 20.5511L53.5312 20.8848L55.2685 21.7743L56.5497 22.1178L57.0638 22.6313L57.7555 22.5041L58.0321 22.1172L58.0104 21.0071L58.9565 21.4135L59.2178 22.2227L58.8603 22.6704L58.1115 23.0003L58.2414 24.1773L58.5137 24.699L57.9653 25.8178L57.349 25.8988L55.6026 25.551L55.0222 25.2907L54.4501 25.5597L54.2897 26.5221L53.6284 25.67L52.7415 25.0543L52.1405 24.3582L51.8443 25.25L50.9037 25.72L50.5125 26.7927L50.2316 28.6799L50.6848 29.1223L50.286 29.575L49.4191 29.2962L49.0279 29.7554L48.2112 29.3658L47.2868 30.1787L47.7227 30.7992L46.9243 31.1813L46.3462 32.7789L45.9641 32.968L45.4147 32.574L44.5366 33.6185L44.7345 34.4705L43.9812 34.8053L44.0764 33.8831L42.9673 33.6418L42.6917 33.3305L41.762 33.538L41.4382 34.0178L40.8561 32.924L40.5078 32.7408L39.678 33.1663L39.6732 32.1844L39.1336 32.2942L38.5488 33.1968L38.6206 33.7222L39.1841 34.1988L38.5696 35.3204L37.8206 36.2442L36.5535 35.8334L35.9024 35.3481L36.3822 33.9314L36.0106 33.4125L34.7119 32.2518L34.4962 31.8372L33.4706 30.8335L32.5381 31.1171L32.2997 31.8442L31.5579 32.3061L31.8758 33.4342L32.8143 33.7956L33.1038 34.4537L34.0923 34.5759L34.7036 35.2161L34.3831 35.9872L33.3 36.0883L32.6371 36.5751L32.5436 37.1049L31.8627 36.9409L31.4997 37.2305L30.6829 36.8833L30.2564 37.3891L29.0163 37.3566L28.9795 38.019L28.4735 38.5988L28.6501 39.0292L30.3276 39.4221L30.6851 39.3025L31.3161 40.5317L30.9123 41.2365L30.1184 41.4577L30.1907 42.1858L28.8088 42.4075L28.2148 40.7306L26.9188 39.8329L26.7026 40.2415L25.9391 39.8426L25.1837 38.9455L24.7517 39.497L23.8872 39.6372L23.6741 39.954L22.9058 39.7769L22.0124 41.7207L21.5 41.6636L20.9418 41.1485L20.2523 42.1299L20.8246 42.6488L20.0213 43.359L19.9718 44.5323L20.0969 45.4881L20.826 45.7696L21.2038 46.2761L20.6397 46.6733L19.8534 48.0628L18.8536 48.4867L17.9238 48.4812L17.2304 48.9051L16.0736 48.892L16.3822 50.1131L15.9762 50.5255L14.8232 50.544L14.1928 51.1135L14.8356 52.3454L14.5291 53.0187L15.4421 54.9972L15.3626 55.5624L14.4747 55.4238L13.4558 54.8684L12.6945 55.0467L11.893 54.8701L10.8106 54.1245L9.83948 53.7637L8.07334 54.8538L8.38594 55.6336L8.00054 56.9709L7.52559 57.723L7.91795 58.4267L8.01629 59.2483L8.46422 60.3574L8.40601 60.9209L8.88859 61.4274L8.59622 62.3136L8.00286 62.3506L6.20687 61.992L5.56608 61.6681L5.36012 62.1359L3.76528 61.7974L3.13163 61.8387L2.86264 62.2849L2.12368 62.2707L1.18456 61.8529L1.37693 61.2779L0.343444 60.2971L0.764002 59.8596L0.815079 58.9744L0.477605 58.3071L0.824863 57.3349L0.539627 56.0166L0.902142 54.7891L0.694517 54.3125L1.1363 53.8854L1.3101 52.9111L1.77045 52.9676L3.37341 53.6447L4.13974 53.8256L4.93027 53.2855L5.30257 51.7634L5.69759 51.2765L6.00903 50.1304L6.80786 49.7664L7.50984 48.7121L6.52743 48.1878L6.32412 47.7107L6.83887 46.7765L6.35728 46.1005L6.12578 45.0637L5.13574 45.8419L4.59512 45.7419L3.70326 46.7417L3.38486 46.0935L3.5696 44.7132L4.36361 44.8773L4.519 43.0374L3.31587 42.6081L3.23212 42.0994L2.19914 41.9559L2.23346 41.3832L1.35636 41.1381L0.366329 40.2975L0 40.1855L1.20645 38.7009L1.70694 38.4575L2.5779 37.5321L2.36763 36.7164L2.79482 36.0692L3.47408 36.3013L4.36411 36.1295L4.88798 35.6617L4.8054 35.0085L4.3739 34.9232L4.59943 34.0521L5.71882 32.9566L6.36657 32.768L6.41665 32.2078L7.15777 31.6198L6.09278 31.0867Z" fill="#F2F2F2" stroke="#07122B" mask="url(#path-1-inside-1_81_146)"/>
</svg>
