<svg width="55" height="40" viewBox="0 0 55 40" fill="none" xmlns="http://www.w3.org/2000/svg">
<mask id="path-1-inside-1_81_145" fill="white">
<path d="M13.1711 4.88305L14.2547 4.80374L15.1039 3.95438L15.5969 4.28965L15.4643 5.1216L16.1371 5.40854L16.4913 4.96729L16.5636 4.13588L17.0249 3.98696L17.3739 3.24796L18.2601 2.82898L18.8301 3.46044L19.7033 3.86636L21.5337 4.47008L22.4297 3.63701L23.3915 3.20012L24.4305 3.68104L25.1966 2.83984L26.6823 2.52956L26.7644 2.00138L27.3198 1.17647L28.2017 1.30363L29.2256 0.754798L29.5483 1.05857L30.8362 1.20964L31.24 0.936304L31.7415 0.0787716L32.3909 0L33.5146 0.911304L33.626 1.39766L34.4847 1.83617L34.4184 2.31816L34.8199 2.77736L35.4122 2.4964L35.7084 1.65089L37.7157 0.66732L38.0793 0.606458L38.3971 2.31547L39.0264 2.17036L40.5377 1.19986L41.7881 1.88563L40.731 3.28544L40.868 4.18476L40.0486 5.1966L39.6785 5.26182L39.2553 6.33017L38.42 6.79911L38.5851 7.72836L39.3226 7.8767L40.2007 7.45337L41.432 8.38043L42.2108 7.90062L42.602 8.45924L43.1063 8.63963L43.3944 9.32216L42.959 9.59496L42.9363 10.4117L43.7502 11.1774L43.3564 12.2076L44.4302 12.6092L43.8851 13.5999L43.4562 14.9263L44.1378 15.0366L45.0665 14.6155L45.5212 14.8845L45.7646 15.6991L46.6912 16.7522L46.6993 17.0999L47.4656 17.8537L49.5936 19.204L49.0289 20.5973L49.587 20.7859L49.9951 21.2886L50.9634 21.3483L50.4641 22.1357L51.2743 22.4292L52.4052 22.2965L52.4649 23.1932L53.2469 24.2338L53.8804 23.6806L54.6559 24.612L54.5793 25.9988L53.2746 25.826L53.0692 26.5265L51.8302 26.7596L51.0765 27.7192L50.4614 27.1274L49.8409 27.1628L49.3495 28.1382L49.4089 29.2348L49.154 30.1667L48.0692 30.5357L47.879 30.8623L48.7273 31.4182L48.4654 32.3534L48.0487 32.6702L48.0649 33.9999L47.1993 33.945L47.3019 35.102L47.0532 36.1828L46.4303 36.4877L45.9582 36.016L45.863 35.2248L45.3431 35.4215L44.7622 35.2031L44.5811 34.5961L43.8123 34.1853L41.6941 33.875L41.4957 34.0989L40.6115 33.7369L40.1126 34.6145L38.7651 33.7423L38.3157 33.8625L37.9793 34.8808L38.1369 35.1319L37.4135 36.0665L36.6779 35.741L35.227 38.1869L34.1781 39.0716L33.2343 38.8602L32.7415 39.1194L31.8959 38.6694L29.0903 37.9272L28.4196 38.3026L28.074 38.0136L26.7721 37.606L26.6993 38.2619L25.9367 38.2766L24.9782 37.9739L24.7978 36.8577L23.8345 37.143L22.4748 37.1952L22.4275 35.9676L21.4662 36.0399L21.3597 35.1933L20.6745 35.2742L19.5904 35.7514L18.903 36.2317L17.9715 36.2263L17.1462 35.9676L16.7712 34.4635L16.0132 34.639L15.7246 33.8701L15.2626 33.4033L15.4213 32.8577L16.4963 32.4453L16.3392 31.9926L15.3268 31.2003L15.1681 29.8141L14.5051 28.6273L13.6733 28.899L13.3074 28.3681L12.3093 28.6207L11.9496 27.7497L11.4746 27.2454L10.9541 27.3144L10.7121 26.4591L10.2703 26.1673L10.1269 24.7191L9.79869 24.1914L9.14447 24.2333L8.63088 23.8888L7.70552 24.2735L7.53587 24.9386L6.78663 25.332L4.90208 25.1549L4.43642 25.4271L3.78369 24.63L2.81803 25.2636L2.60394 24.7718L1.42751 25.2L1.2232 24.599L1.2552 23.6366L0.13101 23.623L0 22.414L0.650902 22.6036L0.67329 21.7336L1.39815 21.6559L1.34874 21.1228L0.863502 20.6837L0.928178 20.2023L1.55636 19.717L1.14277 18.9296L1.89218 18.6041L3.22184 17.4651L2.73827 16.4783L2.53114 15.3149L2.18819 14.7459L2.04093 13.7591L3.2973 13.7096L3.0963 12.6712L3.43162 12.5473L2.68387 11.2855L3.29348 10.6443L3.34356 10.1144L2.17625 9.49061L2.29051 8.73635L3.02019 8.29349L3.36313 7.70714L5.38018 7.27895L5.7694 6.85835L6.57569 7.73703L6.77519 6.91378L7.775 6.74803L8.1755 6.00521L8.64348 6.01715L9.03568 4.81133L10.6204 6.39318L10.5818 6.90072L9.62423 7.5974L11.2002 8.69236L12.5277 9.29065L12.9243 8.91786L12.9656 7.36697L12.4613 6.54588L13.1711 4.88305Z"/>
</mask>
<path d="M13.1711 4.88305L14.2547 4.80374L15.1039 3.95438L15.5969 4.28965L15.4643 5.1216L16.1371 5.40854L16.4913 4.96729L16.5636 4.13588L17.0249 3.98696L17.3739 3.24796L18.2601 2.82898L18.8301 3.46044L19.7033 3.86636L21.5337 4.47008L22.4297 3.63701L23.3915 3.20012L24.4305 3.68104L25.1966 2.83984L26.6823 2.52956L26.7644 2.00138L27.3198 1.17647L28.2017 1.30363L29.2256 0.754798L29.5483 1.05857L30.8362 1.20964L31.24 0.936304L31.7415 0.0787716L32.3909 0L33.5146 0.911304L33.626 1.39766L34.4847 1.83617L34.4184 2.31816L34.8199 2.77736L35.4122 2.4964L35.7084 1.65089L37.7157 0.66732L38.0793 0.606458L38.3971 2.31547L39.0264 2.17036L40.5377 1.19986L41.7881 1.88563L40.731 3.28544L40.868 4.18476L40.0486 5.1966L39.6785 5.26182L39.2553 6.33017L38.42 6.79911L38.5851 7.72836L39.3226 7.8767L40.2007 7.45337L41.432 8.38043L42.2108 7.90062L42.602 8.45924L43.1063 8.63963L43.3944 9.32216L42.959 9.59496L42.9363 10.4117L43.7502 11.1774L43.3564 12.2076L44.4302 12.6092L43.8851 13.5999L43.4562 14.9263L44.1378 15.0366L45.0665 14.6155L45.5212 14.8845L45.7646 15.6991L46.6912 16.7522L46.6993 17.0999L47.4656 17.8537L49.5936 19.204L49.0289 20.5973L49.587 20.7859L49.9951 21.2886L50.9634 21.3483L50.4641 22.1357L51.2743 22.4292L52.4052 22.2965L52.4649 23.1932L53.2469 24.2338L53.8804 23.6806L54.6559 24.612L54.5793 25.9988L53.2746 25.826L53.0692 26.5265L51.8302 26.7596L51.0765 27.7192L50.4614 27.1274L49.8409 27.1628L49.3495 28.1382L49.4089 29.2348L49.154 30.1667L48.0692 30.5357L47.879 30.8623L48.7273 31.4182L48.4654 32.3534L48.0487 32.6702L48.0649 33.9999L47.1993 33.945L47.3019 35.102L47.0532 36.1828L46.4303 36.4877L45.9582 36.016L45.863 35.2248L45.3431 35.4215L44.7622 35.2031L44.5811 34.5961L43.8123 34.1853L41.6941 33.875L41.4957 34.0989L40.6115 33.7369L40.1126 34.6145L38.7651 33.7423L38.3157 33.8625L37.9793 34.8808L38.1369 35.1319L37.4135 36.0665L36.6779 35.741L35.227 38.1869L34.1781 39.0716L33.2343 38.8602L32.7415 39.1194L31.8959 38.6694L29.0903 37.9272L28.4196 38.3026L28.074 38.0136L26.7721 37.606L26.6993 38.2619L25.9367 38.2766L24.9782 37.9739L24.7978 36.8577L23.8345 37.143L22.4748 37.1952L22.4275 35.9676L21.4662 36.0399L21.3597 35.1933L20.6745 35.2742L19.5904 35.7514L18.903 36.2317L17.9715 36.2263L17.1462 35.9676L16.7712 34.4635L16.0132 34.639L15.7246 33.8701L15.2626 33.4033L15.4213 32.8577L16.4963 32.4453L16.3392 31.9926L15.3268 31.2003L15.1681 29.8141L14.5051 28.6273L13.6733 28.899L13.3074 28.3681L12.3093 28.6207L11.9496 27.7497L11.4746 27.2454L10.9541 27.3144L10.7121 26.4591L10.2703 26.1673L10.1269 24.7191L9.79869 24.1914L9.14447 24.2333L8.63088 23.8888L7.70552 24.2735L7.53587 24.9386L6.78663 25.332L4.90208 25.1549L4.43642 25.4271L3.78369 24.63L2.81803 25.2636L2.60394 24.7718L1.42751 25.2L1.2232 24.599L1.2552 23.6366L0.13101 23.623L0 22.414L0.650902 22.6036L0.67329 21.7336L1.39815 21.6559L1.34874 21.1228L0.863502 20.6837L0.928178 20.2023L1.55636 19.717L1.14277 18.9296L1.89218 18.6041L3.22184 17.4651L2.73827 16.4783L2.53114 15.3149L2.18819 14.7459L2.04093 13.7591L3.2973 13.7096L3.0963 12.6712L3.43162 12.5473L2.68387 11.2855L3.29348 10.6443L3.34356 10.1144L2.17625 9.49061L2.29051 8.73635L3.02019 8.29349L3.36313 7.70714L5.38018 7.27895L5.7694 6.85835L6.57569 7.73703L6.77519 6.91378L7.775 6.74803L8.1755 6.00521L8.64348 6.01715L9.03568 4.81133L10.6204 6.39318L10.5818 6.90072L9.62423 7.5974L11.2002 8.69236L12.5277 9.29065L12.9243 8.91786L12.9656 7.36697L12.4613 6.54588L13.1711 4.88305Z" fill="#F2F2F2" stroke="#07122B" mask="url(#path-1-inside-1_81_145)"/>
</svg>
