<svg width="58" height="72" viewBox="0 0 58 72" fill="none" xmlns="http://www.w3.org/2000/svg">
<mask id="path-1-inside-1_81_118" fill="white">
<path d="M20.3761 12.6391L22.7502 12.919L23.0758 13.1184L24.1968 12.8098L24.851 11.8023L25.5004 12.4984L25.2863 13.2874L25.4348 14.0944L27.4012 14.6514L28.5224 14.4085L30.1634 14.853L31.1801 15.6539L30.8216 16.7821L31.4785 16.8272L31.5508 17.251L30.971 18.8644L31.6328 19.811L32.1854 21.9129L33.0728 20.8598L34.0119 21.0304L35.1378 21.9608L36.3361 22.3797L36.9903 23.6133L37.4304 24.1143L38.0934 24.0589L38.739 24.5099L39.5904 24.793L41.2544 25.0571L41.7048 24.3267L42.8793 23.4405L43.8421 24.0833L44.0861 24.5327L45.0088 24.4082L45.55 23.7306L46.3472 23.5263L48.115 23.729L48.8241 24.7751L48.8812 25.526L49.1893 26.1097L48.4795 27.7274L48.1231 27.8986L47.815 28.9419L47.8525 30.1771L47.5845 31.0286L47.1787 30.7612L46.6107 32.5246L47.7324 34.2238L46.6021 35.9008L46.1064 37.13L46.546 37.7761L47.3243 37.6092L47.8661 38.0924L48.3187 38.8955L49.3767 39.0113L49.5463 38.5233L50.3977 38.4537L51.0063 38.7358L51.8825 38.6428L53.6637 38.9792L54.1305 38.0875L54.8065 37.7669L55.8297 36.6485L56.7475 36.6621L57.85 37.4897L57.055 38.9743L56.2127 38.8015L56.5872 40.0981L56.4704 40.9051L56.7296 41.4599L57.4366 42.1261L56.3449 42.6706L55.5199 42.6304L55.338 42.0815L54.8303 42.0081L54.2222 43.252L54.5716 44.0737L53.9126 44.1606L53.6527 43.1433L53.2828 42.8091L52.3111 43.7302L51.565 43.6732L51.4412 44.8572L50.445 44.8078L50.275 46.0859L51.6856 47.133L52.4302 46.9032L53.2333 47.421L52.6992 48.0927L52.678 48.5981L51.6173 49.1262L52.2025 49.7517L51.4514 50.1381L50.6374 51.0113L49.5125 51.3564L49.6583 51.7906L49.0246 53.2078L47.8716 52.9084L46.9548 53.717L47.1515 54.1675L46.2587 54.8049L45.8147 56.0971L46.0006 57.7409L46.664 57.9441L46.7792 58.4326L46.151 59.1293L46.1651 60.2357L46.9406 61.1144L47.3683 62.03L47.0389 62.5886L46.3902 62.2615L45.7386 62.6729L44.2529 62.9728L43.571 63.2647L43.3189 64.0852L44.2882 64.9253L45.2033 66.2072L45.2756 67.4961L44.5219 67.7869L44.328 68.3015L43.503 68.8161L43.2249 69.3095L42.5032 69.5872L42.0516 69.2791L41.3022 69.8105L40.3637 69.0541L40.042 68.2004L39.2405 67.5413L38.9916 67.8564L38.1521 67.8331L38.0646 68.3172L38.25 70.8664L36.4605 71.487L35.0351 70.9984L32.129 70.7121L31.8725 69.3128L32.3768 66.7175L31.567 66.6685L30.6183 65.7497L30.5607 64.8557L28.8447 64.7416L27.4067 64.0113L27.0129 62.6951L25.8076 62.1664L25.4532 61.7746L22.9161 60.7992L23.4225 60.2129L23.3486 58.6522L22.8242 58.293L21.5657 57.9202L21.363 58.5892L20.7358 58.656L19.5594 58.4772L17.8433 58.788L17.7374 59.413L17.0744 59.4515L16.5913 59.8124L15.3344 59.877L12.8761 58.9538L12.6124 58.6245L10.8002 59.3488L8.54564 59.6988L9.36619 58.9815L10.3416 56.5959L9.95623 55.0902L8.64614 55.3363L6.48713 54.0349L5.68084 55.5662L2.23827 56.7726L0.268984 57.3888L0.400491 55.9667L0.0940284 54.7L0.417241 53.0991L1.35305 51.6428L1.84209 50.5321L2.12368 49.3496L2.0867 48.4888L2.39963 47.5955L2.93213 47.2303L4.06909 47.2787L4.52978 48.0612L5.89643 48.0405L6.89144 48.2682L8.56521 47.6362L8.93353 46.9396L8.45543 46.4511L7.76141 46.2685L8.00601 45.549L6.09808 43.4721L3.40227 41.5539L3.00277 42.3114L3.25003 42.989L2.61107 43.4525L2.08836 44.4383L1.36449 44.9409L0.890036 46.2674L0.74178 48.2275L0.287392 49.4278L0 48.7627L0.135321 46.6771L0.554718 43.1868L1.37311 37.2876L1.97194 31.8127L2.692 23.3975L3.27623 18.0732L3.66197 14.2117L3.7691 10.6769L3.72233 8.02289L4.06296 6.62958L3.90226 5.25421L4.03211 4.40758L4.74719 2.93441L5.90571 1.43352L6.29045 0.162477L6.91316 0L7.77666 1.58839L7.33985 1.64979L6.98381 2.52467L7.19856 3.00885L8.65376 4.17284L10.6643 5.98511L12.1479 6.74478L13.1782 8.39838L14.065 8.88309L15.2361 9.81994L16.8691 11.7142L18.1737 14.6198L18.9334 17.4689L18.9632 19.0997L19.7224 21.5195L20.099 22.3699L21.0967 25.213L21.3771 25.7478L22.2791 26.7362L22.49 27.2916L23.2154 27.3188L23.7464 27.7491L24.1414 27.1258L23.0008 25.8564L22.665 24.6968L21.8454 22.9905L21.8177 21.069L21.1917 18.6014L20.7881 15.8941L20.1208 12.6261L20.3761 12.6391Z"/>
</mask>
<path d="M20.3761 12.6391L22.7502 12.919L23.0758 13.1184L24.1968 12.8098L24.851 11.8023L25.5004 12.4984L25.2863 13.2874L25.4348 14.0944L27.4012 14.6514L28.5224 14.4085L30.1634 14.853L31.1801 15.6539L30.8216 16.7821L31.4785 16.8272L31.5508 17.251L30.971 18.8644L31.6328 19.811L32.1854 21.9129L33.0728 20.8598L34.0119 21.0304L35.1378 21.9608L36.3361 22.3797L36.9903 23.6133L37.4304 24.1143L38.0934 24.0589L38.739 24.5099L39.5904 24.793L41.2544 25.0571L41.7048 24.3267L42.8793 23.4405L43.8421 24.0833L44.0861 24.5327L45.0088 24.4082L45.55 23.7306L46.3472 23.5263L48.115 23.729L48.8241 24.7751L48.8812 25.526L49.1893 26.1097L48.4795 27.7274L48.1231 27.8986L47.815 28.9419L47.8525 30.1771L47.5845 31.0286L47.1787 30.7612L46.6107 32.5246L47.7324 34.2238L46.6021 35.9008L46.1064 37.13L46.546 37.7761L47.3243 37.6092L47.8661 38.0924L48.3187 38.8955L49.3767 39.0113L49.5463 38.5233L50.3977 38.4537L51.0063 38.7358L51.8825 38.6428L53.6637 38.9792L54.1305 38.0875L54.8065 37.7669L55.8297 36.6485L56.7475 36.6621L57.85 37.4897L57.055 38.9743L56.2127 38.8015L56.5872 40.0981L56.4704 40.9051L56.7296 41.4599L57.4366 42.1261L56.3449 42.6706L55.5199 42.6304L55.338 42.0815L54.8303 42.0081L54.2222 43.252L54.5716 44.0737L53.9126 44.1606L53.6527 43.1433L53.2828 42.8091L52.3111 43.7302L51.565 43.6732L51.4412 44.8572L50.445 44.8078L50.275 46.0859L51.6856 47.133L52.4302 46.9032L53.2333 47.421L52.6992 48.0927L52.678 48.5981L51.6173 49.1262L52.2025 49.7517L51.4514 50.1381L50.6374 51.0113L49.5125 51.3564L49.6583 51.7906L49.0246 53.2078L47.8716 52.9084L46.9548 53.717L47.1515 54.1675L46.2587 54.8049L45.8147 56.0971L46.0006 57.7409L46.664 57.9441L46.7792 58.4326L46.151 59.1293L46.1651 60.2357L46.9406 61.1144L47.3683 62.03L47.0389 62.5886L46.3902 62.2615L45.7386 62.6729L44.2529 62.9728L43.571 63.2647L43.3189 64.0852L44.2882 64.9253L45.2033 66.2072L45.2756 67.4961L44.5219 67.7869L44.328 68.3015L43.503 68.8161L43.2249 69.3095L42.5032 69.5872L42.0516 69.2791L41.3022 69.8105L40.3637 69.0541L40.042 68.2004L39.2405 67.5413L38.9916 67.8564L38.1521 67.8331L38.0646 68.3172L38.25 70.8664L36.4605 71.487L35.0351 70.9984L32.129 70.7121L31.8725 69.3128L32.3768 66.7175L31.567 66.6685L30.6183 65.7497L30.5607 64.8557L28.8447 64.7416L27.4067 64.0113L27.0129 62.6951L25.8076 62.1664L25.4532 61.7746L22.9161 60.7992L23.4225 60.2129L23.3486 58.6522L22.8242 58.293L21.5657 57.9202L21.363 58.5892L20.7358 58.656L19.5594 58.4772L17.8433 58.788L17.7374 59.413L17.0744 59.4515L16.5913 59.8124L15.3344 59.877L12.8761 58.9538L12.6124 58.6245L10.8002 59.3488L8.54564 59.6988L9.36619 58.9815L10.3416 56.5959L9.95623 55.0902L8.64614 55.3363L6.48713 54.0349L5.68084 55.5662L2.23827 56.7726L0.268984 57.3888L0.400491 55.9667L0.0940284 54.7L0.417241 53.0991L1.35305 51.6428L1.84209 50.5321L2.12368 49.3496L2.0867 48.4888L2.39963 47.5955L2.93213 47.2303L4.06909 47.2787L4.52978 48.0612L5.89643 48.0405L6.89144 48.2682L8.56521 47.6362L8.93353 46.9396L8.45543 46.4511L7.76141 46.2685L8.00601 45.549L6.09808 43.4721L3.40227 41.5539L3.00277 42.3114L3.25003 42.989L2.61107 43.4525L2.08836 44.4383L1.36449 44.9409L0.890036 46.2674L0.74178 48.2275L0.287392 49.4278L0 48.7627L0.135321 46.6771L0.554718 43.1868L1.37311 37.2876L1.97194 31.8127L2.692 23.3975L3.27623 18.0732L3.66197 14.2117L3.7691 10.6769L3.72233 8.02289L4.06296 6.62958L3.90226 5.25421L4.03211 4.40758L4.74719 2.93441L5.90571 1.43352L6.29045 0.162477L6.91316 0L7.77666 1.58839L7.33985 1.64979L6.98381 2.52467L7.19856 3.00885L8.65376 4.17284L10.6643 5.98511L12.1479 6.74478L13.1782 8.39838L14.065 8.88309L15.2361 9.81994L16.8691 11.7142L18.1737 14.6198L18.9334 17.4689L18.9632 19.0997L19.7224 21.5195L20.099 22.3699L21.0967 25.213L21.3771 25.7478L22.2791 26.7362L22.49 27.2916L23.2154 27.3188L23.7464 27.7491L24.1414 27.1258L23.0008 25.8564L22.665 24.6968L21.8454 22.9905L21.8177 21.069L21.1917 18.6014L20.7881 15.8941L20.1208 12.6261L20.3761 12.6391Z" fill="#F2F2F2" stroke="#07122B" mask="url(#path-1-inside-1_81_118)"/>
</svg>
