<svg width="61" height="39" viewBox="0 0 61 39" fill="none" xmlns="http://www.w3.org/2000/svg">
<mask id="path-1-inside-1_81_110" fill="white">
<path d="M0.84012 28.0013L1.41723 27.9659L2.36663 27.2589L2.659 27.2682L3.69248 26.195L3.66479 25.6396L4.48368 25.8771L4.10707 24.2376L4.33376 23.8947L4.04903 22.6031L2.66663 20.6886L3.27076 19.786L2.62202 19.0002L3.14738 18.4139L4.02349 16.4876L5.27272 16.3897L6.51217 16.6886L7.19591 17.3744L7.78379 18.2851L8.84083 17.6461L9.26354 17.7412L9.91295 17.1559L10.5149 17.0978L11.167 16.6543L12.1686 16.694L12.3806 16.0599L13.4005 16.2109L13.8558 15.7643L13.8363 14.5525L14.427 14.1634L15.1976 14.0851L16.2855 13.4325L17.6326 14.1688L18.4748 14.0313L19.0763 14.2655L19.3894 13.5526L18.872 13.1483L19.0231 11.9501L18.777 11.5528L19.6334 10.3998L18.934 9.67539L18.6216 8.71355L19.0514 8.30435L18.9584 7.84461L19.2329 6.97954L19.9539 6.95889L20.9343 7.34906L21.3473 7.79735L22.3652 8.09623L22.6041 7.90606L23.5834 8.14295L24.4849 8.15601L25.3023 7.51804L25.9978 7.28766L26.1021 6.64152L25.4789 5.84216L25.7799 4.98902L26.4124 4.61407L26.5286 4.05599L26.99 3.76852L28.6012 4.16196L29.4282 3.93099L29.5185 3.37184L30.0435 2.97354L30.9612 3.14581L32.2643 2.94146L33.0658 3.84136L32.741 5.07488L33.1919 5.2743L33.8978 5.10423L34.663 4.07718L35.8383 3.98099L36.1502 5.51016L36.5464 5.99597L37.8789 6.39916L38.8977 6.01608L38.0331 5.44113L38.1886 5.0624L39.8231 2.81973L41.5876 3.16479L42.0076 1.2846L42.807 0.503185L43.2547 0.568399L43.7982 0L44.2531 0.270062L45.2154 0.150537L45.8235 0.620015L46.1995 1.45251L47.0749 1.5096L47.4031 2.41112L46.3076 4.13426L46.4723 4.74176L48.2394 5.33682L48.4334 4.84665L49.9017 4.82708L50.7347 4.64234L50.8347 5.82317L51.402 6.0628L52.1634 6.02748L52.6753 6.51711L52.8899 7.28165L52.2803 7.96853L52.7574 8.71516L53.7333 8.1272L54.3783 8.39672L55.695 9.63464L55.6766 10.2057L56.1721 10.5427L56.8345 10.4101L57.1089 11.167L57.9789 12.0077L58.4072 11.8224L59.025 12.1153L59.282 12.9826L59.7281 13.5488L59.7319 14.5829L60.8715 16.2457L60.8341 16.8647L59.9004 18.5514L59.2011 19.1225L59.2381 19.7246L58.3397 19.548L57.3199 19.7393L57.728 20.6028L57.4268 21.3049L55.8418 21.1451L53.9861 21.4244L52.4101 22.0906L49.6153 23.6508L48.0172 24.9354L46.2159 27.0758L44.5884 27.8475L43.8781 28.4034L43.7655 29.2218L42.3327 29.5489L41.1931 29.5429L40.6443 29.8809L39.0254 31.4133L36.4165 34.4885L35.5971 35.6486L34.089 35.453L32.7262 34.7232L31.2068 34.9667L29.8342 35.6003L26.7546 37.6152L25.6989 38.645L24.3593 37.1707L23.7578 36.6947L23.2889 37.0805L22.6385 37.1435L22.133 36.8392L22.0449 36.2692L21.3055 36.1638L20.9262 36.5817L19.9577 36.0328L19.7491 36.1746L18.8384 35.2357L17.013 34.9716L16.9853 33.2098L14.8406 33.6114L13.9389 32.8963L13.6733 33.2207L12.668 32.6996L12.8577 32.1366L12.7908 30.9101L11.6333 30.2618L12.0403 31.1998L12.2593 32.1736L11.9958 32.7121L10.9682 33.062L9.93252 33.0272L10.1362 33.7435L9.35326 34.3303L8.97001 34.9438L9.00699 35.6177L8.44133 36.3551L7.71746 36.5105L7.2241 35.904L5.74004 35.2253L6.03407 34.5059L5.7233 34.0929L5.56559 33.1963L4.96128 33.8668L4.04952 34.5189L3.27623 34.3841L2.76928 34.8705L1.78886 33.2984L1.56615 32.5224L0.463011 32.3148L0 31.8198L0.514088 30.8829L0.31575 30.2374L1.35968 28.5121L0.84012 28.0013Z"/>
</mask>
<path d="M0.84012 28.0013L1.41723 27.9659L2.36663 27.2589L2.659 27.2682L3.69248 26.195L3.66479 25.6396L4.48368 25.8771L4.10707 24.2376L4.33376 23.8947L4.04903 22.6031L2.66663 20.6886L3.27076 19.786L2.62202 19.0002L3.14738 18.4139L4.02349 16.4876L5.27272 16.3897L6.51217 16.6886L7.19591 17.3744L7.78379 18.2851L8.84083 17.6461L9.26354 17.7412L9.91295 17.1559L10.5149 17.0978L11.167 16.6543L12.1686 16.694L12.3806 16.0599L13.4005 16.2109L13.8558 15.7643L13.8363 14.5525L14.427 14.1634L15.1976 14.0851L16.2855 13.4325L17.6326 14.1688L18.4748 14.0313L19.0763 14.2655L19.3894 13.5526L18.872 13.1483L19.0231 11.9501L18.777 11.5528L19.6334 10.3998L18.934 9.67539L18.6216 8.71355L19.0514 8.30435L18.9584 7.84461L19.2329 6.97954L19.9539 6.95889L20.9343 7.34906L21.3473 7.79735L22.3652 8.09623L22.6041 7.90606L23.5834 8.14295L24.4849 8.15601L25.3023 7.51804L25.9978 7.28766L26.1021 6.64152L25.4789 5.84216L25.7799 4.98902L26.4124 4.61407L26.5286 4.05599L26.99 3.76852L28.6012 4.16196L29.4282 3.93099L29.5185 3.37184L30.0435 2.97354L30.9612 3.14581L32.2643 2.94146L33.0658 3.84136L32.741 5.07488L33.1919 5.2743L33.8978 5.10423L34.663 4.07718L35.8383 3.98099L36.1502 5.51016L36.5464 5.99597L37.8789 6.39916L38.8977 6.01608L38.0331 5.44113L38.1886 5.0624L39.8231 2.81973L41.5876 3.16479L42.0076 1.2846L42.807 0.503185L43.2547 0.568399L43.7982 0L44.2531 0.270062L45.2154 0.150537L45.8235 0.620015L46.1995 1.45251L47.0749 1.5096L47.4031 2.41112L46.3076 4.13426L46.4723 4.74176L48.2394 5.33682L48.4334 4.84665L49.9017 4.82708L50.7347 4.64234L50.8347 5.82317L51.402 6.0628L52.1634 6.02748L52.6753 6.51711L52.8899 7.28165L52.2803 7.96853L52.7574 8.71516L53.7333 8.1272L54.3783 8.39672L55.695 9.63464L55.6766 10.2057L56.1721 10.5427L56.8345 10.4101L57.1089 11.167L57.9789 12.0077L58.4072 11.8224L59.025 12.1153L59.282 12.9826L59.7281 13.5488L59.7319 14.5829L60.8715 16.2457L60.8341 16.8647L59.9004 18.5514L59.2011 19.1225L59.2381 19.7246L58.3397 19.548L57.3199 19.7393L57.728 20.6028L57.4268 21.3049L55.8418 21.1451L53.9861 21.4244L52.4101 22.0906L49.6153 23.6508L48.0172 24.9354L46.2159 27.0758L44.5884 27.8475L43.8781 28.4034L43.7655 29.2218L42.3327 29.5489L41.1931 29.5429L40.6443 29.8809L39.0254 31.4133L36.4165 34.4885L35.5971 35.6486L34.089 35.453L32.7262 34.7232L31.2068 34.9667L29.8342 35.6003L26.7546 37.6152L25.6989 38.645L24.3593 37.1707L23.7578 36.6947L23.2889 37.0805L22.6385 37.1435L22.133 36.8392L22.0449 36.2692L21.3055 36.1638L20.9262 36.5817L19.9577 36.0328L19.7491 36.1746L18.8384 35.2357L17.013 34.9716L16.9853 33.2098L14.8406 33.6114L13.9389 32.8963L13.6733 33.2207L12.668 32.6996L12.8577 32.1366L12.7908 30.9101L11.6333 30.2618L12.0403 31.1998L12.2593 32.1736L11.9958 32.7121L10.9682 33.062L9.93252 33.0272L10.1362 33.7435L9.35326 34.3303L8.97001 34.9438L9.00699 35.6177L8.44133 36.3551L7.71746 36.5105L7.2241 35.904L5.74004 35.2253L6.03407 34.5059L5.7233 34.0929L5.56559 33.1963L4.96128 33.8668L4.04952 34.5189L3.27623 34.3841L2.76928 34.8705L1.78886 33.2984L1.56615 32.5224L0.463011 32.3148L0 31.8198L0.514088 30.8829L0.31575 30.2374L1.35968 28.5121L0.84012 28.0013Z" fill="#F2F2F2" stroke="#07122B" mask="url(#path-1-inside-1_81_110)"/>
</svg>
