<svg width="47" height="60" viewBox="0 0 47 60" fill="none" xmlns="http://www.w3.org/2000/svg">
<mask id="path-1-inside-1_81_143" fill="white">
<path d="M0 31.5666L0.120064 30.9976L0.738463 30.5466L1.22652 30.9444L1.42651 30.1276L2.16995 29.8016L2.45618 28.3827L2.32152 27.4198L3.80939 27.3024L3.55119 26.4775L3.69298 25.25L4.96361 24.6028L6.77038 24.6588L7.82791 23.1725L7.63653 22.7237L8.62507 22.4427L8.71297 22.8748L10.065 23.4725L10.5156 23.1894L10.6531 22.509L11.4866 22.3819L12.1593 22.5101L12.2811 21.476L11.8066 19.9643L12.567 19.9947L13.2026 19.7382L13.0565 18.9747L12.5278 18.6307L12.5734 17.8895L13.0293 17.025L12.9315 15.7077L12.3393 15.1144L12.4799 14.2226L13.2315 13.8585L13.3945 13.395L13.2169 12.5929L13.9363 12.2658L13.5043 11.6789L13.8406 10.9089L13.4689 8.81407L13.1005 8.41412L12.5675 9.0135L12.0388 8.47227L11.2715 7.20559L11.3806 6.05193L10.1254 5.77371L10.3285 5.15205L9.88791 4.59017L10.0998 4.25814L9.42821 2.87409L10.7128 2.25188L11.6083 0.946617L12.4842 1.05856L12.8756 0.403207L14.0575 0.634702L14.7291 0.0782534L15.0666 0.335826L16.1485 0L16.6072 1.23842L15.6845 1.87584L15.3024 3.09199L16.0153 4.45485L16.5452 4.91078L18.8601 5.48081L22.9156 5.12108L26.4037 4.21087L26.5978 4.87654L27.3916 5.33572L27.6443 5.74219L27.384 6.39428L27.848 6.73717L28.317 7.53054L27.8007 8.67496L28.3181 9.3314L29.6702 11.9751L30.8123 11.9262L31.4171 12.4723L31.1932 12.8016L31.8949 13.4483L32.7763 13.3407L33.3875 13.6493L34.7434 12.738L34.5706 12.2413L35.1966 11.8485L35.5986 11.2377L36.3638 11.2991L37.5061 9.90741L37.4104 9.34661L38.1636 8.80809L39.4307 9.18087L39.9699 9.06078L40.3345 9.63843L41.1778 9.50637L42.011 10.2525L43.1108 10.034L43.5623 10.472L44.8622 10.753L44.5688 11.8778L45.0903 13.0641L44.9431 14.0721L44.4519 14.5209L44.4726 15.9496L44.9137 16.4951L45.493 17.858L45.0724 18.4645L45.3801 20.1001L45.786 20.7973L45.2898 21.563L44.3922 22.4808L43.7521 24.1094L43.7927 25.1408L44.4741 26.8003L44.2292 27.3389L44.7268 27.8404L44.5557 28.9979L44.7796 30.1396L45.223 30.633L45.2583 31.9899L45.455 32.5208L45.6126 33.9559L45.9441 34.6064L46.6587 35.152L46.2001 36.0192L46.462 36.4094L46.2348 37.206L46.8305 38.4646L46.5973 39.2378L45.4235 39.803L44.8273 39.922L44.122 39.5987L43.2592 39.5324L42.5652 40.6458L41.9745 40.6757L41.5332 41.1958L41.2778 42.4603L41.4191 42.8282L40.9866 43.7661L40.9508 44.5497L40.1992 45.0192L40.1813 45.6636L40.4742 46.2304L39.9651 46.7717L39.2173 47.0455L39.5612 47.4939L39.2314 48.8567L38.644 49.3844L38.382 51.1917L33.999 49.968L33.5181 49.3659L33.3794 48.6372L32.9414 48.3138L32.4942 48.573L31.841 48.1253L31.2406 48.2459L29.7587 47.9813L30.201 49.3262L30.0853 49.7528L28.2704 50.2739L27.9399 50.7614L26.5596 51.0863L25.8314 51.0303L25.1266 51.9802L24.6018 51.8835L23.9882 53.2659L23.8617 53.9642L23.1079 54.8989L22.0542 54.6657L21.2463 54.9402L20.5663 55.4455L19.7393 54.9902L19.0367 55.4955L18.0918 55.3548L16.9087 54.8255L16.443 55.0945L15.6714 54.9777L15.11 55.6433L14.3329 55.6379L12.9651 56.1183L12.3121 56.891L11.7088 56.8399L11.7262 55.9498L10.1156 57.2529L9.1511 57.0508L8.74564 57.4811L8.5929 58.168L7.55511 58.1463L7.02576 59.1543L7.09641 58.4001L6.38183 58.1332L6.80189 57.1529L6.72958 56.6579L6.06657 56.3427L6.24866 54.8913L5.73739 54.1881L6.4606 53.8256L6.6198 53.3556L8.43751 53.3273L8.30883 52.5877L7.49856 52.6595L7.42791 51.9547L5.85198 52.0063L7.85344 50.5244L7.99523 49.2686L8.85326 48.8947L9.26735 48.1476L8.82391 47.9215L8.58809 46.9494L7.2105 47.4993L6.82311 47.4884L6.69376 46.7059L7.05843 46.5293L6.30256 45.5169L6.6921 44.5018L7.42741 44.2204L7.70071 43.4145L7.02029 42.5369L6.90188 41.8391L5.25962 39.8014L4.20441 40.0519L3.67789 39.5541L2.03181 38.9939L1.21938 39.046L0.155387 39.4242L0 38.7879L0.428186 38.4282L0.292864 37.4544L1.596 36.0366L3.44854 36.0915L4.319 35.4161L4.37937 34.714L3.655 34.4586L2.49814 34.4602L2.01606 34.7537L1.94491 35.4324L1.14874 35.4438L1.09119 34.9074L1.40363 34.2782L1.24658 33.0517L0 31.5666ZM10.3579 7.45664L9.46403 8.1848L8.94132 8.91624L8.6065 8.23209L8.93585 7.66585L8.43702 7.33166L7.7566 7.48218L7.08828 7.28981L6.59758 6.6073L6.11019 6.3633L6.03506 5.5183L5.61069 5.01837L5.45315 4.27662L6.2873 3.49846L7.05992 3.77995L8.49406 3.41912L8.57184 4.18098L9.48907 4.32172L9.45209 5.44874L10.0471 6.33614L10.691 6.53883L10.3579 7.45664Z"/>
</mask>
<path d="M0 31.5666L0.120064 30.9976L0.738463 30.5466L1.22652 30.9444L1.42651 30.1276L2.16995 29.8016L2.45618 28.3827L2.32152 27.4198L3.80939 27.3024L3.55119 26.4775L3.69298 25.25L4.96361 24.6028L6.77038 24.6588L7.82791 23.1725L7.63653 22.7237L8.62507 22.4427L8.71297 22.8748L10.065 23.4725L10.5156 23.1894L10.6531 22.509L11.4866 22.3819L12.1593 22.5101L12.2811 21.476L11.8066 19.9643L12.567 19.9947L13.2026 19.7382L13.0565 18.9747L12.5278 18.6307L12.5734 17.8895L13.0293 17.025L12.9315 15.7077L12.3393 15.1144L12.4799 14.2226L13.2315 13.8585L13.3945 13.395L13.2169 12.5929L13.9363 12.2658L13.5043 11.6789L13.8406 10.9089L13.4689 8.81407L13.1005 8.41412L12.5675 9.0135L12.0388 8.47227L11.2715 7.20559L11.3806 6.05193L10.1254 5.77371L10.3285 5.15205L9.88791 4.59017L10.0998 4.25814L9.42821 2.87409L10.7128 2.25188L11.6083 0.946617L12.4842 1.05856L12.8756 0.403207L14.0575 0.634702L14.7291 0.0782534L15.0666 0.335826L16.1485 0L16.6072 1.23842L15.6845 1.87584L15.3024 3.09199L16.0153 4.45485L16.5452 4.91078L18.8601 5.48081L22.9156 5.12108L26.4037 4.21087L26.5978 4.87654L27.3916 5.33572L27.6443 5.74219L27.384 6.39428L27.848 6.73717L28.317 7.53054L27.8007 8.67496L28.3181 9.3314L29.6702 11.9751L30.8123 11.9262L31.4171 12.4723L31.1932 12.8016L31.8949 13.4483L32.7763 13.3407L33.3875 13.6493L34.7434 12.738L34.5706 12.2413L35.1966 11.8485L35.5986 11.2377L36.3638 11.2991L37.5061 9.90741L37.4104 9.34661L38.1636 8.80809L39.4307 9.18087L39.9699 9.06078L40.3345 9.63843L41.1778 9.50637L42.011 10.2525L43.1108 10.034L43.5623 10.472L44.8622 10.753L44.5688 11.8778L45.0903 13.0641L44.9431 14.0721L44.4519 14.5209L44.4726 15.9496L44.9137 16.4951L45.493 17.858L45.0724 18.4645L45.3801 20.1001L45.786 20.7973L45.2898 21.563L44.3922 22.4808L43.7521 24.1094L43.7927 25.1408L44.4741 26.8003L44.2292 27.3389L44.7268 27.8404L44.5557 28.9979L44.7796 30.1396L45.223 30.633L45.2583 31.9899L45.455 32.5208L45.6126 33.9559L45.9441 34.6064L46.6587 35.152L46.2001 36.0192L46.462 36.4094L46.2348 37.206L46.8305 38.4646L46.5973 39.2378L45.4235 39.803L44.8273 39.922L44.122 39.5987L43.2592 39.5324L42.5652 40.6458L41.9745 40.6757L41.5332 41.1958L41.2778 42.4603L41.4191 42.8282L40.9866 43.7661L40.9508 44.5497L40.1992 45.0192L40.1813 45.6636L40.4742 46.2304L39.9651 46.7717L39.2173 47.0455L39.5612 47.4939L39.2314 48.8567L38.644 49.3844L38.382 51.1917L33.999 49.968L33.5181 49.3659L33.3794 48.6372L32.9414 48.3138L32.4942 48.573L31.841 48.1253L31.2406 48.2459L29.7587 47.9813L30.201 49.3262L30.0853 49.7528L28.2704 50.2739L27.9399 50.7614L26.5596 51.0863L25.8314 51.0303L25.1266 51.9802L24.6018 51.8835L23.9882 53.2659L23.8617 53.9642L23.1079 54.8989L22.0542 54.6657L21.2463 54.9402L20.5663 55.4455L19.7393 54.9902L19.0367 55.4955L18.0918 55.3548L16.9087 54.8255L16.443 55.0945L15.6714 54.9777L15.11 55.6433L14.3329 55.6379L12.9651 56.1183L12.3121 56.891L11.7088 56.8399L11.7262 55.9498L10.1156 57.2529L9.1511 57.0508L8.74564 57.4811L8.5929 58.168L7.55511 58.1463L7.02576 59.1543L7.09641 58.4001L6.38183 58.1332L6.80189 57.1529L6.72958 56.6579L6.06657 56.3427L6.24866 54.8913L5.73739 54.1881L6.4606 53.8256L6.6198 53.3556L8.43751 53.3273L8.30883 52.5877L7.49856 52.6595L7.42791 51.9547L5.85198 52.0063L7.85344 50.5244L7.99523 49.2686L8.85326 48.8947L9.26735 48.1476L8.82391 47.9215L8.58809 46.9494L7.2105 47.4993L6.82311 47.4884L6.69376 46.7059L7.05843 46.5293L6.30256 45.5169L6.6921 44.5018L7.42741 44.2204L7.70071 43.4145L7.02029 42.5369L6.90188 41.8391L5.25962 39.8014L4.20441 40.0519L3.67789 39.5541L2.03181 38.9939L1.21938 39.046L0.155387 39.4242L0 38.7879L0.428186 38.4282L0.292864 37.4544L1.596 36.0366L3.44854 36.0915L4.319 35.4161L4.37937 34.714L3.655 34.4586L2.49814 34.4602L2.01606 34.7537L1.94491 35.4324L1.14874 35.4438L1.09119 34.9074L1.40363 34.2782L1.24658 33.0517L0 31.5666ZM10.3579 7.45664L9.46403 8.1848L8.94132 8.91624L8.6065 8.23209L8.93585 7.66585L8.43702 7.33166L7.7566 7.48218L7.08828 7.28981L6.59758 6.6073L6.11019 6.3633L6.03506 5.5183L5.61069 5.01837L5.45315 4.27662L6.2873 3.49846L7.05992 3.77995L8.49406 3.41912L8.57184 4.18098L9.48907 4.32172L9.45209 5.44874L10.0471 6.33614L10.691 6.53883L10.3579 7.45664Z" fill="#F2F2F2" stroke="#07122B" mask="url(#path-1-inside-1_81_143)"/>
</svg>
