<svg width="50" height="51" viewBox="0 0 50 51" fill="none" xmlns="http://www.w3.org/2000/svg">
<mask id="path-1-inside-1_81_119" fill="white">
<path d="M0 28.5593L1.42651 28.0154L2.16614 28.0942L2.86596 29.2027L3.39481 29.1294L3.61155 28.6017L4.47937 27.8622L5.35597 28.0708L4.8646 26.8117L4.98201 26.0868L4.42663 25.8945L5.01568 25.038L5.25266 23.8447L5.55315 23.4013L6.15198 19.9778L6.21881 18.2395L7.02311 17.72L7.22692 17.0706L6.96225 16.3734L6.96822 15.2029L7.98545 13.8797L8.96636 13.4618L9.77862 13.5156L10.8569 12.8706L11.4617 12.7402L12.104 13.4097L13.1229 13.6901L13.4537 14.2427L14.2315 13.8292L14.7845 13.0657L14.8205 12.356L15.2334 12.1077L15.691 11.1029L16.292 11.2154L16.5757 10.4139L16.311 9.89435L16.6419 9.32216L17.5603 9.5705L18.3863 8.36521L18.2889 7.66638L17.8103 6.67467L17.588 5.63403L16.9392 4.92762L17.3684 4.42116L17.8369 4.49616L19.6708 3.51475L20.4355 2.5915L21.7706 2.02256L23.4318 2.27633L24.5796 3.04089L24.2529 1.93071L24.781 1.1118L25.5674 0.843913L26.809 0.934107L26.7341 0.0201075L28.3394 0.115732L29.6223 0.882491L30.9015 0.617839L31.2858 0L32.1529 1.1857L33.4947 2.4676L34.2418 2.31437L35.8346 3.111L35.7645 4.175L35.9416 5.39005L35.2525 5.59166L34.8 6.10028L34.5217 6.93768L33.7343 7.54412L33.6293 7.99243L34.1386 8.45922L35.3878 8.42172L36.1829 9.10262L37.4284 9.50093L38.2555 9.12055L39.0147 9.2613L40.4209 8.26957L40.6584 8.49618L41.5914 8.15002L42.005 8.97492L41.8811 9.91175L42.5733 9.93185L42.6544 9.35421L43.4265 9.25966L43.8003 11.1181L43.2716 11.4561L42.9847 12.6859L43.6488 12.7261L44.2101 13.583L45.1925 14.1514L45.7643 15.1632L45.1469 15.6447L44.9671 17.1701L44.3438 17.4771L44.34 18.5682L45.8192 19.692L47.1472 19.4621L47.463 19.7817L46.8804 20.9973L45.7001 21.9107L44.8063 22.1037L45.2925 22.7976L44.5802 23.7795L43.7063 23.8991L43.5575 24.2028L44.4058 25.294L45.1958 25.7961L46.0431 26.8623L45.2567 28.2262L44.2151 28.4023L44.4106 29.2957L45.1149 29.6869L45.0497 30.4863L45.9512 30.5699L46.5718 30.8601L46.957 31.403L47.4737 31.5948L46.887 33.0952L48.2346 33.8092L48.7361 34.2896L48.3835 35.1118L48.5959 36.3817L47.9167 37.1256L48.0727 38.3048L47.6009 38.8368L48.4372 40.3692L48.51 41.4229L49.29 42.7298L48.8709 43.5025L47.5412 43.9764L47.346 44.7013L47.4396 45.43L47.9591 45.9881L46.4326 46.2228L46.0257 46.0734L45.5512 46.7423L44.6676 46.5662L44.4834 46.1864L43.4373 46.1266L42.4876 45.668L41.5675 45.6234L41.0735 45.1023L38.9538 45.5506L38.424 44.9208L37.4719 45.4995L36.396 45.4447L35.0988 45.6544L34.983 45.1805L34.3234 44.3269L32.4572 44.5926L32.9148 45.8147L32.4856 46.5722L32.56 46.9743L31.7101 47.7514L31.076 47.6574L30.101 46.2891L29.3284 46.9542L28.4807 48.0378L27.9508 47.7943L27.5465 46.9265L27.64 46.0402L26.9721 46.2114L26.8503 46.7999L26.2537 46.7369L25.0326 47.6177L24.9388 46.2282L24.3485 45.8332L23.7263 46.169L23.3661 47.2156L22.5222 47.5732L22.3282 48.1427L21.5897 48.5165L20.9267 49.1409L21.0468 49.6539L20.2176 50.0805L19.9849 49.3267L19.0379 48.5932L18.0347 47.2526L16.9065 47.4982L16.0903 48.8018L14.5019 48.3856L13.6842 49.0697L12.7837 48.8322L12.6381 47.8009L11.7605 48.4432L11.4274 48.1139L12.1567 47.1797L11.9784 46.9575L12.6842 45.6772L11.7773 45.7479L11.7594 45.0545L10.477 44.6176L9.89006 43.5058L10.5503 43.3639L10.1139 42.7591L10.2808 41.5989L8.88262 40.2111L8.13752 39.8568L7.31216 39.7775L6.76275 39.9758L5.7281 39.9747L5.81235 39.2558L5.41899 38.2608L4.49943 38.4162L3.93593 37.9092L2.73279 37.569L2.60079 36.8392L1.80263 36.7278L1.52867 35.7948L0.999985 35.1764L1.26681 34.3928L1.81341 33.8586L1.46664 33.005L1.57046 32.1029L2.18836 31.2938L1.50644 30.1564L1.69981 29.801L1.2766 29.2277L0.370144 29.1136L0 28.5593Z"/>
</mask>
<path d="M0 28.5593L1.42651 28.0154L2.16614 28.0942L2.86596 29.2027L3.39481 29.1294L3.61155 28.6017L4.47937 27.8622L5.35597 28.0708L4.8646 26.8117L4.98201 26.0868L4.42663 25.8945L5.01568 25.038L5.25266 23.8447L5.55315 23.4013L6.15198 19.9778L6.21881 18.2395L7.02311 17.72L7.22692 17.0706L6.96225 16.3734L6.96822 15.2029L7.98545 13.8797L8.96636 13.4618L9.77862 13.5156L10.8569 12.8706L11.4617 12.7402L12.104 13.4097L13.1229 13.6901L13.4537 14.2427L14.2315 13.8292L14.7845 13.0657L14.8205 12.356L15.2334 12.1077L15.691 11.1029L16.292 11.2154L16.5757 10.4139L16.311 9.89435L16.6419 9.32216L17.5603 9.5705L18.3863 8.36521L18.2889 7.66638L17.8103 6.67467L17.588 5.63403L16.9392 4.92762L17.3684 4.42116L17.8369 4.49616L19.6708 3.51475L20.4355 2.5915L21.7706 2.02256L23.4318 2.27633L24.5796 3.04089L24.2529 1.93071L24.781 1.1118L25.5674 0.843913L26.809 0.934107L26.7341 0.0201075L28.3394 0.115732L29.6223 0.882491L30.9015 0.617839L31.2858 0L32.1529 1.1857L33.4947 2.4676L34.2418 2.31437L35.8346 3.111L35.7645 4.175L35.9416 5.39005L35.2525 5.59166L34.8 6.10028L34.5217 6.93768L33.7343 7.54412L33.6293 7.99243L34.1386 8.45922L35.3878 8.42172L36.1829 9.10262L37.4284 9.50093L38.2555 9.12055L39.0147 9.2613L40.4209 8.26957L40.6584 8.49618L41.5914 8.15002L42.005 8.97492L41.8811 9.91175L42.5733 9.93185L42.6544 9.35421L43.4265 9.25966L43.8003 11.1181L43.2716 11.4561L42.9847 12.6859L43.6488 12.7261L44.2101 13.583L45.1925 14.1514L45.7643 15.1632L45.1469 15.6447L44.9671 17.1701L44.3438 17.4771L44.34 18.5682L45.8192 19.692L47.1472 19.4621L47.463 19.7817L46.8804 20.9973L45.7001 21.9107L44.8063 22.1037L45.2925 22.7976L44.5802 23.7795L43.7063 23.8991L43.5575 24.2028L44.4058 25.294L45.1958 25.7961L46.0431 26.8623L45.2567 28.2262L44.2151 28.4023L44.4106 29.2957L45.1149 29.6869L45.0497 30.4863L45.9512 30.5699L46.5718 30.8601L46.957 31.403L47.4737 31.5948L46.887 33.0952L48.2346 33.8092L48.7361 34.2896L48.3835 35.1118L48.5959 36.3817L47.9167 37.1256L48.0727 38.3048L47.6009 38.8368L48.4372 40.3692L48.51 41.4229L49.29 42.7298L48.8709 43.5025L47.5412 43.9764L47.346 44.7013L47.4396 45.43L47.9591 45.9881L46.4326 46.2228L46.0257 46.0734L45.5512 46.7423L44.6676 46.5662L44.4834 46.1864L43.4373 46.1266L42.4876 45.668L41.5675 45.6234L41.0735 45.1023L38.9538 45.5506L38.424 44.9208L37.4719 45.4995L36.396 45.4447L35.0988 45.6544L34.983 45.1805L34.3234 44.3269L32.4572 44.5926L32.9148 45.8147L32.4856 46.5722L32.56 46.9743L31.7101 47.7514L31.076 47.6574L30.101 46.2891L29.3284 46.9542L28.4807 48.0378L27.9508 47.7943L27.5465 46.9265L27.64 46.0402L26.9721 46.2114L26.8503 46.7999L26.2537 46.7369L25.0326 47.6177L24.9388 46.2282L24.3485 45.8332L23.7263 46.169L23.3661 47.2156L22.5222 47.5732L22.3282 48.1427L21.5897 48.5165L20.9267 49.1409L21.0468 49.6539L20.2176 50.0805L19.9849 49.3267L19.0379 48.5932L18.0347 47.2526L16.9065 47.4982L16.0903 48.8018L14.5019 48.3856L13.6842 49.0697L12.7837 48.8322L12.6381 47.8009L11.7605 48.4432L11.4274 48.1139L12.1567 47.1797L11.9784 46.9575L12.6842 45.6772L11.7773 45.7479L11.7594 45.0545L10.477 44.6176L9.89006 43.5058L10.5503 43.3639L10.1139 42.7591L10.2808 41.5989L8.88262 40.2111L8.13752 39.8568L7.31216 39.7775L6.76275 39.9758L5.7281 39.9747L5.81235 39.2558L5.41899 38.2608L4.49943 38.4162L3.93593 37.9092L2.73279 37.569L2.60079 36.8392L1.80263 36.7278L1.52867 35.7948L0.999985 35.1764L1.26681 34.3928L1.81341 33.8586L1.46664 33.005L1.57046 32.1029L2.18836 31.2938L1.50644 30.1564L1.69981 29.801L1.2766 29.2277L0.370144 29.1136L0 28.5593Z" fill="#F2F2F2" stroke="#07122B" mask="url(#path-1-inside-1_81_119)"/>
</svg>
