<svg width="49" height="53" viewBox="0 0 49 53" fill="none" xmlns="http://www.w3.org/2000/svg">
<mask id="path-1-inside-1_81_172" fill="white">
<path d="M6.53058 5.52483L7.3848 5.25531L7.92276 5.51287L8.32923 6.0878L9.92423 6.24864L10.6398 7.10344L12.037 7.66259L12.8129 7.06322L12.6787 6.31603L12.1305 5.43843L11.5002 4.88469L12.1608 3.61528L12.6532 3.74571L13.1585 4.5418L13.7384 5.02652L14.6411 4.92872L14.8931 3.85601L16.4218 3.55824L17.0352 3.00939L18.3785 2.76105L18.6752 2.36273L19.7045 2.19646L20.7086 1.46449L20.7222 0.836844L21.2494 0.0342449L21.6575 0L22.2128 1.28244L23.0605 0.711328L24.3359 1.47699L24.5827 1.0227L25.3033 0.727621L26.4568 1.39548L27.7566 1.68729L28.8266 1.76065L29.5037 1.27591L29.7342 2.34045L29.15 3.49955L29.7238 3.93427L29.3939 4.63907L29.7863 6.03183L31.0861 5.75524L30.94 5.36236L31.8007 4.61896L31.9524 4.21304L33.8298 4.78036L34.3673 5.28682L34.426 6.50405L35.0552 6.53665L35.5975 5.56666L36.1354 5.58677L37.1082 7.20777L37.2354 8.60758L36.5659 9.71994L36.9641 9.88784L37.6336 10.7774L37.3414 11.167L37.8293 11.755L38.4031 13.1179L39.0634 13.2907L39.8214 14.3378L38.6906 15.9083L39.3432 17.8673L38.7536 18.5509L39.4302 19.4344L38.4173 20.7685L38.5634 21.7032L38.8895 22.4118L40.0659 23.053L40.8881 23.8513L41.4131 22.9959L42.0256 23.2861L43.159 22.6748L43.8443 23.0334L43.8953 23.7703L44.7006 24.7267L45.7766 25.7472L46.0842 26.7416L46.9575 28.5181L47.6062 29.2245L47.8286 30.2651L48.3072 31.2568L48.4046 31.9556L47.5785 33.1609L46.6601 32.9126L46.3293 33.4848L46.594 34.0043L46.3102 34.8058L45.7092 34.6933L45.2517 35.6981L44.8388 35.9464L44.8028 36.6561L44.2497 37.4196L43.472 37.8331L43.1411 37.2805L42.1222 37.0001L41.48 36.3306L40.8752 36.461L39.7969 37.1061L38.9846 37.0523L38.0037 37.4702L36.9865 38.7933L36.9805 39.9639L37.2452 40.661L37.0414 41.3104L36.2371 41.8299L36.1703 43.5683L35.5714 46.9918L35.2709 47.4352L35.034 48.6285L34.4449 49.4849L35.0003 49.6773L34.8829 50.4022L35.3743 51.6612L34.4976 51.4526L33.6298 52.1921L33.4131 52.7198L32.8842 52.7932L32.1844 51.6846L31.4448 51.6058L30.0183 52.1498L28.0909 49.9935L27.8926 47.9226L27.0633 47.2319L27.1007 46.557L26.3303 46.601L25.8069 46.1533L24.8446 44.7279L24.0001 43.722L24.1701 42.8939L24.0827 41.9674L23.7214 40.9572L23.5643 39.9796L22.4841 39.7932L22.2721 39.4009L21.5852 39.3835L20.9979 38.8716L20.844 38.1695L19.3327 38.3358L19.1709 39.3215L19.3778 39.703L20.2115 40.0394L20.2387 40.8192L18.8909 41.0034L17.9574 40.7447L17.5135 40.9985L16.5054 40.9556L14.4562 41.7745L14.2313 42.4146L13.4487 41.9831L12.8776 41.9549L11.567 41.3131L10.8806 42.0261L10.0388 42.3587L9.53352 41.956L9.04663 39.4819L9.42805 38.7879L9.36287 38.0299L9.06023 37.5441L9.48841 37.2126L9.46337 36.1931L9.0521 35.6812L7.8891 36.1605L7.92658 34.9368L7.05777 34.7341L6.39808 35.3068L5.68515 35.6264L5.14387 35.0623L4.47439 34.7482L5.46658 33.6581L4.90971 33.1082L4.80092 32.4203L3.93974 33.055L3.02997 32.7968L2.61157 31.672L1.91274 32.067L0.873784 31.9008L1.08141 31.2362L0.471137 30.8639L0.0396345 29.7527L0.508118 28.3355L0 27.9578L0.745428 26.9791L0.780253 25.8141L0.559693 25.194L0.907946 24.8479L0.947083 23.2703L1.71871 21.864L2.07907 21.6102L2.38603 20.5843L3.14091 20.3881L3.48751 19.8458L3.34688 18.9916L3.71736 18.8845L4.80308 17.9678L4.22066 17.6928L4.18086 16.6875L4.8651 15.6496L4.73359 13.9879L5.78233 11.749L6.16657 11.3469L6.38282 10.008L5.40357 9.21511L5.97752 7.63705L6.68116 7.0529L6.53058 5.52483Z"/>
</mask>
<path d="M6.53058 5.52483L7.3848 5.25531L7.92276 5.51287L8.32923 6.0878L9.92423 6.24864L10.6398 7.10344L12.037 7.66259L12.8129 7.06322L12.6787 6.31603L12.1305 5.43843L11.5002 4.88469L12.1608 3.61528L12.6532 3.74571L13.1585 4.5418L13.7384 5.02652L14.6411 4.92872L14.8931 3.85601L16.4218 3.55824L17.0352 3.00939L18.3785 2.76105L18.6752 2.36273L19.7045 2.19646L20.7086 1.46449L20.7222 0.836844L21.2494 0.0342449L21.6575 0L22.2128 1.28244L23.0605 0.711328L24.3359 1.47699L24.5827 1.0227L25.3033 0.727621L26.4568 1.39548L27.7566 1.68729L28.8266 1.76065L29.5037 1.27591L29.7342 2.34045L29.15 3.49955L29.7238 3.93427L29.3939 4.63907L29.7863 6.03183L31.0861 5.75524L30.94 5.36236L31.8007 4.61896L31.9524 4.21304L33.8298 4.78036L34.3673 5.28682L34.426 6.50405L35.0552 6.53665L35.5975 5.56666L36.1354 5.58677L37.1082 7.20777L37.2354 8.60758L36.5659 9.71994L36.9641 9.88784L37.6336 10.7774L37.3414 11.167L37.8293 11.755L38.4031 13.1179L39.0634 13.2907L39.8214 14.3378L38.6906 15.9083L39.3432 17.8673L38.7536 18.5509L39.4302 19.4344L38.4173 20.7685L38.5634 21.7032L38.8895 22.4118L40.0659 23.053L40.8881 23.8513L41.4131 22.9959L42.0256 23.2861L43.159 22.6748L43.8443 23.0334L43.8953 23.7703L44.7006 24.7267L45.7766 25.7472L46.0842 26.7416L46.9575 28.5181L47.6062 29.2245L47.8286 30.2651L48.3072 31.2568L48.4046 31.9556L47.5785 33.1609L46.6601 32.9126L46.3293 33.4848L46.594 34.0043L46.3102 34.8058L45.7092 34.6933L45.2517 35.6981L44.8388 35.9464L44.8028 36.6561L44.2497 37.4196L43.472 37.8331L43.1411 37.2805L42.1222 37.0001L41.48 36.3306L40.8752 36.461L39.7969 37.1061L38.9846 37.0523L38.0037 37.4702L36.9865 38.7933L36.9805 39.9639L37.2452 40.661L37.0414 41.3104L36.2371 41.8299L36.1703 43.5683L35.5714 46.9918L35.2709 47.4352L35.034 48.6285L34.4449 49.4849L35.0003 49.6773L34.8829 50.4022L35.3743 51.6612L34.4976 51.4526L33.6298 52.1921L33.4131 52.7198L32.8842 52.7932L32.1844 51.6846L31.4448 51.6058L30.0183 52.1498L28.0909 49.9935L27.8926 47.9226L27.0633 47.2319L27.1007 46.557L26.3303 46.601L25.8069 46.1533L24.8446 44.7279L24.0001 43.722L24.1701 42.8939L24.0827 41.9674L23.7214 40.9572L23.5643 39.9796L22.4841 39.7932L22.2721 39.4009L21.5852 39.3835L20.9979 38.8716L20.844 38.1695L19.3327 38.3358L19.1709 39.3215L19.3778 39.703L20.2115 40.0394L20.2387 40.8192L18.8909 41.0034L17.9574 40.7447L17.5135 40.9985L16.5054 40.9556L14.4562 41.7745L14.2313 42.4146L13.4487 41.9831L12.8776 41.9549L11.567 41.3131L10.8806 42.0261L10.0388 42.3587L9.53352 41.956L9.04663 39.4819L9.42805 38.7879L9.36287 38.0299L9.06023 37.5441L9.48841 37.2126L9.46337 36.1931L9.0521 35.6812L7.8891 36.1605L7.92658 34.9368L7.05777 34.7341L6.39808 35.3068L5.68515 35.6264L5.14387 35.0623L4.47439 34.7482L5.46658 33.6581L4.90971 33.1082L4.80092 32.4203L3.93974 33.055L3.02997 32.7968L2.61157 31.672L1.91274 32.067L0.873784 31.9008L1.08141 31.2362L0.471137 30.8639L0.0396345 29.7527L0.508118 28.3355L0 27.9578L0.745428 26.9791L0.780253 25.8141L0.559693 25.194L0.907946 24.8479L0.947083 23.2703L1.71871 21.864L2.07907 21.6102L2.38603 20.5843L3.14091 20.3881L3.48751 19.8458L3.34688 18.9916L3.71736 18.8845L4.80308 17.9678L4.22066 17.6928L4.18086 16.6875L4.8651 15.6496L4.73359 13.9879L5.78233 11.749L6.16657 11.3469L6.38282 10.008L5.40357 9.21511L5.97752 7.63705L6.68116 7.0529L6.53058 5.52483Z" fill="#F2F2F2" stroke="#07122B" mask="url(#path-1-inside-1_81_172)"/>
</svg>
