<svg width="60" height="63" viewBox="0 0 60 63" fill="none" xmlns="http://www.w3.org/2000/svg">
<mask id="path-1-inside-1_81_102" fill="white">
<path d="M0.499495 22.5759L1.37643 22.5172L1.48455 21.6472L2.56596 21.0929L2.90178 20.587L3.57341 20.2414L4.35217 19.3524L4.76792 18.5802L4.43857 18.2552L3.38933 17.9286L2.40245 16.4234L1.36615 15.9778L1.21242 15.6409L2.4595 15.5148L3.21703 15.6322L4.20275 16.2098L4.49894 15.2518L5.79444 14.6492L7.60983 14.509L8.3745 14.284L9.37647 14.7954L9.6161 13.7531L10.7469 14.2894L11.0546 13.8564L10.7493 13.4336L10.935 12.4793L11.4577 11.787L12.4756 10.8758L13.4298 10.334L14.2807 9.29281L15.1421 9.57158L15.323 8.89068L14.7421 8.64016L14.5764 8.05765L14.0189 7.66966L12.9282 7.62834L12.8109 6.40515L11.9365 6.26168L11.624 4.84176L12.7353 5.23899L13.1918 3.70711L14.1427 3.84405L15.2573 4.22226L15.8893 4.69178L16.4001 5.8025L17.7021 6.05355L19.2742 4.97598L20.1496 3.67507L20.5914 1.86877L21.5647 1.07376L21.9048 0.288532L22.4342 0L23.5116 0.89499L24.7116 1.68237L24.8273 2.27198L25.5369 2.84148L24.9538 3.32238L24.9777 3.87448L25.888 5.12378L26.4341 5.55688L27.258 6.88443L28.5632 8.09026L28.8278 8.84124L29.5337 8.97382L30.1347 9.67808L29.5316 9.94761L29.6272 10.5236L30.3266 11.1399L31.0705 11.4458L31.0743 11.8376L31.6655 12.2392L31.798 12.9124L32.4095 14.2672L32.424 14.8133L32.9305 15.3274L33.562 16.5413L34.3103 17.1075L34.1396 18.2433L34.37 18.6166L35.7383 19.9175L35.8003 20.7022L36.492 21.5678L36.4285 22.7476L36.7235 23.5622L37.2289 23.6719L38.3087 23.2785L38.8483 23.4758L39.214 24.1067L41.9179 25.1304L42.2934 25.8847L42.9836 25.9798L43.1711 25.4472L42.6564 24.5354L42.7728 23.7926L43.3748 23.2166L43.5249 21.9564L43.1922 21.4733L45.3882 20.6788L45.95 21.5336L46.6548 21.6265L46.6336 22.6818L48.1346 23.5035L48.6502 23.1666L49.8631 23.2769L49.8055 23.8306L50.8271 23.4415L51.2135 23.7725L51.6004 24.6908L52.8498 25.8309L53.3811 27.1025L52.7708 27.8208L53.492 28.0643L53.2176 29.6478L52.4753 30.0439L51.0705 31.5187L51.4521 32.4958L51.3884 33.0506L50.9423 33.6565L50.9994 34.3227L51.534 34.7705L51.3929 35.2851L52.2025 35.8573L52.2765 36.5713L51.613 38.3581L52.2548 38.5374L52.973 37.813L54.2668 38.4532L54.7711 38.9775L55.4928 38.6031L56.0879 39.0998L55.932 39.8128L54.7582 40.7436L55.3021 42.8021L54.4441 42.989L54.2451 43.9345L53.711 45.2599L53.7985 45.8207L55.6683 46.6374L57.6252 46.1663L58.2295 46.4559L57.9311 47.4976L58.312 47.9677L58.2256 48.8627L59.451 49.4832L59.507 51.9291L59.1777 52.6263L59.3684 53.9338L58.6316 54.25L57.5306 52.9871L56.0933 53.1621L55.6809 54.0049L54.806 54.1751L53.5073 53.7571L52.2742 53.9854L52.0954 53.6028L51.0418 53.6066L50.3919 54.5761L48.8208 55.5118L48.3215 55.9666L47.4532 54.8663L46.894 55.0005L46.5336 55.7672L45.5529 55.8444L44.4302 56.6356L45.3741 57.2029L45.5832 57.7952L44.5612 58.3229L43.3003 59.3146L42.7081 58.9777L42.2234 59.2847L41.0611 59.4847L39.9355 58.9114L39.9878 59.8716L39.5546 60.4074L39.3465 61.3453L38.9906 61.6632L38.3472 62.0044L37.317 62.2272L36.5974 61.3002L35.8024 61.0176L34.1782 60.7677L33.2902 60.7535L32.6968 59.9265L32.5192 59.2624L31.8942 59.1483L30.97 58.6261L30.864 57.9148L29.8048 57.1073L29.9304 58.5191L29.0201 58.1196L27.2155 57.5594L26.3558 56.8644L26.9346 56.3769L27.1634 55.6487L26.5444 55.4759L26.9503 53.3833L26.7742 52.7187L27.1551 51.79L27.2769 50.4652L27.0613 48.178L27.6427 46.6217L27.1563 45.7484L27.2747 45.2316L26.5954 44.147L27.2503 42.0462L26.7508 41.7984L26.0309 42.7151L24.9913 43.6161L24.6605 44.091L23.6693 44.617L23.2073 44.1557L22.2048 43.922L21.9862 43.1835L20.812 43.6253L20.1773 43.1009L19.2563 43.2857L18.4591 43.2232L17.7445 42.2592L17.0294 42.0223L16.0442 42.0902L15.7187 42.8683L15.2236 42.8917L15.1296 42.2826L15.5469 41.2501L15.9974 40.7344L16.4898 39.1128L16.1941 38.7031L16.5251 38.2592L16.4006 37.4734L15.9197 36.9854L15.6251 35.4318L16.0289 35.0819L16.6657 35.0753L15.9571 33.4326L15.4067 33.5456L15.0372 33.1712L14.3096 33.7174L13.9058 33.4734L14.2499 32.4485L14.2313 31.8051L14.5253 30.8433L13.9009 30.8281L13.5549 31.3378L12.2343 31.685L11.4555 29.7374L10.1944 29.7239L9.79123 28.5218L8.9788 28.4545L7.99358 29.2158L6.82527 29.4858L5.01186 30.9079L4.23808 30.8221L4.24786 30.2901L2.41655 30.6998L2.11489 30.878L0.99501 29.9179L0.618896 29.3337L0.710769 28.4061L1.12221 28.0034L0.440126 27.2677L0.600986 26.3873L0.407622 25.6016L0.0071309 25.0402L0 24.3968L0.619559 23.7382L0.499495 22.5759Z"/>
</mask>
<path d="M0.499495 22.5759L1.37643 22.5172L1.48455 21.6472L2.56596 21.0929L2.90178 20.587L3.57341 20.2414L4.35217 19.3524L4.76792 18.5802L4.43857 18.2552L3.38933 17.9286L2.40245 16.4234L1.36615 15.9778L1.21242 15.6409L2.4595 15.5148L3.21703 15.6322L4.20275 16.2098L4.49894 15.2518L5.79444 14.6492L7.60983 14.509L8.3745 14.284L9.37647 14.7954L9.6161 13.7531L10.7469 14.2894L11.0546 13.8564L10.7493 13.4336L10.935 12.4793L11.4577 11.787L12.4756 10.8758L13.4298 10.334L14.2807 9.29281L15.1421 9.57158L15.323 8.89068L14.7421 8.64016L14.5764 8.05765L14.0189 7.66966L12.9282 7.62834L12.8109 6.40515L11.9365 6.26168L11.624 4.84176L12.7353 5.23899L13.1918 3.70711L14.1427 3.84405L15.2573 4.22226L15.8893 4.69178L16.4001 5.8025L17.7021 6.05355L19.2742 4.97598L20.1496 3.67507L20.5914 1.86877L21.5647 1.07376L21.9048 0.288532L22.4342 0L23.5116 0.89499L24.7116 1.68237L24.8273 2.27198L25.5369 2.84148L24.9538 3.32238L24.9777 3.87448L25.888 5.12378L26.4341 5.55688L27.258 6.88443L28.5632 8.09026L28.8278 8.84124L29.5337 8.97382L30.1347 9.67808L29.5316 9.94761L29.6272 10.5236L30.3266 11.1399L31.0705 11.4458L31.0743 11.8376L31.6655 12.2392L31.798 12.9124L32.4095 14.2672L32.424 14.8133L32.9305 15.3274L33.562 16.5413L34.3103 17.1075L34.1396 18.2433L34.37 18.6166L35.7383 19.9175L35.8003 20.7022L36.492 21.5678L36.4285 22.7476L36.7235 23.5622L37.2289 23.6719L38.3087 23.2785L38.8483 23.4758L39.214 24.1067L41.9179 25.1304L42.2934 25.8847L42.9836 25.9798L43.1711 25.4472L42.6564 24.5354L42.7728 23.7926L43.3748 23.2166L43.5249 21.9564L43.1922 21.4733L45.3882 20.6788L45.95 21.5336L46.6548 21.6265L46.6336 22.6818L48.1346 23.5035L48.6502 23.1666L49.8631 23.2769L49.8055 23.8306L50.8271 23.4415L51.2135 23.7725L51.6004 24.6908L52.8498 25.8309L53.3811 27.1025L52.7708 27.8208L53.492 28.0643L53.2176 29.6478L52.4753 30.0439L51.0705 31.5187L51.4521 32.4958L51.3884 33.0506L50.9423 33.6565L50.9994 34.3227L51.534 34.7705L51.3929 35.2851L52.2025 35.8573L52.2765 36.5713L51.613 38.3581L52.2548 38.5374L52.973 37.813L54.2668 38.4532L54.7711 38.9775L55.4928 38.6031L56.0879 39.0998L55.932 39.8128L54.7582 40.7436L55.3021 42.8021L54.4441 42.989L54.2451 43.9345L53.711 45.2599L53.7985 45.8207L55.6683 46.6374L57.6252 46.1663L58.2295 46.4559L57.9311 47.4976L58.312 47.9677L58.2256 48.8627L59.451 49.4832L59.507 51.9291L59.1777 52.6263L59.3684 53.9338L58.6316 54.25L57.5306 52.9871L56.0933 53.1621L55.6809 54.0049L54.806 54.1751L53.5073 53.7571L52.2742 53.9854L52.0954 53.6028L51.0418 53.6066L50.3919 54.5761L48.8208 55.5118L48.3215 55.9666L47.4532 54.8663L46.894 55.0005L46.5336 55.7672L45.5529 55.8444L44.4302 56.6356L45.3741 57.2029L45.5832 57.7952L44.5612 58.3229L43.3003 59.3146L42.7081 58.9777L42.2234 59.2847L41.0611 59.4847L39.9355 58.9114L39.9878 59.8716L39.5546 60.4074L39.3465 61.3453L38.9906 61.6632L38.3472 62.0044L37.317 62.2272L36.5974 61.3002L35.8024 61.0176L34.1782 60.7677L33.2902 60.7535L32.6968 59.9265L32.5192 59.2624L31.8942 59.1483L30.97 58.6261L30.864 57.9148L29.8048 57.1073L29.9304 58.5191L29.0201 58.1196L27.2155 57.5594L26.3558 56.8644L26.9346 56.3769L27.1634 55.6487L26.5444 55.4759L26.9503 53.3833L26.7742 52.7187L27.1551 51.79L27.2769 50.4652L27.0613 48.178L27.6427 46.6217L27.1563 45.7484L27.2747 45.2316L26.5954 44.147L27.2503 42.0462L26.7508 41.7984L26.0309 42.7151L24.9913 43.6161L24.6605 44.091L23.6693 44.617L23.2073 44.1557L22.2048 43.922L21.9862 43.1835L20.812 43.6253L20.1773 43.1009L19.2563 43.2857L18.4591 43.2232L17.7445 42.2592L17.0294 42.0223L16.0442 42.0902L15.7187 42.8683L15.2236 42.8917L15.1296 42.2826L15.5469 41.2501L15.9974 40.7344L16.4898 39.1128L16.1941 38.7031L16.5251 38.2592L16.4006 37.4734L15.9197 36.9854L15.6251 35.4318L16.0289 35.0819L16.6657 35.0753L15.9571 33.4326L15.4067 33.5456L15.0372 33.1712L14.3096 33.7174L13.9058 33.4734L14.2499 32.4485L14.2313 31.8051L14.5253 30.8433L13.9009 30.8281L13.5549 31.3378L12.2343 31.685L11.4555 29.7374L10.1944 29.7239L9.79123 28.5218L8.9788 28.4545L7.99358 29.2158L6.82527 29.4858L5.01186 30.9079L4.23808 30.8221L4.24786 30.2901L2.41655 30.6998L2.11489 30.878L0.99501 29.9179L0.618896 29.3337L0.710769 28.4061L1.12221 28.0034L0.440126 27.2677L0.600986 26.3873L0.407622 25.6016L0.0071309 25.0402L0 24.3968L0.619559 23.7382L0.499495 22.5759Z" fill="#F2F2F2" stroke="#07122B" mask="url(#path-1-inside-1_81_102)"/>
</svg>
