<svg width="36" height="57" viewBox="0 0 36 57" fill="none" xmlns="http://www.w3.org/2000/svg">
<mask id="path-1-inside-1_81_186" fill="white">
<path d="M0 17.5912L0.934148 16.5609L1.6683 16.3837L2.26929 15.6213L0.749906 15.0116L1.06234 13.8928L2.53711 12.4734L3.83974 12.1267L4.77372 12.1022L5.30904 11.261L5.28466 10.797L5.75414 10.2666L5.6558 9.62158L6.74318 8.81516L6.73174 8.21088L7.22725 7.68921L7.52343 6.59698L7.17568 5.47919L7.7299 5.28518L8.3206 4.63961L8.10701 4.18424L8.52491 3.30011L8.28694 2.66161L8.58909 2.05136L8.60053 0.818914L9.17432 1.11615L9.7166 0L10.0829 0.317346L10.6154 1.31613L11.4746 1.80138L11.8278 2.77355L12.3794 2.44424L14.2373 2.62139L15.2936 1.59925L15.7903 1.6313L16.3581 2.1269L17.1162 3.47345L17.1467 4.5706L17.7813 5.17053L18.3899 5.30257L18.6964 6.02366L19.3752 6.03616L19.6534 7.04473L20.511 7.33436L20.412 7.81582L20.9358 8.81788L20.1473 10.5111L18.9312 11.6197L19.3067 12.4609L19.4811 13.514L18.7432 14.0699L18.0797 13.3896L17.6923 13.7259L18.3612 14.3378L18.035 15.3192L18.4687 15.6681L19.6446 15.3665L20.0327 14.9046L20.0436 14.0998L20.7494 14.3845L20.5919 15.5415L23.1078 16.2055L23.6736 16.719L24.1811 16.5153L24.5782 17.276L25.4591 17.3238L26.5737 17.7901L26.7003 18.4634L25.8384 19.2491L27.3568 20.0392L26.7721 20.8419L26.8188 21.4342L27.9105 22.7536L27.7012 23.329L28.6273 23.5404L28.2855 24.4403L29.5173 24.5887L29.87 24.0453L31.3393 24.8381L31.7143 25.3869L33.0549 26.1765L33.2711 26.8193L34.1292 27.4801L35.1031 29.1576L34.2292 29.6896L34.1423 30.3798L32.5909 31.3079L31.0665 32.6479L30.0325 33.2077L31.3829 35.3025L31.1899 35.6916L29.6576 36.6099L29.2452 37.6033L30.84 39.1835L32.2914 40.4931L32.5506 40.2926L33.2332 40.9566L33.1164 41.412L32.5446 41.7234L31.61 42.8694L31.0324 44.3883L30.1417 45.2333L30.2025 45.8729L30.6145 46.5494L29.8125 47.8568L29.5277 47.8775L28.7821 49.1735L28.0647 49.9098L26.847 50.6951L25.4625 53.3654L24.7364 53.3322L24.1023 54.9364L23.5686 54.7875L22.9884 55.7129L22.4292 55.5901L22.0146 56.1193L21.0657 56.134L18.879 55.7716L18.0156 55.8357L17.3216 56.1487L16.9347 55.0847L17.108 54.3305L16.9201 53.5844L15.8452 53.4958L15.1246 52.704L14.5742 52.8328L13.9776 52.3845L13.2678 52.5497L12.6484 54.1593L12.2375 54.4766L11.4424 54.4065L11.1567 55.0287L10.3911 55.7575L9.79272 55.971L9.15807 55.7379L8.06356 55.9732L7.42559 55.4298L8.10817 53.2398L6.64583 53.0458L6.47187 52.2449L5.99162 51.5987L5.85132 53.1757L5.3835 51.9536L4.58517 51.6036L4.50209 50.6608L3.95384 50.3337L4.31237 49.674L3.62714 48.8621L2.43877 48.5144L1.62087 48.0546L2.3333 47.0439L2.05403 46.2288L2.52185 45.3941L4.37655 45.5001L4.74454 44.9137L5.26227 45.1778L5.99327 44.6643L6.15181 43.4091L5.69643 43.3949L5.03674 42.7673L3.80226 42.326L3.95002 41.5761L3.9016 40.3306L4.22713 39.077L5.54602 39.0047L5.8427 38.1652L5.85895 37.237L6.72461 36.4453L6.85893 35.9801L5.89808 35.1873L6.34418 34.7922L6.16276 34.0999L5.22861 33.3908L5.62429 32.8783L5.2379 32.2013L4.87439 30.9775L3.90491 30.9715L4.09397 29.9162L4.9787 29.043L4.20972 28.192L3.12184 27.7622L2.65883 26.4504L2.98437 26.1618L3.93477 26.2602L4.13858 25.9233L5.63076 25.4815L6.43439 25.8755L7.43438 25.6075L7.75444 25.0696L7.59905 24.3246L6.73655 23.9523L6.07254 24.0376L5.56127 23.7127L5.35365 22.7101L5.00473 22.277L3.95815 22.8139L3.50011 22.2368L2.71803 22.5503L2.69697 22.0048L2.25569 21.6684L1.89914 20.5832L1.97692 19.8903L1.18506 19.6763L0.542778 20.3778L0.228686 19.7594L0.299995 18.4107L0 17.5912Z"/>
</mask>
<path d="M0 17.5912L0.934148 16.5609L1.6683 16.3837L2.26929 15.6213L0.749906 15.0116L1.06234 13.8928L2.53711 12.4734L3.83974 12.1267L4.77372 12.1022L5.30904 11.261L5.28466 10.797L5.75414 10.2666L5.6558 9.62158L6.74318 8.81516L6.73174 8.21088L7.22725 7.68921L7.52343 6.59698L7.17568 5.47919L7.7299 5.28518L8.3206 4.63961L8.10701 4.18424L8.52491 3.30011L8.28694 2.66161L8.58909 2.05136L8.60053 0.818914L9.17432 1.11615L9.7166 0L10.0829 0.317346L10.6154 1.31613L11.4746 1.80138L11.8278 2.77355L12.3794 2.44424L14.2373 2.62139L15.2936 1.59925L15.7903 1.6313L16.3581 2.1269L17.1162 3.47345L17.1467 4.5706L17.7813 5.17053L18.3899 5.30257L18.6964 6.02366L19.3752 6.03616L19.6534 7.04473L20.511 7.33436L20.412 7.81582L20.9358 8.81788L20.1473 10.5111L18.9312 11.6197L19.3067 12.4609L19.4811 13.514L18.7432 14.0699L18.0797 13.3896L17.6923 13.7259L18.3612 14.3378L18.035 15.3192L18.4687 15.6681L19.6446 15.3665L20.0327 14.9046L20.0436 14.0998L20.7494 14.3845L20.5919 15.5415L23.1078 16.2055L23.6736 16.719L24.1811 16.5153L24.5782 17.276L25.4591 17.3238L26.5737 17.7901L26.7003 18.4634L25.8384 19.2491L27.3568 20.0392L26.7721 20.8419L26.8188 21.4342L27.9105 22.7536L27.7012 23.329L28.6273 23.5404L28.2855 24.4403L29.5173 24.5887L29.87 24.0453L31.3393 24.8381L31.7143 25.3869L33.0549 26.1765L33.2711 26.8193L34.1292 27.4801L35.1031 29.1576L34.2292 29.6896L34.1423 30.3798L32.5909 31.3079L31.0665 32.6479L30.0325 33.2077L31.3829 35.3025L31.1899 35.6916L29.6576 36.6099L29.2452 37.6033L30.84 39.1835L32.2914 40.4931L32.5506 40.2926L33.2332 40.9566L33.1164 41.412L32.5446 41.7234L31.61 42.8694L31.0324 44.3883L30.1417 45.2333L30.2025 45.8729L30.6145 46.5494L29.8125 47.8568L29.5277 47.8775L28.7821 49.1735L28.0647 49.9098L26.847 50.6951L25.4625 53.3654L24.7364 53.3322L24.1023 54.9364L23.5686 54.7875L22.9884 55.7129L22.4292 55.5901L22.0146 56.1193L21.0657 56.134L18.879 55.7716L18.0156 55.8357L17.3216 56.1487L16.9347 55.0847L17.108 54.3305L16.9201 53.5844L15.8452 53.4958L15.1246 52.704L14.5742 52.8328L13.9776 52.3845L13.2678 52.5497L12.6484 54.1593L12.2375 54.4766L11.4424 54.4065L11.1567 55.0287L10.3911 55.7575L9.79272 55.971L9.15807 55.7379L8.06356 55.9732L7.42559 55.4298L8.10817 53.2398L6.64583 53.0458L6.47187 52.2449L5.99162 51.5987L5.85132 53.1757L5.3835 51.9536L4.58517 51.6036L4.50209 50.6608L3.95384 50.3337L4.31237 49.674L3.62714 48.8621L2.43877 48.5144L1.62087 48.0546L2.3333 47.0439L2.05403 46.2288L2.52185 45.3941L4.37655 45.5001L4.74454 44.9137L5.26227 45.1778L5.99327 44.6643L6.15181 43.4091L5.69643 43.3949L5.03674 42.7673L3.80226 42.326L3.95002 41.5761L3.9016 40.3306L4.22713 39.077L5.54602 39.0047L5.8427 38.1652L5.85895 37.237L6.72461 36.4453L6.85893 35.9801L5.89808 35.1873L6.34418 34.7922L6.16276 34.0999L5.22861 33.3908L5.62429 32.8783L5.2379 32.2013L4.87439 30.9775L3.90491 30.9715L4.09397 29.9162L4.9787 29.043L4.20972 28.192L3.12184 27.7622L2.65883 26.4504L2.98437 26.1618L3.93477 26.2602L4.13858 25.9233L5.63076 25.4815L6.43439 25.8755L7.43438 25.6075L7.75444 25.0696L7.59905 24.3246L6.73655 23.9523L6.07254 24.0376L5.56127 23.7127L5.35365 22.7101L5.00473 22.277L3.95815 22.8139L3.50011 22.2368L2.71803 22.5503L2.69697 22.0048L2.25569 21.6684L1.89914 20.5832L1.97692 19.8903L1.18506 19.6763L0.542778 20.3778L0.228686 19.7594L0.299995 18.4107L0 17.5912Z" fill="#F2F2F2" stroke="#07122B" mask="url(#path-1-inside-1_81_186)"/>
</svg>
