<svg width="55" height="51" viewBox="0 0 55 51" fill="none" xmlns="http://www.w3.org/2000/svg">
<mask id="path-1-inside-1_81_183" fill="white">
<path d="M0.0386395 27.8855L0.473956 27.4736L1.57925 27.0166L1.93612 26.1417L2.62517 26.2298L3.1633 25.7461L2.43893 25.0468L2.79813 24.2534L3.81702 23.9724L5.20705 25.2277L4.90274 26.0868L5.81832 26.2618L6.61001 26.1961L6.79757 25.4549L5.47819 25.2956L5.36177 24.9462L5.88349 24.1289L6.52958 24.0241L7.54466 24.0512L7.94963 23.5981L8.66736 23.5633L9.52871 23.0432L10.2667 23.272L10.941 22.8525L11.6562 23.0362L12.1947 23.5247L12.7728 23.5578L14.4656 24.0752L15.1421 24.042L15.3595 23.403L14.2222 23.0264L13.2928 21.219L12.1582 20.4332L11.961 19.6735L12.3479 18.6156L12.8864 18.3422L13.9563 18.9345L13.8661 19.5763L15.1454 20.8652L15.2774 18.9655L15.6867 18.8335L15.7008 17.5994L15.16 17.8526L14.7014 17.5124L15.2508 16.4957L16.1925 15.3149L16.3691 14.4851L16.8903 13.3624L17.8185 12.7457L19.2536 12.2452L19.404 11.63L20.5033 10.8204L21.1337 10.6611L21.5358 10.0069L21.5907 9.24119L22.3134 9.52378L22.734 9.35425L23.2025 9.73517L24.3273 10.0786L24.1932 10.7334L24.4941 11.5458L24.9092 11.2317L25.3097 12.0675L25.7472 12.3147L26.482 13.3879L26.8434 14.1895L27.4145 14.0487L28.1599 12.6201L28.0122 12.024L27.321 10.7263L27.2221 10.1634L28.3986 9.85416L29.3072 9.07872L30.2717 9.91013L30.9667 9.48356L31.3302 8.20273L30.739 7.57078L31.703 6.88281L32.1376 7.56804L33.1594 8.34784L33.656 9.63517L35.4172 9.85254L35.7747 10.5829L36.8377 10.7372L38.0805 10.653L38.9858 10.8937L41.806 10.8508L41.9712 9.34662L42.2256 8.73258L43.1569 8.12288L43.9242 6.18672L44.4063 6.09489L45.3262 5.39225L45.8316 5.25042L46.2087 4.44889L46.8233 4.27282L47.2047 3.59737L49.1041 2.39262L49.5719 2.50456L50.0234 2.13073L50.1387 1.4047L51.0495 1.36341L51.3977 0.743935L52.4834 0L53.4517 0.0804299L53.6469 0.917813L54.2338 1.53132L53.5622 1.87041L53.4083 2.56273L52.9269 3.25774L52.9476 4.16959L52.1655 4.5054L52.2335 4.99773L50.8657 5.31563L50.6196 5.96172L49.9886 6.60732L50.4001 8.35762L50.7772 9.00484L51.8927 9.76996L52.0737 10.5715L53.0056 11.2029L52.8937 11.9691L52.3276 11.849L51.7254 12.2088L51.4576 13.3423L51.5591 14.5237L51.202 15.1964L50.054 16.1832L49.4604 16.0099L48.8112 16.7223L48.3356 16.819L47.7759 17.7396L47.8434 18.4808L47.4835 18.9465L47.3955 19.7007L46.4968 19.4094L46.4109 20.3354L45.1252 20.9989L45.1953 22.2167L44.9665 23.0291L44.2144 24.1181L44.3199 24.7414L43.9025 25.0929L44.686 26.4069L44.6638 27.3802L45.6951 28.4784L46.4538 29.7386L46.0164 31.5313L46.5608 32.1524L47.6172 32.7735L47.8162 33.4223L49.3953 34.4037L49.6828 34.958L49.7588 36.1866L50.77 36.2649L51.0961 37.186L51.665 37.5973L52.1552 37.531L53.2236 39.0895L51.1032 39.5025L50.8206 39.0275L49.9447 38.2478L49.1812 38.0065L48.0613 38.4059L47.3797 39.6693L46.1164 40.3953L43.5731 39.6552L44.1748 40.2301L44.2416 40.9664L43.4232 41.3523L43.3461 42.4271L44.3829 42.8026L44.4753 43.6139L42.0523 44.2861L41.8561 44.5497L41.4897 43.8318L40.0835 44.0334L39.0949 44.8681L38.5075 44.5171L37.8321 43.7308L36.2633 44.5062L35.9802 44.1394L34.1766 44.5882L33.757 44.4829L33.488 46.2299L32.6322 47.3906L32.3915 47.0151L31.6997 47.3564L30.496 46.7211L30.1586 46.1864L29.349 45.8718L28.1599 44.9572L27.9871 44.2008L27.4525 43.9275L26.3369 44.0948L25.3832 45.2789L25.3125 45.774L23.7111 47.252L23.2025 47.276L22.4292 46.8554L21.7303 48.2459L21.2017 48.8741L19.7675 49.4632L19.9594 50.2348L19.2992 50.782L18.7102 49.7811L18.0521 49.3811L17.8445 48.3666L16.919 48.1655L16.2898 47.7536L16.2089 46.6076L15.7709 46.3348L14.9165 46.4206L14.915 47.4129L14.2291 47.9384L13.1527 47.9715L12.2603 46.7532L10.4264 46.3201L9.5846 47.6031L9.23153 47.0819L8.0294 46.306L7.90601 45.0246L6.90023 44.7073L6.70902 44.1405L5.87271 43.1558L5.75961 42.7804L4.62497 42.4733L4.27672 42.6466L2.88934 42.5287L1.87311 43.1949L1.86929 41.455L2.69697 40.8996L4.05002 38.1614L3.06927 38.1885L3.08387 37.6842L2.25519 36.761L1.71672 36.9577L1.03531 36.5176L0.529843 36.629L0.341786 36.0138L0.714085 34.2581L1.6688 32.4985L1.63563 30.6591L1.40197 30.3021L0.162021 30.5373L0 30.1157L0.0386395 27.8855Z"/>
</mask>
<path d="M0.0386395 27.8855L0.473956 27.4736L1.57925 27.0166L1.93612 26.1417L2.62517 26.2298L3.1633 25.7461L2.43893 25.0468L2.79813 24.2534L3.81702 23.9724L5.20705 25.2277L4.90274 26.0868L5.81832 26.2618L6.61001 26.1961L6.79757 25.4549L5.47819 25.2956L5.36177 24.9462L5.88349 24.1289L6.52958 24.0241L7.54466 24.0512L7.94963 23.5981L8.66736 23.5633L9.52871 23.0432L10.2667 23.272L10.941 22.8525L11.6562 23.0362L12.1947 23.5247L12.7728 23.5578L14.4656 24.0752L15.1421 24.042L15.3595 23.403L14.2222 23.0264L13.2928 21.219L12.1582 20.4332L11.961 19.6735L12.3479 18.6156L12.8864 18.3422L13.9563 18.9345L13.8661 19.5763L15.1454 20.8652L15.2774 18.9655L15.6867 18.8335L15.7008 17.5994L15.16 17.8526L14.7014 17.5124L15.2508 16.4957L16.1925 15.3149L16.3691 14.4851L16.8903 13.3624L17.8185 12.7457L19.2536 12.2452L19.404 11.63L20.5033 10.8204L21.1337 10.6611L21.5358 10.0069L21.5907 9.24119L22.3134 9.52378L22.734 9.35425L23.2025 9.73517L24.3273 10.0786L24.1932 10.7334L24.4941 11.5458L24.9092 11.2317L25.3097 12.0675L25.7472 12.3147L26.482 13.3879L26.8434 14.1895L27.4145 14.0487L28.1599 12.6201L28.0122 12.024L27.321 10.7263L27.2221 10.1634L28.3986 9.85416L29.3072 9.07872L30.2717 9.91013L30.9667 9.48356L31.3302 8.20273L30.739 7.57078L31.703 6.88281L32.1376 7.56804L33.1594 8.34784L33.656 9.63517L35.4172 9.85254L35.7747 10.5829L36.8377 10.7372L38.0805 10.653L38.9858 10.8937L41.806 10.8508L41.9712 9.34662L42.2256 8.73258L43.1569 8.12288L43.9242 6.18672L44.4063 6.09489L45.3262 5.39225L45.8316 5.25042L46.2087 4.44889L46.8233 4.27282L47.2047 3.59737L49.1041 2.39262L49.5719 2.50456L50.0234 2.13073L50.1387 1.4047L51.0495 1.36341L51.3977 0.743935L52.4834 0L53.4517 0.0804299L53.6469 0.917813L54.2338 1.53132L53.5622 1.87041L53.4083 2.56273L52.9269 3.25774L52.9476 4.16959L52.1655 4.5054L52.2335 4.99773L50.8657 5.31563L50.6196 5.96172L49.9886 6.60732L50.4001 8.35762L50.7772 9.00484L51.8927 9.76996L52.0737 10.5715L53.0056 11.2029L52.8937 11.9691L52.3276 11.849L51.7254 12.2088L51.4576 13.3423L51.5591 14.5237L51.202 15.1964L50.054 16.1832L49.4604 16.0099L48.8112 16.7223L48.3356 16.819L47.7759 17.7396L47.8434 18.4808L47.4835 18.9465L47.3955 19.7007L46.4968 19.4094L46.4109 20.3354L45.1252 20.9989L45.1953 22.2167L44.9665 23.0291L44.2144 24.1181L44.3199 24.7414L43.9025 25.0929L44.686 26.4069L44.6638 27.3802L45.6951 28.4784L46.4538 29.7386L46.0164 31.5313L46.5608 32.1524L47.6172 32.7735L47.8162 33.4223L49.3953 34.4037L49.6828 34.958L49.7588 36.1866L50.77 36.2649L51.0961 37.186L51.665 37.5973L52.1552 37.531L53.2236 39.0895L51.1032 39.5025L50.8206 39.0275L49.9447 38.2478L49.1812 38.0065L48.0613 38.4059L47.3797 39.6693L46.1164 40.3953L43.5731 39.6552L44.1748 40.2301L44.2416 40.9664L43.4232 41.3523L43.3461 42.4271L44.3829 42.8026L44.4753 43.6139L42.0523 44.2861L41.8561 44.5497L41.4897 43.8318L40.0835 44.0334L39.0949 44.8681L38.5075 44.5171L37.8321 43.7308L36.2633 44.5062L35.9802 44.1394L34.1766 44.5882L33.757 44.4829L33.488 46.2299L32.6322 47.3906L32.3915 47.0151L31.6997 47.3564L30.496 46.7211L30.1586 46.1864L29.349 45.8718L28.1599 44.9572L27.9871 44.2008L27.4525 43.9275L26.3369 44.0948L25.3832 45.2789L25.3125 45.774L23.7111 47.252L23.2025 47.276L22.4292 46.8554L21.7303 48.2459L21.2017 48.8741L19.7675 49.4632L19.9594 50.2348L19.2992 50.782L18.7102 49.7811L18.0521 49.3811L17.8445 48.3666L16.919 48.1655L16.2898 47.7536L16.2089 46.6076L15.7709 46.3348L14.9165 46.4206L14.915 47.4129L14.2291 47.9384L13.1527 47.9715L12.2603 46.7532L10.4264 46.3201L9.5846 47.6031L9.23153 47.0819L8.0294 46.306L7.90601 45.0246L6.90023 44.7073L6.70902 44.1405L5.87271 43.1558L5.75961 42.7804L4.62497 42.4733L4.27672 42.6466L2.88934 42.5287L1.87311 43.1949L1.86929 41.455L2.69697 40.8996L4.05002 38.1614L3.06927 38.1885L3.08387 37.6842L2.25519 36.761L1.71672 36.9577L1.03531 36.5176L0.529843 36.629L0.341786 36.0138L0.714085 34.2581L1.6688 32.4985L1.63563 30.6591L1.40197 30.3021L0.162021 30.5373L0 30.1157L0.0386395 27.8855Z" fill="#F2F2F2" stroke="#07122B" mask="url(#path-1-inside-1_81_183)"/>
</svg>
