<svg width="62" height="54" viewBox="0 0 62 54" fill="none" xmlns="http://www.w3.org/2000/svg">
<mask id="path-1-inside-1_81_115" fill="white">
<path d="M9.9428 3.35389L11.9121 2.73769L15.3547 1.53132L16.1609 0L18.3199 1.30147L19.63 1.05529L20.0154 2.56107L19.04 4.94665L18.2195 5.66393L20.474 5.31397L22.2862 4.58961L22.5499 4.91891L25.0082 5.84216L26.2651 5.77752L26.7482 5.41667L27.4112 5.37811L27.5172 4.75316L29.2332 4.44234L30.4096 4.62111L31.0368 4.55428L31.2395 3.88535L32.498 4.25814L33.0224 4.61734L33.0963 6.17801L32.5899 6.76432L35.127 7.73977L35.4814 8.13155L36.6867 8.66027L37.0805 9.97642L38.5185 10.7068L40.2345 10.8209L40.2921 11.7148L41.2408 12.6337L42.0506 12.6826L41.5463 15.2779L41.8028 16.6772L44.7089 16.9635L46.1343 17.4521L47.9238 16.8315L47.7384 14.2824L47.826 13.7982L48.6654 13.8216L48.9143 13.5064L49.7158 14.1655L50.0375 15.0193L50.976 15.7757L51.382 16.9293L51.4032 19.5844L52.2412 19.4485L53.9496 19.6681L56.0308 19.7164L57.2149 20.3816L57.4371 20.7028L59.7412 20.8875L60.9639 21.1668L61.1802 21.8357L60.5622 22.2189L59.8467 23.0155L59.6412 24.042L58.8039 26.1325L58.3853 26.7139L58.4576 27.3774L58.9614 28.2778L58.2517 29.9407L58.756 30.7618L58.7147 32.3126L58.318 32.6854L56.9905 32.0872L55.4146 30.9922L56.3721 30.2955L56.4107 29.788L54.826 28.2061L54.4338 29.4119L53.9658 29.4L53.5653 30.1428L52.5655 30.3086L52.366 31.1318L51.5597 30.2531L51.1705 30.6737L49.1535 31.1019L48.8105 31.6883L48.0809 32.1311L47.9666 32.8854L49.1339 33.5092L49.0838 34.0391L48.4742 34.6803L49.222 35.9421L48.8866 36.066L49.0876 37.1044L47.8313 37.1539L47.9785 38.1407L48.3215 38.7096L48.5286 39.8731L49.0122 40.8599L47.6825 41.9989L46.9331 42.3244L47.3467 43.1118L46.7185 43.5971L46.6538 44.0785L47.1391 44.5176L47.1885 45.0507L46.4636 45.1284L46.4412 45.9984L45.7903 45.8088L45.9213 47.0178L47.0455 47.0314L47.0135 47.9938L47.2178 48.5948L46.5608 48.3981L45.7267 48.5334L45.4419 49.448L44.6889 50.0109L43.7693 50.3413L43.1439 49.7963L42.4499 49.5691L41.1985 49.4403L40.5692 49.9375L39.5042 50.3658L39.083 49.5142L40.2377 48.5709L39.5966 48.0139L39.1579 48.4861L38.4923 48.6062L37.6011 49.2415L37.3376 49.7164L35.6917 50.7396L35.4129 50.0359L34.0439 50.9804L32.7675 50.2087L32.4746 50.2359L31.4524 49.4947L30.6184 50.0174L30.0695 49.8696L30.0087 50.6521L29.3098 50.6114L29.112 50.0707L27.8943 49.0012L27.3133 49.0311L27.34 49.6495L26.5624 50.0685L25.757 49.8234L24.6142 50.8282L23.2421 50.3337L21.5277 50.9543L21.1788 51.3069L20.1252 50.8869L19.6622 51.2091L19.5422 52.6171L18.9704 52.7165L18.1319 52.3981L17.1972 52.3275L16.623 51.9797L16.0752 52.3611L15.2726 52.1965L14.9459 52.8513L13.3064 53.3469L13.0021 52.6089L13.8847 52.359L14.2079 51.721L13.5603 51.3988L13.0869 50.6114L12.0806 50.5608L11.3491 51.3069L9.73799 52.228L8.63867 52.9861L7.33057 52.6557L5.66774 53.1746L3.89463 53.0703L3.40559 52.1796L2.18123 51.9503L2.30792 51.2721L1.67211 50.894L1.08788 51.4683L0 51.3781L1.11192 49.33L2.5323 46.3744L2.87956 45.4539L3.07242 42.8814L4.0011 38.0896L4.81402 34.7313L5.50854 31.6274L6.25679 27.6252L7.26589 22.8237L7.96538 18.8612L8.33702 15.8914L9.0977 10.6736L9.62108 6.46437L9.9428 3.35389Z"/>
</mask>
<path d="M9.9428 3.35389L11.9121 2.73769L15.3547 1.53132L16.1609 0L18.3199 1.30147L19.63 1.05529L20.0154 2.56107L19.04 4.94665L18.2195 5.66393L20.474 5.31397L22.2862 4.58961L22.5499 4.91891L25.0082 5.84216L26.2651 5.77752L26.7482 5.41667L27.4112 5.37811L27.5172 4.75316L29.2332 4.44234L30.4096 4.62111L31.0368 4.55428L31.2395 3.88535L32.498 4.25814L33.0224 4.61734L33.0963 6.17801L32.5899 6.76432L35.127 7.73977L35.4814 8.13155L36.6867 8.66027L37.0805 9.97642L38.5185 10.7068L40.2345 10.8209L40.2921 11.7148L41.2408 12.6337L42.0506 12.6826L41.5463 15.2779L41.8028 16.6772L44.7089 16.9635L46.1343 17.4521L47.9238 16.8315L47.7384 14.2824L47.826 13.7982L48.6654 13.8216L48.9143 13.5064L49.7158 14.1655L50.0375 15.0193L50.976 15.7757L51.382 16.9293L51.4032 19.5844L52.2412 19.4485L53.9496 19.6681L56.0308 19.7164L57.2149 20.3816L57.4371 20.7028L59.7412 20.8875L60.9639 21.1668L61.1802 21.8357L60.5622 22.2189L59.8467 23.0155L59.6412 24.042L58.8039 26.1325L58.3853 26.7139L58.4576 27.3774L58.9614 28.2778L58.2517 29.9407L58.756 30.7618L58.7147 32.3126L58.318 32.6854L56.9905 32.0872L55.4146 30.9922L56.3721 30.2955L56.4107 29.788L54.826 28.2061L54.4338 29.4119L53.9658 29.4L53.5653 30.1428L52.5655 30.3086L52.366 31.1318L51.5597 30.2531L51.1705 30.6737L49.1535 31.1019L48.8105 31.6883L48.0809 32.1311L47.9666 32.8854L49.1339 33.5092L49.0838 34.0391L48.4742 34.6803L49.222 35.9421L48.8866 36.066L49.0876 37.1044L47.8313 37.1539L47.9785 38.1407L48.3215 38.7096L48.5286 39.8731L49.0122 40.8599L47.6825 41.9989L46.9331 42.3244L47.3467 43.1118L46.7185 43.5971L46.6538 44.0785L47.1391 44.5176L47.1885 45.0507L46.4636 45.1284L46.4412 45.9984L45.7903 45.8088L45.9213 47.0178L47.0455 47.0314L47.0135 47.9938L47.2178 48.5948L46.5608 48.3981L45.7267 48.5334L45.4419 49.448L44.6889 50.0109L43.7693 50.3413L43.1439 49.7963L42.4499 49.5691L41.1985 49.4403L40.5692 49.9375L39.5042 50.3658L39.083 49.5142L40.2377 48.5709L39.5966 48.0139L39.1579 48.4861L38.4923 48.6062L37.6011 49.2415L37.3376 49.7164L35.6917 50.7396L35.4129 50.0359L34.0439 50.9804L32.7675 50.2087L32.4746 50.2359L31.4524 49.4947L30.6184 50.0174L30.0695 49.8696L30.0087 50.6521L29.3098 50.6114L29.112 50.0707L27.8943 49.0012L27.3133 49.0311L27.34 49.6495L26.5624 50.0685L25.757 49.8234L24.6142 50.8282L23.2421 50.3337L21.5277 50.9543L21.1788 51.3069L20.1252 50.8869L19.6622 51.2091L19.5422 52.6171L18.9704 52.7165L18.1319 52.3981L17.1972 52.3275L16.623 51.9797L16.0752 52.3611L15.2726 52.1965L14.9459 52.8513L13.3064 53.3469L13.0021 52.6089L13.8847 52.359L14.2079 51.721L13.5603 51.3988L13.0869 50.6114L12.0806 50.5608L11.3491 51.3069L9.73799 52.228L8.63867 52.9861L7.33057 52.6557L5.66774 53.1746L3.89463 53.0703L3.40559 52.1796L2.18123 51.9503L2.30792 51.2721L1.67211 50.894L1.08788 51.4683L0 51.3781L1.11192 49.33L2.5323 46.3744L2.87956 45.4539L3.07242 42.8814L4.0011 38.0896L4.81402 34.7313L5.50854 31.6274L6.25679 27.6252L7.26589 22.8237L7.96538 18.8612L8.33702 15.8914L9.0977 10.6736L9.62108 6.46437L9.9428 3.35389Z" fill="#F2F2F2" stroke="#07122B" mask="url(#path-1-inside-1_81_115)"/>
</svg>
