<svg width="62" height="52" viewBox="0 0 62 52" fill="none" xmlns="http://www.w3.org/2000/svg">
<mask id="path-1-inside-1_81_170" fill="white">
<path d="M9.60466 1.63348L10.9061 1.26778L11.4968 1.6862L12.4245 1.5373L13.4119 1.14767L13.8177 1.8215L14.7693 0.715111L15.8795 0L16.8908 0.0592238L17.1603 0.806403L15.6089 1.49219L15.1447 1.98398L15.7779 2.73552L16.2235 2.48065L17.7753 2.53391L18.0699 3.14633L19.5974 2.86321L19.3811 3.99186L19.7372 4.42061L19.9838 5.3292L20.7668 5.72697L21.5804 5.74708L21.4265 6.32527L21.7461 6.9692L22.3688 7.18168L22.5564 8.10928L22.9323 8.56628L24.2034 8.47335L24.982 8.75158L25.1369 9.34825L26.5031 9.06187L26.8503 9.84492L28.1356 9.65363L29.0989 9.84329L29.6728 8.36358L30.6977 8.98198L31.5844 8.58856L31.4514 7.35991L31.6491 6.65565L32.335 6.88063L33.1887 7.44958L33.6613 8.00928L34.6303 8.27826L35.3704 7.88702L36.2774 7.87887L36.1208 9.07653L34.8313 10.5008L34.8418 11.2127L35.8981 11.6931L36.8915 12.6929L37.2316 13.9808L36.0139 15.6974L35.2427 16.4239L34.8879 17.0945L35.9057 17.795L36.4931 18.4846L36.5067 19.016L35.6509 19.9833L37.2474 21.3298L38.1929 21.614L38.6565 20.525L40.3563 21.6695L40.8441 21.6086L41.7635 21.9602L41.7413 22.5829L42.2886 23.8181L42.3151 24.4631L43.0972 26.2547L44.2681 26.3966L44.1404 26.8683L44.9247 27.1932L45.3228 26.345L46.6162 26.1444L46.5761 24.5229L47.0076 24.3371L47.5367 25.1821L48.1921 24.9288L48.579 25.1946L50.0299 24.9305L50.1533 26.0075L51.6443 25.6809L52.1791 25.7733L52.6693 24.9723L53.9131 25.0038L54.7532 25.2076L55.0341 24.7881L56.5855 25.1478L57.4643 25.0212L57.7903 25.4005H58.5984L59.8444 24.9805L59.8885 25.9129L60.4243 25.5461L61.2198 27.2812L61.1198 28.1311L60.7438 28.1545L59.5873 28.8837L57.9056 29.2267L57.5213 29.8135L56.9094 30.1852L57.1774 31.9529L59.5374 32.0725L60.2536 33.5131L59.6407 35.4351L60.7166 34.8895L61.4534 35.1726L61.0541 36.2942L61.3659 36.7442L61.2291 37.4207L61.4627 37.9277L61.3344 39.3411L60.8465 39.7492L59.8901 39.8785L59.2973 38.1146L57.3986 39.8617L56.628 39.6231L56.1134 40.5839L55.8988 41.9891L56.5225 41.8109L57.022 43.2053L56.8165 43.6894L57.3404 44.5143L57.823 44.5888L58.129 45.7082L57.612 45.831L57.0762 46.739L56.1965 46.3902L55.1962 46.3924L53.1197 47.4172L52.2524 47.5677L51.6586 47.0379L50.2163 46.0913L49.3812 47.2156L49.5278 47.5351L48.4291 48.0715L49.2322 49.1051L48.7628 50.2266L47.6172 50.7635L46.8732 49.8425L46.3973 49.9756L44.8044 49.179L44.0574 49.3322L42.7156 48.0503L41.8484 46.8646L41.4642 47.4824L40.185 47.7471L38.9021 46.9803L37.2968 46.8847L37.3717 47.7987L36.1301 47.7085L35.3437 47.9764L34.8155 48.7953L35.1422 49.9055L33.9945 49.1409L32.3333 48.8872L30.9982 49.4561L30.2335 50.3793L28.3996 51.3607L27.9311 51.2857L27.5019 51.7922L26.6286 50.0158L26.321 49.0214L25.2451 48.0008L24.4398 47.0445L24.3887 46.3076L23.7034 45.9489L22.57 46.5603L21.9575 46.2701L21.4325 47.1254L20.6103 46.3272L19.4339 45.6859L19.1078 44.9773L18.9617 44.0427L19.9747 42.7086L19.298 41.825L19.8876 41.1414L19.235 39.1824L20.3659 37.612L19.6078 36.5648L18.9475 36.392L18.3737 35.0292L17.8858 34.4412L18.178 34.0516L17.5085 33.162L17.1103 32.9941L17.7798 31.8817L17.6526 30.4819L16.6798 28.8609L16.1419 28.8408L15.5996 29.8108L14.9704 29.7782L14.9117 28.561L14.3742 28.0545L12.4968 27.4872L12.3451 27.8931L11.4844 28.6365L11.6305 29.0294L10.3307 29.306L9.93832 27.9132L10.2682 27.2084L9.69438 26.7737L10.2786 25.6146L10.0481 24.5501L9.371 25.0348L8.30103 24.9614L7.00122 24.6696L5.84767 24.0018L5.12712 24.2969L4.88036 24.7511L3.60492 23.9855L2.75717 24.5566L2.20196 23.2742L1.79384 23.3084L1.26665 24.111L0.554884 24.4408L0.3456 23.4513L0 23.0856L1.45636 21.6782L1.68356 20.9636L2.42301 20.8794L3.39514 20.0463L4.22448 20.3023L4.53476 20.0713L4.01088 19.4111L4.34123 18.8943L4.81021 18.9921L5.57371 17.8868L6.09161 16.8636L7.15727 16.1387L7.079 15.5089L6.58663 15.0502L6.78613 14.6546L6.5329 13.7069L6.6062 12.8505L7.71962 12.1517L7.90502 12.8358L8.57499 12.0685L8.58312 11.0665L9.84114 10.5329L9.76021 9.85361L8.78792 8.08699L9.2846 7.47456L9.25259 6.96431L9.63401 6.26005L9.65308 5.65307L8.75161 5.64329L7.98694 5.25801L7.85991 4.66352L8.08097 3.39196L9.62804 3.35282L9.88409 2.39317L9.60466 1.63348Z"/>
</mask>
<path d="M9.60466 1.63348L10.9061 1.26778L11.4968 1.6862L12.4245 1.5373L13.4119 1.14767L13.8177 1.8215L14.7693 0.715111L15.8795 0L16.8908 0.0592238L17.1603 0.806403L15.6089 1.49219L15.1447 1.98398L15.7779 2.73552L16.2235 2.48065L17.7753 2.53391L18.0699 3.14633L19.5974 2.86321L19.3811 3.99186L19.7372 4.42061L19.9838 5.3292L20.7668 5.72697L21.5804 5.74708L21.4265 6.32527L21.7461 6.9692L22.3688 7.18168L22.5564 8.10928L22.9323 8.56628L24.2034 8.47335L24.982 8.75158L25.1369 9.34825L26.5031 9.06187L26.8503 9.84492L28.1356 9.65363L29.0989 9.84329L29.6728 8.36358L30.6977 8.98198L31.5844 8.58856L31.4514 7.35991L31.6491 6.65565L32.335 6.88063L33.1887 7.44958L33.6613 8.00928L34.6303 8.27826L35.3704 7.88702L36.2774 7.87887L36.1208 9.07653L34.8313 10.5008L34.8418 11.2127L35.8981 11.6931L36.8915 12.6929L37.2316 13.9808L36.0139 15.6974L35.2427 16.4239L34.8879 17.0945L35.9057 17.795L36.4931 18.4846L36.5067 19.016L35.6509 19.9833L37.2474 21.3298L38.1929 21.614L38.6565 20.525L40.3563 21.6695L40.8441 21.6086L41.7635 21.9602L41.7413 22.5829L42.2886 23.8181L42.3151 24.4631L43.0972 26.2547L44.2681 26.3966L44.1404 26.8683L44.9247 27.1932L45.3228 26.345L46.6162 26.1444L46.5761 24.5229L47.0076 24.3371L47.5367 25.1821L48.1921 24.9288L48.579 25.1946L50.0299 24.9305L50.1533 26.0075L51.6443 25.6809L52.1791 25.7733L52.6693 24.9723L53.9131 25.0038L54.7532 25.2076L55.0341 24.7881L56.5855 25.1478L57.4643 25.0212L57.7903 25.4005H58.5984L59.8444 24.9805L59.8885 25.9129L60.4243 25.5461L61.2198 27.2812L61.1198 28.1311L60.7438 28.1545L59.5873 28.8837L57.9056 29.2267L57.5213 29.8135L56.9094 30.1852L57.1774 31.9529L59.5374 32.0725L60.2536 33.5131L59.6407 35.4351L60.7166 34.8895L61.4534 35.1726L61.0541 36.2942L61.3659 36.7442L61.2291 37.4207L61.4627 37.9277L61.3344 39.3411L60.8465 39.7492L59.8901 39.8785L59.2973 38.1146L57.3986 39.8617L56.628 39.6231L56.1134 40.5839L55.8988 41.9891L56.5225 41.8109L57.022 43.2053L56.8165 43.6894L57.3404 44.5143L57.823 44.5888L58.129 45.7082L57.612 45.831L57.0762 46.739L56.1965 46.3902L55.1962 46.3924L53.1197 47.4172L52.2524 47.5677L51.6586 47.0379L50.2163 46.0913L49.3812 47.2156L49.5278 47.5351L48.4291 48.0715L49.2322 49.1051L48.7628 50.2266L47.6172 50.7635L46.8732 49.8425L46.3973 49.9756L44.8044 49.179L44.0574 49.3322L42.7156 48.0503L41.8484 46.8646L41.4642 47.4824L40.185 47.7471L38.9021 46.9803L37.2968 46.8847L37.3717 47.7987L36.1301 47.7085L35.3437 47.9764L34.8155 48.7953L35.1422 49.9055L33.9945 49.1409L32.3333 48.8872L30.9982 49.4561L30.2335 50.3793L28.3996 51.3607L27.9311 51.2857L27.5019 51.7922L26.6286 50.0158L26.321 49.0214L25.2451 48.0008L24.4398 47.0445L24.3887 46.3076L23.7034 45.9489L22.57 46.5603L21.9575 46.2701L21.4325 47.1254L20.6103 46.3272L19.4339 45.6859L19.1078 44.9773L18.9617 44.0427L19.9747 42.7086L19.298 41.825L19.8876 41.1414L19.235 39.1824L20.3659 37.612L19.6078 36.5648L18.9475 36.392L18.3737 35.0292L17.8858 34.4412L18.178 34.0516L17.5085 33.162L17.1103 32.9941L17.7798 31.8817L17.6526 30.4819L16.6798 28.8609L16.1419 28.8408L15.5996 29.8108L14.9704 29.7782L14.9117 28.561L14.3742 28.0545L12.4968 27.4872L12.3451 27.8931L11.4844 28.6365L11.6305 29.0294L10.3307 29.306L9.93832 27.9132L10.2682 27.2084L9.69438 26.7737L10.2786 25.6146L10.0481 24.5501L9.371 25.0348L8.30103 24.9614L7.00122 24.6696L5.84767 24.0018L5.12712 24.2969L4.88036 24.7511L3.60492 23.9855L2.75717 24.5566L2.20196 23.2742L1.79384 23.3084L1.26665 24.111L0.554884 24.4408L0.3456 23.4513L0 23.0856L1.45636 21.6782L1.68356 20.9636L2.42301 20.8794L3.39514 20.0463L4.22448 20.3023L4.53476 20.0713L4.01088 19.4111L4.34123 18.8943L4.81021 18.9921L5.57371 17.8868L6.09161 16.8636L7.15727 16.1387L7.079 15.5089L6.58663 15.0502L6.78613 14.6546L6.5329 13.7069L6.6062 12.8505L7.71962 12.1517L7.90502 12.8358L8.57499 12.0685L8.58312 11.0665L9.84114 10.5329L9.76021 9.85361L8.78792 8.08699L9.2846 7.47456L9.25259 6.96431L9.63401 6.26005L9.65308 5.65307L8.75161 5.64329L7.98694 5.25801L7.85991 4.66352L8.08097 3.39196L9.62804 3.35282L9.88409 2.39317L9.60466 1.63348Z" fill="#F2F2F2" stroke="#07122B" mask="url(#path-1-inside-1_81_170)"/>
</svg>
