<svg width="40" height="55" viewBox="0 0 40 55" fill="none" xmlns="http://www.w3.org/2000/svg">
<mask id="path-1-inside-1_81_159" fill="white">
<path d="M0 18.3552L0.0033167 17.3391L0.453227 16.8978L0.268487 16.2876L0.964662 16.1017L1.54226 16.4533L2.20627 16.1816L2.21439 15.6458L3.44903 16.1066L3.85981 15.5208L4.81303 15.2812L4.72829 13.9721L4.15334 12.2446L4.17838 11.3974L4.47721 10.9627L4.73956 9.90306L3.72664 8.71952L3.98269 7.74789L3.51802 6.45948L4.18584 6.103L3.48933 4.80861L3.46479 3.94785L3.77888 3.67561L2.90078 2.61325L2.74158 2.0095L3.2507 1.69705L3.97457 1.97039L4.19894 1.02051L6.38232 0.724346L6.76441 0.00543109L7.59043 0L7.80452 0.253209L7.94963 1.48458L7.46108 2.29698L7.36108 3.15665L8.22889 3.90927L8.85874 3.71037L10.2693 3.90709L10.309 4.78307L10.7209 5.53731L12.2713 5.67425L13.6076 4.61624L14.7671 4.41084L15.0969 4.12935L16.1925 5.25854L17.3342 5.47863L18.2302 5.38626L18.0395 4.71025L18.9063 4.32008L19.5639 5.23139L20.4017 4.66297L20.9826 5.35583L20.4828 6.26278L21.6244 6.38069L21.9194 5.65143L24.091 4.70754L24.4426 4.98467L25.0669 4.74883L24.6485 4.05218L25.5581 2.98928L26.1775 3.04199L26.826 3.60985L26.7248 4.02175L25.877 4.27715L26.2362 4.9912L26.8188 5.1841L27.452 5.75849L26.4591 7.44087L25.3202 6.71706L24.6094 7.32514L23.1345 7.78321L23.0661 8.47172L22.5177 9.40257L22.6927 10.4302L22.489 10.9752L21.7124 11.8631L20.5083 12.0196L21.4821 13.4678L21.9623 13.7363L22.5521 13.5287L22.796 14.3894L22.0618 14.9714L20.4262 15.3811L21.4222 15.7474L22.2934 16.575L22.3303 17.463L24.0013 18.4764L23.7915 19.3638L23.1991 19.7599L23.7399 20.5544L23.9025 21.2065L24.6691 21.8711L25.6973 21.8314L25.8794 22.0857L25.362 22.9535L25.6722 23.2937L25.1669 23.9866L25.614 24.9462L25.0598 25.0022L25.2348 26.1504L24.1137 26.8693L24.7892 27.9839L25.687 27.6491L25.5586 29.2011L25.061 29.8978L25.0354 31.0096L24.7218 31.4111L25.2016 32.3887L25.7479 33.0006L26.4021 34.1347L27.5448 34.6031L27.8274 35.5074L28.6926 35.9665L29.3251 36.655L29.8369 36.5431L30.6407 37.2473L31.3916 36.8409L32.2388 36.698L32.9522 37.3935L33.9152 37.1213L34.3353 37.4788L34.7379 38.6738L36.0339 37.3816L36.6187 37.9788L35.2704 39.4672L35.1797 39.9709L35.6699 41.7821L36.9729 42.313L37.9245 41.4039L38.5238 41.7897L38.8004 42.952L39.1858 43.4275L39.3059 44.5899L38.6863 45.2485L38.6934 45.8919L39.0939 46.4532L39.2873 47.239L39.1264 48.1193L38.0331 48.3535L37.9631 48.7149L37.0795 49.2105L36.3557 49.1616L34.8129 50.2141L34.989 50.6016L34.2928 51.0227L33.8152 52.0052L33.3181 52.1411L33.0512 52.9546L33.6016 53.4882L33.6288 53.9957L32.829 54.5163L31.9252 54.3245L30.1912 54.9934L29.0941 54.913L27.7828 53.8099L27.3236 52.9187L26.7042 52.8872L25.5598 53.574L24.6278 53.4474L24.598 51.9905L23.5003 50.6239L24.7333 49.6158L24.0605 48.3378L23.6345 48.0286L22.6526 47.8547L21.2978 48.5334L21.2544 47.9894L20.5539 47.7373L20.4914 47.283L19.6291 46.8711L18.7216 47.321L17.8364 46.7238L16.6354 47.1694L17.0593 47.6971L16.9712 48.1644L15.643 47.997L15.2578 48.3704L14.1079 48.7317L13.8515 49.6952L12.9636 48.6687L12.1245 49.1322L11.8371 49.8522L11.3698 48.654L10.7536 48.2133L10.3536 47.6025L9.71295 47.8737L9.3836 47.5841L8.85277 48.047L8.89837 48.4828L8.11629 48.9051L8.28694 49.4729L7.67517 49.5506L7.50237 48.6111L7.27733 47.9487L7.19972 46.7945L7.53653 45.8098L8.32773 45.0615L9.92207 44.4643L10.2791 43.3118L10.0471 42.5619L10.6471 42.0353L10.7111 41.3436L9.97978 40.9235L9.27432 38.7173L9.59289 38.1483L8.87499 36.955L7.71431 35.8638L6.8795 35.66L6.14767 35.0389L6.06989 34.5276L4.79014 34.1456L4.56676 33.3674L3.95168 32.6257L3.01753 30.5276L3.27358 30.1879L2.38073 28.2224L1.93513 28.3692L1.24874 27.5589L1.64011 27.009L0.0441121 25.5282L0.653721 25.2951L1.24343 23.5948L0.903137 22.7275L1.26449 22.3129L0.991693 21.4994L1.66332 21.4418L2.21555 20.7136L1.69002 19.5035L1.12486 18.8601L0 18.3552Z"/>
</mask>
<path d="M0 18.3552L0.0033167 17.3391L0.453227 16.8978L0.268487 16.2876L0.964662 16.1017L1.54226 16.4533L2.20627 16.1816L2.21439 15.6458L3.44903 16.1066L3.85981 15.5208L4.81303 15.2812L4.72829 13.9721L4.15334 12.2446L4.17838 11.3974L4.47721 10.9627L4.73956 9.90306L3.72664 8.71952L3.98269 7.74789L3.51802 6.45948L4.18584 6.103L3.48933 4.80861L3.46479 3.94785L3.77888 3.67561L2.90078 2.61325L2.74158 2.0095L3.2507 1.69705L3.97457 1.97039L4.19894 1.02051L6.38232 0.724346L6.76441 0.00543109L7.59043 0L7.80452 0.253209L7.94963 1.48458L7.46108 2.29698L7.36108 3.15665L8.22889 3.90927L8.85874 3.71037L10.2693 3.90709L10.309 4.78307L10.7209 5.53731L12.2713 5.67425L13.6076 4.61624L14.7671 4.41084L15.0969 4.12935L16.1925 5.25854L17.3342 5.47863L18.2302 5.38626L18.0395 4.71025L18.9063 4.32008L19.5639 5.23139L20.4017 4.66297L20.9826 5.35583L20.4828 6.26278L21.6244 6.38069L21.9194 5.65143L24.091 4.70754L24.4426 4.98467L25.0669 4.74883L24.6485 4.05218L25.5581 2.98928L26.1775 3.04199L26.826 3.60985L26.7248 4.02175L25.877 4.27715L26.2362 4.9912L26.8188 5.1841L27.452 5.75849L26.4591 7.44087L25.3202 6.71706L24.6094 7.32514L23.1345 7.78321L23.0661 8.47172L22.5177 9.40257L22.6927 10.4302L22.489 10.9752L21.7124 11.8631L20.5083 12.0196L21.4821 13.4678L21.9623 13.7363L22.5521 13.5287L22.796 14.3894L22.0618 14.9714L20.4262 15.3811L21.4222 15.7474L22.2934 16.575L22.3303 17.463L24.0013 18.4764L23.7915 19.3638L23.1991 19.7599L23.7399 20.5544L23.9025 21.2065L24.6691 21.8711L25.6973 21.8314L25.8794 22.0857L25.362 22.9535L25.6722 23.2937L25.1669 23.9866L25.614 24.9462L25.0598 25.0022L25.2348 26.1504L24.1137 26.8693L24.7892 27.9839L25.687 27.6491L25.5586 29.2011L25.061 29.8978L25.0354 31.0096L24.7218 31.4111L25.2016 32.3887L25.7479 33.0006L26.4021 34.1347L27.5448 34.6031L27.8274 35.5074L28.6926 35.9665L29.3251 36.655L29.8369 36.5431L30.6407 37.2473L31.3916 36.8409L32.2388 36.698L32.9522 37.3935L33.9152 37.1213L34.3353 37.4788L34.7379 38.6738L36.0339 37.3816L36.6187 37.9788L35.2704 39.4672L35.1797 39.9709L35.6699 41.7821L36.9729 42.313L37.9245 41.4039L38.5238 41.7897L38.8004 42.952L39.1858 43.4275L39.3059 44.5899L38.6863 45.2485L38.6934 45.8919L39.0939 46.4532L39.2873 47.239L39.1264 48.1193L38.0331 48.3535L37.9631 48.7149L37.0795 49.2105L36.3557 49.1616L34.8129 50.2141L34.989 50.6016L34.2928 51.0227L33.8152 52.0052L33.3181 52.1411L33.0512 52.9546L33.6016 53.4882L33.6288 53.9957L32.829 54.5163L31.9252 54.3245L30.1912 54.9934L29.0941 54.913L27.7828 53.8099L27.3236 52.9187L26.7042 52.8872L25.5598 53.574L24.6278 53.4474L24.598 51.9905L23.5003 50.6239L24.7333 49.6158L24.0605 48.3378L23.6345 48.0286L22.6526 47.8547L21.2978 48.5334L21.2544 47.9894L20.5539 47.7373L20.4914 47.283L19.6291 46.8711L18.7216 47.321L17.8364 46.7238L16.6354 47.1694L17.0593 47.6971L16.9712 48.1644L15.643 47.997L15.2578 48.3704L14.1079 48.7317L13.8515 49.6952L12.9636 48.6687L12.1245 49.1322L11.8371 49.8522L11.3698 48.654L10.7536 48.2133L10.3536 47.6025L9.71295 47.8737L9.3836 47.5841L8.85277 48.047L8.89837 48.4828L8.11629 48.9051L8.28694 49.4729L7.67517 49.5506L7.50237 48.6111L7.27733 47.9487L7.19972 46.7945L7.53653 45.8098L8.32773 45.0615L9.92207 44.4643L10.2791 43.3118L10.0471 42.5619L10.6471 42.0353L10.7111 41.3436L9.97978 40.9235L9.27432 38.7173L9.59289 38.1483L8.87499 36.955L7.71431 35.8638L6.8795 35.66L6.14767 35.0389L6.06989 34.5276L4.79014 34.1456L4.56676 33.3674L3.95168 32.6257L3.01753 30.5276L3.27358 30.1879L2.38073 28.2224L1.93513 28.3692L1.24874 27.5589L1.64011 27.009L0.0441121 25.5282L0.653721 25.2951L1.24343 23.5948L0.903137 22.7275L1.26449 22.3129L0.991693 21.4994L1.66332 21.4418L2.21555 20.7136L1.69002 19.5035L1.12486 18.8601L0 18.3552Z" fill="#F2F2F2" stroke="#07122B" mask="url(#path-1-inside-1_81_159)"/>
</svg>
