<svg width="52" height="36" viewBox="0 0 52 36" fill="none" xmlns="http://www.w3.org/2000/svg">
<mask id="path-1-inside-1_81_94" fill="white">
<path d="M0.772127 3.62074L2.23446 3.85548L3.10012 3.77832L3.60276 3.11264L4.29512 2.81322L4.99876 2.85997L5.41285 1.82802L6.30023 1.85084L7.63653 1.19658L7.84731 0.257044L8.13636 0.177692L8.76902 0.832512L9.24994 0.843913L9.83235 0.220623L10.697 0.809129L10.8643 1.19497L13.796 1.2368L14.6247 0.142369L15.5192 0L15.5605 0.570037L16.9097 1.32266L17.7639 1.48677L18.6133 2.57249L18.6753 3.47781L19.7425 4.51844L20.6843 3.83483L20.7081 3.3849L21.4053 3.26262L21.7819 2.28232L22.39 2.6415L22.7118 3.35175L23.6209 3.39794L24.3648 3.71149L26.0591 3.67071L26.1086 2.30243L26.4188 1.74923L27.7301 2.22635L28.4263 3.36044L28.9788 3.56966L30.0266 3.51477L30.1994 4.45433L30.8111 4.37661L30.6405 3.80875L31.4226 3.38652L31.377 2.9507L31.9078 2.48773L32.2371 2.77736L32.8778 2.5062L33.2778 3.11699L33.894 3.5577L34.3613 4.75592L34.6487 4.0359L35.4878 3.57237L36.3757 4.59887L36.6321 3.63541L37.782 3.27404L38.1672 2.90072L39.4954 3.06809L39.5835 2.60075L39.1596 2.0731L40.3606 1.6275L41.2458 2.22472L42.1532 1.77477L43.0156 2.18668L43.0781 2.64096L43.7786 2.89311L43.822 3.43705L45.1767 2.75833L46.1587 2.93223L46.5847 3.24143L47.2575 4.51952L46.0245 5.52755L47.1222 6.89421L47.152 8.35109L48.084 8.47771L49.2284 7.79084L49.8478 7.82235L50.307 8.71355L51.6183 9.81666L51.878 10.4937L51.3939 11.0382L51.5161 11.9626L51.2156 12.8157L50.7299 13.0462L50.2805 13.7879L50.1316 14.6237L50.6326 15.9659L49.5246 16.0697L49.7093 15.4936L48.9273 14.8155L47.6954 15.0611L47.7095 15.7393L48.5578 15.9979L48.5079 16.7147L47.0368 16.9886L47.2878 17.5542L46.5575 18.271L46.532 18.6612L47.0644 19.272L47.7084 19.3002L47.7492 20.2794L46.9233 20.4142L46.3527 20.831L45.461 20.555L44.9817 20.8044L44.492 22.3227L45.3534 23.2437L45.3164 23.648L44.0323 23.8888L43.0585 24.3164L42.444 23.823L41.9771 24.1806L42.0282 24.8778L41.7805 25.6391L40.579 26.9612L40.3675 28.1225L39.584 28.7713L38.7216 28.7545L38.0717 28.4691L37.2137 28.9229L36.4208 29.1196L35.8703 28.7892L35.0416 28.8724L34.5482 30.2026L33.6874 31.5095L33.1239 31.9828L31.9247 31.2117L31.6144 31.7763L31.4823 32.8137L31.1514 32.9517L30.8987 34.2581L30.1189 34.4412L29.8456 35.127L29.2843 34.8145L28.7311 35.4976L27.7263 35.2672L27.5425 34.9455L27.9991 34.2755L27.6611 33.794L26.7329 34.3005L26.5281 33.5163L25.3591 32.3942L24.5767 31.365L24.4071 30.6737L23.5486 30.9846L22.9084 30.7194L22.6074 30.9868L21.4826 31.0949L21.7803 29.7603L21.2537 28.8827L20.0055 28.442L18.8432 28.5979L19.0193 29.4804L18.5558 30.6281L17.0674 31.1204L15.5523 31.3796L14.9041 32.2589L14.2421 31.3427L13.7492 31.0634L13.8514 30.539L13.094 29.5663L13.0038 28.4034L12.3413 27.3541L12.1658 26.564L12.2446 25.219L11.8506 24.4137L11.3376 24.7414L10.6393 24.2317L10.2655 23.6698L9.77265 23.5355L9.68028 22.8818L10.3906 22.6607L10.6257 22.0597L9.8438 22.0727L9.42324 20.7495L9.02225 20.5723L8.49025 20.9669L7.88048 20.2164L8.16787 19.842L8.00336 18.9791L8.54514 17.8042L7.81315 17.4266L8.13752 16.8277L8.94994 17.1989L9.82754 16.8831L9.27482 16.3827L7.97832 15.6382L7.55328 15.8909L6.71864 13.8091L6.5523 12.6755L6.93173 12.2544L6.79741 11.0415L5.74983 10.8551L5.60356 9.89655L5.09395 9.43248L5.38184 8.34459L5.1379 7.74955L4.37871 7.40828L3.2832 7.98974L3.0963 7.22462L2.36812 7.12788L1.0227 7.32134L0.808611 6.954L0 6.99801L0.141291 6.47633L0.667817 6.48665L1.14924 6.01662L0.53034 5.56994L1.24161 4.71624L0.772127 3.62074Z"/>
</mask>
<path d="M0.772127 3.62074L2.23446 3.85548L3.10012 3.77832L3.60276 3.11264L4.29512 2.81322L4.99876 2.85997L5.41285 1.82802L6.30023 1.85084L7.63653 1.19658L7.84731 0.257044L8.13636 0.177692L8.76902 0.832512L9.24994 0.843913L9.83235 0.220623L10.697 0.809129L10.8643 1.19497L13.796 1.2368L14.6247 0.142369L15.5192 0L15.5605 0.570037L16.9097 1.32266L17.7639 1.48677L18.6133 2.57249L18.6753 3.47781L19.7425 4.51844L20.6843 3.83483L20.7081 3.3849L21.4053 3.26262L21.7819 2.28232L22.39 2.6415L22.7118 3.35175L23.6209 3.39794L24.3648 3.71149L26.0591 3.67071L26.1086 2.30243L26.4188 1.74923L27.7301 2.22635L28.4263 3.36044L28.9788 3.56966L30.0266 3.51477L30.1994 4.45433L30.8111 4.37661L30.6405 3.80875L31.4226 3.38652L31.377 2.9507L31.9078 2.48773L32.2371 2.77736L32.8778 2.5062L33.2778 3.11699L33.894 3.5577L34.3613 4.75592L34.6487 4.0359L35.4878 3.57237L36.3757 4.59887L36.6321 3.63541L37.782 3.27404L38.1672 2.90072L39.4954 3.06809L39.5835 2.60075L39.1596 2.0731L40.3606 1.6275L41.2458 2.22472L42.1532 1.77477L43.0156 2.18668L43.0781 2.64096L43.7786 2.89311L43.822 3.43705L45.1767 2.75833L46.1587 2.93223L46.5847 3.24143L47.2575 4.51952L46.0245 5.52755L47.1222 6.89421L47.152 8.35109L48.084 8.47771L49.2284 7.79084L49.8478 7.82235L50.307 8.71355L51.6183 9.81666L51.878 10.4937L51.3939 11.0382L51.5161 11.9626L51.2156 12.8157L50.7299 13.0462L50.2805 13.7879L50.1316 14.6237L50.6326 15.9659L49.5246 16.0697L49.7093 15.4936L48.9273 14.8155L47.6954 15.0611L47.7095 15.7393L48.5578 15.9979L48.5079 16.7147L47.0368 16.9886L47.2878 17.5542L46.5575 18.271L46.532 18.6612L47.0644 19.272L47.7084 19.3002L47.7492 20.2794L46.9233 20.4142L46.3527 20.831L45.461 20.555L44.9817 20.8044L44.492 22.3227L45.3534 23.2437L45.3164 23.648L44.0323 23.8888L43.0585 24.3164L42.444 23.823L41.9771 24.1806L42.0282 24.8778L41.7805 25.6391L40.579 26.9612L40.3675 28.1225L39.584 28.7713L38.7216 28.7545L38.0717 28.4691L37.2137 28.9229L36.4208 29.1196L35.8703 28.7892L35.0416 28.8724L34.5482 30.2026L33.6874 31.5095L33.1239 31.9828L31.9247 31.2117L31.6144 31.7763L31.4823 32.8137L31.1514 32.9517L30.8987 34.2581L30.1189 34.4412L29.8456 35.127L29.2843 34.8145L28.7311 35.4976L27.7263 35.2672L27.5425 34.9455L27.9991 34.2755L27.6611 33.794L26.7329 34.3005L26.5281 33.5163L25.3591 32.3942L24.5767 31.365L24.4071 30.6737L23.5486 30.9846L22.9084 30.7194L22.6074 30.9868L21.4826 31.0949L21.7803 29.7603L21.2537 28.8827L20.0055 28.442L18.8432 28.5979L19.0193 29.4804L18.5558 30.6281L17.0674 31.1204L15.5523 31.3796L14.9041 32.2589L14.2421 31.3427L13.7492 31.0634L13.8514 30.539L13.094 29.5663L13.0038 28.4034L12.3413 27.3541L12.1658 26.564L12.2446 25.219L11.8506 24.4137L11.3376 24.7414L10.6393 24.2317L10.2655 23.6698L9.77265 23.5355L9.68028 22.8818L10.3906 22.6607L10.6257 22.0597L9.8438 22.0727L9.42324 20.7495L9.02225 20.5723L8.49025 20.9669L7.88048 20.2164L8.16787 19.842L8.00336 18.9791L8.54514 17.8042L7.81315 17.4266L8.13752 16.8277L8.94994 17.1989L9.82754 16.8831L9.27482 16.3827L7.97832 15.6382L7.55328 15.8909L6.71864 13.8091L6.5523 12.6755L6.93173 12.2544L6.79741 11.0415L5.74983 10.8551L5.60356 9.89655L5.09395 9.43248L5.38184 8.34459L5.1379 7.74955L4.37871 7.40828L3.2832 7.98974L3.0963 7.22462L2.36812 7.12788L1.0227 7.32134L0.808611 6.954L0 6.99801L0.141291 6.47633L0.667817 6.48665L1.14924 6.01662L0.53034 5.56994L1.24161 4.71624L0.772127 3.62074Z" fill="#F2F2F2" stroke="#07122B" mask="url(#path-1-inside-1_81_94)"/>
</svg>
