<svg width="60" height="53" viewBox="0 0 60 53" fill="none" xmlns="http://www.w3.org/2000/svg">
<mask id="path-1-inside-1_81_152" fill="white">
<path d="M3.73477 21.1913L3.89944 20.4006L4.99611 19.5975L5.24271 20.5218L5.86608 20.7538L7.02626 20.2914L7.61414 20.8266L8.56023 20.6001L9.11512 20.2517L9.05641 19.1204L9.40417 18.8101L9.6841 17.5167L10.2552 17.8384L10.9539 17.614L11.6002 18.6954L12.9315 17.7972L13.6824 17.67L13.9003 18.8687L14.4948 18.8894L14.9198 18.5427L14.8523 17.1516L16.9636 16.5082L16.7488 15.7985L17.0483 14.4737L16.8092 13.1119L17.4369 12.7049L17.5085 11.9338L17.0429 11.173L17.5722 10.165L18.61 10.1867L18.7627 9.49985L19.1682 9.06947L20.1327 9.27162L21.7433 7.96853L21.7259 8.85863L22.3292 8.90971L22.9822 8.13698L24.35 7.65662L25.1271 7.66205L25.6885 6.99637L26.4601 7.1132L26.9258 6.84421L28.1089 7.3735L29.0538 7.51425L29.7564 7.00887L30.5834 7.46425L31.2634 6.95887L32.0713 6.68445L33.125 6.91758L33.8787 5.98291L34.0053 5.28464L34.6189 3.9022L35.1437 3.99894L35.8485 3.04906L36.5767 3.10503L37.957 2.78008L38.2875 2.29263L40.1024 1.77151L40.2181 1.34492L39.7758 0L41.2577 0.264631L41.8581 0.144007L42.5113 0.591761L42.9585 0.332561L43.3965 0.655898L43.5351 1.3846L44.0161 1.9867L48.3991 3.21046L48.2513 3.85384L48.6306 4.56898L48.1215 5.44223L48.716 6.13345L49.5342 6.38069L50.2044 6.25842L50.3113 6.99204L50.9853 7.65119L50.8049 9.29552L51.5194 9.84274L51.6307 10.8578L52.4068 11.6838L53.662 11.7414L54.0756 12.2636L55.3559 12.8152L56.5063 12.9212L57.2132 13.4977L56.759 14.1569L55.89 14.5764L55.5232 15.0703L55.6091 15.7708L56.0671 16.343L55.8253 18.0476L56.5703 18.3204L57.2354 19.0046L58.7369 18.8073L58.9777 19.3763L58.6326 19.9719L59.214 21.0331L59.3472 24.5093L58.4858 25.3076L57.0013 25.6722L55.8368 25.6929L54.7086 25.3043L53.5594 25.6641L52.1503 25.5369L51.1407 25.6684L50.5032 26.3987L49.0306 26.5221L48.0117 26.9938L46.964 27.0438L46.331 27.2677L45.662 28.0692L45.1078 28.18L44.4073 29.0049L46.4222 29.0745L47.2847 29.7103L47.1547 30.6205L48.0606 32.0312L49.0311 32.5279L50.2777 31.8431L50.777 32.4529L50.5321 33.619L50.8858 34.9938L51.5335 35.5807L51.045 36.5594L50.3254 37.0887L49.7767 37.7571L48.7084 38.1548L49.1963 39.0639L48.5454 40.0079L51.139 40.486L51.7546 41.5892L52.7149 42.0494L53.0035 42.4201L53.136 43.3373L51.9878 43.9036L50.4292 43.3841L49.3757 42.5858L48.5888 41.7767L48.3432 41.8669L47.5759 40.9181L46.7135 41.9473L46.3668 43.653L45.6441 43.6242L45.0658 43.2227L44.1844 43.3623L43.5046 43.8019L43.9307 44.4339L43.8405 45.7191L44.228 46.5119L43.8622 47.4183L44.0192 47.8166L43.0118 48.3627L42.2217 48.4568L40.6408 49.474L40.072 49.1143L40.5675 48.084L40.0534 47.1988L39.9959 46.1522L40.1959 45.4197L39.9224 43.8867L39.6286 43.3514L38.9584 43.3422L38.4211 44.0601L37.7065 44.197L36.9913 44.7018L37.4609 45.318L36.9913 46.6526L37.4712 47.4129L37.394 47.7835L38.3037 48.7274L37.9386 49.6816L37.851 50.4304L38.5021 50.8592L38.9715 51.9215L38.0331 52.3595L37.5832 52.1938L36.8815 52.9198L34.9976 52.4378L34.1749 52.0596L32.9642 52.2584L32.0789 51.4037L30.8237 51.7797L30.2889 51.1287L30.3569 50.3625L29.8097 49.2632L28.6397 49.5387L26.8172 49.1659L26.9215 48.0334L25.545 48.0959L24.6159 47.7704L23.7436 47.0026L23.6078 46.1712L22.5041 45.5234L21.7433 43.9932L21.1819 43.8932L20.4668 42.2309L19.136 41.3213L18.6589 40.4143L16.6233 39.5894L15.2963 39.4568L14.0361 38.9183L12.468 38.7162L11.4653 38.2467L12.1582 37.6772L12.2869 37.256L13.3253 36.8838L14.1003 36.986L14.547 35.9893L14.754 34.7955L14.6378 33.9847L13.8943 32.8582L14.2568 32.5594L14.322 30.9395L13.9036 30.1325L12.4532 31.0335L12.3658 31.522L11.5121 31.6345L10.7068 32.5969L9.62257 32.8387L8.32823 31.9149L7.41315 30.7444L6.46209 30.3363L5.76276 30.3346L4.97588 30.8509L4.70424 31.5454L3.94571 31.3019L3.60061 30.871L2.39864 30.5863L2.24209 30.333L0.461353 29.7418L0.504304 29.3435L1.27212 29.1142L2.20842 29.8608L2.70344 29.4554L2.71488 28.4925L1.99649 28.4197L1.79533 26.7444L1.00695 25.688L0.525365 25.6728L0 25.1402L0.903137 24.7109L1.37975 24.1621L2.60013 23.1888L3.34025 22.8389L4.21735 23.1666L4.36842 22.6422L3.71354 22.3884L4.13045 21.6945L3.73477 21.1913Z"/>
</mask>
<path d="M3.73477 21.1913L3.89944 20.4006L4.99611 19.5975L5.24271 20.5218L5.86608 20.7538L7.02626 20.2914L7.61414 20.8266L8.56023 20.6001L9.11512 20.2517L9.05641 19.1204L9.40417 18.8101L9.6841 17.5167L10.2552 17.8384L10.9539 17.614L11.6002 18.6954L12.9315 17.7972L13.6824 17.67L13.9003 18.8687L14.4948 18.8894L14.9198 18.5427L14.8523 17.1516L16.9636 16.5082L16.7488 15.7985L17.0483 14.4737L16.8092 13.1119L17.4369 12.7049L17.5085 11.9338L17.0429 11.173L17.5722 10.165L18.61 10.1867L18.7627 9.49985L19.1682 9.06947L20.1327 9.27162L21.7433 7.96853L21.7259 8.85863L22.3292 8.90971L22.9822 8.13698L24.35 7.65662L25.1271 7.66205L25.6885 6.99637L26.4601 7.1132L26.9258 6.84421L28.1089 7.3735L29.0538 7.51425L29.7564 7.00887L30.5834 7.46425L31.2634 6.95887L32.0713 6.68445L33.125 6.91758L33.8787 5.98291L34.0053 5.28464L34.6189 3.9022L35.1437 3.99894L35.8485 3.04906L36.5767 3.10503L37.957 2.78008L38.2875 2.29263L40.1024 1.77151L40.2181 1.34492L39.7758 0L41.2577 0.264631L41.8581 0.144007L42.5113 0.591761L42.9585 0.332561L43.3965 0.655898L43.5351 1.3846L44.0161 1.9867L48.3991 3.21046L48.2513 3.85384L48.6306 4.56898L48.1215 5.44223L48.716 6.13345L49.5342 6.38069L50.2044 6.25842L50.3113 6.99204L50.9853 7.65119L50.8049 9.29552L51.5194 9.84274L51.6307 10.8578L52.4068 11.6838L53.662 11.7414L54.0756 12.2636L55.3559 12.8152L56.5063 12.9212L57.2132 13.4977L56.759 14.1569L55.89 14.5764L55.5232 15.0703L55.6091 15.7708L56.0671 16.343L55.8253 18.0476L56.5703 18.3204L57.2354 19.0046L58.7369 18.8073L58.9777 19.3763L58.6326 19.9719L59.214 21.0331L59.3472 24.5093L58.4858 25.3076L57.0013 25.6722L55.8368 25.6929L54.7086 25.3043L53.5594 25.6641L52.1503 25.5369L51.1407 25.6684L50.5032 26.3987L49.0306 26.5221L48.0117 26.9938L46.964 27.0438L46.331 27.2677L45.662 28.0692L45.1078 28.18L44.4073 29.0049L46.4222 29.0745L47.2847 29.7103L47.1547 30.6205L48.0606 32.0312L49.0311 32.5279L50.2777 31.8431L50.777 32.4529L50.5321 33.619L50.8858 34.9938L51.5335 35.5807L51.045 36.5594L50.3254 37.0887L49.7767 37.7571L48.7084 38.1548L49.1963 39.0639L48.5454 40.0079L51.139 40.486L51.7546 41.5892L52.7149 42.0494L53.0035 42.4201L53.136 43.3373L51.9878 43.9036L50.4292 43.3841L49.3757 42.5858L48.5888 41.7767L48.3432 41.8669L47.5759 40.9181L46.7135 41.9473L46.3668 43.653L45.6441 43.6242L45.0658 43.2227L44.1844 43.3623L43.5046 43.8019L43.9307 44.4339L43.8405 45.7191L44.228 46.5119L43.8622 47.4183L44.0192 47.8166L43.0118 48.3627L42.2217 48.4568L40.6408 49.474L40.072 49.1143L40.5675 48.084L40.0534 47.1988L39.9959 46.1522L40.1959 45.4197L39.9224 43.8867L39.6286 43.3514L38.9584 43.3422L38.4211 44.0601L37.7065 44.197L36.9913 44.7018L37.4609 45.318L36.9913 46.6526L37.4712 47.4129L37.394 47.7835L38.3037 48.7274L37.9386 49.6816L37.851 50.4304L38.5021 50.8592L38.9715 51.9215L38.0331 52.3595L37.5832 52.1938L36.8815 52.9198L34.9976 52.4378L34.1749 52.0596L32.9642 52.2584L32.0789 51.4037L30.8237 51.7797L30.2889 51.1287L30.3569 50.3625L29.8097 49.2632L28.6397 49.5387L26.8172 49.1659L26.9215 48.0334L25.545 48.0959L24.6159 47.7704L23.7436 47.0026L23.6078 46.1712L22.5041 45.5234L21.7433 43.9932L21.1819 43.8932L20.4668 42.2309L19.136 41.3213L18.6589 40.4143L16.6233 39.5894L15.2963 39.4568L14.0361 38.9183L12.468 38.7162L11.4653 38.2467L12.1582 37.6772L12.2869 37.256L13.3253 36.8838L14.1003 36.986L14.547 35.9893L14.754 34.7955L14.6378 33.9847L13.8943 32.8582L14.2568 32.5594L14.322 30.9395L13.9036 30.1325L12.4532 31.0335L12.3658 31.522L11.5121 31.6345L10.7068 32.5969L9.62257 32.8387L8.32823 31.9149L7.41315 30.7444L6.46209 30.3363L5.76276 30.3346L4.97588 30.8509L4.70424 31.5454L3.94571 31.3019L3.60061 30.871L2.39864 30.5863L2.24209 30.333L0.461353 29.7418L0.504304 29.3435L1.27212 29.1142L2.20842 29.8608L2.70344 29.4554L2.71488 28.4925L1.99649 28.4197L1.79533 26.7444L1.00695 25.688L0.525365 25.6728L0 25.1402L0.903137 24.7109L1.37975 24.1621L2.60013 23.1888L3.34025 22.8389L4.21735 23.1666L4.36842 22.6422L3.71354 22.3884L4.13045 21.6945L3.73477 21.1913Z" fill="#F2F2F2" stroke="#07122B" mask="url(#path-1-inside-1_81_152)"/>
</svg>
