<svg width="60" height="48" viewBox="0 0 60 48" fill="none" xmlns="http://www.w3.org/2000/svg">
<mask id="path-1-inside-1_81_129" fill="white">
<path d="M17.7493 3.04309L18.8927 2.90887L19.4806 3.1659L19.9181 2.56272L20.9143 2.65835L21.8358 1.89759L22.0478 2.4774L23.7165 2.08669L23.5731 1.53405L24.6479 1.67098L24.9077 0.515695L25.619 0L26.452 0.68524L27.0618 0.647202L27.3959 2.19754L27.816 1.4971L28.8724 1.86932L29.5072 0.618948L30.3292 0.786856L31.1748 1.81879L32.7252 1.43243L32.8317 1.16507L33.4267 2.23341L33.5816 2.95452L33.3718 3.50988L33.5859 4.50703L34.6869 5.0738L35.2568 4.78743L35.8253 5.69438L36.6399 5.71013L36.653 6.42091L37.1843 7.48491L37.2561 8.1321L36.6731 8.96624L37.0316 9.68951L36.6275 10.2514L35.7895 9.80471L35.4733 10.666L34.9358 11.3355L36.0535 11.9017L37.2082 11.8457L37.8077 11.129L39.0118 11.1132L39.1634 11.6442L40.2112 11.6284L41.711 11.3023L42.4055 12.1419L43.8998 12.031L44.5404 11.3311L45.8273 10.8399L45.818 10.0482L47.2515 9.56887L47.8493 9.99926L47.4162 10.4747L47.4978 11.6251L48.2401 11.7289L48.8019 11.4942L49.9669 10.2427L52.5013 9.86612L53.1123 9.77265L53.5066 10.4421L55.2804 10.8932L55.9238 11.5192L55.4477 12.3859L56.1379 12.4788L56.2515 13.4521L56.6965 13.8596L56.7129 14.9013L57.0834 15.3323L57.7115 15.5078L58.3528 16.4386L59.0576 17.0005L58.6316 17.5635L58.6838 18.164L59.4201 18.5449L59.288 19.0986L59.5798 19.8007L59.5734 20.4702L58.8664 20.9799L58.8739 21.519L57.9409 22.0461L57.7246 22.6585L56.7144 23.0584L56.7024 23.7964L56.2232 24.0159L55.1826 24.0855L55.326 24.6158L55.0957 25.2717L55.295 25.8173L54.8322 26.2058L55.7064 26.5428L55.9976 27.1036L55.9852 27.8165L55.3766 28.1062L55.8754 29.8222L55.7136 30.633L54.3816 30.6509L53.2154 31.2204L52.9829 31.7655L52.0085 31.8568L51.6846 31.5601L51.0451 31.8356L50.048 31.8024L49.38 32.1996L49.611 32.5686L49.4377 33.7619L49.7072 34.8042L50.3621 34.2472L50.3719 35.1493L51.6977 35.8633L52.1357 36.3486L51.8227 37.0235L52.2096 37.6723L53.1415 38.3363L52.4906 38.8336L52.3488 39.3558L52.6872 40.254L52.7596 41.2197L53.4741 41.6821L53.9458 42.5195L53.3247 43.1564L51.6825 42.6912L51.3194 43.2276L50.7903 43.4254L49.6795 43.3357L49.1067 43.847L49.3258 44.3877L50.1974 45.2398L48.9225 45.6707L48.3926 46.4511L47.752 46.6032L46.2538 44.9148L45.1948 44.7279L44.5996 45.1246L44.7807 46.3755L43.2308 47.2205L42.2196 46.9961L42.0816 45.6158L41.4305 45.455L40.5252 44.8513L40.7286 44.1769L39.6863 43.1145L39.0651 42.9874L38.7314 42.3625L38.1555 42.1837L36.7709 42.5472L36.0829 42.5836L34.7396 41.1132L34.5685 40.5165L34.0728 40.2845L32.0231 41.2582L31.7149 41.6142L30.5999 40.5388L29.9516 40.4116L28.7088 39.5302L28.6458 39.2444L26.7792 39.703L26.8792 38.8531L26.0837 37.118L25.5479 37.4848L25.5038 36.5523L24.2578 36.9724H23.4497L23.1237 36.5931L22.2449 36.7197L20.6935 36.36L20.4126 36.7795L19.5725 36.5757L18.3287 36.5442L17.8385 37.3452L17.3037 37.2528L15.8127 37.5794L15.6893 36.5024L14.2384 36.7664L13.8515 36.5007L13.1961 36.7539L12.667 35.9089L12.2355 36.0948L12.2756 37.7163L10.9823 37.9168L10.5841 38.7651L9.79985 38.4401L9.92754 37.9685L8.75658 37.8266L7.9745 36.035L7.94797 35.39L7.40072 34.1548L7.42294 33.5321L6.50355 33.1805L6.01566 33.2414L4.31585 32.0969L3.85235 33.1859L2.90675 32.9017L1.31026 31.5552L2.16614 30.5879L2.15254 30.0564L1.56515 29.3668L0.547255 28.6664L0.902142 27.9958L1.67327 27.2693L2.891 25.5527L2.55087 24.2648L1.55752 23.2649L0.501153 22.7845L0.490706 22.0727L1.78024 20.6484L1.93679 19.4507L1.02983 19.4589L0.289714 19.8501L0.209284 18.2368L0 17.345L0.988542 16.7777L1.22386 16.4365L2.00246 16.8902L3.02466 17.2L3.13776 16.5098L4.02017 16.2251L4.12133 15.0149L4.4918 15.1491L5.29179 14.6693L6.14601 15.2594L6.5198 14.5921L7.61862 15.2328L7.84963 14.9926L8.938 15.2959L9.86884 14.6074L10.5378 14.6584L11.0856 14.2123L12.0252 14.434L13.0331 14.2748L13.0097 13.639L13.7167 13.4993L14.3678 11.6442L14.7623 11.7604L15.0475 10.8122L14.4193 10.4584L15.2177 9.26239L16.6566 9.31402L17.2196 7.62782L16.6077 6.60024L16.712 4.75862L17.406 4.29727L17.7493 3.04309Z"/>
</mask>
<path d="M17.7493 3.04309L18.8927 2.90887L19.4806 3.1659L19.9181 2.56272L20.9143 2.65835L21.8358 1.89759L22.0478 2.4774L23.7165 2.08669L23.5731 1.53405L24.6479 1.67098L24.9077 0.515695L25.619 0L26.452 0.68524L27.0618 0.647202L27.3959 2.19754L27.816 1.4971L28.8724 1.86932L29.5072 0.618948L30.3292 0.786856L31.1748 1.81879L32.7252 1.43243L32.8317 1.16507L33.4267 2.23341L33.5816 2.95452L33.3718 3.50988L33.5859 4.50703L34.6869 5.0738L35.2568 4.78743L35.8253 5.69438L36.6399 5.71013L36.653 6.42091L37.1843 7.48491L37.2561 8.1321L36.6731 8.96624L37.0316 9.68951L36.6275 10.2514L35.7895 9.80471L35.4733 10.666L34.9358 11.3355L36.0535 11.9017L37.2082 11.8457L37.8077 11.129L39.0118 11.1132L39.1634 11.6442L40.2112 11.6284L41.711 11.3023L42.4055 12.1419L43.8998 12.031L44.5404 11.3311L45.8273 10.8399L45.818 10.0482L47.2515 9.56887L47.8493 9.99926L47.4162 10.4747L47.4978 11.6251L48.2401 11.7289L48.8019 11.4942L49.9669 10.2427L52.5013 9.86612L53.1123 9.77265L53.5066 10.4421L55.2804 10.8932L55.9238 11.5192L55.4477 12.3859L56.1379 12.4788L56.2515 13.4521L56.6965 13.8596L56.7129 14.9013L57.0834 15.3323L57.7115 15.5078L58.3528 16.4386L59.0576 17.0005L58.6316 17.5635L58.6838 18.164L59.4201 18.5449L59.288 19.0986L59.5798 19.8007L59.5734 20.4702L58.8664 20.9799L58.8739 21.519L57.9409 22.0461L57.7246 22.6585L56.7144 23.0584L56.7024 23.7964L56.2232 24.0159L55.1826 24.0855L55.326 24.6158L55.0957 25.2717L55.295 25.8173L54.8322 26.2058L55.7064 26.5428L55.9976 27.1036L55.9852 27.8165L55.3766 28.1062L55.8754 29.8222L55.7136 30.633L54.3816 30.6509L53.2154 31.2204L52.9829 31.7655L52.0085 31.8568L51.6846 31.5601L51.0451 31.8356L50.048 31.8024L49.38 32.1996L49.611 32.5686L49.4377 33.7619L49.7072 34.8042L50.3621 34.2472L50.3719 35.1493L51.6977 35.8633L52.1357 36.3486L51.8227 37.0235L52.2096 37.6723L53.1415 38.3363L52.4906 38.8336L52.3488 39.3558L52.6872 40.254L52.7596 41.2197L53.4741 41.6821L53.9458 42.5195L53.3247 43.1564L51.6825 42.6912L51.3194 43.2276L50.7903 43.4254L49.6795 43.3357L49.1067 43.847L49.3258 44.3877L50.1974 45.2398L48.9225 45.6707L48.3926 46.4511L47.752 46.6032L46.2538 44.9148L45.1948 44.7279L44.5996 45.1246L44.7807 46.3755L43.2308 47.2205L42.2196 46.9961L42.0816 45.6158L41.4305 45.455L40.5252 44.8513L40.7286 44.1769L39.6863 43.1145L39.0651 42.9874L38.7314 42.3625L38.1555 42.1837L36.7709 42.5472L36.0829 42.5836L34.7396 41.1132L34.5685 40.5165L34.0728 40.2845L32.0231 41.2582L31.7149 41.6142L30.5999 40.5388L29.9516 40.4116L28.7088 39.5302L28.6458 39.2444L26.7792 39.703L26.8792 38.8531L26.0837 37.118L25.5479 37.4848L25.5038 36.5523L24.2578 36.9724H23.4497L23.1237 36.5931L22.2449 36.7197L20.6935 36.36L20.4126 36.7795L19.5725 36.5757L18.3287 36.5442L17.8385 37.3452L17.3037 37.2528L15.8127 37.5794L15.6893 36.5024L14.2384 36.7664L13.8515 36.5007L13.1961 36.7539L12.667 35.9089L12.2355 36.0948L12.2756 37.7163L10.9823 37.9168L10.5841 38.7651L9.79985 38.4401L9.92754 37.9685L8.75658 37.8266L7.9745 36.035L7.94797 35.39L7.40072 34.1548L7.42294 33.5321L6.50355 33.1805L6.01566 33.2414L4.31585 32.0969L3.85235 33.1859L2.90675 32.9017L1.31026 31.5552L2.16614 30.5879L2.15254 30.0564L1.56515 29.3668L0.547255 28.6664L0.902142 27.9958L1.67327 27.2693L2.891 25.5527L2.55087 24.2648L1.55752 23.2649L0.501153 22.7845L0.490706 22.0727L1.78024 20.6484L1.93679 19.4507L1.02983 19.4589L0.289714 19.8501L0.209284 18.2368L0 17.345L0.988542 16.7777L1.22386 16.4365L2.00246 16.8902L3.02466 17.2L3.13776 16.5098L4.02017 16.2251L4.12133 15.0149L4.4918 15.1491L5.29179 14.6693L6.14601 15.2594L6.5198 14.5921L7.61862 15.2328L7.84963 14.9926L8.938 15.2959L9.86884 14.6074L10.5378 14.6584L11.0856 14.2123L12.0252 14.434L13.0331 14.2748L13.0097 13.639L13.7167 13.4993L14.3678 11.6442L14.7623 11.7604L15.0475 10.8122L14.4193 10.4584L15.2177 9.26239L16.6566 9.31402L17.2196 7.62782L16.6077 6.60024L16.712 4.75862L17.406 4.29727L17.7493 3.04309Z" fill="#F2F2F2" stroke="#07122B" mask="url(#path-1-inside-1_81_129)"/>
</svg>
