<svg width="46" height="44" viewBox="0 0 46 44" fill="none" xmlns="http://www.w3.org/2000/svg">
<mask id="path-1-inside-1_81_148" fill="white">
<path d="M3.37607 24.3887L3.83808 24.7093L4.41453 24.5609L4.07722 23.6029L5.98349 21.608L6.27254 21.1321L6.06442 19.5589L7.31315 18.8943L8.87764 18.8329L9.59007 18.2601L9.77862 17.5988L10.9192 17.2059L11.6028 16.6734L11.7632 15.7235L12.2467 15.9262L12.4957 14.6323L11.5191 14.0264L11.6875 12.9614L12.7723 12.4696L14.0248 12.2348L13.8769 11.5262L13.985 10.6073L14.5149 10.659L15.4631 10.1884L15.8576 9.09285L16.5233 9.10695L16.8125 8.22013L16.187 7.87614L15.8392 6.98115L16.276 6.60241L16.808 6.78553L16.6994 5.52916L16.05 4.70372L16.1347 4.06903L15.6832 2.07582L16.6994 1.79705L17.1221 1.42154L17.5531 1.72313L18.1808 1.46718L18.3981 0.849344L19.1811 0.404824L20.463 0L20.9473 0.95096L21.8569 0.307562L22.4731 0.620015L23.8441 0.695553L24.4772 1.00258L24.7908 1.64216L25.8293 2.30133L26.5129 3.07839L26.8134 4.13586L27.2687 4.09185L28.2702 4.72275L28.375 5.73839L28.881 5.88836L29.1586 6.40243L29.7199 5.92586L30.1803 6.30135L30.9911 6.19049L31.9682 5.23628L33.0217 4.73254L33.7244 3.88263L34.2618 3.52942L34.8509 3.56095L35.6688 4.86458L36.9457 3.74244L38.0901 3.59518L39.1248 3.28218L39.7823 3.64951L40.4317 4.86404L40.3339 5.87476L41.237 6.62795L41.1843 7.34361L40.6425 7.49304L40.5442 8.34674L41.7793 10.3242L42.1483 10.5171L42.4423 11.4311L43.559 12.1326L43.7861 13.3336L43.4915 14.3536L42.9318 14.5785L43.1655 15.4083L42.9557 16.857L42.3108 17.5455L42.5688 18.3998L43.1003 18.0379L43.9774 19.4187L43.5748 20.0197L43.9094 20.5294L43.708 21.2326L44.4355 21.6852L45.0963 22.3857L45.2517 22.9394L44.5252 23.86L43.7025 23.6496L42.8836 24.7359L41.168 24.5963L40.5626 23.885L39.9539 24.4593L39.6231 24.0692L38.7286 24.7544L38.2228 25.5081L37.4684 25.4809L36.9941 25.7591L36.0724 27.2899L35.2306 27.5356L34.9738 28.0013L34.196 28.3664L33.3527 28.0795L33.1016 29.2125L32.2484 29.0403L31.5534 29.6342L32.0599 30.2939L31.7904 31.2177L31.9197 31.6839L32.6909 32.1736L32.8458 33.2256L32.5577 33.6554L33.4663 34.5944L33.5293 35.0618L34.0874 35.3987L34.0933 36.1084L33.3277 36.1361L33.1065 36.6224L31.9703 37.0327L31.3383 36.8615L31.0796 37.4854L29.8058 37.1245L29.1407 38.0706L28.5755 37.4408L27.8241 37.2913L27.749 37.7353L26.4976 37.9456L25.2885 38.971L24.6228 39.3759L23.9777 40.3192L23.304 39.8204L23.3383 38.8434L22.5531 38.5195L21.6406 38.614L21.8841 39.4639L21.865 40.2203L22.2395 41.3283L21.8488 41.9L20.5294 42.4369L19.8322 41.6908L19.9169 40.7616L19.3763 40.0508L18.8248 40.1698L18.304 39.5786L17.3765 40.3274L17.3183 41.0664L16.4586 41.6457L15.8435 41.8196L14.4198 42.7586L13.8351 43.4373L13.2771 42.6026L11.737 42.3233L10.9773 42.0038L11.0914 41.1403L11.8278 40.6556L11.6191 38.9406L10.7789 39.5775L9.98393 39.5193L9.40748 39.935L8.71628 39.7068L7.86953 39.7307L7.1571 39.1183L6.46325 38.1423L5.6155 37.8087L5.11617 37.9016L4.6054 37.3267L4.4792 36.3594L3.76462 35.8714L4.07224 35.2601L5.52313 35.0302L5.48449 33.8625L4.39944 33.9434L3.64671 34.5004L2.97126 34.6477L2.824 34.1211L2.83926 32.5371L2.58603 31.8953L1.37958 31.222L1.44542 29.6472L0.94443 29.4087L1.25189 28.8071L1.1965 28.0475L0.554718 26.9682L0.16683 26.6971L0 26.0053L0.417904 25.8021L1.39915 26.0548L1.9008 25.4983L3.20277 24.9408L3.37607 24.3887Z"/>
</mask>
<path d="M3.37607 24.3887L3.83808 24.7093L4.41453 24.5609L4.07722 23.6029L5.98349 21.608L6.27254 21.1321L6.06442 19.5589L7.31315 18.8943L8.87764 18.8329L9.59007 18.2601L9.77862 17.5988L10.9192 17.2059L11.6028 16.6734L11.7632 15.7235L12.2467 15.9262L12.4957 14.6323L11.5191 14.0264L11.6875 12.9614L12.7723 12.4696L14.0248 12.2348L13.8769 11.5262L13.985 10.6073L14.5149 10.659L15.4631 10.1884L15.8576 9.09285L16.5233 9.10695L16.8125 8.22013L16.187 7.87614L15.8392 6.98115L16.276 6.60241L16.808 6.78553L16.6994 5.52916L16.05 4.70372L16.1347 4.06903L15.6832 2.07582L16.6994 1.79705L17.1221 1.42154L17.5531 1.72313L18.1808 1.46718L18.3981 0.849344L19.1811 0.404824L20.463 0L20.9473 0.95096L21.8569 0.307562L22.4731 0.620015L23.8441 0.695553L24.4772 1.00258L24.7908 1.64216L25.8293 2.30133L26.5129 3.07839L26.8134 4.13586L27.2687 4.09185L28.2702 4.72275L28.375 5.73839L28.881 5.88836L29.1586 6.40243L29.7199 5.92586L30.1803 6.30135L30.9911 6.19049L31.9682 5.23628L33.0217 4.73254L33.7244 3.88263L34.2618 3.52942L34.8509 3.56095L35.6688 4.86458L36.9457 3.74244L38.0901 3.59518L39.1248 3.28218L39.7823 3.64951L40.4317 4.86404L40.3339 5.87476L41.237 6.62795L41.1843 7.34361L40.6425 7.49304L40.5442 8.34674L41.7793 10.3242L42.1483 10.5171L42.4423 11.4311L43.559 12.1326L43.7861 13.3336L43.4915 14.3536L42.9318 14.5785L43.1655 15.4083L42.9557 16.857L42.3108 17.5455L42.5688 18.3998L43.1003 18.0379L43.9774 19.4187L43.5748 20.0197L43.9094 20.5294L43.708 21.2326L44.4355 21.6852L45.0963 22.3857L45.2517 22.9394L44.5252 23.86L43.7025 23.6496L42.8836 24.7359L41.168 24.5963L40.5626 23.885L39.9539 24.4593L39.6231 24.0692L38.7286 24.7544L38.2228 25.5081L37.4684 25.4809L36.9941 25.7591L36.0724 27.2899L35.2306 27.5356L34.9738 28.0013L34.196 28.3664L33.3527 28.0795L33.1016 29.2125L32.2484 29.0403L31.5534 29.6342L32.0599 30.2939L31.7904 31.2177L31.9197 31.6839L32.6909 32.1736L32.8458 33.2256L32.5577 33.6554L33.4663 34.5944L33.5293 35.0618L34.0874 35.3987L34.0933 36.1084L33.3277 36.1361L33.1065 36.6224L31.9703 37.0327L31.3383 36.8615L31.0796 37.4854L29.8058 37.1245L29.1407 38.0706L28.5755 37.4408L27.8241 37.2913L27.749 37.7353L26.4976 37.9456L25.2885 38.971L24.6228 39.3759L23.9777 40.3192L23.304 39.8204L23.3383 38.8434L22.5531 38.5195L21.6406 38.614L21.8841 39.4639L21.865 40.2203L22.2395 41.3283L21.8488 41.9L20.5294 42.4369L19.8322 41.6908L19.9169 40.7616L19.3763 40.0508L18.8248 40.1698L18.304 39.5786L17.3765 40.3274L17.3183 41.0664L16.4586 41.6457L15.8435 41.8196L14.4198 42.7586L13.8351 43.4373L13.2771 42.6026L11.737 42.3233L10.9773 42.0038L11.0914 41.1403L11.8278 40.6556L11.6191 38.9406L10.7789 39.5775L9.98393 39.5193L9.40748 39.935L8.71628 39.7068L7.86953 39.7307L7.1571 39.1183L6.46325 38.1423L5.6155 37.8087L5.11617 37.9016L4.6054 37.3267L4.4792 36.3594L3.76462 35.8714L4.07224 35.2601L5.52313 35.0302L5.48449 33.8625L4.39944 33.9434L3.64671 34.5004L2.97126 34.6477L2.824 34.1211L2.83926 32.5371L2.58603 31.8953L1.37958 31.222L1.44542 29.6472L0.94443 29.4087L1.25189 28.8071L1.1965 28.0475L0.554718 26.9682L0.16683 26.6971L0 26.0053L0.417904 25.8021L1.39915 26.0548L1.9008 25.4983L3.20277 24.9408L3.37607 24.3887Z" fill="#F2F2F2" stroke="#07122B" mask="url(#path-1-inside-1_81_148)"/>
</svg>
