<svg width="45" height="41" viewBox="0 0 45 41" fill="none" xmlns="http://www.w3.org/2000/svg">
<mask id="path-1-inside-1_81_96" fill="white">
<path d="M0 27.8024L0.749408 27.2709L1.20098 27.5791L1.92269 27.3014L2.2008 26.808L3.02582 26.2933L3.21969 25.7787L3.97341 25.488L3.9011 24.199L2.98602 22.9171L2.01672 22.077L2.26879 21.2565L2.9507 20.9647L4.43642 20.6647L5.08798 20.2534L5.73673 20.5805L6.06608 20.0219L5.63839 19.1062L4.86294 18.2275L4.84885 17.1212L5.47703 16.4245L5.36178 15.936L4.69844 15.7328L4.51253 14.089L4.95647 12.7967L5.84933 12.1593L5.65265 11.7088L6.56939 10.9002L7.72244 11.1997L8.35609 9.78244L8.21032 9.34824L9.33518 9.00318L10.1493 8.12993L10.9003 7.74358L10.3151 7.11809L11.3758 6.58991L11.397 6.08457L11.9312 5.41289L11.128 4.89503L10.3834 5.12488L8.97283 4.07776L9.14281 2.79967L10.139 2.84909L10.2629 1.66502L11.009 1.72207L11.9806 0.800983L12.3506 1.13518L12.6104 2.15245L13.2694 2.06552L12.92 1.24389L13.5282 0L14.0358 0.073382L14.2177 0.622213L15.0427 0.662428L16.1344 0.117909L16.9576 0.688505L17.9928 2.29428L17.7304 3.18548L18.4357 3.85604L18.0765 4.58364L18.0297 5.21945L18.7689 5.34822L20.4849 6.15683L21.8494 5.64763L22.5086 5.00751L23.403 5.001L24.0068 4.47116L24.9452 4.69504L25.1152 5.15585L26.1999 4.68525L26.3663 3.79463L26.7558 3.39522L28.1719 3.7055L28.3676 3.05721L28.9578 3.11591L29.3072 3.51587L29.469 4.35163L30.3113 4.61626L32.0584 4.58529L33.3076 3.86636L33.9446 4.20868L34.5325 3.2349L35.3124 3.45662L35.8389 4.16959L35.6726 4.74885L36.2437 5.09553L36.0112 6.597L35.3005 7.12841L36.348 8.46086L37.243 8.65978L37.5115 7.69627L38.2266 7.70552L39.0744 7.14744L39.3346 6.71055L40.1307 6.38398L40.8644 6.7426L41.2702 6.29269L41.674 6.57523L42.5468 7.78487L44.7297 8.71574L44.8137 9.70636L44.6404 10.2585L43.3385 10.816L42.8368 11.3725L41.8556 11.1198L41.4377 11.323L41.6045 12.0147L41.9924 12.2859L42.6342 13.3651L42.6896 14.1248L42.3821 14.7263L42.8831 14.9649L42.8173 16.5397L44.0237 17.213L44.2769 17.8547L44.2617 19.4388L44.4089 19.9654L43.8547 20.7979L42.6227 20.7283L41.9201 20.4561L41.3904 20.9924L40.8795 20.8212L40.084 21.0554L39.0944 19.6741L38.281 19.8279L37.8837 20.5903L38.187 21.6336L37.2925 23.26L38.1609 24.1806L38.9574 23.8986L39.2249 24.5637L40.2145 25.3527L39.0858 27.0867L39.4369 27.6013L38.5331 29.3495L37.9256 29.6614L36.9588 29.4913L36.6426 30.4596L37.7925 31.1873L38.125 32.0866L37.2202 32.9409L35.8878 32.4012L35.3878 32.0502L34.2401 32.0203L34.5618 32.7284L34.5423 33.5663L33.6343 33.6364L33.0751 33.9173L32.441 35.4346L32.53 36.0888L30.5227 37.0724L30.2266 37.9179L29.6342 38.1989L29.2327 37.7397L29.2991 37.2577L28.4404 36.8192L28.3289 36.3328L27.2052 35.4215L26.5558 35.5003L26.0543 36.3578L25.6505 36.6312L24.3626 36.4801L24.0399 36.1763L23.0161 36.7251L22.1342 36.598L21.5788 37.4229L21.4967 37.9511L20.011 38.2614L19.2448 39.1025L18.2059 38.6216L17.244 39.0585L16.348 39.8916L14.5177 39.2879L13.6444 38.8819L13.0744 38.2505L12.1882 38.6695L11.8393 39.4085L11.3779 39.5574L11.3056 40.3888L10.9514 40.8301L10.2786 40.5431L10.4113 39.7112L9.91826 39.3759L9.06902 40.2253L7.98545 40.3046L7.48164 39.4042L7.40934 38.7407L7.82791 38.1592L8.66521 36.0687L8.87068 35.0422L9.58625 34.2456L10.2042 33.8625L9.98791 33.1935L8.76521 32.9142L6.46109 32.7295L6.23888 32.4083L5.05481 31.7432L2.97359 31.6948L1.26515 31.4753L0.427191 31.6111L0.405964 28.956L0 27.8024Z"/>
</mask>
<path d="M0 27.8024L0.749408 27.2709L1.20098 27.5791L1.92269 27.3014L2.2008 26.808L3.02582 26.2933L3.21969 25.7787L3.97341 25.488L3.9011 24.199L2.98602 22.9171L2.01672 22.077L2.26879 21.2565L2.9507 20.9647L4.43642 20.6647L5.08798 20.2534L5.73673 20.5805L6.06608 20.0219L5.63839 19.1062L4.86294 18.2275L4.84885 17.1212L5.47703 16.4245L5.36178 15.936L4.69844 15.7328L4.51253 14.089L4.95647 12.7967L5.84933 12.1593L5.65265 11.7088L6.56939 10.9002L7.72244 11.1997L8.35609 9.78244L8.21032 9.34824L9.33518 9.00318L10.1493 8.12993L10.9003 7.74358L10.3151 7.11809L11.3758 6.58991L11.397 6.08457L11.9312 5.41289L11.128 4.89503L10.3834 5.12488L8.97283 4.07776L9.14281 2.79967L10.139 2.84909L10.2629 1.66502L11.009 1.72207L11.9806 0.800983L12.3506 1.13518L12.6104 2.15245L13.2694 2.06552L12.92 1.24389L13.5282 0L14.0358 0.073382L14.2177 0.622213L15.0427 0.662428L16.1344 0.117909L16.9576 0.688505L17.9928 2.29428L17.7304 3.18548L18.4357 3.85604L18.0765 4.58364L18.0297 5.21945L18.7689 5.34822L20.4849 6.15683L21.8494 5.64763L22.5086 5.00751L23.403 5.001L24.0068 4.47116L24.9452 4.69504L25.1152 5.15585L26.1999 4.68525L26.3663 3.79463L26.7558 3.39522L28.1719 3.7055L28.3676 3.05721L28.9578 3.11591L29.3072 3.51587L29.469 4.35163L30.3113 4.61626L32.0584 4.58529L33.3076 3.86636L33.9446 4.20868L34.5325 3.2349L35.3124 3.45662L35.8389 4.16959L35.6726 4.74885L36.2437 5.09553L36.0112 6.597L35.3005 7.12841L36.348 8.46086L37.243 8.65978L37.5115 7.69627L38.2266 7.70552L39.0744 7.14744L39.3346 6.71055L40.1307 6.38398L40.8644 6.7426L41.2702 6.29269L41.674 6.57523L42.5468 7.78487L44.7297 8.71574L44.8137 9.70636L44.6404 10.2585L43.3385 10.816L42.8368 11.3725L41.8556 11.1198L41.4377 11.323L41.6045 12.0147L41.9924 12.2859L42.6342 13.3651L42.6896 14.1248L42.3821 14.7263L42.8831 14.9649L42.8173 16.5397L44.0237 17.213L44.2769 17.8547L44.2617 19.4388L44.4089 19.9654L43.8547 20.7979L42.6227 20.7283L41.9201 20.4561L41.3904 20.9924L40.8795 20.8212L40.084 21.0554L39.0944 19.6741L38.281 19.8279L37.8837 20.5903L38.187 21.6336L37.2925 23.26L38.1609 24.1806L38.9574 23.8986L39.2249 24.5637L40.2145 25.3527L39.0858 27.0867L39.4369 27.6013L38.5331 29.3495L37.9256 29.6614L36.9588 29.4913L36.6426 30.4596L37.7925 31.1873L38.125 32.0866L37.2202 32.9409L35.8878 32.4012L35.3878 32.0502L34.2401 32.0203L34.5618 32.7284L34.5423 33.5663L33.6343 33.6364L33.0751 33.9173L32.441 35.4346L32.53 36.0888L30.5227 37.0724L30.2266 37.9179L29.6342 38.1989L29.2327 37.7397L29.2991 37.2577L28.4404 36.8192L28.3289 36.3328L27.2052 35.4215L26.5558 35.5003L26.0543 36.3578L25.6505 36.6312L24.3626 36.4801L24.0399 36.1763L23.0161 36.7251L22.1342 36.598L21.5788 37.4229L21.4967 37.9511L20.011 38.2614L19.2448 39.1025L18.2059 38.6216L17.244 39.0585L16.348 39.8916L14.5177 39.2879L13.6444 38.8819L13.0744 38.2505L12.1882 38.6695L11.8393 39.4085L11.3779 39.5574L11.3056 40.3888L10.9514 40.8301L10.2786 40.5431L10.4113 39.7112L9.91826 39.3759L9.06902 40.2253L7.98545 40.3046L7.48164 39.4042L7.40934 38.7407L7.82791 38.1592L8.66521 36.0687L8.87068 35.0422L9.58625 34.2456L10.2042 33.8625L9.98791 33.1935L8.76521 32.9142L6.46109 32.7295L6.23888 32.4083L5.05481 31.7432L2.97359 31.6948L1.26515 31.4753L0.427191 31.6111L0.405964 28.956L0 27.8024Z" fill="#F2F2F2" stroke="#07122B" mask="url(#path-1-inside-1_81_96)"/>
</svg>
