<svg width="38" height="45" viewBox="0 0 38 45" fill="none" xmlns="http://www.w3.org/2000/svg">
<mask id="path-1-inside-1_81_182" fill="white">
<path d="M0 16.9456L0.195188 16.0811L0.632494 15.3714L1.26947 13.3575L2.09317 13.3151L1.74375 12.3772L1.79433 11.5507L2.46331 10.829L2.22468 10.3459L2.51323 9.89763L2.33131 8.99939L3.7147 7.15887L4.31585 7.18548L4.09082 6.10519L4.63741 5.41453L4.72712 4.37823L5.28085 3.82069L5.89328 3.5566L6.82096 5.01404L7.55511 5.7183L8.01646 5.00749L8.42292 5.10695L9.34662 4.40594L9.00865 3.19904L9.64446 2.87027L9.94446 1.56882L10.3139 2.03886L11.1822 2.34862L11.7147 1.65033L13.0728 0.793375L13.6976 0.866736L13.9792 0L14.353 0.56189L15.0513 1.0716L15.5643 0.743936L15.9583 1.54925L15.8795 2.89419L16.055 3.68431L16.7175 4.73361L16.8077 5.89653L17.5651 6.86924L17.4629 7.39361L17.9558 7.67291L18.6178 8.58911L19.266 7.70985L20.7811 7.45065L22.2695 6.95833L22.733 5.81067L22.5569 4.92818L23.7192 4.77221L24.9674 5.21292L25.494 6.09052L25.1963 7.42511L26.3212 7.31699L26.6221 7.04962L27.2623 7.31483L28.1208 7.00398L28.2904 7.69522L29.0729 8.72443L30.2418 9.84655L30.4466 10.6307L31.3748 10.1242L31.7128 10.6057L31.2562 11.2757L31.44 11.5974L32.4448 11.8278L32.9773 12.0908L32.6018 12.6277L32.4083 13.5396L32.7066 14.2493L33.193 14.5622L32.7012 15.2252L33.0718 15.4926L33.7489 17.0103L33.6093 18.5009L34.1205 18.8568L34.0179 19.6681L34.489 19.8762L34.8553 20.7995L35.5248 20.6538L35.8416 20.9907L36.26 22.5835L36.7404 23.2796L37.0974 24.2778L36.9855 25.5608L37.4533 26.54L36.4882 27.7486L36.1101 28.8941L35.6475 28.9468L35.4852 29.6375L34.8155 29.3196L34.1267 29.4788L33.7136 30.1624L34.3505 31.6628L35.1358 32.9267L35.7291 33.1098L35.4036 33.9331L34.6754 34.501L35.1943 35.1004L35.0912 36.0182L36.0323 36.285L36.6094 36.892L35.8475 37.38L35.4769 38.2467L35.7356 38.7406L35.1771 40.1698L36.0067 40.3692L35.9573 41.43L35.032 40.8855L34.8439 41.9076L34.2678 41.9663L34.2494 42.5032L33.6565 42.5679L32.856 43.4944L31.9018 43.2107L30.9722 43.1868L30.0282 43.6585L28.6583 42.4065L27.8284 42.1913L27.4084 41.7544L26.1814 41.4066L25.856 40.8963L25.0784 41.2191L24.2132 41.1028L23.7421 42.3092L24.5539 42.6803L24.0263 43.2227L24.0409 43.8161L23.1731 44.2263L21.4435 43.8525L20.7811 44.3296L20.4919 44.0193L19.3828 43.7221L18.3863 43.8248L17.2636 43.6922L16.5989 43.171L16.5462 42.6179L15.8387 42.307L15.222 41.5283L14.4281 41.418L14.4785 40.9958L13.9542 40.5523L13.8097 39.8764L13.025 39.6981L12.3326 39.8802L11.4925 39.5519L11.1491 39.9465L10.4818 39.8405L9.5705 40.3399L8.45824 40.1595L8.93253 39.3058L8.8652 38.3532L7.64084 37.493L6.59542 37.6142L6.35363 36.1584L5.75149 36.6306L5.13475 36.429L5.29826 35.7193L6.34319 34.3358L6.13672 33.6897L5.59063 33.2256L5.35415 32.3599L5.52164 31.8291L5.07389 31.5579L5.12762 30.195L5.83789 30.0189L5.71235 29.0555L5.44121 28.5262L5.88896 28.2273L5.57918 26.565L4.83525 25.6679L4.38036 25.5168L3.16645 24.3354L3.55235 23.573L3.39033 22.7862L3.75069 21.3657L3.46097 20.675L2.88934 20.349L2.50129 19.7621L1.83563 19.4035L1.23132 18.3221L0 16.9456Z"/>
</mask>
<path d="M0 16.9456L0.195188 16.0811L0.632494 15.3714L1.26947 13.3575L2.09317 13.3151L1.74375 12.3772L1.79433 11.5507L2.46331 10.829L2.22468 10.3459L2.51323 9.89763L2.33131 8.99939L3.7147 7.15887L4.31585 7.18548L4.09082 6.10519L4.63741 5.41453L4.72712 4.37823L5.28085 3.82069L5.89328 3.5566L6.82096 5.01404L7.55511 5.7183L8.01646 5.00749L8.42292 5.10695L9.34662 4.40594L9.00865 3.19904L9.64446 2.87027L9.94446 1.56882L10.3139 2.03886L11.1822 2.34862L11.7147 1.65033L13.0728 0.793375L13.6976 0.866736L13.9792 0L14.353 0.56189L15.0513 1.0716L15.5643 0.743936L15.9583 1.54925L15.8795 2.89419L16.055 3.68431L16.7175 4.73361L16.8077 5.89653L17.5651 6.86924L17.4629 7.39361L17.9558 7.67291L18.6178 8.58911L19.266 7.70985L20.7811 7.45065L22.2695 6.95833L22.733 5.81067L22.5569 4.92818L23.7192 4.77221L24.9674 5.21292L25.494 6.09052L25.1963 7.42511L26.3212 7.31699L26.6221 7.04962L27.2623 7.31483L28.1208 7.00398L28.2904 7.69522L29.0729 8.72443L30.2418 9.84655L30.4466 10.6307L31.3748 10.1242L31.7128 10.6057L31.2562 11.2757L31.44 11.5974L32.4448 11.8278L32.9773 12.0908L32.6018 12.6277L32.4083 13.5396L32.7066 14.2493L33.193 14.5622L32.7012 15.2252L33.0718 15.4926L33.7489 17.0103L33.6093 18.5009L34.1205 18.8568L34.0179 19.6681L34.489 19.8762L34.8553 20.7995L35.5248 20.6538L35.8416 20.9907L36.26 22.5835L36.7404 23.2796L37.0974 24.2778L36.9855 25.5608L37.4533 26.54L36.4882 27.7486L36.1101 28.8941L35.6475 28.9468L35.4852 29.6375L34.8155 29.3196L34.1267 29.4788L33.7136 30.1624L34.3505 31.6628L35.1358 32.9267L35.7291 33.1098L35.4036 33.9331L34.6754 34.501L35.1943 35.1004L35.0912 36.0182L36.0323 36.285L36.6094 36.892L35.8475 37.38L35.4769 38.2467L35.7356 38.7406L35.1771 40.1698L36.0067 40.3692L35.9573 41.43L35.032 40.8855L34.8439 41.9076L34.2678 41.9663L34.2494 42.5032L33.6565 42.5679L32.856 43.4944L31.9018 43.2107L30.9722 43.1868L30.0282 43.6585L28.6583 42.4065L27.8284 42.1913L27.4084 41.7544L26.1814 41.4066L25.856 40.8963L25.0784 41.2191L24.2132 41.1028L23.7421 42.3092L24.5539 42.6803L24.0263 43.2227L24.0409 43.8161L23.1731 44.2263L21.4435 43.8525L20.7811 44.3296L20.4919 44.0193L19.3828 43.7221L18.3863 43.8248L17.2636 43.6922L16.5989 43.171L16.5462 42.6179L15.8387 42.307L15.222 41.5283L14.4281 41.418L14.4785 40.9958L13.9542 40.5523L13.8097 39.8764L13.025 39.6981L12.3326 39.8802L11.4925 39.5519L11.1491 39.9465L10.4818 39.8405L9.5705 40.3399L8.45824 40.1595L8.93253 39.3058L8.8652 38.3532L7.64084 37.493L6.59542 37.6142L6.35363 36.1584L5.75149 36.6306L5.13475 36.429L5.29826 35.7193L6.34319 34.3358L6.13672 33.6897L5.59063 33.2256L5.35415 32.3599L5.52164 31.8291L5.07389 31.5579L5.12762 30.195L5.83789 30.0189L5.71235 29.0555L5.44121 28.5262L5.88896 28.2273L5.57918 26.565L4.83525 25.6679L4.38036 25.5168L3.16645 24.3354L3.55235 23.573L3.39033 22.7862L3.75069 21.3657L3.46097 20.675L2.88934 20.349L2.50129 19.7621L1.83563 19.4035L1.23132 18.3221L0 16.9456Z" fill="#F2F2F2" stroke="#07122B" mask="url(#path-1-inside-1_81_182)"/>
</svg>
