<svg width="59" height="46" viewBox="0 0 59 46" fill="none" xmlns="http://www.w3.org/2000/svg">
<mask id="path-1-inside-1_81_169" fill="white">
<path d="M3.99181 1.80739L4.25383 0L5.78565 0.794474L5.94004 1.31559L6.75014 1.67043L7.99026 1.88726L8.47002 1.40526L9.61129 1.52156L10.0546 1.9003L11.9608 2.12963L13.063 2.49045L14.8774 2.25407L14.6464 1.67696L14.1368 1.27811L14.5096 0.726544L15.7354 1.12757L16.9168 1.92584L17.2238 2.49642L18.9709 3.14581L18.9519 2.27472L19.8463 2.10735L20.7864 2.68228L21.0332 3.27242L21.6814 3.02352L22.3536 3.86907L23.7393 3.57074L24.1756 3.77397L25.2799 3.75332L25.8124 4.16142L26.9394 3.94244L27.3943 4.06633L28.3039 2.90508L29.2407 2.84911L30.2717 3.2235L30.8416 2.21004L30.7541 1.26669L32.066 1.62643L32.7816 2.25679L33.1826 2.88387L34.0857 2.30189L34.8036 2.43284L34.7726 1.66828L35.8019 2.71107L36.0926 3.87451L36.5968 4.08862L36.9311 5.25096L37.7412 4.80646L38.7846 5.11238L39.3921 4.94286L40.4344 5.60962L41.3229 5.60744L42.2375 4.78797L43.0378 4.97436L43.1368 5.66231L42.5292 6.30138L41.8017 6.57633L42.233 7.5724L42.7139 8.12233L42.6678 8.81027L43.5829 9.03579L44.0671 8.93038L44.4681 9.53246L45.2897 9.43791L46.1185 8.22937L47.4988 8.45978L47.7933 8.77712L48.7871 8.96788L49.1669 9.4716L49.7555 8.87169L50.2929 9.57975L50.2788 10.1884L51.3009 10.5128L51.8698 11.1665L52.4911 11.0372L53.3974 11.2866L54.1587 11.1627L54.7799 11.6789L55.0613 12.3408L55.4998 12.4902L55.8889 11.8039L56.7361 11.4817L56.7611 10.5764L58.3896 11.0214L58.5402 12.5495L57.8366 13.1336L57.2626 14.7117L58.2419 15.5045L58.0256 16.8435L57.6414 17.2456L56.5927 19.4844L56.7242 21.1462L56.0399 22.1841L56.0797 23.1894L56.6621 23.4644L55.5764 24.3811L55.2059 24.4881L55.3466 25.3424L55 25.8847L54.2451 26.0809L53.9381 27.1068L53.5778 27.3606L52.8062 28.7669L52.767 30.3445L52.4188 30.6906L52.6393 31.3106L52.6045 32.4757L51.8591 33.4544L52.3672 33.832L51.8987 35.2493L51.2629 35.4601L50.6244 34.5852L49.4163 35.7264L48.5838 37.3354L48.291 39.0488L47.4313 38.7091L46.4228 38.933L46.1983 39.4389L46.1515 40.5785L45.1686 41.1577L44.4774 40.3171L43.8008 40.6024L43.3151 40.3024L43.8269 39.6324L44.7474 38.8021L43.2791 38.2434L43.0521 38.5988L42.0353 38.8792L40.9947 38.3793L40.21 38.7412L39.3362 38.5939L38.4488 39.0803L37.5429 39.34L36.8741 38.9314L36.0378 39.3014L35.3172 39.1401L35.133 40.247L34.8406 40.5149L34.1091 40.1763L33.6522 40.4388L32.906 40.3855L32.2028 41.2088L32.0214 40.5649L32.9902 39.7661L32.6701 39.565L31.3959 39.7791L30.1776 40.1992L29.3679 40.635L29.4347 41.7935L29.1032 43.0042L28.5566 43.2667L28.1991 43.8514L27.1024 44.5073L26.5737 44.2215L25.5276 44.2225L24.9369 44.685L24.2403 44.3758L23.529 44.9594L23.2431 44.522L21.8129 44.51L21.4375 43.8552L20.4 44.4019L18.841 44.6328L18.1889 45.7772L17.0314 45.3892L16.5827 44.3731L15.9681 43.9084L14.822 43.9432L13.7155 43.5248L12.957 43.0064L12.4418 43.9041L8.96951 43.246L7.77185 42.7602L7.58048 42.5005L8.72872 41.9342L8.59622 41.017L8.30767 40.6464L7.34732 40.1861L6.73174 39.083L4.13808 38.6048L4.78898 37.6609L4.30109 36.7518L5.3694 36.354L5.91815 35.6856L6.63771 35.1563L7.12626 34.1776L6.47851 33.5908L6.12478 32.2159L6.36972 31.0498L5.87039 30.4401L4.62381 31.1248L3.65334 30.6281L2.74739 29.2174L2.8774 28.3072L2.01489 27.6714L0 27.6019L0.700487 26.777L1.25471 26.6661L1.92369 25.8646L2.55668 25.6407L3.60442 25.5907L4.62331 25.119L6.09593 24.9957L6.7334 24.2653L7.743 24.1338L9.1521 24.261L10.3013 23.9013L11.4295 24.2898L12.594 24.2692L14.0786 23.9045L14.9399 23.1063L14.8067 19.6301L14.2253 18.5688L14.5704 17.9732L14.3296 17.4043L12.8282 17.6015L12.163 16.9174L11.4181 16.6446L11.6599 14.9399L11.2018 14.3677L11.1159 13.6673L11.4827 13.1733L12.3517 12.7538L12.8059 12.0946L12.099 11.5181L10.9486 11.4121L9.66834 10.8606L9.25475 10.3383L7.99954 10.2808L7.22344 9.45477L7.11216 8.43967L6.39758 7.89246L6.57801 6.24812L5.90405 5.58897L5.79709 4.85536L5.12695 4.97762L4.30872 4.73038L3.7142 4.03916L4.22332 3.16591L3.84405 2.45077L3.99181 1.80739Z"/>
</mask>
<path d="M3.99181 1.80739L4.25383 0L5.78565 0.794474L5.94004 1.31559L6.75014 1.67043L7.99026 1.88726L8.47002 1.40526L9.61129 1.52156L10.0546 1.9003L11.9608 2.12963L13.063 2.49045L14.8774 2.25407L14.6464 1.67696L14.1368 1.27811L14.5096 0.726544L15.7354 1.12757L16.9168 1.92584L17.2238 2.49642L18.9709 3.14581L18.9519 2.27472L19.8463 2.10735L20.7864 2.68228L21.0332 3.27242L21.6814 3.02352L22.3536 3.86907L23.7393 3.57074L24.1756 3.77397L25.2799 3.75332L25.8124 4.16142L26.9394 3.94244L27.3943 4.06633L28.3039 2.90508L29.2407 2.84911L30.2717 3.2235L30.8416 2.21004L30.7541 1.26669L32.066 1.62643L32.7816 2.25679L33.1826 2.88387L34.0857 2.30189L34.8036 2.43284L34.7726 1.66828L35.8019 2.71107L36.0926 3.87451L36.5968 4.08862L36.9311 5.25096L37.7412 4.80646L38.7846 5.11238L39.3921 4.94286L40.4344 5.60962L41.3229 5.60744L42.2375 4.78797L43.0378 4.97436L43.1368 5.66231L42.5292 6.30138L41.8017 6.57633L42.233 7.5724L42.7139 8.12233L42.6678 8.81027L43.5829 9.03579L44.0671 8.93038L44.4681 9.53246L45.2897 9.43791L46.1185 8.22937L47.4988 8.45978L47.7933 8.77712L48.7871 8.96788L49.1669 9.4716L49.7555 8.87169L50.2929 9.57975L50.2788 10.1884L51.3009 10.5128L51.8698 11.1665L52.4911 11.0372L53.3974 11.2866L54.1587 11.1627L54.7799 11.6789L55.0613 12.3408L55.4998 12.4902L55.8889 11.8039L56.7361 11.4817L56.7611 10.5764L58.3896 11.0214L58.5402 12.5495L57.8366 13.1336L57.2626 14.7117L58.2419 15.5045L58.0256 16.8435L57.6414 17.2456L56.5927 19.4844L56.7242 21.1462L56.0399 22.1841L56.0797 23.1894L56.6621 23.4644L55.5764 24.3811L55.2059 24.4881L55.3466 25.3424L55 25.8847L54.2451 26.0809L53.9381 27.1068L53.5778 27.3606L52.8062 28.7669L52.767 30.3445L52.4188 30.6906L52.6393 31.3106L52.6045 32.4757L51.8591 33.4544L52.3672 33.832L51.8987 35.2493L51.2629 35.4601L50.6244 34.5852L49.4163 35.7264L48.5838 37.3354L48.291 39.0488L47.4313 38.7091L46.4228 38.933L46.1983 39.4389L46.1515 40.5785L45.1686 41.1577L44.4774 40.3171L43.8008 40.6024L43.3151 40.3024L43.8269 39.6324L44.7474 38.8021L43.2791 38.2434L43.0521 38.5988L42.0353 38.8792L40.9947 38.3793L40.21 38.7412L39.3362 38.5939L38.4488 39.0803L37.5429 39.34L36.8741 38.9314L36.0378 39.3014L35.3172 39.1401L35.133 40.247L34.8406 40.5149L34.1091 40.1763L33.6522 40.4388L32.906 40.3855L32.2028 41.2088L32.0214 40.5649L32.9902 39.7661L32.6701 39.565L31.3959 39.7791L30.1776 40.1992L29.3679 40.635L29.4347 41.7935L29.1032 43.0042L28.5566 43.2667L28.1991 43.8514L27.1024 44.5073L26.5737 44.2215L25.5276 44.2225L24.9369 44.685L24.2403 44.3758L23.529 44.9594L23.2431 44.522L21.8129 44.51L21.4375 43.8552L20.4 44.4019L18.841 44.6328L18.1889 45.7772L17.0314 45.3892L16.5827 44.3731L15.9681 43.9084L14.822 43.9432L13.7155 43.5248L12.957 43.0064L12.4418 43.9041L8.96951 43.246L7.77185 42.7602L7.58048 42.5005L8.72872 41.9342L8.59622 41.017L8.30767 40.6464L7.34732 40.1861L6.73174 39.083L4.13808 38.6048L4.78898 37.6609L4.30109 36.7518L5.3694 36.354L5.91815 35.6856L6.63771 35.1563L7.12626 34.1776L6.47851 33.5908L6.12478 32.2159L6.36972 31.0498L5.87039 30.4401L4.62381 31.1248L3.65334 30.6281L2.74739 29.2174L2.8774 28.3072L2.01489 27.6714L0 27.6019L0.700487 26.777L1.25471 26.6661L1.92369 25.8646L2.55668 25.6407L3.60442 25.5907L4.62331 25.119L6.09593 24.9957L6.7334 24.2653L7.743 24.1338L9.1521 24.261L10.3013 23.9013L11.4295 24.2898L12.594 24.2692L14.0786 23.9045L14.9399 23.1063L14.8067 19.6301L14.2253 18.5688L14.5704 17.9732L14.3296 17.4043L12.8282 17.6015L12.163 16.9174L11.4181 16.6446L11.6599 14.9399L11.2018 14.3677L11.1159 13.6673L11.4827 13.1733L12.3517 12.7538L12.8059 12.0946L12.099 11.5181L10.9486 11.4121L9.66834 10.8606L9.25475 10.3383L7.99954 10.2808L7.22344 9.45477L7.11216 8.43967L6.39758 7.89246L6.57801 6.24812L5.90405 5.58897L5.79709 4.85536L5.12695 4.97762L4.30872 4.73038L3.7142 4.03916L4.22332 3.16591L3.84405 2.45077L3.99181 1.80739Z" fill="#F2F2F2" stroke="#07122B" mask="url(#path-1-inside-1_81_169)"/>
</svg>
