<svg width="62" height="49" viewBox="0 0 62 49" fill="none" xmlns="http://www.w3.org/2000/svg">
<mask id="path-1-inside-1_81_176" fill="white">
<path d="M14.1117 21.8504L14.4676 21.5325L14.6757 20.5946L15.1089 20.0588L15.0566 19.0986L16.1822 19.6719L17.3445 19.4719L17.8292 19.1649L18.4214 19.5018L19.6823 18.5101L20.7043 17.9825L20.4952 17.3901L19.5513 16.8228L20.674 16.0316L21.6547 15.9545L22.0151 15.1877L22.5743 15.0535L23.4426 16.1539L23.9419 15.699L25.513 14.7633L26.1629 13.7938L27.2165 13.7901L27.3953 14.1726L28.6284 13.9444L29.9271 14.3623L30.802 14.1922L31.2144 13.3494L32.6517 13.1744L33.7527 14.4372L34.4895 14.121L34.2988 12.8135L34.6282 12.1164L34.5721 9.67048L33.3467 9.0499L33.4331 8.15491L33.0522 7.68487L33.3506 6.64316L32.7463 6.35351L30.7894 6.82465L28.9196 6.00791L28.8321 5.44712L29.3662 4.12174L29.5652 3.17622L30.4232 2.98928L29.8793 0.930852L31.0531 0L31.9708 0.852599L32.5582 0.909646L33.8869 0.312993L34.8069 1.11779L35.2819 2.26329L34.8819 2.95503L36.0371 3.41802L36.3414 3.21587L37.7755 3.73375L39.3835 3.66472L39.4835 3.06915L39.084 1.7552L40.2811 0.937361L40.9718 1.45253L42.1435 1.11398L42.6967 0.182025L43.139 0.377109L44.1247 0.263553L44.6512 0.896068L45.2192 2.65997L45.8761 2.84473L45.7267 3.82015L46.1548 4.42441L45.9119 4.7635L46.251 5.57645L48.1459 5.4808L49.0105 5.76392L49.0659 6.82303L48.6127 6.94311L49.5686 8.10601L49.6234 8.71191L49.3055 9.42921L49.0659 11.4333L49.8478 11.6224L50.3564 12.3478L50.7641 12.4152L51.1808 13.0162L52.046 13.4504L53.2959 14.3422L54.7477 14.5677L55.42 14.3356L55.7786 13.7058L56.2368 13.8455L57.192 14.6068L58.5278 14.9655L59.0119 16.355L58.2918 17.583L58.9983 18.2628L59.2085 19.2497L59.0722 19.6447L59.4016 20.6783L59.8026 21.1896L60.6954 21.4907L61.1322 23.1932L60.4904 23.2432L59.645 22.7552L57.7805 22.8209L56.3893 24.5387L55.421 24.4582L54.3353 25.2022L53.9871 25.8216L53.0763 25.8629L52.961 26.589L52.5095 26.9628L52.0417 26.8509L50.1423 28.0556L49.7609 28.731L49.1463 28.9071L48.7692 29.7086L48.2638 29.8505L47.3439 30.5531L46.8618 30.6449L46.0945 32.5811L45.1632 33.1908L44.9088 33.8048L44.7436 35.309L41.9234 35.3519L41.0181 35.1112L39.7753 35.1954L38.7123 35.0411L38.3548 34.3108L36.5936 34.0934L36.097 32.8061L35.0752 32.0263L34.6406 31.341L33.6766 32.029L34.2678 32.661L33.9043 33.9418L33.2093 34.3684L32.2448 33.5369L31.3362 34.3124L30.1597 34.6216L30.2586 35.1846L30.9498 36.4822L31.0975 37.0783L30.3521 38.507L29.781 38.6477L29.4196 37.8462L28.6848 36.773L28.2473 36.5257L27.8468 35.6899L27.4317 36.004L27.1308 35.1916L27.2649 34.5368L26.1401 34.1934L25.6716 33.8125L25.251 33.982L24.5283 33.6994L24.4734 34.4651L24.0713 35.1193L23.4409 35.2786L22.3416 36.0883L22.1912 36.7034L20.7561 37.2039L19.8279 37.8206L19.3067 38.9433L19.1301 39.7731L18.1884 40.9539L17.639 41.9706L18.0976 42.3108L18.6384 42.0576L18.6243 43.2917L18.215 43.4237L18.083 45.3235L16.8037 44.0345L16.8939 43.3928L15.824 42.8004L15.2855 43.0738L14.8986 44.1318L15.0958 44.8915L16.2304 45.6772L17.1598 47.4846L18.2971 47.8612L18.0797 48.5002L17.4032 48.5334L15.7104 48.0161L15.1323 47.9829L14.5938 47.4944L13.8786 47.3107L13.2043 47.7302L12.4663 47.5014L11.605 48.0215L10.8872 48.0563L10.4823 48.5095L9.46718 48.4823L9.89321 48.2117L9.50417 47.402L9.73302 46.2456L9.3836 45.9348L9.36122 45.1784L9.88127 44.5959L9.44065 44.1247L8.42823 44.3019L7.90817 43.8003L8.0153 42.8249L7.63919 42.7841L7.27302 42.0054L7.73537 41.4386L6.84533 41.1256L6.48398 41.2626L4.39396 41.193L3.78651 40.2453L2.76646 40.9213L2.28073 40.2464L1.86879 40.2486L1.72203 39.4938L0.706457 39.3862L0.899323 38.1733L0.465167 36.986L0 36.473L0.57495 35.9953L1.65785 36.361L2.05088 36.6952L2.9104 35.7481L1.69434 35.2384L1.49102 34.3216L1.81871 33.9679L1.41772 32.7599L2.2469 33.0017L3.57009 32.9789L4.66941 33.4587L5.183 33.9293L5.60091 33.7706L6.81863 34.3461L7.33057 33.9087L7.66804 32.6316L8.55426 32.6088L9.00533 32.2855L7.59789 30.7248L7.23986 30.865L6.56325 30.3134L6.68928 29.6858L7.33604 28.2067L8.38859 26.8998L8.16903 24.9049L8.58643 24.5256L9.20964 24.8805L9.87696 24.8788L11.1496 25.3282L12.1229 24.5533L13.6358 24.6517L14.0368 23.5426L15.059 22.9117V22.1911L14.1117 21.8504Z"/>
</mask>
<path d="M14.1117 21.8504L14.4676 21.5325L14.6757 20.5946L15.1089 20.0588L15.0566 19.0986L16.1822 19.6719L17.3445 19.4719L17.8292 19.1649L18.4214 19.5018L19.6823 18.5101L20.7043 17.9825L20.4952 17.3901L19.5513 16.8228L20.674 16.0316L21.6547 15.9545L22.0151 15.1877L22.5743 15.0535L23.4426 16.1539L23.9419 15.699L25.513 14.7633L26.1629 13.7938L27.2165 13.7901L27.3953 14.1726L28.6284 13.9444L29.9271 14.3623L30.802 14.1922L31.2144 13.3494L32.6517 13.1744L33.7527 14.4372L34.4895 14.121L34.2988 12.8135L34.6282 12.1164L34.5721 9.67048L33.3467 9.0499L33.4331 8.15491L33.0522 7.68487L33.3506 6.64316L32.7463 6.35351L30.7894 6.82465L28.9196 6.00791L28.8321 5.44712L29.3662 4.12174L29.5652 3.17622L30.4232 2.98928L29.8793 0.930852L31.0531 0L31.9708 0.852599L32.5582 0.909646L33.8869 0.312993L34.8069 1.11779L35.2819 2.26329L34.8819 2.95503L36.0371 3.41802L36.3414 3.21587L37.7755 3.73375L39.3835 3.66472L39.4835 3.06915L39.084 1.7552L40.2811 0.937361L40.9718 1.45253L42.1435 1.11398L42.6967 0.182025L43.139 0.377109L44.1247 0.263553L44.6512 0.896068L45.2192 2.65997L45.8761 2.84473L45.7267 3.82015L46.1548 4.42441L45.9119 4.7635L46.251 5.57645L48.1459 5.4808L49.0105 5.76392L49.0659 6.82303L48.6127 6.94311L49.5686 8.10601L49.6234 8.71191L49.3055 9.42921L49.0659 11.4333L49.8478 11.6224L50.3564 12.3478L50.7641 12.4152L51.1808 13.0162L52.046 13.4504L53.2959 14.3422L54.7477 14.5677L55.42 14.3356L55.7786 13.7058L56.2368 13.8455L57.192 14.6068L58.5278 14.9655L59.0119 16.355L58.2918 17.583L58.9983 18.2628L59.2085 19.2497L59.0722 19.6447L59.4016 20.6783L59.8026 21.1896L60.6954 21.4907L61.1322 23.1932L60.4904 23.2432L59.645 22.7552L57.7805 22.8209L56.3893 24.5387L55.421 24.4582L54.3353 25.2022L53.9871 25.8216L53.0763 25.8629L52.961 26.589L52.5095 26.9628L52.0417 26.8509L50.1423 28.0556L49.7609 28.731L49.1463 28.9071L48.7692 29.7086L48.2638 29.8505L47.3439 30.5531L46.8618 30.6449L46.0945 32.5811L45.1632 33.1908L44.9088 33.8048L44.7436 35.309L41.9234 35.3519L41.0181 35.1112L39.7753 35.1954L38.7123 35.0411L38.3548 34.3108L36.5936 34.0934L36.097 32.8061L35.0752 32.0263L34.6406 31.341L33.6766 32.029L34.2678 32.661L33.9043 33.9418L33.2093 34.3684L32.2448 33.5369L31.3362 34.3124L30.1597 34.6216L30.2586 35.1846L30.9498 36.4822L31.0975 37.0783L30.3521 38.507L29.781 38.6477L29.4196 37.8462L28.6848 36.773L28.2473 36.5257L27.8468 35.6899L27.4317 36.004L27.1308 35.1916L27.2649 34.5368L26.1401 34.1934L25.6716 33.8125L25.251 33.982L24.5283 33.6994L24.4734 34.4651L24.0713 35.1193L23.4409 35.2786L22.3416 36.0883L22.1912 36.7034L20.7561 37.2039L19.8279 37.8206L19.3067 38.9433L19.1301 39.7731L18.1884 40.9539L17.639 41.9706L18.0976 42.3108L18.6384 42.0576L18.6243 43.2917L18.215 43.4237L18.083 45.3235L16.8037 44.0345L16.8939 43.3928L15.824 42.8004L15.2855 43.0738L14.8986 44.1318L15.0958 44.8915L16.2304 45.6772L17.1598 47.4846L18.2971 47.8612L18.0797 48.5002L17.4032 48.5334L15.7104 48.0161L15.1323 47.9829L14.5938 47.4944L13.8786 47.3107L13.2043 47.7302L12.4663 47.5014L11.605 48.0215L10.8872 48.0563L10.4823 48.5095L9.46718 48.4823L9.89321 48.2117L9.50417 47.402L9.73302 46.2456L9.3836 45.9348L9.36122 45.1784L9.88127 44.5959L9.44065 44.1247L8.42823 44.3019L7.90817 43.8003L8.0153 42.8249L7.63919 42.7841L7.27302 42.0054L7.73537 41.4386L6.84533 41.1256L6.48398 41.2626L4.39396 41.193L3.78651 40.2453L2.76646 40.9213L2.28073 40.2464L1.86879 40.2486L1.72203 39.4938L0.706457 39.3862L0.899323 38.1733L0.465167 36.986L0 36.473L0.57495 35.9953L1.65785 36.361L2.05088 36.6952L2.9104 35.7481L1.69434 35.2384L1.49102 34.3216L1.81871 33.9679L1.41772 32.7599L2.2469 33.0017L3.57009 32.9789L4.66941 33.4587L5.183 33.9293L5.60091 33.7706L6.81863 34.3461L7.33057 33.9087L7.66804 32.6316L8.55426 32.6088L9.00533 32.2855L7.59789 30.7248L7.23986 30.865L6.56325 30.3134L6.68928 29.6858L7.33604 28.2067L8.38859 26.8998L8.16903 24.9049L8.58643 24.5256L9.20964 24.8805L9.87696 24.8788L11.1496 25.3282L12.1229 24.5533L13.6358 24.6517L14.0368 23.5426L15.059 22.9117V22.1911L14.1117 21.8504Z" fill="#F2F2F2" stroke="#07122B" mask="url(#path-1-inside-1_81_176)"/>
</svg>
