<svg width="45" height="72" viewBox="0 0 45 72" fill="none" xmlns="http://www.w3.org/2000/svg">
<mask id="path-1-inside-1_81_161" fill="white">
<path d="M30.6385 21.6445L30.7499 22.7394L29.7972 23.6382L30.0065 24.9832L29.982 25.8983L30.6927 26.2053L32.0643 27.9029L33.2501 28.6419L33.5744 28.5898L34.0587 29.6206L35.3194 29.9064L35.9427 30.2412L36.685 29.4696L37.8402 28.6457L38.708 29.7494L38.107 30.3238L38.0739 31.0302L37.7626 31.7568L37.0099 32.185L37.5251 32.9713L38.3374 33.2756L39.1243 33.8212L38.8739 34.5042L39.5128 34.7873L39.3467 36.0057L39.6797 36.5257L39.7694 37.2848L39.4987 38.0016L38.9309 38.4233L39.202 38.9297L40.0264 39.1536L40.01 39.6155L39.3216 39.7258L38.8732 40.3518L38.4521 40.4529L38.2543 41.3925L37.0676 42.889L35.3101 43.8606L35.2303 44.3611L34.5418 44.4149L33.3283 44.8295L33.4789 45.4751L34.1978 45.1643L34.4565 45.8604L33.9028 46.6391L33.1355 47.0379L32.767 47.9889L32.1355 48.4274L31.5927 47.8378L31.1008 48.7285L30.7325 48.8361L29.7674 49.9664L29.106 50.4755L29.0788 50.8499L29.7783 51.2194L31.1796 51.514L31.5824 52.3416L31.2199 52.7801L31.909 53.5534L32.7279 53.7224L33.3408 53.2311L34.5031 53.8751L34.7157 53.573L36.0139 53.417L36.6986 52.935L37.2925 53.7142L38.5619 54.0778L39.6911 54.7934L40.3241 54.3245L41.1334 54.2479L40.811 54.9733L40.4024 55.3504L40.4835 56.165L41.274 56.0264L42.0332 56.4737L42.1501 57.0703L42.6716 57.6659L43.6438 58.3218L44.4285 58.4642L44.6557 59.0413L43.9177 59.3787L43.8123 59.8955L43.3216 60.2563L43.7003 61.7393L44.0834 62.2468L44.1182 63.376L43.4363 64.0515L43.2929 65.5171L42.5571 66.2474L42.1169 66.2278L41.2453 67.3929L40.5742 67.8494L40.1052 68.9655L38.444 69.2698L37.7913 68.815L37.7648 68.3036L36.2704 68.4314L36.3432 68.8525L35.8117 69.4383L34.8482 69.6556L33.1496 68.4857L32.3725 68.5591L31.0727 68.2781L30.6211 67.8401L29.5213 68.0586L28.6881 67.3125L27.8448 67.4445L27.4802 66.8669L26.941 66.987L25.6739 66.6142L24.9207 67.1527L25.0164 67.7135L23.8741 69.1052L23.1089 69.0438L22.7069 69.6546L22.0809 70.0474L22.2537 70.5441L20.8979 71.4554L20.2866 71.1468L19.4052 71.2544L18.7035 70.6077L18.9274 70.2784L18.3226 69.7323L17.1805 69.7812L15.8284 67.1375L15.311 66.4811L15.8273 65.3366L15.3583 64.5433L14.8943 64.2004L15.1547 63.5483L14.9019 63.1418L14.1081 62.6826L13.914 62.017L14.9525 61.7431L15.8279 61.9719L15.9361 62.4702L17.2755 62.4685L18.5319 61.9914L19.2677 61.3687L20.0649 61.0415L21.3842 61.2067L20.962 60.6144L20.3892 60.6014L20.2393 59.964L20.4551 59.2048L19.0274 59.7678L17.839 59.3581L17.0452 58.6631L16.3664 58.7886L15.9518 57.7545L15.7833 56.8133L15.4275 56.2335L14.2427 55.8955L13.7864 54.9755L13.9461 52.0492L13.7532 51.0765L12.9799 50.3761L13.5993 48.9496L14.1117 45.4919L14.7465 44.4801L14.19 44.3856L14.2117 42.3972L14.353 41.8832L14.2596 40.7355L13.6461 40.2823L13.325 40.7273L12.9283 39.5552L12.6038 37.2142L12.456 37.0001L12.4419 35.6063L13.1 33.4815L12.8625 31.5264L12.5496 30.0075L12.7109 29.5717L12.305 28.7887L11.3035 28.6365L10.5617 26.4645L9.62821 24.8691L8.87001 23.1883L9.43203 22.6297L8.79124 22.1537L8.27284 22.6465L7.73554 21.7993L6.31765 20.1756L5.16626 20.1137L4.60756 18.3677L4.57174 15.8181L4.32398 15.0029L3.83211 14.5057L3.81205 13.2206L3.57723 12.318L2.68984 12.0104L2.39698 11.6583L2.3459 10.5204L3.34472 9.93241L3.95765 8.51194L3.73328 5.90141L3.28934 4.41084L2.80841 3.93645L1.83629 3.45064L1.23464 3.48814L0.0940284 2.6502L0.428849 1.84378L0 1.08681L0.223877 0L1.34608 0.0934635L2.37144 1.13355L3.31487 0.511347L3.96047 0.776527L4.48418 1.87639L5.91069 2.25677L6.86872 2.69585L8.40219 2.61488L10.1514 3.86852L11.6045 3.7506L13.4141 4.19456L13.9482 3.9234L15.3513 4.04839L16.9664 3.30446L17.4467 2.52032L17.4994 1.65631L18.303 1.95844L19.2491 1.33461L19.6878 1.41558L20.5474 1.12214L21.7766 1.17756L22.2477 1.42808L24.3132 1.90247L24.9679 1.75032L24.9311 2.45077L25.6565 3.64681L26.5563 5.86826L26.5336 6.85183L25.5782 6.54263L25.1288 7.59086L24.4708 7.89897L23.7328 8.68475L23.5411 10.1128L23.6612 10.6502L25.4701 13.6553L26.9405 15.6045L27.9899 16.8473L28.9316 18.3384L29.0055 19.5953L28.5246 19.8664L28.4132 20.5039L29.08 20.8169L29.9168 20.4925L29.9282 21.1157L30.6385 21.6445Z"/>
</mask>
<path d="M30.6385 21.6445L30.7499 22.7394L29.7972 23.6382L30.0065 24.9832L29.982 25.8983L30.6927 26.2053L32.0643 27.9029L33.2501 28.6419L33.5744 28.5898L34.0587 29.6206L35.3194 29.9064L35.9427 30.2412L36.685 29.4696L37.8402 28.6457L38.708 29.7494L38.107 30.3238L38.0739 31.0302L37.7626 31.7568L37.0099 32.185L37.5251 32.9713L38.3374 33.2756L39.1243 33.8212L38.8739 34.5042L39.5128 34.7873L39.3467 36.0057L39.6797 36.5257L39.7694 37.2848L39.4987 38.0016L38.9309 38.4233L39.202 38.9297L40.0264 39.1536L40.01 39.6155L39.3216 39.7258L38.8732 40.3518L38.4521 40.4529L38.2543 41.3925L37.0676 42.889L35.3101 43.8606L35.2303 44.3611L34.5418 44.4149L33.3283 44.8295L33.4789 45.4751L34.1978 45.1643L34.4565 45.8604L33.9028 46.6391L33.1355 47.0379L32.767 47.9889L32.1355 48.4274L31.5927 47.8378L31.1008 48.7285L30.7325 48.8361L29.7674 49.9664L29.106 50.4755L29.0788 50.8499L29.7783 51.2194L31.1796 51.514L31.5824 52.3416L31.2199 52.7801L31.909 53.5534L32.7279 53.7224L33.3408 53.2311L34.5031 53.8751L34.7157 53.573L36.0139 53.417L36.6986 52.935L37.2925 53.7142L38.5619 54.0778L39.6911 54.7934L40.3241 54.3245L41.1334 54.2479L40.811 54.9733L40.4024 55.3504L40.4835 56.165L41.274 56.0264L42.0332 56.4737L42.1501 57.0703L42.6716 57.6659L43.6438 58.3218L44.4285 58.4642L44.6557 59.0413L43.9177 59.3787L43.8123 59.8955L43.3216 60.2563L43.7003 61.7393L44.0834 62.2468L44.1182 63.376L43.4363 64.0515L43.2929 65.5171L42.5571 66.2474L42.1169 66.2278L41.2453 67.3929L40.5742 67.8494L40.1052 68.9655L38.444 69.2698L37.7913 68.815L37.7648 68.3036L36.2704 68.4314L36.3432 68.8525L35.8117 69.4383L34.8482 69.6556L33.1496 68.4857L32.3725 68.5591L31.0727 68.2781L30.6211 67.8401L29.5213 68.0586L28.6881 67.3125L27.8448 67.4445L27.4802 66.8669L26.941 66.987L25.6739 66.6142L24.9207 67.1527L25.0164 67.7135L23.8741 69.1052L23.1089 69.0438L22.7069 69.6546L22.0809 70.0474L22.2537 70.5441L20.8979 71.4554L20.2866 71.1468L19.4052 71.2544L18.7035 70.6077L18.9274 70.2784L18.3226 69.7323L17.1805 69.7812L15.8284 67.1375L15.311 66.4811L15.8273 65.3366L15.3583 64.5433L14.8943 64.2004L15.1547 63.5483L14.9019 63.1418L14.1081 62.6826L13.914 62.017L14.9525 61.7431L15.8279 61.9719L15.9361 62.4702L17.2755 62.4685L18.5319 61.9914L19.2677 61.3687L20.0649 61.0415L21.3842 61.2067L20.962 60.6144L20.3892 60.6014L20.2393 59.964L20.4551 59.2048L19.0274 59.7678L17.839 59.3581L17.0452 58.6631L16.3664 58.7886L15.9518 57.7545L15.7833 56.8133L15.4275 56.2335L14.2427 55.8955L13.7864 54.9755L13.9461 52.0492L13.7532 51.0765L12.9799 50.3761L13.5993 48.9496L14.1117 45.4919L14.7465 44.4801L14.19 44.3856L14.2117 42.3972L14.353 41.8832L14.2596 40.7355L13.6461 40.2823L13.325 40.7273L12.9283 39.5552L12.6038 37.2142L12.456 37.0001L12.4419 35.6063L13.1 33.4815L12.8625 31.5264L12.5496 30.0075L12.7109 29.5717L12.305 28.7887L11.3035 28.6365L10.5617 26.4645L9.62821 24.8691L8.87001 23.1883L9.43203 22.6297L8.79124 22.1537L8.27284 22.6465L7.73554 21.7993L6.31765 20.1756L5.16626 20.1137L4.60756 18.3677L4.57174 15.8181L4.32398 15.0029L3.83211 14.5057L3.81205 13.2206L3.57723 12.318L2.68984 12.0104L2.39698 11.6583L2.3459 10.5204L3.34472 9.93241L3.95765 8.51194L3.73328 5.90141L3.28934 4.41084L2.80841 3.93645L1.83629 3.45064L1.23464 3.48814L0.0940284 2.6502L0.428849 1.84378L0 1.08681L0.223877 0L1.34608 0.0934635L2.37144 1.13355L3.31487 0.511347L3.96047 0.776527L4.48418 1.87639L5.91069 2.25677L6.86872 2.69585L8.40219 2.61488L10.1514 3.86852L11.6045 3.7506L13.4141 4.19456L13.9482 3.9234L15.3513 4.04839L16.9664 3.30446L17.4467 2.52032L17.4994 1.65631L18.303 1.95844L19.2491 1.33461L19.6878 1.41558L20.5474 1.12214L21.7766 1.17756L22.2477 1.42808L24.3132 1.90247L24.9679 1.75032L24.9311 2.45077L25.6565 3.64681L26.5563 5.86826L26.5336 6.85183L25.5782 6.54263L25.1288 7.59086L24.4708 7.89897L23.7328 8.68475L23.5411 10.1128L23.6612 10.6502L25.4701 13.6553L26.9405 15.6045L27.9899 16.8473L28.9316 18.3384L29.0055 19.5953L28.5246 19.8664L28.4132 20.5039L29.08 20.8169L29.9168 20.4925L29.9282 21.1157L30.6385 21.6445Z" fill="#F2F2F2" stroke="#07122B" mask="url(#path-1-inside-1_81_161)"/>
</svg>
