<svg width="61" height="51" viewBox="0 0 61 51" fill="none" xmlns="http://www.w3.org/2000/svg">
<mask id="path-1-inside-1_81_134" fill="white">
<path d="M3.28602 31.278L3.16761 30.4895L3.88004 30.1879L4.19347 29.1815L4.91137 27.8714L6.04385 27.6312L6.4324 27.7268L6.59376 26.377L7.59905 25.5951L7.60237 24.8778L8.29307 24.8723L8.39407 23.9252L9.00052 22.7248L9.93633 22.6438L10.2889 22.3074L9.88028 20.8593L9.37166 20.5555L8.06538 21.081L7.07087 21.0603L7.10951 19.617L7.5974 19.4306L7.88495 18.8465L8.71579 18.897L8.96902 18.4351L8.53917 17.7531L7.95875 16.3175L7.91049 15.3556L8.37665 14.4427L9.56834 14.6003L10.6068 14.2487L11.4431 14.7791L12.6663 14.1319L13.0238 14.121L13.0995 12.9597L12.1512 13.1934L11.3844 12.7636L11.4056 11.7507L9.45856 10.8627L9.97381 10.4883L10.409 9.72701L9.56834 8.19188L9.79885 7.74357L9.45757 7.28982L9.64015 6.5785L9.11959 6.31386L9.29339 5.15749L10.0634 4.65158L11.1725 4.22446L12.7935 3.97014L12.7174 3.36805L13.3331 3.35881L14.9683 2.72845L16.8425 3.51639L17.0626 2.99472L16.9724 1.4721L16.2767 0.604821L17.4288 0.031519L18.9639 0.695025L19.5367 0L20.2002 0.994439L20.8474 1.67641L22.0852 1.63893L22.9167 2.63934L23.5877 2.64694L23.7437 0.549929L24.0409 0.0831455L25.1018 0.316268L28.7224 0.261926L29.2311 0.474402L29.6826 1.31832L30.1337 1.07487L31.2204 1.51828L31.7867 2.47468L32.7099 2.96266L33.6283 4.54289L34.4723 4.51789L35.321 5.14934L36.0437 4.86459L36.8774 6.50459L37.8604 7.16646L38.4691 7.19092L38.751 7.61369L39.3863 7.28927L41.3637 7.06322L42.2124 6.84858L42.6571 6.36712L43.4798 6.26713L44.328 6.76326L43.9998 7.17353L44.6605 8.11036L45.1051 9.05861L45.0844 9.58137L45.9865 9.83786L46.9396 9.33955L47.5868 8.50596L48.5997 8.86461L49.0893 8.69453L49.6986 9.23251L50.8151 9.19338L51.4266 9.41672L52.3075 8.882L52.8882 9.74494L54.0687 10.0291L54.0224 9.61018L54.6436 8.87929L54.8348 8.33045L56.7014 8.21144L56.232 8.8081L57.1389 9.23848L57.3106 9.6243L58.0497 9.67538L58.3158 10.6443L58.8717 11.1339L58.3023 11.7322L57.3029 12.074L56.9215 12.5739L57.3535 13.1331L57.8246 14.2373L58.0898 15.2714L58.7474 16.3164L59.025 17.0516L59.2386 19.8855L58.1714 21.3983L59.576 20.9837L60.4362 21.5847L60.3009 22.6275L60.4558 23.3307L59.2951 23.3524L59.3989 24.1523L60.1624 24.1143L60.583 24.4088L60.2553 25.5271L59.7135 26.3705L57.6165 27.1133L57.3051 26.8362L56.7714 27.3285L56.664 27.8556L55.9248 28.7044L56.3373 29.0598L55.9945 30.3368L56.7683 31.4655L56.7645 31.8937L55.9809 32.21L55.0283 33.2153L55.3303 33.6788L55.0418 34.2825L56.6747 34.6825L57.285 35.935L58.3387 36.8463L58.4104 37.2734L59.4641 37.4604L59.4006 38.5059L59.6342 39.1596L59.3646 39.8356L58.6958 40.6458L58.2517 40.3768L57.1089 40.6687L56.8693 41.1729L55.8293 40.3959L55.3983 40.8588L54.7642 41.0643L54.204 41.568L53.3317 41.2588L51.6858 41.0219L51.0793 41.4316L50.7495 42.1929L52.0965 42.3141L53.2796 42.5602L53.7056 43.3835L53.635 44.5556L52.8395 44.6605L51.6287 45.6207L51.1956 45.3762L50.6941 45.7142L50.6772 46.7423L51.7189 49.192L48.7329 48.5801L48.2993 48.8605L46.9636 49.1322L46.826 48.8084L45.8462 48.6171L45.492 47.8628L43.5031 48.1454L41.8458 49.2817L41.706 48.6611L41.1002 48.247L40.4997 48.7692L39.8851 48.3981L38.4989 48.1432L37.2289 47.5661L35.0401 45.462L34.4597 45.2458L33.9587 44.4475L34.6 43.5612L33.9897 42.4353L34.5363 41.3979L34.1608 40.6735L34.3777 39.972L33.762 39.1612L33.3278 38.9765L32.0051 39.4324L31.2302 38.8368L30.8624 39.6378L28.3583 39.3493L26.9808 40.4562L25.1593 39.6867L24.5653 40.7703L24.4175 41.6462L23.3688 42.0299L22.3411 41.793L21.7108 42.3472L21.4153 43.5813L20.661 44.2345L20.4028 45.1577L19.3498 44.9871L18.9536 45.2626L18.5624 46.7521L17.539 46.3837L17.2092 46.5505L17.0533 47.5531L17.2283 48.9208L16.8022 49.6039L15.8258 50.0691L14.6215 49.2904L13.6809 49.3653L12.6054 48.7622L11.3633 49.0561L10.7677 48.6948L9.14182 48.8888L8.82656 48.6633L8.57781 47.4259L8.7652 47.0993L8.31098 46.4473L7.69524 46.8706L7.25395 46.05L6.87419 46.1837L6.80951 45.0936L6.21334 45.1621L5.89709 44.2209L4.48484 42.9254L3.44638 42.7494L2.95783 43.283L2.23562 43.4677L2.36381 42.3923L1.8401 41.8848L1.72435 41.3137L2.18189 40.7496L2.85137 40.3948L2.98934 39.8106L2.50626 39.365L2.71986 37.6538L1.77924 37.7131L1.49716 36.7931L0.455383 36.8463L0 36.4697L0.631997 35.133L1.68621 35.1585L1.56183 33.9228L1.00164 34.1412L0.344605 33.6076L0.754881 33.1756L1.67427 33.5397L2.38288 33.3196L3.29199 32.768L3.51752 32.242L3.28602 31.278Z"/>
</mask>
<path d="M3.28602 31.278L3.16761 30.4895L3.88004 30.1879L4.19347 29.1815L4.91137 27.8714L6.04385 27.6312L6.4324 27.7268L6.59376 26.377L7.59905 25.5951L7.60237 24.8778L8.29307 24.8723L8.39407 23.9252L9.00052 22.7248L9.93633 22.6438L10.2889 22.3074L9.88028 20.8593L9.37166 20.5555L8.06538 21.081L7.07087 21.0603L7.10951 19.617L7.5974 19.4306L7.88495 18.8465L8.71579 18.897L8.96902 18.4351L8.53917 17.7531L7.95875 16.3175L7.91049 15.3556L8.37665 14.4427L9.56834 14.6003L10.6068 14.2487L11.4431 14.7791L12.6663 14.1319L13.0238 14.121L13.0995 12.9597L12.1512 13.1934L11.3844 12.7636L11.4056 11.7507L9.45856 10.8627L9.97381 10.4883L10.409 9.72701L9.56834 8.19188L9.79885 7.74357L9.45757 7.28982L9.64015 6.5785L9.11959 6.31386L9.29339 5.15749L10.0634 4.65158L11.1725 4.22446L12.7935 3.97014L12.7174 3.36805L13.3331 3.35881L14.9683 2.72845L16.8425 3.51639L17.0626 2.99472L16.9724 1.4721L16.2767 0.604821L17.4288 0.031519L18.9639 0.695025L19.5367 0L20.2002 0.994439L20.8474 1.67641L22.0852 1.63893L22.9167 2.63934L23.5877 2.64694L23.7437 0.549929L24.0409 0.0831455L25.1018 0.316268L28.7224 0.261926L29.2311 0.474402L29.6826 1.31832L30.1337 1.07487L31.2204 1.51828L31.7867 2.47468L32.7099 2.96266L33.6283 4.54289L34.4723 4.51789L35.321 5.14934L36.0437 4.86459L36.8774 6.50459L37.8604 7.16646L38.4691 7.19092L38.751 7.61369L39.3863 7.28927L41.3637 7.06322L42.2124 6.84858L42.6571 6.36712L43.4798 6.26713L44.328 6.76326L43.9998 7.17353L44.6605 8.11036L45.1051 9.05861L45.0844 9.58137L45.9865 9.83786L46.9396 9.33955L47.5868 8.50596L48.5997 8.86461L49.0893 8.69453L49.6986 9.23251L50.8151 9.19338L51.4266 9.41672L52.3075 8.882L52.8882 9.74494L54.0687 10.0291L54.0224 9.61018L54.6436 8.87929L54.8348 8.33045L56.7014 8.21144L56.232 8.8081L57.1389 9.23848L57.3106 9.6243L58.0497 9.67538L58.3158 10.6443L58.8717 11.1339L58.3023 11.7322L57.3029 12.074L56.9215 12.5739L57.3535 13.1331L57.8246 14.2373L58.0898 15.2714L58.7474 16.3164L59.025 17.0516L59.2386 19.8855L58.1714 21.3983L59.576 20.9837L60.4362 21.5847L60.3009 22.6275L60.4558 23.3307L59.2951 23.3524L59.3989 24.1523L60.1624 24.1143L60.583 24.4088L60.2553 25.5271L59.7135 26.3705L57.6165 27.1133L57.3051 26.8362L56.7714 27.3285L56.664 27.8556L55.9248 28.7044L56.3373 29.0598L55.9945 30.3368L56.7683 31.4655L56.7645 31.8937L55.9809 32.21L55.0283 33.2153L55.3303 33.6788L55.0418 34.2825L56.6747 34.6825L57.285 35.935L58.3387 36.8463L58.4104 37.2734L59.4641 37.4604L59.4006 38.5059L59.6342 39.1596L59.3646 39.8356L58.6958 40.6458L58.2517 40.3768L57.1089 40.6687L56.8693 41.1729L55.8293 40.3959L55.3983 40.8588L54.7642 41.0643L54.204 41.568L53.3317 41.2588L51.6858 41.0219L51.0793 41.4316L50.7495 42.1929L52.0965 42.3141L53.2796 42.5602L53.7056 43.3835L53.635 44.5556L52.8395 44.6605L51.6287 45.6207L51.1956 45.3762L50.6941 45.7142L50.6772 46.7423L51.7189 49.192L48.7329 48.5801L48.2993 48.8605L46.9636 49.1322L46.826 48.8084L45.8462 48.6171L45.492 47.8628L43.5031 48.1454L41.8458 49.2817L41.706 48.6611L41.1002 48.247L40.4997 48.7692L39.8851 48.3981L38.4989 48.1432L37.2289 47.5661L35.0401 45.462L34.4597 45.2458L33.9587 44.4475L34.6 43.5612L33.9897 42.4353L34.5363 41.3979L34.1608 40.6735L34.3777 39.972L33.762 39.1612L33.3278 38.9765L32.0051 39.4324L31.2302 38.8368L30.8624 39.6378L28.3583 39.3493L26.9808 40.4562L25.1593 39.6867L24.5653 40.7703L24.4175 41.6462L23.3688 42.0299L22.3411 41.793L21.7108 42.3472L21.4153 43.5813L20.661 44.2345L20.4028 45.1577L19.3498 44.9871L18.9536 45.2626L18.5624 46.7521L17.539 46.3837L17.2092 46.5505L17.0533 47.5531L17.2283 48.9208L16.8022 49.6039L15.8258 50.0691L14.6215 49.2904L13.6809 49.3653L12.6054 48.7622L11.3633 49.0561L10.7677 48.6948L9.14182 48.8888L8.82656 48.6633L8.57781 47.4259L8.7652 47.0993L8.31098 46.4473L7.69524 46.8706L7.25395 46.05L6.87419 46.1837L6.80951 45.0936L6.21334 45.1621L5.89709 44.2209L4.48484 42.9254L3.44638 42.7494L2.95783 43.283L2.23562 43.4677L2.36381 42.3923L1.8401 41.8848L1.72435 41.3137L2.18189 40.7496L2.85137 40.3948L2.98934 39.8106L2.50626 39.365L2.71986 37.6538L1.77924 37.7131L1.49716 36.7931L0.455383 36.8463L0 36.4697L0.631997 35.133L1.68621 35.1585L1.56183 33.9228L1.00164 34.1412L0.344605 33.6076L0.754881 33.1756L1.67427 33.5397L2.38288 33.3196L3.29199 32.768L3.51752 32.242L3.28602 31.278Z" fill="#F2F2F2" stroke="#07122B" mask="url(#path-1-inside-1_81_134)"/>
</svg>
