<svg width="47" height="62" viewBox="0 0 47 62" fill="none" xmlns="http://www.w3.org/2000/svg">
<mask id="path-1-inside-1_81_179" fill="white">
<path d="M1.4217 8.75539L2.75734 8.48369L3.191 8.20329L6.17702 8.81516L5.13524 6.36548L5.15216 5.33736L5.65364 4.99935L6.0868 5.24389L7.29757 4.28369L8.09308 4.17881L8.16372 3.00668L7.73769 2.18341L6.55463 1.93725L5.20755 1.81608L5.53739 1.05476L6.14385 0.645025L7.78976 0.881952L8.66206 1.19115L9.22225 0.687417L9.8564 0.48201L10.2874 0.0190192L11.3274 0.796101L11.567 0.291818L12.7098 0L13.1539 0.268995L13.8456 0.520048L13.8575 1.08737L13.3787 1.55253L13.3854 2.39046L13.7928 3.10395L13.3923 3.76691L13.7167 4.29075L14.7971 4.22663L15.5215 3.09635L15.8273 4.34347L16.1915 5.20585L18.0689 5.38843L17.9586 5.87262L19.0531 7.22353L19.7345 6.90726L19.9567 7.39905L20.8387 7.94408L21.3945 8.94885L21.9439 8.75703L22.3814 9.11132L24.1345 9.66397L24.8485 9.64875L25.6608 10.2878L26.4341 11.4719L27.6317 12.1425L28.2584 11.9914L28.5671 12.4837L28.6122 13.4493L30.0218 14.7128L30.9091 14.9247L30.0473 15.2393L29.3652 16.0121L28.586 16.543L28.6029 17.0543L29.8506 17.1853L29.0105 18.2591L28.9936 19.4274L29.275 19.829L29.9979 19.5676L30.6065 18.7519L31.3292 18.5188L32.998 19.0269L32.9078 19.7409L34.0234 21.4119L35.2666 22.8574L36.1263 22.0912L37.6865 23.3953L37.2344 24.8663L38.4657 25.5331L38.9412 25.2842L40.0835 26.4178L40.5252 27.5187L39.2596 27.7801L38.6429 28.3295L38.8603 28.9865L38.8314 30.2423L37.9924 31.1025L37.7767 31.5655L38.313 32.2719L37.518 32.4268L36.9469 33.4174L37.4697 34.251L37.8278 33.4718L38.788 33.8282L39.7264 34.6222L40.1324 35.3851L40.7713 35.4639L41.7446 36.3111L42.2463 36.5083L42.875 38.3353L42.8265 38.9276L42.3065 39.4835L42.8955 40.9844L43.6884 40.5496L44.8698 40.1861L45.1779 41.0941L45.6268 41.2767L46.2023 42.3059L46.4266 43.1232L46.1724 43.6802L44.9822 43.3895L44.3671 44.6942L43.8499 45.4267L44.0433 46.3505L42.9196 46.6472L42.5642 46.1831L41.6468 45.9288L41.0155 46.5309L41.1198 47.6666L40.5296 48.2514L39.3923 47.9052L38.714 48.7056L38.5304 50.3669L38.6472 50.8527L39.5966 50.9168L39.7422 52.2155L39.1374 52.6693L39.2297 53.3165L38.7765 53.749L39.1515 54.443L39.0559 55.5412L38.0543 55.5162L37.4908 56.0596L36.8377 55.9477L35.7694 56.0585L35.1265 55.213L35.0277 54.5283L34.4978 54.2995L33.1142 56.1753L32.403 56.1139L31.3639 55.5347L30.9977 55.9808L29.7762 56.3025L29.0729 55.9107L28.5659 56.1492L28.184 57.8425L27.3384 59.094L27.3694 59.8433L26.8238 60.5106L26.1586 60.3406L26.0794 59.6439L25.4722 59.489L24.8756 59.7667L23.8204 60.7074L23.8409 61.1758L23.0378 61.4415L22.3657 60.3503L23.1258 58.9494L22.3504 59.0304L21.3511 57.8604L20.2148 57.4404L20.0133 56.2634L19.3541 56.44L18.3178 57.5627L16.8065 57.0459L15.4008 56.1221L15.8251 54.9782L14.9091 55.1168L14.0857 54.4011L13.4396 55.2814L12.824 55.4705L12.1001 54.8652L11.8796 54.3125L12.4854 53.1784L11.9882 51.2553L10.8546 51.3966L10.7204 50.3245L12.0083 49.7457L13.1565 48.9947L13.3228 48.372L13.0233 47.6346L12.424 47.4558L12.187 46.1875L11.8947 45.5506L10.9149 45.2958L10.96 44.4676L10.4536 43.7248L10.0423 42.595L9.0055 42.6102L8.30435 43.9541L7.44416 43.3286L7.27418 42.8874L8.63154 41.5022L7.85825 40.3513L6.7921 40.4497L5.70903 40.2067L6.09443 38.52L5.90041 37.888L4.01801 37.9652L3.13992 37.6033L2.68885 37.1034L2.93014 35.4644L2.14441 34.1836L1.11574 33.9733L2.76596 33.2696L2.65618 32.717L3.44522 32.3404L3.70343 31.635L6.94367 32.5262L7.48612 32.405L7.29475 31.1101L8.08876 30.2021L7.57468 29.8266L7.58114 28.9153L8.55708 27.1753L8.45924 26.552L7.65229 26.3069L8.2007 25.5918L7.86323 23.9996L8.23868 23.3296L7.77567 22.5487L8.08594 21.8428L7.18778 21.5211L7.14152 20.9587L6.72046 20.3593L7.34864 19.6654L7.06987 19.2182L6.02213 18.4998L5.40041 18.5346L4.57605 17.9585L4.73376 16.7919L2.53893 16.2887L2.67475 15.8632L2.14972 14.709L1.66233 14.1775L1.5091 13.5722L0.156051 12.9342L0 12.475L0.802641 11.9658L1.0907 10.0221L1.66449 9.56181L1.4217 8.75539Z"/>
</mask>
<path d="M1.4217 8.75539L2.75734 8.48369L3.191 8.20329L6.17702 8.81516L5.13524 6.36548L5.15216 5.33736L5.65364 4.99935L6.0868 5.24389L7.29757 4.28369L8.09308 4.17881L8.16372 3.00668L7.73769 2.18341L6.55463 1.93725L5.20755 1.81608L5.53739 1.05476L6.14385 0.645025L7.78976 0.881952L8.66206 1.19115L9.22225 0.687417L9.8564 0.48201L10.2874 0.0190192L11.3274 0.796101L11.567 0.291818L12.7098 0L13.1539 0.268995L13.8456 0.520048L13.8575 1.08737L13.3787 1.55253L13.3854 2.39046L13.7928 3.10395L13.3923 3.76691L13.7167 4.29075L14.7971 4.22663L15.5215 3.09635L15.8273 4.34347L16.1915 5.20585L18.0689 5.38843L17.9586 5.87262L19.0531 7.22353L19.7345 6.90726L19.9567 7.39905L20.8387 7.94408L21.3945 8.94885L21.9439 8.75703L22.3814 9.11132L24.1345 9.66397L24.8485 9.64875L25.6608 10.2878L26.4341 11.4719L27.6317 12.1425L28.2584 11.9914L28.5671 12.4837L28.6122 13.4493L30.0218 14.7128L30.9091 14.9247L30.0473 15.2393L29.3652 16.0121L28.586 16.543L28.6029 17.0543L29.8506 17.1853L29.0105 18.2591L28.9936 19.4274L29.275 19.829L29.9979 19.5676L30.6065 18.7519L31.3292 18.5188L32.998 19.0269L32.9078 19.7409L34.0234 21.4119L35.2666 22.8574L36.1263 22.0912L37.6865 23.3953L37.2344 24.8663L38.4657 25.5331L38.9412 25.2842L40.0835 26.4178L40.5252 27.5187L39.2596 27.7801L38.6429 28.3295L38.8603 28.9865L38.8314 30.2423L37.9924 31.1025L37.7767 31.5655L38.313 32.2719L37.518 32.4268L36.9469 33.4174L37.4697 34.251L37.8278 33.4718L38.788 33.8282L39.7264 34.6222L40.1324 35.3851L40.7713 35.4639L41.7446 36.3111L42.2463 36.5083L42.875 38.3353L42.8265 38.9276L42.3065 39.4835L42.8955 40.9844L43.6884 40.5496L44.8698 40.1861L45.1779 41.0941L45.6268 41.2767L46.2023 42.3059L46.4266 43.1232L46.1724 43.6802L44.9822 43.3895L44.3671 44.6942L43.8499 45.4267L44.0433 46.3505L42.9196 46.6472L42.5642 46.1831L41.6468 45.9288L41.0155 46.5309L41.1198 47.6666L40.5296 48.2514L39.3923 47.9052L38.714 48.7056L38.5304 50.3669L38.6472 50.8527L39.5966 50.9168L39.7422 52.2155L39.1374 52.6693L39.2297 53.3165L38.7765 53.749L39.1515 54.443L39.0559 55.5412L38.0543 55.5162L37.4908 56.0596L36.8377 55.9477L35.7694 56.0585L35.1265 55.213L35.0277 54.5283L34.4978 54.2995L33.1142 56.1753L32.403 56.1139L31.3639 55.5347L30.9977 55.9808L29.7762 56.3025L29.0729 55.9107L28.5659 56.1492L28.184 57.8425L27.3384 59.094L27.3694 59.8433L26.8238 60.5106L26.1586 60.3406L26.0794 59.6439L25.4722 59.489L24.8756 59.7667L23.8204 60.7074L23.8409 61.1758L23.0378 61.4415L22.3657 60.3503L23.1258 58.9494L22.3504 59.0304L21.3511 57.8604L20.2148 57.4404L20.0133 56.2634L19.3541 56.44L18.3178 57.5627L16.8065 57.0459L15.4008 56.1221L15.8251 54.9782L14.9091 55.1168L14.0857 54.4011L13.4396 55.2814L12.824 55.4705L12.1001 54.8652L11.8796 54.3125L12.4854 53.1784L11.9882 51.2553L10.8546 51.3966L10.7204 50.3245L12.0083 49.7457L13.1565 48.9947L13.3228 48.372L13.0233 47.6346L12.424 47.4558L12.187 46.1875L11.8947 45.5506L10.9149 45.2958L10.96 44.4676L10.4536 43.7248L10.0423 42.595L9.0055 42.6102L8.30435 43.9541L7.44416 43.3286L7.27418 42.8874L8.63154 41.5022L7.85825 40.3513L6.7921 40.4497L5.70903 40.2067L6.09443 38.52L5.90041 37.888L4.01801 37.9652L3.13992 37.6033L2.68885 37.1034L2.93014 35.4644L2.14441 34.1836L1.11574 33.9733L2.76596 33.2696L2.65618 32.717L3.44522 32.3404L3.70343 31.635L6.94367 32.5262L7.48612 32.405L7.29475 31.1101L8.08876 30.2021L7.57468 29.8266L7.58114 28.9153L8.55708 27.1753L8.45924 26.552L7.65229 26.3069L8.2007 25.5918L7.86323 23.9996L8.23868 23.3296L7.77567 22.5487L8.08594 21.8428L7.18778 21.5211L7.14152 20.9587L6.72046 20.3593L7.34864 19.6654L7.06987 19.2182L6.02213 18.4998L5.40041 18.5346L4.57605 17.9585L4.73376 16.7919L2.53893 16.2887L2.67475 15.8632L2.14972 14.709L1.66233 14.1775L1.5091 13.5722L0.156051 12.9342L0 12.475L0.802641 11.9658L1.0907 10.0221L1.66449 9.56181L1.4217 8.75539Z" fill="#F2F2F2" stroke="#07122B" mask="url(#path-1-inside-1_81_179)"/>
</svg>
