<svg width="44" height="46" viewBox="0 0 44 46" fill="none" xmlns="http://www.w3.org/2000/svg">
<mask id="path-1-inside-1_81_168" fill="white">
<path d="M0 41.7136L0.587387 41.186L0.917233 39.8231L0.573291 39.3748L1.32104 39.1009L1.83015 38.5597L1.53729 37.9929L1.5552 37.3484L2.30676 36.8789L2.34258 36.0953L2.77508 35.1574L2.63379 34.7895L2.88918 33.525L3.33046 33.005L3.92117 32.9751L4.61519 31.8616L5.47802 31.9279L6.18332 32.2513L6.7795 32.1322L7.95328 31.5671L8.18644 30.7938L7.59076 29.5353L7.81796 28.7387L7.5561 28.3485L8.01464 27.4812L7.30005 26.9356L6.96855 26.2852L6.81101 24.85L6.61433 24.3191L6.579 22.9622L6.13556 22.4688L5.91168 21.3271L6.08282 20.1697L5.58515 19.6681L5.83009 19.1296L5.14868 17.47L5.10805 16.4386L5.74817 14.81L6.64583 13.8922L7.14201 13.1266L6.73605 12.4294L6.42842 10.7937L6.84898 10.1873L6.26972 8.8244L5.8286 8.27882L5.80787 6.8502L6.29907 6.40134L6.44634 5.39333L5.92478 4.20707L6.21815 3.08221L6.99525 3.00885L8.6939 4.1788L9.6574 3.96144L10.1889 3.37565L10.1161 2.9545L11.6104 2.8268L11.637 3.33815L12.2897 3.79299L13.9509 3.48868L14.6301 3.81744L14.78 4.42225L15.6294 5.11836L15.7109 6.07204L16.2925 5.4531L16.9906 5.48896L16.919 6.57958L17.4825 7.1143L19.3148 6.40461L18.4883 5.51776L18.7165 5.13031L19.8751 5.39876L20.4864 5.13847L20.763 4.51137L21.2418 4.45757L21.4803 5.07761L21.6683 6.70076L22.9676 5.86174L23.7154 5.09608L24.6217 5.27268L25.3358 5.05859L26.1036 3.84406L26.6415 3.66474L26.8628 3.06808L27.491 3.474L28.0354 3.4827L28.3588 2.88659L29.1767 2.71269L30.7009 3.23273L31.9338 3.78863L32.1002 4.24673L32.7826 4.21902L32.7468 3.51585L33.8559 2.28557L34.8427 2.71867L35.1514 3.21969L35.6545 3.15882L36.023 2.06278L36.75 1.53078L35.9839 0.865648L37.0212 0.11737L37.6674 0.334199L37.988 0L39.0763 1.25853L40.3432 2.03832L39.303 2.98602L39.8921 3.78538L40.2289 5.08304L40.2327 5.96988L41.0614 6.38775L42.9629 6.32146L43.765 6.18181L43.5514 7.54142L43.7356 8.41685L43.5731 9.17055L43.6361 10.1226L42.338 10.5177L41.5516 10.5622L40.6301 11.0872L40.831 12.4212L39.8665 12.4027L39.8377 13.4722L40.4257 14.1699L40.5768 14.8649L40.1556 15.4333L40.0117 16.4495L39.5274 16.8315L39.7236 18.0526L40.3387 18.9416L40.0241 19.3997L40.2513 19.9251L39.5997 20.2121L38.6618 21.2434L37.1266 21.9444L36.4089 22.5291L36.5593 24.1632L37.4424 24.468L37.7298 25.3255L36.9311 25.8505L36.8746 26.5585L37.4794 26.934L37.1598 28.0007L35.665 27.654L35.3872 28.1648L34.4439 28.4148L33.963 28.7713L33.458 28.4811L33.069 28.868L33.3842 29.7157L33.069 30.5928L34.1184 31.1981L34.6535 32.473L34.5096 33.1397L35.2562 33.562L34.7471 34.3396L33.3439 34.9466L31.792 34.9406L31.035 35.3378L30.7199 35.9296L30.7612 36.7762L31.5959 37.3202L32.041 37.944L31.7539 39.2335L31.3383 38.9319L30.4259 39.1998L30.3863 39.7019L29.1462 40.4796L29.7042 41.7913L30.315 42.1027L31.3627 41.9478L31.6312 42.7983L31.7892 44.1742L31.5481 44.4247L30.5188 43.3819L30.5498 44.1465L29.8319 44.0155L28.9287 44.5975L28.5278 43.9704L27.8122 43.34L26.5003 42.9803L26.5878 43.9237L26.0178 44.9371L24.9868 44.5627L24.05 44.6187L23.1404 45.7799L22.6856 45.656L21.5585 45.875L21.026 45.4669L19.9217 45.4876L19.4854 45.2843L18.0997 45.5827L17.4276 44.7371L16.7793 44.986L16.5326 44.3959L15.5925 43.821L14.6981 43.9883L14.717 44.8594L12.9699 44.21L12.663 43.6395L11.4816 42.8412L10.2557 42.4402L9.88293 42.9917L10.3925 43.3906L10.6236 43.9677L8.80915 44.2041L7.70701 43.8432L5.80074 43.6139L5.35746 43.2352L4.21619 43.1189L3.73643 43.6009L2.49631 43.384L1.68621 43.0292L1.53182 42.5081L0 41.7136Z"/>
</mask>
<path d="M0 41.7136L0.587387 41.186L0.917233 39.8231L0.573291 39.3748L1.32104 39.1009L1.83015 38.5597L1.53729 37.9929L1.5552 37.3484L2.30676 36.8789L2.34258 36.0953L2.77508 35.1574L2.63379 34.7895L2.88918 33.525L3.33046 33.005L3.92117 32.9751L4.61519 31.8616L5.47802 31.9279L6.18332 32.2513L6.7795 32.1322L7.95328 31.5671L8.18644 30.7938L7.59076 29.5353L7.81796 28.7387L7.5561 28.3485L8.01464 27.4812L7.30005 26.9356L6.96855 26.2852L6.81101 24.85L6.61433 24.3191L6.579 22.9622L6.13556 22.4688L5.91168 21.3271L6.08282 20.1697L5.58515 19.6681L5.83009 19.1296L5.14868 17.47L5.10805 16.4386L5.74817 14.81L6.64583 13.8922L7.14201 13.1266L6.73605 12.4294L6.42842 10.7937L6.84898 10.1873L6.26972 8.8244L5.8286 8.27882L5.80787 6.8502L6.29907 6.40134L6.44634 5.39333L5.92478 4.20707L6.21815 3.08221L6.99525 3.00885L8.6939 4.1788L9.6574 3.96144L10.1889 3.37565L10.1161 2.9545L11.6104 2.8268L11.637 3.33815L12.2897 3.79299L13.9509 3.48868L14.6301 3.81744L14.78 4.42225L15.6294 5.11836L15.7109 6.07204L16.2925 5.4531L16.9906 5.48896L16.919 6.57958L17.4825 7.1143L19.3148 6.40461L18.4883 5.51776L18.7165 5.13031L19.8751 5.39876L20.4864 5.13847L20.763 4.51137L21.2418 4.45757L21.4803 5.07761L21.6683 6.70076L22.9676 5.86174L23.7154 5.09608L24.6217 5.27268L25.3358 5.05859L26.1036 3.84406L26.6415 3.66474L26.8628 3.06808L27.491 3.474L28.0354 3.4827L28.3588 2.88659L29.1767 2.71269L30.7009 3.23273L31.9338 3.78863L32.1002 4.24673L32.7826 4.21902L32.7468 3.51585L33.8559 2.28557L34.8427 2.71867L35.1514 3.21969L35.6545 3.15882L36.023 2.06278L36.75 1.53078L35.9839 0.865648L37.0212 0.11737L37.6674 0.334199L37.988 0L39.0763 1.25853L40.3432 2.03832L39.303 2.98602L39.8921 3.78538L40.2289 5.08304L40.2327 5.96988L41.0614 6.38775L42.9629 6.32146L43.765 6.18181L43.5514 7.54142L43.7356 8.41685L43.5731 9.17055L43.6361 10.1226L42.338 10.5177L41.5516 10.5622L40.6301 11.0872L40.831 12.4212L39.8665 12.4027L39.8377 13.4722L40.4257 14.1699L40.5768 14.8649L40.1556 15.4333L40.0117 16.4495L39.5274 16.8315L39.7236 18.0526L40.3387 18.9416L40.0241 19.3997L40.2513 19.9251L39.5997 20.2121L38.6618 21.2434L37.1266 21.9444L36.4089 22.5291L36.5593 24.1632L37.4424 24.468L37.7298 25.3255L36.9311 25.8505L36.8746 26.5585L37.4794 26.934L37.1598 28.0007L35.665 27.654L35.3872 28.1648L34.4439 28.4148L33.963 28.7713L33.458 28.4811L33.069 28.868L33.3842 29.7157L33.069 30.5928L34.1184 31.1981L34.6535 32.473L34.5096 33.1397L35.2562 33.562L34.7471 34.3396L33.3439 34.9466L31.792 34.9406L31.035 35.3378L30.7199 35.9296L30.7612 36.7762L31.5959 37.3202L32.041 37.944L31.7539 39.2335L31.3383 38.9319L30.4259 39.1998L30.3863 39.7019L29.1462 40.4796L29.7042 41.7913L30.315 42.1027L31.3627 41.9478L31.6312 42.7983L31.7892 44.1742L31.5481 44.4247L30.5188 43.3819L30.5498 44.1465L29.8319 44.0155L28.9287 44.5975L28.5278 43.9704L27.8122 43.34L26.5003 42.9803L26.5878 43.9237L26.0178 44.9371L24.9868 44.5627L24.05 44.6187L23.1404 45.7799L22.6856 45.656L21.5585 45.875L21.026 45.4669L19.9217 45.4876L19.4854 45.2843L18.0997 45.5827L17.4276 44.7371L16.7793 44.986L16.5326 44.3959L15.5925 43.821L14.6981 43.9883L14.717 44.8594L12.9699 44.21L12.663 43.6395L11.4816 42.8412L10.2557 42.4402L9.88293 42.9917L10.3925 43.3906L10.6236 43.9677L8.80915 44.2041L7.70701 43.8432L5.80074 43.6139L5.35746 43.2352L4.21619 43.1189L3.73643 43.6009L2.49631 43.384L1.68621 43.0292L1.53182 42.5081L0 41.7136Z" fill="#F2F2F2" stroke="#07122B" mask="url(#path-1-inside-1_81_168)"/>
</svg>
