<svg width="63" height="69" viewBox="0 0 63 69" fill="none" xmlns="http://www.w3.org/2000/svg">
<mask id="path-1-inside-1_81_127" fill="white">
<path d="M1.63828 3.74027L2.29864 3.14471L3.34191 3.08276L4.24173 2.72302L4.79064 1.9291L6.16923 2.34589L6.81532 3.25338L7.1969 2.51217L6.9843 2.04539L7.67716 1.07052L8.78312 0.57438L9.75143 0.964009L10.1161 1.327L11.5028 1.38623L12.2229 1.14985L12.1711 0.345061L12.8406 0L13.5074 0.660241L15.1497 1.17322L15.4719 1.89323L15.1154 2.46327L16.2256 3.59628L17.2395 3.77506L17.451 4.56952L18.567 4.63092L18.9909 4.97001L18.6921 6.77304L19.0291 7.55174L18.5568 7.73921L17.8715 8.8369L18.4649 8.99883L18.709 9.57757L18.7725 10.9828L18.947 11.5045L19.542 11.4273L19.7647 12.3658L19.1148 12.5424L19.3752 13.445L20.048 13.783L20.6158 14.6508L21.0537 14.1145L21.402 14.5161L21.1614 16.2696L21.6564 17.3228L22.1487 17.6379L22.1602 18.9704L21.4831 19.429L20.5022 20.4734L20.468 21.3097L21.3798 21.5173L22.1851 22.4129L21.7146 23.0601L20.4728 23.6969L20.9857 24.3539L20.8745 24.7837L21.339 25.4087L21.1309 25.7499L18.6203 25.6755L18.3747 26.6607L19.0546 27.3622L18.778 27.8997L19.3475 28.1757L19.6577 29.2011L20.4169 29.3473L21.2124 29.8445L21.7118 29.7304L21.8444 30.4303L22.8149 31.084L22.8612 33.1533L23.861 32.887L23.7567 33.4424L24.1648 33.9L25.3054 33.5609L26.0298 35.4976L26.6764 35.5731L26.9508 34.9884L27.5649 35.4373L29.0418 35.2128L29.4712 35.3802L30.1672 36.1361L31.1567 35.5633L31.7692 35.8769L32.2453 36.4605L33.1876 37.0186L33.1973 37.6321L32.3279 38.1695L32.6675 39.384L32.0343 39.4889L32.2093 40.1095L31.6486 40.3008L32.3403 41.0914L33.0305 40.9349L33.6716 41.1593L33.1788 41.8728L34.8074 43.9003L35.7003 44.4388L37.2152 43.7443L37.8651 44.9453L39.0618 44.8817L39.704 45.4158L40.8626 45.8935L41.8896 45.4773L41.9516 45.8604L42.6091 46.7331L43.0808 46.989L43.2357 47.7531L44.2741 47.9172L44.63 48.3801L45.425 48.178L45.8961 48.76L46.1608 49.8397L46.6804 50.1223L49.1979 50.5239L49.3246 51.3042L50.013 51.8292L51.1971 51.5814L51.9443 51.7716L52.4002 52.916L53.0274 53.0877L53.7854 52.8084L54.7706 53.0529L55.0802 52.297L55.4466 52.2253L55.9884 53.1616L56.5724 53.7452L57.4882 53.4833L58.5706 53.661L57.9001 54.3565L58.8663 55.3809L59.283 55.3097L59.9644 56.8758L60.722 57.2225L60.9611 57.748L60.3926 58.4739L61.0888 58.9326L62.5566 59.0157L61.4697 59.0565L60.4286 59.8341L58.883 60.2819L58.3233 60.8209L57.618 60.8247L56.7383 61.3578L55.2814 63.1842L54.0245 64.3536L53.5115 64.4253L53.0887 63.751L51.6916 64.3944L51.4639 65.0937L50.9612 65.36L49.975 65.1894L49.412 65.379L49.3583 64.6905L48.4127 64.6813L47.4547 64.0694L46.9374 64.6058L45.0479 63.4548L44.5892 62.5381L44.6904 61.7741L44.1388 61.2757L42.6841 61.9784L42.3401 62.9244L42.0614 63.063L42.6776 64.3601L42.296 64.4813L40.8821 63.5733L39.5324 64.5492L38.5711 64.7237L37.9978 64.3487L36.6936 64.9764L36.3968 65.7105L35.3194 65.6246L35.6273 64.8536L35.1862 64.6481L34.2117 65.1084L33.401 65.0693L32.4919 64.6884L32.1372 63.4206L31.0975 63.8776L30.7698 64.9769L29.8048 65.3893L29.1657 65.2372L28.1958 65.5741L27.8279 65.0084L26.6883 64.8068L26.7556 66.2936L26.0389 67.3777L25.2603 67.8613L24.331 66.28L23.9109 66.6435L24.0925 67.3462L23.5643 67.6048L23.1791 67.2358L22.7302 67.5298L21.6461 67.5706L21.2983 67.3809L20.4473 68.17L19.6587 68.0787L19.5561 67.1402L19.1437 66.6071L19.4778 65.9909L19.0878 65.2687L18.4883 65.6746L17.7465 64.2509L17.2901 65.028L16.5946 65.1301L15.8185 64.8193L15.9469 64.4503L17.4488 62.6277L16.9858 62.3501L17.1281 61.3812L17.6075 60.8812L17.3999 60.1444L16.3662 59.8031L16.0886 59.4005L15.4936 59.3847L14.6328 59.9824L14.184 59.8727L13.2418 60.6106L12.4988 59.9699L12.369 58.4071L12.9205 57.4985L11.8104 56.8606L11.23 56.8345L10.6584 56.3345L10.5768 55.2831L10.804 54.644L11.3985 54.5179L12.0076 53.8898L13.4418 53.7919L13.9096 52.7817L13.5139 52.6046L12.4897 53.148L12.3391 52.4209L11.7376 51.0602L11.7799 50.2071L12.2272 48.8757L12.4814 48.5671L11.9816 47.8405L10.7947 46.7983L10.6045 46.1386L11.035 45.6789L11.4419 44.7013L12.5967 43.5857L12.2353 42.9618L12.6434 42.7417L13.1277 41.2169L12.4842 38.9748L13.4325 38.3537L12.5651 37.6223L11.9978 36.2241L12.994 36.0274L13.5852 34.9243L15.0681 34.9167L15.6457 34.0961L14.9545 33.3962L13.8129 32.611L14.3834 31.7785L14.3198 31.3568L14.9077 29.9928L15.7583 29.5348L15.2757 29.0229L14.8931 28.1844L13.9709 28.1811L14.1301 27.4225L14.6334 26.7172L14.4416 25.5787L13.2058 25.4793L12.7723 25.8945L12.1739 25.5125L11.831 24.799L12.3033 24.2762L12.2973 23.2242L11.7315 23.0052L12.099 22.2498L12.5152 20.7392L11.0138 20.8158L10.9181 19.4165L11.5288 19.009L10.8615 17.8792L11.2083 17.3429L11.0882 16.7261L12.0011 16.0631L12.3718 16.1131L12.6456 14.7149L12.4315 14.2215L11.3317 14.353L10.8338 13.1842L11.4453 12.7369L11.5348 11.8534L10.8856 11.217L10.2453 9.93947L9.61445 9.61452L9.81494 8.33805L8.11629 7.56587L7.27501 7.34796L6.60239 8.0946L4.65913 8.21633L3.93808 8.80266L2.49963 9.00373L2.47293 9.8585L2.01606 10.2519L1.15852 9.02873L1.84044 9.0673L2.69847 8.7418L3.00228 8.0082L1.98455 7.84355L2.03927 6.7839L1.49102 6.46004L1.65188 5.83566L1.40794 5.30203L2.08338 3.90221L1.63828 3.74027ZM0 4.37987L0.596674 3.3751L1.41822 4.14185L1.096 4.46301L0 4.37987Z"/>
</mask>
<path d="M1.63828 3.74027L2.29864 3.14471L3.34191 3.08276L4.24173 2.72302L4.79064 1.9291L6.16923 2.34589L6.81532 3.25338L7.1969 2.51217L6.9843 2.04539L7.67716 1.07052L8.78312 0.57438L9.75143 0.964009L10.1161 1.327L11.5028 1.38623L12.2229 1.14985L12.1711 0.345061L12.8406 0L13.5074 0.660241L15.1497 1.17322L15.4719 1.89323L15.1154 2.46327L16.2256 3.59628L17.2395 3.77506L17.451 4.56952L18.567 4.63092L18.9909 4.97001L18.6921 6.77304L19.0291 7.55174L18.5568 7.73921L17.8715 8.8369L18.4649 8.99883L18.709 9.57757L18.7725 10.9828L18.947 11.5045L19.542 11.4273L19.7647 12.3658L19.1148 12.5424L19.3752 13.445L20.048 13.783L20.6158 14.6508L21.0537 14.1145L21.402 14.5161L21.1614 16.2696L21.6564 17.3228L22.1487 17.6379L22.1602 18.9704L21.4831 19.429L20.5022 20.4734L20.468 21.3097L21.3798 21.5173L22.1851 22.4129L21.7146 23.0601L20.4728 23.6969L20.9857 24.3539L20.8745 24.7837L21.339 25.4087L21.1309 25.7499L18.6203 25.6755L18.3747 26.6607L19.0546 27.3622L18.778 27.8997L19.3475 28.1757L19.6577 29.2011L20.4169 29.3473L21.2124 29.8445L21.7118 29.7304L21.8444 30.4303L22.8149 31.084L22.8612 33.1533L23.861 32.887L23.7567 33.4424L24.1648 33.9L25.3054 33.5609L26.0298 35.4976L26.6764 35.5731L26.9508 34.9884L27.5649 35.4373L29.0418 35.2128L29.4712 35.3802L30.1672 36.1361L31.1567 35.5633L31.7692 35.8769L32.2453 36.4605L33.1876 37.0186L33.1973 37.6321L32.3279 38.1695L32.6675 39.384L32.0343 39.4889L32.2093 40.1095L31.6486 40.3008L32.3403 41.0914L33.0305 40.9349L33.6716 41.1593L33.1788 41.8728L34.8074 43.9003L35.7003 44.4388L37.2152 43.7443L37.8651 44.9453L39.0618 44.8817L39.704 45.4158L40.8626 45.8935L41.8896 45.4773L41.9516 45.8604L42.6091 46.7331L43.0808 46.989L43.2357 47.7531L44.2741 47.9172L44.63 48.3801L45.425 48.178L45.8961 48.76L46.1608 49.8397L46.6804 50.1223L49.1979 50.5239L49.3246 51.3042L50.013 51.8292L51.1971 51.5814L51.9443 51.7716L52.4002 52.916L53.0274 53.0877L53.7854 52.8084L54.7706 53.0529L55.0802 52.297L55.4466 52.2253L55.9884 53.1616L56.5724 53.7452L57.4882 53.4833L58.5706 53.661L57.9001 54.3565L58.8663 55.3809L59.283 55.3097L59.9644 56.8758L60.722 57.2225L60.9611 57.748L60.3926 58.4739L61.0888 58.9326L62.5566 59.0157L61.4697 59.0565L60.4286 59.8341L58.883 60.2819L58.3233 60.8209L57.618 60.8247L56.7383 61.3578L55.2814 63.1842L54.0245 64.3536L53.5115 64.4253L53.0887 63.751L51.6916 64.3944L51.4639 65.0937L50.9612 65.36L49.975 65.1894L49.412 65.379L49.3583 64.6905L48.4127 64.6813L47.4547 64.0694L46.9374 64.6058L45.0479 63.4548L44.5892 62.5381L44.6904 61.7741L44.1388 61.2757L42.6841 61.9784L42.3401 62.9244L42.0614 63.063L42.6776 64.3601L42.296 64.4813L40.8821 63.5733L39.5324 64.5492L38.5711 64.7237L37.9978 64.3487L36.6936 64.9764L36.3968 65.7105L35.3194 65.6246L35.6273 64.8536L35.1862 64.6481L34.2117 65.1084L33.401 65.0693L32.4919 64.6884L32.1372 63.4206L31.0975 63.8776L30.7698 64.9769L29.8048 65.3893L29.1657 65.2372L28.1958 65.5741L27.8279 65.0084L26.6883 64.8068L26.7556 66.2936L26.0389 67.3777L25.2603 67.8613L24.331 66.28L23.9109 66.6435L24.0925 67.3462L23.5643 67.6048L23.1791 67.2358L22.7302 67.5298L21.6461 67.5706L21.2983 67.3809L20.4473 68.17L19.6587 68.0787L19.5561 67.1402L19.1437 66.6071L19.4778 65.9909L19.0878 65.2687L18.4883 65.6746L17.7465 64.2509L17.2901 65.028L16.5946 65.1301L15.8185 64.8193L15.9469 64.4503L17.4488 62.6277L16.9858 62.3501L17.1281 61.3812L17.6075 60.8812L17.3999 60.1444L16.3662 59.8031L16.0886 59.4005L15.4936 59.3847L14.6328 59.9824L14.184 59.8727L13.2418 60.6106L12.4988 59.9699L12.369 58.4071L12.9205 57.4985L11.8104 56.8606L11.23 56.8345L10.6584 56.3345L10.5768 55.2831L10.804 54.644L11.3985 54.5179L12.0076 53.8898L13.4418 53.7919L13.9096 52.7817L13.5139 52.6046L12.4897 53.148L12.3391 52.4209L11.7376 51.0602L11.7799 50.2071L12.2272 48.8757L12.4814 48.5671L11.9816 47.8405L10.7947 46.7983L10.6045 46.1386L11.035 45.6789L11.4419 44.7013L12.5967 43.5857L12.2353 42.9618L12.6434 42.7417L13.1277 41.2169L12.4842 38.9748L13.4325 38.3537L12.5651 37.6223L11.9978 36.2241L12.994 36.0274L13.5852 34.9243L15.0681 34.9167L15.6457 34.0961L14.9545 33.3962L13.8129 32.611L14.3834 31.7785L14.3198 31.3568L14.9077 29.9928L15.7583 29.5348L15.2757 29.0229L14.8931 28.1844L13.9709 28.1811L14.1301 27.4225L14.6334 26.7172L14.4416 25.5787L13.2058 25.4793L12.7723 25.8945L12.1739 25.5125L11.831 24.799L12.3033 24.2762L12.2973 23.2242L11.7315 23.0052L12.099 22.2498L12.5152 20.7392L11.0138 20.8158L10.9181 19.4165L11.5288 19.009L10.8615 17.8792L11.2083 17.3429L11.0882 16.7261L12.0011 16.0631L12.3718 16.1131L12.6456 14.7149L12.4315 14.2215L11.3317 14.353L10.8338 13.1842L11.4453 12.7369L11.5348 11.8534L10.8856 11.217L10.2453 9.93947L9.61445 9.61452L9.81494 8.33805L8.11629 7.56587L7.27501 7.34796L6.60239 8.0946L4.65913 8.21633L3.93808 8.80266L2.49963 9.00373L2.47293 9.8585L2.01606 10.2519L1.15852 9.02873L1.84044 9.0673L2.69847 8.7418L3.00228 8.0082L1.98455 7.84355L2.03927 6.7839L1.49102 6.46004L1.65188 5.83566L1.40794 5.30203L2.08338 3.90221L1.63828 3.74027ZM0 4.37987L0.596674 3.3751L1.41822 4.14185L1.096 4.46301L0 4.37987Z" fill="#F2F2F2" stroke="#07122B" mask="url(#path-1-inside-1_81_127)"/>
</svg>
