<svg width="36" height="68" viewBox="0 0 36 68" fill="none" xmlns="http://www.w3.org/2000/svg">
<mask id="path-1-inside-1_81_177" fill="white">
<path d="M2.28222 21.5353L2.78918 20.9326L4.07324 20.2735L3.96959 20.0077L5.09876 19.4051L5.98498 19.4334L5.91981 18.7851L5.38018 17.5564L5.49162 17.0608L5.06725 15.9045L5.46824 15.6045L6.21549 14.5356L6.74583 14.0455L7.84515 13.5379L7.85212 12.7668L7.26738 12.3875L7.67832 11.5018L8.17384 11.4186L7.80005 9.99708L8.21795 9.05427L7.60867 8.94015L7.15545 8.31143L7.18861 7.54468L6.25894 6.58719L6.9843 6.13562L7.67617 4.89068L7.35014 4.50105L7.64947 3.42999L8.29175 3.12731L8.0488 1.91769L8.46786 1.35037L9.62755 1.71881L10.1192 3.10504L10.8914 2.69802L11.4902 2.78497L11.7799 2.39262L12.7938 2.71487L12.7564 3.12731L13.4797 3.48162L13.6504 4.15653L14.4154 4.02991L14.5991 3.62834L15.6132 3.2773L15.8283 2.44697L16.814 1.48406L17.9933 1.40906L18.1563 0.661878L18.6248 0L19.7669 1.05585L20.2305 2.67139L20.9461 2.8366L20.3945 3.76473L21.2614 4.42878L21.3216 5.16945L20.6532 5.66829L21.2726 6.14866L21.4411 6.7926L21.8862 6.95454L21.2108 8.35436L21.4547 8.88798L21.2939 9.51236L21.8421 9.83623L21.7874 10.8959L22.8051 11.0605L22.5013 11.7941L21.6433 12.1196L20.9614 12.0811L21.8189 13.3043L22.2758 12.9108L22.3025 12.0561L23.7409 11.855L24.462 11.2687L26.4052 11.1469L27.0779 10.4003L27.9191 10.6182L29.6178 11.3904L29.4173 12.6668L30.0481 12.9918L30.6884 14.2693L31.3377 14.9057L31.2481 15.7893L30.6367 16.2365L31.1345 17.4054L32.2343 17.2739L32.4484 17.7673L32.1746 19.1655L31.804 19.1155L30.8911 19.7784L31.0111 20.3952L30.6644 20.9315L31.3317 22.0613L30.7209 22.4688L30.8166 23.8681L32.3181 23.7915L31.9018 25.3022L31.5343 26.0575L32.1002 26.2765L32.1061 27.3285L31.6338 27.8513L31.9768 28.5648L32.5751 28.9468L33.0086 28.5316L34.2444 28.6311L34.4363 29.7695L33.933 30.4749L33.7738 31.2335L34.696 31.2367L35.0786 32.0752L35.5611 32.5871L34.7106 33.0452L34.1227 34.4091L34.1862 34.8308L33.6157 35.6633L34.7573 36.4485L35.4485 37.1485L34.8709 37.969L33.388 37.9766L32.7968 39.0797L31.8007 39.2764L32.368 40.6746L33.2353 41.4061L32.2871 42.0272L32.9305 44.2693L32.4463 45.7941L32.0381 46.0142L32.3995 46.638L31.2448 47.7536L30.8378 48.7312L30.4073 49.1909L30.5975 49.8506L31.7844 50.8929L32.2842 51.6194L32.03 51.9281L31.5828 53.2594L31.5405 54.1126L32.142 55.4733L32.2925 56.2003L33.3167 55.6569L33.7124 55.8341L33.2446 56.8443L31.8105 56.9421L31.2013 57.5703L30.6068 57.6963L30.3796 58.3354L30.4612 59.3869L31.0329 59.8868L31.6133 59.9129L32.7234 60.5509L32.1718 61.4594L32.3017 63.0223L31.942 63.2918L31.3741 64.7063L30.6042 65.0394L29.7183 64.8661L29.2435 64.459L28.2404 64.5797L28.218 65.1215L27.3735 65.5067L26.7959 66.1925L26.4948 66.023L25.5059 66.2159L24.394 66.1686L24.1403 66.4751L23.1176 66.6387L22.891 67.563L22.5905 67.8423L21.4227 67.2125L20.5353 67.0006L19.1257 65.7371L19.0806 64.7715L18.772 64.2792L18.1453 64.4302L16.9477 63.7597L16.1744 62.5756L15.3621 61.9365L14.648 61.9518L12.895 61.3991L12.4575 61.0448L11.9081 61.2366L11.3522 60.2319L10.4703 59.6868L10.2481 59.1951L9.56669 59.5113L8.47218 58.1604L8.58246 57.6762L6.70504 57.4936L6.34086 56.6313L6.03506 55.3841L5.3107 56.5144L4.23028 56.5785L3.90591 56.0547L4.3064 55.3917L3.89895 54.6783L3.89231 53.8403L4.37108 53.3752L4.35914 52.8078L3.66744 52.5568L4.33625 51.7466L4.6059 51.0706L4.37224 50.4168L4.43575 49.3713L3.38204 49.1844L3.3104 48.7573L2.25668 47.846L1.64641 46.5934L0.0134326 46.1935L0.301985 45.5898L0 45.1262L0.952556 44.1209L1.73613 43.8047L1.73994 43.3765L0.966154 42.2478L1.30894 40.9708L0.896504 40.6154L1.63563 39.7666L1.74309 39.2395L2.27675 38.7472L2.58819 39.0243L4.68517 38.2815L5.22695 37.4381L5.55464 36.3198L5.13408 36.0252L4.37058 36.0633L4.26677 35.2634L5.42745 35.2416L5.27256 34.5385L5.40788 33.4957L4.54769 32.8947L3.14307 33.3093L4.21022 31.7964L3.99662 28.9626L3.71901 28.2273L3.06148 27.1824L2.79631 26.1482L2.32517 25.044L1.89317 24.4849L2.27459 23.9849L3.27391 23.6431L3.84339 23.0448L3.28751 22.5552L3.02135 21.5863L2.28222 21.5353ZM19.8028 7.43219L20.8989 7.51534L21.2211 7.19418L20.3995 6.42743L19.8028 7.43219Z"/>
</mask>
<path d="M2.28222 21.5353L2.78918 20.9326L4.07324 20.2735L3.96959 20.0077L5.09876 19.4051L5.98498 19.4334L5.91981 18.7851L5.38018 17.5564L5.49162 17.0608L5.06725 15.9045L5.46824 15.6045L6.21549 14.5356L6.74583 14.0455L7.84515 13.5379L7.85212 12.7668L7.26738 12.3875L7.67832 11.5018L8.17384 11.4186L7.80005 9.99708L8.21795 9.05427L7.60867 8.94015L7.15545 8.31143L7.18861 7.54468L6.25894 6.58719L6.9843 6.13562L7.67617 4.89068L7.35014 4.50105L7.64947 3.42999L8.29175 3.12731L8.0488 1.91769L8.46786 1.35037L9.62755 1.71881L10.1192 3.10504L10.8914 2.69802L11.4902 2.78497L11.7799 2.39262L12.7938 2.71487L12.7564 3.12731L13.4797 3.48162L13.6504 4.15653L14.4154 4.02991L14.5991 3.62834L15.6132 3.2773L15.8283 2.44697L16.814 1.48406L17.9933 1.40906L18.1563 0.661878L18.6248 0L19.7669 1.05585L20.2305 2.67139L20.9461 2.8366L20.3945 3.76473L21.2614 4.42878L21.3216 5.16945L20.6532 5.66829L21.2726 6.14866L21.4411 6.7926L21.8862 6.95454L21.2108 8.35436L21.4547 8.88798L21.2939 9.51236L21.8421 9.83623L21.7874 10.8959L22.8051 11.0605L22.5013 11.7941L21.6433 12.1196L20.9614 12.0811L21.8189 13.3043L22.2758 12.9108L22.3025 12.0561L23.7409 11.855L24.462 11.2687L26.4052 11.1469L27.0779 10.4003L27.9191 10.6182L29.6178 11.3904L29.4173 12.6668L30.0481 12.9918L30.6884 14.2693L31.3377 14.9057L31.2481 15.7893L30.6367 16.2365L31.1345 17.4054L32.2343 17.2739L32.4484 17.7673L32.1746 19.1655L31.804 19.1155L30.8911 19.7784L31.0111 20.3952L30.6644 20.9315L31.3317 22.0613L30.7209 22.4688L30.8166 23.8681L32.3181 23.7915L31.9018 25.3022L31.5343 26.0575L32.1002 26.2765L32.1061 27.3285L31.6338 27.8513L31.9768 28.5648L32.5751 28.9468L33.0086 28.5316L34.2444 28.6311L34.4363 29.7695L33.933 30.4749L33.7738 31.2335L34.696 31.2367L35.0786 32.0752L35.5611 32.5871L34.7106 33.0452L34.1227 34.4091L34.1862 34.8308L33.6157 35.6633L34.7573 36.4485L35.4485 37.1485L34.8709 37.969L33.388 37.9766L32.7968 39.0797L31.8007 39.2764L32.368 40.6746L33.2353 41.4061L32.2871 42.0272L32.9305 44.2693L32.4463 45.7941L32.0381 46.0142L32.3995 46.638L31.2448 47.7536L30.8378 48.7312L30.4073 49.1909L30.5975 49.8506L31.7844 50.8929L32.2842 51.6194L32.03 51.9281L31.5828 53.2594L31.5405 54.1126L32.142 55.4733L32.2925 56.2003L33.3167 55.6569L33.7124 55.8341L33.2446 56.8443L31.8105 56.9421L31.2013 57.5703L30.6068 57.6963L30.3796 58.3354L30.4612 59.3869L31.0329 59.8868L31.6133 59.9129L32.7234 60.5509L32.1718 61.4594L32.3017 63.0223L31.942 63.2918L31.3741 64.7063L30.6042 65.0394L29.7183 64.8661L29.2435 64.459L28.2404 64.5797L28.218 65.1215L27.3735 65.5067L26.7959 66.1925L26.4948 66.023L25.5059 66.2159L24.394 66.1686L24.1403 66.4751L23.1176 66.6387L22.891 67.563L22.5905 67.8423L21.4227 67.2125L20.5353 67.0006L19.1257 65.7371L19.0806 64.7715L18.772 64.2792L18.1453 64.4302L16.9477 63.7597L16.1744 62.5756L15.3621 61.9365L14.648 61.9518L12.895 61.3991L12.4575 61.0448L11.9081 61.2366L11.3522 60.2319L10.4703 59.6868L10.2481 59.1951L9.56669 59.5113L8.47218 58.1604L8.58246 57.6762L6.70504 57.4936L6.34086 56.6313L6.03506 55.3841L5.3107 56.5144L4.23028 56.5785L3.90591 56.0547L4.3064 55.3917L3.89895 54.6783L3.89231 53.8403L4.37108 53.3752L4.35914 52.8078L3.66744 52.5568L4.33625 51.7466L4.6059 51.0706L4.37224 50.4168L4.43575 49.3713L3.38204 49.1844L3.3104 48.7573L2.25668 47.846L1.64641 46.5934L0.0134326 46.1935L0.301985 45.5898L0 45.1262L0.952556 44.1209L1.73613 43.8047L1.73994 43.3765L0.966154 42.2478L1.30894 40.9708L0.896504 40.6154L1.63563 39.7666L1.74309 39.2395L2.27675 38.7472L2.58819 39.0243L4.68517 38.2815L5.22695 37.4381L5.55464 36.3198L5.13408 36.0252L4.37058 36.0633L4.26677 35.2634L5.42745 35.2416L5.27256 34.5385L5.40788 33.4957L4.54769 32.8947L3.14307 33.3093L4.21022 31.7964L3.99662 28.9626L3.71901 28.2273L3.06148 27.1824L2.79631 26.1482L2.32517 25.044L1.89317 24.4849L2.27459 23.9849L3.27391 23.6431L3.84339 23.0448L3.28751 22.5552L3.02135 21.5863L2.28222 21.5353ZM19.8028 7.43219L20.8989 7.51534L21.2211 7.19418L20.3995 6.42743L19.8028 7.43219Z" fill="#F2F2F2" stroke="#07122B" mask="url(#path-1-inside-1_81_177)"/>
</svg>
