<svg width="63" height="51" viewBox="0 0 63 51" fill="none" xmlns="http://www.w3.org/2000/svg">
<mask id="path-1-inside-1_81_184" fill="white">
<path d="M6.26491 1.34113L6.58713 1.66283L7.81199 1.73619L9.50682 1.3357L10.398 1.74542L10.9257 1.42155L11.6 1.99485L10.9245 2.63879L10.9942 3.02243L11.706 3.5278L12.1859 2.98276L12.7053 3.18274L14.454 2.14048L15.4502 3.01863L16.4228 3.38598L16.6619 3.79788L18.2035 3.2387L18.8088 3.38869L20.0299 2.50348L20.6206 2.81757L21.3673 2.85452L21.9504 2.54587L22.2813 1.86117L22.0249 1.5123L22.2693 0.549929L23.0605 0.118458L23.6622 0.447226L24.2522 0L25.7482 0.348326L26.5835 1.2895L26.6301 2.03995L27.2594 2.17581L27.5349 2.78279L28.4485 2.22199L31.0844 2.50837L31.4188 3.15774L32.8756 3.84189L33.7797 3.47346L34.8411 4.35596L35.066 5.48951L35.8752 6.24267L36.123 5.22975L38.013 5.39115L38.1944 4.9298L39.3279 4.26357L39.9062 5.0113L39.7687 5.90468L39.9876 6.16224L39.5508 7.06104L39.1904 8.25817L39.3448 9.10969L39.8312 9.51615L40.8055 9.69386L42.2521 8.42607L42.6634 7.69412L43.634 7.22406L43.5225 6.19756L44.0534 5.90847L45.0016 4.22934L44.8751 3.76472L44.223 2.96809L45.0773 2.78224L46.0777 2.98331L47.2379 2.57738L47.3737 2.06223L48.5084 2.05951L50.1206 3.94025L50.1037 4.632L50.4608 5.23736L50.9727 4.69286L51.9634 4.90969L52.1078 4.25651L52.6035 4.04729L53.3566 4.24184L54.6031 5.72696L54.7602 6.95344L54.4478 7.58272L54.5053 8.11905L55.3015 8.10765L55.3726 7.42893L55.8547 7.13548L57.0116 7.13385L57.7359 7.38925L57.6756 8.09134L56.8051 8.7668L54.9526 8.71191L53.6494 10.1297L53.7847 11.1035L53.3566 11.4632L53.5119 12.0995L54.5759 11.7213L55.3884 11.6691L57.0344 12.2294L57.561 12.7271L58.6162 12.4766L60.2584 14.5144L60.3769 15.2122L61.0573 16.0898L60.784 16.8956L60.0487 17.1771L59.6591 18.1922L60.415 19.2046L60.0503 19.3812L60.1797 20.1637L60.5671 20.1746L61.9447 19.6246L62.1805 20.5968L62.6239 20.8228L62.2098 21.57L61.3518 21.9439L61.21 23.1997L59.2085 24.6816L60.7845 24.63L60.8551 25.3348L61.6654 25.263L61.7941 26.0026L59.9764 26.0309L59.8172 26.5009L59.094 26.8634L59.6052 27.5665L59.4231 29.018L60.0861 29.3332L60.1584 29.8282L59.7384 30.8085L60.453 31.0753L60.3823 31.8296L60.848 32.5903L60.7763 33.3614L60.1487 33.7684L60.3878 35.1302L60.0883 36.4551L60.3031 37.1647L58.1918 37.8081L58.2593 39.1993L57.8343 39.546L57.2398 39.5253L57.0218 38.3265L56.2709 38.4537L54.9396 39.352L54.2934 38.2706L53.5947 38.495L53.0236 38.1733L52.7436 39.4666L52.3959 39.7769L52.4546 40.9083L51.8997 41.2566L50.9536 41.4832L50.3657 40.948L49.2055 41.4104L48.5822 41.1784L48.3356 40.254L47.2389 41.0572L47.0742 41.8478L46.2689 42.1983L45.4098 41.2066L45.9544 40.585L45.4391 39.6335L45.7549 39.1938L46.8661 39.6835L47.6518 39.0482L46.7694 38.3597L44.7751 37.5299L43.9116 37.7315L43.5297 38.3825L42.3113 38.0396L42.1559 37.0865L41.2103 37.0724L40.4007 37.324L40.4294 38.0956L39.5606 38.0157L39.4112 38.5026L38.7074 39.2058L37.5576 38.6749L36.8018 38.7178L36.0376 39.152L35.2058 39.227L34.7449 39.6128L33.9967 39.722L32.6038 39.0884L32.7272 38.3532L32.1241 37.5413L31.2605 36.9479L30.2922 36.6626L30.5562 35.7552L31.666 36.0421L32.8434 36.5714L33.7217 36.6224L34.9991 36.1486L35.1633 36.8327L36.2066 36.9392L36.9207 36.1567L38.026 34.0733L38.4992 34.1037L38.414 33.1859L38.6553 32.8561L38.4715 32.0774L38.0618 31.8426L37.4804 32.2523L38.3021 32.9446L37.8152 33.5147L36.9925 33.6141L36.0013 32.7474L35.1454 32.3214L34.4096 32.5594L34.0026 32.3154L32.3837 32.7496L31.3159 33.3397L30.9161 34.501L30.5732 34.0695L29.8271 34.314L29.7803 33.4832L29.2173 33.6331L28.9473 32.379L28.3012 33.2066L28.7729 33.6913L28.411 34.0543L28.6984 34.6651L29.7646 35.8649L28.3719 36.0312L27.7442 34.7352L26.8497 35.3449L26.378 34.188L25.983 34.9976L25.5804 34.6798L25.0043 35.1737L23.7942 35.4753L23.166 34.9743L23.3355 34.6363L22.2557 33.7549L22.2683 34.9351L22.5041 35.0705L22.1421 36.6692L22.4509 38.3581L22.7524 39.196L23.4698 39.9139L23.1872 40.4616L22.3199 40.3665L21.7182 39.9062L21.5982 38.5292L21.3819 37.7527L21.9189 36.9941L22.0982 36.3524L21.8841 34.621L21.1532 33.1962L19.7914 32.2127L19.3236 31.2372L16.8407 29.0837L16.4793 28.023L14.5062 27.5872L14.2926 26.2548L15.1915 26.1564L15.9691 24.8723L15.254 24.9777L14.8034 25.7086L14.1172 25.7771L13.9585 26.2895L13.1749 26.7884L13.2184 27.5774L12.6477 28.0225L11.3381 27.8198L10.4264 28.3186L8.63519 26.3634L8.45642 25.6331L7.4838 24.4023L7.47186 23.6339L7.83703 22.114L7.27236 21.7005L7.1712 20.6435L7.85544 20.3936L8.21132 20.8326L9.22971 21.1201L9.57747 20.6403L10.2111 20.581L10.5176 20.0648L10.4307 19.4105L11.4625 18.7965L12.2897 18.5443L11.9924 16.5593L12.832 15.6583L12.2897 14.6188L12.6358 13.9645L12.2119 13.4113L11.5534 13.3847L9.35856 14.2655L8.96238 12.9679L7.86356 12.8505L7.52393 12.2261L6.03672 12.055L5.48134 12.4169L5.09926 12.112L4.27058 12.6098L3.52548 12.4332L3.19299 11.242L2.67077 10.5644L2.68437 9.93621L2.17459 8.97872L2.22633 8.33153L1.17975 7.97994L1.21491 6.22092L0.401984 6.33776L0 5.38897L0.659028 4.90262L0.519893 4.38692L0.751398 3.69734L1.47643 3.26208L2.48437 3.1947L3.83311 2.32361L5.39428 1.78509L6.26491 1.34113ZM17.3438 46.0011L17.8367 45.6528L19.0355 45.5849L20.08 46.4195L21.3456 46.4793L21.6896 48.0383L22.9225 48.5529L23.561 49.0263L24.3484 48.9208L24.9859 49.3246L24.2033 50.7298L23.5855 50.8907L22.6748 50.4391L21.8139 50.5804L20.6576 49.8131L20.3397 50.1603L19.6387 50.0115L19.0138 50.3082L18.4279 49.8881L17.9145 49.1333L18.2921 48.4443L17.3744 47.0401L17.3438 46.0011ZM8.11298 30.9204L8.79821 30.6178L10.5877 31.1998L11.0197 31.1112L11.7277 31.6725L11.5045 32.4485L11.029 32.0094L10.0345 32.4409L9.17216 31.9622L8.11298 30.9204Z"/>
</mask>
<path d="M6.26491 1.34113L6.58713 1.66283L7.81199 1.73619L9.50682 1.3357L10.398 1.74542L10.9257 1.42155L11.6 1.99485L10.9245 2.63879L10.9942 3.02243L11.706 3.5278L12.1859 2.98276L12.7053 3.18274L14.454 2.14048L15.4502 3.01863L16.4228 3.38598L16.6619 3.79788L18.2035 3.2387L18.8088 3.38869L20.0299 2.50348L20.6206 2.81757L21.3673 2.85452L21.9504 2.54587L22.2813 1.86117L22.0249 1.5123L22.2693 0.549929L23.0605 0.118458L23.6622 0.447226L24.2522 0L25.7482 0.348326L26.5835 1.2895L26.6301 2.03995L27.2594 2.17581L27.5349 2.78279L28.4485 2.22199L31.0844 2.50837L31.4188 3.15774L32.8756 3.84189L33.7797 3.47346L34.8411 4.35596L35.066 5.48951L35.8752 6.24267L36.123 5.22975L38.013 5.39115L38.1944 4.9298L39.3279 4.26357L39.9062 5.0113L39.7687 5.90468L39.9876 6.16224L39.5508 7.06104L39.1904 8.25817L39.3448 9.10969L39.8312 9.51615L40.8055 9.69386L42.2521 8.42607L42.6634 7.69412L43.634 7.22406L43.5225 6.19756L44.0534 5.90847L45.0016 4.22934L44.8751 3.76472L44.223 2.96809L45.0773 2.78224L46.0777 2.98331L47.2379 2.57738L47.3737 2.06223L48.5084 2.05951L50.1206 3.94025L50.1037 4.632L50.4608 5.23736L50.9727 4.69286L51.9634 4.90969L52.1078 4.25651L52.6035 4.04729L53.3566 4.24184L54.6031 5.72696L54.7602 6.95344L54.4478 7.58272L54.5053 8.11905L55.3015 8.10765L55.3726 7.42893L55.8547 7.13548L57.0116 7.13385L57.7359 7.38925L57.6756 8.09134L56.8051 8.7668L54.9526 8.71191L53.6494 10.1297L53.7847 11.1035L53.3566 11.4632L53.5119 12.0995L54.5759 11.7213L55.3884 11.6691L57.0344 12.2294L57.561 12.7271L58.6162 12.4766L60.2584 14.5144L60.3769 15.2122L61.0573 16.0898L60.784 16.8956L60.0487 17.1771L59.6591 18.1922L60.415 19.2046L60.0503 19.3812L60.1797 20.1637L60.5671 20.1746L61.9447 19.6246L62.1805 20.5968L62.6239 20.8228L62.2098 21.57L61.3518 21.9439L61.21 23.1997L59.2085 24.6816L60.7845 24.63L60.8551 25.3348L61.6654 25.263L61.7941 26.0026L59.9764 26.0309L59.8172 26.5009L59.094 26.8634L59.6052 27.5665L59.4231 29.018L60.0861 29.3332L60.1584 29.8282L59.7384 30.8085L60.453 31.0753L60.3823 31.8296L60.848 32.5903L60.7763 33.3614L60.1487 33.7684L60.3878 35.1302L60.0883 36.4551L60.3031 37.1647L58.1918 37.8081L58.2593 39.1993L57.8343 39.546L57.2398 39.5253L57.0218 38.3265L56.2709 38.4537L54.9396 39.352L54.2934 38.2706L53.5947 38.495L53.0236 38.1733L52.7436 39.4666L52.3959 39.7769L52.4546 40.9083L51.8997 41.2566L50.9536 41.4832L50.3657 40.948L49.2055 41.4104L48.5822 41.1784L48.3356 40.254L47.2389 41.0572L47.0742 41.8478L46.2689 42.1983L45.4098 41.2066L45.9544 40.585L45.4391 39.6335L45.7549 39.1938L46.8661 39.6835L47.6518 39.0482L46.7694 38.3597L44.7751 37.5299L43.9116 37.7315L43.5297 38.3825L42.3113 38.0396L42.1559 37.0865L41.2103 37.0724L40.4007 37.324L40.4294 38.0956L39.5606 38.0157L39.4112 38.5026L38.7074 39.2058L37.5576 38.6749L36.8018 38.7178L36.0376 39.152L35.2058 39.227L34.7449 39.6128L33.9967 39.722L32.6038 39.0884L32.7272 38.3532L32.1241 37.5413L31.2605 36.9479L30.2922 36.6626L30.5562 35.7552L31.666 36.0421L32.8434 36.5714L33.7217 36.6224L34.9991 36.1486L35.1633 36.8327L36.2066 36.9392L36.9207 36.1567L38.026 34.0733L38.4992 34.1037L38.414 33.1859L38.6553 32.8561L38.4715 32.0774L38.0618 31.8426L37.4804 32.2523L38.3021 32.9446L37.8152 33.5147L36.9925 33.6141L36.0013 32.7474L35.1454 32.3214L34.4096 32.5594L34.0026 32.3154L32.3837 32.7496L31.3159 33.3397L30.9161 34.501L30.5732 34.0695L29.8271 34.314L29.7803 33.4832L29.2173 33.6331L28.9473 32.379L28.3012 33.2066L28.7729 33.6913L28.411 34.0543L28.6984 34.6651L29.7646 35.8649L28.3719 36.0312L27.7442 34.7352L26.8497 35.3449L26.378 34.188L25.983 34.9976L25.5804 34.6798L25.0043 35.1737L23.7942 35.4753L23.166 34.9743L23.3355 34.6363L22.2557 33.7549L22.2683 34.9351L22.5041 35.0705L22.1421 36.6692L22.4509 38.3581L22.7524 39.196L23.4698 39.9139L23.1872 40.4616L22.3199 40.3665L21.7182 39.9062L21.5982 38.5292L21.3819 37.7527L21.9189 36.9941L22.0982 36.3524L21.8841 34.621L21.1532 33.1962L19.7914 32.2127L19.3236 31.2372L16.8407 29.0837L16.4793 28.023L14.5062 27.5872L14.2926 26.2548L15.1915 26.1564L15.9691 24.8723L15.254 24.9777L14.8034 25.7086L14.1172 25.7771L13.9585 26.2895L13.1749 26.7884L13.2184 27.5774L12.6477 28.0225L11.3381 27.8198L10.4264 28.3186L8.63519 26.3634L8.45642 25.6331L7.4838 24.4023L7.47186 23.6339L7.83703 22.114L7.27236 21.7005L7.1712 20.6435L7.85544 20.3936L8.21132 20.8326L9.22971 21.1201L9.57747 20.6403L10.2111 20.581L10.5176 20.0648L10.4307 19.4105L11.4625 18.7965L12.2897 18.5443L11.9924 16.5593L12.832 15.6583L12.2897 14.6188L12.6358 13.9645L12.2119 13.4113L11.5534 13.3847L9.35856 14.2655L8.96238 12.9679L7.86356 12.8505L7.52393 12.2261L6.03672 12.055L5.48134 12.4169L5.09926 12.112L4.27058 12.6098L3.52548 12.4332L3.19299 11.242L2.67077 10.5644L2.68437 9.93621L2.17459 8.97872L2.22633 8.33153L1.17975 7.97994L1.21491 6.22092L0.401984 6.33776L0 5.38897L0.659028 4.90262L0.519893 4.38692L0.751398 3.69734L1.47643 3.26208L2.48437 3.1947L3.83311 2.32361L5.39428 1.78509L6.26491 1.34113ZM17.3438 46.0011L17.8367 45.6528L19.0355 45.5849L20.08 46.4195L21.3456 46.4793L21.6896 48.0383L22.9225 48.5529L23.561 49.0263L24.3484 48.9208L24.9859 49.3246L24.2033 50.7298L23.5855 50.8907L22.6748 50.4391L21.8139 50.5804L20.6576 49.8131L20.3397 50.1603L19.6387 50.0115L19.0138 50.3082L18.4279 49.8881L17.9145 49.1333L18.2921 48.4443L17.3744 47.0401L17.3438 46.0011ZM8.11298 30.9204L8.79821 30.6178L10.5877 31.1998L11.0197 31.1112L11.7277 31.6725L11.5045 32.4485L11.029 32.0094L10.0345 32.4409L9.17216 31.9622L8.11298 30.9204Z" fill="#F2F2F2" stroke="#07122B" mask="url(#path-1-inside-1_81_184)"/>
</svg>
