<svg width="65" height="56" viewBox="0 0 65 56" fill="none" xmlns="http://www.w3.org/2000/svg">
<mask id="path-1-inside-1_81_128" fill="white">
<path d="M0 0.768925L0.682079 0.471676L1.70843 0.530371L2.14922 0.917813L2.88768 1.07214L2.88122 2.31166L3.25119 3.36098L3.83924 3.05287L4.77273 3.13383L5.45531 3.54302L5.87271 2.63336L7.53554 2.61216L8.11148 2.25515L8.61413 1.58784L8.58809 1.15149L9.66022 0.960205L9.58791 0.492333L10.365 0L11.1312 0.280945L13.3885 0.0288035L14.2308 0.398864L14.5144 1.37048L15.1318 1.81498L15.7344 1.86607L16.2273 2.46056L16.9218 2.43936L17.3488 2.88224L18.0385 2.52847L18.9758 2.40459L19.6926 1.89323L20.1544 2.47142L20.9723 2.56869L21.864 3.33435L22.3156 3.405L23.266 4.24728L23.6149 4.24239L24.2708 4.87111L23.7263 5.75197L24.6844 6.92357L25.5918 7.19091L25.9021 8.55541L24.6887 8.75105L25.2381 9.94165L25.8717 10.2144L25.6293 10.6622L26.577 11.742L26.9417 11.755L28.2926 12.9184L28.5311 13.5357L28.2616 14.1009L29.375 14.8611L29.1561 15.2067L29.549 16.6756L30.4412 16.356L30.8786 17.2217L30.1347 18.2107L30.47 18.9546L31.1383 19.6083L32.6741 19.3399L34.663 20.3066L35.1499 19.9746L35.0439 19.0801L35.6862 18.7481L35.3199 17.5401L34.7976 16.8065L35.5602 16.28L36.817 17.0619L37.5099 16.7136L37.7784 16.2859L38.5608 16.6158L39.2916 17.3836L39.8661 17.0304L40.7388 17.8727L42.0664 18.0428L41.8043 19.2698L41.9587 19.9887L42.507 21.1603L42.5489 22.3439L43.2395 22.3819L43.4488 21.8097L44.0939 21.3472L43.8177 20.2365L44.6579 20.0724L45.4252 20.8321L45.7708 21.5858L46.6532 21.9434L47.6248 21.4864L48.0231 21.9727L49.8044 21.5048L50.5724 21.9135L51.2462 21.8656L51.7836 22.2227L52.3362 21.1005L52.9393 20.6609L54.1121 20.7147L54.3594 19.6773L54.2501 19.1318L56.9855 18.4943L57.0144 19.2241L57.724 19.6562L57.9963 19.3959L58.9827 19.285L59.0565 20.0887L58.8331 20.8131L59.408 21.9298L59.7792 22.0145L60.258 23.3573L61.7763 24.3371L62.9087 24.1349L64.0249 24.7283L64.1657 25.7749L64.3216 26.0499L63.2597 27.5133L63.2967 28.1262L62.4105 29.4179L62.6034 29.6907L62.1327 30.5863L62.0778 31.2318L61.6649 31.4236L61.0986 32.4713L60.5405 32.6067L60.2966 32.1344L59.1989 31.9258L58.6218 31.5546L58.4273 30.9813L57.5595 30.8862L55.5341 31.221L54.8609 31.5617L53.9964 31.2307L52.797 31.9926L52.0699 31.2514L51.4634 31.2601L51.583 30.3021L50.9125 30.1722L49.4643 29.4994L48.5095 29.9363L47.9253 29.0718L47.1983 28.4604L45.5703 28.5555L45.2517 27.7872L45.1648 26.721L44.8078 26.4781L44.4094 24.5381L43.2667 25.1212L43.6683 25.9939L42.7168 27.209L42.7891 28.1779L41.9027 29.544L42.0907 30.1303L41.7642 30.5379L41.9642 31.2932L40.3725 31.0954L40.046 32.455L39.2548 33.131L39.4742 34.1776L39.1042 34.7738L40.3622 34.9188L41.7735 35.5394L42.3402 35.9513L42.8602 36.7338L43.7459 36.4475L44.4519 36.9447L43.9242 37.3941L42.6945 37.4131L42.7848 38.1684L42.513 38.889L42.7896 39.2699L43.5406 39.1955L44.0726 39.6454L43.2504 40.0622L43.9514 40.4888L45.4452 39.9573L45.3431 39.3585L46.2207 38.808L45.9918 38.1396L46.287 37.5326L47.6601 37.2354L48.0222 38.4434L49.1795 38.4619L50.3153 39.8193L51.3586 40.1502L51.4684 40.7529L52.2607 42.1456L51.6846 42.6228L51.3526 43.8009L50.7879 44.8148L50.507 45.7332L49.7067 46.1027L50.5375 47.7085L51.9796 47.8655L51.5939 48.5736L51.1624 48.8393L51.0848 49.6316L50.7526 50.5098L50.2163 51.1309L50.5196 51.5591L49.2752 53.0486L48.8595 53.8006L47.8499 54.0723L47.6487 54.6886L46.9494 55.2418L46.33 55.0092L45.7393 55.2195L44.9958 54.6929L44.1149 55.1488L43.7216 54.7418L43.4824 54.2164L42.7249 53.8697L42.0435 52.3036L41.6267 52.3747L40.6606 51.3504L41.331 50.6549L40.2486 50.4772L39.3329 50.7391L38.7488 50.1555L38.207 49.2192L37.8407 49.2909L37.5311 50.0468L36.5459 49.8023L35.7878 50.0816L35.1607 49.9098L34.7048 48.7654L33.9575 48.5752L32.7735 48.823L32.0851 48.2981L31.9584 47.5178L29.4408 47.1162L28.9213 46.8336L28.6566 45.7539L28.1855 45.1719L27.3905 45.374L27.0346 44.911L25.9961 44.7469L25.8412 43.9829L25.3696 43.727L24.7121 42.8542L24.65 42.4711L23.623 42.8874L22.4645 42.4097L21.8222 41.8756L20.6256 41.9391L19.9756 40.7382L18.4607 41.4327L17.5679 40.8942L15.9392 38.8667L16.4321 38.1532L15.791 37.9288L15.1008 38.0853L14.4091 37.2946L14.9698 37.1033L14.7948 36.4828L15.428 36.3779L15.0883 35.1634L15.9578 34.626L15.948 34.0124L15.0057 33.4544L14.5296 32.8707L13.9172 32.5572L12.9277 33.13L12.2317 32.3741L11.8023 32.2067L10.3254 32.4311L9.71129 31.9823L9.43684 32.567L8.79025 32.4914L8.06588 30.5547L6.92527 30.8938L6.51715 30.4363L6.62146 29.8809L5.62164 30.1472L5.57537 28.0779L4.6049 27.4242L4.47224 26.7243L3.97291 26.8384L3.1774 26.3412L2.41821 26.195L2.10793 25.1696L1.53845 24.8935L1.81506 24.3561L1.13514 23.6546L1.38074 22.6693L3.89132 22.7438L4.09944 22.4025L3.63494 21.7776L3.74621 21.3478L3.23328 20.6908L4.47506 20.0539L4.94553 19.4067L4.14024 18.5112L3.22847 18.3036L3.26264 17.4673L4.24355 16.4229L4.92065 15.9642L4.90921 14.6318L4.41685 14.3166L3.92183 13.2635L4.16246 11.5099L3.8142 11.1083L3.37623 11.6447L2.80841 10.7769L2.13562 10.4389L1.87526 9.53627L2.52517 9.35966L2.30245 8.42119L1.70744 8.49836L1.53298 7.97669L1.46946 6.57144L1.22535 5.9927L0.631997 5.83077L1.31723 4.73308L1.78952 4.54561L1.45255 3.76691L1.75138 1.96388L1.32751 1.62479L0.21144 1.56339L0 0.768925Z"/>
</mask>
<path d="M0 0.768925L0.682079 0.471676L1.70843 0.530371L2.14922 0.917813L2.88768 1.07214L2.88122 2.31166L3.25119 3.36098L3.83924 3.05287L4.77273 3.13383L5.45531 3.54302L5.87271 2.63336L7.53554 2.61216L8.11148 2.25515L8.61413 1.58784L8.58809 1.15149L9.66022 0.960205L9.58791 0.492333L10.365 0L11.1312 0.280945L13.3885 0.0288035L14.2308 0.398864L14.5144 1.37048L15.1318 1.81498L15.7344 1.86607L16.2273 2.46056L16.9218 2.43936L17.3488 2.88224L18.0385 2.52847L18.9758 2.40459L19.6926 1.89323L20.1544 2.47142L20.9723 2.56869L21.864 3.33435L22.3156 3.405L23.266 4.24728L23.6149 4.24239L24.2708 4.87111L23.7263 5.75197L24.6844 6.92357L25.5918 7.19091L25.9021 8.55541L24.6887 8.75105L25.2381 9.94165L25.8717 10.2144L25.6293 10.6622L26.577 11.742L26.9417 11.755L28.2926 12.9184L28.5311 13.5357L28.2616 14.1009L29.375 14.8611L29.1561 15.2067L29.549 16.6756L30.4412 16.356L30.8786 17.2217L30.1347 18.2107L30.47 18.9546L31.1383 19.6083L32.6741 19.3399L34.663 20.3066L35.1499 19.9746L35.0439 19.0801L35.6862 18.7481L35.3199 17.5401L34.7976 16.8065L35.5602 16.28L36.817 17.0619L37.5099 16.7136L37.7784 16.2859L38.5608 16.6158L39.2916 17.3836L39.8661 17.0304L40.7388 17.8727L42.0664 18.0428L41.8043 19.2698L41.9587 19.9887L42.507 21.1603L42.5489 22.3439L43.2395 22.3819L43.4488 21.8097L44.0939 21.3472L43.8177 20.2365L44.6579 20.0724L45.4252 20.8321L45.7708 21.5858L46.6532 21.9434L47.6248 21.4864L48.0231 21.9727L49.8044 21.5048L50.5724 21.9135L51.2462 21.8656L51.7836 22.2227L52.3362 21.1005L52.9393 20.6609L54.1121 20.7147L54.3594 19.6773L54.2501 19.1318L56.9855 18.4943L57.0144 19.2241L57.724 19.6562L57.9963 19.3959L58.9827 19.285L59.0565 20.0887L58.8331 20.8131L59.408 21.9298L59.7792 22.0145L60.258 23.3573L61.7763 24.3371L62.9087 24.1349L64.0249 24.7283L64.1657 25.7749L64.3216 26.0499L63.2597 27.5133L63.2967 28.1262L62.4105 29.4179L62.6034 29.6907L62.1327 30.5863L62.0778 31.2318L61.6649 31.4236L61.0986 32.4713L60.5405 32.6067L60.2966 32.1344L59.1989 31.9258L58.6218 31.5546L58.4273 30.9813L57.5595 30.8862L55.5341 31.221L54.8609 31.5617L53.9964 31.2307L52.797 31.9926L52.0699 31.2514L51.4634 31.2601L51.583 30.3021L50.9125 30.1722L49.4643 29.4994L48.5095 29.9363L47.9253 29.0718L47.1983 28.4604L45.5703 28.5555L45.2517 27.7872L45.1648 26.721L44.8078 26.4781L44.4094 24.5381L43.2667 25.1212L43.6683 25.9939L42.7168 27.209L42.7891 28.1779L41.9027 29.544L42.0907 30.1303L41.7642 30.5379L41.9642 31.2932L40.3725 31.0954L40.046 32.455L39.2548 33.131L39.4742 34.1776L39.1042 34.7738L40.3622 34.9188L41.7735 35.5394L42.3402 35.9513L42.8602 36.7338L43.7459 36.4475L44.4519 36.9447L43.9242 37.3941L42.6945 37.4131L42.7848 38.1684L42.513 38.889L42.7896 39.2699L43.5406 39.1955L44.0726 39.6454L43.2504 40.0622L43.9514 40.4888L45.4452 39.9573L45.3431 39.3585L46.2207 38.808L45.9918 38.1396L46.287 37.5326L47.6601 37.2354L48.0222 38.4434L49.1795 38.4619L50.3153 39.8193L51.3586 40.1502L51.4684 40.7529L52.2607 42.1456L51.6846 42.6228L51.3526 43.8009L50.7879 44.8148L50.507 45.7332L49.7067 46.1027L50.5375 47.7085L51.9796 47.8655L51.5939 48.5736L51.1624 48.8393L51.0848 49.6316L50.7526 50.5098L50.2163 51.1309L50.5196 51.5591L49.2752 53.0486L48.8595 53.8006L47.8499 54.0723L47.6487 54.6886L46.9494 55.2418L46.33 55.0092L45.7393 55.2195L44.9958 54.6929L44.1149 55.1488L43.7216 54.7418L43.4824 54.2164L42.7249 53.8697L42.0435 52.3036L41.6267 52.3747L40.6606 51.3504L41.331 50.6549L40.2486 50.4772L39.3329 50.7391L38.7488 50.1555L38.207 49.2192L37.8407 49.2909L37.5311 50.0468L36.5459 49.8023L35.7878 50.0816L35.1607 49.9098L34.7048 48.7654L33.9575 48.5752L32.7735 48.823L32.0851 48.2981L31.9584 47.5178L29.4408 47.1162L28.9213 46.8336L28.6566 45.7539L28.1855 45.1719L27.3905 45.374L27.0346 44.911L25.9961 44.7469L25.8412 43.9829L25.3696 43.727L24.7121 42.8542L24.65 42.4711L23.623 42.8874L22.4645 42.4097L21.8222 41.8756L20.6256 41.9391L19.9756 40.7382L18.4607 41.4327L17.5679 40.8942L15.9392 38.8667L16.4321 38.1532L15.791 37.9288L15.1008 38.0853L14.4091 37.2946L14.9698 37.1033L14.7948 36.4828L15.428 36.3779L15.0883 35.1634L15.9578 34.626L15.948 34.0124L15.0057 33.4544L14.5296 32.8707L13.9172 32.5572L12.9277 33.13L12.2317 32.3741L11.8023 32.2067L10.3254 32.4311L9.71129 31.9823L9.43684 32.567L8.79025 32.4914L8.06588 30.5547L6.92527 30.8938L6.51715 30.4363L6.62146 29.8809L5.62164 30.1472L5.57537 28.0779L4.6049 27.4242L4.47224 26.7243L3.97291 26.8384L3.1774 26.3412L2.41821 26.195L2.10793 25.1696L1.53845 24.8935L1.81506 24.3561L1.13514 23.6546L1.38074 22.6693L3.89132 22.7438L4.09944 22.4025L3.63494 21.7776L3.74621 21.3478L3.23328 20.6908L4.47506 20.0539L4.94553 19.4067L4.14024 18.5112L3.22847 18.3036L3.26264 17.4673L4.24355 16.4229L4.92065 15.9642L4.90921 14.6318L4.41685 14.3166L3.92183 13.2635L4.16246 11.5099L3.8142 11.1083L3.37623 11.6447L2.80841 10.7769L2.13562 10.4389L1.87526 9.53627L2.52517 9.35966L2.30245 8.42119L1.70744 8.49836L1.53298 7.97669L1.46946 6.57144L1.22535 5.9927L0.631997 5.83077L1.31723 4.73308L1.78952 4.54561L1.45255 3.76691L1.75138 1.96388L1.32751 1.62479L0.21144 1.56339L0 0.768925Z" fill="#F2F2F2" stroke="#07122B" mask="url(#path-1-inside-1_81_128)"/>
</svg>
