<svg width="52" height="51" viewBox="0 0 52 51" fill="none" xmlns="http://www.w3.org/2000/svg">
<mask id="path-1-inside-1_81_138" fill="white">
<path d="M4.83906 1.04716L5.37919 1.0651L6.58182 1.75793L6.98182 1.34059L8.05012 0.927059L8.69887 0.149998L9.45093 0L10.3051 0.66079L10.0151 1.0401L10.2247 2.57685L10.9128 2.74803L11.8192 3.868L13.2401 3.53869L14.0592 4.60866L14.4363 5.46018L15.8888 5.32921L16.248 4.60812L16.6576 5.27867L17.0452 5.11673L17.6297 5.64494L18.8291 5.98129L19.3725 5.46397L19.7426 5.57265L20.1496 4.96079L20.1203 4.32607L22.2824 4.37607L23.4394 5.16565L23.8762 4.87546L23.9512 2.13181L24.5674 2.06549L24.6577 3.32947L25.5696 3.92125L26.0935 4.68963L27.1303 4.9499L26.9487 5.54005L27.0928 6.66654L27.373 7.21701L27.8649 6.73066L28.4301 6.66111L28.5175 7.20234L30.3266 7.76313L31.8302 9.13415L32.1551 10.0987L33.0355 10.4573L33.7293 10.1601L34.627 10.077L34.6976 10.7997L35.2069 10.7975L35.6917 11.361L36.2344 11.2469L36.2872 10.5117L36.9485 9.39173L37.2289 8.43859L37.7017 8.40381L38.576 9.2749L38.6309 9.73515L38.0283 10.434L37.4256 10.6579L37.8065 11.3192L37.8734 12.1218L38.3999 12.1055L39.2346 11.2556L40.5486 11.3561L40.71 10.5753L41.6174 11.7626L41.211 11.9702L41.6174 14.0107L42.6819 15.1448L43.3929 15.1068L44.2111 13.5521L45.155 13.6792L45.6132 13.4428L46.5071 13.5879L47.1663 13.3499L47.1668 14.1982L47.4042 14.5845L46.8004 15.2763L46.8152 16.7207L47.2439 17.9374L47.2212 18.5715L47.7193 18.9584L48.7606 18.4237L49.516 18.7253L51.0005 20.6642L51.1352 21.2288L50.3642 22.1906L50.3266 23.5638L49.842 23.973L49.2958 23.8426L47.3537 24.2507L46.614 24.7941L46.8837 25.3076L46.119 25.3446L45.9011 25.6891L44.8182 25.4163L44.3753 26.1716L44.591 26.84L44.0361 27.3595L44.172 27.81L45.292 29.0012L44.6519 29.9771L44.8638 30.7813L43.7519 32.066L42.4542 32.6963L42.4201 33.3147L43.2091 33.4283L44.0428 32.7773L44.6476 34.2961L44.0225 34.7634L44.3013 35.4596L43.9504 35.8644L44.2824 37.3685L45.1767 37.581L46.0572 38.7396L46.3169 39.5748L44.6724 40.4236L44.1622 40.9202L44.7307 41.6267L44.8996 43.3167L44.434 43.9389L43.8688 43.4227L43.3036 44.0508L42.7244 43.9057L41.3702 44.4209L41.0186 45.1268L40.1317 45.8973L39.3933 45.9044L38.2581 46.6353L36.8752 46.9184L36.2926 47.9069L35.0227 47.8036L34.6162 46.2174L33.4121 45.6794L32.9322 45.3056L31.5808 45.6278L30.696 46.0647L29.3402 46.0408L28.9354 45.4756L28.6115 45.2012L27.8692 45.3833L27.5394 44.7996L26.958 45.4762L27.7687 46.6483L27.0079 47.339L26.3603 47.2466L25.9178 47.7112L26.4145 48.7404L25.8892 49.3148L25.5028 48.8355L24.5393 49.0904L23.7132 50.5005L22.5129 50.6885L22.2026 50.2473L22.4938 49.4653L22.4363 48.6986L21.6983 48.4981V47.5569L20.3305 47.3586L19.6878 47.4624L19.2095 48.697L18.608 48.9415L17.2886 48.7356L16.8946 47.9465L16.819 47.2732L15.6588 47.2482L15.2998 47.7259L14.1596 48.34L13.5265 49.1333L12.9809 49.1936L11.7507 48.4128L10.4612 46.6543L8.95923 46.2098L7.46589 44.9572L7.10072 44.21L6.91333 43.0515L7.28927 42.0647L7.85278 41.4566L7.75278 40.723L8.29622 40.0041L8.2473 38.6271L7.97235 37.5033L7.57235 36.8279L8.59456 34.5575L8.01364 33.1039L8.17948 31.778L8.44946 31.3497L8.59191 30.3602L8.03221 29.5196L6.5324 28.5007L6.47635 27.8529L6.89044 27.0356L6.79807 25.0413L6.40521 24.4773L6.46109 23.7741L6.08133 22.2656L5.58681 20.8636L5.09395 20.0317L4.89661 19.179L5.08035 18.2226L4.79943 17.4988L3.7686 16.5837L2.2867 15.0855L1.18472 14.5226L1.00695 13.1673L1.70793 12.1403L2.18886 10.7459L2.76115 9.93024L2.77906 9.10699L3.17574 7.993L2.59814 6.45407L2.04972 5.90522L1.68521 4.44562L1.0907 3.76746L0.219068 2.9154L0 2.37469L0.572794 1.86336L1.68356 1.95302L2.21274 1.75522L2.57575 1.21887L4.21801 1.68403L4.83906 1.04716Z"/>
</mask>
<path d="M4.83906 1.04716L5.37919 1.0651L6.58182 1.75793L6.98182 1.34059L8.05012 0.927059L8.69887 0.149998L9.45093 0L10.3051 0.66079L10.0151 1.0401L10.2247 2.57685L10.9128 2.74803L11.8192 3.868L13.2401 3.53869L14.0592 4.60866L14.4363 5.46018L15.8888 5.32921L16.248 4.60812L16.6576 5.27867L17.0452 5.11673L17.6297 5.64494L18.8291 5.98129L19.3725 5.46397L19.7426 5.57265L20.1496 4.96079L20.1203 4.32607L22.2824 4.37607L23.4394 5.16565L23.8762 4.87546L23.9512 2.13181L24.5674 2.06549L24.6577 3.32947L25.5696 3.92125L26.0935 4.68963L27.1303 4.9499L26.9487 5.54005L27.0928 6.66654L27.373 7.21701L27.8649 6.73066L28.4301 6.66111L28.5175 7.20234L30.3266 7.76313L31.8302 9.13415L32.1551 10.0987L33.0355 10.4573L33.7293 10.1601L34.627 10.077L34.6976 10.7997L35.2069 10.7975L35.6917 11.361L36.2344 11.2469L36.2872 10.5117L36.9485 9.39173L37.2289 8.43859L37.7017 8.40381L38.576 9.2749L38.6309 9.73515L38.0283 10.434L37.4256 10.6579L37.8065 11.3192L37.8734 12.1218L38.3999 12.1055L39.2346 11.2556L40.5486 11.3561L40.71 10.5753L41.6174 11.7626L41.211 11.9702L41.6174 14.0107L42.6819 15.1448L43.3929 15.1068L44.2111 13.5521L45.155 13.6792L45.6132 13.4428L46.5071 13.5879L47.1663 13.3499L47.1668 14.1982L47.4042 14.5845L46.8004 15.2763L46.8152 16.7207L47.2439 17.9374L47.2212 18.5715L47.7193 18.9584L48.7606 18.4237L49.516 18.7253L51.0005 20.6642L51.1352 21.2288L50.3642 22.1906L50.3266 23.5638L49.842 23.973L49.2958 23.8426L47.3537 24.2507L46.614 24.7941L46.8837 25.3076L46.119 25.3446L45.9011 25.6891L44.8182 25.4163L44.3753 26.1716L44.591 26.84L44.0361 27.3595L44.172 27.81L45.292 29.0012L44.6519 29.9771L44.8638 30.7813L43.7519 32.066L42.4542 32.6963L42.4201 33.3147L43.2091 33.4283L44.0428 32.7773L44.6476 34.2961L44.0225 34.7634L44.3013 35.4596L43.9504 35.8644L44.2824 37.3685L45.1767 37.581L46.0572 38.7396L46.3169 39.5748L44.6724 40.4236L44.1622 40.9202L44.7307 41.6267L44.8996 43.3167L44.434 43.9389L43.8688 43.4227L43.3036 44.0508L42.7244 43.9057L41.3702 44.4209L41.0186 45.1268L40.1317 45.8973L39.3933 45.9044L38.2581 46.6353L36.8752 46.9184L36.2926 47.9069L35.0227 47.8036L34.6162 46.2174L33.4121 45.6794L32.9322 45.3056L31.5808 45.6278L30.696 46.0647L29.3402 46.0408L28.9354 45.4756L28.6115 45.2012L27.8692 45.3833L27.5394 44.7996L26.958 45.4762L27.7687 46.6483L27.0079 47.339L26.3603 47.2466L25.9178 47.7112L26.4145 48.7404L25.8892 49.3148L25.5028 48.8355L24.5393 49.0904L23.7132 50.5005L22.5129 50.6885L22.2026 50.2473L22.4938 49.4653L22.4363 48.6986L21.6983 48.4981V47.5569L20.3305 47.3586L19.6878 47.4624L19.2095 48.697L18.608 48.9415L17.2886 48.7356L16.8946 47.9465L16.819 47.2732L15.6588 47.2482L15.2998 47.7259L14.1596 48.34L13.5265 49.1333L12.9809 49.1936L11.7507 48.4128L10.4612 46.6543L8.95923 46.2098L7.46589 44.9572L7.10072 44.21L6.91333 43.0515L7.28927 42.0647L7.85278 41.4566L7.75278 40.723L8.29622 40.0041L8.2473 38.6271L7.97235 37.5033L7.57235 36.8279L8.59456 34.5575L8.01364 33.1039L8.17948 31.778L8.44946 31.3497L8.59191 30.3602L8.03221 29.5196L6.5324 28.5007L6.47635 27.8529L6.89044 27.0356L6.79807 25.0413L6.40521 24.4773L6.46109 23.7741L6.08133 22.2656L5.58681 20.8636L5.09395 20.0317L4.89661 19.179L5.08035 18.2226L4.79943 17.4988L3.7686 16.5837L2.2867 15.0855L1.18472 14.5226L1.00695 13.1673L1.70793 12.1403L2.18886 10.7459L2.76115 9.93024L2.77906 9.10699L3.17574 7.993L2.59814 6.45407L2.04972 5.90522L1.68521 4.44562L1.0907 3.76746L0.219068 2.9154L0 2.37469L0.572794 1.86336L1.68356 1.95302L2.21274 1.75522L2.57575 1.21887L4.21801 1.68403L4.83906 1.04716Z" fill="#F2F2F2" stroke="#07122B" mask="url(#path-1-inside-1_81_138)"/>
</svg>
