<svg width="79" height="65" viewBox="0 0 79 65" fill="none" xmlns="http://www.w3.org/2000/svg">
<mask id="path-1-inside-1_81_139" fill="white">
<path d="M0 4.98577L1.25089 4.54887L1.97426 3.97883L3.30393 4.29455L3.65815 4.17826L3.58535 3.26806L4.50375 3.32892L6.40687 2.61488L9.32158 1.87041L10.9008 2.28231L12.3321 1.92692L15.3334 0.707517L16.812 0L17.4505 1.41232L17.4206 1.79977L17.9374 4.40378L17.8617 5.02489L18.652 5.68242L19.067 6.27093L20.0344 8.37446L19.4496 8.69942L19.3432 9.17109L18.4705 9.94491L18.9611 10.1003L19.1704 11.3366L19.0019 11.7822L19.272 13.2016L18.783 13.8205L19.4019 14.0878L19.7621 14.7666L20.1148 16.1533L20.8854 16.1202L21.3287 15.7414L21.7287 16.1262L23.1748 16.1207L23.46 16.381L23.4703 17.351L23.866 17.8955L24.7941 18.5976L24.6154 19.0399L25.382 19.7877L25.8011 21.0511L26.9019 21.8292L27.9659 21.3923L28.7652 22.5471L29.337 22.3542L29.833 23.0872L30.1967 22.6112L30.7519 22.5275L30.9868 22.0836L31.0519 21.0793L31.5237 20.8218L31.3025 20.1061L32.0818 19.6121L32.8567 19.4344L34.026 18.6916L34.8776 18.6378L35.8263 18.039L36.5263 18.4797L37.4354 17.9498L37.7114 17.2217L38.2901 17.7037L39.0145 17.4836L39.2727 18.177L40.2078 19.5132L40.88 21.538L41.6213 22.0243L42.601 21.9732L43.1867 22.6558L43.3156 24.0284L42.4554 24.5446L42.4158 25.1424L42.738 25.6521L42.5592 26.1814L43.1177 26.8215L42.9743 27.2253L43.5189 27.8567L43.7672 29.0413L43.734 30.9525L44.2025 32.8517L45.3844 33.2598L45.7131 33.8831L46.9033 34.1189L47.4601 34.8623L47.9634 34.476L50.0375 33.9994L50.2913 33.2316L51.0884 32.4279L51.6689 32.743L52.6703 32.9164L52.5916 33.5989L51.8569 34.4124L52.0199 35.1145L52.8698 34.6113L54.674 34.5423L55.1423 34.8955L55.9547 34.5091L56.7948 35.5481L57.3187 36.5159L57.9968 36.9072L57.9306 37.6451L58.23 37.907L58.2218 38.8091L58.4431 39.9997L58.4109 40.7344L57.8247 41.6685L58.155 42.3945L58.0946 43.1949L59.1739 45.1458L59.7331 45.7289L60.5579 44.6676L60.8171 43.1591L61.6991 43.146L62.1544 42.8445L63.0153 42.9705L64.4552 42.776L65.3421 43.496L66.7501 44.354L67.0603 44.2709L69.2351 43.0341L69.8041 43.3922L70.1843 43.1004L71.5516 42.7244L71.7521 43.39L72.4151 43.6416L73.2992 44.7067L73.3596 45.2659L74.0057 45.1306L74.4718 45.8033L74.9451 46.0239L74.999 47.4058L75.9733 48.4155L76.6411 47.8416L75.9652 47.4031L76.4184 46.5489L76.9189 46.8081L76.9368 47.3243L77.8313 47.364L78.5789 48.297L78.5383 48.6986L77.896 49.3523L77.1113 49.8224L76.7907 50.6896L76.0196 51.0499L76.332 51.5895L76.1478 53.8055L75.4826 54.4723L75.111 55.3874L75.7327 55.7743L76.2103 55.3999L77.6791 55.4048L77.8796 56.634L77.8545 57.4366L78.7252 58.2539L78.9328 58.9478L78.4736 59.6738L77.7519 59.9216L77.5834 60.3324L76.4086 60.3384L75.4396 61.9768L75.7761 62.9457L76.4363 63.4559L75.605 64.3726L74.8964 64.6927L73.4438 64.828L73.5068 64.3808L72.5314 64.0238L70.8659 63.9982L70.6201 63.3891L69.7289 63.5353L69.6812 63.0136L70.2497 61.6415L70.0762 60.8204L68.3847 61.4301L66.5603 62.2724L65.8247 61.0888L64.9242 60.897L64.3662 60.3982L63.6678 60.9095L63.0423 60.409L61.0812 60.1297L59.9264 59.188L59.3863 59.5521L58.0805 60.0167L57.6023 60.866L57.1996 60.934L56.2117 61.717L55.5048 60.6525L54.2706 60.0667L53.6169 60.0672L53.0677 61.029L52.2531 61.1176L51.6335 62.086L48.8057 61.6942L48.2699 61.1731L47.484 61.0622L46.4854 61.1899L45.9875 62.1838L45.104 62.0257L43.8058 62.3392L43.5633 61.4871L43.0831 61.773L42.0664 61.3649L40.9866 62.2023L39.9214 62.4859L39.7221 61.9599L39.1281 61.9795L37.9321 61.6719L37.8658 61.016L36.892 60.0819L36.6746 59.9618L36.8931 58.8456L37.355 58.6516L37.7674 57.8528L37.1653 55.9612L38.3245 55.3108L37.8168 54.6799L37.4142 53.7093L38.6357 53.5958L39.3281 52.7388L38.4042 51.7015L38.8226 50.5804L40.0768 50.5625L40.499 50.0115L40.0214 49.3588L38.982 49.0105L39.0613 48.0769L38.7407 47.921L36.5654 47.5004L35.6786 47.4558L35.353 47.1798L34.8069 47.8715L34.231 47.9465L34.019 46.958L35.3167 46.2706L35.8915 45.6653L36.6707 45.2664L36.0769 44.7127L35.2852 43.2688L33.7408 42.0652L33.3783 40.8594L33.6109 40.1366L34.6618 39.5307L35.3709 38.6341L36.0905 38.6521L36.3736 37.5864L35.6003 36.9191L34.7086 37.5473L34.1695 37.7006L34.0358 37.0332L34.3108 35.4421L33.7305 34.633L33.437 34.6037L32.4844 33.763L30.9698 33.876L30.2553 34.364L29.2044 33.9005L29.1425 33.443L29.4989 32.7284L29.4044 32.1502L28.4561 32.617L27.1677 32.8686L26.2629 32.3431L25.9852 31.4856L26.6341 31.4367L26.7998 30.6248L26.4818 29.7478L25.7923 29.519L26.4389 28.1632L27.4938 27.2117L28.7599 26.734L27.6399 25.2103L26.6291 24.5734L25.9558 24.9267L25.0739 24.8397L24.9429 25.6896L25.9047 26.5835L24.7431 27.0786L23.8447 28.0697L22.9807 26.6802L21.5222 26.4743L21.6086 26.9688L20.4284 27.234L19.9556 27.5252L19.3443 26.5161L18.8453 26.7476L18.2765 26.3759L17.5787 26.6118L17.1402 27.0481L16.4793 26.7487L16.3545 26.0184L15.0442 26.7503L14.1482 26.3026L13.3038 25.4125L12.5174 25.2293L11.3942 23.8469L10.728 24.4327L10.108 23.6187L10.9975 22.8009L10.0736 22.1037L9.22374 20.9446L9.19604 20.4001L10.1259 19.8127L11.1443 19.3931L11.4154 18.3569L10.7252 18.1498L10.0037 18.3313L9.31296 18.0064L7.97716 17.8982L7.31813 17.6646L6.64434 17.9031L5.95414 17.52L5.21949 16.5272L4.57058 16.2848L4.21801 14.0324L3.74356 13.257L3.69729 12.6375L2.96596 10.9404L2.74042 10.0971L2.27409 9.36998L2.23512 8.7505L1.81009 8.10221L1.69434 7.29362L1.17759 6.39917L0 4.98577ZM33.3272 55.295L33.7124 54.5245L35.0466 54.0017L35.8323 53.3871L36.8464 53.3273L36.6197 54.362L36.0719 54.6973L36.2872 55.6194L34.9341 55.671L34.4933 56.5035L33.5945 56.4008L33.6696 55.6982L33.3272 55.295Z"/>
</mask>
<path d="M0 4.98577L1.25089 4.54887L1.97426 3.97883L3.30393 4.29455L3.65815 4.17826L3.58535 3.26806L4.50375 3.32892L6.40687 2.61488L9.32158 1.87041L10.9008 2.28231L12.3321 1.92692L15.3334 0.707517L16.812 0L17.4505 1.41232L17.4206 1.79977L17.9374 4.40378L17.8617 5.02489L18.652 5.68242L19.067 6.27093L20.0344 8.37446L19.4496 8.69942L19.3432 9.17109L18.4705 9.94491L18.9611 10.1003L19.1704 11.3366L19.0019 11.7822L19.272 13.2016L18.783 13.8205L19.4019 14.0878L19.7621 14.7666L20.1148 16.1533L20.8854 16.1202L21.3287 15.7414L21.7287 16.1262L23.1748 16.1207L23.46 16.381L23.4703 17.351L23.866 17.8955L24.7941 18.5976L24.6154 19.0399L25.382 19.7877L25.8011 21.0511L26.9019 21.8292L27.9659 21.3923L28.7652 22.5471L29.337 22.3542L29.833 23.0872L30.1967 22.6112L30.7519 22.5275L30.9868 22.0836L31.0519 21.0793L31.5237 20.8218L31.3025 20.1061L32.0818 19.6121L32.8567 19.4344L34.026 18.6916L34.8776 18.6378L35.8263 18.039L36.5263 18.4797L37.4354 17.9498L37.7114 17.2217L38.2901 17.7037L39.0145 17.4836L39.2727 18.177L40.2078 19.5132L40.88 21.538L41.6213 22.0243L42.601 21.9732L43.1867 22.6558L43.3156 24.0284L42.4554 24.5446L42.4158 25.1424L42.738 25.6521L42.5592 26.1814L43.1177 26.8215L42.9743 27.2253L43.5189 27.8567L43.7672 29.0413L43.734 30.9525L44.2025 32.8517L45.3844 33.2598L45.7131 33.8831L46.9033 34.1189L47.4601 34.8623L47.9634 34.476L50.0375 33.9994L50.2913 33.2316L51.0884 32.4279L51.6689 32.743L52.6703 32.9164L52.5916 33.5989L51.8569 34.4124L52.0199 35.1145L52.8698 34.6113L54.674 34.5423L55.1423 34.8955L55.9547 34.5091L56.7948 35.5481L57.3187 36.5159L57.9968 36.9072L57.9306 37.6451L58.23 37.907L58.2218 38.8091L58.4431 39.9997L58.4109 40.7344L57.8247 41.6685L58.155 42.3945L58.0946 43.1949L59.1739 45.1458L59.7331 45.7289L60.5579 44.6676L60.8171 43.1591L61.6991 43.146L62.1544 42.8445L63.0153 42.9705L64.4552 42.776L65.3421 43.496L66.7501 44.354L67.0603 44.2709L69.2351 43.0341L69.8041 43.3922L70.1843 43.1004L71.5516 42.7244L71.7521 43.39L72.4151 43.6416L73.2992 44.7067L73.3596 45.2659L74.0057 45.1306L74.4718 45.8033L74.9451 46.0239L74.999 47.4058L75.9733 48.4155L76.6411 47.8416L75.9652 47.4031L76.4184 46.5489L76.9189 46.8081L76.9368 47.3243L77.8313 47.364L78.5789 48.297L78.5383 48.6986L77.896 49.3523L77.1113 49.8224L76.7907 50.6896L76.0196 51.0499L76.332 51.5895L76.1478 53.8055L75.4826 54.4723L75.111 55.3874L75.7327 55.7743L76.2103 55.3999L77.6791 55.4048L77.8796 56.634L77.8545 57.4366L78.7252 58.2539L78.9328 58.9478L78.4736 59.6738L77.7519 59.9216L77.5834 60.3324L76.4086 60.3384L75.4396 61.9768L75.7761 62.9457L76.4363 63.4559L75.605 64.3726L74.8964 64.6927L73.4438 64.828L73.5068 64.3808L72.5314 64.0238L70.8659 63.9982L70.6201 63.3891L69.7289 63.5353L69.6812 63.0136L70.2497 61.6415L70.0762 60.8204L68.3847 61.4301L66.5603 62.2724L65.8247 61.0888L64.9242 60.897L64.3662 60.3982L63.6678 60.9095L63.0423 60.409L61.0812 60.1297L59.9264 59.188L59.3863 59.5521L58.0805 60.0167L57.6023 60.866L57.1996 60.934L56.2117 61.717L55.5048 60.6525L54.2706 60.0667L53.6169 60.0672L53.0677 61.029L52.2531 61.1176L51.6335 62.086L48.8057 61.6942L48.2699 61.1731L47.484 61.0622L46.4854 61.1899L45.9875 62.1838L45.104 62.0257L43.8058 62.3392L43.5633 61.4871L43.0831 61.773L42.0664 61.3649L40.9866 62.2023L39.9214 62.4859L39.7221 61.9599L39.1281 61.9795L37.9321 61.6719L37.8658 61.016L36.892 60.0819L36.6746 59.9618L36.8931 58.8456L37.355 58.6516L37.7674 57.8528L37.1653 55.9612L38.3245 55.3108L37.8168 54.6799L37.4142 53.7093L38.6357 53.5958L39.3281 52.7388L38.4042 51.7015L38.8226 50.5804L40.0768 50.5625L40.499 50.0115L40.0214 49.3588L38.982 49.0105L39.0613 48.0769L38.7407 47.921L36.5654 47.5004L35.6786 47.4558L35.353 47.1798L34.8069 47.8715L34.231 47.9465L34.019 46.958L35.3167 46.2706L35.8915 45.6653L36.6707 45.2664L36.0769 44.7127L35.2852 43.2688L33.7408 42.0652L33.3783 40.8594L33.6109 40.1366L34.6618 39.5307L35.3709 38.6341L36.0905 38.6521L36.3736 37.5864L35.6003 36.9191L34.7086 37.5473L34.1695 37.7006L34.0358 37.0332L34.3108 35.4421L33.7305 34.633L33.437 34.6037L32.4844 33.763L30.9698 33.876L30.2553 34.364L29.2044 33.9005L29.1425 33.443L29.4989 32.7284L29.4044 32.1502L28.4561 32.617L27.1677 32.8686L26.2629 32.3431L25.9852 31.4856L26.6341 31.4367L26.7998 30.6248L26.4818 29.7478L25.7923 29.519L26.4389 28.1632L27.4938 27.2117L28.7599 26.734L27.6399 25.2103L26.6291 24.5734L25.9558 24.9267L25.0739 24.8397L24.9429 25.6896L25.9047 26.5835L24.7431 27.0786L23.8447 28.0697L22.9807 26.6802L21.5222 26.4743L21.6086 26.9688L20.4284 27.234L19.9556 27.5252L19.3443 26.5161L18.8453 26.7476L18.2765 26.3759L17.5787 26.6118L17.1402 27.0481L16.4793 26.7487L16.3545 26.0184L15.0442 26.7503L14.1482 26.3026L13.3038 25.4125L12.5174 25.2293L11.3942 23.8469L10.728 24.4327L10.108 23.6187L10.9975 22.8009L10.0736 22.1037L9.22374 20.9446L9.19604 20.4001L10.1259 19.8127L11.1443 19.3931L11.4154 18.3569L10.7252 18.1498L10.0037 18.3313L9.31296 18.0064L7.97716 17.8982L7.31813 17.6646L6.64434 17.9031L5.95414 17.52L5.21949 16.5272L4.57058 16.2848L4.21801 14.0324L3.74356 13.257L3.69729 12.6375L2.96596 10.9404L2.74042 10.0971L2.27409 9.36998L2.23512 8.7505L1.81009 8.10221L1.69434 7.29362L1.17759 6.39917L0 4.98577ZM33.3272 55.295L33.7124 54.5245L35.0466 54.0017L35.8323 53.3871L36.8464 53.3273L36.6197 54.362L36.0719 54.6973L36.2872 55.6194L34.9341 55.671L34.4933 56.5035L33.5945 56.4008L33.6696 55.6982L33.3272 55.295Z" fill="#F2F2F2" stroke="#07122B" mask="url(#path-1-inside-1_81_139)"/>
</svg>
