<svg width="40" height="46" viewBox="0 0 40 46" fill="none" xmlns="http://www.w3.org/2000/svg">
<mask id="path-1-inside-1_81_109" fill="white">
<path d="M0 29.3533L0.196183 29.0897L2.6192 28.4175L2.52683 27.6062L1.49003 27.2307L1.56714 26.1559L2.38554 25.77L2.3187 25.0337L1.71705 24.4588L4.2603 25.1989L5.52363 24.4729L6.20521 23.2095L7.32509 22.8101L8.0886 23.0514L8.96454 23.8311L9.24712 24.3061L11.3675 23.8931L10.2992 22.3346L9.80897 22.4009L9.23999 21.9895L8.91396 21.0685L7.9027 20.9902L7.82675 19.7616L7.53919 19.2073L5.96011 18.2259L5.76111 17.5771L4.70474 16.956L4.1603 16.3349L4.59777 14.5421L3.83908 13.282L2.80775 12.1838L2.82997 11.2105L2.0464 9.89653L2.46381 9.54496L2.35834 8.92167L3.1104 7.83267L3.33925 7.02029L3.2691 5.80252L4.55482 5.13902L4.64072 4.21304L5.53938 4.50433L5.62744 3.75007L5.9873 3.28436L5.91981 2.54316L6.4795 1.62261L6.95512 1.52589L7.60436 0.813503L8.19788 0.986842L9.34596 0L10.6421 0.611889L10.7932 1.52261L12.0202 2.61924L11.873 3.3735L12.4467 3.56694L13.289 4.22502L13.3711 5.68731L13.8091 6.55404L14.6139 6.75292L14.9263 7.14637L16.0838 6.67034L16.8467 7.2496L17.7292 7.50121L18.7883 8.36032L19.279 8.15058L20.637 8.89344L21.638 9.99707L22.1841 9.63733L22.6681 10.5226L23.8268 11.4007L25.0283 11.1219L26.1983 11.1828L26.6585 12.6494L27.9778 12.2125L29.1521 12.8864L29.3369 11.9517L30.3655 12.149L32.1121 11.2817L32.9229 11.4534L33.1983 11.0399L33.9413 11.1116L34.6928 10.772L36.3431 10.9611L36.7951 9.98131L37.3087 9.44061L38.7254 9.70528L38.2493 10.7502L38.5379 11.079L38.0744 11.7756L38.3596 12.5815L38.7238 12.7505L39.978 14.3905L39.8279 15.2671L38.9749 16.5685L38.0402 17.0261L37.8891 17.7059L38.1988 18.7199L37.6712 19.3888L37.5326 19.9855L36.0349 20.9049L35.0504 20.9848L34.3874 21.5179L34.6423 21.9249L34.0869 22.821L34.1945 23.804L32.3539 24.5072L31.829 25.269L31.7469 26.0108L32.1925 26.7253L32.6088 28.73L33.0365 29.4983L32.461 29.7315L31.6937 30.407L30.9868 31.3557L30.5242 30.8808L29.3684 31.4677L28.6924 32.2143L28.6055 32.8686L27.8377 32.7757L27.2399 33.0403L26.7568 32.8142L25.888 33.4212L25.6532 33.982L25.8596 35.0172L25.5265 35.2661L25.2255 33.6533L24.8119 34.0494L24.7646 34.7026L23.9376 34.2461L22.4987 34.4971L21.9955 35.0868L21.995 35.7171L21.3385 36.6268L20.662 36.1214L19.3116 36.3154L18.8556 36.8371L18.2861 38.1554L18.0835 40.3171L18.6355 40.5801L18.5221 41.8636L17.703 40.7752L16.6429 40.5969L16.0147 40.9616L15.5115 41.7316L13.0776 41.6674L11.8353 42.2445L11.3355 43.0412L11.2546 43.7291L11.9023 44.0867L11.6016 44.8904L10.9665 45.1382L10.3013 45.0045L10.2639 44.4486L9.21827 44.0111L9.67315 42.7477L9.02872 42.4891L9.34065 41.4647L10.0959 40.4703L9.74214 40.0013L10.2481 39.1428L9.52208 38.5227L9.11296 38.751L7.60934 38.4048L7.34135 37.9755L6.59094 37.5104L6.20886 37.6962L5.24602 35.9948L4.64122 35.2998L4.83575 34.5363L5.19279 34.282L4.89777 32.8501L4.08319 32.0768L2.8915 31.9611L2.43877 31.2286L1.77095 31.0558L0.994346 31.5992L0.633655 30.6699L0.161357 30.5042L0 29.3533Z"/>
</mask>
<path d="M0 29.3533L0.196183 29.0897L2.6192 28.4175L2.52683 27.6062L1.49003 27.2307L1.56714 26.1559L2.38554 25.77L2.3187 25.0337L1.71705 24.4588L4.2603 25.1989L5.52363 24.4729L6.20521 23.2095L7.32509 22.8101L8.0886 23.0514L8.96454 23.8311L9.24712 24.3061L11.3675 23.8931L10.2992 22.3346L9.80897 22.4009L9.23999 21.9895L8.91396 21.0685L7.9027 20.9902L7.82675 19.7616L7.53919 19.2073L5.96011 18.2259L5.76111 17.5771L4.70474 16.956L4.1603 16.3349L4.59777 14.5421L3.83908 13.282L2.80775 12.1838L2.82997 11.2105L2.0464 9.89653L2.46381 9.54496L2.35834 8.92167L3.1104 7.83267L3.33925 7.02029L3.2691 5.80252L4.55482 5.13902L4.64072 4.21304L5.53938 4.50433L5.62744 3.75007L5.9873 3.28436L5.91981 2.54316L6.4795 1.62261L6.95512 1.52589L7.60436 0.813503L8.19788 0.986842L9.34596 0L10.6421 0.611889L10.7932 1.52261L12.0202 2.61924L11.873 3.3735L12.4467 3.56694L13.289 4.22502L13.3711 5.68731L13.8091 6.55404L14.6139 6.75292L14.9263 7.14637L16.0838 6.67034L16.8467 7.2496L17.7292 7.50121L18.7883 8.36032L19.279 8.15058L20.637 8.89344L21.638 9.99707L22.1841 9.63733L22.6681 10.5226L23.8268 11.4007L25.0283 11.1219L26.1983 11.1828L26.6585 12.6494L27.9778 12.2125L29.1521 12.8864L29.3369 11.9517L30.3655 12.149L32.1121 11.2817L32.9229 11.4534L33.1983 11.0399L33.9413 11.1116L34.6928 10.772L36.3431 10.9611L36.7951 9.98131L37.3087 9.44061L38.7254 9.70528L38.2493 10.7502L38.5379 11.079L38.0744 11.7756L38.3596 12.5815L38.7238 12.7505L39.978 14.3905L39.8279 15.2671L38.9749 16.5685L38.0402 17.0261L37.8891 17.7059L38.1988 18.7199L37.6712 19.3888L37.5326 19.9855L36.0349 20.9049L35.0504 20.9848L34.3874 21.5179L34.6423 21.9249L34.0869 22.821L34.1945 23.804L32.3539 24.5072L31.829 25.269L31.7469 26.0108L32.1925 26.7253L32.6088 28.73L33.0365 29.4983L32.461 29.7315L31.6937 30.407L30.9868 31.3557L30.5242 30.8808L29.3684 31.4677L28.6924 32.2143L28.6055 32.8686L27.8377 32.7757L27.2399 33.0403L26.7568 32.8142L25.888 33.4212L25.6532 33.982L25.8596 35.0172L25.5265 35.2661L25.2255 33.6533L24.8119 34.0494L24.7646 34.7026L23.9376 34.2461L22.4987 34.4971L21.9955 35.0868L21.995 35.7171L21.3385 36.6268L20.662 36.1214L19.3116 36.3154L18.8556 36.8371L18.2861 38.1554L18.0835 40.3171L18.6355 40.5801L18.5221 41.8636L17.703 40.7752L16.6429 40.5969L16.0147 40.9616L15.5115 41.7316L13.0776 41.6674L11.8353 42.2445L11.3355 43.0412L11.2546 43.7291L11.9023 44.0867L11.6016 44.8904L10.9665 45.1382L10.3013 45.0045L10.2639 44.4486L9.21827 44.0111L9.67315 42.7477L9.02872 42.4891L9.34065 41.4647L10.0959 40.4703L9.74214 40.0013L10.2481 39.1428L9.52208 38.5227L9.11296 38.751L7.60934 38.4048L7.34135 37.9755L6.59094 37.5104L6.20886 37.6962L5.24602 35.9948L4.64122 35.2998L4.83575 34.5363L5.19279 34.282L4.89777 32.8501L4.08319 32.0768L2.8915 31.9611L2.43877 31.2286L1.77095 31.0558L0.994346 31.5992L0.633655 30.6699L0.161357 30.5042L0 29.3533Z" fill="#F2F2F2" stroke="#07122B" mask="url(#path-1-inside-1_81_109)"/>
</svg>
