<svg width="55" height="40" viewBox="0 0 55 40" fill="none" xmlns="http://www.w3.org/2000/svg">
<mask id="path-1-inside-1_81_144" fill="white">
<path d="M3.49912 0.311915L3.88103 0.781963L4.43476 0.530366L4.85863 1.40091L5.55365 1.39493L5.51882 3.15068L5.90472 3.53759L6.60355 3.39521L7.08928 3.76799L7.5692 3.68104L8.36256 2.87517L9.00915 2.49152L9.57929 3.5941L10.4139 2.71922L10.6595 3.07949L11.473 2.90071L11.7584 3.14307L12.6913 3.00016L12.756 3.34196L13.5102 3.70333L13.8792 4.59615L15.2757 3.93265L16.0464 4.32716L16.623 4.1462L17.4636 3.4664L18.4856 3.41912L18.9732 3.73321L19.8231 3.49194L21.9086 4.1875L22.59 4.71352L23.1443 4.33585L23.7018 4.67874L23.7763 5.29986L25.1407 6.11551L25.7837 6.14866L26.4114 5.8112L27.8866 6.30951L28.1823 7.31209L29.0821 8.1522L29.4702 7.5425L30.1194 7.33329L31.3221 7.94625L31.7688 8.35979L32.3474 8.24839L32.3997 9.13903L32.7708 9.53899L33.2718 8.82712L33.9179 8.88961L34.627 9.51616L34.6439 10.3802L35.4172 10.9317L35.9812 10.6242L36.3747 8.95427L36.8915 8.05439L37.6158 7.82018L38.0218 8.1158L38.6999 7.77942L39.3916 8.29621L40.4579 8.64345L40.9224 8.16307L40.5725 7.15831L40.7186 6.15735L41.2186 5.88239L42.8 5.78458L42.7065 5.21725L43.89 4.19348L43.401 3.48324L44.0894 3.09199L44.3464 3.70495L45.1486 3.38869L45.7522 4.32173L46.4343 5.05587L46.4321 3.96525L46.9135 4.00981L48.2138 3.19361L49.3616 4.78253L49.8289 3.98698L50.3468 3.87722L50.2957 3.06102L50.7402 2.82572L51.8917 3.30446L52.6916 3.29523L52.9333 3.85765L52.5839 4.70482L52.9013 4.95697L52.339 5.65416L52.2173 6.47471L52.4839 7.53978L51.7732 8.05114L52.8464 9.23956L53.4257 10.6915L52.9708 11.3333L53.2584 11.642L52.9682 12.6136L53.0508 13.4472L52.8047 13.8281L51.8662 13.9879L52.0237 14.6736L52.8171 15.3594L52.91 16.136L52.4383 16.2332L52.2834 16.8082L54.0539 17.6118L54.3174 18.3759L53.166 18.8894L52.3411 18.4835L51.7607 18.8302L51.9368 20.0996L51.6689 21.2896L51.8271 22.008L51.17 22.2928L51.0967 23.5622L50.5929 23.7692L49.5735 24.5821L48.3883 24.0599L48.0809 24.4637L47.0195 25.1169L47.5999 25.7005L47.2799 26.1716L48.8269 26.9487L49.7093 27.1095L49.3138 27.7203L49.2769 28.636L49.5094 28.9403L49.6909 30.7265L49.1953 31.0454L48.0666 29.9847L46.813 30.3662L47.2515 31.1688L47.1353 32.4485L47.7319 32.8642L48.2253 32.7349L48.9231 32.9599L49.1725 33.6652L49.7327 33.3951L49.2556 32.38L48.7981 32.8539L48.4117 32.6507L48.3394 31.2123L48.9817 31.0215L49.6105 31.5709L50.0724 31.4307L50.7354 32.3094L52.1106 32.1127L52.6469 32.5784L52.5314 33.199L52.8144 34.1499L53.572 34.119L53.3653 34.7325L52.4123 35.0341L52.4247 35.8334L51.8368 35.8687L50.9815 36.617L50.3685 37.7924L50.3365 38.4195L48.6415 38.0907L47.4885 39.0634L47.0445 38.1195L46.425 38.3602L46.1708 38.895L45.4985 38.877L44.6829 38.4336L43.5406 39.302L42.9841 39.1118L42.6179 38.4716L41.6919 38.3276L41.2957 37.7576L40.3589 38.2521L40.4883 38.9966L39.2569 39.8247L38.545 39.8399L38.3696 39.0248L37.4974 39.571L36.279 38.1195L35.4439 37.568L34.695 37.4788L33.2278 38.7488L32.8143 38.094L32.0302 37.7L31.8101 36.918L31.1249 36.5116L31.0493 37.65L29.5342 37.2658L29.8631 36.3676L28.9903 36.0144L28.849 35.6247L27.5231 35.7003L27.7176 35.0335L26.6961 34.6667L25.8863 34.8411L25.1517 34.2787L24.7109 34.9498L24.2235 34.1097L23.0127 32.7822L21.9759 33.9168L22.0282 34.2472L20.8202 34.6537L19.4594 34.5705L20.105 33.8994L19.4856 33.1251L17.5027 33.8847L17.5505 33.1723L16.1855 32.3453L15.5628 32.717L14.7504 32.3339L14.8351 31.6975L14.1368 31.7492L12.267 32.6137L11.6453 33.2653L11.128 33.3006L10.4939 32.8941L9.99338 33.4794L8.97764 33.4011L7.40503 33.9559L6.92311 33.5929L5.76077 33.6772L5.08417 33.131L4.62878 33.3299L4.20773 32.824L3.24141 32.8789L2.4328 33.4158L1.88836 33.0664L1.87974 32.4311L0.998824 31.7405L1.65089 31.3644L1.50197 30.3374L0.573955 30.1575L0.373294 29.4234L0.797168 28.3431L1.74657 28.0165L2.80626 28.4045L2.87906 29.0441L3.70658 28.9533L4.17987 27.9257L3.19746 26.3787L2.88603 25.4309L3.14473 24.217L2.61173 23.3209L2.4998 22.3417L1.52104 21.2049L1.79268 20.4158L0.92652 20.1485L1.30363 19.4127L1.27809 18.7166L2.18239 17.3641L3.25451 16.4593L3.0643 15.8632L3.63759 15.3795L3.68552 14.6905L3.03992 14.265L2.51605 14.4644L2.35137 15.1605L1.34326 15.0307L1.04277 14.6639L1.79931 13.8727L2.1726 12.8114L1.24824 12.494L1.51507 11.5213L0.927681 10.5981L1.13365 10.2438L0.232003 9.34933L1.06731 8.49183L1.03299 7.51153L0.724864 6.68935L1.22386 5.91119L1.25421 5.2102L2.33827 4.73526L2.01821 3.693L1.32154 3.95927L0.609775 4.69831L0 3.90167L0.973783 3.13166L0.85206 1.76825L1.26996 1.91551L2.10246 1.42917L1.94375 0.740121L2.24325 0L2.79697 0.404839L3.49912 0.311915Z"/>
</mask>
<path d="M3.49912 0.311915L3.88103 0.781963L4.43476 0.530366L4.85863 1.40091L5.55365 1.39493L5.51882 3.15068L5.90472 3.53759L6.60355 3.39521L7.08928 3.76799L7.5692 3.68104L8.36256 2.87517L9.00915 2.49152L9.57929 3.5941L10.4139 2.71922L10.6595 3.07949L11.473 2.90071L11.7584 3.14307L12.6913 3.00016L12.756 3.34196L13.5102 3.70333L13.8792 4.59615L15.2757 3.93265L16.0464 4.32716L16.623 4.1462L17.4636 3.4664L18.4856 3.41912L18.9732 3.73321L19.8231 3.49194L21.9086 4.1875L22.59 4.71352L23.1443 4.33585L23.7018 4.67874L23.7763 5.29986L25.1407 6.11551L25.7837 6.14866L26.4114 5.8112L27.8866 6.30951L28.1823 7.31209L29.0821 8.1522L29.4702 7.5425L30.1194 7.33329L31.3221 7.94625L31.7688 8.35979L32.3474 8.24839L32.3997 9.13903L32.7708 9.53899L33.2718 8.82712L33.9179 8.88961L34.627 9.51616L34.6439 10.3802L35.4172 10.9317L35.9812 10.6242L36.3747 8.95427L36.8915 8.05439L37.6158 7.82018L38.0218 8.1158L38.6999 7.77942L39.3916 8.29621L40.4579 8.64345L40.9224 8.16307L40.5725 7.15831L40.7186 6.15735L41.2186 5.88239L42.8 5.78458L42.7065 5.21725L43.89 4.19348L43.401 3.48324L44.0894 3.09199L44.3464 3.70495L45.1486 3.38869L45.7522 4.32173L46.4343 5.05587L46.4321 3.96525L46.9135 4.00981L48.2138 3.19361L49.3616 4.78253L49.8289 3.98698L50.3468 3.87722L50.2957 3.06102L50.7402 2.82572L51.8917 3.30446L52.6916 3.29523L52.9333 3.85765L52.5839 4.70482L52.9013 4.95697L52.339 5.65416L52.2173 6.47471L52.4839 7.53978L51.7732 8.05114L52.8464 9.23956L53.4257 10.6915L52.9708 11.3333L53.2584 11.642L52.9682 12.6136L53.0508 13.4472L52.8047 13.8281L51.8662 13.9879L52.0237 14.6736L52.8171 15.3594L52.91 16.136L52.4383 16.2332L52.2834 16.8082L54.0539 17.6118L54.3174 18.3759L53.166 18.8894L52.3411 18.4835L51.7607 18.8302L51.9368 20.0996L51.6689 21.2896L51.8271 22.008L51.17 22.2928L51.0967 23.5622L50.5929 23.7692L49.5735 24.5821L48.3883 24.0599L48.0809 24.4637L47.0195 25.1169L47.5999 25.7005L47.2799 26.1716L48.8269 26.9487L49.7093 27.1095L49.3138 27.7203L49.2769 28.636L49.5094 28.9403L49.6909 30.7265L49.1953 31.0454L48.0666 29.9847L46.813 30.3662L47.2515 31.1688L47.1353 32.4485L47.7319 32.8642L48.2253 32.7349L48.9231 32.9599L49.1725 33.6652L49.7327 33.3951L49.2556 32.38L48.7981 32.8539L48.4117 32.6507L48.3394 31.2123L48.9817 31.0215L49.6105 31.5709L50.0724 31.4307L50.7354 32.3094L52.1106 32.1127L52.6469 32.5784L52.5314 33.199L52.8144 34.1499L53.572 34.119L53.3653 34.7325L52.4123 35.0341L52.4247 35.8334L51.8368 35.8687L50.9815 36.617L50.3685 37.7924L50.3365 38.4195L48.6415 38.0907L47.4885 39.0634L47.0445 38.1195L46.425 38.3602L46.1708 38.895L45.4985 38.877L44.6829 38.4336L43.5406 39.302L42.9841 39.1118L42.6179 38.4716L41.6919 38.3276L41.2957 37.7576L40.3589 38.2521L40.4883 38.9966L39.2569 39.8247L38.545 39.8399L38.3696 39.0248L37.4974 39.571L36.279 38.1195L35.4439 37.568L34.695 37.4788L33.2278 38.7488L32.8143 38.094L32.0302 37.7L31.8101 36.918L31.1249 36.5116L31.0493 37.65L29.5342 37.2658L29.8631 36.3676L28.9903 36.0144L28.849 35.6247L27.5231 35.7003L27.7176 35.0335L26.6961 34.6667L25.8863 34.8411L25.1517 34.2787L24.7109 34.9498L24.2235 34.1097L23.0127 32.7822L21.9759 33.9168L22.0282 34.2472L20.8202 34.6537L19.4594 34.5705L20.105 33.8994L19.4856 33.1251L17.5027 33.8847L17.5505 33.1723L16.1855 32.3453L15.5628 32.717L14.7504 32.3339L14.8351 31.6975L14.1368 31.7492L12.267 32.6137L11.6453 33.2653L11.128 33.3006L10.4939 32.8941L9.99338 33.4794L8.97764 33.4011L7.40503 33.9559L6.92311 33.5929L5.76077 33.6772L5.08417 33.131L4.62878 33.3299L4.20773 32.824L3.24141 32.8789L2.4328 33.4158L1.88836 33.0664L1.87974 32.4311L0.998824 31.7405L1.65089 31.3644L1.50197 30.3374L0.573955 30.1575L0.373294 29.4234L0.797168 28.3431L1.74657 28.0165L2.80626 28.4045L2.87906 29.0441L3.70658 28.9533L4.17987 27.9257L3.19746 26.3787L2.88603 25.4309L3.14473 24.217L2.61173 23.3209L2.4998 22.3417L1.52104 21.2049L1.79268 20.4158L0.92652 20.1485L1.30363 19.4127L1.27809 18.7166L2.18239 17.3641L3.25451 16.4593L3.0643 15.8632L3.63759 15.3795L3.68552 14.6905L3.03992 14.265L2.51605 14.4644L2.35137 15.1605L1.34326 15.0307L1.04277 14.6639L1.79931 13.8727L2.1726 12.8114L1.24824 12.494L1.51507 11.5213L0.927681 10.5981L1.13365 10.2438L0.232003 9.34933L1.06731 8.49183L1.03299 7.51153L0.724864 6.68935L1.22386 5.91119L1.25421 5.2102L2.33827 4.73526L2.01821 3.693L1.32154 3.95927L0.609775 4.69831L0 3.90167L0.973783 3.13166L0.85206 1.76825L1.26996 1.91551L2.10246 1.42917L1.94375 0.740121L2.24325 0L2.79697 0.404839L3.49912 0.311915Z" fill="#F2F2F2" stroke="#07122B" mask="url(#path-1-inside-1_81_144)"/>
</svg>
