<svg width="68" height="44" viewBox="0 0 68 44" fill="none" xmlns="http://www.w3.org/2000/svg">
<mask id="path-1-inside-1_81_157" fill="white">
<path d="M0.705793 11.9707L1.41291 11.9533L2.0872 11.3572L2.4318 10.6013L3.42234 10.0242L5.37703 9.31944L6.29045 8.27175L5.69709 7.18059L6.43224 6.92138L7.5435 7.20124L7.92724 7.77779L8.6939 7.79681L9.42755 7.38111L10.3051 7.17841L11.0942 7.36969L11.4333 6.76488L12.7597 6.51437L14.153 6.01498L14.4318 5.43081L16.7571 5.43896L16.8082 5.89379L17.3787 6.6475L17.8884 6.76162L18.3133 7.55174L18.9742 8.08428L19.6659 7.03332L19.336 6.7263L19.6382 6.09757L20.4506 6.03509L20.6826 6.48937L21.3554 6.27255L23.1073 6.66543L23.8648 7.06158L25.2343 7.48054L25.5565 7.97125L26.1145 8.16578L27.1823 7.06593L29.3032 6.83824L29.6445 6.18289L30.3221 5.70849L30.8519 4.93577L32.6604 3.93861L33.8401 3.44411L34.158 2.17634L34.6998 1.55523L35.5437 1.46611L36.6631 0.836295L37.0648 1.31613L37.4158 2.31546L38.3281 2.04755L38.5352 1.49762L39.7155 1.10583L40.2768 1.50958L40.7931 0.322777L41.9244 0.0173816L42.2375 0.977586L43.1139 0.683603L43.9796 1.31722L44.8729 0.909117L45.4152 0.174427L45.9804 0L46.6842 0.163016L46.9276 0.883029L46.1076 2.18124L45.9615 3.13275L46.6663 3.67832L47.2389 3.78538L47.2081 4.44834L48.5079 4.64287L49.154 4.4103L49.9473 4.89936L50.8951 4.77329L52.0281 5.15205L53.0176 4.06306L53.4376 5.2341L53.9832 5.16944L54.1637 6.32635L54.7592 6.50622L54.1093 7.48599L54.6358 7.64139L55.4124 8.39564L56.2351 8.76788L57.1106 9.6694L58.5935 10.0634L58.976 10.6166L59.7037 11.1263L59.3119 11.4942L60.1873 12.707L59.6949 13.7607L59.0739 13.9645L58.6925 14.7215L59.4553 14.666L59.9591 15.0807L59.7765 16.0039L60.04 16.5728L60.552 16.7598L60.9122 16.3115L61.7914 16.525L61.6045 17.0597L62.1165 17.7765L62.1826 18.7802L61.8257 19.6426L62.9153 20.1534L63.1413 21.5103L63.7581 21.9961L64.6488 22.0374L66.3126 23.2068L65.7137 23.9431L66.8343 24.5952L67.3756 24.718L66.9288 25.7679L66.8761 27.1302L66.2083 27.4035L66.3305 28.2404L67.0293 29.2332L67.6988 29.45L66.5441 30.5928L66.7408 31.6459L66.3469 31.7345L65.2204 33.2468L64.8982 33.049L64.1965 34.0711L62.1675 34.7585L61.8611 34.4059L60.6618 34.9101L60.0531 35.9356L60.0487 36.4029L60.9644 37.5408L60.6823 38.7488L61.267 40.1975L62.3165 41.9152L61.41 42.3787L61.1317 42.9711L59.6624 43.8253L58.9037 43.2808L57.2736 40.5817L56.8893 39.6476L55.7466 39.1303L55.2618 39.3248L54.7038 40.1725L52.429 40.16L51.8634 39.8867L51.2564 39.0585L50.6743 38.889L49.9175 37.9277L50.4087 37.3941L49.8762 36.8371L49.4218 37.23L48.9094 36.8202L47.6014 36.7778L47.0575 35.9443L46.6754 36.3284L45.8131 35.2666L45.8484 34.232L45.4039 30.9976L45.7071 30.1646L44.7202 28.2887L44.0786 28.073L43.7562 27.616L43.1531 27.6073L42.7955 27.1291L41.8728 27.2063L40.2427 27.579L39.5835 27.5144L38.7183 28.1735L38.1135 27.9746L37.9946 28.8593L37.3333 28.4121L37.3538 29.5016L36.128 29.5674L35.391 31.0313L34.2651 31.1954L33.6957 32.0556L34.02 32.5414L32.5045 32.7055L31.8426 32.2268L31.6448 31.7426L30.1161 32.7583L29.6853 32.5969L29.6223 31.6448L29.7848 30.8911L29.6005 30.0157L29.8141 28.6561L29.012 28.7957L27.1105 28.862L26.2818 28.4441L26.278 27.5573L25.9412 26.2596L25.3522 25.4603L26.3923 24.5126L25.1255 23.7328L24.0371 22.4743L23.7165 22.8085L23.0703 22.5916L22.033 23.3399L22.7992 24.005L22.0721 24.537L21.7036 25.6331L21.2005 25.6939L20.8919 25.1929L19.905 24.7598L18.7959 25.9901L18.8317 26.6933L18.1493 26.721L17.983 26.2629L16.75 25.707L15.2258 25.1869L14.4079 25.3608L14.0845 25.957L13.5401 25.9483L12.9119 25.5423L12.6907 26.139L12.1527 26.3183L11.3849 27.5328L10.6708 27.7469L9.76453 27.5703L9.01678 28.336L7.71746 29.175L7.5294 27.5519L7.29093 26.9318L6.81217 26.9856L6.53555 27.6127L5.92429 27.873L4.7656 27.6046L4.53741 27.992L5.36393 28.8789L3.53162 29.5886L2.96811 29.0538L3.03975 27.9632L2.34159 27.9274L1.76001 28.5463L1.67858 27.5926L0.829175 26.8965L0.67926 26.2917L0 25.9629L0.468981 24.8468L1.14012 24.3903L2.01174 23.2252L2.45187 23.2448L3.18768 22.5145L3.33113 21.0489L4.01304 20.3734L3.97821 19.2442L3.59514 18.7367L3.21637 17.2537L3.70707 16.8929L3.81254 16.3761L4.55051 16.0387L4.32332 15.4616L3.53859 15.3192L2.56646 14.6633L2.04491 14.0677L1.928 13.4711L1.1688 13.0239L0.378269 13.1624L0.297176 12.3479L0.705793 11.9707Z"/>
</mask>
<path d="M0.705793 11.9707L1.41291 11.9533L2.0872 11.3572L2.4318 10.6013L3.42234 10.0242L5.37703 9.31944L6.29045 8.27175L5.69709 7.18059L6.43224 6.92138L7.5435 7.20124L7.92724 7.77779L8.6939 7.79681L9.42755 7.38111L10.3051 7.17841L11.0942 7.36969L11.4333 6.76488L12.7597 6.51437L14.153 6.01498L14.4318 5.43081L16.7571 5.43896L16.8082 5.89379L17.3787 6.6475L17.8884 6.76162L18.3133 7.55174L18.9742 8.08428L19.6659 7.03332L19.336 6.7263L19.6382 6.09757L20.4506 6.03509L20.6826 6.48937L21.3554 6.27255L23.1073 6.66543L23.8648 7.06158L25.2343 7.48054L25.5565 7.97125L26.1145 8.16578L27.1823 7.06593L29.3032 6.83824L29.6445 6.18289L30.3221 5.70849L30.8519 4.93577L32.6604 3.93861L33.8401 3.44411L34.158 2.17634L34.6998 1.55523L35.5437 1.46611L36.6631 0.836295L37.0648 1.31613L37.4158 2.31546L38.3281 2.04755L38.5352 1.49762L39.7155 1.10583L40.2768 1.50958L40.7931 0.322777L41.9244 0.0173816L42.2375 0.977586L43.1139 0.683603L43.9796 1.31722L44.8729 0.909117L45.4152 0.174427L45.9804 0L46.6842 0.163016L46.9276 0.883029L46.1076 2.18124L45.9615 3.13275L46.6663 3.67832L47.2389 3.78538L47.2081 4.44834L48.5079 4.64287L49.154 4.4103L49.9473 4.89936L50.8951 4.77329L52.0281 5.15205L53.0176 4.06306L53.4376 5.2341L53.9832 5.16944L54.1637 6.32635L54.7592 6.50622L54.1093 7.48599L54.6358 7.64139L55.4124 8.39564L56.2351 8.76788L57.1106 9.6694L58.5935 10.0634L58.976 10.6166L59.7037 11.1263L59.3119 11.4942L60.1873 12.707L59.6949 13.7607L59.0739 13.9645L58.6925 14.7215L59.4553 14.666L59.9591 15.0807L59.7765 16.0039L60.04 16.5728L60.552 16.7598L60.9122 16.3115L61.7914 16.525L61.6045 17.0597L62.1165 17.7765L62.1826 18.7802L61.8257 19.6426L62.9153 20.1534L63.1413 21.5103L63.7581 21.9961L64.6488 22.0374L66.3126 23.2068L65.7137 23.9431L66.8343 24.5952L67.3756 24.718L66.9288 25.7679L66.8761 27.1302L66.2083 27.4035L66.3305 28.2404L67.0293 29.2332L67.6988 29.45L66.5441 30.5928L66.7408 31.6459L66.3469 31.7345L65.2204 33.2468L64.8982 33.049L64.1965 34.0711L62.1675 34.7585L61.8611 34.4059L60.6618 34.9101L60.0531 35.9356L60.0487 36.4029L60.9644 37.5408L60.6823 38.7488L61.267 40.1975L62.3165 41.9152L61.41 42.3787L61.1317 42.9711L59.6624 43.8253L58.9037 43.2808L57.2736 40.5817L56.8893 39.6476L55.7466 39.1303L55.2618 39.3248L54.7038 40.1725L52.429 40.16L51.8634 39.8867L51.2564 39.0585L50.6743 38.889L49.9175 37.9277L50.4087 37.3941L49.8762 36.8371L49.4218 37.23L48.9094 36.8202L47.6014 36.7778L47.0575 35.9443L46.6754 36.3284L45.8131 35.2666L45.8484 34.232L45.4039 30.9976L45.7071 30.1646L44.7202 28.2887L44.0786 28.073L43.7562 27.616L43.1531 27.6073L42.7955 27.1291L41.8728 27.2063L40.2427 27.579L39.5835 27.5144L38.7183 28.1735L38.1135 27.9746L37.9946 28.8593L37.3333 28.4121L37.3538 29.5016L36.128 29.5674L35.391 31.0313L34.2651 31.1954L33.6957 32.0556L34.02 32.5414L32.5045 32.7055L31.8426 32.2268L31.6448 31.7426L30.1161 32.7583L29.6853 32.5969L29.6223 31.6448L29.7848 30.8911L29.6005 30.0157L29.8141 28.6561L29.012 28.7957L27.1105 28.862L26.2818 28.4441L26.278 27.5573L25.9412 26.2596L25.3522 25.4603L26.3923 24.5126L25.1255 23.7328L24.0371 22.4743L23.7165 22.8085L23.0703 22.5916L22.033 23.3399L22.7992 24.005L22.0721 24.537L21.7036 25.6331L21.2005 25.6939L20.8919 25.1929L19.905 24.7598L18.7959 25.9901L18.8317 26.6933L18.1493 26.721L17.983 26.2629L16.75 25.707L15.2258 25.1869L14.4079 25.3608L14.0845 25.957L13.5401 25.9483L12.9119 25.5423L12.6907 26.139L12.1527 26.3183L11.3849 27.5328L10.6708 27.7469L9.76453 27.5703L9.01678 28.336L7.71746 29.175L7.5294 27.5519L7.29093 26.9318L6.81217 26.9856L6.53555 27.6127L5.92429 27.873L4.7656 27.6046L4.53741 27.992L5.36393 28.8789L3.53162 29.5886L2.96811 29.0538L3.03975 27.9632L2.34159 27.9274L1.76001 28.5463L1.67858 27.5926L0.829175 26.8965L0.67926 26.2917L0 25.9629L0.468981 24.8468L1.14012 24.3903L2.01174 23.2252L2.45187 23.2448L3.18768 22.5145L3.33113 21.0489L4.01304 20.3734L3.97821 19.2442L3.59514 18.7367L3.21637 17.2537L3.70707 16.8929L3.81254 16.3761L4.55051 16.0387L4.32332 15.4616L3.53859 15.3192L2.56646 14.6633L2.04491 14.0677L1.928 13.4711L1.1688 13.0239L0.378269 13.1624L0.297176 12.3479L0.705793 11.9707Z" fill="#F2F2F2" stroke="#07122B" mask="url(#path-1-inside-1_81_157)"/>
</svg>
