<svg width="61" height="58" viewBox="0 0 61 58" fill="none" xmlns="http://www.w3.org/2000/svg">
<mask id="path-1-inside-1_81_111" fill="white">
<path d="M19.2854 0L19.3806 0.0717294L19.6382 0.265183L20.8158 1.67859L21.3325 2.57304L21.4483 3.38163L21.8733 4.02991L21.9123 4.6494L22.3786 5.37648L22.6041 6.21985L23.3355 7.91691L23.3817 8.53639L23.8562 9.31184L24.2087 11.5643L24.8577 11.8066L25.5923 12.7994L26.2825 13.1825L26.9563 12.944L27.6153 13.1776L28.9511 13.2858L29.6418 13.6107L30.3634 13.4292L31.0536 13.6363L30.7824 14.6726L29.7641 15.0921L28.8342 15.6795L28.8619 16.224L29.7118 17.3831L30.6357 18.0803L29.7461 18.8981L30.3662 19.7121L31.0324 19.1263L32.1556 20.5088L32.9419 20.6919L33.7864 21.582L34.6824 22.0298L35.9926 21.2978L36.1175 22.0281L36.7784 22.3275L37.2168 21.8912L37.9147 21.6553L38.4835 22.027L38.9825 21.7955L39.5938 22.8047L40.0665 22.5134L41.2468 22.2482L41.1604 21.7537L42.6189 21.9597L43.4829 23.3492L44.3812 22.358L45.5429 21.8629L44.5811 20.969L44.7121 20.1191L45.594 20.2061L46.2673 19.8529L47.278 20.4897L48.3981 22.0135L47.1319 22.4911L46.0771 23.4426L45.4305 24.7984L46.12 25.0272L46.4379 25.9043L46.2723 26.7161L45.6233 26.765L45.9011 27.6225L46.8059 28.148L48.0943 27.8964L49.0425 27.4296L49.1371 28.0078L48.7807 28.7224L48.8425 29.1799L49.8934 29.6434L50.608 29.1555L52.1226 29.0424L53.0751 29.8831L53.3687 29.9124L53.9489 30.7216L53.674 32.3127L53.8076 32.98L54.3468 32.8267L55.2385 32.1985L56.0117 32.8659L55.7287 33.9315L55.0091 33.9135L54.3 34.8102L53.2491 35.4161L53.0164 36.1388L53.3789 37.3446L54.9234 38.5483L55.7151 39.9921L56.3089 40.5458L55.5297 40.9447L54.9549 41.5501L53.6572 42.2375L53.8692 43.2259L54.4451 43.1509L54.9912 42.4592L55.3167 42.7352L56.2036 42.7798L58.3789 43.2004L58.6994 43.3563L58.6202 44.2899L59.6596 44.6382L60.1372 45.2909L59.715 45.8419L58.4608 45.8598L58.0424 46.9809L58.9663 48.0182L58.2739 48.8752L57.0524 48.9888L57.455 49.9593L57.9626 50.5902L56.8034 51.2406L57.4056 53.1323L56.9932 53.9311L56.5313 54.1251L56.3127 55.2412L56.5301 55.3613L55.9454 55.8498L54.8836 55.282L53.7718 55.1184L52.0422 55.9998L52.046 55.6569L51.202 55.3434L50.1554 56.4258L49.4039 56.2987L48.7599 56.6997L48.6002 57.3083L47.8399 56.8236L48.4828 56.3764L48.6072 55.9118L48.1878 54.9679L47.4334 54.1875L45.4142 55.8536L44.1018 56.2362L43.7123 55.6814L44.5045 54.9646L44.3197 54.5348L45.1713 53.2208L44.9801 51.7922L44.4469 52.1492L44.0013 51.9992L43.3211 51.2488L42.4726 51.0635L42.6635 52.1416L42.0559 52.3563L42.2287 52.923L42.8237 53.3654L42.3053 53.8055L41.8017 53.1078L40.4942 52.6975L39.9105 52.8763L39.4491 52.1987L38.1999 52.3296L37.4049 51.7281L37.8961 50.8342L36.8815 50.2593L36.4714 50.6625L36.5474 51.3222L36.0039 51.9058L35.3774 50.7635L35.333 50.3527L33.8945 50.5848L33.1147 50.9043L32.1974 53.3735L31.6639 53.067L31.2161 52.3753L30.182 52.1704L30.3378 51.3368L31.2448 48.9757L32.0708 48.2041L32.9604 48.1639L33.6625 47.6563L34.601 47.2651L34.2466 46.5059L33.7962 46.4244L33.0164 45.4077L31.6073 45.2806L31.2357 44.9925L30.8058 45.5506L30.4281 45.4648L29.8743 46.5157L29.3669 45.9533L28.6452 44.7534L28.18 45.0621L28.5621 45.6588L27.3594 46.2668L26.2906 45.2838L25.3505 46.1429L24.6789 46.3261L24.1963 45.8778L23.6018 46.325L22.7502 46.4261L22.233 47.2515L21.7411 47.076L21.3158 46.5065L20.7984 46.3288L19.8241 46.6076L18.8384 45.3773L18.746 44.5643L19.2007 44.0731L18.102 43.6313L17.7346 43.1156L16.7641 43.0656L14.7834 41.706L14.3421 41.8864L13.9475 41.0659L14.997 40.1964L14.6709 39.5269L14.1172 39.4112L13.3291 40.5083L12.595 40.3872L11.7837 39.9568L11.6484 39.215L10.1579 38.608L9.05857 37.7337L7.56423 37.6321L6.58282 38.1076L6.32577 38.539L5.4689 38.6673L4.19944 39.4063L3.30609 38.3988L2.90659 37.9565L2.54043 37.0403L0.798164 36.5768L0.477107 35.7454L0 35.6008L0.278271 34.2977L0.662345 31.3579L0.767318 28.7381L1.03564 27.4263L1.44442 27.9659L2.58935 28.3914L2.3459 27.679L0.878096 25.8896L0.720055 21.5336L0.155885 18.0466L0.626524 17.0434L0.268487 16.669L1.36665 16.1941L1.4819 14.9693L1.8547 13.8987L1.85951 12.7815L0.809109 8.81951L0.936802 8.03048L1.77045 8.05494L3.13428 7.63108L4.36577 6.4296L5.63076 4.75102L6.77684 3.86091L8.53038 3.03765L10.3393 2.5763L11.5844 1.97366L12.399 2.04321L12.9205 1.5748L13.9737 1.28353L14.484 1.44601L16.0881 0.862931L17.921 0.65535L18.1818 0.249424L19.2854 0ZM52.9654 50.5744L53.3078 50.9776L53.2327 51.6803L54.1315 51.783L54.5723 50.9505L55.9253 50.8988L55.7101 49.9767L56.2578 49.6414L56.4845 48.6068L55.4705 48.6665L54.6847 49.2811L53.3506 49.8039L52.9654 50.5744Z"/>
</mask>
<path d="M19.2854 0L19.3806 0.0717294L19.6382 0.265183L20.8158 1.67859L21.3325 2.57304L21.4483 3.38163L21.8733 4.02991L21.9123 4.6494L22.3786 5.37648L22.6041 6.21985L23.3355 7.91691L23.3817 8.53639L23.8562 9.31184L24.2087 11.5643L24.8577 11.8066L25.5923 12.7994L26.2825 13.1825L26.9563 12.944L27.6153 13.1776L28.9511 13.2858L29.6418 13.6107L30.3634 13.4292L31.0536 13.6363L30.7824 14.6726L29.7641 15.0921L28.8342 15.6795L28.8619 16.224L29.7118 17.3831L30.6357 18.0803L29.7461 18.8981L30.3662 19.7121L31.0324 19.1263L32.1556 20.5088L32.9419 20.6919L33.7864 21.582L34.6824 22.0298L35.9926 21.2978L36.1175 22.0281L36.7784 22.3275L37.2168 21.8912L37.9147 21.6553L38.4835 22.027L38.9825 21.7955L39.5938 22.8047L40.0665 22.5134L41.2468 22.2482L41.1604 21.7537L42.6189 21.9597L43.4829 23.3492L44.3812 22.358L45.5429 21.8629L44.5811 20.969L44.7121 20.1191L45.594 20.2061L46.2673 19.8529L47.278 20.4897L48.3981 22.0135L47.1319 22.4911L46.0771 23.4426L45.4305 24.7984L46.12 25.0272L46.4379 25.9043L46.2723 26.7161L45.6233 26.765L45.9011 27.6225L46.8059 28.148L48.0943 27.8964L49.0425 27.4296L49.1371 28.0078L48.7807 28.7224L48.8425 29.1799L49.8934 29.6434L50.608 29.1555L52.1226 29.0424L53.0751 29.8831L53.3687 29.9124L53.9489 30.7216L53.674 32.3127L53.8076 32.98L54.3468 32.8267L55.2385 32.1985L56.0117 32.8659L55.7287 33.9315L55.0091 33.9135L54.3 34.8102L53.2491 35.4161L53.0164 36.1388L53.3789 37.3446L54.9234 38.5483L55.7151 39.9921L56.3089 40.5458L55.5297 40.9447L54.9549 41.5501L53.6572 42.2375L53.8692 43.2259L54.4451 43.1509L54.9912 42.4592L55.3167 42.7352L56.2036 42.7798L58.3789 43.2004L58.6994 43.3563L58.6202 44.2899L59.6596 44.6382L60.1372 45.2909L59.715 45.8419L58.4608 45.8598L58.0424 46.9809L58.9663 48.0182L58.2739 48.8752L57.0524 48.9888L57.455 49.9593L57.9626 50.5902L56.8034 51.2406L57.4056 53.1323L56.9932 53.9311L56.5313 54.1251L56.3127 55.2412L56.5301 55.3613L55.9454 55.8498L54.8836 55.282L53.7718 55.1184L52.0422 55.9998L52.046 55.6569L51.202 55.3434L50.1554 56.4258L49.4039 56.2987L48.7599 56.6997L48.6002 57.3083L47.8399 56.8236L48.4828 56.3764L48.6072 55.9118L48.1878 54.9679L47.4334 54.1875L45.4142 55.8536L44.1018 56.2362L43.7123 55.6814L44.5045 54.9646L44.3197 54.5348L45.1713 53.2208L44.9801 51.7922L44.4469 52.1492L44.0013 51.9992L43.3211 51.2488L42.4726 51.0635L42.6635 52.1416L42.0559 52.3563L42.2287 52.923L42.8237 53.3654L42.3053 53.8055L41.8017 53.1078L40.4942 52.6975L39.9105 52.8763L39.4491 52.1987L38.1999 52.3296L37.4049 51.7281L37.8961 50.8342L36.8815 50.2593L36.4714 50.6625L36.5474 51.3222L36.0039 51.9058L35.3774 50.7635L35.333 50.3527L33.8945 50.5848L33.1147 50.9043L32.1974 53.3735L31.6639 53.067L31.2161 52.3753L30.182 52.1704L30.3378 51.3368L31.2448 48.9757L32.0708 48.2041L32.9604 48.1639L33.6625 47.6563L34.601 47.2651L34.2466 46.5059L33.7962 46.4244L33.0164 45.4077L31.6073 45.2806L31.2357 44.9925L30.8058 45.5506L30.4281 45.4648L29.8743 46.5157L29.3669 45.9533L28.6452 44.7534L28.18 45.0621L28.5621 45.6588L27.3594 46.2668L26.2906 45.2838L25.3505 46.1429L24.6789 46.3261L24.1963 45.8778L23.6018 46.325L22.7502 46.4261L22.233 47.2515L21.7411 47.076L21.3158 46.5065L20.7984 46.3288L19.8241 46.6076L18.8384 45.3773L18.746 44.5643L19.2007 44.0731L18.102 43.6313L17.7346 43.1156L16.7641 43.0656L14.7834 41.706L14.3421 41.8864L13.9475 41.0659L14.997 40.1964L14.6709 39.5269L14.1172 39.4112L13.3291 40.5083L12.595 40.3872L11.7837 39.9568L11.6484 39.215L10.1579 38.608L9.05857 37.7337L7.56423 37.6321L6.58282 38.1076L6.32577 38.539L5.4689 38.6673L4.19944 39.4063L3.30609 38.3988L2.90659 37.9565L2.54043 37.0403L0.798164 36.5768L0.477107 35.7454L0 35.6008L0.278271 34.2977L0.662345 31.3579L0.767318 28.7381L1.03564 27.4263L1.44442 27.9659L2.58935 28.3914L2.3459 27.679L0.878096 25.8896L0.720055 21.5336L0.155885 18.0466L0.626524 17.0434L0.268487 16.669L1.36665 16.1941L1.4819 14.9693L1.8547 13.8987L1.85951 12.7815L0.809109 8.81951L0.936802 8.03048L1.77045 8.05494L3.13428 7.63108L4.36577 6.4296L5.63076 4.75102L6.77684 3.86091L8.53038 3.03765L10.3393 2.5763L11.5844 1.97366L12.399 2.04321L12.9205 1.5748L13.9737 1.28353L14.484 1.44601L16.0881 0.862931L17.921 0.65535L18.1818 0.249424L19.2854 0ZM52.9654 50.5744L53.3078 50.9776L53.2327 51.6803L54.1315 51.783L54.5723 50.9505L55.9253 50.8988L55.7101 49.9767L56.2578 49.6414L56.4845 48.6068L55.4705 48.6665L54.6847 49.2811L53.3506 49.8039L52.9654 50.5744Z" fill="#F2F2F2" stroke="#07122B" mask="url(#path-1-inside-1_81_111)"/>
</svg>
