<svg width="59" height="51" viewBox="0 0 59 51" fill="none" xmlns="http://www.w3.org/2000/svg">
<mask id="path-1-inside-1_81_105" fill="white">
<path d="M6.51449 5.88782L7.41763 6.74096L8.15659 6.61545L9.27929 7.20287L9.80201 6.87846L10.5796 5.13193L10.5199 4.33965L11.5932 3.87123L12.2935 3.84298L12.6212 3.11318L12.205 2.22743L12.6207 1.70684L14.0081 2.22851L14.6499 2.93656L15.3464 3.0132L15.7762 2.6779L15.7833 1.19441L16.5404 0.123899L18.5025 0L19.5317 0.181486L20.2186 0.627084L20.1072 1.58294L19.2971 2.29862L19.1612 2.68226L19.5725 3.44899L19.2665 4.07827L20.8599 4.68907L20.8902 5.93944L21.1191 6.56652L22.2673 6.91865L22.8993 7.46914L23.0846 8.04243L23.9247 7.78267L24.2751 8.14513L25.1538 7.84192L25.8417 7.91147L26.225 8.52226L26.1217 9.06186L26.6961 9.17109L27.3389 9.81013L28.7191 10.0074L29.311 9.50528L30.4065 9.51289L31.1194 10.1231L32.867 9.9661L34.8532 10.578L35.8802 10.6867L36.4633 10.2552L37.9827 9.6308L38.4798 10.2492L39.2694 10.0721L39.7672 12.2294L40.278 12.7337L41.3262 12.7174L42.2494 12.2984L43.8254 12.5315L44.3328 12.2071L45.4469 14.0433L45.723 15.3931L47.445 15.7164L47.4489 16.1821L48.084 17.1663L49.2089 17.6711L49.774 18.3145L50.2996 19.5246L49.7473 20.2528L49.0757 20.3104L49.3485 21.1239L48.9871 21.5385L49.3274 22.4058L48.7377 24.1061L48.1281 24.3392L49.7241 25.82L49.3327 26.3699L50.0191 27.1802L50.4647 27.0335L51.3576 28.999L51.1015 29.3386L52.0357 31.4367L52.6508 32.1784L52.8741 32.9566L54.1539 33.3386L54.2317 33.85L54.9635 34.4711L55.7983 34.6749L56.959 35.766L57.6769 36.9593L57.3583 37.5283L58.0638 39.7345L58.7951 40.1546L58.7311 40.8463L58.1311 41.3729L58.3631 42.1228L58.0061 43.2754L56.4117 43.8726L55.6205 44.6208L55.2837 45.6055L55.3613 46.7597L55.5864 47.4221L54.5386 47.477L53.9861 47.2678L53.2899 46.1337L51.9786 45.6566L51.6684 46.2098L51.6189 47.5781L49.9246 47.6188L49.1807 47.3053L48.2716 47.2591L47.9498 46.5488L47.3417 46.1897L46.9651 47.17L46.2679 47.2922L46.2441 47.7422L45.3023 48.4258L44.2351 47.3852L44.1731 46.4798L43.3237 45.3941L42.4695 45.23L41.1203 44.4774L41.079 43.9073L40.1845 44.0497L39.3558 45.1441L36.4242 45.1023L36.2568 44.7165L35.3922 44.128L34.8097 44.7513L34.3288 44.7399L33.6962 44.085L33.4071 44.1644L33.1963 45.1039L31.86 45.7582L30.9727 45.7354L30.5586 46.7673L29.8549 46.7206L29.1626 47.02L28.6599 47.6857L27.7943 47.7628L26.3319 47.5281L25.5054 48.5057L24.856 48.6986L24.9582 49.3501L24.1111 50.4511L22.4222 50.7331L21.3267 50.018L20.6033 49.9245L20.0839 49.0529L19.5649 47.1395L18.8199 46.7037L18.1656 46.0006L17.5972 46.4005L17.0516 45.5642L16.2502 45.7093L15.9158 45.1403L14.2303 45.8283L13.72 45.8903L13.0064 45.5033L11.8453 46.0196L10.7051 44.7605L10.9025 43.2156L9.89122 43.3042L9.6244 42.8966L8.75658 42.8722L8.58262 41.9842L7.89407 42.5385L7.19093 42.5173L6.61598 41.7707L5.72976 41.881L5.38201 41.0344L4.72547 40.7893L4.37555 41.011L4.58865 40.3078L4.36312 39.6639L4.81087 38.733L4.77008 37.4978L3.70774 36.6735L3.76213 36.3235L3.12897 35.7617L2.71273 34.6678L3.34804 34.0298L3.48701 32.5257L4.69346 32.5784L5.05747 31.6595L4.53641 30.9797L5.05813 30.1526L4.55383 28.3458L3.77192 27.3622L3.11322 26.9346L2.83113 26.3216L2.028 26.2732L1.62966 25.6673L1.56946 24.7604L0 22.8318L0.483077 22.045L1.5222 22.2781L2.07211 21.6977L1.97808 20.574L3.76263 20.5343L4.60325 19.3073L5.59328 18.7323L6.03954 18.052L5.58632 17.6874L5.96061 16.6065L6.63887 16.2827L6.40023 15.8186L7.78214 15.392L8.17997 14.9698L7.5105 13.9205L7.83056 12.5136L7.75278 11.6262L6.83721 11.0975L6.17702 9.81938L5.93838 8.82656L5.84004 7.44904L6.23291 6.83118L6.51449 5.88782Z"/>
</mask>
<path d="M6.51449 5.88782L7.41763 6.74096L8.15659 6.61545L9.27929 7.20287L9.80201 6.87846L10.5796 5.13193L10.5199 4.33965L11.5932 3.87123L12.2935 3.84298L12.6212 3.11318L12.205 2.22743L12.6207 1.70684L14.0081 2.22851L14.6499 2.93656L15.3464 3.0132L15.7762 2.6779L15.7833 1.19441L16.5404 0.123899L18.5025 0L19.5317 0.181486L20.2186 0.627084L20.1072 1.58294L19.2971 2.29862L19.1612 2.68226L19.5725 3.44899L19.2665 4.07827L20.8599 4.68907L20.8902 5.93944L21.1191 6.56652L22.2673 6.91865L22.8993 7.46914L23.0846 8.04243L23.9247 7.78267L24.2751 8.14513L25.1538 7.84192L25.8417 7.91147L26.225 8.52226L26.1217 9.06186L26.6961 9.17109L27.3389 9.81013L28.7191 10.0074L29.311 9.50528L30.4065 9.51289L31.1194 10.1231L32.867 9.9661L34.8532 10.578L35.8802 10.6867L36.4633 10.2552L37.9827 9.6308L38.4798 10.2492L39.2694 10.0721L39.7672 12.2294L40.278 12.7337L41.3262 12.7174L42.2494 12.2984L43.8254 12.5315L44.3328 12.2071L45.4469 14.0433L45.723 15.3931L47.445 15.7164L47.4489 16.1821L48.084 17.1663L49.2089 17.6711L49.774 18.3145L50.2996 19.5246L49.7473 20.2528L49.0757 20.3104L49.3485 21.1239L48.9871 21.5385L49.3274 22.4058L48.7377 24.1061L48.1281 24.3392L49.7241 25.82L49.3327 26.3699L50.0191 27.1802L50.4647 27.0335L51.3576 28.999L51.1015 29.3386L52.0357 31.4367L52.6508 32.1784L52.8741 32.9566L54.1539 33.3386L54.2317 33.85L54.9635 34.4711L55.7983 34.6749L56.959 35.766L57.6769 36.9593L57.3583 37.5283L58.0638 39.7345L58.7951 40.1546L58.7311 40.8463L58.1311 41.3729L58.3631 42.1228L58.0061 43.2754L56.4117 43.8726L55.6205 44.6208L55.2837 45.6055L55.3613 46.7597L55.5864 47.4221L54.5386 47.477L53.9861 47.2678L53.2899 46.1337L51.9786 45.6566L51.6684 46.2098L51.6189 47.5781L49.9246 47.6188L49.1807 47.3053L48.2716 47.2591L47.9498 46.5488L47.3417 46.1897L46.9651 47.17L46.2679 47.2922L46.2441 47.7422L45.3023 48.4258L44.2351 47.3852L44.1731 46.4798L43.3237 45.3941L42.4695 45.23L41.1203 44.4774L41.079 43.9073L40.1845 44.0497L39.3558 45.1441L36.4242 45.1023L36.2568 44.7165L35.3922 44.128L34.8097 44.7513L34.3288 44.7399L33.6962 44.085L33.4071 44.1644L33.1963 45.1039L31.86 45.7582L30.9727 45.7354L30.5586 46.7673L29.8549 46.7206L29.1626 47.02L28.6599 47.6857L27.7943 47.7628L26.3319 47.5281L25.5054 48.5057L24.856 48.6986L24.9582 49.3501L24.1111 50.4511L22.4222 50.7331L21.3267 50.018L20.6033 49.9245L20.0839 49.0529L19.5649 47.1395L18.8199 46.7037L18.1656 46.0006L17.5972 46.4005L17.0516 45.5642L16.2502 45.7093L15.9158 45.1403L14.2303 45.8283L13.72 45.8903L13.0064 45.5033L11.8453 46.0196L10.7051 44.7605L10.9025 43.2156L9.89122 43.3042L9.6244 42.8966L8.75658 42.8722L8.58262 41.9842L7.89407 42.5385L7.19093 42.5173L6.61598 41.7707L5.72976 41.881L5.38201 41.0344L4.72547 40.7893L4.37555 41.011L4.58865 40.3078L4.36312 39.6639L4.81087 38.733L4.77008 37.4978L3.70774 36.6735L3.76213 36.3235L3.12897 35.7617L2.71273 34.6678L3.34804 34.0298L3.48701 32.5257L4.69346 32.5784L5.05747 31.6595L4.53641 30.9797L5.05813 30.1526L4.55383 28.3458L3.77192 27.3622L3.11322 26.9346L2.83113 26.3216L2.028 26.2732L1.62966 25.6673L1.56946 24.7604L0 22.8318L0.483077 22.045L1.5222 22.2781L2.07211 21.6977L1.97808 20.574L3.76263 20.5343L4.60325 19.3073L5.59328 18.7323L6.03954 18.052L5.58632 17.6874L5.96061 16.6065L6.63887 16.2827L6.40023 15.8186L7.78214 15.392L8.17997 14.9698L7.5105 13.9205L7.83056 12.5136L7.75278 11.6262L6.83721 11.0975L6.17702 9.81938L5.93838 8.82656L5.84004 7.44904L6.23291 6.83118L6.51449 5.88782Z" fill="#F2F2F2" stroke="#07122B" mask="url(#path-1-inside-1_81_105)"/>
</svg>
