<svg width="68" height="42" viewBox="0 0 68 42" fill="none" xmlns="http://www.w3.org/2000/svg">
<mask id="path-1-inside-1_81_116" fill="white">
<path d="M9.83832 3.36421L10.9262 3.45442L11.5104 2.88006L12.1462 3.25824L12.0196 3.93642L13.2439 4.16573L13.733 5.05639L15.5061 5.16074L17.1689 4.64176L18.477 4.97219L19.5763 4.21411L21.1874 3.29303L21.9189 2.54693L22.9252 2.59747L23.3986 3.38486L24.0462 3.70712L23.723 4.34508L22.8404 4.59504L23.1448 5.333L24.7842 4.8374L25.1109 4.18261L25.9135 4.34724L26.4613 3.96578L27.0356 4.31357L27.9702 4.38422L28.8087 4.70262L29.3805 4.6032L29.5005 3.19522L29.9636 2.87297L31.0171 3.29303L31.366 2.94038L33.0804 2.31978L34.4525 2.8143L35.5953 1.80955L36.4008 2.05461L37.1784 1.63563L37.1517 1.01723L37.7326 0.98734L38.9503 2.05677L39.1482 2.59747L39.847 2.63823L39.9078 1.85573L40.4568 2.00353L41.2907 1.48078L42.3129 2.22198L42.6058 2.19483L43.8822 2.96646L45.2512 2.02203L45.53 2.7257L47.1759 1.70246L47.4394 1.22755L48.3306 0.592279L48.9963 0.472215L49.4349 0L50.076 0.556998L48.9213 1.50035L49.3425 2.35187L50.4075 1.92364L51.0369 1.42643L52.2883 1.5552L52.9823 1.78235L53.6076 2.32741L54.5272 1.99703L55.2802 1.43406L55.565 0.519478L56.3991 0.384157L57.0562 0.580878L58.2326 0.152693L58.4467 0.644476L59.4124 0.0108622L60.0651 0.808031L60.5307 0.535771L62.4153 0.712924L62.7213 2.00353L62.5244 2.67085L63.5776 2.45237L64.5187 4.27659L64.1639 5.31451L64.7421 5.49548L64.9949 6.59857L63.8581 6.68986L63.3934 8.21467L63.8309 8.53909L64.4187 9.44223L64.7507 8.5815L65.3827 7.74843L66.3572 8.8521L65.9388 9.73132L65.8393 11.3621L66.3212 11.6566L66.7799 12.5277L67.1124 12.7114L66.3603 13.7754L66.0011 13.4586L65.0546 13.5396L64.9116 14.24L64.2901 15.0149L64.4851 15.8794L65.0904 16.0821L65.3491 16.5723L65.1257 17.3064L64.3149 18.4182L64.1834 19.1649L63.3569 19.1263L63.4929 21.2581L61.6578 21.1076L60.8909 22.6753L60.609 23.7415L59.9057 24.0295L59.5362 24.6468L58.9891 24.4131L58.6875 25.0788L59.1047 25.576L58.682 27.003L59.0483 27.5655L58.6734 28.0512L57.7023 28.4903L56.8915 28.0431L56.4769 28.2822L56.5622 29.05L56.1655 29.7777L55.4124 29.9124L55.1869 30.5759L55.7069 33.2783L55.42 33.7663L54.6521 33.8972L54.0066 34.3939L54.0043 35.0145L54.6912 36.7605L54.4478 37.7859L54.0511 38.5227L53.6446 38.3553L52.898 38.7308L52.566 39.4389L51.4694 40.3235L50.9319 39.884L49.6478 40.4725L49.2946 40.0638L48.3736 39.7948L47.3613 38.8884L46.6374 39.6834L46.7233 40.3083L45.9603 40.6077L45.6789 41.3973L45.0746 41.2354L45.1794 40.3556L44.7381 39.8546L43.8541 39.9399L43.8003 38.6836L43.1493 38.3472L42.5526 37.587L41.6055 37.0365L41.431 36.4306L40.6893 36.1002L40.3888 36.2931L39.5372 35.9247L38.9813 35.3052L38.9362 34.5281L39.3274 34.0603L38.2901 31.8605L37.6825 31.7796L36.8751 32.0388L36.1333 32.6577L34.0917 32.6718L32.9152 32.4208L32.3138 32.023L31.8758 32.53L31.14 32.5365L30.0825 32.0714L29.1364 31.3448L28.9027 30.7547L26.4656 30.3145L26.0683 29.6548L25.0462 29.1745L23.9132 29.7472L23.8224 29.0125L23.097 28.4452L22.4557 28.5517L21.3249 27.7062L20.6853 27.41L20.0098 28.0578L19.4203 27.9866L19.1448 27.422L17.7558 26.5373L18.8677 24.218L17.2994 24.5202L16.888 24.7663L16.3815 25.6293L16.5006 27.4801L16.0832 28.7816L12.869 27.8719L11.7756 26.2232L12.0739 25.257L12.8864 24.775L13.8542 23.7502L14.2514 22.3715L14.3308 21.2217L15.017 20.6212L14.9693 19.022L15.2638 18.3906L15.1698 17.5765L14.153 16.5212L12.9754 16.7418L11.0159 16.0055L10.4856 15.3784L9.49438 15.367L8.30982 15.655L8.60053 16.1099L8.18147 17.2043L6.69741 17.4868L6.20289 16.857L5.88996 15.8072L6.17967 15.0018L5.70903 14.5932L4.46411 14.2949L3.20775 14.5856L2.84042 15.054L2.22733 15.2594L1.80246 14.2139L1.95901 13.5352L1.39815 13.3662L0.0119401 12.35L0.390707 11.8533L0 11.2284L1.84972 10.9964L3.93593 10.1481L4.53741 10.5736L4.75863 9.88132L5.35315 9.71287L6.17586 8.85807L6.98115 8.40107L8.17666 6.21657L8.26472 5.74925L8.97217 5.1879L9.83832 3.36421ZM61.7148 13.6455L61.9191 14.4198L63.2163 14.6872L63.6765 12.6494L63.5972 12.2701L62.5174 11.2817L62.049 11.4469L62.5289 12.1272L62.8048 13.2602L61.9435 13.132L61.7148 13.6455ZM60.8079 16.4691L61.5138 18.0314L62.8766 17.1929L63.069 16.4799L62.4582 15.7827L62.7082 14.9899L61.9349 14.5334L61.605 14.6954L60.8833 16.037L60.8079 16.4691Z"/>
</mask>
<path d="M9.83832 3.36421L10.9262 3.45442L11.5104 2.88006L12.1462 3.25824L12.0196 3.93642L13.2439 4.16573L13.733 5.05639L15.5061 5.16074L17.1689 4.64176L18.477 4.97219L19.5763 4.21411L21.1874 3.29303L21.9189 2.54693L22.9252 2.59747L23.3986 3.38486L24.0462 3.70712L23.723 4.34508L22.8404 4.59504L23.1448 5.333L24.7842 4.8374L25.1109 4.18261L25.9135 4.34724L26.4613 3.96578L27.0356 4.31357L27.9702 4.38422L28.8087 4.70262L29.3805 4.6032L29.5005 3.19522L29.9636 2.87297L31.0171 3.29303L31.366 2.94038L33.0804 2.31978L34.4525 2.8143L35.5953 1.80955L36.4008 2.05461L37.1784 1.63563L37.1517 1.01723L37.7326 0.98734L38.9503 2.05677L39.1482 2.59747L39.847 2.63823L39.9078 1.85573L40.4568 2.00353L41.2907 1.48078L42.3129 2.22198L42.6058 2.19483L43.8822 2.96646L45.2512 2.02203L45.53 2.7257L47.1759 1.70246L47.4394 1.22755L48.3306 0.592279L48.9963 0.472215L49.4349 0L50.076 0.556998L48.9213 1.50035L49.3425 2.35187L50.4075 1.92364L51.0369 1.42643L52.2883 1.5552L52.9823 1.78235L53.6076 2.32741L54.5272 1.99703L55.2802 1.43406L55.565 0.519478L56.3991 0.384157L57.0562 0.580878L58.2326 0.152693L58.4467 0.644476L59.4124 0.0108622L60.0651 0.808031L60.5307 0.535771L62.4153 0.712924L62.7213 2.00353L62.5244 2.67085L63.5776 2.45237L64.5187 4.27659L64.1639 5.31451L64.7421 5.49548L64.9949 6.59857L63.8581 6.68986L63.3934 8.21467L63.8309 8.53909L64.4187 9.44223L64.7507 8.5815L65.3827 7.74843L66.3572 8.8521L65.9388 9.73132L65.8393 11.3621L66.3212 11.6566L66.7799 12.5277L67.1124 12.7114L66.3603 13.7754L66.0011 13.4586L65.0546 13.5396L64.9116 14.24L64.2901 15.0149L64.4851 15.8794L65.0904 16.0821L65.3491 16.5723L65.1257 17.3064L64.3149 18.4182L64.1834 19.1649L63.3569 19.1263L63.4929 21.2581L61.6578 21.1076L60.8909 22.6753L60.609 23.7415L59.9057 24.0295L59.5362 24.6468L58.9891 24.4131L58.6875 25.0788L59.1047 25.576L58.682 27.003L59.0483 27.5655L58.6734 28.0512L57.7023 28.4903L56.8915 28.0431L56.4769 28.2822L56.5622 29.05L56.1655 29.7777L55.4124 29.9124L55.1869 30.5759L55.7069 33.2783L55.42 33.7663L54.6521 33.8972L54.0066 34.3939L54.0043 35.0145L54.6912 36.7605L54.4478 37.7859L54.0511 38.5227L53.6446 38.3553L52.898 38.7308L52.566 39.4389L51.4694 40.3235L50.9319 39.884L49.6478 40.4725L49.2946 40.0638L48.3736 39.7948L47.3613 38.8884L46.6374 39.6834L46.7233 40.3083L45.9603 40.6077L45.6789 41.3973L45.0746 41.2354L45.1794 40.3556L44.7381 39.8546L43.8541 39.9399L43.8003 38.6836L43.1493 38.3472L42.5526 37.587L41.6055 37.0365L41.431 36.4306L40.6893 36.1002L40.3888 36.2931L39.5372 35.9247L38.9813 35.3052L38.9362 34.5281L39.3274 34.0603L38.2901 31.8605L37.6825 31.7796L36.8751 32.0388L36.1333 32.6577L34.0917 32.6718L32.9152 32.4208L32.3138 32.023L31.8758 32.53L31.14 32.5365L30.0825 32.0714L29.1364 31.3448L28.9027 30.7547L26.4656 30.3145L26.0683 29.6548L25.0462 29.1745L23.9132 29.7472L23.8224 29.0125L23.097 28.4452L22.4557 28.5517L21.3249 27.7062L20.6853 27.41L20.0098 28.0578L19.4203 27.9866L19.1448 27.422L17.7558 26.5373L18.8677 24.218L17.2994 24.5202L16.888 24.7663L16.3815 25.6293L16.5006 27.4801L16.0832 28.7816L12.869 27.8719L11.7756 26.2232L12.0739 25.257L12.8864 24.775L13.8542 23.7502L14.2514 22.3715L14.3308 21.2217L15.017 20.6212L14.9693 19.022L15.2638 18.3906L15.1698 17.5765L14.153 16.5212L12.9754 16.7418L11.0159 16.0055L10.4856 15.3784L9.49438 15.367L8.30982 15.655L8.60053 16.1099L8.18147 17.2043L6.69741 17.4868L6.20289 16.857L5.88996 15.8072L6.17967 15.0018L5.70903 14.5932L4.46411 14.2949L3.20775 14.5856L2.84042 15.054L2.22733 15.2594L1.80246 14.2139L1.95901 13.5352L1.39815 13.3662L0.0119401 12.35L0.390707 11.8533L0 11.2284L1.84972 10.9964L3.93593 10.1481L4.53741 10.5736L4.75863 9.88132L5.35315 9.71287L6.17586 8.85807L6.98115 8.40107L8.17666 6.21657L8.26472 5.74925L8.97217 5.1879L9.83832 3.36421ZM61.7148 13.6455L61.9191 14.4198L63.2163 14.6872L63.6765 12.6494L63.5972 12.2701L62.5174 11.2817L62.049 11.4469L62.5289 12.1272L62.8048 13.2602L61.9435 13.132L61.7148 13.6455ZM60.8079 16.4691L61.5138 18.0314L62.8766 17.1929L63.069 16.4799L62.4582 15.7827L62.7082 14.9899L61.9349 14.5334L61.605 14.6954L60.8833 16.037L60.8079 16.4691Z" fill="#F2F2F2" stroke="#07122B" mask="url(#path-1-inside-1_81_116)"/>
</svg>
