<svg width="36" height="48" viewBox="0 0 36 48" fill="none" xmlns="http://www.w3.org/2000/svg">
<mask id="path-1-inside-1_81_113" fill="white">
<path d="M8.41098 1.44326L9.16022 1.04986L9.32987 0.384696L10.2552 0L10.7688 0.344522L11.423 0.302649L11.7512 0.830294L11.8947 2.27849L12.3365 2.57032L12.5784 3.42561L13.099 3.35662L13.5739 3.86089L13.9336 4.73198L14.9318 4.47928L15.2976 5.01021L16.1294 4.73848L16.7924 5.92528L16.9511 7.31154L17.9636 8.10381L18.1206 8.5565L17.0457 8.96893L16.887 9.51453L17.349 9.98131L17.6375 10.7502L18.3956 10.5747L18.7705 12.0788L19.5959 12.3375L20.5274 12.343L21.2148 11.8626L22.2988 11.3855L22.9841 11.3045L23.0905 12.1511L24.0519 12.0788L24.0991 13.3064L25.4588 13.2542L26.4221 12.969L26.6026 14.0851L27.5611 14.3878L28.3236 14.3731L28.3964 13.7172L29.6984 14.1248L30.044 14.4139L30.7146 14.0384L33.5202 14.7807L34.3658 15.2306L35.4308 15.7637L34.6897 16.3517L34.6396 16.9119L33.9919 17.1005L32.8725 18.196L32.6469 19.0671L33.0784 19.1524L33.161 19.8056L32.6371 20.2734L31.7471 20.4452L31.0678 20.2131L30.6407 20.8603L30.8509 21.676L29.98 22.6014L29.4795 22.8448L28.273 24.3294L28.6394 24.4414L29.6294 25.282L30.5065 25.5271L30.4722 26.0998L31.5052 26.2433L31.5889 26.752L32.792 27.1813L32.6366 29.0212L31.8426 28.8571L31.6579 30.2374L31.9763 30.8856L32.8682 29.8858L33.4088 29.9858L34.3988 29.2076L34.6303 30.2444L35.1119 30.9204L34.5971 31.8546L34.8005 32.3317L35.7829 32.856L35.0809 33.9103L34.2821 34.2743L33.9706 35.4204L33.5756 35.9073L33.2033 37.4294L32.4128 37.9695L31.6464 37.7886L30.0435 37.1115L29.5831 37.055L29.4093 38.0293L28.9675 38.4564L29.1752 38.933L28.8127 40.1605L29.0979 41.4788L28.7506 42.451L29.0881 43.1183L29.037 44.0035L28.6165 44.441L29.65 45.4218L29.4576 45.9968L29.042 46.3483L27.5606 46.4956L26.5966 45.9316L26.4711 45.355L25.8309 45.3093L25.2767 44.8165L24.8087 45.3197L23.9822 45.7593L23.929 46.6793L22.8662 47.3536L22.0499 46.519L21.5831 45.1936L20.3567 45.1474L19.5959 44.5475L18.7835 44.2312L17.1099 44.9176L16.9072 45.224L15.9084 45.5017L15.3165 45.1599L14.8303 45.2849L14.5835 45.8386L13.7733 46.2212L12.8925 45.8908L12.0562 46.7309L11.3779 46.7613L10.8209 46.4766L9.70317 46.2712L9.46785 45.1115L8.04681 44.9284L7.96256 44.2817L6.57701 42.2141L5.82595 41.4517L5.01734 41.643L4.6918 41.2207L3.1769 40.5426L1.85039 39.5633L1.57593 39.1031L0.637967 38.8585L0.443443 38.5162L0.686888 37.4908L0 35.7448L0.00232169 35.1243L0.647751 34.6276L1.41573 34.4966L1.70263 34.0086L1.18257 31.3062L1.4081 30.6428L2.16116 30.508L2.55784 29.7803L2.4726 29.0125L2.88719 28.7734L3.69795 29.2207L4.66908 28.7816L5.04404 28.2958L4.67771 27.7334L5.10042 26.3064L4.68318 25.8091L4.98483 25.1435L5.53192 25.3771L5.9014 24.7598L6.60471 24.4718L6.88663 23.4057L7.65345 21.8379L9.48858 21.9884L9.35259 19.8567L10.1791 19.8952L10.3106 19.1486L11.1214 18.0368L11.3448 17.3026L11.0861 16.8125L10.4808 16.6098L10.2857 15.7452L10.9073 14.9703L11.0502 14.2699L11.9968 14.1889L12.356 14.5057L13.1081 13.4417L12.7756 13.258L12.3169 12.387L11.835 12.0924L11.9345 10.4617L12.3529 9.58244L11.3784 8.47877L10.7464 9.31184L10.4144 10.1726L9.82655 9.26943L9.38908 8.94501L9.85375 7.4202L10.9905 7.32891L10.7378 6.22582L10.1595 6.04485L10.5144 5.00693L9.57332 3.1827L8.5201 3.40119L8.71695 2.73387L8.41098 1.44326ZM7.7105 14.3759L7.93918 13.8623L8.80053 13.9906L8.52458 12.8576L8.04465 12.1772L8.51314 12.012L9.59289 13.0005L9.67216 13.3798L9.21196 15.4175L7.9148 15.1502L7.7105 14.3759ZM6.80354 17.1994L6.879 16.7674L7.60071 15.4257L7.93056 15.2638L8.70385 15.7202L8.45393 16.5131L9.0647 17.2103L8.87233 17.9232L7.5095 18.7617L6.80354 17.1994Z"/>
</mask>
<path d="M8.41098 1.44326L9.16022 1.04986L9.32987 0.384696L10.2552 0L10.7688 0.344522L11.423 0.302649L11.7512 0.830294L11.8947 2.27849L12.3365 2.57032L12.5784 3.42561L13.099 3.35662L13.5739 3.86089L13.9336 4.73198L14.9318 4.47928L15.2976 5.01021L16.1294 4.73848L16.7924 5.92528L16.9511 7.31154L17.9636 8.10381L18.1206 8.5565L17.0457 8.96893L16.887 9.51453L17.349 9.98131L17.6375 10.7502L18.3956 10.5747L18.7705 12.0788L19.5959 12.3375L20.5274 12.343L21.2148 11.8626L22.2988 11.3855L22.9841 11.3045L23.0905 12.1511L24.0519 12.0788L24.0991 13.3064L25.4588 13.2542L26.4221 12.969L26.6026 14.0851L27.5611 14.3878L28.3236 14.3731L28.3964 13.7172L29.6984 14.1248L30.044 14.4139L30.7146 14.0384L33.5202 14.7807L34.3658 15.2306L35.4308 15.7637L34.6897 16.3517L34.6396 16.9119L33.9919 17.1005L32.8725 18.196L32.6469 19.0671L33.0784 19.1524L33.161 19.8056L32.6371 20.2734L31.7471 20.4452L31.0678 20.2131L30.6407 20.8603L30.8509 21.676L29.98 22.6014L29.4795 22.8448L28.273 24.3294L28.6394 24.4414L29.6294 25.282L30.5065 25.5271L30.4722 26.0998L31.5052 26.2433L31.5889 26.752L32.792 27.1813L32.6366 29.0212L31.8426 28.8571L31.6579 30.2374L31.9763 30.8856L32.8682 29.8858L33.4088 29.9858L34.3988 29.2076L34.6303 30.2444L35.1119 30.9204L34.5971 31.8546L34.8005 32.3317L35.7829 32.856L35.0809 33.9103L34.2821 34.2743L33.9706 35.4204L33.5756 35.9073L33.2033 37.4294L32.4128 37.9695L31.6464 37.7886L30.0435 37.1115L29.5831 37.055L29.4093 38.0293L28.9675 38.4564L29.1752 38.933L28.8127 40.1605L29.0979 41.4788L28.7506 42.451L29.0881 43.1183L29.037 44.0035L28.6165 44.441L29.65 45.4218L29.4576 45.9968L29.042 46.3483L27.5606 46.4956L26.5966 45.9316L26.4711 45.355L25.8309 45.3093L25.2767 44.8165L24.8087 45.3197L23.9822 45.7593L23.929 46.6793L22.8662 47.3536L22.0499 46.519L21.5831 45.1936L20.3567 45.1474L19.5959 44.5475L18.7835 44.2312L17.1099 44.9176L16.9072 45.224L15.9084 45.5017L15.3165 45.1599L14.8303 45.2849L14.5835 45.8386L13.7733 46.2212L12.8925 45.8908L12.0562 46.7309L11.3779 46.7613L10.8209 46.4766L9.70317 46.2712L9.46785 45.1115L8.04681 44.9284L7.96256 44.2817L6.57701 42.2141L5.82595 41.4517L5.01734 41.643L4.6918 41.2207L3.1769 40.5426L1.85039 39.5633L1.57593 39.1031L0.637967 38.8585L0.443443 38.5162L0.686888 37.4908L0 35.7448L0.00232169 35.1243L0.647751 34.6276L1.41573 34.4966L1.70263 34.0086L1.18257 31.3062L1.4081 30.6428L2.16116 30.508L2.55784 29.7803L2.4726 29.0125L2.88719 28.7734L3.69795 29.2207L4.66908 28.7816L5.04404 28.2958L4.67771 27.7334L5.10042 26.3064L4.68318 25.8091L4.98483 25.1435L5.53192 25.3771L5.9014 24.7598L6.60471 24.4718L6.88663 23.4057L7.65345 21.8379L9.48858 21.9884L9.35259 19.8567L10.1791 19.8952L10.3106 19.1486L11.1214 18.0368L11.3448 17.3026L11.0861 16.8125L10.4808 16.6098L10.2857 15.7452L10.9073 14.9703L11.0502 14.2699L11.9968 14.1889L12.356 14.5057L13.1081 13.4417L12.7756 13.258L12.3169 12.387L11.835 12.0924L11.9345 10.4617L12.3529 9.58244L11.3784 8.47877L10.7464 9.31184L10.4144 10.1726L9.82655 9.26943L9.38908 8.94501L9.85375 7.4202L10.9905 7.32891L10.7378 6.22582L10.1595 6.04485L10.5144 5.00693L9.57332 3.1827L8.5201 3.40119L8.71695 2.73387L8.41098 1.44326ZM7.7105 14.3759L7.93918 13.8623L8.80053 13.9906L8.52458 12.8576L8.04465 12.1772L8.51314 12.012L9.59289 13.0005L9.67216 13.3798L9.21196 15.4175L7.9148 15.1502L7.7105 14.3759ZM6.80354 17.1994L6.879 16.7674L7.60071 15.4257L7.93056 15.2638L8.70385 15.7202L8.45393 16.5131L9.0647 17.2103L8.87233 17.9232L7.5095 18.7617L6.80354 17.1994Z" fill="#F2F2F2" stroke="#07122B" mask="url(#path-1-inside-1_81_113)"/>
</svg>
