<svg width="54" height="30" viewBox="0 0 54 30" fill="none" xmlns="http://www.w3.org/2000/svg">
<mask id="path-1-inside-1_83_288" fill="white">
<path d="M2.22965 17.2999L2.71986 17.3369L4.10989 16.7619L5.48798 16.925L6.65462 15.5289L7.67351 15.7566L8.43436 15.0469L8.94298 15.1741L10.1705 12.9336L11.1257 13.3689L12.7147 12.6505L13.6499 12.7744L14.6878 12.3636L15.6225 12.869L16.2148 12.8032L16.6963 13.4586L18.2748 12.3142L19.2057 11.9017L19.8627 10.8714L20.7859 10.9915L22.3592 10.2959L23.3068 9.31561L22.7499 7.17787L22.7433 5.9014L22.4015 5.88457L22.1809 4.09293L24.191 3.52453L25.1815 3.85981L26.452 4.09836L27.5938 3.97502L28.5943 3.37399L29.2697 3.72668L30.5808 3.63809L32.6252 4.17282L33.2637 4.05164L34.6559 4.12444L35.1738 4.42278L36.3203 4.15545L37.281 4.17933L37.9044 3.35824L38.2347 2.25784L39.2889 1.21072L40.2866 0.897167L40.8795 0.324954L41.9892 0L42.669 0.906951L43.5161 1.18083L43.9096 1.72095L44.7519 2.09537L46.0935 2.42903L48.5716 4.04513L48.3628 8.30709L48.452 9.8297L48.2411 12.6907L48.284 14.3405L48.4437 14.9546L48.6563 17.3847L48.8628 18.7764L50.338 19.7072L50.8984 19.7089L51.9276 20.1599L51.5015 20.7658L51.8417 21.1788L51.7619 21.9009L52.6982 22.1873L53.1839 23.5779L53.1078 23.9822L52.2939 24.3409L51.0218 24.2192L50.6022 24.7424L50.1034 24.7055L48.691 23.1323L48.4754 22.3118L47.4668 22.6552L46.5832 22.2993L45.7643 22.7383L45.0214 21.9336L44.4535 22.2705L43.9569 23.1905L42.1881 22.6281L41.6833 23.2964L41.0687 23.0573L40.573 24.0588L40.1579 24.005L39.602 25.0315L38.8011 25.3739L37.9245 24.725L36.585 24.9114L35.6552 25.6766L35.1547 25.6489L34.8608 26.6161L34.4549 27.0829L34.4608 27.6491L35.0184 28.2751L35.0026 28.874L32.5997 28.649L31.465 28.0784L30.5223 28.3376L30.082 29.294L29.4946 29.3179L28.5327 28.8245L27.841 28.9511L27.2852 27.9605L26.1553 27.228L25.925 26.2803L25.3815 26.3873L24.3729 25.9831L22.933 25.6467L22.802 25.2244L22.0483 25.0994L21.4425 24.549L20.8305 24.8158L19.5742 24.0637L19.1791 24.5544L18.3727 24.7033L17.4674 25.1652L15.8881 24.824L14.8535 25.3608L14.3797 26.8036L13.401 27.3008L13.168 27.8116L12.3897 28.048L10.5476 28.3404L9.58625 27.8594L8.78975 26.8672L8.57781 24.7962L7.9148 24.3371L7.98595 23.7545L7.6241 23.2671L7.01813 23.6872L5.83291 23.4752L5.7097 22.9965L4.48152 22.5835L4.03261 21.9352L3.34804 21.8428L2.88984 21.4825L2.43446 21.7255L1.32767 21.6216L0.782078 21.2309L0.225536 21.3766L0 20.8658L0.231008 19.8539L0.315252 18.5492L0.821215 17.846L1.76067 17.6749L2.22965 17.2999ZM8.50219 23.1041L9.46669 23.6622L10.634 23.41L9.7972 22.8753L9.63799 22.5167L9.72323 21.3217L8.74232 22.0662L8.50219 23.1041Z"/>
</mask>
<path d="M2.22965 17.2999L2.71986 17.3369L4.10989 16.7619L5.48798 16.925L6.65462 15.5289L7.67351 15.7566L8.43436 15.0469L8.94298 15.1741L10.1705 12.9336L11.1257 13.3689L12.7147 12.6505L13.6499 12.7744L14.6878 12.3636L15.6225 12.869L16.2148 12.8032L16.6963 13.4586L18.2748 12.3142L19.2057 11.9017L19.8627 10.8714L20.7859 10.9915L22.3592 10.2959L23.3068 9.31561L22.7499 7.17787L22.7433 5.9014L22.4015 5.88457L22.1809 4.09293L24.191 3.52453L25.1815 3.85981L26.452 4.09836L27.5938 3.97502L28.5943 3.37399L29.2697 3.72668L30.5808 3.63809L32.6252 4.17282L33.2637 4.05164L34.6559 4.12444L35.1738 4.42278L36.3203 4.15545L37.281 4.17933L37.9044 3.35824L38.2347 2.25784L39.2889 1.21072L40.2866 0.897167L40.8795 0.324954L41.9892 0L42.669 0.906951L43.5161 1.18083L43.9096 1.72095L44.7519 2.09537L46.0935 2.42903L48.5716 4.04513L48.3628 8.30709L48.452 9.8297L48.2411 12.6907L48.284 14.3405L48.4437 14.9546L48.6563 17.3847L48.8628 18.7764L50.338 19.7072L50.8984 19.7089L51.9276 20.1599L51.5015 20.7658L51.8417 21.1788L51.7619 21.9009L52.6982 22.1873L53.1839 23.5779L53.1078 23.9822L52.2939 24.3409L51.0218 24.2192L50.6022 24.7424L50.1034 24.7055L48.691 23.1323L48.4754 22.3118L47.4668 22.6552L46.5832 22.2993L45.7643 22.7383L45.0214 21.9336L44.4535 22.2705L43.9569 23.1905L42.1881 22.6281L41.6833 23.2964L41.0687 23.0573L40.573 24.0588L40.1579 24.005L39.602 25.0315L38.8011 25.3739L37.9245 24.725L36.585 24.9114L35.6552 25.6766L35.1547 25.6489L34.8608 26.6161L34.4549 27.0829L34.4608 27.6491L35.0184 28.2751L35.0026 28.874L32.5997 28.649L31.465 28.0784L30.5223 28.3376L30.082 29.294L29.4946 29.3179L28.5327 28.8245L27.841 28.9511L27.2852 27.9605L26.1553 27.228L25.925 26.2803L25.3815 26.3873L24.3729 25.9831L22.933 25.6467L22.802 25.2244L22.0483 25.0994L21.4425 24.549L20.8305 24.8158L19.5742 24.0637L19.1791 24.5544L18.3727 24.7033L17.4674 25.1652L15.8881 24.824L14.8535 25.3608L14.3797 26.8036L13.401 27.3008L13.168 27.8116L12.3897 28.048L10.5476 28.3404L9.58625 27.8594L8.78975 26.8672L8.57781 24.7962L7.9148 24.3371L7.98595 23.7545L7.6241 23.2671L7.01813 23.6872L5.83291 23.4752L5.7097 22.9965L4.48152 22.5835L4.03261 21.9352L3.34804 21.8428L2.88984 21.4825L2.43446 21.7255L1.32767 21.6216L0.782078 21.2309L0.225536 21.3766L0 20.8658L0.231008 19.8539L0.315252 18.5492L0.821215 17.846L1.76067 17.6749L2.22965 17.2999ZM8.50219 23.1041L9.46669 23.6622L10.634 23.41L9.7972 22.8753L9.63799 22.5167L9.72323 21.3217L8.74232 22.0662L8.50219 23.1041Z" fill="#F2F2F2" stroke="#07122B" mask="url(#path-1-inside-1_83_288)"/>
</svg>
