<svg width="47" height="54" viewBox="0 0 47 54" fill="none" xmlns="http://www.w3.org/2000/svg">
<mask id="path-1-inside-1_81_130" fill="white">
<path d="M25.0615 1.2368L26.5253 1.74815L27.1905 1.52915L27.322 1.0303L28.6375 1.66826L30.0304 1.60468L30.2874 1.10584L30.9536 0.584164L31.7534 1.2031L33.0474 1.9003L33.6647 2.41219L34.4205 1.52317L35.6786 1.8253L36.0072 1.01944L36.6643 1.63077L37.2349 1.8628L37.6104 2.78822L38.3369 2.65129L39.3694 3.25882L40.3568 3.46857L41.1105 4.47932L41.9055 4.88578L43.3623 5.22596L44.1774 5.57373L44.8171 5.45636L45.7527 5.61232L45.8804 6.14051L46.7455 5.63568L46.9384 6.23561L45.7316 6.70293L44.7713 8.54509L44.2595 9.17599L43.2874 11.0312L42.5912 13.1863L42.439 14.1373L41.901 15.1779L41.073 16.0044L40.0024 16.0262L39.4878 16.4718L39.2455 17.4934L38.6102 17.7999L37.9065 17.6667L37.3648 18.171L37.3397 19.4421L37.175 19.8849L34.6184 23.0193L32.6968 24.2365L32.192 25.7184L31.2727 27.2046L31.3481 28.7539L31.3328 31.5323L30.9634 32.1426L30.0624 32.6963L29.932 34.2249L29.7211 35.1884L28.8408 37.4202L28.6246 38.4108L28.6946 39.3786L29.1588 41.5278L28.6974 42.3619L27.7432 42.7445L27.2692 43.1901L27.0633 44.4622L26.2954 47.5194L25.3538 48.5834L24.9006 49.724L23.8877 51.0803L23.8056 52.1699L22.9552 53.2687L20.8234 52.9524L20.6582 52.2389L20.8506 51.6672L19.1747 51.2548L18.9894 51.0809L19.0926 49.0654L19.2437 48.673L16.5707 47.4042L14.7149 46.188L13.6928 46.4223L13.0874 45.9006L13.8776 45.0268L12.6413 45.0871L12.7782 44.3888L11.8099 43.0341L10.5856 43.1998L10.1264 42.8705L8.98245 42.7678L8.21911 41.9429L8.44896 41.1648L7.9153 41.0284L7.30005 41.5001L6.04103 41.4881L5.6966 40.9219L4.56079 40.5029L5.20589 39.3927L5.70041 38.971L5.51882 38.438L4.81784 37.9L5.26393 36.7985L5.35531 35.8698L5.70041 35.6802L5.41932 34.9362L6.05513 33.6565L6.01384 33.0577L5.11999 32.8229L5.01186 32.0295L5.76658 32.2708L6.21284 31.4715L4.74503 31.3883L4.04886 30.9297L4.61734 30.2037L5.0107 30.6107L5.89162 30.1548L6.63506 30.6814L7.22576 30.4711L7.84515 30.7036L8.54448 30.1504L8.74564 29.5342L9.75524 29.2625L10.171 28.5104L11.4154 27.021L11.1121 26.5927L11.6484 25.9716L11.9806 25.0935L12.0582 24.3012L12.4897 24.0355L12.8754 23.3274L11.4333 23.1704L10.6025 21.5646L11.4028 21.1951L11.6837 20.2767L12.2484 19.2627L12.5804 18.0846L13.1565 17.6075L12.3642 16.2147L12.2544 15.6121L11.2111 15.2812L10.0753 13.9237L8.91794 13.9053L8.55592 12.6973L7.18281 12.9945L6.88762 13.6015L7.11647 14.2699L6.23888 14.8204L6.34103 15.4192L4.84719 15.9507L4.1462 15.5241L4.96841 15.1073L4.43642 14.6573L3.68535 14.7318L3.40874 14.3509L3.68054 13.6303L3.59033 12.875L4.81999 12.8559L5.34768 12.4065L4.64172 11.9093L3.756 12.1957L3.23594 11.4132L2.66928 11.0013L1.25802 10.3807L0 10.2356L0.369978 9.63952L0.150578 8.59291L0.941777 7.91691L1.26831 6.5573L2.85999 6.7551L2.65999 5.99976L2.98652 5.59221L2.79846 5.00587L3.68485 3.63974L3.61255 2.67085L4.56411 1.45579L4.16246 0.583076L5.30522 0L5.70356 1.93997L6.0606 2.18287L6.1475 3.24904L6.46607 4.01741L8.09407 3.92232L8.82109 4.53366L9.40533 5.39822L10.36 4.96131L11.8083 5.63405L12.4787 5.76392L12.3592 6.72195L12.9656 6.71326L13.6928 7.45447L14.8921 6.69261L15.7566 7.02354L16.4299 6.68283L18.4553 6.34809L19.3231 6.44318L19.5176 7.01649L20.0947 7.38763L21.1924 7.5963L21.4363 8.06852L21.9944 7.93321L22.5607 6.88552L22.9736 6.6937L23.0285 6.04813L23.4991 5.15259L23.3063 4.87981L24.1925 3.58812L24.1555 2.97516L25.2174 1.51176L25.0615 1.2368Z"/>
</mask>
<path d="M25.0615 1.2368L26.5253 1.74815L27.1905 1.52915L27.322 1.0303L28.6375 1.66826L30.0304 1.60468L30.2874 1.10584L30.9536 0.584164L31.7534 1.2031L33.0474 1.9003L33.6647 2.41219L34.4205 1.52317L35.6786 1.8253L36.0072 1.01944L36.6643 1.63077L37.2349 1.8628L37.6104 2.78822L38.3369 2.65129L39.3694 3.25882L40.3568 3.46857L41.1105 4.47932L41.9055 4.88578L43.3623 5.22596L44.1774 5.57373L44.8171 5.45636L45.7527 5.61232L45.8804 6.14051L46.7455 5.63568L46.9384 6.23561L45.7316 6.70293L44.7713 8.54509L44.2595 9.17599L43.2874 11.0312L42.5912 13.1863L42.439 14.1373L41.901 15.1779L41.073 16.0044L40.0024 16.0262L39.4878 16.4718L39.2455 17.4934L38.6102 17.7999L37.9065 17.6667L37.3648 18.171L37.3397 19.4421L37.175 19.8849L34.6184 23.0193L32.6968 24.2365L32.192 25.7184L31.2727 27.2046L31.3481 28.7539L31.3328 31.5323L30.9634 32.1426L30.0624 32.6963L29.932 34.2249L29.7211 35.1884L28.8408 37.4202L28.6246 38.4108L28.6946 39.3786L29.1588 41.5278L28.6974 42.3619L27.7432 42.7445L27.2692 43.1901L27.0633 44.4622L26.2954 47.5194L25.3538 48.5834L24.9006 49.724L23.8877 51.0803L23.8056 52.1699L22.9552 53.2687L20.8234 52.9524L20.6582 52.2389L20.8506 51.6672L19.1747 51.2548L18.9894 51.0809L19.0926 49.0654L19.2437 48.673L16.5707 47.4042L14.7149 46.188L13.6928 46.4223L13.0874 45.9006L13.8776 45.0268L12.6413 45.0871L12.7782 44.3888L11.8099 43.0341L10.5856 43.1998L10.1264 42.8705L8.98245 42.7678L8.21911 41.9429L8.44896 41.1648L7.9153 41.0284L7.30005 41.5001L6.04103 41.4881L5.6966 40.9219L4.56079 40.5029L5.20589 39.3927L5.70041 38.971L5.51882 38.438L4.81784 37.9L5.26393 36.7985L5.35531 35.8698L5.70041 35.6802L5.41932 34.9362L6.05513 33.6565L6.01384 33.0577L5.11999 32.8229L5.01186 32.0295L5.76658 32.2708L6.21284 31.4715L4.74503 31.3883L4.04886 30.9297L4.61734 30.2037L5.0107 30.6107L5.89162 30.1548L6.63506 30.6814L7.22576 30.4711L7.84515 30.7036L8.54448 30.1504L8.74564 29.5342L9.75524 29.2625L10.171 28.5104L11.4154 27.021L11.1121 26.5927L11.6484 25.9716L11.9806 25.0935L12.0582 24.3012L12.4897 24.0355L12.8754 23.3274L11.4333 23.1704L10.6025 21.5646L11.4028 21.1951L11.6837 20.2767L12.2484 19.2627L12.5804 18.0846L13.1565 17.6075L12.3642 16.2147L12.2544 15.6121L11.2111 15.2812L10.0753 13.9237L8.91794 13.9053L8.55592 12.6973L7.18281 12.9945L6.88762 13.6015L7.11647 14.2699L6.23888 14.8204L6.34103 15.4192L4.84719 15.9507L4.1462 15.5241L4.96841 15.1073L4.43642 14.6573L3.68535 14.7318L3.40874 14.3509L3.68054 13.6303L3.59033 12.875L4.81999 12.8559L5.34768 12.4065L4.64172 11.9093L3.756 12.1957L3.23594 11.4132L2.66928 11.0013L1.25802 10.3807L0 10.2356L0.369978 9.63952L0.150578 8.59291L0.941777 7.91691L1.26831 6.5573L2.85999 6.7551L2.65999 5.99976L2.98652 5.59221L2.79846 5.00587L3.68485 3.63974L3.61255 2.67085L4.56411 1.45579L4.16246 0.583076L5.30522 0L5.70356 1.93997L6.0606 2.18287L6.1475 3.24904L6.46607 4.01741L8.09407 3.92232L8.82109 4.53366L9.40533 5.39822L10.36 4.96131L11.8083 5.63405L12.4787 5.76392L12.3592 6.72195L12.9656 6.71326L13.6928 7.45447L14.8921 6.69261L15.7566 7.02354L16.4299 6.68283L18.4553 6.34809L19.3231 6.44318L19.5176 7.01649L20.0947 7.38763L21.1924 7.5963L21.4363 8.06852L21.9944 7.93321L22.5607 6.88552L22.9736 6.6937L23.0285 6.04813L23.4991 5.15259L23.3063 4.87981L24.1925 3.58812L24.1555 2.97516L25.2174 1.51176L25.0615 1.2368Z" fill="#F2F2F2" stroke="#07122B" mask="url(#path-1-inside-1_81_130)"/>
</svg>
