<svg width="29" height="49" viewBox="0 0 29 49" fill="none" xmlns="http://www.w3.org/2000/svg">
<mask id="path-1-inside-1_81_149" fill="white">
<path d="M0.111441 26.8797L0.900981 26.5264L1.9411 26.3439L2.38288 25.613L2.85999 25.3261L2.37641 24.6245L2.41721 24.1871L1.99217 23.128L2.78885 22.7351L3.17906 22.1091L2.82201 20.2099L3.16595 18.8296L3.72465 18.2194L3.70293 17.1994L4.35715 17.1288L5.79493 15.9751L6.39443 15.0769L6.15248 14.7802L6.64384 13.6303L7.25511 12.7848L7.85825 12.343L8.90053 10.002L8.37732 9.99164L7.95178 9.55637L8.74464 8.01146L8.96255 6.98116L9.48095 6.69479L10.1373 5.6547L11.2395 2.54369L11.9937 1.39493L12.1598 0.718925L12.9376 0.453745L13.1081 0L14.252 0.102704L14.7112 0.43201L15.9356 0.266269L16.9039 1.62098L16.7669 2.31926L18.0032 2.25894L17.213 3.13275L17.8185 3.65442L18.8405 3.42021L20.6964 4.63635L23.3693 5.90522L23.2182 6.29755L23.1151 8.31306L23.3003 8.48694L24.9762 8.89939L24.7839 9.47105L24.949 10.1846L27.0808 10.5008L27.1487 11.5474L26.7895 12.5527L26.9472 13.9895L26.8233 15.3996L28.0112 16.8201L28.4719 17.5771L28.7191 18.6568L28.1632 19.7991L27.2444 21.0837L27.2847 22.3607L27.1472 22.9519L26.425 23.6067L26.2696 24.3501L26.5656 25.4288L25.3827 28.8691L25.3875 29.7956L26.0032 31.4334L25.7032 32.623L24.8001 33.4147L24.9528 35.4019L25.661 36.4399L26.5434 37.1359L27.0374 38.3037L27.6477 38.9971L27.3465 40.4301L26.6775 40.3133L26.3386 41.0028L24.4273 42.1304L25.3674 42.9678L25.0908 43.534L24.3399 43.79L24.6344 44.7154L23.7698 45.5278L23.1943 45.6234L21.8298 44.6567L21.6239 45.4838L22.6172 46.0397L22.227 46.6271L21.563 46.882L21.2794 47.5368L20.0355 48.2416L18.8971 48.1557L18.276 47.7612L16.2915 48.0867L15.1993 48.6736L14.6074 48.4497L14.2353 47.828L13.3739 48.0747L12.0708 47.6623L12.336 46.3195L12.8331 45.1773L11.9665 45.1311L10.5977 44.391L10.9411 43.4862L10.803 42.5418L9.74346 41.7848L9.68741 40.7757L9.27448 40.5469L8.98261 39.5177L8.22889 39.0118L7.26324 39.0292L6.58895 39.4329L6.02545 38.3798L6.02694 37.5038L6.3873 37.1283L6.43672 36.3828L7.24748 36.341L7.05196 35.741L7.28015 34.389L6.81167 33.331L7.18994 32.4333L6.26126 31.3688L4.71518 30.6553L3.72017 29.9679L3.01604 29.7929L2.52583 29.3299L1.85039 29.3647L0.740785 28.937L0 27.4568L0.111441 26.8797Z"/>
</mask>
<path d="M0.111441 26.8797L0.900981 26.5264L1.9411 26.3439L2.38288 25.613L2.85999 25.3261L2.37641 24.6245L2.41721 24.1871L1.99217 23.128L2.78885 22.7351L3.17906 22.1091L2.82201 20.2099L3.16595 18.8296L3.72465 18.2194L3.70293 17.1994L4.35715 17.1288L5.79493 15.9751L6.39443 15.0769L6.15248 14.7802L6.64384 13.6303L7.25511 12.7848L7.85825 12.343L8.90053 10.002L8.37732 9.99164L7.95178 9.55637L8.74464 8.01146L8.96255 6.98116L9.48095 6.69479L10.1373 5.6547L11.2395 2.54369L11.9937 1.39493L12.1598 0.718925L12.9376 0.453745L13.1081 0L14.252 0.102704L14.7112 0.43201L15.9356 0.266269L16.9039 1.62098L16.7669 2.31926L18.0032 2.25894L17.213 3.13275L17.8185 3.65442L18.8405 3.42021L20.6964 4.63635L23.3693 5.90522L23.2182 6.29755L23.1151 8.31306L23.3003 8.48694L24.9762 8.89939L24.7839 9.47105L24.949 10.1846L27.0808 10.5008L27.1487 11.5474L26.7895 12.5527L26.9472 13.9895L26.8233 15.3996L28.0112 16.8201L28.4719 17.5771L28.7191 18.6568L28.1632 19.7991L27.2444 21.0837L27.2847 22.3607L27.1472 22.9519L26.425 23.6067L26.2696 24.3501L26.5656 25.4288L25.3827 28.8691L25.3875 29.7956L26.0032 31.4334L25.7032 32.623L24.8001 33.4147L24.9528 35.4019L25.661 36.4399L26.5434 37.1359L27.0374 38.3037L27.6477 38.9971L27.3465 40.4301L26.6775 40.3133L26.3386 41.0028L24.4273 42.1304L25.3674 42.9678L25.0908 43.534L24.3399 43.79L24.6344 44.7154L23.7698 45.5278L23.1943 45.6234L21.8298 44.6567L21.6239 45.4838L22.6172 46.0397L22.227 46.6271L21.563 46.882L21.2794 47.5368L20.0355 48.2416L18.8971 48.1557L18.276 47.7612L16.2915 48.0867L15.1993 48.6736L14.6074 48.4497L14.2353 47.828L13.3739 48.0747L12.0708 47.6623L12.336 46.3195L12.8331 45.1773L11.9665 45.1311L10.5977 44.391L10.9411 43.4862L10.803 42.5418L9.74346 41.7848L9.68741 40.7757L9.27448 40.5469L8.98261 39.5177L8.22889 39.0118L7.26324 39.0292L6.58895 39.4329L6.02545 38.3798L6.02694 37.5038L6.3873 37.1283L6.43672 36.3828L7.24748 36.341L7.05196 35.741L7.28015 34.389L6.81167 33.331L7.18994 32.4333L6.26126 31.3688L4.71518 30.6553L3.72017 29.9679L3.01604 29.7929L2.52583 29.3299L1.85039 29.3647L0.740785 28.937L0 27.4568L0.111441 26.8797Z" fill="#F2F2F2" stroke="#07122B" mask="url(#path-1-inside-1_81_149)"/>
</svg>
