<svg width="34" height="46" viewBox="0 0 34 46" fill="none" xmlns="http://www.w3.org/2000/svg">
<mask id="path-1-inside-1_81_153" fill="white">
<path d="M5.13193 4.6081L5.3102 3.78104L5.03243 3.20719L5.48466 2.10789L5.49544 1.23137L5.97968 0.580899L7.1105 0.662946L7.76207 0.498852L8.39556 1.17973L8.85757 0.985744L9.44281 2.05353L10.6589 1.93888L11.235 0.843913L11.9186 0.844991L11.962 1.61882L12.5049 2.01931L13.6396 2.2095L13.69 1.43134L14.2943 0.860207L14.2623 0.330385L14.8817 0.107046L15.2843 0.575468L15.8762 0L16.2973 0.268984L17.0233 1.49003L15.881 2.51489L17.3896 3.25337L18.0085 3.9397L17.682 4.64667L17.3956 5.98129L17.6825 6.78717L18.5627 7.13059L19.6083 6.90725L20.369 7.84899L20.3007 8.7532L19.3231 9.99925L19.1105 10.6546L18.4073 11.4996L18.8329 12.318L18.9007 12.9108L18.1035 13.8911L18.3617 14.5079L18.6078 17.9933L17.7443 18.9416L17.9667 19.5388L18.8937 19.7436L17.8992 21.006L18.0345 21.4581L18.9992 21.732L19.9208 21.7091L19.9713 23.1274L19.6969 23.8643L18.9219 24.2469L18.2221 23.1508L17.9656 23.1959L17.8813 24.7229L18.0209 25.4842L16.4522 25.5603L16.3837 26.2314L16.7999 27.2878L16.5196 28.0371L17.0837 28.2724L17.2657 29.0691L16.9336 29.988L18.1319 30.7188L19.2931 30.6618L19.6121 30.9759L19.1747 31.8008L19.0606 32.7979L19.411 32.8099L19.8083 33.5864L19.7866 34.2477L19.4415 34.9194L19.5665 35.3867L20.5544 35.6204L20.4217 36.3301L18.9133 36.9403L18.3617 37.8886L17.6042 37.9103L17.1064 38.2407L17.3243 38.8678L17.9233 38.6504L18.803 39.064L19.1052 39.7074L20.6625 38.8939L21.6494 40.3991L22.6987 40.7257L23.028 41.0507L22.6123 41.8228L21.8335 42.7119L21.1619 43.0575L20.826 43.5634L19.7446 44.1176L19.6365 44.9877L18.7596 45.0463L18.3742 44.5709L18.0976 43.4085L17.4982 43.0227L16.5467 43.9318L15.2437 43.4009L14.7535 41.5897L14.8442 41.086L16.1925 39.5976L15.6077 39.0004L14.3117 40.2926L13.9091 39.0977L13.489 38.7401L12.526 39.0123L11.8126 38.3168L10.9653 38.4597L10.2144 38.8662L9.41063 38.1619L8.89887 38.2739L8.26637 37.5853L7.40121 37.1262L7.11863 36.2219L5.97586 35.7535L5.32164 34.6194L4.77538 34.0075L4.29562 33.03L4.60922 32.6284L4.63475 31.5166L5.13242 30.8199L5.26078 29.2679L4.36295 29.6027L3.68751 28.4882L4.80855 27.7692L4.63359 26.621L5.18781 26.565L4.74072 25.6054L5.24602 24.9125L4.93574 24.5724L5.45315 23.7045L5.27106 23.4502L4.24289 23.4899L3.47623 22.8253L3.31371 22.1732L2.77293 21.3788L3.36529 20.9826L3.57507 20.0952L1.90412 19.0818L1.86714 18.1938L0.996005 17.3662L0 17L1.63563 16.5903L2.36978 16.0083L2.12584 15.1475L1.53613 15.3551L1.05587 15.0866L0.0820883 13.6385L1.28622 13.4819L2.06282 12.594L2.26647 12.049L2.09151 11.0214L2.63993 10.0905L2.70825 9.40203L4.18319 8.94395L4.89395 8.33588L6.03291 9.05969L7.02576 7.37731L6.3926 6.80292L5.81003 6.61001L5.45083 5.89597L6.29858 5.64056L6.39974 5.22867L5.75132 4.66081L5.13193 4.6081ZM19.4725 38.1114L20.3804 36.9925L20.6527 35.5492L21.9972 35.7503L22.4128 35.3883L22.4595 34.1103L23.5844 34.051L23.9142 34.2831L23.7345 35.2471L24.6534 34.9096L24.7114 34.3086L25.9575 35.0438L26.5721 34.533L26.7721 33.1674L27.2644 32.7577L27.7117 31.7394L26.7291 31.0791L27.3492 29.8021L28.3936 29.4076L29.4619 29.4761L29.0576 28.8924L29.6375 28.7175L29.8276 28.1197L29.8629 26.3493L31.4519 26.1776L30.9954 27.7095L29.8841 27.3122L30.1965 28.7321L31.071 28.8756L31.1882 30.0988L32.2789 30.1401L32.8365 30.5281L33.0021 31.1106L33.5831 31.3611L33.4021 32.042L32.5408 31.7633L31.6899 32.8045L30.7357 33.3462L29.7178 34.2575L29.1951 34.9498L29.0093 35.9041L29.3146 36.3268L29.007 36.7599L27.8762 36.2236L27.6366 37.2658L26.6346 36.7545L25.8699 36.9794L24.0545 37.1196L22.759 37.7223L22.4628 38.6803L21.4771 38.1027L20.7196 37.9853L19.4725 38.1114Z"/>
</mask>
<path d="M5.13193 4.6081L5.3102 3.78104L5.03243 3.20719L5.48466 2.10789L5.49544 1.23137L5.97968 0.580899L7.1105 0.662946L7.76207 0.498852L8.39556 1.17973L8.85757 0.985744L9.44281 2.05353L10.6589 1.93888L11.235 0.843913L11.9186 0.844991L11.962 1.61882L12.5049 2.01931L13.6396 2.2095L13.69 1.43134L14.2943 0.860207L14.2623 0.330385L14.8817 0.107046L15.2843 0.575468L15.8762 0L16.2973 0.268984L17.0233 1.49003L15.881 2.51489L17.3896 3.25337L18.0085 3.9397L17.682 4.64667L17.3956 5.98129L17.6825 6.78717L18.5627 7.13059L19.6083 6.90725L20.369 7.84899L20.3007 8.7532L19.3231 9.99925L19.1105 10.6546L18.4073 11.4996L18.8329 12.318L18.9007 12.9108L18.1035 13.8911L18.3617 14.5079L18.6078 17.9933L17.7443 18.9416L17.9667 19.5388L18.8937 19.7436L17.8992 21.006L18.0345 21.4581L18.9992 21.732L19.9208 21.7091L19.9713 23.1274L19.6969 23.8643L18.9219 24.2469L18.2221 23.1508L17.9656 23.1959L17.8813 24.7229L18.0209 25.4842L16.4522 25.5603L16.3837 26.2314L16.7999 27.2878L16.5196 28.0371L17.0837 28.2724L17.2657 29.0691L16.9336 29.988L18.1319 30.7188L19.2931 30.6618L19.6121 30.9759L19.1747 31.8008L19.0606 32.7979L19.411 32.8099L19.8083 33.5864L19.7866 34.2477L19.4415 34.9194L19.5665 35.3867L20.5544 35.6204L20.4217 36.3301L18.9133 36.9403L18.3617 37.8886L17.6042 37.9103L17.1064 38.2407L17.3243 38.8678L17.9233 38.6504L18.803 39.064L19.1052 39.7074L20.6625 38.8939L21.6494 40.3991L22.6987 40.7257L23.028 41.0507L22.6123 41.8228L21.8335 42.7119L21.1619 43.0575L20.826 43.5634L19.7446 44.1176L19.6365 44.9877L18.7596 45.0463L18.3742 44.5709L18.0976 43.4085L17.4982 43.0227L16.5467 43.9318L15.2437 43.4009L14.7535 41.5897L14.8442 41.086L16.1925 39.5976L15.6077 39.0004L14.3117 40.2926L13.9091 39.0977L13.489 38.7401L12.526 39.0123L11.8126 38.3168L10.9653 38.4597L10.2144 38.8662L9.41063 38.1619L8.89887 38.2739L8.26637 37.5853L7.40121 37.1262L7.11863 36.2219L5.97586 35.7535L5.32164 34.6194L4.77538 34.0075L4.29562 33.03L4.60922 32.6284L4.63475 31.5166L5.13242 30.8199L5.26078 29.2679L4.36295 29.6027L3.68751 28.4882L4.80855 27.7692L4.63359 26.621L5.18781 26.565L4.74072 25.6054L5.24602 24.9125L4.93574 24.5724L5.45315 23.7045L5.27106 23.4502L4.24289 23.4899L3.47623 22.8253L3.31371 22.1732L2.77293 21.3788L3.36529 20.9826L3.57507 20.0952L1.90412 19.0818L1.86714 18.1938L0.996005 17.3662L0 17L1.63563 16.5903L2.36978 16.0083L2.12584 15.1475L1.53613 15.3551L1.05587 15.0866L0.0820883 13.6385L1.28622 13.4819L2.06282 12.594L2.26647 12.049L2.09151 11.0214L2.63993 10.0905L2.70825 9.40203L4.18319 8.94395L4.89395 8.33588L6.03291 9.05969L7.02576 7.37731L6.3926 6.80292L5.81003 6.61001L5.45083 5.89597L6.29858 5.64056L6.39974 5.22867L5.75132 4.66081L5.13193 4.6081ZM19.4725 38.1114L20.3804 36.9925L20.6527 35.5492L21.9972 35.7503L22.4128 35.3883L22.4595 34.1103L23.5844 34.051L23.9142 34.2831L23.7345 35.2471L24.6534 34.9096L24.7114 34.3086L25.9575 35.0438L26.5721 34.533L26.7721 33.1674L27.2644 32.7577L27.7117 31.7394L26.7291 31.0791L27.3492 29.8021L28.3936 29.4076L29.4619 29.4761L29.0576 28.8924L29.6375 28.7175L29.8276 28.1197L29.8629 26.3493L31.4519 26.1776L30.9954 27.7095L29.8841 27.3122L30.1965 28.7321L31.071 28.8756L31.1882 30.0988L32.2789 30.1401L32.8365 30.5281L33.0021 31.1106L33.5831 31.3611L33.4021 32.042L32.5408 31.7633L31.6899 32.8045L30.7357 33.3462L29.7178 34.2575L29.1951 34.9498L29.0093 35.9041L29.3146 36.3268L29.007 36.7599L27.8762 36.2236L27.6366 37.2658L26.6346 36.7545L25.8699 36.9794L24.0545 37.1196L22.759 37.7223L22.4628 38.6803L21.4771 38.1027L20.7196 37.9853L19.4725 38.1114Z" fill="#F2F2F2" stroke="#07122B" mask="url(#path-1-inside-1_81_153)"/>
</svg>
