<svg width="34" height="46" viewBox="0 0 34 46" fill="none" xmlns="http://www.w3.org/2000/svg">
<mask id="path-1-inside-1_90_92" fill="white">
<path d="M16.2969 0.268555L17.0234 1.49023L15.8809 2.51465L17.3896 3.25293L18.0078 3.93945L17.6816 4.64648L17.3955 5.98145L17.6826 6.78711L18.5625 7.13086L19.6084 6.90723L20.3691 7.84863L20.3008 8.75293L19.3232 9.99902L19.1104 10.6543L18.4072 11.499L18.833 12.3174L18.9004 12.9111L18.1035 13.8906L18.3613 14.5078L18.6074 17.9932L17.7441 18.9414L17.9668 19.5391L18.8936 19.7432L19.502 19.5635L19.9248 20.333L20.71 20.6445L20.5361 21.7881L21.6328 21.1094L22.292 21.1436L23.3135 21.7314L23.4268 22.6484L24.3525 22.9609L24.1006 23.9404L24.6514 24.4951L24.7803 25.5889L24.7012 26.5244L26.3486 26.3027L27.0244 26.6094L27.7021 26.3477L28.0996 26.6055L29.5283 26.251L29.8623 26.3496L31.4521 26.1777L30.9951 27.709L29.8838 27.3125L30.1963 28.7324L31.0703 28.875L31.1885 30.0986L32.2783 30.1396L32.8359 30.5283L33.002 31.1104L33.583 31.3613L33.4023 32.042L32.541 31.7627L31.6895 32.8047L30.7354 33.3457L29.7178 34.2578L29.1953 34.9492L29.0088 35.9043L29.3145 36.3271L29.0068 36.7598L27.876 36.2236L27.6367 37.2656L26.6348 36.7539L25.8701 36.9795L24.0547 37.1191L22.7588 37.7217L22.4629 38.6797L21.4766 38.1025L20.7197 37.9854L19.4727 38.1113L19.626 38.4482L20.6621 38.8936L21.6494 40.3994L22.6982 40.7256L23.0273 41.0508L22.6123 41.8223L21.833 42.7119L21.1611 43.0576L20.8262 43.5635L19.7441 44.1172L19.6367 44.9873L18.7598 45.0459L18.374 44.5703L18.0977 43.4082L17.498 43.0225L16.5469 43.9316L15.2432 43.4004L14.7529 41.5898L14.8438 41.0859L16.1924 39.5977L15.6074 39L14.3115 40.292L13.9092 39.0977L13.4883 38.7402L12.5254 39.0117L11.8125 38.3164L10.9648 38.46L10.2139 38.8662L9.41016 38.1621L8.89844 38.2734L8.2666 37.585L7.40137 37.126L7.11816 36.2217L5.97559 35.7529L5.32129 34.6191L4.77539 34.0078L4.29492 33.0303L4.60938 32.6279L4.63477 31.5166L5.13184 30.8193L5.26074 29.2676L4.3623 29.6025L3.6875 28.4883L4.80859 27.7695L4.63379 26.6211L5.1875 26.5645L4.74023 25.6055L5.24609 24.9121L4.93555 24.5723L5.45312 23.7041L5.27051 23.4502L4.24219 23.4893L3.47559 22.8252L3.31348 22.1729L2.77246 21.3789L3.36523 20.9824L3.5752 20.0947L1.9043 19.082L1.86719 18.1934L0.996094 17.3662L0 17L1.63574 16.5898L2.36914 16.0078L2.12598 15.1475L1.53613 15.3545L1.05566 15.0869L0.0820312 13.6387L1.28613 13.4814L2.0625 12.5938L2.2666 12.0488L2.09082 11.0215L2.63965 10.0908L2.70801 9.40234L4.18262 8.94336L4.89355 8.33594L6.03223 9.05957L7.02539 7.37695L6.39258 6.80273L5.80957 6.60938L5.4502 5.89551L6.29785 5.64062L6.39941 5.22852L5.75098 4.66113L5.13184 4.6084L5.30957 3.78125L5.03223 3.20703L5.48438 2.10742L5.49512 1.23145L5.97949 0.581055L7.11035 0.663086L7.76172 0.499023L8.39551 1.17969L8.85742 0.985352L9.44238 2.05371L10.6582 1.93848L11.2344 0.84375L11.918 0.844727L11.9619 1.61914L12.5049 2.01953L13.6396 2.20898L13.6895 1.43164L14.2939 0.860352L14.2617 0.330078L14.8818 0.106445L15.2842 0.575195L15.876 0L16.2969 0.268555ZM17.6035 37.9102H17.6045H17.6035ZM20.5537 35.6201H20.5547H20.5537ZM19.8076 33.5859H19.8086H19.8076ZM19.293 30.6611V30.6621V30.6611ZM17.083 28.2725H17.084H17.083ZM17.9648 23.1953H17.9658H17.9648ZM19.9707 23.127H19.9717H19.9707Z"/>
</mask>
<path d="M16.2969 0.268555L17.0234 1.49023L15.8809 2.51465L17.3896 3.25293L18.0078 3.93945L17.6816 4.64648L17.3955 5.98145L17.6826 6.78711L18.5625 7.13086L19.6084 6.90723L20.3691 7.84863L20.3008 8.75293L19.3232 9.99902L19.1104 10.6543L18.4072 11.499L18.833 12.3174L18.9004 12.9111L18.1035 13.8906L18.3613 14.5078L18.6074 17.9932L17.7441 18.9414L17.9668 19.5391L18.8936 19.7432L19.502 19.5635L19.9248 20.333L20.71 20.6445L20.5361 21.7881L21.6328 21.1094L22.292 21.1436L23.3135 21.7314L23.4268 22.6484L24.3525 22.9609L24.1006 23.9404L24.6514 24.4951L24.7803 25.5889L24.7012 26.5244L26.3486 26.3027L27.0244 26.6094L27.7021 26.3477L28.0996 26.6055L29.5283 26.251L29.8623 26.3496L31.4521 26.1777L30.9951 27.709L29.8838 27.3125L30.1963 28.7324L31.0703 28.875L31.1885 30.0986L32.2783 30.1396L32.8359 30.5283L33.002 31.1104L33.583 31.3613L33.4023 32.042L32.541 31.7627L31.6895 32.8047L30.7354 33.3457L29.7178 34.2578L29.1953 34.9492L29.0088 35.9043L29.3145 36.3271L29.0068 36.7598L27.876 36.2236L27.6367 37.2656L26.6348 36.7539L25.8701 36.9795L24.0547 37.1191L22.7588 37.7217L22.4629 38.6797L21.4766 38.1025L20.7197 37.9854L19.4727 38.1113L19.626 38.4482L20.6621 38.8936L21.6494 40.3994L22.6982 40.7256L23.0273 41.0508L22.6123 41.8223L21.833 42.7119L21.1611 43.0576L20.8262 43.5635L19.7441 44.1172L19.6367 44.9873L18.7598 45.0459L18.374 44.5703L18.0977 43.4082L17.498 43.0225L16.5469 43.9316L15.2432 43.4004L14.7529 41.5898L14.8438 41.0859L16.1924 39.5977L15.6074 39L14.3115 40.292L13.9092 39.0977L13.4883 38.7402L12.5254 39.0117L11.8125 38.3164L10.9648 38.46L10.2139 38.8662L9.41016 38.1621L8.89844 38.2734L8.2666 37.585L7.40137 37.126L7.11816 36.2217L5.97559 35.7529L5.32129 34.6191L4.77539 34.0078L4.29492 33.0303L4.60938 32.6279L4.63477 31.5166L5.13184 30.8193L5.26074 29.2676L4.3623 29.6025L3.6875 28.4883L4.80859 27.7695L4.63379 26.6211L5.1875 26.5645L4.74023 25.6055L5.24609 24.9121L4.93555 24.5723L5.45312 23.7041L5.27051 23.4502L4.24219 23.4893L3.47559 22.8252L3.31348 22.1729L2.77246 21.3789L3.36523 20.9824L3.5752 20.0947L1.9043 19.082L1.86719 18.1934L0.996094 17.3662L0 17L1.63574 16.5898L2.36914 16.0078L2.12598 15.1475L1.53613 15.3545L1.05566 15.0869L0.0820312 13.6387L1.28613 13.4814L2.0625 12.5938L2.2666 12.0488L2.09082 11.0215L2.63965 10.0908L2.70801 9.40234L4.18262 8.94336L4.89355 8.33594L6.03223 9.05957L7.02539 7.37695L6.39258 6.80273L5.80957 6.60938L5.4502 5.89551L6.29785 5.64062L6.39941 5.22852L5.75098 4.66113L5.13184 4.6084L5.30957 3.78125L5.03223 3.20703L5.48438 2.10742L5.49512 1.23145L5.97949 0.581055L7.11035 0.663086L7.76172 0.499023L8.39551 1.17969L8.85742 0.985352L9.44238 2.05371L10.6582 1.93848L11.2344 0.84375L11.918 0.844727L11.9619 1.61914L12.5049 2.01953L13.6396 2.20898L13.6895 1.43164L14.2939 0.860352L14.2617 0.330078L14.8818 0.106445L15.2842 0.575195L15.876 0L16.2969 0.268555ZM17.6035 37.9102H17.6045H17.6035ZM20.5537 35.6201H20.5547H20.5537ZM19.8076 33.5859H19.8086H19.8076ZM19.293 30.6611V30.6621V30.6611ZM17.083 28.2725H17.084H17.083ZM17.9648 23.1953H17.9658H17.9648ZM19.9707 23.127H19.9717H19.9707Z" fill="#F2F2F2"/>
<path d="M16.2969 0.268555L16.7266 0.0129758L16.6659 -0.0890828L16.5658 -0.152954L16.2969 0.268555ZM17.0234 1.49023L17.3572 1.86251L17.6633 1.58804L17.4532 1.23466L17.0234 1.49023ZM15.8809 2.51465L15.5471 2.14237L14.9947 2.63766L15.6611 2.96376L15.8809 2.51465ZM17.3896 3.25293L17.7612 2.91836L17.6964 2.84638L17.6094 2.80381L17.3896 3.25293ZM18.0078 3.93945L18.4618 4.1489L18.5998 3.84973L18.3794 3.60488L18.0078 3.93945ZM17.6816 4.64648L17.2276 4.43703L17.2044 4.48743L17.1927 4.5417L17.6816 4.64648ZM17.3955 5.98145L16.9066 5.87666L16.8768 6.01552L16.9245 6.14929L17.3955 5.98145ZM17.6826 6.78711L17.2116 6.95495L17.2882 7.16982L17.5007 7.25283L17.6826 6.78711ZM18.5625 7.13086L18.3806 7.59658L18.5203 7.65118L18.667 7.61981L18.5625 7.13086ZM19.6084 6.90723L19.9973 6.59296L19.8042 6.35405L19.5039 6.41828L19.6084 6.90723ZM20.3691 7.84863L20.8677 7.88632L20.8827 7.6886L20.758 7.53437L20.3691 7.84863ZM20.3008 8.75293L20.6942 9.06154L20.7879 8.94205L20.7994 8.79062L20.3008 8.75293ZM19.3232 9.99902L18.9298 9.69041L18.8751 9.76019L18.8477 9.84453L19.3232 9.99902ZM19.1104 10.6543L19.4946 10.9742L19.5562 10.9003L19.5859 10.8088L19.1104 10.6543ZM18.4072 11.499L18.0229 11.1791L17.8102 11.4348L17.9637 11.7298L18.4072 11.499ZM18.833 12.3174L19.3298 12.261L19.3194 12.1689L19.2766 12.0866L18.833 12.3174ZM18.9004 12.9111L19.2882 13.2267L19.4209 13.0636L19.3972 12.8548L18.9004 12.9111ZM18.1035 13.8906L17.7157 13.5751L17.5268 13.8072L17.6422 14.0833L18.1035 13.8906ZM18.3613 14.5078L18.8601 14.4726L18.8543 14.3908L18.8227 14.3151L18.3613 14.5078ZM18.6074 17.9932L18.9771 18.3298L19.1213 18.1715L19.1062 17.9579L18.6074 17.9932ZM17.7441 18.9414L17.3744 18.6048L17.1692 18.8303L17.2756 19.116L17.7441 18.9414ZM17.9668 19.5391L17.4983 19.7136L17.5933 19.9688L17.8593 20.0274L17.9668 19.5391ZM18.8936 19.7432L18.786 20.2315L18.9117 20.2591L19.0352 20.2227L18.8936 19.7432ZM19.502 19.5635L19.9402 19.3227L19.7463 18.9699L19.3603 19.084L19.502 19.5635ZM19.9248 20.333L19.4866 20.5738L19.5732 20.7314L19.7404 20.7978L19.9248 20.333ZM20.71 20.6445L21.2043 20.7197L21.2641 20.3265L20.8944 20.1798L20.71 20.6445ZM20.5361 21.7881L20.0418 21.7129L19.8792 22.7826L20.7993 22.2133L20.5361 21.7881ZM21.6328 21.1094L21.6587 20.61L21.5026 20.602L21.3697 20.6842L21.6328 21.1094ZM22.292 21.1436L22.5414 20.7102L22.4375 20.6504L22.3179 20.6442L22.292 21.1436ZM23.3135 21.7314L23.8097 21.6701L23.7791 21.4225L23.5629 21.2981L23.3135 21.7314ZM23.4268 22.6484L22.9305 22.7097L22.9691 23.0217L23.2668 23.1222L23.4268 22.6484ZM24.3525 22.9609L24.8368 23.0855L24.9525 22.6357L24.5125 22.4872L24.3525 22.9609ZM24.1006 23.9404L23.6164 23.8159L23.5456 24.0911L23.7458 24.2927L24.1006 23.9404ZM24.6514 24.4951L25.1479 24.4366L25.1277 24.2652L25.0062 24.1428L24.6514 24.4951ZM24.7803 25.5889L25.2785 25.631L25.2828 25.5806L25.2768 25.5303L24.7803 25.5889ZM24.7012 26.5244L24.2029 26.4823L24.1505 27.103L24.7679 27.0199L24.7012 26.5244ZM26.3486 26.3027L26.5552 25.8474L26.4244 25.788L26.282 25.8072L26.3486 26.3027ZM27.0244 26.6094L26.8178 27.0647L27.0088 27.1514L27.2045 27.0758L27.0244 26.6094ZM27.7021 26.3477L27.9742 25.9282L27.7601 25.7893L27.522 25.8812L27.7021 26.3477ZM28.0996 26.6055L27.8275 27.025L28.0095 27.143L28.22 27.0908L28.0996 26.6055ZM29.5283 26.251L29.6699 25.7715L29.5397 25.733L29.4079 25.7657L29.5283 26.251ZM29.8623 26.3496L29.7207 26.8291L29.8166 26.8575L29.916 26.8467L29.8623 26.3496ZM31.4521 26.1777L31.9313 26.3207L32.1465 25.5998L31.3984 25.6806L31.4521 26.1777ZM30.9951 27.709L30.8271 28.1799L31.3235 28.357L31.4742 27.852L30.9951 27.709ZM29.8838 27.3125L30.0518 26.8416L29.2014 26.5382L29.3955 27.42L29.8838 27.3125ZM30.1963 28.7324L29.708 28.8399L29.7809 29.1713L30.1158 29.2259L30.1963 28.7324ZM31.0703 28.875L31.568 28.8269L31.531 28.4435L31.1508 28.3815L31.0703 28.875ZM31.1885 30.0986L30.6908 30.1467L30.7328 30.5818L31.1697 30.5983L31.1885 30.0986ZM32.2783 30.1396L32.5642 29.7295L32.4438 29.6455L32.2971 29.64L32.2783 30.1396ZM32.8359 30.5283L33.3168 30.3912L33.2679 30.2199L33.1218 30.1181L32.8359 30.5283ZM33.002 31.1104L32.5211 31.2475L32.5861 31.4754L32.8037 31.5694L33.002 31.1104ZM33.583 31.3613L34.0663 31.4896L34.1768 31.0732L33.7813 30.9023L33.583 31.3613ZM33.4023 32.042L33.2481 32.5176L33.7502 32.6804L33.8856 32.1703L33.4023 32.042ZM32.541 31.7627L32.6952 31.2871L32.3701 31.1817L32.1539 31.4463L32.541 31.7627ZM31.6895 32.8047L31.9361 33.2396L32.0174 33.1935L32.0766 33.1211L31.6895 32.8047ZM30.7354 33.3457L30.4887 32.9108L30.4418 32.9374L30.4016 32.9734L30.7354 33.3457ZM29.7178 34.2578L29.384 33.8855L29.348 33.9178L29.3189 33.9564L29.7178 34.2578ZM29.1953 34.9492L28.7964 34.6478L28.7267 34.74L28.7046 34.8534L29.1953 34.9492ZM29.0088 35.9043L28.5181 35.8085L28.4765 36.0214L28.6036 36.1972L29.0088 35.9043ZM29.3145 36.3271L29.7219 36.6169L29.9297 36.3247L29.7197 36.0342L29.3145 36.3271ZM29.0068 36.7598L28.7926 37.2116L29.1714 37.3911L29.4143 37.0495L29.0068 36.7598ZM27.876 36.2236L28.0902 35.7718L27.5279 35.5053L27.3887 36.1117L27.876 36.2236ZM27.6367 37.2656L27.4093 37.7109L27.9805 38.0026L28.124 37.3775L27.6367 37.2656ZM26.6348 36.7539L26.8622 36.3086L26.6846 36.2179L26.4933 36.2743L26.6348 36.7539ZM25.8701 36.9795L25.9085 37.478L25.961 37.474L26.0116 37.4591L25.8701 36.9795ZM24.0547 37.1191L24.0163 36.6206L23.926 36.6276L23.8439 36.6658L24.0547 37.1191ZM22.7588 37.7217L22.548 37.2683L22.3466 37.3619L22.2811 37.5741L22.7588 37.7217ZM22.4629 38.6797L22.2104 39.1112L22.7546 39.4297L22.9406 38.8272L22.4629 38.6797ZM21.4766 38.1025L21.7291 37.671L21.647 37.623L21.5531 37.6084L21.4766 38.1025ZM20.7197 37.9854L20.7962 37.4912L20.7331 37.4815L20.6695 37.4879L20.7197 37.9854ZM19.4727 38.1113L19.4224 37.6139L18.7288 37.6839L19.0176 38.3184L19.4727 38.1113ZM19.626 38.4482L19.1709 38.6553L19.2509 38.8313L19.4285 38.9076L19.626 38.4482ZM20.6621 38.8936L21.0802 38.6194L20.9978 38.4936L20.8595 38.4342L20.6621 38.8936ZM21.6494 40.3994L21.2313 40.6736L21.3296 40.8236L21.5009 40.8769L21.6494 40.3994ZM22.6982 40.7256L23.0497 40.3699L22.963 40.2843L22.8467 40.2481L22.6982 40.7256ZM23.0273 41.0508L23.4677 41.2877L23.6449 40.9581L23.3788 40.6951L23.0273 41.0508ZM22.6123 41.8223L22.9884 42.1517L23.0258 42.1091L23.0526 42.0592L22.6123 41.8223ZM21.833 42.7119L22.0618 43.1565L22.1464 43.113L22.2091 43.0414L21.833 42.7119ZM21.1611 43.0576L20.9324 42.613L20.8163 42.6727L20.7442 42.7816L21.1611 43.0576ZM20.8262 43.5635L21.0539 44.0086L21.1707 43.9488L21.2431 43.8395L20.8262 43.5635ZM19.7441 44.1172L19.5164 43.6721L19.2804 43.7928L19.2479 44.0559L19.7441 44.1172ZM19.6367 44.9873L19.6701 45.4862L20.0823 45.4586L20.133 45.0486L19.6367 44.9873ZM18.7598 45.0459L18.3714 45.3609L18.5346 45.5621L18.7931 45.5448L18.7598 45.0459ZM18.374 44.5703L17.8876 44.686L17.9139 44.7968L17.9857 44.8853L18.374 44.5703ZM18.0977 43.4082L18.5841 43.2925L18.5375 43.0966L18.3682 42.9877L18.0977 43.4082ZM17.498 43.0225L17.7686 42.602L17.4373 42.3889L17.1526 42.661L17.498 43.0225ZM16.5469 43.9316L16.3582 44.3947L16.6582 44.5169L16.8924 44.2931L16.5469 43.9316ZM15.2432 43.4004L14.7605 43.5311L14.8252 43.77L15.0545 43.8634L15.2432 43.4004ZM14.7529 41.5898L14.2609 41.5012L14.2409 41.6119L14.2703 41.7205L14.7529 41.5898ZM14.8438 41.0859L14.4732 40.7502L14.3771 40.8563L14.3517 40.9972L14.8438 41.0859ZM16.1924 39.5977L16.5629 39.9334L16.8791 39.5845L16.5497 39.2479L16.1924 39.5977ZM15.6074 39L15.9648 38.6503L15.6118 38.2896L15.2544 38.6459L15.6074 39ZM14.3115 40.292L13.8377 40.4516L14.0946 41.2143L14.6645 40.6461L14.3115 40.292ZM13.9092 39.0977L14.383 38.938L14.3387 38.8064L14.2328 38.7165L13.9092 39.0977ZM13.4883 38.7402L13.8119 38.3591L13.6089 38.1867L13.3526 38.259L13.4883 38.7402ZM12.5254 39.0117L12.1763 39.3697L12.3831 39.5713L12.6611 39.493L12.5254 39.0117ZM11.8125 38.3164L12.1616 37.9585L11.9796 37.781L11.729 37.8234L11.8125 38.3164ZM10.9648 38.46L10.8814 37.967L10.7997 37.9808L10.7269 38.0202L10.9648 38.46ZM10.2139 38.8662L9.88439 39.2423L10.1459 39.4714L10.4518 39.306L10.2139 38.8662ZM9.41016 38.1621L9.73963 37.786L9.55009 37.62L9.30386 37.6735L9.41016 38.1621ZM8.89844 38.2734L8.53006 38.6115L8.72418 38.823L9.00473 38.762L8.89844 38.2734ZM8.2666 37.585L8.63498 37.2469L8.57686 37.1835L8.50091 37.1433L8.2666 37.585ZM7.40137 37.126L6.92422 37.2754L6.98561 37.4714L7.16706 37.5677L7.40137 37.126ZM7.11816 36.2217L7.59531 36.0723L7.52515 35.8482L7.30794 35.7591L7.11816 36.2217ZM5.97559 35.7529L5.54252 36.0028L5.62786 36.1507L5.78581 36.2155L5.97559 35.7529ZM5.32129 34.6191L5.75435 34.3692L5.72858 34.3246L5.69424 34.2861L5.32129 34.6191ZM4.77539 34.0078L4.32666 34.2284L4.35685 34.2898L4.40244 34.3408L4.77539 34.0078ZM4.29492 33.0303L3.90097 32.7224L3.70788 32.9694L3.84619 33.2508L4.29492 33.0303ZM4.60938 32.6279L5.00333 32.9358L5.10546 32.8052L5.10924 32.6394L4.60938 32.6279ZM4.63477 31.5166L4.22763 31.2264L4.13841 31.3515L4.1349 31.5052L4.63477 31.5166ZM5.13184 30.8193L5.53897 31.1096L5.61874 30.9977L5.63012 30.8607L5.13184 30.8193ZM5.26074 29.2676L5.75903 29.309L5.82424 28.5239L5.08607 28.7991L5.26074 29.2676ZM4.3623 29.6025L3.93462 29.8615L4.14907 30.2157L4.53697 30.071L4.3623 29.6025ZM3.6875 28.4883L3.41764 28.0674L3.00735 28.3304L3.25982 28.7473L3.6875 28.4883ZM4.80859 27.7695L5.07845 28.1905L5.35175 28.0152L5.3029 27.6943L4.80859 27.7695ZM4.63379 26.6211L4.58291 26.1237L4.06045 26.1771L4.13948 26.6963L4.63379 26.6211ZM5.1875 26.5645L5.23838 27.0619L5.93782 26.9903L5.64064 26.3531L5.1875 26.5645ZM4.74023 25.6055L4.33631 25.3108L4.16231 25.5493L4.2871 25.8168L4.74023 25.6055ZM5.24609 24.9121L5.65002 25.2068L5.89094 24.8766L5.6152 24.5748L5.24609 24.9121ZM4.93555 24.5723L4.50608 24.3162L4.31585 24.6353L4.56644 24.9096L4.93555 24.5723ZM5.45312 23.7041L5.88259 23.9601L6.05055 23.6784L5.85904 23.4122L5.45312 23.7041ZM5.27051 23.4502L5.67642 23.1582L5.51972 22.9404L5.25153 22.9506L5.27051 23.4502ZM4.24219 23.4893L3.91481 23.8672L4.06397 23.9964L4.26117 23.9889L4.24219 23.4893ZM3.47559 22.8252L2.99034 22.9458L3.02853 23.0994L3.14821 23.2031L3.47559 22.8252ZM3.31348 22.1729L3.79872 22.0523L3.77711 21.9653L3.72667 21.8913L3.31348 22.1729ZM2.77246 21.3789L2.49448 20.9633L2.07527 21.2437L2.35927 21.6605L2.77246 21.3789ZM3.36523 20.9824L3.64322 21.398L3.80657 21.2888L3.85181 21.0975L3.36523 20.9824ZM3.5752 20.0947L4.06177 20.2098L4.14552 19.8557L3.83435 19.6671L3.5752 20.0947ZM1.9043 19.082L1.40473 19.1029L1.41592 19.3707L1.64514 19.5096L1.9043 19.082ZM1.86719 18.1934L2.36675 18.1725L2.3583 17.9702L2.21148 17.8308L1.86719 18.1934ZM0.996094 17.3662L1.34038 17.0036L1.26552 16.9325L1.16863 16.8969L0.996094 17.3662ZM0 17L-0.121608 16.515L-1.69504 16.9095L-0.172533 17.4693L0 17ZM1.63574 16.5898L1.75735 17.0748L1.86203 17.0486L1.94656 16.9815L1.63574 16.5898ZM2.36914 16.0078L2.67996 16.3995L2.94089 16.1924L2.85029 15.8718L2.36914 16.0078ZM2.12598 15.1475L2.60713 15.0115L2.46242 14.4995L1.96038 14.6757L2.12598 15.1475ZM1.53613 15.3545L1.29286 15.7913L1.48943 15.9008L1.70173 15.8263L1.53613 15.3545ZM1.05566 15.0869L0.640718 15.3659L0.707623 15.4654L0.81239 15.5237L1.05566 15.0869ZM0.0820312 13.6387L0.0172929 13.1429L-0.783476 13.2474L-0.332915 13.9176L0.0820312 13.6387ZM1.28613 13.4814L1.35087 13.9772L1.53816 13.9528L1.6625 13.8106L1.28613 13.4814ZM2.0625 12.5938L2.43887 12.9229L2.4988 12.8544L2.53073 12.7691L2.0625 12.5938ZM2.2666 12.0488L2.73484 12.2242L2.78223 12.0977L2.75944 11.9645L2.2666 12.0488ZM2.09082 11.0215L1.66013 10.7675L1.56709 10.9253L1.59798 11.1058L2.09082 11.0215ZM2.63965 10.0908L3.07034 10.3448L3.12631 10.2499L3.1372 10.1402L2.63965 10.0908ZM2.70801 9.40234L2.55941 8.92494L2.24318 9.02337L2.21045 9.35294L2.70801 9.40234ZM4.18262 8.94336L4.33121 9.42077L4.4293 9.39024L4.50741 9.3235L4.18262 8.94336ZM4.89355 8.33594L5.16173 7.91394L4.84978 7.71569L4.56876 7.95579L4.89355 8.33594ZM6.03223 9.05957L5.76405 9.48156L6.20016 9.75872L6.46281 9.31372L6.03223 9.05957ZM7.02539 7.37695L7.45598 7.63111L7.663 7.28036L7.36139 7.00667L7.02539 7.37695ZM6.39258 6.80273L6.72857 6.43245L6.6503 6.36143L6.54998 6.32815L6.39258 6.80273ZM5.80957 6.60938L5.36297 6.8342L5.45594 7.01887L5.65217 7.08395L5.80957 6.60938ZM5.4502 5.89551L5.30622 5.41669L4.73572 5.58823L5.00359 6.12034L5.4502 5.89551ZM6.29785 5.64062L6.44183 6.11945L6.71506 6.03729L6.78333 5.76027L6.29785 5.64062ZM6.39941 5.22852L6.88489 5.34816L6.95772 5.05265L6.72867 4.85223L6.39941 5.22852ZM5.75098 4.66113L6.08023 4.28484L5.95681 4.17685L5.79341 4.16294L5.75098 4.66113ZM5.13184 4.6084L4.64299 4.50336L4.52373 5.05841L5.0894 5.10659L5.13184 4.6084ZM5.30957 3.78125L5.79841 3.88629L5.83449 3.71841L5.7598 3.56379L5.30957 3.78125ZM5.03223 3.20703L4.56979 3.01688L4.48487 3.22341L4.58199 3.42449L5.03223 3.20703ZM5.48438 2.10742L5.94681 2.29757L5.98317 2.20915L5.98434 2.11355L5.48438 2.10742ZM5.49512 1.23145L5.09411 0.932796L4.99715 1.06299L4.99515 1.22531L5.49512 1.23145ZM5.97949 0.581055L6.01567 0.082365L5.74223 0.0625305L5.57848 0.282405L5.97949 0.581055ZM7.11035 0.663086L7.07418 1.16178L7.15444 1.1676L7.23247 1.14794L7.11035 0.663086ZM7.76172 0.499023L8.12765 0.158295L7.92622 -0.0580272L7.6396 0.0141667L7.76172 0.499023ZM8.39551 1.17969L8.02958 1.52042L8.26754 1.77598L8.58941 1.64056L8.39551 1.17969ZM8.85742 0.985352L9.29599 0.745224L9.07934 0.349539L8.66352 0.524479L8.85742 0.985352ZM9.44238 2.05371L9.00382 2.29384L9.16189 2.58254L9.48956 2.55148L9.44238 2.05371ZM10.6582 1.93848L10.7054 2.43625L10.9747 2.41072L11.1007 2.17135L10.6582 1.93848ZM11.2344 0.84375L11.2351 0.343751L10.9327 0.343319L10.7919 0.610877L11.2344 0.84375ZM11.918 0.844727L12.4172 0.816399L12.3904 0.345401L11.9187 0.344727L11.918 0.844727ZM11.9619 1.61914L11.4627 1.64747L11.476 1.88209L11.6652 2.02156L11.9619 1.61914ZM12.5049 2.01953L12.2081 2.42195L12.3045 2.49299L12.4225 2.51271L12.5049 2.01953ZM13.6396 2.20898L13.5573 2.70216L14.1032 2.7933L14.1386 2.24095L13.6396 2.20898ZM13.6895 1.43164L13.346 1.06825L13.2031 1.20336L13.1905 1.39967L13.6895 1.43164ZM14.2939 0.860352L14.6374 1.22374L14.8072 1.06325L14.793 0.830021L14.2939 0.860352ZM14.2617 0.330078L14.0921 -0.140271L13.7399 -0.0132692L13.7626 0.360409L14.2617 0.330078ZM14.8818 0.106445L15.2612 -0.219211L15.0366 -0.480897L14.7122 -0.363904L14.8818 0.106445ZM15.2842 0.575195L14.9048 0.900851L15.2512 1.30448L15.6327 0.933742L15.2842 0.575195ZM15.876 0L16.1449 -0.421508L15.8113 -0.634384L15.5275 -0.358547L15.876 0ZM16.2969 0.268555L15.8671 0.524134L16.5937 1.74581L17.0234 1.49023L17.4532 1.23466L16.7266 0.0129758L16.2969 0.268555ZM17.0234 1.49023L16.6897 1.11796L15.5471 2.14237L15.8809 2.51465L16.2146 2.88693L17.3572 1.86251L17.0234 1.49023ZM15.8809 2.51465L15.6611 2.96376L17.1699 3.70205L17.3896 3.25293L17.6094 2.80381L16.1006 2.06553L15.8809 2.51465ZM17.3896 3.25293L17.0181 3.5875L17.6362 4.27402L18.0078 3.93945L18.3794 3.60488L17.7612 2.91836L17.3896 3.25293ZM18.0078 3.93945L17.5538 3.73L17.2276 4.43703L17.6816 4.64648L18.1357 4.85593L18.4618 4.1489L18.0078 3.93945ZM17.6816 4.64648L17.1927 4.5417L16.9066 5.87666L17.3955 5.98145L17.8844 6.08623L18.1705 4.75127L17.6816 4.64648ZM17.3955 5.98145L16.9245 6.14929L17.2116 6.95495L17.6826 6.78711L18.1536 6.61927L17.8665 5.8136L17.3955 5.98145ZM17.6826 6.78711L17.5007 7.25283L18.3806 7.59658L18.5625 7.13086L18.7444 6.66514L17.8646 6.32139L17.6826 6.78711ZM18.5625 7.13086L18.667 7.61981L19.7129 7.39617L19.6084 6.90723L19.5039 6.41828L18.458 6.64191L18.5625 7.13086ZM19.6084 6.90723L19.2195 7.22149L19.9802 8.1629L20.3691 7.84863L20.758 7.53437L19.9973 6.59296L19.6084 6.90723ZM20.3691 7.84863L19.8706 7.81094L19.8022 8.71524L20.3008 8.75293L20.7994 8.79062L20.8677 7.88632L20.3691 7.84863ZM20.3008 8.75293L19.9074 8.44432L18.9298 9.69041L19.3232 9.99902L19.7166 10.3076L20.6942 9.06154L20.3008 8.75293ZM19.3232 9.99902L18.8477 9.84453L18.6348 10.4998L19.1104 10.6543L19.5859 10.8088L19.7988 10.1535L19.3232 9.99902ZM19.1104 10.6543L18.7261 10.3344L18.0229 11.1791L18.4072 11.499L18.7915 11.8189L19.4946 10.9742L19.1104 10.6543ZM18.4072 11.499L17.9637 11.7298L18.3895 12.5482L18.833 12.3174L19.2766 12.0866L18.8508 11.2682L18.4072 11.499ZM18.833 12.3174L18.3362 12.3738L18.4036 12.9675L18.9004 12.9111L19.3972 12.8548L19.3298 12.261L18.833 12.3174ZM18.9004 12.9111L18.5125 12.5956L17.7157 13.5751L18.1035 13.8906L18.4914 14.2062L19.2882 13.2267L18.9004 12.9111ZM18.1035 13.8906L17.6422 14.0833L17.9 14.7005L18.3613 14.5078L18.8227 14.3151L18.5649 13.6979L18.1035 13.8906ZM18.3613 14.5078L17.8626 14.543L18.1087 18.0284L18.6074 17.9932L19.1062 17.9579L18.8601 14.4726L18.3613 14.5078ZM18.6074 17.9932L18.2377 17.6566L17.3744 18.6048L17.7441 18.9414L18.1139 19.278L18.9771 18.3298L18.6074 17.9932ZM17.7441 18.9414L17.2756 19.116L17.4983 19.7136L17.9668 19.5391L18.4353 19.3645L18.2127 18.7669L17.7441 18.9414ZM17.9668 19.5391L17.8593 20.0274L18.786 20.2315L18.8936 19.7432L19.0011 19.2549L18.0743 19.0508L17.9668 19.5391ZM18.8936 19.7432L19.0352 20.2227L19.6436 20.043L19.502 19.5635L19.3603 19.084L18.7519 19.2636L18.8936 19.7432ZM19.502 19.5635L19.0638 19.8043L19.4866 20.5738L19.9248 20.333L20.363 20.0922L19.9402 19.3227L19.502 19.5635ZM19.9248 20.333L19.7404 20.7978L20.5256 21.1093L20.71 20.6445L20.8944 20.1798L20.1092 19.8683L19.9248 20.333ZM20.71 20.6445L20.2156 20.5694L20.0418 21.7129L20.5361 21.7881L21.0305 21.8632L21.2043 20.7197L20.71 20.6445ZM20.5361 21.7881L20.7993 22.2133L21.8959 21.5345L21.6328 21.1094L21.3697 20.6842L20.273 21.3629L20.5361 21.7881ZM21.6328 21.1094L21.6069 21.6087L22.2661 21.6429L22.292 21.1436L22.3179 20.6442L21.6587 20.61L21.6328 21.1094ZM22.292 21.1436L22.0426 21.5769L23.0641 22.1648L23.3135 21.7314L23.5629 21.2981L22.5414 20.7102L22.292 21.1436ZM23.3135 21.7314L22.8172 21.7927L22.9305 22.7097L23.4268 22.6484L23.923 22.5871L23.8097 21.6701L23.3135 21.7314ZM23.4268 22.6484L23.2668 23.1222L24.1926 23.4347L24.3525 22.9609L24.5125 22.4872L23.5867 22.1747L23.4268 22.6484ZM24.3525 22.9609L23.8683 22.8364L23.6164 23.8159L24.1006 23.9404L24.5848 24.065L24.8368 23.0855L24.3525 22.9609ZM24.1006 23.9404L23.7458 24.2927L24.2966 24.8474L24.6514 24.4951L25.0062 24.1428L24.4554 23.5881L24.1006 23.9404ZM24.6514 24.4951L24.1548 24.5536L24.2837 25.6474L24.7803 25.5889L25.2768 25.5303L25.1479 24.4366L24.6514 24.4951ZM24.7803 25.5889L24.2821 25.5467L24.2029 26.4823L24.7012 26.5244L25.1994 26.5665L25.2785 25.631L24.7803 25.5889ZM24.7012 26.5244L24.7679 27.0199L26.4153 26.7983L26.3486 26.3027L26.282 25.8072L24.6345 26.0289L24.7012 26.5244ZM26.3486 26.3027L26.142 26.7581L26.8178 27.0647L27.0244 26.6094L27.231 26.1541L26.5552 25.8474L26.3486 26.3027ZM27.0244 26.6094L27.2045 27.0758L27.8823 26.8141L27.7021 26.3477L27.522 25.8812L26.8443 26.1429L27.0244 26.6094ZM27.7021 26.3477L27.4301 26.7671L27.8275 27.025L28.0996 26.6055L28.3717 26.186L27.9742 25.9282L27.7021 26.3477ZM28.0996 26.6055L28.22 27.0908L29.6487 26.7363L29.5283 26.251L29.4079 25.7657L27.9792 26.1202L28.0996 26.6055ZM29.5283 26.251L29.3867 26.7305L29.7207 26.8291L29.8623 26.3496L30.0039 25.8701L29.6699 25.7715L29.5283 26.251ZM29.8623 26.3496L29.916 26.8467L31.5059 26.6748L31.4521 26.1777L31.3984 25.6806L29.8086 25.8525L29.8623 26.3496ZM31.4521 26.1777L30.973 26.0347L30.516 27.566L30.9951 27.709L31.4742 27.852L31.9313 26.3207L31.4521 26.1777ZM30.9951 27.709L31.1631 27.2381L30.0518 26.8416L29.8838 27.3125L29.7158 27.7834L30.8271 28.1799L30.9951 27.709ZM29.8838 27.3125L29.3955 27.42L29.708 28.8399L30.1963 28.7324L30.6846 28.625L30.3721 27.205L29.8838 27.3125ZM30.1963 28.7324L30.1158 29.2259L30.9898 29.3685L31.0703 28.875L31.1508 28.3815L30.2768 28.2389L30.1963 28.7324ZM31.0703 28.875L30.5726 28.9231L30.6908 30.1467L31.1885 30.0986L31.6862 30.0506L31.568 28.8269L31.0703 28.875ZM31.1885 30.0986L31.1697 30.5983L32.2595 30.6393L32.2783 30.1396L32.2971 29.64L31.2073 29.599L31.1885 30.0986ZM32.2783 30.1396L31.9924 30.5498L32.55 30.9385L32.8359 30.5283L33.1218 30.1181L32.5642 29.7295L32.2783 30.1396ZM32.8359 30.5283L32.3551 30.6655L32.5211 31.2475L33.002 31.1104L33.4828 30.9732L33.3168 30.3912L32.8359 30.5283ZM33.002 31.1104L32.8037 31.5694L33.3847 31.8203L33.583 31.3613L33.7813 30.9023L33.2002 30.6513L33.002 31.1104ZM33.583 31.3613L33.0997 31.2331L32.9191 31.9137L33.4023 32.042L33.8856 32.1703L34.0663 31.4896L33.583 31.3613ZM33.4023 32.042L33.5566 31.5664L32.6952 31.2871L32.541 31.7627L32.3868 32.2383L33.2481 32.5176L33.4023 32.042ZM32.541 31.7627L32.1539 31.4463L31.3023 32.4883L31.6895 32.8047L32.0766 33.1211L32.9282 32.0791L32.541 31.7627ZM31.6895 32.8047L31.4428 32.3697L30.4887 32.9108L30.7354 33.3457L30.982 33.7806L31.9361 33.2396L31.6895 32.8047ZM30.7354 33.3457L30.4016 32.9734L29.384 33.8855L29.7178 34.2578L30.0515 34.6301L31.0691 33.718L30.7354 33.3457ZM29.7178 34.2578L29.3189 33.9564L28.7964 34.6478L29.1953 34.9492L29.5942 35.2507L30.1167 34.5593L29.7178 34.2578ZM29.1953 34.9492L28.7046 34.8534L28.5181 35.8085L29.0088 35.9043L29.4995 36.0001L29.686 35.0451L29.1953 34.9492ZM29.0088 35.9043L28.6036 36.1972L28.9092 36.6201L29.3145 36.3271L29.7197 36.0342L29.414 35.6114L29.0088 35.9043ZM29.3145 36.3271L28.907 36.0374L28.5993 36.47L29.0068 36.7598L29.4143 37.0495L29.7219 36.6169L29.3145 36.3271ZM29.0068 36.7598L29.221 36.308L28.0902 35.7718L27.876 36.2236L27.6618 36.6754L28.7926 37.2116L29.0068 36.7598ZM27.876 36.2236L27.3887 36.1117L27.1494 37.1537L27.6367 37.2656L28.124 37.3775L28.3633 36.3355L27.876 36.2236ZM27.6367 37.2656L27.8641 36.8203L26.8622 36.3086L26.6348 36.7539L26.4073 37.1992L27.4093 37.7109L27.6367 37.2656ZM26.6348 36.7539L26.4933 36.2743L25.7286 36.4999L25.8701 36.9795L26.0116 37.4591L26.7762 37.2335L26.6348 36.7539ZM25.8701 36.9795L25.8318 36.481L24.0163 36.6206L24.0547 37.1191L24.093 37.6177L25.9085 37.478L25.8701 36.9795ZM24.0547 37.1191L23.8439 36.6658L22.548 37.2683L22.7588 37.7217L22.9696 38.1751L24.2655 37.5725L24.0547 37.1191ZM22.7588 37.7217L22.2811 37.5741L21.9852 38.5321L22.4629 38.6797L22.9406 38.8272L23.2365 37.8692L22.7588 37.7217ZM22.4629 38.6797L22.7154 38.2481L21.7291 37.671L21.4766 38.1025L21.224 38.5341L22.2104 39.1112L22.4629 38.6797ZM21.4766 38.1025L21.5531 37.6084L20.7962 37.4912L20.7197 37.9854L20.6432 38.4795L21.4001 38.5966L21.4766 38.1025ZM20.7197 37.9854L20.6695 37.4879L19.4224 37.6139L19.4727 38.1113L19.5229 38.6088L20.77 38.4828L20.7197 37.9854ZM19.4727 38.1113L19.0176 38.3184L19.1709 38.6553L19.626 38.4482L20.0811 38.2411L19.9277 37.9042L19.4727 38.1113ZM19.626 38.4482L19.4285 38.9076L20.4647 39.3529L20.6621 38.8936L20.8595 38.4342L19.8234 37.9889L19.626 38.4482ZM20.6621 38.8936L20.244 39.1677L21.2313 40.6736L21.6494 40.3994L22.0676 40.1253L21.0802 38.6194L20.6621 38.8936ZM21.6494 40.3994L21.5009 40.8769L22.5498 41.203L22.6982 40.7256L22.8467 40.2481L21.7979 39.922L21.6494 40.3994ZM22.6982 40.7256L22.3468 41.0812L22.6759 41.4064L23.0273 41.0508L23.3788 40.6951L23.0497 40.3699L22.6982 40.7256ZM23.0273 41.0508L22.587 40.8139L22.172 41.5854L22.6123 41.8223L23.0526 42.0592L23.4677 41.2877L23.0273 41.0508ZM22.6123 41.8223L22.2362 41.4928L21.4569 42.3825L21.833 42.7119L22.2091 43.0414L22.9884 42.1517L22.6123 41.8223ZM21.833 42.7119L21.6042 42.2673L20.9324 42.613L21.1611 43.0576L21.3899 43.5022L22.0618 43.1565L21.833 42.7119ZM21.1611 43.0576L20.7442 42.7816L20.4093 43.2874L20.8262 43.5635L21.2431 43.8395L21.578 43.3337L21.1611 43.0576ZM20.8262 43.5635L20.5984 43.1184L19.5164 43.6721L19.7441 44.1172L19.9719 44.5623L21.0539 44.0086L20.8262 43.5635ZM19.7441 44.1172L19.2479 44.0559L19.1405 44.926L19.6367 44.9873L20.133 45.0486L20.2404 44.1785L19.7441 44.1172ZM19.6367 44.9873L19.6034 44.4884L18.7264 44.547L18.7598 45.0459L18.7931 45.5448L19.6701 45.4862L19.6367 44.9873ZM18.7598 45.0459L19.1481 44.7309L18.7623 44.2553L18.374 44.5703L17.9857 44.8853L18.3714 45.3609L18.7598 45.0459ZM18.374 44.5703L18.8605 44.4546L18.5841 43.2925L18.0977 43.4082L17.6112 43.5239L17.8876 44.686L18.374 44.5703ZM18.0977 43.4082L18.3682 42.9877L17.7686 42.602L17.498 43.0225L17.2275 43.443L17.8271 43.8287L18.0977 43.4082ZM17.498 43.0225L17.1526 42.661L16.2014 43.5702L16.5469 43.9316L16.8924 44.2931L17.8435 43.3839L17.498 43.0225ZM16.5469 43.9316L16.7356 43.4686L15.4318 42.9374L15.2432 43.4004L15.0545 43.8634L16.3582 44.3947L16.5469 43.9316ZM15.2432 43.4004L15.7258 43.2697L15.2356 41.4592L14.7529 41.5898L14.2703 41.7205L14.7605 43.5311L15.2432 43.4004ZM14.7529 41.5898L15.245 41.6785L15.3358 41.1746L14.8438 41.0859L14.3517 40.9972L14.2609 41.5012L14.7529 41.5898ZM14.8438 41.0859L15.2143 41.4217L16.5629 39.9334L16.1924 39.5977L15.8219 39.2619L14.4732 40.7502L14.8438 41.0859ZM16.1924 39.5977L16.5497 39.2479L15.9648 38.6503L15.6074 39L15.2501 39.3497L15.8351 39.9474L16.1924 39.5977ZM15.6074 39L15.2544 38.6459L13.9585 39.9379L14.3115 40.292L14.6645 40.6461L15.9604 39.3541L15.6074 39ZM14.3115 40.292L14.7854 40.1324L14.383 38.938L13.9092 39.0977L13.4353 39.2573L13.8377 40.4516L14.3115 40.292ZM13.9092 39.0977L14.2328 38.7165L13.8119 38.3591L13.4883 38.7402L13.1646 39.1214L13.5855 39.4788L13.9092 39.0977ZM13.4883 38.7402L13.3526 38.259L12.3897 38.5305L12.5254 39.0117L12.6611 39.493L13.624 39.2215L13.4883 38.7402ZM12.5254 39.0117L12.8745 38.6538L12.1616 37.9585L11.8125 38.3164L11.4634 38.6743L12.1763 39.3697L12.5254 39.0117ZM11.8125 38.3164L11.729 37.8234L10.8814 37.967L10.9648 38.46L11.0483 38.9529L11.896 38.8094L11.8125 38.3164ZM10.9648 38.46L10.7269 38.0202L9.97597 38.4264L10.2139 38.8662L10.4518 39.306L11.2027 38.8997L10.9648 38.46ZM10.2139 38.8662L10.5433 38.4901L9.73963 37.786L9.41016 38.1621L9.08068 38.5382L9.88439 39.2423L10.2139 38.8662ZM9.41016 38.1621L9.30386 37.6735L8.79215 37.7849L8.89844 38.2734L9.00473 38.762L9.51645 38.6507L9.41016 38.1621ZM8.89844 38.2734L9.26682 37.9354L8.63498 37.2469L8.2666 37.585L7.89822 37.923L8.53006 38.6115L8.89844 38.2734ZM8.2666 37.585L8.50091 37.1433L7.63568 36.6843L7.40137 37.126L7.16706 37.5677L8.03229 38.0267L8.2666 37.585ZM7.40137 37.126L7.87852 36.9765L7.59531 36.0723L7.11816 36.2217L6.64102 36.3711L6.92422 37.2754L7.40137 37.126ZM7.11816 36.2217L7.30794 35.7591L6.16536 35.2903L5.97559 35.7529L5.78581 36.2155L6.92839 36.6843L7.11816 36.2217ZM5.97559 35.7529L6.40865 35.503L5.75435 34.3692L5.32129 34.6191L4.88823 34.8691L5.54252 36.0028L5.97559 35.7529ZM5.32129 34.6191L5.69424 34.2861L5.14834 33.6748L4.77539 34.0078L4.40244 34.3408L4.94834 34.9522L5.32129 34.6191ZM4.77539 34.0078L5.22412 33.7873L4.74365 32.8097L4.29492 33.0303L3.84619 33.2508L4.32666 34.2284L4.77539 34.0078ZM4.29492 33.0303L4.68888 33.3382L5.00333 32.9358L4.60938 32.6279L4.21542 32.32L3.90097 32.7224L4.29492 33.0303ZM4.60938 32.6279L5.10924 32.6394L5.13463 31.528L4.63477 31.5166L4.1349 31.5052L4.10951 32.6165L4.60938 32.6279ZM4.63477 31.5166L5.0419 31.8068L5.53897 31.1096L5.13184 30.8193L4.7247 30.5291L4.22763 31.2264L4.63477 31.5166ZM5.13184 30.8193L5.63012 30.8607L5.75903 29.309L5.26074 29.2676L4.76246 29.2262L4.63355 30.7779L5.13184 30.8193ZM5.26074 29.2676L5.08607 28.7991L4.18764 29.134L4.3623 29.6025L4.53697 30.071L5.43541 29.7361L5.26074 29.2676ZM4.3623 29.6025L4.78999 29.3435L4.11518 28.2293L3.6875 28.4883L3.25982 28.7473L3.93462 29.8615L4.3623 29.6025ZM3.6875 28.4883L3.95736 28.9092L5.07845 28.1905L4.80859 27.7695L4.53873 27.3486L3.41764 28.0674L3.6875 28.4883ZM4.80859 27.7695L5.3029 27.6943L5.1281 26.5459L4.63379 26.6211L4.13948 26.6963L4.31429 27.8448L4.80859 27.7695ZM4.63379 26.6211L4.68467 27.1185L5.23838 27.0619L5.1875 26.5645L5.13662 26.067L4.58291 26.1237L4.63379 26.6211ZM5.1875 26.5645L5.64064 26.3531L5.19337 25.3941L4.74023 25.6055L4.2871 25.8168L4.73436 26.7758L5.1875 26.5645ZM4.74023 25.6055L5.14416 25.9002L5.65002 25.2068L5.24609 24.9121L4.84217 24.6174L4.33631 25.3108L4.74023 25.6055ZM5.24609 24.9121L5.6152 24.5748L5.30465 24.235L4.93555 24.5723L4.56644 24.9096L4.87699 25.2494L5.24609 24.9121ZM4.93555 24.5723L5.36502 24.8283L5.88259 23.9601L5.45312 23.7041L5.02366 23.4481L4.50608 24.3162L4.93555 24.5723ZM5.45312 23.7041L5.85904 23.4122L5.67642 23.1582L5.27051 23.4502L4.86459 23.7421L5.04721 23.996L5.45312 23.7041ZM5.27051 23.4502L5.25153 22.9506L4.22321 22.9896L4.24219 23.4893L4.26117 23.9889L5.28949 23.9498L5.27051 23.4502ZM4.24219 23.4893L4.56956 23.1113L3.80296 22.4473L3.47559 22.8252L3.14821 23.2031L3.91481 23.8672L4.24219 23.4893ZM3.47559 22.8252L3.96083 22.7046L3.79872 22.0523L3.31348 22.1729L2.82823 22.2934L2.99034 22.9458L3.47559 22.8252ZM3.31348 22.1729L3.72667 21.8913L3.18565 21.0973L2.77246 21.3789L2.35927 21.6605L2.90029 22.4544L3.31348 22.1729ZM2.77246 21.3789L3.05044 21.7945L3.64322 21.398L3.36523 20.9824L3.08725 20.5668L2.49448 20.9633L2.77246 21.3789ZM3.36523 20.9824L3.85181 21.0975L4.06177 20.2098L3.5752 20.0947L3.08862 19.9796L2.87866 20.8673L3.36523 20.9824ZM3.5752 20.0947L3.83435 19.6671L2.16345 18.6544L1.9043 19.082L1.64514 19.5096L3.31604 20.5223L3.5752 20.0947ZM1.9043 19.082L2.40386 19.0612L2.36675 18.1725L1.86719 18.1934L1.36762 18.2142L1.40473 19.1029L1.9043 19.082ZM1.86719 18.1934L2.21148 17.8308L1.34038 17.0036L0.996094 17.3662L0.651805 17.7288L1.5229 18.5559L1.86719 18.1934ZM0.996094 17.3662L1.16863 16.8969L0.172533 16.5307L0 17L-0.172533 17.4693L0.823561 17.8355L0.996094 17.3662ZM0 17L0.121608 17.485L1.75735 17.0748L1.63574 16.5898L1.51413 16.1049L-0.121608 16.515L0 17ZM1.63574 16.5898L1.94656 16.9815L2.67996 16.3995L2.36914 16.0078L2.05832 15.6162L1.32492 16.1982L1.63574 16.5898ZM2.36914 16.0078L2.85029 15.8718L2.60713 15.0115L2.12598 15.1475L1.64482 15.2835L1.88799 16.1438L2.36914 16.0078ZM2.12598 15.1475L1.96038 14.6757L1.37054 14.8827L1.53613 15.3545L1.70173 15.8263L2.29157 15.6192L2.12598 15.1475ZM1.53613 15.3545L1.77941 14.9177L1.29894 14.6501L1.05566 15.0869L0.81239 15.5237L1.29286 15.7913L1.53613 15.3545ZM1.05566 15.0869L1.47061 14.808L0.496977 13.3597L0.0820312 13.6387L-0.332915 13.9176L0.640718 15.3659L1.05566 15.0869ZM0.0820312 13.6387L0.14677 14.1345L1.35087 13.9772L1.28613 13.4814L1.22139 12.9857L0.0172929 13.1429L0.0820312 13.6387ZM1.28613 13.4814L1.6625 13.8106L2.43887 12.9229L2.0625 12.5938L1.68613 12.2646L0.909768 13.1523L1.28613 13.4814ZM2.0625 12.5938L2.53073 12.7691L2.73484 12.2242L2.2666 12.0488L1.79837 11.8735L1.59427 12.4184L2.0625 12.5938ZM2.2666 12.0488L2.75944 11.9645L2.58366 10.9372L2.09082 11.0215L1.59798 11.1058L1.77376 12.1332L2.2666 12.0488ZM2.09082 11.0215L2.52151 11.2755L3.07034 10.3448L2.63965 10.0908L2.20896 9.83684L1.66013 10.7675L2.09082 11.0215ZM2.63965 10.0908L3.1372 10.1402L3.20556 9.45175L2.70801 9.40234L2.21045 9.35294L2.1421 10.0414L2.63965 10.0908ZM2.70801 9.40234L2.85661 9.87975L4.33121 9.42077L4.18262 8.94336L4.03402 8.46595L2.55941 8.92494L2.70801 9.40234ZM4.18262 8.94336L4.50741 9.3235L5.21835 8.71608L4.89355 8.33594L4.56876 7.95579L3.85782 8.56322L4.18262 8.94336ZM4.89355 8.33594L4.62537 8.75793L5.76405 9.48156L6.03223 9.05957L6.30041 8.63758L5.16173 7.91394L4.89355 8.33594ZM6.03223 9.05957L6.46281 9.31372L7.45598 7.63111L7.02539 7.37695L6.5948 7.1228L5.60164 8.80542L6.03223 9.05957ZM7.02539 7.37695L7.36139 7.00667L6.72857 6.43245L6.39258 6.80273L6.05658 7.17301L6.6894 7.74723L7.02539 7.37695ZM6.39258 6.80273L6.54998 6.32815L5.96697 6.1348L5.80957 6.60938L5.65217 7.08395L6.23518 7.27731L6.39258 6.80273ZM5.80957 6.60938L6.25617 6.38455L5.8968 5.67068L5.4502 5.89551L5.00359 6.12034L5.36297 6.8342L5.80957 6.60938ZM5.4502 5.89551L5.59417 6.37433L6.44183 6.11945L6.29785 5.64062L6.15387 5.1618L5.30622 5.41669L5.4502 5.89551ZM6.29785 5.64062L6.78333 5.76027L6.88489 5.34816L6.39941 5.22852L5.91394 5.10887L5.81238 5.52098L6.29785 5.64062ZM6.39941 5.22852L6.72867 4.85223L6.08023 4.28484L5.75098 4.66113L5.42172 5.03742L6.07016 5.6048L6.39941 5.22852ZM5.75098 4.66113L5.79341 4.16294L5.17427 4.1102L5.13184 4.6084L5.0894 5.10659L5.70854 5.15933L5.75098 4.66113ZM5.13184 4.6084L5.62068 4.71344L5.79841 3.88629L5.30957 3.78125L4.82073 3.67621L4.64299 4.50336L5.13184 4.6084ZM5.30957 3.78125L5.7598 3.56379L5.48246 2.98957L5.03223 3.20703L4.58199 3.42449L4.85934 3.99871L5.30957 3.78125ZM5.03223 3.20703L5.49466 3.39718L5.94681 2.29757L5.48438 2.10742L5.02194 1.91727L4.56979 3.01688L5.03223 3.20703ZM5.48438 2.10742L5.98434 2.11355L5.99508 1.23758L5.49512 1.23145L4.99515 1.22531L4.98441 2.10129L5.48438 2.10742ZM5.49512 1.23145L5.89613 1.53009L6.3805 0.879704L5.97949 0.581055L5.57848 0.282405L5.09411 0.932796L5.49512 1.23145ZM5.97949 0.581055L5.94332 1.07974L7.07418 1.16178L7.11035 0.663086L7.14653 0.164396L6.01567 0.082365L5.97949 0.581055ZM7.11035 0.663086L7.23247 1.14794L7.88384 0.98388L7.76172 0.499023L7.6396 0.0141667L6.98823 0.178229L7.11035 0.663086ZM7.76172 0.499023L7.39579 0.839752L8.02958 1.52042L8.39551 1.17969L8.76144 0.838959L8.12765 0.158295L7.76172 0.499023ZM8.39551 1.17969L8.58941 1.64056L9.05132 1.44622L8.85742 0.985352L8.66352 0.524479L8.20161 0.718815L8.39551 1.17969ZM8.85742 0.985352L8.41886 1.22548L9.00382 2.29384L9.44238 2.05371L9.88095 1.81358L9.29599 0.745224L8.85742 0.985352ZM9.44238 2.05371L9.48956 2.55148L10.7054 2.43625L10.6582 1.93848L10.611 1.44071L9.3952 1.55594L9.44238 2.05371ZM10.6582 1.93848L11.1007 2.17135L11.6768 1.07662L11.2344 0.84375L10.7919 0.610877L10.2157 1.7056L10.6582 1.93848ZM11.2344 0.84375L11.2337 1.34375L11.9173 1.34473L11.918 0.844727L11.9187 0.344727L11.2351 0.343751L11.2344 0.84375ZM11.918 0.844727L11.4188 0.873054L11.4627 1.64747L11.9619 1.61914L12.4611 1.59081L12.4172 0.816399L11.918 0.844727ZM11.9619 1.61914L11.6652 2.02156L12.2081 2.42195L12.5049 2.01953L12.8016 1.61711L12.2587 1.21672L11.9619 1.61914ZM12.5049 2.01953L12.4225 2.51271L13.5573 2.70216L13.6396 2.20898L13.722 1.71581L12.5872 1.52636L12.5049 2.01953ZM13.6396 2.20898L14.1386 2.24095L14.1884 1.46361L13.6895 1.43164L13.1905 1.39967L13.1407 2.17701L13.6396 2.20898ZM13.6895 1.43164L14.0329 1.79503L14.6374 1.22374L14.2939 0.860352L13.9505 0.496959L13.346 1.06825L13.6895 1.43164ZM14.2939 0.860352L14.793 0.830021L14.7608 0.299747L14.2617 0.330078L13.7626 0.360409L13.7949 0.890682L14.2939 0.860352ZM14.2617 0.330078L14.4313 0.800427L15.0515 0.576795L14.8818 0.106445L14.7122 -0.363904L14.0921 -0.140271L14.2617 0.330078ZM14.8818 0.106445L14.5024 0.432101L14.9048 0.900851L15.2842 0.575195L15.6636 0.249539L15.2612 -0.219211L14.8818 0.106445ZM15.2842 0.575195L15.6327 0.933742L16.2245 0.358547L15.876 0L15.5275 -0.358547L14.9357 0.216649L15.2842 0.575195ZM15.876 0L15.607 0.421508L16.0279 0.690063L16.2969 0.268555L16.5658 -0.152954L16.1449 -0.421508L15.876 0ZM17.6035 37.9102V38.4102H17.6045V37.9102V37.4102H17.6035V37.9102ZM17.6045 37.9102V37.4102H17.6035V37.9102V38.4102H17.6045V37.9102ZM20.5537 35.6201V36.1201H20.5547V35.6201V35.1201H20.5537V35.6201ZM20.5547 35.6201V35.1201H20.5537V35.6201V36.1201H20.5547V35.6201ZM19.8076 33.5859V34.0859H19.8086V33.5859V33.0859H19.8076V33.5859ZM19.8086 33.5859V33.0859H19.8076V33.5859V34.0859H19.8086V33.5859ZM19.293 30.6611H18.793V30.6621H19.293H19.793V30.6611H19.293ZM19.293 30.6621H19.793V30.6611H19.293H18.793V30.6621H19.293ZM17.083 28.2725V28.7725H17.084V28.2725V27.7725H17.083V28.2725ZM17.084 28.2725V27.7725H17.083V28.2725V28.7725H17.084V28.2725ZM17.9648 23.1953V23.6953H17.9658V23.1953V22.6953H17.9648V23.1953ZM17.9658 23.1953V22.6953H17.9648V23.1953V23.6953H17.9658V23.1953ZM19.9707 23.127V23.627H19.9717V23.127V22.627H19.9707V23.127ZM19.9717 23.127V22.627H19.9707V23.127V23.627H19.9717V23.127Z" fill="#07122B" mask="url(#path-1-inside-1_90_92)"/>
</svg>
