<svg width="38" height="58" viewBox="0 0 38 58" fill="none" xmlns="http://www.w3.org/2000/svg">
<mask id="path-1-inside-1_81_187" fill="white">
<path d="M0.0364837 32.4746L0.589709 31.7915L1.15106 32.104L1.42436 31.4182L2.20411 31.2351L2.45684 29.9287L2.78769 29.7907L2.91986 28.7534L3.23013 28.1887L4.42928 28.9598L4.99279 28.4865L5.85364 27.1796L6.347 25.8494L7.17568 25.7662L7.72625 26.0966L8.51911 25.8999L9.37714 25.4461L10.027 25.7315L10.8894 25.7483L11.673 25.0995L11.8844 23.9382L13.0859 22.6161L13.3336 21.8548L13.2825 21.1576L13.7494 20.8L14.364 21.2934L15.3377 20.8658L16.6218 20.625L16.6588 20.2208L15.7974 19.2997L16.2871 17.7814L16.7664 17.532L17.6581 17.808L18.2287 17.3912L19.0546 17.2565L19.0138 16.2772L18.3699 16.249L17.8374 15.6382L17.8629 15.248L18.5932 14.5313L18.3422 13.9656L19.8133 13.6917L19.8632 12.9749L19.015 12.7163L19.0009 12.0381L20.2327 11.7925L21.0148 12.4707L20.83 13.0467L21.938 12.9429L21.437 11.6007L21.5859 10.7649L22.0353 10.0232L22.521 9.79276L22.8215 8.9396L22.6993 8.01526L23.1834 7.47076L22.9237 6.79368L24.0209 6.87411L25.7548 6.20517L26.6586 6.397L27.4584 5.8764L27.4313 5.36886L26.8808 4.83525L27.1477 4.02177L27.6448 3.88591L28.1225 2.90342L28.8186 2.48228L28.6425 2.09483L30.1853 1.04225L30.9091 1.09115L31.7927 0.595575L31.8627 0.2342L32.956 0L33.6381 0.735768L33.2267 1.13844L33.1348 2.06603L33.5109 2.65021L34.6308 3.61039L34.9602 4.01198L34.9847 5.41451L34.6933 6.14649L34.6917 7.22242L35.0515 8.44456L34.7754 8.98417L35.0417 9.55908L34.9129 10.1808L35.152 10.7193L35.7301 10.9703L34.82 12.2669L34.7358 12.756L35.6721 13.9754L35.6063 15.1404L35.8926 15.5762L36.5595 15.7702L36.8349 16.2669L36.054 17.2668L36.2583 18.0857L35.9795 18.8688L36.4931 19.4187L36.8182 20.9429L37.3915 21.5043L37.7696 22.3982L37.161 23.7888L36.6513 24.2246L36.5736 24.8212L36.8421 25.5836L36.2426 26.596L36.2003 27.2389L35.3857 27.5394L35.4243 28.674L34.9928 28.7186L34.4787 29.3038L34.4233 29.8956L33.9718 30.4281L33.1789 30.8879L33.4288 31.8464L33.0822 32.2697L33.2288 33.8157L33.562 34.4499L33.9076 35.703L33.6947 36.5567L33.857 37.1006L32.3947 39.8101L32.4226 40.511L31.2901 40.8692L30.6178 42.1462L30.6499 42.8738L31.1188 43.3525L30.5929 44.3584L30.5015 45.4425L30.8824 46.0495L30.9385 46.8738L30.639 48.0601L30.069 48.3225L29.6418 48.8882L29.501 50.6614L29.074 51.4651L28.9506 52.7785L29.0919 53.9213L29.1881 55.2526L29.0452 56.9573L28.4148 56.134L27.8637 56.5275L27.49 55.9172L25.8223 55.3722L25.061 54.1886L23.6116 53.4181L22.8895 53.5289L21.9428 53.2632L21.7554 53.6621L21.6353 55.5917L21.337 56.265L19.6708 55.8764L19.4708 55.3678L19.9675 53.7414L19.5345 53.0111L18.6558 53.4034L17.1788 53.498L16.9664 54.1957L15.8127 54.951L15.7709 55.8194L15.3454 56.6845L14.5683 57.2344L13.5961 56.6041L13.0272 55.8933L12.0632 55.4966L11.6632 54.7435L10.3405 54.6886L10.3519 54.2544L9.75375 53.4925L9.30052 53.93L8.54464 53.6599L7.8697 53.8881L7.03007 54.544L6.50952 53.849L7.09475 53.4474L6.97253 53.0105L7.21863 52.1389L6.56607 50.6951L7.21548 50.5521L7.6833 50.0653L7.22244 49.5675L6.41168 49.2311L6.81283 48.6236L6.47585 47.8878L5.96011 47.9085L5.67437 47.4547L5.04503 47.1868L4.57721 46.2076L4.68915 44.9246L4.33211 43.9264L3.85168 43.2303L3.43328 41.6375L3.11654 41.3006L2.44706 41.4463L2.08073 40.523L1.60959 40.3149L1.71225 39.5036L1.20098 39.1476L1.34061 37.6571L0.663506 36.1394L0.292864 35.872L0.784731 35.209L0.298337 34.896L0 34.1864L0.193529 33.2745L0.56898 32.7376L0.0364837 32.4746Z"/>
</mask>
<path d="M0.0364837 32.4746L0.589709 31.7915L1.15106 32.104L1.42436 31.4182L2.20411 31.2351L2.45684 29.9287L2.78769 29.7907L2.91986 28.7534L3.23013 28.1887L4.42928 28.9598L4.99279 28.4865L5.85364 27.1796L6.347 25.8494L7.17568 25.7662L7.72625 26.0966L8.51911 25.8999L9.37714 25.4461L10.027 25.7315L10.8894 25.7483L11.673 25.0995L11.8844 23.9382L13.0859 22.6161L13.3336 21.8548L13.2825 21.1576L13.7494 20.8L14.364 21.2934L15.3377 20.8658L16.6218 20.625L16.6588 20.2208L15.7974 19.2997L16.2871 17.7814L16.7664 17.532L17.6581 17.808L18.2287 17.3912L19.0546 17.2565L19.0138 16.2772L18.3699 16.249L17.8374 15.6382L17.8629 15.248L18.5932 14.5313L18.3422 13.9656L19.8133 13.6917L19.8632 12.9749L19.015 12.7163L19.0009 12.0381L20.2327 11.7925L21.0148 12.4707L20.83 13.0467L21.938 12.9429L21.437 11.6007L21.5859 10.7649L22.0353 10.0232L22.521 9.79276L22.8215 8.9396L22.6993 8.01526L23.1834 7.47076L22.9237 6.79368L24.0209 6.87411L25.7548 6.20517L26.6586 6.397L27.4584 5.8764L27.4313 5.36886L26.8808 4.83525L27.1477 4.02177L27.6448 3.88591L28.1225 2.90342L28.8186 2.48228L28.6425 2.09483L30.1853 1.04225L30.9091 1.09115L31.7927 0.595575L31.8627 0.2342L32.956 0L33.6381 0.735768L33.2267 1.13844L33.1348 2.06603L33.5109 2.65021L34.6308 3.61039L34.9602 4.01198L34.9847 5.41451L34.6933 6.14649L34.6917 7.22242L35.0515 8.44456L34.7754 8.98417L35.0417 9.55908L34.9129 10.1808L35.152 10.7193L35.7301 10.9703L34.82 12.2669L34.7358 12.756L35.6721 13.9754L35.6063 15.1404L35.8926 15.5762L36.5595 15.7702L36.8349 16.2669L36.054 17.2668L36.2583 18.0857L35.9795 18.8688L36.4931 19.4187L36.8182 20.9429L37.3915 21.5043L37.7696 22.3982L37.161 23.7888L36.6513 24.2246L36.5736 24.8212L36.8421 25.5836L36.2426 26.596L36.2003 27.2389L35.3857 27.5394L35.4243 28.674L34.9928 28.7186L34.4787 29.3038L34.4233 29.8956L33.9718 30.4281L33.1789 30.8879L33.4288 31.8464L33.0822 32.2697L33.2288 33.8157L33.562 34.4499L33.9076 35.703L33.6947 36.5567L33.857 37.1006L32.3947 39.8101L32.4226 40.511L31.2901 40.8692L30.6178 42.1462L30.6499 42.8738L31.1188 43.3525L30.5929 44.3584L30.5015 45.4425L30.8824 46.0495L30.9385 46.8738L30.639 48.0601L30.069 48.3225L29.6418 48.8882L29.501 50.6614L29.074 51.4651L28.9506 52.7785L29.0919 53.9213L29.1881 55.2526L29.0452 56.9573L28.4148 56.134L27.8637 56.5275L27.49 55.9172L25.8223 55.3722L25.061 54.1886L23.6116 53.4181L22.8895 53.5289L21.9428 53.2632L21.7554 53.6621L21.6353 55.5917L21.337 56.265L19.6708 55.8764L19.4708 55.3678L19.9675 53.7414L19.5345 53.0111L18.6558 53.4034L17.1788 53.498L16.9664 54.1957L15.8127 54.951L15.7709 55.8194L15.3454 56.6845L14.5683 57.2344L13.5961 56.6041L13.0272 55.8933L12.0632 55.4966L11.6632 54.7435L10.3405 54.6886L10.3519 54.2544L9.75375 53.4925L9.30052 53.93L8.54464 53.6599L7.8697 53.8881L7.03007 54.544L6.50952 53.849L7.09475 53.4474L6.97253 53.0105L7.21863 52.1389L6.56607 50.6951L7.21548 50.5521L7.6833 50.0653L7.22244 49.5675L6.41168 49.2311L6.81283 48.6236L6.47585 47.8878L5.96011 47.9085L5.67437 47.4547L5.04503 47.1868L4.57721 46.2076L4.68915 44.9246L4.33211 43.9264L3.85168 43.2303L3.43328 41.6375L3.11654 41.3006L2.44706 41.4463L2.08073 40.523L1.60959 40.3149L1.71225 39.5036L1.20098 39.1476L1.34061 37.6571L0.663506 36.1394L0.292864 35.872L0.784731 35.209L0.298337 34.896L0 34.1864L0.193529 33.2745L0.56898 32.7376L0.0364837 32.4746Z" fill="#F2F2F2" stroke="#07122B" mask="url(#path-1-inside-1_81_187)"/>
</svg>
