<svg width="54" height="43" viewBox="0 0 54 43" fill="none" xmlns="http://www.w3.org/2000/svg">
<mask id="path-1-inside-1_81_166" fill="white">
<path d="M0.0310111 22.9497L0 22.2004L0.845592 20.9489L1.22751 19.2557L1.73447 19.0171L2.43777 19.4089L3.65931 19.0872L4.02548 18.6411L5.0646 19.2203L5.77586 19.2817L7.15943 17.4059L7.68927 17.6347L7.78811 18.3194L8.43105 19.1649L9.49936 19.0541L10.1524 19.166L10.7159 18.6226L11.7176 18.6476L11.8131 17.5494L11.4381 16.8554L11.8914 16.4229L11.799 15.7757L12.4038 15.3219L12.2582 14.0232L11.3088 13.9591L11.192 13.4733L11.3756 11.812L12.0539 11.0116L13.1912 11.3578L13.7814 10.7731L13.6771 9.63733L14.3084 9.03525L15.2258 9.28955L15.5812 9.75362L16.7049 9.45692L16.5115 8.53314L17.0288 7.80063L17.6438 6.4959L18.834 6.78663L19.0883 6.22963L18.8639 5.41233L19.3057 5.12869L19.4231 4.38476L20.0649 4.04948L20.0539 3.18382L20.7979 2.44805L21.6444 3.09796L20.6186 4.41355L21.243 4.87762L21.9602 4.2076L22.0172 3.67399L23.1872 3.73701L23.7338 2.97352L24.055 1.77477L24.6951 1.09333L25.9086 0.542861L27.1313 0.626006L27.9382 0L28.9012 1.02867L28.7213 1.64869L29.1669 2.81215L29.0327 3.61149L29.8141 3.73974L30.7829 4.24836L31.2013 4.85969L31.8882 5.02272L33.4348 3.81472L34.0391 3.76854L35.0607 4.15599L36.5882 3.35283L38.0397 3.91362L38.1517 4.45323L39.0395 4.39562L39.6117 5.61612L40.1496 5.87642L39.9317 6.45025L40.7296 7.63597L41.7125 7.01158L43.1254 6.68284L44.023 4.95533L44.8686 4.4967L45.4854 4.4054L45.8539 5.06184L46.3668 5.27757L46.7489 5.88022L46.8434 6.56654L48.0286 7.36154L48.2731 7.34906L49.3034 8.18263L51.307 9.38466L52.0302 9.52811L52.3417 10.6943L53.4386 11.5702L52.998 12.6326L52.1047 13.2619L51.033 15.1752L50.9884 16.4359L51.5889 17.1619L51.9259 18.5807L51.7102 19.5415L52.6285 21.3548L51.7715 22.408L52.1286 22.7166L52.6606 24.1338L53.2675 24.493L52.8601 25.3038L52.51 26.0423L51.877 26.7313L50.8369 26.3281L50.4369 25.6679L49.9256 25.4136L49.4511 25.832L48.5883 25.4554L48.242 24.7919L47.1412 24.7913L47.821 25.5625L47.021 26.7601L46.1641 27.1514L45.6054 27.0644L45.0703 26.4341L44.5426 26.564L44.328 27.165L44.6116 28.1447L44.2438 28.9713L42.6695 28.6897L42.2836 28.9207L41.4332 28.3452L40.9272 28.8691L40.3757 29.0147L40.1632 28.0768L39.0281 27.8605L38.2701 27.5111L37.6271 27.8334L37.5712 28.3083L36.6686 27.9947L35.8568 28.4512L35.4602 28.3849L34.8699 29.5141L34.2695 29.2114L34.2103 30.4732L33.669 30.8786L33.4413 31.8002L32.8871 31.6513L32.5582 32.8376L31.4715 33.0136L30.7791 32.6414L29.9951 33.4065L29.2652 34.577L28.7234 34.9753L27.8725 34.8243L27.6442 34.4265L26.8551 35.2226L27.5029 35.8676L27.2742 36.2698L26.3286 35.6476L26.0439 36.6969L24.5381 37.1289L23.9796 37.8728L22.9557 37.4848L22.3156 38.2228L21.8537 37.6114L20.5201 37.2077L20.1795 38.1163L19.6267 37.856L18.809 38.4466L18.0221 38.7504L17.3928 39.4873L15.6425 40.198L15.2154 40.0888L14.6757 40.8659L14.2058 40.9012L13.3112 41.6245L12.5141 41.2191L12.0055 41.5283L11.4376 41.0327L10.941 41.0007L9.88459 42.0228L8.02674 41.8457L7.47518 42.175L7.12195 41.2028L6.26276 40.7175L5.73026 39.7188L5.36393 39.4014L4.84172 38.9124L3.67076 38.7107L4.42929 37.8576L4.27124 36.6018L4.44454 35.0389L3.86246 34.4347L2.94141 35.0992L2.21539 34.4743L2.52467 33.6353L2.1139 33.03L2.33827 31.4242L1.65735 31.509L1.23249 30.8069L0.581915 31.3036L0.336977 30.6004L1.08788 30.1368L0.599327 29.5108L0.962838 28.7925L1.76166 28.8821L2.35452 29.2353L2.71057 28.9283L3.65384 27.2405L4.17937 27.2557L4.5651 26.3172L4.52597 25.6266L3.85168 22.8003L1.92634 21.5407L0.962838 23.4556L0.0310111 22.9497Z"/>
</mask>
<path d="M0.0310111 22.9497L0 22.2004L0.845592 20.9489L1.22751 19.2557L1.73447 19.0171L2.43777 19.4089L3.65931 19.0872L4.02548 18.6411L5.0646 19.2203L5.77586 19.2817L7.15943 17.4059L7.68927 17.6347L7.78811 18.3194L8.43105 19.1649L9.49936 19.0541L10.1524 19.166L10.7159 18.6226L11.7176 18.6476L11.8131 17.5494L11.4381 16.8554L11.8914 16.4229L11.799 15.7757L12.4038 15.3219L12.2582 14.0232L11.3088 13.9591L11.192 13.4733L11.3756 11.812L12.0539 11.0116L13.1912 11.3578L13.7814 10.7731L13.6771 9.63733L14.3084 9.03525L15.2258 9.28955L15.5812 9.75362L16.7049 9.45692L16.5115 8.53314L17.0288 7.80063L17.6438 6.4959L18.834 6.78663L19.0883 6.22963L18.8639 5.41233L19.3057 5.12869L19.4231 4.38476L20.0649 4.04948L20.0539 3.18382L20.7979 2.44805L21.6444 3.09796L20.6186 4.41355L21.243 4.87762L21.9602 4.2076L22.0172 3.67399L23.1872 3.73701L23.7338 2.97352L24.055 1.77477L24.6951 1.09333L25.9086 0.542861L27.1313 0.626006L27.9382 0L28.9012 1.02867L28.7213 1.64869L29.1669 2.81215L29.0327 3.61149L29.8141 3.73974L30.7829 4.24836L31.2013 4.85969L31.8882 5.02272L33.4348 3.81472L34.0391 3.76854L35.0607 4.15599L36.5882 3.35283L38.0397 3.91362L38.1517 4.45323L39.0395 4.39562L39.6117 5.61612L40.1496 5.87642L39.9317 6.45025L40.7296 7.63597L41.7125 7.01158L43.1254 6.68284L44.023 4.95533L44.8686 4.4967L45.4854 4.4054L45.8539 5.06184L46.3668 5.27757L46.7489 5.88022L46.8434 6.56654L48.0286 7.36154L48.2731 7.34906L49.3034 8.18263L51.307 9.38466L52.0302 9.52811L52.3417 10.6943L53.4386 11.5702L52.998 12.6326L52.1047 13.2619L51.033 15.1752L50.9884 16.4359L51.5889 17.1619L51.9259 18.5807L51.7102 19.5415L52.6285 21.3548L51.7715 22.408L52.1286 22.7166L52.6606 24.1338L53.2675 24.493L52.8601 25.3038L52.51 26.0423L51.877 26.7313L50.8369 26.3281L50.4369 25.6679L49.9256 25.4136L49.4511 25.832L48.5883 25.4554L48.242 24.7919L47.1412 24.7913L47.821 25.5625L47.021 26.7601L46.1641 27.1514L45.6054 27.0644L45.0703 26.4341L44.5426 26.564L44.328 27.165L44.6116 28.1447L44.2438 28.9713L42.6695 28.6897L42.2836 28.9207L41.4332 28.3452L40.9272 28.8691L40.3757 29.0147L40.1632 28.0768L39.0281 27.8605L38.2701 27.5111L37.6271 27.8334L37.5712 28.3083L36.6686 27.9947L35.8568 28.4512L35.4602 28.3849L34.8699 29.5141L34.2695 29.2114L34.2103 30.4732L33.669 30.8786L33.4413 31.8002L32.8871 31.6513L32.5582 32.8376L31.4715 33.0136L30.7791 32.6414L29.9951 33.4065L29.2652 34.577L28.7234 34.9753L27.8725 34.8243L27.6442 34.4265L26.8551 35.2226L27.5029 35.8676L27.2742 36.2698L26.3286 35.6476L26.0439 36.6969L24.5381 37.1289L23.9796 37.8728L22.9557 37.4848L22.3156 38.2228L21.8537 37.6114L20.5201 37.2077L20.1795 38.1163L19.6267 37.856L18.809 38.4466L18.0221 38.7504L17.3928 39.4873L15.6425 40.198L15.2154 40.0888L14.6757 40.8659L14.2058 40.9012L13.3112 41.6245L12.5141 41.2191L12.0055 41.5283L11.4376 41.0327L10.941 41.0007L9.88459 42.0228L8.02674 41.8457L7.47518 42.175L7.12195 41.2028L6.26276 40.7175L5.73026 39.7188L5.36393 39.4014L4.84172 38.9124L3.67076 38.7107L4.42929 37.8576L4.27124 36.6018L4.44454 35.0389L3.86246 34.4347L2.94141 35.0992L2.21539 34.4743L2.52467 33.6353L2.1139 33.03L2.33827 31.4242L1.65735 31.509L1.23249 30.8069L0.581915 31.3036L0.336977 30.6004L1.08788 30.1368L0.599327 29.5108L0.962838 28.7925L1.76166 28.8821L2.35452 29.2353L2.71057 28.9283L3.65384 27.2405L4.17937 27.2557L4.5651 26.3172L4.52597 25.6266L3.85168 22.8003L1.92634 21.5407L0.962838 23.4556L0.0310111 22.9497Z" fill="#F2F2F2" stroke="#07122B" mask="url(#path-1-inside-1_81_166)"/>
</svg>
