<svg width="68" height="54" viewBox="0 0 68 54" fill="none" xmlns="http://www.w3.org/2000/svg">
<mask id="path-1-inside-1_81_131" fill="white">
<path d="M0.264673 21.9119L0.669476 22.477L2.02534 22.5009L2.91007 22.064L4.26146 21.7418L4.74139 22.1156L5.94551 22.6536L6.35198 24.2398L7.62194 24.3431L8.20452 23.3546L9.58742 23.0715L10.7226 22.3406L11.461 22.3335L12.3479 21.563L12.6995 20.8571L14.0537 20.3419L14.6329 20.487L15.1981 19.8589L15.7633 20.3751L16.2289 19.7529L16.06 18.0629L15.4915 17.3564L16.0017 16.8598L17.6462 16.011L17.3865 15.1758L16.506 14.0172L15.6117 13.8047L15.2797 12.3006L15.6306 11.8958L15.3518 11.1996L15.9769 10.7323L15.3721 9.2135L14.5384 9.86448L13.7494 9.75093L13.7835 9.13253L15.0812 8.50217L16.1931 7.21755L15.9812 6.41331L16.6213 5.43735L15.5013 4.2462L15.3654 3.79571L15.9203 3.27621L15.7046 2.60782L16.1475 1.85248L17.2304 2.12528L17.4483 1.78076L18.213 1.7438L19.5959 2.20517L20.2224 1.89651L20.8615 0.974881L20.6251 0.278769L21.1713 0.409198L21.6559 0L21.7609 0.59939L22.3346 0.462451L23.3955 1.62425L23.3068 2.0867L24.0893 2.56816L24.9376 2.32633L25.1713 2.80618L26.7021 2.93768L26.6076 4.48855L27.1661 5.06729L27.7002 4.10763L28.0487 3.92722L29.0767 4.1147L28.7409 5.22867L28.9816 5.74328L29.737 6.37527L30.7037 6.14377L31.2901 6.76762L31.9965 6.78445L32.761 7.78379L34.4831 7.54089L34.4005 8.44131L35.0792 9.88134L35.7683 10.1422L35.6542 10.791L36.5643 11.1545L36.7817 11.6143L37.8648 11.5692L38.97 12.1876L38.4001 13.0706L39.2684 13.8183L40.3649 13.3809L40.7611 12.7641L41.3582 12.4837L41.8659 12.8891L42.6809 12.8005L44.4487 11.749L46.3006 11.0497L46.8636 11.06L46.8842 10.2329L48.8623 10.2275L50.236 10.6513L50.906 9.91558L52.597 9.40097L53.4775 10.2041L53.4687 10.5524L54.7837 10.5943L55.2532 10.39L56.9112 10.3677L58.0099 9.58574L58.586 9.49171L58.9772 8.99721L60.182 9.51671L60.482 10.3362L60.4107 11.6849L60.7248 12.3033L61.3671 11.6018L62.1589 11.8159L62.0811 12.5087L62.4377 13.5939L62.879 13.9303L62.9 14.4759L63.6821 14.1623L64.1401 14.7394L65.1867 14.2025L65.5356 14.6356L65.7433 15.6382L66.2545 15.9632L66.9185 15.8778L67.781 16.2501L67.9364 16.9951L67.6164 17.5331L66.6164 17.801L65.8128 17.407L64.3206 17.8488L64.1168 18.1857L63.1664 18.0873L62.8408 18.3759L63.3038 19.6877L64.3917 20.1175L65.1607 20.9685L64.276 21.8417L64.0869 22.897L65.0564 22.903L65.4199 24.1268L65.8063 24.8039L65.4106 25.3163L66.3448 26.0254L66.5262 26.7177L66.0801 27.1128L67.0409 27.9056L66.9066 28.3708L66.0409 29.1625L66.0247 30.0907L65.728 30.9302L64.4091 31.0025L64.0836 32.2562L64.132 33.5016L63.9843 34.2515L65.2187 34.6928L65.8784 35.3204L66.3338 35.3346L66.1753 36.5898L65.4443 37.1034L64.9265 36.8393L64.5585 37.4256L62.7038 37.3196L62.236 38.1543L61.2486 38.2146L59.0483 36.9795L58.7316 36.9534L57.9251 34.8221L57.2237 34.6591L55.7439 35.2351L54.8191 35.7774L54.3837 35.3308L53.935 35.8209L52.8574 36.1774L51.8509 35.74L50.8413 34.6846L50.1952 34.4836L49.5181 34.5787L49.0807 35.0596L48.2895 34.683L47.6271 36.0497L47.663 37.1392L46.7923 38.5032L46.6887 40.4366L45.3083 42.9792L45.3627 44.4671L44.6144 46.0082L44.4074 47.1863L43.8161 48.2046L43.7356 49.2757L43.1945 50.3918L43.1939 51.1646L42.6663 51.9411L42.6804 52.5682L41.6349 52.7915L40.7546 52.4481L40.4677 51.6422L40.7541 50.3076L41.0806 49.6006L40.4617 48.9143L38.9531 48.1758L40.0954 47.151L39.3694 45.9299L38.9483 45.6609L38.3565 46.2364L37.9538 45.768L37.3344 45.9913L37.3664 46.5212L36.7621 47.0923L36.7117 47.8704L35.5771 47.6803L35.0341 47.2798L34.9907 46.5059L34.3071 46.5049L33.731 47.5998L32.5149 47.7145L31.9297 46.6467L31.4677 46.8407L30.8342 46.1598L30.1826 46.3239L29.0518 46.2418L28.5676 46.8923L28.5568 47.7688L28.1045 48.8681L28.3823 49.442L28.204 50.269L27.2944 51.3319L27.7128 52.0286L27.0885 52.2644L26.7369 51.9873L24.5653 52.9312L24.2703 53.6604L23.1287 53.5425L23.6285 52.6356L23.0476 51.9427L22.2098 52.5112L21.5522 51.5998L20.6854 51.99L20.8761 52.666L19.9801 52.7584L18.8384 52.5383L17.7428 51.4091L17.413 51.6906L16.2535 51.896L14.9172 52.954L13.3668 52.8171L12.9549 52.0628L12.9152 51.1869L11.5046 50.9901L10.8748 51.189L10.007 50.4364L10.107 49.5767L10.5955 48.7643L10.4504 47.533L10.2363 47.2798L9.92058 46.7738L10.7411 46.169L11.824 46.0354L12.0539 45.3354L13.362 44.3915L13.6152 42.1576L13.3598 41.8234L13.1207 40.6078L13.463 40.2991L13.526 38.6477L13.8744 38.0331L13.8565 37.1588L12.9016 36.398L12.1419 36.4187L12.3718 35.8057L11.403 35.7758L10.9025 35.5199L10.2824 35.7677L10.0645 36.2703L8.82822 35.6894L8.93701 34.72L7.8692 33.6125L6.97087 34.2271L5.82711 33.7918L5.50854 33.2272L4.53857 33.2897L4.07407 32.8137L4.45217 31.7725L4.12067 30.1983L4.17407 29.75L3.34041 29.3375L3.73593 28.7474L3.23561 28.1138L2.82301 26.8482L1.73082 25.9385L1.21292 25.2419L1.08638 24.3664L0.579925 24.2289L0.497836 23.0824L0 22.3672L0.264673 21.9119Z"/>
</mask>
<path d="M0.264673 21.9119L0.669476 22.477L2.02534 22.5009L2.91007 22.064L4.26146 21.7418L4.74139 22.1156L5.94551 22.6536L6.35198 24.2398L7.62194 24.3431L8.20452 23.3546L9.58742 23.0715L10.7226 22.3406L11.461 22.3335L12.3479 21.563L12.6995 20.8571L14.0537 20.3419L14.6329 20.487L15.1981 19.8589L15.7633 20.3751L16.2289 19.7529L16.06 18.0629L15.4915 17.3564L16.0017 16.8598L17.6462 16.011L17.3865 15.1758L16.506 14.0172L15.6117 13.8047L15.2797 12.3006L15.6306 11.8958L15.3518 11.1996L15.9769 10.7323L15.3721 9.2135L14.5384 9.86448L13.7494 9.75093L13.7835 9.13253L15.0812 8.50217L16.1931 7.21755L15.9812 6.41331L16.6213 5.43735L15.5013 4.2462L15.3654 3.79571L15.9203 3.27621L15.7046 2.60782L16.1475 1.85248L17.2304 2.12528L17.4483 1.78076L18.213 1.7438L19.5959 2.20517L20.2224 1.89651L20.8615 0.974881L20.6251 0.278769L21.1713 0.409198L21.6559 0L21.7609 0.59939L22.3346 0.462451L23.3955 1.62425L23.3068 2.0867L24.0893 2.56816L24.9376 2.32633L25.1713 2.80618L26.7021 2.93768L26.6076 4.48855L27.1661 5.06729L27.7002 4.10763L28.0487 3.92722L29.0767 4.1147L28.7409 5.22867L28.9816 5.74328L29.737 6.37527L30.7037 6.14377L31.2901 6.76762L31.9965 6.78445L32.761 7.78379L34.4831 7.54089L34.4005 8.44131L35.0792 9.88134L35.7683 10.1422L35.6542 10.791L36.5643 11.1545L36.7817 11.6143L37.8648 11.5692L38.97 12.1876L38.4001 13.0706L39.2684 13.8183L40.3649 13.3809L40.7611 12.7641L41.3582 12.4837L41.8659 12.8891L42.6809 12.8005L44.4487 11.749L46.3006 11.0497L46.8636 11.06L46.8842 10.2329L48.8623 10.2275L50.236 10.6513L50.906 9.91558L52.597 9.40097L53.4775 10.2041L53.4687 10.5524L54.7837 10.5943L55.2532 10.39L56.9112 10.3677L58.0099 9.58574L58.586 9.49171L58.9772 8.99721L60.182 9.51671L60.482 10.3362L60.4107 11.6849L60.7248 12.3033L61.3671 11.6018L62.1589 11.8159L62.0811 12.5087L62.4377 13.5939L62.879 13.9303L62.9 14.4759L63.6821 14.1623L64.1401 14.7394L65.1867 14.2025L65.5356 14.6356L65.7433 15.6382L66.2545 15.9632L66.9185 15.8778L67.781 16.2501L67.9364 16.9951L67.6164 17.5331L66.6164 17.801L65.8128 17.407L64.3206 17.8488L64.1168 18.1857L63.1664 18.0873L62.8408 18.3759L63.3038 19.6877L64.3917 20.1175L65.1607 20.9685L64.276 21.8417L64.0869 22.897L65.0564 22.903L65.4199 24.1268L65.8063 24.8039L65.4106 25.3163L66.3448 26.0254L66.5262 26.7177L66.0801 27.1128L67.0409 27.9056L66.9066 28.3708L66.0409 29.1625L66.0247 30.0907L65.728 30.9302L64.4091 31.0025L64.0836 32.2562L64.132 33.5016L63.9843 34.2515L65.2187 34.6928L65.8784 35.3204L66.3338 35.3346L66.1753 36.5898L65.4443 37.1034L64.9265 36.8393L64.5585 37.4256L62.7038 37.3196L62.236 38.1543L61.2486 38.2146L59.0483 36.9795L58.7316 36.9534L57.9251 34.8221L57.2237 34.6591L55.7439 35.2351L54.8191 35.7774L54.3837 35.3308L53.935 35.8209L52.8574 36.1774L51.8509 35.74L50.8413 34.6846L50.1952 34.4836L49.5181 34.5787L49.0807 35.0596L48.2895 34.683L47.6271 36.0497L47.663 37.1392L46.7923 38.5032L46.6887 40.4366L45.3083 42.9792L45.3627 44.4671L44.6144 46.0082L44.4074 47.1863L43.8161 48.2046L43.7356 49.2757L43.1945 50.3918L43.1939 51.1646L42.6663 51.9411L42.6804 52.5682L41.6349 52.7915L40.7546 52.4481L40.4677 51.6422L40.7541 50.3076L41.0806 49.6006L40.4617 48.9143L38.9531 48.1758L40.0954 47.151L39.3694 45.9299L38.9483 45.6609L38.3565 46.2364L37.9538 45.768L37.3344 45.9913L37.3664 46.5212L36.7621 47.0923L36.7117 47.8704L35.5771 47.6803L35.0341 47.2798L34.9907 46.5059L34.3071 46.5049L33.731 47.5998L32.5149 47.7145L31.9297 46.6467L31.4677 46.8407L30.8342 46.1598L30.1826 46.3239L29.0518 46.2418L28.5676 46.8923L28.5568 47.7688L28.1045 48.8681L28.3823 49.442L28.204 50.269L27.2944 51.3319L27.7128 52.0286L27.0885 52.2644L26.7369 51.9873L24.5653 52.9312L24.2703 53.6604L23.1287 53.5425L23.6285 52.6356L23.0476 51.9427L22.2098 52.5112L21.5522 51.5998L20.6854 51.99L20.8761 52.666L19.9801 52.7584L18.8384 52.5383L17.7428 51.4091L17.413 51.6906L16.2535 51.896L14.9172 52.954L13.3668 52.8171L12.9549 52.0628L12.9152 51.1869L11.5046 50.9901L10.8748 51.189L10.007 50.4364L10.107 49.5767L10.5955 48.7643L10.4504 47.533L10.2363 47.2798L9.92058 46.7738L10.7411 46.169L11.824 46.0354L12.0539 45.3354L13.362 44.3915L13.6152 42.1576L13.3598 41.8234L13.1207 40.6078L13.463 40.2991L13.526 38.6477L13.8744 38.0331L13.8565 37.1588L12.9016 36.398L12.1419 36.4187L12.3718 35.8057L11.403 35.7758L10.9025 35.5199L10.2824 35.7677L10.0645 36.2703L8.82822 35.6894L8.93701 34.72L7.8692 33.6125L6.97087 34.2271L5.82711 33.7918L5.50854 33.2272L4.53857 33.2897L4.07407 32.8137L4.45217 31.7725L4.12067 30.1983L4.17407 29.75L3.34041 29.3375L3.73593 28.7474L3.23561 28.1138L2.82301 26.8482L1.73082 25.9385L1.21292 25.2419L1.08638 24.3664L0.579925 24.2289L0.497836 23.0824L0 22.3672L0.264673 21.9119Z" fill="#F2F2F2" stroke="#07122B" mask="url(#path-1-inside-1_81_131)"/>
</svg>
