<svg width="51" height="51" viewBox="0 0 51 51" fill="none" xmlns="http://www.w3.org/2000/svg">
<mask id="path-1-inside-1_81_160" fill="white">
<path d="M14.49 5.46777L14.9208 5.62916L16.4495 4.61353L16.6473 5.09771L17.3092 5.57645L18.8248 5.41234L18.5004 4.92653L19.0699 4.06632L20.1957 3.90221L20.9327 2.43827L22.1585 2.37252L22.138 1.28298L22.7993 1.73021L22.9182 0.84554L23.523 1.04443L24.3882 0.385276L25.0474 0.449941L26.6775 0.0771651L27.6002 0L27.9578 0.478195L28.5609 0.486891L28.8833 0.943901L29.5249 1.15963L30.5118 3.03547L30.2087 3.86852L30.6531 7.10289L30.6178 8.13753L31.4801 9.19935L31.8622 8.81516L32.4061 9.64875L33.7141 9.69113L34.2265 10.1009L34.6809 9.70798L35.2134 10.265L34.7222 10.7986L35.4791 11.7599L36.0611 11.9294L36.6681 12.7576L37.2338 13.0309L39.5085 13.0434L40.0665 12.1957L40.5513 12.0012L41.6941 12.5185L42.0783 13.4526L43.7084 16.1517L44.4671 16.6962L45.9364 15.842L47.0842 17.1375L47.6129 17.5042L48.227 17.3488L49.2752 17.8151L50.112 18.3764L50.044 19.0883L47.9444 19.216L48.041 19.8213L47.5193 20.9147L47.7988 21.6744L47.5427 22.634L45.9956 22.6732L45.7746 23.9447L45.9016 24.5392L46.6663 24.9245L47.5678 24.9343L47.5487 25.5413L47.1673 26.2455L47.1993 26.7558L46.7026 27.3682L47.6749 29.1348L47.7558 29.8141L46.4978 30.3477L46.4897 31.3497L45.8197 32.117L45.6343 31.4329L44.5209 32.1317L44.4476 32.9881L44.7008 33.9358L44.5013 34.3314L44.9937 34.7901L45.0719 35.4199L44.0063 36.1448L43.4884 37.168L42.7249 38.2733L42.2559 38.1755L41.9256 38.6923L42.4494 39.3525L42.1392 39.5835L41.3098 39.3275L40.3377 40.1606L39.5982 40.2448L39.371 40.9594L37.9147 42.3668L38.2603 42.7325L38.4696 43.722L39.1813 43.3922L39.1677 44.0198L38.1636 44.7518L37.1343 44.9181L36.8376 45.3164L35.4943 45.5647L34.8809 46.1136L33.3522 46.4114L33.1002 47.4841L32.1975 47.5819L31.6176 47.0972L31.1123 46.3011L30.6199 46.1706L29.9592 47.44L30.5896 47.9938L31.1378 48.8714L31.272 49.6186L30.496 50.2179L29.0989 49.6588L28.3833 48.804L26.7883 48.6432L26.3818 48.0682L25.8439 47.8107L24.9897 48.0802L23.3612 47.6351L23.3361 48.5404L22.4889 48.8627L22.0998 49.549L21.6614 49.3996L21.3799 48.7377L20.7587 48.2215L19.9974 48.3454L19.0911 48.0959L18.4699 48.2253L17.9009 47.5716L16.8788 47.2471L16.8929 46.6385L16.3555 45.9305L15.7669 46.5304L15.3872 46.0267L14.3933 45.8359L14.0988 45.5186L12.7185 45.2881L11.8897 46.4967L11.0682 46.5912L10.6672 45.9892L10.1829 46.0946L9.26785 45.869L9.31395 45.1811L8.83303 44.6312L8.40169 43.6351L9.12921 43.3602L9.73683 42.7211L9.63783 42.0331L8.83751 41.8467L7.92293 42.6662L7.03439 42.6684L5.99211 42.0016L5.38466 42.1712L4.34123 41.8652L3.53112 42.3097L3.1968 41.1474L2.69266 40.9333L2.40195 39.7698L2.64308 39.5193L2.48504 38.1434L2.21655 37.293L1.1688 37.4479L0.558035 37.1365L0 35.8247L1.24011 35.0471L1.27975 34.545L2.19217 34.2771L2.60775 34.5787L2.89481 33.2892L2.44971 32.6653L1.61507 32.1214L1.57377 31.2747L1.88886 30.683L2.6459 30.2857L4.19778 30.2917L5.60091 29.6847L6.11002 28.9071L5.36343 28.4849L5.50738 27.8181L4.97223 26.5433L3.92283 25.9379L4.23808 25.0609L3.92283 24.2132L4.31187 23.8263L4.81684 24.1164L5.29776 23.76L6.24103 23.51L6.5188 22.9992L8.01364 23.3459L8.3332 22.2792L7.7284 21.9037L7.78495 21.1956L8.58362 20.6707L8.29622 19.8132L7.41315 19.5083L7.26274 17.8743L7.98047 17.2896L9.51561 16.5886L10.4536 15.5572L11.1051 15.2703L10.8779 14.7448L11.1925 14.2867L10.5774 13.3977L10.3813 12.1767L10.8655 11.7947L11.0094 10.7785L11.4307 10.2101L11.2796 9.51507L10.6915 8.81734L10.7204 7.74791L11.6849 7.76638L11.4839 6.43232L12.4054 5.90738L13.1918 5.86282L14.49 5.46777Z"/>
</mask>
<path d="M14.49 5.46777L14.9208 5.62916L16.4495 4.61353L16.6473 5.09771L17.3092 5.57645L18.8248 5.41234L18.5004 4.92653L19.0699 4.06632L20.1957 3.90221L20.9327 2.43827L22.1585 2.37252L22.138 1.28298L22.7993 1.73021L22.9182 0.84554L23.523 1.04443L24.3882 0.385276L25.0474 0.449941L26.6775 0.0771651L27.6002 0L27.9578 0.478195L28.5609 0.486891L28.8833 0.943901L29.5249 1.15963L30.5118 3.03547L30.2087 3.86852L30.6531 7.10289L30.6178 8.13753L31.4801 9.19935L31.8622 8.81516L32.4061 9.64875L33.7141 9.69113L34.2265 10.1009L34.6809 9.70798L35.2134 10.265L34.7222 10.7986L35.4791 11.7599L36.0611 11.9294L36.6681 12.7576L37.2338 13.0309L39.5085 13.0434L40.0665 12.1957L40.5513 12.0012L41.6941 12.5185L42.0783 13.4526L43.7084 16.1517L44.4671 16.6962L45.9364 15.842L47.0842 17.1375L47.6129 17.5042L48.227 17.3488L49.2752 17.8151L50.112 18.3764L50.044 19.0883L47.9444 19.216L48.041 19.8213L47.5193 20.9147L47.7988 21.6744L47.5427 22.634L45.9956 22.6732L45.7746 23.9447L45.9016 24.5392L46.6663 24.9245L47.5678 24.9343L47.5487 25.5413L47.1673 26.2455L47.1993 26.7558L46.7026 27.3682L47.6749 29.1348L47.7558 29.8141L46.4978 30.3477L46.4897 31.3497L45.8197 32.117L45.6343 31.4329L44.5209 32.1317L44.4476 32.9881L44.7008 33.9358L44.5013 34.3314L44.9937 34.7901L45.0719 35.4199L44.0063 36.1448L43.4884 37.168L42.7249 38.2733L42.2559 38.1755L41.9256 38.6923L42.4494 39.3525L42.1392 39.5835L41.3098 39.3275L40.3377 40.1606L39.5982 40.2448L39.371 40.9594L37.9147 42.3668L38.2603 42.7325L38.4696 43.722L39.1813 43.3922L39.1677 44.0198L38.1636 44.7518L37.1343 44.9181L36.8376 45.3164L35.4943 45.5647L34.8809 46.1136L33.3522 46.4114L33.1002 47.4841L32.1975 47.5819L31.6176 47.0972L31.1123 46.3011L30.6199 46.1706L29.9592 47.44L30.5896 47.9938L31.1378 48.8714L31.272 49.6186L30.496 50.2179L29.0989 49.6588L28.3833 48.804L26.7883 48.6432L26.3818 48.0682L25.8439 47.8107L24.9897 48.0802L23.3612 47.6351L23.3361 48.5404L22.4889 48.8627L22.0998 49.549L21.6614 49.3996L21.3799 48.7377L20.7587 48.2215L19.9974 48.3454L19.0911 48.0959L18.4699 48.2253L17.9009 47.5716L16.8788 47.2471L16.8929 46.6385L16.3555 45.9305L15.7669 46.5304L15.3872 46.0267L14.3933 45.8359L14.0988 45.5186L12.7185 45.2881L11.8897 46.4967L11.0682 46.5912L10.6672 45.9892L10.1829 46.0946L9.26785 45.869L9.31395 45.1811L8.83303 44.6312L8.40169 43.6351L9.12921 43.3602L9.73683 42.7211L9.63783 42.0331L8.83751 41.8467L7.92293 42.6662L7.03439 42.6684L5.99211 42.0016L5.38466 42.1712L4.34123 41.8652L3.53112 42.3097L3.1968 41.1474L2.69266 40.9333L2.40195 39.7698L2.64308 39.5193L2.48504 38.1434L2.21655 37.293L1.1688 37.4479L0.558035 37.1365L0 35.8247L1.24011 35.0471L1.27975 34.545L2.19217 34.2771L2.60775 34.5787L2.89481 33.2892L2.44971 32.6653L1.61507 32.1214L1.57377 31.2747L1.88886 30.683L2.6459 30.2857L4.19778 30.2917L5.60091 29.6847L6.11002 28.9071L5.36343 28.4849L5.50738 27.8181L4.97223 26.5433L3.92283 25.9379L4.23808 25.0609L3.92283 24.2132L4.31187 23.8263L4.81684 24.1164L5.29776 23.76L6.24103 23.51L6.5188 22.9992L8.01364 23.3459L8.3332 22.2792L7.7284 21.9037L7.78495 21.1956L8.58362 20.6707L8.29622 19.8132L7.41315 19.5083L7.26274 17.8743L7.98047 17.2896L9.51561 16.5886L10.4536 15.5572L11.1051 15.2703L10.8779 14.7448L11.1925 14.2867L10.5774 13.3977L10.3813 12.1767L10.8655 11.7947L11.0094 10.7785L11.4307 10.2101L11.2796 9.51507L10.6915 8.81734L10.7204 7.74791L11.6849 7.76638L11.4839 6.43232L12.4054 5.90738L13.1918 5.86282L14.49 5.46777Z" fill="#F2F2F2" stroke="#07122B" mask="url(#path-1-inside-1_81_160)"/>
</svg>
