<svg width="58" height="47" viewBox="0 0 58 47" fill="none" xmlns="http://www.w3.org/2000/svg">
<mask id="path-1-inside-1_81_108" fill="white">
<path d="M0 17.1777L0.343444 17.2907L0.997165 16.0496L2.01871 15.8838L2.47293 15.3312L2.2469 14.4367L3.13378 13.4863L2.81969 12.1761L4.22979 12.0772L4.89329 12.1925L5.66724 11.1377L5.85198 10.347L5.75132 9.34445L6.04319 6.87738L5.98233 6.28017L6.42312 5.69438L6.66491 4.37661L7.04516 3.44033L7.59905 1.41341L7.34798 0.466245L7.57119 0L8.82822 0.32116L9.03303 2.55945L9.34281 3.96959L9.23949 5.07001L9.53302 5.91011L10.3144 5.90358L10.3813 6.74534L10.7061 7.11865L11.6914 6.75294L12.5169 7.0154L12.3549 7.54468L13.1525 7.51643L13.2325 8.33045L12.8988 8.92221L13.7733 9.36835L14.2449 9.9172L15.4855 10.5481L15.9245 9.89763L16.3875 10.3297L17.4233 10.3595L17.6526 9.36998L18.5546 9.93295L18.9692 9.37595L20.0441 9.63679L20.4652 10.1476L20.4305 10.6481L21.1239 10.9241L20.9358 12.8494L22.4433 12.4506L22.6862 13.3869L24.0305 13.4526L26.0167 12.9771L26.9188 10.9018L26.7265 10.6503L27.6089 9.76233L27.7002 9.12654L28.75 7.71694L29.5249 7.20613L30.1634 5.73078L31.2431 2.8643L32.1486 2.57521L32.6701 1.67533L33.5267 2.21819L34.4835 2.42687L35.0189 3.22675L34.584 3.97287L33.6234 4.06252L34.0341 4.86296L34.2341 5.87696L34.7389 6.50187L35.2014 6.47418L35.3781 7.17352L36.0948 7.555L37.0049 7.52837L37.4598 7.29527L38.2543 7.58054L39.3563 8.88146L39.2112 9.71614L39.678 10.2509L39.4078 11.1947L40.1355 11.4067L41.2463 10.0916L41.7728 9.07654L42.664 8.94667L43.4834 8.47879L43.6796 10.2231L44.0128 10.5014L43.6817 11.1714L44.3887 12.4022L44.923 12.6125L45.0952 13.1282L45.9147 13.62L46.4417 13.6238L47.3236 14.2025L48.0465 15.4024L49.655 15.035L49.8941 15.4763L50.8135 15.9577L50.2717 16.6229L49.9483 18.5432L50.5841 19.1731L50.3836 20.1767L50.6027 20.7609L50.4065 21.5195L50.9526 22.2536L50.7798 22.8123L51.5319 23.3274L52.76 23.4328L52.5508 24.6001L53.593 24.5354L54.4468 24.7609L54.4809 25.5717L54.9869 26.2319L54.9819 26.6688L56.365 27.1883L56.7464 27.685L57.4817 27.9986L57.3762 28.893L56.7562 29.3766L56.6311 30.5395L55.9106 30.9243L55.658 32.0301L55.0205 32.1399L54.7885 32.6789L55.2494 33.9054L55.7688 34.7009L55.3781 36.5773L53.7463 37.6049L53.706 38.207L53.2138 38.3401L52.6405 37.5511L51.7286 38.082L50.8342 37.894L50.5037 38.3673L49.4967 38.4744L49.544 39.1156L49.086 39.3368L49.1175 39.8948L47.4639 40.692L46.8499 40.5334L46.5293 41.0594L46.8661 42.1614L46.1016 42.2369L45.224 42.6869L43.8524 41.5653L42.2163 40.9904L41.444 42.0228L40.6926 42.1043L40.1214 41.7701L38.9808 42.0071L38.6885 42.8368L37.1207 43.6194L36.5941 42.9868L35.6084 43.1004L35.1661 42.9053L34.6129 43.8373L33.4413 44.1758L32.7506 43.6606L31.5534 44.4785L31.9529 45.7924L31.8529 46.388L30.245 46.457L28.8108 45.9392L28.5065 46.1413L27.3513 45.6783L27.7513 44.9866L27.2764 43.8411L26.3563 43.0363L25.0276 43.6329L24.4403 43.5759L23.5225 42.7233L23.6784 42.0103L23.0834 41.5136L22.3617 41.8881L21.8574 41.3637L20.5635 40.7235L19.8453 41.4479L19.2035 41.2686L19.867 39.4819L19.7931 38.7678L18.9835 38.1956L19.1246 37.681L18.5899 37.2332L18.5329 36.567L18.979 35.9611L19.0427 35.4063L18.6611 34.4292L20.0659 32.9544L20.8081 32.5583L21.0826 30.9748L20.3614 30.7313L20.9716 30.013L20.4403 28.7414L19.1909 27.6013L18.804 26.683L18.4176 26.352L17.3961 26.7411L17.4536 26.1874L16.2407 26.0771L15.7251 26.414L14.2242 25.5924L14.2454 24.537L13.5406 24.4441L12.9787 23.5893L10.7828 24.3838L11.1154 24.8669L10.9653 26.1271L10.3634 26.7031L10.2469 27.4459L10.7617 28.3578L10.5741 28.8903L9.88393 28.7952L9.50848 28.0409L6.80454 27.0172L6.43887 26.3863L5.89925 26.189L4.81949 26.5824L4.31403 26.4727L4.01901 25.6581L4.08252 24.4784L3.39083 23.6127L3.3288 22.828L1.9605 21.5271L1.73016 21.1538L1.9008 20.0181L1.15255 19.4518L0.521053 18.2379L0.0145935 17.7238L0 17.1777Z"/>
</mask>
<path d="M0 17.1777L0.343444 17.2907L0.997165 16.0496L2.01871 15.8838L2.47293 15.3312L2.2469 14.4367L3.13378 13.4863L2.81969 12.1761L4.22979 12.0772L4.89329 12.1925L5.66724 11.1377L5.85198 10.347L5.75132 9.34445L6.04319 6.87738L5.98233 6.28017L6.42312 5.69438L6.66491 4.37661L7.04516 3.44033L7.59905 1.41341L7.34798 0.466245L7.57119 0L8.82822 0.32116L9.03303 2.55945L9.34281 3.96959L9.23949 5.07001L9.53302 5.91011L10.3144 5.90358L10.3813 6.74534L10.7061 7.11865L11.6914 6.75294L12.5169 7.0154L12.3549 7.54468L13.1525 7.51643L13.2325 8.33045L12.8988 8.92221L13.7733 9.36835L14.2449 9.9172L15.4855 10.5481L15.9245 9.89763L16.3875 10.3297L17.4233 10.3595L17.6526 9.36998L18.5546 9.93295L18.9692 9.37595L20.0441 9.63679L20.4652 10.1476L20.4305 10.6481L21.1239 10.9241L20.9358 12.8494L22.4433 12.4506L22.6862 13.3869L24.0305 13.4526L26.0167 12.9771L26.9188 10.9018L26.7265 10.6503L27.6089 9.76233L27.7002 9.12654L28.75 7.71694L29.5249 7.20613L30.1634 5.73078L31.2431 2.8643L32.1486 2.57521L32.6701 1.67533L33.5267 2.21819L34.4835 2.42687L35.0189 3.22675L34.584 3.97287L33.6234 4.06252L34.0341 4.86296L34.2341 5.87696L34.7389 6.50187L35.2014 6.47418L35.3781 7.17352L36.0948 7.555L37.0049 7.52837L37.4598 7.29527L38.2543 7.58054L39.3563 8.88146L39.2112 9.71614L39.678 10.2509L39.4078 11.1947L40.1355 11.4067L41.2463 10.0916L41.7728 9.07654L42.664 8.94667L43.4834 8.47879L43.6796 10.2231L44.0128 10.5014L43.6817 11.1714L44.3887 12.4022L44.923 12.6125L45.0952 13.1282L45.9147 13.62L46.4417 13.6238L47.3236 14.2025L48.0465 15.4024L49.655 15.035L49.8941 15.4763L50.8135 15.9577L50.2717 16.6229L49.9483 18.5432L50.5841 19.1731L50.3836 20.1767L50.6027 20.7609L50.4065 21.5195L50.9526 22.2536L50.7798 22.8123L51.5319 23.3274L52.76 23.4328L52.5508 24.6001L53.593 24.5354L54.4468 24.7609L54.4809 25.5717L54.9869 26.2319L54.9819 26.6688L56.365 27.1883L56.7464 27.685L57.4817 27.9986L57.3762 28.893L56.7562 29.3766L56.6311 30.5395L55.9106 30.9243L55.658 32.0301L55.0205 32.1399L54.7885 32.6789L55.2494 33.9054L55.7688 34.7009L55.3781 36.5773L53.7463 37.6049L53.706 38.207L53.2138 38.3401L52.6405 37.5511L51.7286 38.082L50.8342 37.894L50.5037 38.3673L49.4967 38.4744L49.544 39.1156L49.086 39.3368L49.1175 39.8948L47.4639 40.692L46.8499 40.5334L46.5293 41.0594L46.8661 42.1614L46.1016 42.2369L45.224 42.6869L43.8524 41.5653L42.2163 40.9904L41.444 42.0228L40.6926 42.1043L40.1214 41.7701L38.9808 42.0071L38.6885 42.8368L37.1207 43.6194L36.5941 42.9868L35.6084 43.1004L35.1661 42.9053L34.6129 43.8373L33.4413 44.1758L32.7506 43.6606L31.5534 44.4785L31.9529 45.7924L31.8529 46.388L30.245 46.457L28.8108 45.9392L28.5065 46.1413L27.3513 45.6783L27.7513 44.9866L27.2764 43.8411L26.3563 43.0363L25.0276 43.6329L24.4403 43.5759L23.5225 42.7233L23.6784 42.0103L23.0834 41.5136L22.3617 41.8881L21.8574 41.3637L20.5635 40.7235L19.8453 41.4479L19.2035 41.2686L19.867 39.4819L19.7931 38.7678L18.9835 38.1956L19.1246 37.681L18.5899 37.2332L18.5329 36.567L18.979 35.9611L19.0427 35.4063L18.6611 34.4292L20.0659 32.9544L20.8081 32.5583L21.0826 30.9748L20.3614 30.7313L20.9716 30.013L20.4403 28.7414L19.1909 27.6013L18.804 26.683L18.4176 26.352L17.3961 26.7411L17.4536 26.1874L16.2407 26.0771L15.7251 26.414L14.2242 25.5924L14.2454 24.537L13.5406 24.4441L12.9787 23.5893L10.7828 24.3838L11.1154 24.8669L10.9653 26.1271L10.3634 26.7031L10.2469 27.4459L10.7617 28.3578L10.5741 28.8903L9.88393 28.7952L9.50848 28.0409L6.80454 27.0172L6.43887 26.3863L5.89925 26.189L4.81949 26.5824L4.31403 26.4727L4.01901 25.6581L4.08252 24.4784L3.39083 23.6127L3.3288 22.828L1.9605 21.5271L1.73016 21.1538L1.9008 20.0181L1.15255 19.4518L0.521053 18.2379L0.0145935 17.7238L0 17.1777Z" fill="#F2F2F2" stroke="#07122B" mask="url(#path-1-inside-1_81_108)"/>
</svg>
