<svg width="46" height="42" viewBox="0 0 46 42" fill="none" xmlns="http://www.w3.org/2000/svg">
<mask id="path-1-inside-1_81_107" fill="white">
<path d="M5.55746 17.2853L6.35347 17.2179L6.9654 16.6353L8.55277 16.982L9.11031 16.2729L9.94429 16.4076L10.5672 16.243L10.8133 16.6756L12.2126 16.7935L12.6613 16.3419L13.6043 15.9311L14.1411 15.4746L14.0454 14.8394L15.7571 13.3678L16.3006 13.4004L17.3815 12.863L18.0443 12.3451L18.6193 11.3425L17.8646 10.49L17.0163 11.1442L16.392 10.3709L15.9691 9.33356L16.5022 8.86788L16.3153 8.21416L15.2757 7.72074L16.507 5.12923L19.5382 2.81594L22.8715 2.16929L26.3172 0L32.3159 0.109223L37.4473 1.56283L36.7404 3.76418L36.8707 4.16847L35.5872 5.39604L36.18 6.63935L36.5376 6.5937L36.9299 7.24742L37.6054 7.71638L38.4407 8.89775L39.0417 9.25315L38.5863 10.9073L38.1374 11.116L36.811 13.5515L37.1333 14.6742L36.3643 15.6648L36.5979 17.0831L37.3593 17.3526L38.1054 17.2646L38.4244 17.5483L40.2801 17.8368L40.1856 18.5389L39.7052 19.2616L40.0231 20.3827L39.6243 20.6337L39.3264 21.6086L40.0393 22.0531L40.6713 21.6553L41.2625 20.8527L42.0196 21.6314L42.6743 22.7014L43.3536 23.278L43.5003 24.0936L44.4258 24.4615L44.9056 25.4342L44.3567 25.9608L44.8247 26.508L45.3615 26.659L45.3567 27.591L45.6386 28.2099L44.8443 28.7088L44.1812 29.6212L44.26 30.3135L43.7292 31.2546L43.0846 31.2889L42.2673 31.7475L41.8597 32.3947L40.7985 32.6496L39.6209 32.2681L39.1949 33.6033L38.2591 32.7648L37.3376 33.012L36.9197 33.9798L37.2017 34.4607L36.7669 36.0556L35.9475 36.5235L35.0563 36.6534L34.5298 37.6685L33.4191 38.9835L32.6914 38.7716L32.9615 37.8277L32.4947 37.293L32.6398 36.4583L31.5378 35.1574L30.7433 34.8721L30.2884 35.1052L29.3783 35.1319L28.6616 34.7504L28.485 34.051L28.0225 34.0787L27.5177 33.4538L27.3177 32.4398L26.9069 31.6394L27.8676 31.5497L28.3024 30.8036L27.7671 30.0037L26.8102 29.795L25.9537 29.2522L25.4321 30.1521L24.5267 30.4412L23.4469 33.3076L22.8084 34.783L22.0335 35.2938L20.9838 36.7034L20.8924 37.3392L20.01 38.2271L20.2023 38.4787L19.3002 40.554L17.314 41.0295L15.9697 40.9637L15.7268 40.0274L14.2193 40.4263L14.4074 38.501L13.7141 38.2249L13.7487 37.7245L13.3277 37.2136L12.2527 36.9528L11.8381 37.5098L10.9361 36.9468L10.7068 37.9364L9.671 37.9065L9.20798 37.4745L8.76902 38.125L7.52841 37.4941L7.05677 36.9452L6.18233 36.4991L6.51599 35.9073L6.43605 35.0933L5.63839 35.1215L5.80041 34.5923L4.97488 34.3298L3.98966 34.6955L3.66479 34.3222L3.59795 33.4804L2.81654 33.487L2.52301 32.6469L2.62633 31.5464L2.31655 30.1363L2.11174 27.898L0.854713 27.5769L1.10098 26.8916L0.972622 25.6211L0.181423 24.9625L0 23.5285L0.252069 22.8731L0.0620223 22.0319L0.358701 21.2826L0.0956867 20.8701L0.912921 18.6568L1.88836 19.7306L2.83495 19.7958L3.19083 19.5909L2.9638 18.6487L3.23163 17.9922L4.1414 17.3885L5.09495 17.5064L5.55746 17.2853Z"/>
</mask>
<path d="M5.55746 17.2853L6.35347 17.2179L6.9654 16.6353L8.55277 16.982L9.11031 16.2729L9.94429 16.4076L10.5672 16.243L10.8133 16.6756L12.2126 16.7935L12.6613 16.3419L13.6043 15.9311L14.1411 15.4746L14.0454 14.8394L15.7571 13.3678L16.3006 13.4004L17.3815 12.863L18.0443 12.3451L18.6193 11.3425L17.8646 10.49L17.0163 11.1442L16.392 10.3709L15.9691 9.33356L16.5022 8.86788L16.3153 8.21416L15.2757 7.72074L16.507 5.12923L19.5382 2.81594L22.8715 2.16929L26.3172 0L32.3159 0.109223L37.4473 1.56283L36.7404 3.76418L36.8707 4.16847L35.5872 5.39604L36.18 6.63935L36.5376 6.5937L36.9299 7.24742L37.6054 7.71638L38.4407 8.89775L39.0417 9.25315L38.5863 10.9073L38.1374 11.116L36.811 13.5515L37.1333 14.6742L36.3643 15.6648L36.5979 17.0831L37.3593 17.3526L38.1054 17.2646L38.4244 17.5483L40.2801 17.8368L40.1856 18.5389L39.7052 19.2616L40.0231 20.3827L39.6243 20.6337L39.3264 21.6086L40.0393 22.0531L40.6713 21.6553L41.2625 20.8527L42.0196 21.6314L42.6743 22.7014L43.3536 23.278L43.5003 24.0936L44.4258 24.4615L44.9056 25.4342L44.3567 25.9608L44.8247 26.508L45.3615 26.659L45.3567 27.591L45.6386 28.2099L44.8443 28.7088L44.1812 29.6212L44.26 30.3135L43.7292 31.2546L43.0846 31.2889L42.2673 31.7475L41.8597 32.3947L40.7985 32.6496L39.6209 32.2681L39.1949 33.6033L38.2591 32.7648L37.3376 33.012L36.9197 33.9798L37.2017 34.4607L36.7669 36.0556L35.9475 36.5235L35.0563 36.6534L34.5298 37.6685L33.4191 38.9835L32.6914 38.7716L32.9615 37.8277L32.4947 37.293L32.6398 36.4583L31.5378 35.1574L30.7433 34.8721L30.2884 35.1052L29.3783 35.1319L28.6616 34.7504L28.485 34.051L28.0225 34.0787L27.5177 33.4538L27.3177 32.4398L26.9069 31.6394L27.8676 31.5497L28.3024 30.8036L27.7671 30.0037L26.8102 29.795L25.9537 29.2522L25.4321 30.1521L24.5267 30.4412L23.4469 33.3076L22.8084 34.783L22.0335 35.2938L20.9838 36.7034L20.8924 37.3392L20.01 38.2271L20.2023 38.4787L19.3002 40.554L17.314 41.0295L15.9697 40.9637L15.7268 40.0274L14.2193 40.4263L14.4074 38.501L13.7141 38.2249L13.7487 37.7245L13.3277 37.2136L12.2527 36.9528L11.8381 37.5098L10.9361 36.9468L10.7068 37.9364L9.671 37.9065L9.20798 37.4745L8.76902 38.125L7.52841 37.4941L7.05677 36.9452L6.18233 36.4991L6.51599 35.9073L6.43605 35.0933L5.63839 35.1215L5.80041 34.5923L4.97488 34.3298L3.98966 34.6955L3.66479 34.3222L3.59795 33.4804L2.81654 33.487L2.52301 32.6469L2.62633 31.5464L2.31655 30.1363L2.11174 27.898L0.854713 27.5769L1.10098 26.8916L0.972622 25.6211L0.181423 24.9625L0 23.5285L0.252069 22.8731L0.0620223 22.0319L0.358701 21.2826L0.0956867 20.8701L0.912921 18.6568L1.88836 19.7306L2.83495 19.7958L3.19083 19.5909L2.9638 18.6487L3.23163 17.9922L4.1414 17.3885L5.09495 17.5064L5.55746 17.2853Z" fill="#F2F2F2" stroke="#07122B" mask="url(#path-1-inside-1_81_107)"/>
</svg>
