<svg width="9" height="5" viewBox="0 0 9 5" fill="none" xmlns="http://www.w3.org/2000/svg">
<path d="M6.0918 0.381836L6.20801 1.0127L6.21875 1.07129L6.25488 1.11914L6.73926 1.75781L6.83496 2.98535L6.84082 3.05664L6.88379 3.11523L7.19336 3.53223L7.30762 3.68652L7.48535 3.61621L7.99707 3.41504L8.60059 3.58398L8.55664 4.41895L7.91211 4.44922L6.68457 3.83887L6.56934 3.78223L6.45605 3.8418L5.0752 4.57031L4.02246 4.52246L2.12402 3.67676L2.09277 3.66309L2.05859 3.6582L1.33984 3.5498L1.21777 3.10254L1.1875 2.98828L1.0791 2.94043L0.306641 2.59375L0.5 1.99512L1.32812 1.48926L1.91895 1.60156L2.08691 1.63379L2.17773 1.48828L2.44629 1.05566L3.60254 0.341797L5.84961 0.251953L6.0918 0.381836Z" fill="#F2F2F2" stroke="#07122B" stroke-width="0.5"/>
</svg>
