<svg width="64" height="47" viewBox="0 0 64 47" fill="none" xmlns="http://www.w3.org/2000/svg">
<mask id="path-1-inside-1_81_101" fill="white">
<path d="M48.3346 0.295072L49.4012 0.759685L49.7382 0L50.8972 0.0619497L51.1908 0.437986L51.106 1.87693L51.6884 2.02365L51.97 2.47142L53.367 3.34413L53.7746 4.33966L55.4776 5.50472L55.6456 6.14757L56.2635 6.98551L57.653 7.82399L59.0071 8.50162L59.525 9.08578L59.8896 10.0835L60.6026 10.5568L60.6906 11.7148L61.0873 12.9076L61.071 13.6303L61.3926 14.7747L62.2523 16.2631L62.7501 16.7342L63.2246 17.8624L62.5224 17.9553L61.9687 17.5504L61.6692 18.2906L61.8279 18.9796L60.9954 19.466L60.5775 19.3187L60.6992 20.6821L59.7255 21.4521L60.3352 22.2487L61.047 21.5097L61.7437 21.2434L62.0637 22.2857L60.9797 22.7606L60.9493 23.4616L60.4503 24.2398L60.7584 25.062L60.7928 26.0423L59.9575 26.8998L60.8591 27.7942L60.6531 28.1485L61.2405 29.0718L60.9737 30.0445L61.8981 30.3618L61.5248 31.4231L60.7682 32.2143L61.0687 32.5811L62.0768 32.711L62.2415 32.0149L62.7654 31.8154L63.411 32.2409L63.363 32.93L62.7898 33.4136L62.98 34.0097L61.9078 34.9145L61.0035 36.267L61.0291 36.9631L60.652 37.6989L60.0744 38.0864L58.944 37.8359L58.3719 38.1923L57.4936 37.3718L56.6167 37.5598L55.5826 35.9296L53.8376 35.8454L52.8906 36.0627L52.6209 35.6008L51.8868 35.3128L50.8679 35.3873L50.2098 35.0639L49.0372 35.0373L48.8324 35.4188L47.0591 35.5095L46.6875 36.4871L45.7371 36.6034L45.8942 37.1305L45.6822 38.495L45.1399 38.5124L44.8502 39.2069L44.8932 40.1638L44.3628 41.2707L41.7062 40.9816L41.0818 41.4022L40.2515 41.5272L39.2918 42.4809L39.2906 43.3248L37.5376 43.3466L36.091 44.0209L36.8681 45.2072L36.2585 45.3974L36.6573 46.2092L35.6912 46.0913L34.8406 46.5711L33.3871 45.4001L33.0756 44.6187L32.5856 44.2269L32.0541 42.5847L31.7128 43.1172L30.3728 43.7797L30.3435 43.0966L29.2403 42.4374L28.4986 42.2228L29.1506 41.6392L30.5977 41.3495L31.4008 41.7326L31.539 40.5621L31.276 39.7758L31.2994 39.0553L30.0511 39.5596L29.6631 38.7097L28.0611 38.5532L27.5818 38.2641L26.8493 37.2457L23.9051 37.5772L23.4557 38.0934L22.9113 37.8663L21.969 38.1342L21.4103 37.7294L21.7978 37.349L21.1012 36.6616L20.9279 36.1388L19.8796 36.5947L19.115 36.4534L18.4612 35.8959L16.8299 33.8092L15.8964 33.4207L15.4172 33.5484L13.1592 35.0525L12.0779 35.5519L10.8449 35.9144L8.60003 36.073L7.73653 35.7236L5.39826 35.2367L4.57555 35.3079L1.77758 34.9813L1.62104 34.207L0.804299 33.5576L0.731995 32.5431L0.0548914 32.2105L0 31.1655L1.43746 27.7182L2.12484 26.5221L3.10559 24.3523L3.09531 23.4078L3.36977 23.0155L3.50177 22.0102L5.05979 20.4213L6.70238 19.8686L8.04963 18.9916L9.49836 18.7101L10.6493 17.9542L10.9703 17.3755L11.6872 17.138L13.4011 16.2017L14.1988 15.6273L16.386 14.3568L17.4511 13.3401L18.5656 12.663L19.6878 12.4033L21.1202 11.8055L23.6199 11.3159L24.2557 11.5056L25.7863 11.3882L26.5543 11.1942L28.1981 10.3661L29.7184 10.0639L31.7731 9.36781L32.9567 8.64182L35.2716 8.83201L36.7628 8.28317L37.6299 7.63923L38.2419 7.68161L41.8098 5.65851L42.0284 5.18466L42.7217 4.88578L43.6569 4.09458L45.3023 2.44371L46.4653 1.39384L48.3346 0.295072Z"/>
</mask>
<path d="M48.3346 0.295072L49.4012 0.759685L49.7382 0L50.8972 0.0619497L51.1908 0.437986L51.106 1.87693L51.6884 2.02365L51.97 2.47142L53.367 3.34413L53.7746 4.33966L55.4776 5.50472L55.6456 6.14757L56.2635 6.98551L57.653 7.82399L59.0071 8.50162L59.525 9.08578L59.8896 10.0835L60.6026 10.5568L60.6906 11.7148L61.0873 12.9076L61.071 13.6303L61.3926 14.7747L62.2523 16.2631L62.7501 16.7342L63.2246 17.8624L62.5224 17.9553L61.9687 17.5504L61.6692 18.2906L61.8279 18.9796L60.9954 19.466L60.5775 19.3187L60.6992 20.6821L59.7255 21.4521L60.3352 22.2487L61.047 21.5097L61.7437 21.2434L62.0637 22.2857L60.9797 22.7606L60.9493 23.4616L60.4503 24.2398L60.7584 25.062L60.7928 26.0423L59.9575 26.8998L60.8591 27.7942L60.6531 28.1485L61.2405 29.0718L60.9737 30.0445L61.8981 30.3618L61.5248 31.4231L60.7682 32.2143L61.0687 32.5811L62.0768 32.711L62.2415 32.0149L62.7654 31.8154L63.411 32.2409L63.363 32.93L62.7898 33.4136L62.98 34.0097L61.9078 34.9145L61.0035 36.267L61.0291 36.9631L60.652 37.6989L60.0744 38.0864L58.944 37.8359L58.3719 38.1923L57.4936 37.3718L56.6167 37.5598L55.5826 35.9296L53.8376 35.8454L52.8906 36.0627L52.6209 35.6008L51.8868 35.3128L50.8679 35.3873L50.2098 35.0639L49.0372 35.0373L48.8324 35.4188L47.0591 35.5095L46.6875 36.4871L45.7371 36.6034L45.8942 37.1305L45.6822 38.495L45.1399 38.5124L44.8502 39.2069L44.8932 40.1638L44.3628 41.2707L41.7062 40.9816L41.0818 41.4022L40.2515 41.5272L39.2918 42.4809L39.2906 43.3248L37.5376 43.3466L36.091 44.0209L36.8681 45.2072L36.2585 45.3974L36.6573 46.2092L35.6912 46.0913L34.8406 46.5711L33.3871 45.4001L33.0756 44.6187L32.5856 44.2269L32.0541 42.5847L31.7128 43.1172L30.3728 43.7797L30.3435 43.0966L29.2403 42.4374L28.4986 42.2228L29.1506 41.6392L30.5977 41.3495L31.4008 41.7326L31.539 40.5621L31.276 39.7758L31.2994 39.0553L30.0511 39.5596L29.6631 38.7097L28.0611 38.5532L27.5818 38.2641L26.8493 37.2457L23.9051 37.5772L23.4557 38.0934L22.9113 37.8663L21.969 38.1342L21.4103 37.7294L21.7978 37.349L21.1012 36.6616L20.9279 36.1388L19.8796 36.5947L19.115 36.4534L18.4612 35.8959L16.8299 33.8092L15.8964 33.4207L15.4172 33.5484L13.1592 35.0525L12.0779 35.5519L10.8449 35.9144L8.60003 36.073L7.73653 35.7236L5.39826 35.2367L4.57555 35.3079L1.77758 34.9813L1.62104 34.207L0.804299 33.5576L0.731995 32.5431L0.0548914 32.2105L0 31.1655L1.43746 27.7182L2.12484 26.5221L3.10559 24.3523L3.09531 23.4078L3.36977 23.0155L3.50177 22.0102L5.05979 20.4213L6.70238 19.8686L8.04963 18.9916L9.49836 18.7101L10.6493 17.9542L10.9703 17.3755L11.6872 17.138L13.4011 16.2017L14.1988 15.6273L16.386 14.3568L17.4511 13.3401L18.5656 12.663L19.6878 12.4033L21.1202 11.8055L23.6199 11.3159L24.2557 11.5056L25.7863 11.3882L26.5543 11.1942L28.1981 10.3661L29.7184 10.0639L31.7731 9.36781L32.9567 8.64182L35.2716 8.83201L36.7628 8.28317L37.6299 7.63923L38.2419 7.68161L41.8098 5.65851L42.0284 5.18466L42.7217 4.88578L43.6569 4.09458L45.3023 2.44371L46.4653 1.39384L48.3346 0.295072Z" fill="#F2F2F2" stroke="#07122B" mask="url(#path-1-inside-1_81_101)"/>
</svg>
