<svg width="43" height="56" viewBox="0 0 43 56" fill="none" xmlns="http://www.w3.org/2000/svg">
<mask id="path-1-inside-1_81_137" fill="white">
<path d="M6.56109 23.8773L6.46756 22.8095L7.37617 21.4467L7.7022 20.1322L8.14565 20.0164L7.86356 19.2643L7.2115 19.4524L7.16921 18.7878L7.59839 18.1205L7.29906 17.4352L7.27684 16.293L6.65015 14.8486L6.97402 14.722L6.41499 13.7781L6.22959 12.8157L7.00719 12.5299L7.31962 11.805L7.1838 11.1105L7.7022 10.5894L7.36208 9.57648L6.20952 7.79736L6.81548 7.79356L6.91382 7.14146L6.46325 5.99107L5.8883 6.05791L5.61832 5.33681L6.34866 5.01566L6.47254 4.40487L7.16208 3.82504L6.53224 3.22023L7.24583 2.13179L8.71297 0.861844L9.46188 0.95096L10.297 1.50252L11.5154 2.95397L12.3875 2.40784L12.563 3.22295L13.2749 3.20773L14.5062 2.37959L14.3769 1.63511L15.3137 1.14061L15.7099 1.71065L16.6359 1.85465L17.0021 2.49478L17.5586 2.68498L18.7009 1.81661L19.5164 2.26003L20.1887 2.27796L20.443 1.74325L21.0625 1.50252L21.5065 2.44642L22.6595 1.47372L24.3545 1.80248L24.3865 1.17539L24.9994 0L26.1248 0.549929L28.436 1.01291L28.0029 1.94213L28.4724 2.24047L29.0516 3.12296L29.3452 4.03752L28.5599 5.66992L29.6478 6.12747L30.0657 6.96322L30.6417 7.1143L30.8667 7.92234L31.6138 8.13862L32.1143 10.0634L32.8355 9.96283L33.5652 9.49931L33.869 10.3367L33.894 11.0448L34.5205 11.7506L35.6779 11.1697L36.2144 11.7061L35.9573 12.5853L36.4838 13.1075L36.3686 13.6868L37.3087 13.5803L38.3603 14.5063L39.0102 14.6965L38.7792 15.4176L39.5286 15.4561L39.6785 14.9741L40.2241 14.9372L40.4556 15.9012L40.2301 16.4272L39.321 16.9788L38.6123 17.1989L37.693 16.8348L37.2827 17.2668L37.9397 17.8004L38.4999 17.582L38.6243 18.8177L37.5701 18.7921L36.9381 20.1289L37.3935 20.5055L38.4352 20.4522L38.7173 21.3722L39.6579 21.313L39.4443 23.0242L39.9274 23.4698L39.7894 24.054L39.12 24.4088L38.6624 24.9729L38.7782 25.544L39.3019 26.0515L39.1737 27.1269L39.8959 26.9422L40.3845 26.4085L41.4229 26.5846L42.8352 27.8801L42.0717 28.4349L40.8843 28.749L41.3349 29.5973L40.5327 29.5641L40.2339 30.1032L39.4992 30.6531L39.9324 31.3851L39.8752 32.2763L39.2704 32.8702L38.345 32.9783L37.6142 32.7159L37.2875 33.0289L37.9712 33.7848L38.3885 34.7515L37.2696 35.227L36.6664 35.8464L36.9371 36.7327L37.3288 37.2164L36.9913 38.7705L37.9135 39.2357L37.6321 40.6801L36.4789 40.1769L35.8812 40.4518L35.8051 41.6729L34.5738 41.6647L33.0826 41.2425L32.2252 41.3653L31.9947 41.8918L30.5753 41.7739L29.7249 42.1527L28.669 41.387L28.4991 41.7473L27.4981 41.6566L26.5455 42.1315L26.3265 42.7162L25.256 42.2804L24.0464 42.4673L23.7116 43.3167L23.9393 43.8959L22.8839 45.3343L23.4388 46.4701L23.2567 47.0146L23.9631 47.2341L24.0903 48.4665L23.5144 48.4991L23.0394 49.2735L23.197 49.5322L22.6063 50.3973L21.363 50.9032L21.2738 51.5357L20.7033 51.6314L20.1413 52.1579L20.0077 53.2355L17.4732 53.6121L16.3082 54.8635L15.7464 55.0983L15.0041 54.9945L14.9225 53.8441L15.3557 53.3686L14.7578 52.9382L13.3243 53.4175L13.3336 54.2093L12.0467 54.7005L11.4061 55.4004L9.91179 55.5113L9.21727 54.6717L7.71746 54.9978L6.66971 55.0135L6.51814 54.4826L5.31401 54.4984L4.71452 55.2151L3.55981 55.2711L2.44209 54.7049L2.97956 54.0354L3.2958 53.1741L4.13377 53.6208L4.53791 53.0589L4.17937 52.3356L4.76245 51.5015L4.69064 50.8543L4.15931 49.7903L4.1462 49.0795L3.33162 49.0638L2.76314 48.1568L2.19317 48.4432L1.09219 47.8764L0.878096 46.8793L1.08788 46.3239L0.932987 45.6028L0.337972 44.5344L0 44.197L0.650405 43.6612L1.28522 43.6074L1.60246 42.3157L2.13065 41.531L3.36263 41.0572L2.95667 40.6654L4.71784 39.8584L4.94072 39.2775L4.54288 38.5923L4.09778 38.4755L3.92664 37.8967L4.18153 37.3104L4.17771 36.2649L3.97672 35.4318L4.29612 35.2199L4.47655 34.2521L4.07655 33.6652L3.9744 32.8881L4.32 32.1833L4.13907 31.7149L4.64885 31.0889L4.59728 29.8695L5.17753 29.6016L5.53507 28.7816L5.41401 28.3795L4.49064 27.3796L5.44171 27.2063L5.68084 26.2357L5.14718 25.8184L5.66824 25.0049L6.25181 25.2255L7.05992 24.5979L6.56109 23.8773Z"/>
</mask>
<path d="M6.56109 23.8773L6.46756 22.8095L7.37617 21.4467L7.7022 20.1322L8.14565 20.0164L7.86356 19.2643L7.2115 19.4524L7.16921 18.7878L7.59839 18.1205L7.29906 17.4352L7.27684 16.293L6.65015 14.8486L6.97402 14.722L6.41499 13.7781L6.22959 12.8157L7.00719 12.5299L7.31962 11.805L7.1838 11.1105L7.7022 10.5894L7.36208 9.57648L6.20952 7.79736L6.81548 7.79356L6.91382 7.14146L6.46325 5.99107L5.8883 6.05791L5.61832 5.33681L6.34866 5.01566L6.47254 4.40487L7.16208 3.82504L6.53224 3.22023L7.24583 2.13179L8.71297 0.861844L9.46188 0.95096L10.297 1.50252L11.5154 2.95397L12.3875 2.40784L12.563 3.22295L13.2749 3.20773L14.5062 2.37959L14.3769 1.63511L15.3137 1.14061L15.7099 1.71065L16.6359 1.85465L17.0021 2.49478L17.5586 2.68498L18.7009 1.81661L19.5164 2.26003L20.1887 2.27796L20.443 1.74325L21.0625 1.50252L21.5065 2.44642L22.6595 1.47372L24.3545 1.80248L24.3865 1.17539L24.9994 0L26.1248 0.549929L28.436 1.01291L28.0029 1.94213L28.4724 2.24047L29.0516 3.12296L29.3452 4.03752L28.5599 5.66992L29.6478 6.12747L30.0657 6.96322L30.6417 7.1143L30.8667 7.92234L31.6138 8.13862L32.1143 10.0634L32.8355 9.96283L33.5652 9.49931L33.869 10.3367L33.894 11.0448L34.5205 11.7506L35.6779 11.1697L36.2144 11.7061L35.9573 12.5853L36.4838 13.1075L36.3686 13.6868L37.3087 13.5803L38.3603 14.5063L39.0102 14.6965L38.7792 15.4176L39.5286 15.4561L39.6785 14.9741L40.2241 14.9372L40.4556 15.9012L40.2301 16.4272L39.321 16.9788L38.6123 17.1989L37.693 16.8348L37.2827 17.2668L37.9397 17.8004L38.4999 17.582L38.6243 18.8177L37.5701 18.7921L36.9381 20.1289L37.3935 20.5055L38.4352 20.4522L38.7173 21.3722L39.6579 21.313L39.4443 23.0242L39.9274 23.4698L39.7894 24.054L39.12 24.4088L38.6624 24.9729L38.7782 25.544L39.3019 26.0515L39.1737 27.1269L39.8959 26.9422L40.3845 26.4085L41.4229 26.5846L42.8352 27.8801L42.0717 28.4349L40.8843 28.749L41.3349 29.5973L40.5327 29.5641L40.2339 30.1032L39.4992 30.6531L39.9324 31.3851L39.8752 32.2763L39.2704 32.8702L38.345 32.9783L37.6142 32.7159L37.2875 33.0289L37.9712 33.7848L38.3885 34.7515L37.2696 35.227L36.6664 35.8464L36.9371 36.7327L37.3288 37.2164L36.9913 38.7705L37.9135 39.2357L37.6321 40.6801L36.4789 40.1769L35.8812 40.4518L35.8051 41.6729L34.5738 41.6647L33.0826 41.2425L32.2252 41.3653L31.9947 41.8918L30.5753 41.7739L29.7249 42.1527L28.669 41.387L28.4991 41.7473L27.4981 41.6566L26.5455 42.1315L26.3265 42.7162L25.256 42.2804L24.0464 42.4673L23.7116 43.3167L23.9393 43.8959L22.8839 45.3343L23.4388 46.4701L23.2567 47.0146L23.9631 47.2341L24.0903 48.4665L23.5144 48.4991L23.0394 49.2735L23.197 49.5322L22.6063 50.3973L21.363 50.9032L21.2738 51.5357L20.7033 51.6314L20.1413 52.1579L20.0077 53.2355L17.4732 53.6121L16.3082 54.8635L15.7464 55.0983L15.0041 54.9945L14.9225 53.8441L15.3557 53.3686L14.7578 52.9382L13.3243 53.4175L13.3336 54.2093L12.0467 54.7005L11.4061 55.4004L9.91179 55.5113L9.21727 54.6717L7.71746 54.9978L6.66971 55.0135L6.51814 54.4826L5.31401 54.4984L4.71452 55.2151L3.55981 55.2711L2.44209 54.7049L2.97956 54.0354L3.2958 53.1741L4.13377 53.6208L4.53791 53.0589L4.17937 52.3356L4.76245 51.5015L4.69064 50.8543L4.15931 49.7903L4.1462 49.0795L3.33162 49.0638L2.76314 48.1568L2.19317 48.4432L1.09219 47.8764L0.878096 46.8793L1.08788 46.3239L0.932987 45.6028L0.337972 44.5344L0 44.197L0.650405 43.6612L1.28522 43.6074L1.60246 42.3157L2.13065 41.531L3.36263 41.0572L2.95667 40.6654L4.71784 39.8584L4.94072 39.2775L4.54288 38.5923L4.09778 38.4755L3.92664 37.8967L4.18153 37.3104L4.17771 36.2649L3.97672 35.4318L4.29612 35.2199L4.47655 34.2521L4.07655 33.6652L3.9744 32.8881L4.32 32.1833L4.13907 31.7149L4.64885 31.0889L4.59728 29.8695L5.17753 29.6016L5.53507 28.7816L5.41401 28.3795L4.49064 27.3796L5.44171 27.2063L5.68084 26.2357L5.14718 25.8184L5.66824 25.0049L6.25181 25.2255L7.05992 24.5979L6.56109 23.8773Z" fill="#F2F2F2" stroke="#07122B" mask="url(#path-1-inside-1_81_137)"/>
</svg>
