<svg width="29" height="37" viewBox="0 0 29 37" fill="none" xmlns="http://www.w3.org/2000/svg">
<mask id="path-1-inside-1_81_162" fill="white">
<path d="M5.9548 0.308111L7.79192 0.107046L8.5478 0.418961L9.22822 1.05747L9.05757 1.50469L10.1536 2.16385L10.4753 1.8427L11.1899 1.98235L11.4242 1.42535L12.4197 1.4911L12.9918 1.06942L12.8859 0.636329L14.0878 0.36408L15.3948 1.44926L15.1676 2.341L15.1829 3.34521L16.0077 3.5816L16.0643 2.78767L17.1364 2.34915L18.0777 3.45552L19.0455 3.2512L19.4019 3.58378L20.0811 3.50552L20.8076 4.42496L22.1733 4.54072L23.4845 3.8571L24.4295 4.19021L25.0354 3.99731L24.8147 5.05913L26.5319 5.73675L26.9694 6.63175L26.9248 7.23493L27.9556 7.49794L27.7107 8.31305L27.9274 9.06024L27.7563 9.80797L26.8608 10.2872L25.8679 11.9783L26.0689 12.1723L25.7381 13.5558L25.9543 14.9443L26.8803 15.1122L27.1102 16.0512L27.8367 15.9854L28.7175 17.2331L28.6344 17.5635L27.3861 17.2825L27.4769 18.1265L25.9054 18.5253L25.3462 19.4035L24.3882 19.291L23.9965 19.517L24.4941 20.2104L24.0796 21.3298L23.3177 22.346L22.8998 22.0423L22.0521 22.195L21.6179 22.652L21.4076 23.8752L20.806 24.1539L21.6614 25.0794L22.0934 25.8765L22.6118 26.1944L21.6446 26.7558L21.6821 27.6725L21.1957 28.1784L20.9962 29.4196L20.5229 29.5608L18.0705 29.1571L17.9357 29.9727L19.134 30.7677L18.3641 31.6503L17.913 32.9582L17.8853 33.7092L17.2354 34.0945L17.4946 34.9835L17.4543 35.5264L16.8376 36.047L15.6165 35.9818L14.7829 35.6073L14.1776 34.4461L13.0424 34.5243L13.119 34.1586L12.4572 33.1805L12.0865 31.1155L12.5321 29.6375L11.8882 29.4157L11.4448 28.5197L10.3096 28.5919L9.38476 27.9013L9.99719 26.7433L9.85093 26.2461L7.96853 26.1292L7.65229 25.8037L7.51 24.9354L6.40637 24.2941L5.66509 23.2595L6.05745 22.0808L5.29445 21.8917L4.83973 21.3652L5.6689 20.3322L6.6052 18.8008L5.93075 18.0976L5.02662 18.0286L5.17488 17.3668L4.71568 16.406L4.77886 15.6137L5.30042 15.0682L4.79396 13.3993L5.04022 12.5152L4.11038 12.3234L3.69198 11.9278L4.18004 10.9839L3.35401 9.97588L3.35235 9.03034L2.20958 8.74995L1.98952 7.99352L1.97592 7.3398L1.6358 6.66761L2.3585 6.06062L1.1499 5.77153L0.514586 5.30366L1.21673 4.62276L1.08738 3.73701L0.386893 3.22077L0.394521 2.74964L0 1.67967L0.636972 1.2607L1.45371 1.78564L2.69482 0.803149L3.4225 0.543949L4.08601 0.787934L4.62398 0.29018L5.7553 0L5.9548 0.308111Z"/>
</mask>
<path d="M5.9548 0.308111L7.79192 0.107046L8.5478 0.418961L9.22822 1.05747L9.05757 1.50469L10.1536 2.16385L10.4753 1.8427L11.1899 1.98235L11.4242 1.42535L12.4197 1.4911L12.9918 1.06942L12.8859 0.636329L14.0878 0.36408L15.3948 1.44926L15.1676 2.341L15.1829 3.34521L16.0077 3.5816L16.0643 2.78767L17.1364 2.34915L18.0777 3.45552L19.0455 3.2512L19.4019 3.58378L20.0811 3.50552L20.8076 4.42496L22.1733 4.54072L23.4845 3.8571L24.4295 4.19021L25.0354 3.99731L24.8147 5.05913L26.5319 5.73675L26.9694 6.63175L26.9248 7.23493L27.9556 7.49794L27.7107 8.31305L27.9274 9.06024L27.7563 9.80797L26.8608 10.2872L25.8679 11.9783L26.0689 12.1723L25.7381 13.5558L25.9543 14.9443L26.8803 15.1122L27.1102 16.0512L27.8367 15.9854L28.7175 17.2331L28.6344 17.5635L27.3861 17.2825L27.4769 18.1265L25.9054 18.5253L25.3462 19.4035L24.3882 19.291L23.9965 19.517L24.4941 20.2104L24.0796 21.3298L23.3177 22.346L22.8998 22.0423L22.0521 22.195L21.6179 22.652L21.4076 23.8752L20.806 24.1539L21.6614 25.0794L22.0934 25.8765L22.6118 26.1944L21.6446 26.7558L21.6821 27.6725L21.1957 28.1784L20.9962 29.4196L20.5229 29.5608L18.0705 29.1571L17.9357 29.9727L19.134 30.7677L18.3641 31.6503L17.913 32.9582L17.8853 33.7092L17.2354 34.0945L17.4946 34.9835L17.4543 35.5264L16.8376 36.047L15.6165 35.9818L14.7829 35.6073L14.1776 34.4461L13.0424 34.5243L13.119 34.1586L12.4572 33.1805L12.0865 31.1155L12.5321 29.6375L11.8882 29.4157L11.4448 28.5197L10.3096 28.5919L9.38476 27.9013L9.99719 26.7433L9.85093 26.2461L7.96853 26.1292L7.65229 25.8037L7.51 24.9354L6.40637 24.2941L5.66509 23.2595L6.05745 22.0808L5.29445 21.8917L4.83973 21.3652L5.6689 20.3322L6.6052 18.8008L5.93075 18.0976L5.02662 18.0286L5.17488 17.3668L4.71568 16.406L4.77886 15.6137L5.30042 15.0682L4.79396 13.3993L5.04022 12.5152L4.11038 12.3234L3.69198 11.9278L4.18004 10.9839L3.35401 9.97588L3.35235 9.03034L2.20958 8.74995L1.98952 7.99352L1.97592 7.3398L1.6358 6.66761L2.3585 6.06062L1.1499 5.77153L0.514586 5.30366L1.21673 4.62276L1.08738 3.73701L0.386893 3.22077L0.394521 2.74964L0 1.67967L0.636972 1.2607L1.45371 1.78564L2.69482 0.803149L3.4225 0.543949L4.08601 0.787934L4.62398 0.29018L5.7553 0L5.9548 0.308111Z" fill="#F2F2F2" stroke="#07122B" mask="url(#path-1-inside-1_81_162)"/>
</svg>
