<svg width="41" height="62" viewBox="0 0 41 62" fill="none" xmlns="http://www.w3.org/2000/svg">
<mask id="path-1-inside-1_81_155" fill="white">
<path d="M0 7.14583L1.15753 7.53382L1.80959 6.38939L3.3686 6.15845L4.40607 5.61177L4.78152 6.26659L6.21168 6.27853L6.49758 6.71598L7.20884 6.13237L7.90552 6.44157L8.49622 5.97912L9.54231 5.97804L10.071 6.26388L11.1677 5.60798L11.5252 5.02326L12.0718 4.76081L12.4033 3.55009L12.3365 2.39155L13.1462 1.95573L14.3645 1.53567L15.6387 1.32158L15.9588 1.52263L14.99 2.32144L15.1714 2.96538L15.8745 2.14211L16.6208 2.19536L17.0777 1.93291L17.8092 2.27144L18.1015 2.00356L18.2858 0.896628L19.0063 1.05803L19.8426 0.687966L20.5115 1.0966L21.4174 0.836844L22.3048 0.350513L23.1786 0.497774L23.9633 0.13586L25.0039 0.63579L26.0207 0.355384L26.2477 0L27.716 0.558636L26.7954 1.38895L26.2837 2.05899L26.7694 2.35894L27.446 2.07364L28.1372 2.9143L29.1201 2.33504L29.4587 3.3974L29.706 4.76189L29.4185 5.12923L29.8092 6.58611L30.3559 6.19159L31.4524 6.36168L31.6187 7.11376L31.1791 7.71694L32.0672 9.18033L32.5579 10.847L32.0231 11.4529L31.9025 12.5766L33.8224 13.7966L33.4995 14.7617L32.5856 14.0694L31.1994 14.9117L31.245 15.429L32.1345 15.9626L32.6192 15.4567L33.1071 16.1822L31.9013 17.2554L32.2312 17.8325L32.028 18.3118L32.4312 19.1041L32.8419 18.7009L34.2864 20.343L32.8133 21.1761L32.8861 22.12L32.2703 22.2227L32.6426 22.9133L31.4443 23.9061L31.7133 24.6191L30.8634 25.1152L30.3929 25.7988L30.4614 26.1673L31.7839 25.9396L32.2192 25.2804L32.9109 25.0685L32.6366 26.5618L33.4474 26.683L33.8114 27.0563L33.6011 28.1991L32.7317 28.9245L32.4904 29.6168L33.1701 30.1939L32.7479 31.0601L31.9801 31.5541L31.365 33.1028L31.3063 34.3537L32.3231 34.0559L32.5338 34.4684L32.1731 35.2313L32.5225 35.4237L32.2242 37.0702L32.261 37.881L33.1083 38.6064L33.4522 38.5325L34.125 39.4916L33.3963 40.398L33.736 41.011L33.668 41.5723L34.1918 42.1027L35.7726 43.1667L36.5046 42.288L36.7273 41.5615L37.543 40.8279L38.5803 41.0599L39.4161 41.9207L38.9646 42.4896L38.614 43.5911L39.1863 44.272L38.7831 45.2115L37.6342 45.1806L38.1875 47.22L37.6755 47.3194L36.9741 48.5318L36.8528 49.5191L37.843 49.7158L38.3989 50.2473L38.6016 51.0439L39.8312 51.5064L40.0601 50.8695L40.8697 51.145L40.8377 52.0275L40.4742 52.1954L40.3596 53.0502L39.8226 53.4887L40.1655 54.3343L39.4345 54.9749L38.2722 54.3022L37.8973 53.868L37.1349 54.2973L35.3064 54.581L34.7623 55.1912L35.1933 55.5466L34.1011 55.8651L33.5985 56.5987L32.0242 56.3943L31.4297 56.591L31.4901 57.0644L32.0541 57.73L31.7514 58.2398L31.2025 58.3066L31.0547 58.931L31.2803 59.9167L30.7309 60.0949L29.0788 61.0177L27.9573 60.3248L27.7525 59.4352L26.8172 58.8435L26.9482 57.5203L25.977 58.0148L25.8042 57.1415L25.0457 57.0638L22.8177 56.3601L22.5721 55.2037L22.1516 54.7603L21.6945 55.2869L20.6804 55.0168L19.678 55.0103L18.6233 54.2087L18.1092 54.9255L17.312 54.4402L16.7924 53.8175L15.6289 53.9767L14.778 53.6517L14.0336 53.6137L13.9368 52.7187L13.3608 52.4383L13.2054 51.9775L12.5331 51.7216L11.3925 51.9819L10.771 51.7781L9.73036 51.8123L9.70267 50.8505L8.73917 50.3989L8.18213 49.5784L7.47468 49.7311L7.78495 48.929L7.40022 47.7243L5.16891 46.3549L5.06841 45.9473L5.79112 45.1284L5.28632 44.3079L5.22927 43.2085L5.80256 43.1732L7.18546 42.1032L8.10817 42.5711L8.99074 42.538L9.40964 42.1489L9.39936 41.4669L10.0829 41.3588L10.5803 40.9165L10.6562 40.1595L11.6142 40.4844L12.1686 40.266L13.0429 38.8493L12.5909 38.4548L12.0176 38.4716L11.7866 38.057L10.4015 37.3653L9.99719 38.5993L9.31296 37.531L9.41727 36.3768L10.0857 36.0198L10.4736 35.1683L10.1748 34.7977L9.85093 32.8827L9.09505 32.2784L9.37216 31.5731L9.96933 31.1221L10.4254 31.3568L10.6829 30.5075L10.5323 29.3337L10.0199 29.2842L9.87215 28.7207L10.3443 28.029L9.83948 27.1019L10.2406 26.2325L8.95326 24.968L9.23369 23.9567L8.60219 23.2448L7.77948 22.7232L8.63701 22.0444L7.88711 20.6457L7.20785 20.2637L7.30619 19.6665L6.50355 19.2274L6.11284 18.5384L6.07868 17.5869L6.60139 16.3691L7.12311 16.1544L6.74965 15.4926L5.8558 15.4725L5.37819 14.9682L4.63525 14.8008L4.04521 14.315L3.87556 13.7352L2.77094 12.281L2.23894 11.999L2.76165 11.0323L2.59532 10.2563L1.38787 8.69019L0.629344 8.34185L0 7.14583Z"/>
</mask>
<path d="M0 7.14583L1.15753 7.53382L1.80959 6.38939L3.3686 6.15845L4.40607 5.61177L4.78152 6.26659L6.21168 6.27853L6.49758 6.71598L7.20884 6.13237L7.90552 6.44157L8.49622 5.97912L9.54231 5.97804L10.071 6.26388L11.1677 5.60798L11.5252 5.02326L12.0718 4.76081L12.4033 3.55009L12.3365 2.39155L13.1462 1.95573L14.3645 1.53567L15.6387 1.32158L15.9588 1.52263L14.99 2.32144L15.1714 2.96538L15.8745 2.14211L16.6208 2.19536L17.0777 1.93291L17.8092 2.27144L18.1015 2.00356L18.2858 0.896628L19.0063 1.05803L19.8426 0.687966L20.5115 1.0966L21.4174 0.836844L22.3048 0.350513L23.1786 0.497774L23.9633 0.13586L25.0039 0.63579L26.0207 0.355384L26.2477 0L27.716 0.558636L26.7954 1.38895L26.2837 2.05899L26.7694 2.35894L27.446 2.07364L28.1372 2.9143L29.1201 2.33504L29.4587 3.3974L29.706 4.76189L29.4185 5.12923L29.8092 6.58611L30.3559 6.19159L31.4524 6.36168L31.6187 7.11376L31.1791 7.71694L32.0672 9.18033L32.5579 10.847L32.0231 11.4529L31.9025 12.5766L33.8224 13.7966L33.4995 14.7617L32.5856 14.0694L31.1994 14.9117L31.245 15.429L32.1345 15.9626L32.6192 15.4567L33.1071 16.1822L31.9013 17.2554L32.2312 17.8325L32.028 18.3118L32.4312 19.1041L32.8419 18.7009L34.2864 20.343L32.8133 21.1761L32.8861 22.12L32.2703 22.2227L32.6426 22.9133L31.4443 23.9061L31.7133 24.6191L30.8634 25.1152L30.3929 25.7988L30.4614 26.1673L31.7839 25.9396L32.2192 25.2804L32.9109 25.0685L32.6366 26.5618L33.4474 26.683L33.8114 27.0563L33.6011 28.1991L32.7317 28.9245L32.4904 29.6168L33.1701 30.1939L32.7479 31.0601L31.9801 31.5541L31.365 33.1028L31.3063 34.3537L32.3231 34.0559L32.5338 34.4684L32.1731 35.2313L32.5225 35.4237L32.2242 37.0702L32.261 37.881L33.1083 38.6064L33.4522 38.5325L34.125 39.4916L33.3963 40.398L33.736 41.011L33.668 41.5723L34.1918 42.1027L35.7726 43.1667L36.5046 42.288L36.7273 41.5615L37.543 40.8279L38.5803 41.0599L39.4161 41.9207L38.9646 42.4896L38.614 43.5911L39.1863 44.272L38.7831 45.2115L37.6342 45.1806L38.1875 47.22L37.6755 47.3194L36.9741 48.5318L36.8528 49.5191L37.843 49.7158L38.3989 50.2473L38.6016 51.0439L39.8312 51.5064L40.0601 50.8695L40.8697 51.145L40.8377 52.0275L40.4742 52.1954L40.3596 53.0502L39.8226 53.4887L40.1655 54.3343L39.4345 54.9749L38.2722 54.3022L37.8973 53.868L37.1349 54.2973L35.3064 54.581L34.7623 55.1912L35.1933 55.5466L34.1011 55.8651L33.5985 56.5987L32.0242 56.3943L31.4297 56.591L31.4901 57.0644L32.0541 57.73L31.7514 58.2398L31.2025 58.3066L31.0547 58.931L31.2803 59.9167L30.7309 60.0949L29.0788 61.0177L27.9573 60.3248L27.7525 59.4352L26.8172 58.8435L26.9482 57.5203L25.977 58.0148L25.8042 57.1415L25.0457 57.0638L22.8177 56.3601L22.5721 55.2037L22.1516 54.7603L21.6945 55.2869L20.6804 55.0168L19.678 55.0103L18.6233 54.2087L18.1092 54.9255L17.312 54.4402L16.7924 53.8175L15.6289 53.9767L14.778 53.6517L14.0336 53.6137L13.9368 52.7187L13.3608 52.4383L13.2054 51.9775L12.5331 51.7216L11.3925 51.9819L10.771 51.7781L9.73036 51.8123L9.70267 50.8505L8.73917 50.3989L8.18213 49.5784L7.47468 49.7311L7.78495 48.929L7.40022 47.7243L5.16891 46.3549L5.06841 45.9473L5.79112 45.1284L5.28632 44.3079L5.22927 43.2085L5.80256 43.1732L7.18546 42.1032L8.10817 42.5711L8.99074 42.538L9.40964 42.1489L9.39936 41.4669L10.0829 41.3588L10.5803 40.9165L10.6562 40.1595L11.6142 40.4844L12.1686 40.266L13.0429 38.8493L12.5909 38.4548L12.0176 38.4716L11.7866 38.057L10.4015 37.3653L9.99719 38.5993L9.31296 37.531L9.41727 36.3768L10.0857 36.0198L10.4736 35.1683L10.1748 34.7977L9.85093 32.8827L9.09505 32.2784L9.37216 31.5731L9.96933 31.1221L10.4254 31.3568L10.6829 30.5075L10.5323 29.3337L10.0199 29.2842L9.87215 28.7207L10.3443 28.029L9.83948 27.1019L10.2406 26.2325L8.95326 24.968L9.23369 23.9567L8.60219 23.2448L7.77948 22.7232L8.63701 22.0444L7.88711 20.6457L7.20785 20.2637L7.30619 19.6665L6.50355 19.2274L6.11284 18.5384L6.07868 17.5869L6.60139 16.3691L7.12311 16.1544L6.74965 15.4926L5.8558 15.4725L5.37819 14.9682L4.63525 14.8008L4.04521 14.315L3.87556 13.7352L2.77094 12.281L2.23894 11.999L2.76165 11.0323L2.59532 10.2563L1.38787 8.69019L0.629344 8.34185L0 7.14583Z" fill="#F2F2F2" stroke="#07122B" mask="url(#path-1-inside-1_81_155)"/>
</svg>
