<svg width="51" height="54" viewBox="0 0 51 54" fill="none" xmlns="http://www.w3.org/2000/svg">
<mask id="path-1-inside-1_81_136" fill="white">
<path d="M7.58977 11.6833L8.82109 11.2975L9.97199 11.2485L10.34 11.01L11.3305 11.3295L11.9381 11.9946L13.0802 11.8773L13.4628 12.2625L14.3459 12.2604L15.4223 12.8543L16.7374 12.2283L17.7928 12.2973L18.3422 11.9093L18.973 11.0062L19.8045 10.947L20.1473 10.3976L21.0217 10.0389L22.3645 9.98023L23.7388 9.414L24.2391 9.43954L24.2837 8.0419L24.7854 6.15192L24.2832 5.95847L24.0479 5.4118L24.9489 3.72669L26.7117 2.82681L27.1198 1.53948L29.3772 0L29.6836 0.454289L31.2741 0.406472L31.9904 1.50959L31.109 2.08615L31.1932 2.96157L30.978 3.70333L30.4237 3.44358L29.9607 3.7919L30.214 4.44345L29.8944 5.39767L29.3075 5.55907L29.4863 6.38613L30.0118 6.68338L29.151 8.3098L29.1956 9.53083L28.3034 10.6443L28.1631 11.6637L29.5808 12.1484L30.2949 12.2256L30.6465 13.1293L31.4997 13.7357L31.81 14.4715L30.7775 16.5805L30.3634 16.9549L30.6204 18.3118L30.9715 18.3036L31.0383 19.385L30.5574 21.1532L32.4909 21.5135L33.3108 21.4309L33.9129 20.7527L34.7091 20.6087L35.8029 20.7234L36.1779 21.7184L38.1858 22.8541L39.3573 22.871L40.1432 24.0887L40.4714 24.8767L40.3871 25.4342L41.2979 25.7358L41.9803 25.7363L41.9151 26.7802L43.4443 26.6199L43.9002 27.1095L44.2751 26.9041L45.1071 27.0383L45.7575 26.6014L46.6809 27.7062L47.2547 28.0002L48.1139 29.1038L47.5872 29.4587L47.1031 30.3754L47.3644 31.4361L48.5039 30.89L48.8848 30.3678L50.387 31.1367L49.9185 31.7986L49.7555 32.5458L48.5762 32.6208L47.5905 33.5837L47.3754 34.414L46.3613 34.7651L46.1776 35.1666L45.4126 35.2933L45.2419 34.6183L44.5186 34.264L44.556 33.8516L43.5421 33.5293L43.2524 33.9217L42.6536 33.8347L41.8814 34.2418L41.3897 32.8555L40.2301 32.4871L39.811 33.0544L40.0539 34.264L39.4117 34.5667L39.1123 35.6378L39.4384 36.0274L38.7465 37.2723L38.0211 37.7239L38.9508 38.6814L38.9176 39.4482L39.3709 40.0769L39.9801 40.191L39.5622 41.1338L39.936 42.5554L39.4405 42.6385L39.0296 43.5243L39.6143 43.9036L39.6074 44.6746L38.508 45.1822L37.9777 45.6723L37.2304 46.7412L36.8295 47.0412L37.2538 48.1976L37.1424 48.6931L37.682 49.9218L37.7472 50.5701L36.861 50.5418L35.7318 51.1445L35.8354 51.4102L34.5514 52.0693L34.0444 52.672L33.8728 52.2862L32.9658 51.8558L33.4353 51.2591L31.5687 51.3781L31.3775 51.927L30.7562 52.6579L30.8025 53.0768L29.6221 52.7926L29.0413 51.9297L28.1604 52.4644L27.549 52.2411L26.4324 52.2802L25.8232 51.7422L25.3336 51.9123L24.3207 51.5536L23.6734 52.3872L22.7204 52.8855L21.8182 52.6291L21.839 52.1063L21.3944 51.158L20.7337 50.2212L21.0619 49.8109L20.2136 49.3148L19.3909 49.4148L18.9463 49.8963L18.0976 50.1109L16.1202 50.337L15.4848 50.6614L15.2029 50.2386L14.5943 50.2141L13.6112 49.5523L12.7776 47.9123L12.0549 48.197L11.2061 47.5656L10.3622 47.5906L9.4438 46.0103L8.5206 45.5224L7.95427 44.566L6.86756 44.1226L6.41649 44.366L5.96492 43.5221L5.4563 43.3096L1.83563 43.364L0.774781 43.1308L0.613921 41.8174L0.389546 41.2631L1.02204 40.0856L0.534154 39.4291L0.499826 37.3006L1.28124 37.0572L1.0824 36.5828L1.85735 36.1741L1.77477 35.4204L0.796008 35.2036L1.20678 34.721L1.3562 33.725L1.2824 32.718L0 31.0808L0.608614 30.2157L1.5421 29.9651L2.65236 30.4846L3.23809 30.1157L3.62714 29.1908L3.64074 27.9768L4.50308 27.6263L4.31022 27.0508L5.82528 26.4705L6.05613 25.4924L7.40503 24.7028L7.46589 23.7507L8.20054 23.1535L7.95112 22.5802L7.42725 22.2379L6.88497 22.3504L6.65015 21.7809L7.34251 21.069L6.89691 20.3517L7.24251 18.7514L7.58645 17.9352L8.16903 17.4564L8.31629 16.7217L8.42757 14.7557L8.03089 14.8524L6.99475 14.1699L7.13538 12.8549L7.58977 11.6833Z"/>
</mask>
<path d="M7.58977 11.6833L8.82109 11.2975L9.97199 11.2485L10.34 11.01L11.3305 11.3295L11.9381 11.9946L13.0802 11.8773L13.4628 12.2625L14.3459 12.2604L15.4223 12.8543L16.7374 12.2283L17.7928 12.2973L18.3422 11.9093L18.973 11.0062L19.8045 10.947L20.1473 10.3976L21.0217 10.0389L22.3645 9.98023L23.7388 9.414L24.2391 9.43954L24.2837 8.0419L24.7854 6.15192L24.2832 5.95847L24.0479 5.4118L24.9489 3.72669L26.7117 2.82681L27.1198 1.53948L29.3772 0L29.6836 0.454289L31.2741 0.406472L31.9904 1.50959L31.109 2.08615L31.1932 2.96157L30.978 3.70333L30.4237 3.44358L29.9607 3.7919L30.214 4.44345L29.8944 5.39767L29.3075 5.55907L29.4863 6.38613L30.0118 6.68338L29.151 8.3098L29.1956 9.53083L28.3034 10.6443L28.1631 11.6637L29.5808 12.1484L30.2949 12.2256L30.6465 13.1293L31.4997 13.7357L31.81 14.4715L30.7775 16.5805L30.3634 16.9549L30.6204 18.3118L30.9715 18.3036L31.0383 19.385L30.5574 21.1532L32.4909 21.5135L33.3108 21.4309L33.9129 20.7527L34.7091 20.6087L35.8029 20.7234L36.1779 21.7184L38.1858 22.8541L39.3573 22.871L40.1432 24.0887L40.4714 24.8767L40.3871 25.4342L41.2979 25.7358L41.9803 25.7363L41.9151 26.7802L43.4443 26.6199L43.9002 27.1095L44.2751 26.9041L45.1071 27.0383L45.7575 26.6014L46.6809 27.7062L47.2547 28.0002L48.1139 29.1038L47.5872 29.4587L47.1031 30.3754L47.3644 31.4361L48.5039 30.89L48.8848 30.3678L50.387 31.1367L49.9185 31.7986L49.7555 32.5458L48.5762 32.6208L47.5905 33.5837L47.3754 34.414L46.3613 34.7651L46.1776 35.1666L45.4126 35.2933L45.2419 34.6183L44.5186 34.264L44.556 33.8516L43.5421 33.5293L43.2524 33.9217L42.6536 33.8347L41.8814 34.2418L41.3897 32.8555L40.2301 32.4871L39.811 33.0544L40.0539 34.264L39.4117 34.5667L39.1123 35.6378L39.4384 36.0274L38.7465 37.2723L38.0211 37.7239L38.9508 38.6814L38.9176 39.4482L39.3709 40.0769L39.9801 40.191L39.5622 41.1338L39.936 42.5554L39.4405 42.6385L39.0296 43.5243L39.6143 43.9036L39.6074 44.6746L38.508 45.1822L37.9777 45.6723L37.2304 46.7412L36.8295 47.0412L37.2538 48.1976L37.1424 48.6931L37.682 49.9218L37.7472 50.5701L36.861 50.5418L35.7318 51.1445L35.8354 51.4102L34.5514 52.0693L34.0444 52.672L33.8728 52.2862L32.9658 51.8558L33.4353 51.2591L31.5687 51.3781L31.3775 51.927L30.7562 52.6579L30.8025 53.0768L29.6221 52.7926L29.0413 51.9297L28.1604 52.4644L27.549 52.2411L26.4324 52.2802L25.8232 51.7422L25.3336 51.9123L24.3207 51.5536L23.6734 52.3872L22.7204 52.8855L21.8182 52.6291L21.839 52.1063L21.3944 51.158L20.7337 50.2212L21.0619 49.8109L20.2136 49.3148L19.3909 49.4148L18.9463 49.8963L18.0976 50.1109L16.1202 50.337L15.4848 50.6614L15.2029 50.2386L14.5943 50.2141L13.6112 49.5523L12.7776 47.9123L12.0549 48.197L11.2061 47.5656L10.3622 47.5906L9.4438 46.0103L8.5206 45.5224L7.95427 44.566L6.86756 44.1226L6.41649 44.366L5.96492 43.5221L5.4563 43.3096L1.83563 43.364L0.774781 43.1308L0.613921 41.8174L0.389546 41.2631L1.02204 40.0856L0.534154 39.4291L0.499826 37.3006L1.28124 37.0572L1.0824 36.5828L1.85735 36.1741L1.77477 35.4204L0.796008 35.2036L1.20678 34.721L1.3562 33.725L1.2824 32.718L0 31.0808L0.608614 30.2157L1.5421 29.9651L2.65236 30.4846L3.23809 30.1157L3.62714 29.1908L3.64074 27.9768L4.50308 27.6263L4.31022 27.0508L5.82528 26.4705L6.05613 25.4924L7.40503 24.7028L7.46589 23.7507L8.20054 23.1535L7.95112 22.5802L7.42725 22.2379L6.88497 22.3504L6.65015 21.7809L7.34251 21.069L6.89691 20.3517L7.24251 18.7514L7.58645 17.9352L8.16903 17.4564L8.31629 16.7217L8.42757 14.7557L8.03089 14.8524L6.99475 14.1699L7.13538 12.8549L7.58977 11.6833Z" fill="#F2F2F2" stroke="#07122B" mask="url(#path-1-inside-1_81_136)"/>
</svg>
