<svg width="68" height="46" viewBox="0 0 68 46" fill="none" xmlns="http://www.w3.org/2000/svg">
<mask id="path-1-inside-1_81_112" fill="white">
<path d="M0 17.0755L0.464006 16.5017L1.87742 15.5029L2.7192 14.5525L3.78435 10.9991L4.39181 9.83677L5.02811 9.06079L6.03888 8.54835L6.60504 8.62986L6.85727 9.40585L7.87716 10.1998L8.58362 9.82264L9.70151 10.1481L10.3357 10.8095L10.9459 10.704L11.3839 10.0166L11.3197 9.32217L10.9426 8.77006L9.73617 8.27556L8.96305 8.49184L7.57949 6.16171L6.2339 5.82425L5.88349 5.06402L5.85298 4.33368L6.2606 1.27647L6.31168 0.320611L6.93173 0.187476L9.12871 0.115203L9.82157 0.766753L10.7149 1.77423L11.9844 1.03519L12.8413 0.906951L13.0983 0.475485L14.0797 0L15.5741 0.101621L16.6734 0.975965L18.1639 1.58295L18.2992 2.3247L19.1105 2.75508L19.8446 2.87626L20.6327 1.77912L21.1864 1.89487L21.5124 2.56435L20.463 3.4338L20.8576 4.25434L21.2988 4.07393L23.2796 5.43354L24.25 5.48353L24.6175 5.99922L25.7162 6.44102L25.2615 6.93226L25.3538 7.7452L26.3396 8.97547L27.3138 8.69671L27.8312 8.8744L28.2566 9.44389L28.7485 9.61941L29.2657 8.79397L30.1173 8.6929L30.7118 8.24568L31.1944 8.69398L31.866 8.51086L32.8061 7.65173L33.8749 8.63476L35.0776 8.02668L34.6955 7.43002L35.1607 7.12136L35.8824 8.32121L36.3898 8.88364L36.9435 7.83268L37.3213 7.91854L37.7512 7.36046L38.1228 7.64847L39.5319 7.77563L40.3117 8.79234L40.7621 8.87385L41.1164 9.63299L40.178 10.0243L39.4758 10.5318L38.5863 10.572L37.7603 11.3436L36.8533 13.7047L36.6974 14.5383L37.7316 14.7432L38.1793 15.435L38.7128 15.7414L39.6302 13.2722L40.41 12.9527L41.8484 12.7206L41.8929 13.1315L42.5194 14.2737L43.0629 13.6901L42.9869 13.0304L43.397 12.6272L44.4116 13.2021L43.9204 14.096L44.7154 14.6976L45.9646 14.5666L46.426 15.2442L47.0097 15.0654L48.3172 15.4757L48.8208 16.1735L49.3392 15.7333L48.7442 15.291L48.5714 14.7242L49.179 14.5095L48.9881 13.4314L49.8365 13.6167L50.5168 14.3672L50.9624 14.5171L51.4956 14.1601L51.6868 15.5887L50.8352 16.9027L51.0199 17.3325L50.2277 18.0493L50.6173 18.6041L51.9297 18.2216L53.9489 16.5555L54.7033 17.3358L55.1227 18.2797L54.9983 18.7443L54.3554 19.1915L55.1157 19.6763L55.2754 19.0676L55.9194 18.6666L56.6709 18.7938L57.7175 17.7113L58.5615 18.0248L58.5576 18.3677L60.2873 17.4863L61.3991 17.6499L62.4609 18.2178L63.0456 17.7292L64.0194 18.6633L64.0857 19.3192L65.2817 19.6268L65.8758 19.6072L66.0751 20.1333L65.5963 21.1685L66.1185 21.6314L66.8131 21.4554L67.1283 21.7037L65.7121 22.8226L65.9099 23.0242L65.4715 23.9752L64.5633 24.8799L64.0025 26.0608L64.1438 27.4448L63.6993 27.9437L62.6528 28.4816L62.874 29.776L61.7578 30.4281L61.9611 31.1166L62.9521 32.0687L62.8869 32.717L62.0458 33.3462L62.3201 34.1505L63.1065 34.2575L63.1858 35.152L63.6065 36.3214L64.1113 36.9273L64.0824 37.6261L63.2826 37.6353L62.131 37.1566L61.6866 37.3919L61.7377 38.2081L61.2198 38.3179L60.7525 39.1134L59.6047 37.5245L58.3044 38.3407L57.823 38.2961L57.8251 39.3868L57.1431 38.6526L56.5394 37.7196L55.7373 38.0358L55.4802 37.4229L54.7919 37.8141L55.2809 38.5244L54.0973 39.5481L54.1909 40.1155L52.6095 40.2133L52.1095 40.4882L51.9634 41.4892L52.3133 42.494L51.8488 42.9743L50.7825 42.6271L50.0908 42.1103L49.4127 42.4467L49.0067 42.1511L48.2823 42.3853L47.7656 43.2852L47.3721 44.9551L46.8081 45.2626L46.0348 44.7111L46.0179 43.847L45.3088 43.2205L44.6627 43.158L44.1617 43.8699L43.7905 43.4699L43.7383 42.5793L43.1597 42.6907L42.7129 42.2771L41.5103 41.6642L40.8611 41.8734L40.473 42.4831L39.5732 41.643L39.2775 40.6404L37.8022 40.1421L37.1746 40.4795L36.5316 40.4464L35.1671 39.6307L35.0927 39.0096L34.5351 38.6667L33.9809 39.0444L33.2995 38.5184L31.2139 37.8228L30.364 38.0641L29.8765 37.75L28.8544 37.7973L28.0138 38.4771L27.4372 38.658L26.6666 38.2635L25.2701 38.927L24.9011 38.0342L24.1469 37.6728L24.0822 37.331L23.1492 37.474L22.8638 37.2316L22.0504 37.4104L21.8048 37.0501L20.9702 37.925L20.4 36.8224L19.7534 37.2061L18.9601 38.0119L18.4801 38.0989L17.9944 37.7261L17.2956 37.8685L16.9097 37.4816L16.9445 35.7258L16.2495 35.7318L15.8256 34.8613L15.2719 35.1128L14.89 34.6428L14.4155 33.5147L13.9177 33.0435L13.058 31.5552L12.7365 30.4107L12.7527 29.688L12.356 28.4952L12.268 27.3372L11.555 26.8639L11.1904 25.8662L10.6725 25.2821L9.31843 24.6044L7.9289 23.7659L7.311 22.928L7.14301 22.2852L5.44005 21.1201L5.03243 20.1246L3.63543 19.2519L3.35385 18.8041L2.77143 18.6574L2.85617 17.2184L2.56265 16.8424L1.40363 16.7804L1.06665 17.5401L0 17.0755Z"/>
</mask>
<path d="M0 17.0755L0.464006 16.5017L1.87742 15.5029L2.7192 14.5525L3.78435 10.9991L4.39181 9.83677L5.02811 9.06079L6.03888 8.54835L6.60504 8.62986L6.85727 9.40585L7.87716 10.1998L8.58362 9.82264L9.70151 10.1481L10.3357 10.8095L10.9459 10.704L11.3839 10.0166L11.3197 9.32217L10.9426 8.77006L9.73617 8.27556L8.96305 8.49184L7.57949 6.16171L6.2339 5.82425L5.88349 5.06402L5.85298 4.33368L6.2606 1.27647L6.31168 0.320611L6.93173 0.187476L9.12871 0.115203L9.82157 0.766753L10.7149 1.77423L11.9844 1.03519L12.8413 0.906951L13.0983 0.475485L14.0797 0L15.5741 0.101621L16.6734 0.975965L18.1639 1.58295L18.2992 2.3247L19.1105 2.75508L19.8446 2.87626L20.6327 1.77912L21.1864 1.89487L21.5124 2.56435L20.463 3.4338L20.8576 4.25434L21.2988 4.07393L23.2796 5.43354L24.25 5.48353L24.6175 5.99922L25.7162 6.44102L25.2615 6.93226L25.3538 7.7452L26.3396 8.97547L27.3138 8.69671L27.8312 8.8744L28.2566 9.44389L28.7485 9.61941L29.2657 8.79397L30.1173 8.6929L30.7118 8.24568L31.1944 8.69398L31.866 8.51086L32.8061 7.65173L33.8749 8.63476L35.0776 8.02668L34.6955 7.43002L35.1607 7.12136L35.8824 8.32121L36.3898 8.88364L36.9435 7.83268L37.3213 7.91854L37.7512 7.36046L38.1228 7.64847L39.5319 7.77563L40.3117 8.79234L40.7621 8.87385L41.1164 9.63299L40.178 10.0243L39.4758 10.5318L38.5863 10.572L37.7603 11.3436L36.8533 13.7047L36.6974 14.5383L37.7316 14.7432L38.1793 15.435L38.7128 15.7414L39.6302 13.2722L40.41 12.9527L41.8484 12.7206L41.8929 13.1315L42.5194 14.2737L43.0629 13.6901L42.9869 13.0304L43.397 12.6272L44.4116 13.2021L43.9204 14.096L44.7154 14.6976L45.9646 14.5666L46.426 15.2442L47.0097 15.0654L48.3172 15.4757L48.8208 16.1735L49.3392 15.7333L48.7442 15.291L48.5714 14.7242L49.179 14.5095L48.9881 13.4314L49.8365 13.6167L50.5168 14.3672L50.9624 14.5171L51.4956 14.1601L51.6868 15.5887L50.8352 16.9027L51.0199 17.3325L50.2277 18.0493L50.6173 18.6041L51.9297 18.2216L53.9489 16.5555L54.7033 17.3358L55.1227 18.2797L54.9983 18.7443L54.3554 19.1915L55.1157 19.6763L55.2754 19.0676L55.9194 18.6666L56.6709 18.7938L57.7175 17.7113L58.5615 18.0248L58.5576 18.3677L60.2873 17.4863L61.3991 17.6499L62.4609 18.2178L63.0456 17.7292L64.0194 18.6633L64.0857 19.3192L65.2817 19.6268L65.8758 19.6072L66.0751 20.1333L65.5963 21.1685L66.1185 21.6314L66.8131 21.4554L67.1283 21.7037L65.7121 22.8226L65.9099 23.0242L65.4715 23.9752L64.5633 24.8799L64.0025 26.0608L64.1438 27.4448L63.6993 27.9437L62.6528 28.4816L62.874 29.776L61.7578 30.4281L61.9611 31.1166L62.9521 32.0687L62.8869 32.717L62.0458 33.3462L62.3201 34.1505L63.1065 34.2575L63.1858 35.152L63.6065 36.3214L64.1113 36.9273L64.0824 37.6261L63.2826 37.6353L62.131 37.1566L61.6866 37.3919L61.7377 38.2081L61.2198 38.3179L60.7525 39.1134L59.6047 37.5245L58.3044 38.3407L57.823 38.2961L57.8251 39.3868L57.1431 38.6526L56.5394 37.7196L55.7373 38.0358L55.4802 37.4229L54.7919 37.8141L55.2809 38.5244L54.0973 39.5481L54.1909 40.1155L52.6095 40.2133L52.1095 40.4882L51.9634 41.4892L52.3133 42.494L51.8488 42.9743L50.7825 42.6271L50.0908 42.1103L49.4127 42.4467L49.0067 42.1511L48.2823 42.3853L47.7656 43.2852L47.3721 44.9551L46.8081 45.2626L46.0348 44.7111L46.0179 43.847L45.3088 43.2205L44.6627 43.158L44.1617 43.8699L43.7905 43.4699L43.7383 42.5793L43.1597 42.6907L42.7129 42.2771L41.5103 41.6642L40.8611 41.8734L40.473 42.4831L39.5732 41.643L39.2775 40.6404L37.8022 40.1421L37.1746 40.4795L36.5316 40.4464L35.1671 39.6307L35.0927 39.0096L34.5351 38.6667L33.9809 39.0444L33.2995 38.5184L31.2139 37.8228L30.364 38.0641L29.8765 37.75L28.8544 37.7973L28.0138 38.4771L27.4372 38.658L26.6666 38.2635L25.2701 38.927L24.9011 38.0342L24.1469 37.6728L24.0822 37.331L23.1492 37.474L22.8638 37.2316L22.0504 37.4104L21.8048 37.0501L20.9702 37.925L20.4 36.8224L19.7534 37.2061L18.9601 38.0119L18.4801 38.0989L17.9944 37.7261L17.2956 37.8685L16.9097 37.4816L16.9445 35.7258L16.2495 35.7318L15.8256 34.8613L15.2719 35.1128L14.89 34.6428L14.4155 33.5147L13.9177 33.0435L13.058 31.5552L12.7365 30.4107L12.7527 29.688L12.356 28.4952L12.268 27.3372L11.555 26.8639L11.1904 25.8662L10.6725 25.2821L9.31843 24.6044L7.9289 23.7659L7.311 22.928L7.14301 22.2852L5.44005 21.1201L5.03243 20.1246L3.63543 19.2519L3.35385 18.8041L2.77143 18.6574L2.85617 17.2184L2.56265 16.8424L1.40363 16.7804L1.06665 17.5401L0 17.0755Z" fill="#F2F2F2" stroke="#07122B" mask="url(#path-1-inside-1_81_112)"/>
</svg>
