<svg width="52" height="42" viewBox="0 0 52 42" fill="none" xmlns="http://www.w3.org/2000/svg">
<mask id="path-1-inside-1_81_106" fill="white">
<path d="M16.35 2.64474L17.8488 2.21924L17.6949 1.77692L18.935 1.40632L18.5861 0.705876L19.1833 0.556957L19.6757 1.08298L20.6261 0.335816L22.165 0L22.4411 1.06615L23.4219 1.1596L23.7627 1.99918L24.3376 1.5188L24.9935 1.67369L25.3124 2.34967L24.8059 2.52629L24.3419 3.2463L25.7042 3.37673L26.7236 2.72193L27.6888 3.24357L27.5274 3.79621L28.0903 4.27879L28.9669 4.00164L29.2662 4.60047L29.8564 5.06128L30.7329 5.36833L31.5649 6.0878L31.9186 6.74094L31.9078 7.50171L33.6673 7.68429L33.7836 8.62167L34.5492 9.00915L34.8476 9.41835L34.9444 10.4878L35.2084 11.0605L36.0116 11.2974L35.8421 12.413L35.3291 12.5962L35.1008 13.1216L36.3893 13.5852L37.2245 14.4873L36.9946 15.6115L37.2777 16.0707L38.0598 16.4441L37.5538 17.0755L37.4197 18.2699L37.8951 18.6171L38.3684 19.5377L39.1312 20.0697L39.2025 20.5544L39.8002 21.1777L40.9544 22.7302L41.9158 23.3616L42.8504 23.4426L43.8643 24.1354L45.5512 23.7317L45.7761 22.953L46.7255 22.4856L47.6721 23.1079L48.4692 23.1666L48.8633 23.6197L50.319 23.5855L50.7493 24.3544L50.8543 25.4831L51.1569 25.9205L50.5662 26.3096L50.5858 27.5214L50.1304 27.9681L49.1105 27.817L48.8986 28.4512L47.8969 28.4115L47.2449 28.8549L46.6429 28.9131L45.9935 29.4983L45.5708 29.4032L44.5137 30.0423L43.9259 29.1315L43.2421 28.4457L42.0027 28.1469L40.7534 28.2447L39.8773 30.1711L39.352 30.7574L40.0007 31.5432L39.3966 32.4458L40.779 34.3602L41.0637 35.6519L40.837 35.9948L41.2136 37.6342L40.3947 37.3968L40.4224 37.9522L39.3889 39.0254L39.0966 39.0161L38.1472 39.7231L37.5701 39.7584L35.8399 39.7068L35.0253 39.0264L33.8472 39.0873L33.3869 39.2927L32.4778 39.1025L31.5274 40.0367L30.2569 39.7166L29.5478 39.2406L28.1963 38.8015L27.247 38.6716L26.1591 38.2418L24.9202 39.2927L24.9207 40.0323L25.1973 40.629L24.7104 41.6761L23.5464 41.1495L22.986 40.0682L22.5851 40.1279L21.3983 40.9452L20.7327 41.1892L19.8501 40.9702L19.4138 41.1664L19.2329 40.3725L18.6525 39.3508L17.7841 39.0395L17.5118 38.5178L17.382 37.3408L18.1307 37.011L18.4883 36.5632L18.2269 35.7541L17.2808 35.3476L17.3026 36.4578L17.0259 36.8447L16.3342 36.9718L15.8202 36.4583L14.5389 36.1149L12.8016 35.2253L12.3962 34.8917L12.2837 33.7853L11.2002 33.3196L11.161 32.3942L10.6763 31.8828L8.57765 31.4084L8.01198 30.5623L7.48164 30.6846L5.82313 29.8358L5.21717 29.3022L5.64486 28.2387L6.79475 27.8083L6.3931 26.9606L6.41549 26.246L4.30259 25.8428L4.50756 25.4396L5.77371 25.1484L5.65364 24.3539L4.95034 23.7822L4.10375 23.4312L3.82714 23.0481L4.0147 22.1265L3.48486 21.6287L3.58104 20.5251L3.08768 20.5837L1.60031 19.7941L1.70578 18.3443L0.948244 18.0476L0.353726 16.7212L0 15.2453L0.376611 14.5101L1.02801 14.4345L1.05255 13.4303L0.218405 13.1401L0.129351 12.2598L0.636806 12.1033L2.64639 12.4071L2.77624 11.3083L3.32997 10.5828L4.12614 10.4687L3.76959 9.70524L4.57771 9.79492L4.71999 9.2955L5.34337 9.16565L5.79925 8.03914L5.35531 7.08331L4.2195 6.65674L4.54338 5.74108L3.92614 5.37591L4.12829 4.32605L5.05863 4.45213L5.88399 4.30541L6.86921 4.52659L7.38596 4.33202L8.39888 5.34386L8.94779 5.27214L8.87814 4.6646L9.40798 4.00272L10.6882 4.8374L10.8333 4.46842L10.41 3.46964L11.8376 2.96318L12.9499 3.47781L13.5396 3.03656L12.826 2.34209L13.7618 1.95246L14.7382 2.80178L15.5827 2.98818L16.35 2.64474Z"/>
</mask>
<path d="M16.35 2.64474L17.8488 2.21924L17.6949 1.77692L18.935 1.40632L18.5861 0.705876L19.1833 0.556957L19.6757 1.08298L20.6261 0.335816L22.165 0L22.4411 1.06615L23.4219 1.1596L23.7627 1.99918L24.3376 1.5188L24.9935 1.67369L25.3124 2.34967L24.8059 2.52629L24.3419 3.2463L25.7042 3.37673L26.7236 2.72193L27.6888 3.24357L27.5274 3.79621L28.0903 4.27879L28.9669 4.00164L29.2662 4.60047L29.8564 5.06128L30.7329 5.36833L31.5649 6.0878L31.9186 6.74094L31.9078 7.50171L33.6673 7.68429L33.7836 8.62167L34.5492 9.00915L34.8476 9.41835L34.9444 10.4878L35.2084 11.0605L36.0116 11.2974L35.8421 12.413L35.3291 12.5962L35.1008 13.1216L36.3893 13.5852L37.2245 14.4873L36.9946 15.6115L37.2777 16.0707L38.0598 16.4441L37.5538 17.0755L37.4197 18.2699L37.8951 18.6171L38.3684 19.5377L39.1312 20.0697L39.2025 20.5544L39.8002 21.1777L40.9544 22.7302L41.9158 23.3616L42.8504 23.4426L43.8643 24.1354L45.5512 23.7317L45.7761 22.953L46.7255 22.4856L47.6721 23.1079L48.4692 23.1666L48.8633 23.6197L50.319 23.5855L50.7493 24.3544L50.8543 25.4831L51.1569 25.9205L50.5662 26.3096L50.5858 27.5214L50.1304 27.9681L49.1105 27.817L48.8986 28.4512L47.8969 28.4115L47.2449 28.8549L46.6429 28.9131L45.9935 29.4983L45.5708 29.4032L44.5137 30.0423L43.9259 29.1315L43.2421 28.4457L42.0027 28.1469L40.7534 28.2447L39.8773 30.1711L39.352 30.7574L40.0007 31.5432L39.3966 32.4458L40.779 34.3602L41.0637 35.6519L40.837 35.9948L41.2136 37.6342L40.3947 37.3968L40.4224 37.9522L39.3889 39.0254L39.0966 39.0161L38.1472 39.7231L37.5701 39.7584L35.8399 39.7068L35.0253 39.0264L33.8472 39.0873L33.3869 39.2927L32.4778 39.1025L31.5274 40.0367L30.2569 39.7166L29.5478 39.2406L28.1963 38.8015L27.247 38.6716L26.1591 38.2418L24.9202 39.2927L24.9207 40.0323L25.1973 40.629L24.7104 41.6761L23.5464 41.1495L22.986 40.0682L22.5851 40.1279L21.3983 40.9452L20.7327 41.1892L19.8501 40.9702L19.4138 41.1664L19.2329 40.3725L18.6525 39.3508L17.7841 39.0395L17.5118 38.5178L17.382 37.3408L18.1307 37.011L18.4883 36.5632L18.2269 35.7541L17.2808 35.3476L17.3026 36.4578L17.0259 36.8447L16.3342 36.9718L15.8202 36.4583L14.5389 36.1149L12.8016 35.2253L12.3962 34.8917L12.2837 33.7853L11.2002 33.3196L11.161 32.3942L10.6763 31.8828L8.57765 31.4084L8.01198 30.5623L7.48164 30.6846L5.82313 29.8358L5.21717 29.3022L5.64486 28.2387L6.79475 27.8083L6.3931 26.9606L6.41549 26.246L4.30259 25.8428L4.50756 25.4396L5.77371 25.1484L5.65364 24.3539L4.95034 23.7822L4.10375 23.4312L3.82714 23.0481L4.0147 22.1265L3.48486 21.6287L3.58104 20.5251L3.08768 20.5837L1.60031 19.7941L1.70578 18.3443L0.948244 18.0476L0.353726 16.7212L0 15.2453L0.376611 14.5101L1.02801 14.4345L1.05255 13.4303L0.218405 13.1401L0.129351 12.2598L0.636806 12.1033L2.64639 12.4071L2.77624 11.3083L3.32997 10.5828L4.12614 10.4687L3.76959 9.70524L4.57771 9.79492L4.71999 9.2955L5.34337 9.16565L5.79925 8.03914L5.35531 7.08331L4.2195 6.65674L4.54338 5.74108L3.92614 5.37591L4.12829 4.32605L5.05863 4.45213L5.88399 4.30541L6.86921 4.52659L7.38596 4.33202L8.39888 5.34386L8.94779 5.27214L8.87814 4.6646L9.40798 4.00272L10.6882 4.8374L10.8333 4.46842L10.41 3.46964L11.8376 2.96318L12.9499 3.47781L13.5396 3.03656L12.826 2.34209L13.7618 1.95246L14.7382 2.80178L15.5827 2.98818L16.35 2.64474Z" fill="#F2F2F2" stroke="#07122B" mask="url(#path-1-inside-1_81_106)"/>
</svg>
