<svg width="47" height="32" viewBox="0 0 47 32" fill="none" xmlns="http://www.w3.org/2000/svg">
<mask id="path-1-inside-1_81_147" fill="white">
<path d="M11.968 0.785228L12.6434 0.637967L13.3961 0.0809689L14.4812 0L14.5198 1.16777L13.069 1.39766L12.7613 2.00897L13.4759 2.49698L13.6021 3.46421L14.1129 4.03916L14.6122 3.94621L15.46 4.27987L16.1538 5.25585L16.8662 5.86828L17.713 5.84435L18.4042 6.07258L18.9806 5.65688L19.7756 5.715L20.6158 5.07816L20.8246 6.79314L20.0881 7.27787L19.974 8.14133L20.7337 8.46086L22.2738 8.74016L22.8318 9.57485L23.4166 8.89613L24.8402 7.95713L25.4553 7.78321L26.315 7.20395L26.3732 6.46491L27.3007 5.71612L27.8215 6.30732L28.373 6.18834L28.9137 6.89911L28.8289 7.82832L29.5261 8.57441L30.8455 8.03756L31.2362 7.46589L30.8617 6.35786L30.8808 5.60145L30.6373 4.75154L31.5498 4.65702L32.335 4.98089L32.3007 5.95791L32.9744 6.45678L33.6195 5.51343L34.2852 5.10859L35.4943 4.08315L36.7457 3.87287L36.8208 3.42889L37.5722 3.57834L38.1374 4.20814L38.8026 3.26206L40.0763 3.62291L40.335 2.99908L40.967 3.17022L42.1032 2.75995L41.279 3.77942L42.0799 4.63853L41.6289 5.23843L42.8134 5.90302L44.9056 5.84274L45.1333 6.61329L45.0524 7.81418L44.0094 7.61912L43.6531 8.51844L42.9342 9.49169L42.8955 10.3606L43.9454 11.1252L45.0593 10.791L45.6338 11.0252L45.6696 11.9838L46.1016 12.5782L45.3343 12.9217L44.4899 12.7353L43.5134 11.886L42.5776 12.2756L43.2912 12.9701L42.7015 13.4113L41.5892 12.8967L40.1616 13.4032L40.5849 14.4019L40.4398 14.7709L39.1596 13.9362L38.6298 14.5981L38.6994 15.2057L38.1505 15.2774L37.1376 14.2655L36.6208 14.4601L35.6356 14.2389L34.8102 14.3856L33.8799 14.2596L33.6778 15.3094L34.295 15.6746L33.9711 16.5902L35.1069 17.0168L35.5509 17.9726L35.095 19.0992L34.4716 19.229L34.3293 19.7284L33.5212 19.6388L33.8778 20.4023L33.0816 20.5164L32.5279 21.2418L32.398 22.3406L30.3884 22.0368L29.881 22.1933L29.97 23.0736L30.8042 23.3638L30.7796 24.368L30.1282 24.4436L29.2418 24.274L28.8886 25.1761L27.7487 26.0243L27.5236 25.1783L27.1002 25.2614L26.4699 26.2971L25.5043 26.9509L25.0125 26.8481L24.5077 26.1265L23.4605 26.1988L23.0607 25.8928L22.4531 26.9639L22.8421 27.7975L21.7907 27.8834L21.3635 27.4975L20.469 27.9931L21.0065 28.4197L22.4096 28.5268L22.7748 28.7615L22.9366 29.4728L22.2454 29.9803L21.7516 29.9929L19.9876 30.689L19.6556 31.259L17.7613 31.9008L17.5949 30.8819L16.4278 30.8199L16.0719 30.2482L15.5392 30.0852L15.3762 29.4875L14.2888 29.9401L13.8456 30.5928L13.0217 29.8652L12.5761 29.8842L11.7686 30.5477L10.9355 30.2591L9.27647 30.6259L8.87333 31.1818L7.89457 31.1258L7.43985 30.8569L6.51118 31.278L5.82959 31.1677L6.25844 29.8412L6.80354 28.8506L5.72976 28.449L6.12362 27.4187L5.3097 26.6531L5.33242 25.8363L5.76774 25.5635L5.47968 24.881L4.97538 24.7006L4.58417 24.142L3.80541 24.6218L2.57409 23.6947L1.69599 24.1181L0.958526 23.9697L0.793354 23.0405L1.62866 22.5715L2.05188 21.5032L2.42202 21.438L3.24141 20.4261L3.10443 19.5268L4.16146 18.127L2.91107 17.4412L1.39981 18.4117L0.770469 18.5568L0.452729 16.8478L0.0890534 16.9087L0 16.2544L0.634153 14.7372L1.19335 14.4563L2.10129 14.3862L2.12086 13.5483L1.79914 12.8402L2.94689 12.8701L3.44688 13.2211L4.7792 13.7607L5.68399 12.9065L5.35149 12.0072L4.20159 11.2795L4.51784 10.3112L5.48466 10.4813L6.09211 10.1693L6.99591 8.42118L6.64484 7.90659L7.77351 6.17258L6.78397 5.38354L6.51648 4.71842L5.71998 5.00042L4.8515 4.07991L5.74601 2.45349L5.4427 1.41014L5.84004 0.647751L6.65346 0.493939L7.643 1.8753L8.43851 1.6411L8.94945 1.81224L9.47912 1.27593L10.1818 1.54815L11.4138 1.61772L11.968 0.785228Z"/>
</mask>
<path d="M11.968 0.785228L12.6434 0.637967L13.3961 0.0809689L14.4812 0L14.5198 1.16777L13.069 1.39766L12.7613 2.00897L13.4759 2.49698L13.6021 3.46421L14.1129 4.03916L14.6122 3.94621L15.46 4.27987L16.1538 5.25585L16.8662 5.86828L17.713 5.84435L18.4042 6.07258L18.9806 5.65688L19.7756 5.715L20.6158 5.07816L20.8246 6.79314L20.0881 7.27787L19.974 8.14133L20.7337 8.46086L22.2738 8.74016L22.8318 9.57485L23.4166 8.89613L24.8402 7.95713L25.4553 7.78321L26.315 7.20395L26.3732 6.46491L27.3007 5.71612L27.8215 6.30732L28.373 6.18834L28.9137 6.89911L28.8289 7.82832L29.5261 8.57441L30.8455 8.03756L31.2362 7.46589L30.8617 6.35786L30.8808 5.60145L30.6373 4.75154L31.5498 4.65702L32.335 4.98089L32.3007 5.95791L32.9744 6.45678L33.6195 5.51343L34.2852 5.10859L35.4943 4.08315L36.7457 3.87287L36.8208 3.42889L37.5722 3.57834L38.1374 4.20814L38.8026 3.26206L40.0763 3.62291L40.335 2.99908L40.967 3.17022L42.1032 2.75995L41.279 3.77942L42.0799 4.63853L41.6289 5.23843L42.8134 5.90302L44.9056 5.84274L45.1333 6.61329L45.0524 7.81418L44.0094 7.61912L43.6531 8.51844L42.9342 9.49169L42.8955 10.3606L43.9454 11.1252L45.0593 10.791L45.6338 11.0252L45.6696 11.9838L46.1016 12.5782L45.3343 12.9217L44.4899 12.7353L43.5134 11.886L42.5776 12.2756L43.2912 12.9701L42.7015 13.4113L41.5892 12.8967L40.1616 13.4032L40.5849 14.4019L40.4398 14.7709L39.1596 13.9362L38.6298 14.5981L38.6994 15.2057L38.1505 15.2774L37.1376 14.2655L36.6208 14.4601L35.6356 14.2389L34.8102 14.3856L33.8799 14.2596L33.6778 15.3094L34.295 15.6746L33.9711 16.5902L35.1069 17.0168L35.5509 17.9726L35.095 19.0992L34.4716 19.229L34.3293 19.7284L33.5212 19.6388L33.8778 20.4023L33.0816 20.5164L32.5279 21.2418L32.398 22.3406L30.3884 22.0368L29.881 22.1933L29.97 23.0736L30.8042 23.3638L30.7796 24.368L30.1282 24.4436L29.2418 24.274L28.8886 25.1761L27.7487 26.0243L27.5236 25.1783L27.1002 25.2614L26.4699 26.2971L25.5043 26.9509L25.0125 26.8481L24.5077 26.1265L23.4605 26.1988L23.0607 25.8928L22.4531 26.9639L22.8421 27.7975L21.7907 27.8834L21.3635 27.4975L20.469 27.9931L21.0065 28.4197L22.4096 28.5268L22.7748 28.7615L22.9366 29.4728L22.2454 29.9803L21.7516 29.9929L19.9876 30.689L19.6556 31.259L17.7613 31.9008L17.5949 30.8819L16.4278 30.8199L16.0719 30.2482L15.5392 30.0852L15.3762 29.4875L14.2888 29.9401L13.8456 30.5928L13.0217 29.8652L12.5761 29.8842L11.7686 30.5477L10.9355 30.2591L9.27647 30.6259L8.87333 31.1818L7.89457 31.1258L7.43985 30.8569L6.51118 31.278L5.82959 31.1677L6.25844 29.8412L6.80354 28.8506L5.72976 28.449L6.12362 27.4187L5.3097 26.6531L5.33242 25.8363L5.76774 25.5635L5.47968 24.881L4.97538 24.7006L4.58417 24.142L3.80541 24.6218L2.57409 23.6947L1.69599 24.1181L0.958526 23.9697L0.793354 23.0405L1.62866 22.5715L2.05188 21.5032L2.42202 21.438L3.24141 20.4261L3.10443 19.5268L4.16146 18.127L2.91107 17.4412L1.39981 18.4117L0.770469 18.5568L0.452729 16.8478L0.0890534 16.9087L0 16.2544L0.634153 14.7372L1.19335 14.4563L2.10129 14.3862L2.12086 13.5483L1.79914 12.8402L2.94689 12.8701L3.44688 13.2211L4.7792 13.7607L5.68399 12.9065L5.35149 12.0072L4.20159 11.2795L4.51784 10.3112L5.48466 10.4813L6.09211 10.1693L6.99591 8.42118L6.64484 7.90659L7.77351 6.17258L6.78397 5.38354L6.51648 4.71842L5.71998 5.00042L4.8515 4.07991L5.74601 2.45349L5.4427 1.41014L5.84004 0.647751L6.65346 0.493939L7.643 1.8753L8.43851 1.6411L8.94945 1.81224L9.47912 1.27593L10.1818 1.54815L11.4138 1.61772L11.968 0.785228Z" fill="#F2F2F2" stroke="#07122B" mask="url(#path-1-inside-1_81_147)"/>
</svg>
