<svg width="47" height="42" viewBox="0 0 47 42" fill="none" xmlns="http://www.w3.org/2000/svg">
<mask id="path-1-inside-1_81_141" fill="white">
<path d="M3.58054 4.18696L3.76744 3.87233L4.60922 2.58935L6.44318 3.02242L7.33554 4.24077L8.41198 4.20761L9.09787 3.68216L9.09936 2.68988L9.95374 2.60402L10.3917 2.87682L10.4726 4.02286L11.1018 4.43476L12.0273 4.63583L12.235 5.65037L12.893 6.05032L13.482 7.05126L14.1422 6.50405L13.9504 5.73242L15.3845 5.14337L15.9132 4.51519L16.612 3.12462L17.3853 3.54522L17.8939 3.5213L19.4954 2.04321L19.566 1.54819L20.5197 0.364091L21.6353 0.196722L22.17 0.470059L22.3428 1.22647L23.5318 2.14105L24.3414 2.45568L24.6789 2.99038L25.8825 3.62561L26.5744 3.28436L26.815 3.65985L27.6709 2.49913L27.9399 0.752103L28.3594 0.857491L30.1631 0.408659L30.4461 0.775444L32.0149 0L32.6904 0.786306L33.2778 1.13738L34.2663 0.30269L35.6726 0.101076L36.0389 0.818934L36.2003 1.96987L36.6726 2.13558L37.0333 3.06484L37.8099 2.52144L38.4777 2.69424L38.9304 3.42673L40.1221 3.54248L40.9367 4.31577L41.2317 5.74763L40.8747 6.00194L40.6801 6.76544L41.2849 7.46046L42.2478 9.16188L42.6299 8.97602L43.3803 9.44119L43.6482 9.87045L45.1519 10.2166L45.561 9.9884L46.287 10.6084L45.7811 11.467L46.1348 11.936L45.3796 12.9304L45.0676 13.9547L45.7121 14.2134L45.2572 15.4768L46.3028 15.9143L46.3402 16.4701L47.0054 16.6038L46.6849 17.9542L45.8784 18.496L45.6381 19.1405L44.7373 19.3948L44.0781 20.1256L43.2342 19.7545L41.7458 20.2773L40.8572 19.4643L40.3345 19.6208L39.7307 20.3484L39.5939 21.3282L38.9636 22.4112L39.1836 22.8204L38.982 23.4513L37.7366 23.7105L37.3528 24.0621L36.9774 25.0522L35.8122 25.5625L35.5678 25.9434L34.2641 26.7835L34.451 27.5937L35.5547 27.5703L36.1709 27.2041L37.185 27.5356L37.6827 26.8226L38.2875 27.422L38.118 28.1969L37.1464 28.8158L37.0963 29.8065L37.3583 30.5096L37.7832 30.8248L36.3513 31.4986L36.3079 32.0529L35.616 32.6077L35.1857 32.442L34.8694 31.7241L33.4121 31.3807L32.4692 31.8665L32.0133 32.5235L30.8748 33.2701L29.801 32.9626L28.1649 33.4397L27.5813 33.3652L26.2973 33.9766L25.8968 35.453L26.2276 35.728L25.9283 36.4121L24.6567 36.223L24.1812 35.4644L23.328 35.396L22.8683 34.8265L22.3217 34.7906L21.532 35.184L20.3431 35.0389L19.41 35.4416L18.5161 36.5936L18.1808 38.0989L18.5199 39.4949L17.1696 39.2705L17.0669 38.9488L17.576 38.1728L17.3092 36.9735L16.8767 36.6926L15.5236 36.486L14.5601 36.9186L13.3467 36.8148L13.5875 36.2502L12.9083 35.6622L11.0698 35.4454L10.3323 35.5172L9.85424 34.6912L9.08809 35.1449L8.44349 35.0466L8.36206 35.7394L9.33369 35.8247L8.7924 36.78L9.60698 36.5838L10.3922 36.6474L10.8629 37.0382L9.39985 37.5826L8.9196 36.9925L8.51098 37.0126L7.71265 37.8777L7.40287 38.4896L6.41018 38.4266L5.44386 37.0457L5.79394 35.4584L4.97936 35.2519L4.43642 34.7971L4.58799 34.4042L4.08004 33.8902L3.48718 34.1537L2.51223 34.0391L2.34922 33.4897L1.4494 33.6706L0.994512 32.7958L1.41888 32.2143L0.584734 31.854L1.00761 28.9903L1.65636 28.4278L2.89863 27.6991L3.86429 27.4111L3.69032 26.5683L2.90128 25.5603L2.59764 24.8794L1.39169 25.0576L0.997829 24.8158L1.26615 24.1724L1.11458 23.7197L1.80097 22.9302L1.42004 22.5085L1.25802 21.2657L0.981411 20.7326L1.48853 20.3256L2.5182 20.236L3.45882 20.6104L4.79993 19.9811L3.48651 18.941L2.64324 17.2918L1.57493 16.3626L1.70097 15.8066L2.21058 15.3937L2.27741 13.6694L2.5051 13.1081L1.48356 12.4593L0.393029 12.2702L0 11.6512L1.3217 11.3116L0.859688 9.79276L1.67858 8.53532L3.2502 7.6311L5.08151 7.42949L5.80157 5.98237L5.051 5.79979L4.62447 5.08359L4.46245 4.24836L3.58054 4.18696ZM18.5624 40.8268L19.4644 40.4763L20.073 40.8871L20.7518 40.3084L21.8483 40.0823L21.8859 40.9637L20.6637 41.3381L20.3159 41.7794L19.2052 41.0567L18.5624 40.8268ZM28.611 40.3866L28.6611 39.9063L29.3826 39.6069L29.949 38.6167L30.7065 38.7521L30.1005 39.9068L29.2855 40.0307L28.611 40.3866ZM26.2732 40.8023L26.9661 40.2915L27.7943 39.9964L28.0666 40.5594L27.6579 41.136L26.3205 41.0132L26.2732 40.8023Z"/>
</mask>
<path d="M3.58054 4.18696L3.76744 3.87233L4.60922 2.58935L6.44318 3.02242L7.33554 4.24077L8.41198 4.20761L9.09787 3.68216L9.09936 2.68988L9.95374 2.60402L10.3917 2.87682L10.4726 4.02286L11.1018 4.43476L12.0273 4.63583L12.235 5.65037L12.893 6.05032L13.482 7.05126L14.1422 6.50405L13.9504 5.73242L15.3845 5.14337L15.9132 4.51519L16.612 3.12462L17.3853 3.54522L17.8939 3.5213L19.4954 2.04321L19.566 1.54819L20.5197 0.364091L21.6353 0.196722L22.17 0.470059L22.3428 1.22647L23.5318 2.14105L24.3414 2.45568L24.6789 2.99038L25.8825 3.62561L26.5744 3.28436L26.815 3.65985L27.6709 2.49913L27.9399 0.752103L28.3594 0.857491L30.1631 0.408659L30.4461 0.775444L32.0149 0L32.6904 0.786306L33.2778 1.13738L34.2663 0.30269L35.6726 0.101076L36.0389 0.818934L36.2003 1.96987L36.6726 2.13558L37.0333 3.06484L37.8099 2.52144L38.4777 2.69424L38.9304 3.42673L40.1221 3.54248L40.9367 4.31577L41.2317 5.74763L40.8747 6.00194L40.6801 6.76544L41.2849 7.46046L42.2478 9.16188L42.6299 8.97602L43.3803 9.44119L43.6482 9.87045L45.1519 10.2166L45.561 9.9884L46.287 10.6084L45.7811 11.467L46.1348 11.936L45.3796 12.9304L45.0676 13.9547L45.7121 14.2134L45.2572 15.4768L46.3028 15.9143L46.3402 16.4701L47.0054 16.6038L46.6849 17.9542L45.8784 18.496L45.6381 19.1405L44.7373 19.3948L44.0781 20.1256L43.2342 19.7545L41.7458 20.2773L40.8572 19.4643L40.3345 19.6208L39.7307 20.3484L39.5939 21.3282L38.9636 22.4112L39.1836 22.8204L38.982 23.4513L37.7366 23.7105L37.3528 24.0621L36.9774 25.0522L35.8122 25.5625L35.5678 25.9434L34.2641 26.7835L34.451 27.5937L35.5547 27.5703L36.1709 27.2041L37.185 27.5356L37.6827 26.8226L38.2875 27.422L38.118 28.1969L37.1464 28.8158L37.0963 29.8065L37.3583 30.5096L37.7832 30.8248L36.3513 31.4986L36.3079 32.0529L35.616 32.6077L35.1857 32.442L34.8694 31.7241L33.4121 31.3807L32.4692 31.8665L32.0133 32.5235L30.8748 33.2701L29.801 32.9626L28.1649 33.4397L27.5813 33.3652L26.2973 33.9766L25.8968 35.453L26.2276 35.728L25.9283 36.4121L24.6567 36.223L24.1812 35.4644L23.328 35.396L22.8683 34.8265L22.3217 34.7906L21.532 35.184L20.3431 35.0389L19.41 35.4416L18.5161 36.5936L18.1808 38.0989L18.5199 39.4949L17.1696 39.2705L17.0669 38.9488L17.576 38.1728L17.3092 36.9735L16.8767 36.6926L15.5236 36.486L14.5601 36.9186L13.3467 36.8148L13.5875 36.2502L12.9083 35.6622L11.0698 35.4454L10.3323 35.5172L9.85424 34.6912L9.08809 35.1449L8.44349 35.0466L8.36206 35.7394L9.33369 35.8247L8.7924 36.78L9.60698 36.5838L10.3922 36.6474L10.8629 37.0382L9.39985 37.5826L8.9196 36.9925L8.51098 37.0126L7.71265 37.8777L7.40287 38.4896L6.41018 38.4266L5.44386 37.0457L5.79394 35.4584L4.97936 35.2519L4.43642 34.7971L4.58799 34.4042L4.08004 33.8902L3.48718 34.1537L2.51223 34.0391L2.34922 33.4897L1.4494 33.6706L0.994512 32.7958L1.41888 32.2143L0.584734 31.854L1.00761 28.9903L1.65636 28.4278L2.89863 27.6991L3.86429 27.4111L3.69032 26.5683L2.90128 25.5603L2.59764 24.8794L1.39169 25.0576L0.997829 24.8158L1.26615 24.1724L1.11458 23.7197L1.80097 22.9302L1.42004 22.5085L1.25802 21.2657L0.981411 20.7326L1.48853 20.3256L2.5182 20.236L3.45882 20.6104L4.79993 19.9811L3.48651 18.941L2.64324 17.2918L1.57493 16.3626L1.70097 15.8066L2.21058 15.3937L2.27741 13.6694L2.5051 13.1081L1.48356 12.4593L0.393029 12.2702L0 11.6512L1.3217 11.3116L0.859688 9.79276L1.67858 8.53532L3.2502 7.6311L5.08151 7.42949L5.80157 5.98237L5.051 5.79979L4.62447 5.08359L4.46245 4.24836L3.58054 4.18696ZM18.5624 40.8268L19.4644 40.4763L20.073 40.8871L20.7518 40.3084L21.8483 40.0823L21.8859 40.9637L20.6637 41.3381L20.3159 41.7794L19.2052 41.0567L18.5624 40.8268ZM28.611 40.3866L28.6611 39.9063L29.3826 39.6069L29.949 38.6167L30.7065 38.7521L30.1005 39.9068L29.2855 40.0307L28.611 40.3866ZM26.2732 40.8023L26.9661 40.2915L27.7943 39.9964L28.0666 40.5594L27.6579 41.136L26.3205 41.0132L26.2732 40.8023Z" fill="#F2F2F2" stroke="#07122B" mask="url(#path-1-inside-1_81_141)"/>
</svg>
