<svg width="41" height="40" viewBox="0 0 41 40" fill="none" xmlns="http://www.w3.org/2000/svg">
<mask id="path-1-inside-1_81_181" fill="white">
<path d="M0 8.31961L0.14295 6.61491L0.0467654 5.28358L1.08688 5.72698L2.34374 5.72375L2.36879 5.46617L4.15931 5.47649L4.78964 5.83838L5.53839 6.60624L5.72976 7.13824L5.69444 8.36795L6.0145 8.95919L6.07105 10.2797L6.53174 10.472L7.07518 9.89603L7.97882 9.38414L8.27831 8.85538L9.09455 8.62118L10.0542 8.85704L12.4474 7.511L13.0928 7.45992L13.7248 7.0013L15.1795 6.3742L15.7387 7.61045L16.7588 7.81095L18.1656 6.96055L18.5612 6.23237L19.3286 6.3856L19.1155 7.30669L18.3851 7.81261L18.8422 8.49295L18.8846 9.57539L18.4286 10.0889L19.4045 10.8823L20.5257 11.2013L21.7017 11.2404L21.7831 10.3422L22.2569 10.3199L24.1001 11.4186L25.2326 11.7452L26.0011 11.179L27.0959 11.8626L27.1694 13.0869L27.0644 14.1123L27.3754 14.371L28.3138 14.2351L29.0473 14.5264L29.5289 15.9615L31.3259 16.2512L31.2872 18.4813L31.4493 18.903L32.6892 18.6677L32.9229 19.0247L32.956 20.8641L32.0013 22.6237L31.629 24.3795L31.8171 24.9946L32.3226 24.8832L33.004 25.3234L33.5424 25.1266L34.3711 26.0499L34.3565 26.5542L35.3373 26.527L33.9842 29.2653L33.1565 29.8206L33.1604 31.5606L34.1766 30.8944L35.564 31.0123L35.9122 30.839L37.0469 31.146L37.16 31.5215L37.9963 32.5061L38.1875 33.0729L39.1933 33.3902L39.3166 34.6716L40.5188 35.4476L40.8718 35.9687L40.6849 36.2834L40.0389 36.6654L39.3346 37.8908L38.939 38.0331L37.7609 37.8517L36.7941 38.7575L35.295 39.634L34.0983 39.4547L32.5415 39.6063L30.9123 39.1868L28.5377 38.2032L28.142 37.8745L25.4157 36.4974L24.5946 35.6851L23.0074 35.371L22.0434 35.0439L21.3783 35.0971L19.8322 35.7372L19.3345 35.565L14.797 33.0218L14.5052 32.6555L14.4379 31.8546L14.0281 31.0357L12.8174 30.1298L12.0317 29.0283L10.0373 27.9372L9.33137 27.91L8.68975 27.2965L7.50718 26.7319L6.38017 26.6574L3.3225 26.0559L3.68867 25.6831L4.75001 25.3919L5.31899 24.524L6.10637 24.0132L6.03026 22.8074L7.04583 22.9161L7.22626 22.3613L7.08828 21.563L6.247 21.2663L6.15894 20.5984L5.11568 19.5078L5.07986 18.8476L4.26362 18.4503L3.86047 17.6575L2.98503 18.1248L2.09814 16.7538L2.29267 15.2768L2.60411 14.609L2.50029 13.4374L2.68122 12.5663L2.07476 12.2897L2.13131 11.2252L1.05372 11.3018V10.3715L0.829838 9.83571L0.172302 9.13634L0 8.31961ZM8.11032 4.4603L9.54662 2.84365L9.59007 1.79707L9.9156 1.2254L11.4257 0.605919L11.9278 0L13.4152 1.35201L13.4928 1.98562L14.2298 2.10407L14.6389 2.58445L15.148 2.43719L15.5497 2.78769L14.9368 3.44087L13.9281 3.5349L13.783 4.40379L13.2424 5.04068L13.2549 5.54005L12.6467 6.06769L12.1844 6.91378L11.1068 6.72034L10.0411 6.32366L8.91794 6.56006L8.55658 5.50472L9.07664 4.82546L8.11032 4.4603Z"/>
</mask>
<path d="M0 8.31961L0.14295 6.61491L0.0467654 5.28358L1.08688 5.72698L2.34374 5.72375L2.36879 5.46617L4.15931 5.47649L4.78964 5.83838L5.53839 6.60624L5.72976 7.13824L5.69444 8.36795L6.0145 8.95919L6.07105 10.2797L6.53174 10.472L7.07518 9.89603L7.97882 9.38414L8.27831 8.85538L9.09455 8.62118L10.0542 8.85704L12.4474 7.511L13.0928 7.45992L13.7248 7.0013L15.1795 6.3742L15.7387 7.61045L16.7588 7.81095L18.1656 6.96055L18.5612 6.23237L19.3286 6.3856L19.1155 7.30669L18.3851 7.81261L18.8422 8.49295L18.8846 9.57539L18.4286 10.0889L19.4045 10.8823L20.5257 11.2013L21.7017 11.2404L21.7831 10.3422L22.2569 10.3199L24.1001 11.4186L25.2326 11.7452L26.0011 11.179L27.0959 11.8626L27.1694 13.0869L27.0644 14.1123L27.3754 14.371L28.3138 14.2351L29.0473 14.5264L29.5289 15.9615L31.3259 16.2512L31.2872 18.4813L31.4493 18.903L32.6892 18.6677L32.9229 19.0247L32.956 20.8641L32.0013 22.6237L31.629 24.3795L31.8171 24.9946L32.3226 24.8832L33.004 25.3234L33.5424 25.1266L34.3711 26.0499L34.3565 26.5542L35.3373 26.527L33.9842 29.2653L33.1565 29.8206L33.1604 31.5606L34.1766 30.8944L35.564 31.0123L35.9122 30.839L37.0469 31.146L37.16 31.5215L37.9963 32.5061L38.1875 33.0729L39.1933 33.3902L39.3166 34.6716L40.5188 35.4476L40.8718 35.9687L40.6849 36.2834L40.0389 36.6654L39.3346 37.8908L38.939 38.0331L37.7609 37.8517L36.7941 38.7575L35.295 39.634L34.0983 39.4547L32.5415 39.6063L30.9123 39.1868L28.5377 38.2032L28.142 37.8745L25.4157 36.4974L24.5946 35.6851L23.0074 35.371L22.0434 35.0439L21.3783 35.0971L19.8322 35.7372L19.3345 35.565L14.797 33.0218L14.5052 32.6555L14.4379 31.8546L14.0281 31.0357L12.8174 30.1298L12.0317 29.0283L10.0373 27.9372L9.33137 27.91L8.68975 27.2965L7.50718 26.7319L6.38017 26.6574L3.3225 26.0559L3.68867 25.6831L4.75001 25.3919L5.31899 24.524L6.10637 24.0132L6.03026 22.8074L7.04583 22.9161L7.22626 22.3613L7.08828 21.563L6.247 21.2663L6.15894 20.5984L5.11568 19.5078L5.07986 18.8476L4.26362 18.4503L3.86047 17.6575L2.98503 18.1248L2.09814 16.7538L2.29267 15.2768L2.60411 14.609L2.50029 13.4374L2.68122 12.5663L2.07476 12.2897L2.13131 11.2252L1.05372 11.3018V10.3715L0.829838 9.83571L0.172302 9.13634L0 8.31961ZM8.11032 4.4603L9.54662 2.84365L9.59007 1.79707L9.9156 1.2254L11.4257 0.605919L11.9278 0L13.4152 1.35201L13.4928 1.98562L14.2298 2.10407L14.6389 2.58445L15.148 2.43719L15.5497 2.78769L14.9368 3.44087L13.9281 3.5349L13.783 4.40379L13.2424 5.04068L13.2549 5.54005L12.6467 6.06769L12.1844 6.91378L11.1068 6.72034L10.0411 6.32366L8.91794 6.56006L8.55658 5.50472L9.07664 4.82546L8.11032 4.4603Z" fill="#F2F2F2" stroke="#07122B" mask="url(#path-1-inside-1_81_181)"/>
</svg>
