<svg width="69" height="44" viewBox="0 0 69 44" fill="none" xmlns="http://www.w3.org/2000/svg">
<mask id="path-1-inside-1_81_120" fill="white">
<path d="M15.318 2.97516L15.8794 3.07514L16.6402 4.60538L17.7438 5.25313L17.8797 6.08455L18.7519 6.85238L19.6811 7.17787L21.0576 7.11538L20.9532 8.24784L22.7758 8.62062L23.9457 8.3451L24.493 9.44442L24.425 10.2106L24.9598 10.8616L26.215 10.4856L27.1002 11.3404L28.311 11.1415L29.1337 11.5197L31.0176 12.0017L31.7192 11.2757L32.1692 11.4414L33.1076 11.0035L32.6381 9.9411L31.9871 9.51235L32.0746 8.76355L32.4398 7.80931L31.53 6.86542L31.6073 6.4948L31.1274 5.73457L31.597 4.39997L31.1274 3.78375L31.8426 3.27893L32.5572 3.14199L33.0945 2.42413L33.7647 2.43338L34.0585 2.96863L34.332 4.50159L34.132 5.2341L34.1895 6.28071L34.7036 7.16591L34.2081 8.19623L34.7769 8.55596L36.3578 7.53869L37.1479 7.44468L38.1553 6.89857L37.9983 6.50025L38.3641 5.59384L37.9765 4.801L38.0667 3.51585L37.6407 2.88387L38.3205 2.44424L39.2019 2.30459L39.7801 2.70618L40.5029 2.73497L40.8496 1.02921L41.712 0L42.4793 0.948783L42.7249 0.85859L43.5118 1.66772L44.5653 2.46599L46.1238 2.98548L46.3152 3.24522L47.5129 3.73104L50.9851 4.38911L51.5004 3.49138L52.2589 4.00981L53.3653 4.42823L54.5114 4.39344L55.126 4.85807L55.5748 5.87425L56.2041 7.07027L56.9626 7.4186L58.1701 8.98471L58.3364 9.76069L57.8137 10.7274L58.3457 11.0094L59.4503 12.4636L59.62 13.0434L60.21 13.5292L60.953 13.6966L61.4306 14.2009L62.3244 14.221L62.6979 14.8829L62.1762 15.0975L61.6534 16.3153L61.6876 17.2668L62.0783 17.9558L62.881 18.3949L62.7826 18.9921L63.4619 19.3741L64.2118 20.7729L63.3542 21.4516L64.177 21.9732L64.8085 22.6851L64.528 23.6964L65.8154 24.9609L65.4142 25.8303L65.919 26.7574L65.4469 27.4492L65.5947 28.0127L66.1071 28.0621L66.2577 29.2359L66.0001 30.0852L65.5441 29.8505L64.9469 30.3015L64.6698 31.0069L65.4257 31.6111L65.7496 33.5261L66.0484 33.8967L65.6605 34.7482L64.992 35.1052L64.8877 36.2594L65.572 37.3278L65.9763 36.0937L67.3613 36.7855L67.5923 37.2001L68.1656 37.1832L68.6177 37.5777L67.7434 38.9944L67.189 39.2128L66.231 38.8879L66.155 39.6449L65.6577 40.0872L64.9741 40.1953L64.9844 40.8773L64.5655 41.2664L63.6829 41.2995L62.7602 40.8317L61.3773 41.9016L60.804 41.937L59.1978 40.8333L58.6163 40.1089L57.7175 39.9193L57.1724 40.4741L57.0301 41.2414L55.7406 40.7453L55.4797 41.2637L54.588 41.4745L53.7566 41.3332L52.9589 40.9566L53.7158 40.1453L54.0272 38.5776L53.4023 38.9531L52.8937 38.6814L52.5377 39.4319L51.7868 39.4775L51.1047 39.2036L49.6679 39.8965L48.8991 40.729L48.8366 41.2169L47.046 41.3637L46.7465 41.9092L45.8892 41.5289L45.0491 41.5848L43.9927 42.751L43.7128 43.677L43.1091 43.3563L42.3292 42.5679L41.8234 43.071L41.106 42.9211L40.4408 42.4673L39.4921 40.7404L38.0483 39.571L37.4772 39.8997L36.7132 39.9644L35.8062 39.6498L35.4655 40.0334L34.2733 39.8253L33.9618 38.6298L33.3136 37.3365L32.5897 36.611L31.6508 36.3235L31.3997 36.542L30.0504 36.411L28.4593 36.0872L27.4774 35.6948L27.2833 35.008L25.4212 34.126L25.2722 33.6891L23.6751 32.8256L23.1812 32.0578L22.6862 31.7774L22.1106 32.1225L21.5993 31.7883L21.0597 29.0821L20.3246 26.9383L19.9843 25.563L19.4153 25.0593L18.108 23.3198L17.9689 22.8378L16.6739 21.0402L15.9848 21.1592L15.4963 20.4973L15.4571 19.7567L13.9079 18.0319L12.225 16.4843L10.2693 15.1268L9.42108 14.1943L9.2254 11.6099L8.95044 10.7502L10.0677 10.3894L10.8149 8.91298L12.594 7.24363L13.1048 6.28342L12.9797 5.77371L13.6699 4.1625L14.8399 3.57996L15.318 2.97516ZM0 19.3752L0.672626 18.9508L1.9275 19.1915L2.27244 19.7263L3.01322 19.7692L4.21237 21.0022L3.25119 20.9619L2.48222 21.4918L2.10461 21.0848L1.27212 21.0114L1.12038 20.6446L0.272135 20.1724L0 19.3752ZM3.39895 3.2474L4.52879 3.01048L5.48134 3.09089L5.92197 3.62996L6.66209 3.9647L6.70554 4.96348L5.99593 5.62102L8.96238 7.27514L9.31561 8.1473L9.26337 9.18686L8.62756 9.76558L8.26737 8.4951L7.80701 7.65933L6.52793 6.47633L5.05697 6.7676L4.24836 5.53895L3.61686 5.16509L3.93642 3.90384L3.39895 3.2474Z"/>
</mask>
<path d="M15.318 2.97516L15.8794 3.07514L16.6402 4.60538L17.7438 5.25313L17.8797 6.08455L18.7519 6.85238L19.6811 7.17787L21.0576 7.11538L20.9532 8.24784L22.7758 8.62062L23.9457 8.3451L24.493 9.44442L24.425 10.2106L24.9598 10.8616L26.215 10.4856L27.1002 11.3404L28.311 11.1415L29.1337 11.5197L31.0176 12.0017L31.7192 11.2757L32.1692 11.4414L33.1076 11.0035L32.6381 9.9411L31.9871 9.51235L32.0746 8.76355L32.4398 7.80931L31.53 6.86542L31.6073 6.4948L31.1274 5.73457L31.597 4.39997L31.1274 3.78375L31.8426 3.27893L32.5572 3.14199L33.0945 2.42413L33.7647 2.43338L34.0585 2.96863L34.332 4.50159L34.132 5.2341L34.1895 6.28071L34.7036 7.16591L34.2081 8.19623L34.7769 8.55596L36.3578 7.53869L37.1479 7.44468L38.1553 6.89857L37.9983 6.50025L38.3641 5.59384L37.9765 4.801L38.0667 3.51585L37.6407 2.88387L38.3205 2.44424L39.2019 2.30459L39.7801 2.70618L40.5029 2.73497L40.8496 1.02921L41.712 0L42.4793 0.948783L42.7249 0.85859L43.5118 1.66772L44.5653 2.46599L46.1238 2.98548L46.3152 3.24522L47.5129 3.73104L50.9851 4.38911L51.5004 3.49138L52.2589 4.00981L53.3653 4.42823L54.5114 4.39344L55.126 4.85807L55.5748 5.87425L56.2041 7.07027L56.9626 7.4186L58.1701 8.98471L58.3364 9.76069L57.8137 10.7274L58.3457 11.0094L59.4503 12.4636L59.62 13.0434L60.21 13.5292L60.953 13.6966L61.4306 14.2009L62.3244 14.221L62.6979 14.8829L62.1762 15.0975L61.6534 16.3153L61.6876 17.2668L62.0783 17.9558L62.881 18.3949L62.7826 18.9921L63.4619 19.3741L64.2118 20.7729L63.3542 21.4516L64.177 21.9732L64.8085 22.6851L64.528 23.6964L65.8154 24.9609L65.4142 25.8303L65.919 26.7574L65.4469 27.4492L65.5947 28.0127L66.1071 28.0621L66.2577 29.2359L66.0001 30.0852L65.5441 29.8505L64.9469 30.3015L64.6698 31.0069L65.4257 31.6111L65.7496 33.5261L66.0484 33.8967L65.6605 34.7482L64.992 35.1052L64.8877 36.2594L65.572 37.3278L65.9763 36.0937L67.3613 36.7855L67.5923 37.2001L68.1656 37.1832L68.6177 37.5777L67.7434 38.9944L67.189 39.2128L66.231 38.8879L66.155 39.6449L65.6577 40.0872L64.9741 40.1953L64.9844 40.8773L64.5655 41.2664L63.6829 41.2995L62.7602 40.8317L61.3773 41.9016L60.804 41.937L59.1978 40.8333L58.6163 40.1089L57.7175 39.9193L57.1724 40.4741L57.0301 41.2414L55.7406 40.7453L55.4797 41.2637L54.588 41.4745L53.7566 41.3332L52.9589 40.9566L53.7158 40.1453L54.0272 38.5776L53.4023 38.9531L52.8937 38.6814L52.5377 39.4319L51.7868 39.4775L51.1047 39.2036L49.6679 39.8965L48.8991 40.729L48.8366 41.2169L47.046 41.3637L46.7465 41.9092L45.8892 41.5289L45.0491 41.5848L43.9927 42.751L43.7128 43.677L43.1091 43.3563L42.3292 42.5679L41.8234 43.071L41.106 42.9211L40.4408 42.4673L39.4921 40.7404L38.0483 39.571L37.4772 39.8997L36.7132 39.9644L35.8062 39.6498L35.4655 40.0334L34.2733 39.8253L33.9618 38.6298L33.3136 37.3365L32.5897 36.611L31.6508 36.3235L31.3997 36.542L30.0504 36.411L28.4593 36.0872L27.4774 35.6948L27.2833 35.008L25.4212 34.126L25.2722 33.6891L23.6751 32.8256L23.1812 32.0578L22.6862 31.7774L22.1106 32.1225L21.5993 31.7883L21.0597 29.0821L20.3246 26.9383L19.9843 25.563L19.4153 25.0593L18.108 23.3198L17.9689 22.8378L16.6739 21.0402L15.9848 21.1592L15.4963 20.4973L15.4571 19.7567L13.9079 18.0319L12.225 16.4843L10.2693 15.1268L9.42108 14.1943L9.2254 11.6099L8.95044 10.7502L10.0677 10.3894L10.8149 8.91298L12.594 7.24363L13.1048 6.28342L12.9797 5.77371L13.6699 4.1625L14.8399 3.57996L15.318 2.97516ZM0 19.3752L0.672626 18.9508L1.9275 19.1915L2.27244 19.7263L3.01322 19.7692L4.21237 21.0022L3.25119 20.9619L2.48222 21.4918L2.10461 21.0848L1.27212 21.0114L1.12038 20.6446L0.272135 20.1724L0 19.3752ZM3.39895 3.2474L4.52879 3.01048L5.48134 3.09089L5.92197 3.62996L6.66209 3.9647L6.70554 4.96348L5.99593 5.62102L8.96238 7.27514L9.31561 8.1473L9.26337 9.18686L8.62756 9.76558L8.26737 8.4951L7.80701 7.65933L6.52793 6.47633L5.05697 6.7676L4.24836 5.53895L3.61686 5.16509L3.93642 3.90384L3.39895 3.2474Z" fill="#F2F2F2" stroke="#07122B" mask="url(#path-1-inside-1_81_120)"/>
</svg>
