<svg width="49" height="61" viewBox="0 0 49 61" fill="none" xmlns="http://www.w3.org/2000/svg">
<mask id="path-1-inside-1_81_122" fill="white">
<path d="M5.74718 0.664044L6.17868 1.7753L6.78895 2.14754L6.58132 2.81212L7.62028 2.97842L8.31911 2.58336L8.73751 3.70821L9.64728 3.96634L10.5085 3.33162L10.6172 4.01959L11.1741 4.56952L10.1819 5.65959L10.8514 5.97368L11.3927 6.53773L12.1056 6.21821L12.7653 5.64546L13.6341 5.84815L13.5966 7.07191L14.7596 6.59262L15.1709 7.10451L15.196 8.12394L14.7678 8.45543L15.0704 8.94124L15.1356 9.69929L14.7542 10.3932L15.2411 12.8674L15.7464 13.27L16.5881 12.9374L17.2745 12.2245L18.5851 12.8663L19.1563 12.8945L19.9388 13.326L20.1637 12.6859L22.2129 11.8669L23.221 11.9099L23.665 11.6561L24.5985 11.9148L25.9462 11.7305L25.919 10.9507L25.0854 10.6144L24.8784 10.2329L25.0402 9.24716L26.5515 9.08089L26.7054 9.78298L27.2928 10.2949L27.9797 10.3123L28.1916 10.7046L29.2719 10.891L29.4289 11.8686L29.7903 12.8788L29.8776 13.8053L29.7077 14.6334L30.5521 15.6393L31.5144 17.0646L32.0378 17.5124L32.8083 17.4684L32.7708 18.1433L33.6001 18.834L33.7985 20.9049L35.7258 23.0611L36.096 23.6154L37.0024 23.7295L37.4256 24.3028L37.2323 24.6582L37.9142 25.7956L37.2963 26.6047L37.1925 27.5068L37.5392 28.3604L36.9926 28.8946L36.7258 29.6782L37.2545 30.2966L37.5284 31.2296L38.3266 31.341L38.4586 32.0708L39.6617 32.411L40.2253 32.918L41.1448 32.7626L41.5382 33.7576L41.4539 34.4765L42.4886 34.4776L43.038 34.2793L43.8633 34.3586L44.6084 34.7129L46.0066 36.1007L45.8398 37.2609L46.2761 37.8658L45.6159 38.0076L46.2028 39.1194L47.4852 39.5563L47.5031 40.2497L48.41 40.179L47.7042 41.4593L47.8825 41.6816L47.1532 42.6157L46.5121 42.2739L46.0376 43.0526L45.3595 43.7172L45.3767 44.3948L44.5862 44.2051L44.2633 43.7677L43.5048 43.9796L42.5115 43.9633L41.8033 44.6415L41.6441 45.9011L40.8823 46.9396L40.7888 48.1313L40.2715 47.921L38.1593 47.6406L38.0724 48.116L36.9996 47.9476L36.5845 48.773L35.5177 49.1322L35.3606 49.8468L34.7895 50.3038L35.026 50.8977L33.6489 50.8532L33.0245 51.8053L33.3333 51.9297L34.4026 54.0044L34.4902 55.32L34.9336 55.8895L34.1179 56.2346L33.6637 55.8237L33.2305 56.0954L31.24 55.6607L29.0452 56.6231L28.6594 57.1301L28.7191 57.8517L27.515 58.1794L26.5553 58.1425L26.0804 58.6098L24.9703 58.8391L24.5278 58.2593L23.8215 58.4006L22.4005 56.7655L22.5179 56.0558L21.9081 55.8123L21.174 56.1406L20.7871 57.1915L20.0942 57.6561L20.2654 58.5239L20.9262 58.3256L21.3017 59.038L21.0501 59.7923L20.1644 60.3672L18.9976 60.4498L18.6054 59.7086L18.1146 59.463L17.7206 59.7781L16.2621 59.6108L15.7867 59.8037L13.9923 59.8852L13.9107 59.5157L12.5028 58.606L11.8464 58.0436L11.0454 57.9925L10.7025 57.1469L11.2395 56.7084L11.3541 55.8536L11.7176 55.6857L11.7496 54.8032L10.94 54.5277L10.7111 55.1646L9.48145 54.7021L9.2788 53.9055L8.72292 53.3741L7.73272 53.1774L7.85394 52.19L8.55542 50.9776L9.06736 50.8782L8.51413 48.8388L9.66304 48.8697L10.0662 47.9302L9.49388 47.2493L9.84446 46.1478L10.296 45.5789L9.46022 44.7181L8.42292 44.4861L7.60718 45.2197L7.38446 45.9462L6.65247 46.8249L5.07173 45.7609L4.54786 45.2305L4.61585 44.6692L4.27622 44.0562L5.0049 43.1499L4.33211 42.1907L3.98816 42.2646L3.14091 41.5392L3.1041 40.7284L3.40244 39.0819L3.05302 38.8895L3.41371 38.1266L3.20294 37.7141L2.1862 38.0119L2.24491 36.761L2.85999 35.2123L3.6278 34.7183L4.05002 33.8521L3.37026 33.275L3.61155 32.5827L4.48103 31.8573L4.6913 30.7145L4.3273 30.3412L3.51653 30.22L3.79082 28.7267L3.09912 28.9386L2.66381 29.5978L1.34127 29.8255L1.27278 29.457L1.74326 28.7734L2.59316 28.2773L2.32418 27.5644L3.5225 26.5716L3.1502 25.8809L3.76595 25.7782L3.69314 24.8343L5.16626 24.0012L3.72183 22.3591L3.31106 22.7623L2.90792 21.97L3.11106 21.4907L2.78122 20.9136L3.987 19.8404L3.49912 19.1149L3.01438 19.6208L2.12484 19.0872L2.07924 18.5699L3.46545 17.7276L4.37937 18.4199L4.70225 17.4548L2.78238 16.2348L2.90294 15.1111L3.43776 14.5052L2.94705 12.8385L2.05901 11.3752L2.49863 10.772L2.3323 10.0199L1.2358 9.84981L0.689044 10.2443L0.298337 8.78745L0.585895 8.4201L0.338635 7.05561L0 5.99325L0.0467654 4.85372L0.271306 4.3478L1.27975 4.12392L2.13944 4.46355L2.4323 2.75019L3.26479 1.14115L4.4729 0L5.11136 0.874883L5.74718 0.664044Z"/>
</mask>
<path d="M5.74718 0.664044L6.17868 1.7753L6.78895 2.14754L6.58132 2.81212L7.62028 2.97842L8.31911 2.58336L8.73751 3.70821L9.64728 3.96634L10.5085 3.33162L10.6172 4.01959L11.1741 4.56952L10.1819 5.65959L10.8514 5.97368L11.3927 6.53773L12.1056 6.21821L12.7653 5.64546L13.6341 5.84815L13.5966 7.07191L14.7596 6.59262L15.1709 7.10451L15.196 8.12394L14.7678 8.45543L15.0704 8.94124L15.1356 9.69929L14.7542 10.3932L15.2411 12.8674L15.7464 13.27L16.5881 12.9374L17.2745 12.2245L18.5851 12.8663L19.1563 12.8945L19.9388 13.326L20.1637 12.6859L22.2129 11.8669L23.221 11.9099L23.665 11.6561L24.5985 11.9148L25.9462 11.7305L25.919 10.9507L25.0854 10.6144L24.8784 10.2329L25.0402 9.24716L26.5515 9.08089L26.7054 9.78298L27.2928 10.2949L27.9797 10.3123L28.1916 10.7046L29.2719 10.891L29.4289 11.8686L29.7903 12.8788L29.8776 13.8053L29.7077 14.6334L30.5521 15.6393L31.5144 17.0646L32.0378 17.5124L32.8083 17.4684L32.7708 18.1433L33.6001 18.834L33.7985 20.9049L35.7258 23.0611L36.096 23.6154L37.0024 23.7295L37.4256 24.3028L37.2323 24.6582L37.9142 25.7956L37.2963 26.6047L37.1925 27.5068L37.5392 28.3604L36.9926 28.8946L36.7258 29.6782L37.2545 30.2966L37.5284 31.2296L38.3266 31.341L38.4586 32.0708L39.6617 32.411L40.2253 32.918L41.1448 32.7626L41.5382 33.7576L41.4539 34.4765L42.4886 34.4776L43.038 34.2793L43.8633 34.3586L44.6084 34.7129L46.0066 36.1007L45.8398 37.2609L46.2761 37.8658L45.6159 38.0076L46.2028 39.1194L47.4852 39.5563L47.5031 40.2497L48.41 40.179L47.7042 41.4593L47.8825 41.6816L47.1532 42.6157L46.5121 42.2739L46.0376 43.0526L45.3595 43.7172L45.3767 44.3948L44.5862 44.2051L44.2633 43.7677L43.5048 43.9796L42.5115 43.9633L41.8033 44.6415L41.6441 45.9011L40.8823 46.9396L40.7888 48.1313L40.2715 47.921L38.1593 47.6406L38.0724 48.116L36.9996 47.9476L36.5845 48.773L35.5177 49.1322L35.3606 49.8468L34.7895 50.3038L35.026 50.8977L33.6489 50.8532L33.0245 51.8053L33.3333 51.9297L34.4026 54.0044L34.4902 55.32L34.9336 55.8895L34.1179 56.2346L33.6637 55.8237L33.2305 56.0954L31.24 55.6607L29.0452 56.6231L28.6594 57.1301L28.7191 57.8517L27.515 58.1794L26.5553 58.1425L26.0804 58.6098L24.9703 58.8391L24.5278 58.2593L23.8215 58.4006L22.4005 56.7655L22.5179 56.0558L21.9081 55.8123L21.174 56.1406L20.7871 57.1915L20.0942 57.6561L20.2654 58.5239L20.9262 58.3256L21.3017 59.038L21.0501 59.7923L20.1644 60.3672L18.9976 60.4498L18.6054 59.7086L18.1146 59.463L17.7206 59.7781L16.2621 59.6108L15.7867 59.8037L13.9923 59.8852L13.9107 59.5157L12.5028 58.606L11.8464 58.0436L11.0454 57.9925L10.7025 57.1469L11.2395 56.7084L11.3541 55.8536L11.7176 55.6857L11.7496 54.8032L10.94 54.5277L10.7111 55.1646L9.48145 54.7021L9.2788 53.9055L8.72292 53.3741L7.73272 53.1774L7.85394 52.19L8.55542 50.9776L9.06736 50.8782L8.51413 48.8388L9.66304 48.8697L10.0662 47.9302L9.49388 47.2493L9.84446 46.1478L10.296 45.5789L9.46022 44.7181L8.42292 44.4861L7.60718 45.2197L7.38446 45.9462L6.65247 46.8249L5.07173 45.7609L4.54786 45.2305L4.61585 44.6692L4.27622 44.0562L5.0049 43.1499L4.33211 42.1907L3.98816 42.2646L3.14091 41.5392L3.1041 40.7284L3.40244 39.0819L3.05302 38.8895L3.41371 38.1266L3.20294 37.7141L2.1862 38.0119L2.24491 36.761L2.85999 35.2123L3.6278 34.7183L4.05002 33.8521L3.37026 33.275L3.61155 32.5827L4.48103 31.8573L4.6913 30.7145L4.3273 30.3412L3.51653 30.22L3.79082 28.7267L3.09912 28.9386L2.66381 29.5978L1.34127 29.8255L1.27278 29.457L1.74326 28.7734L2.59316 28.2773L2.32418 27.5644L3.5225 26.5716L3.1502 25.8809L3.76595 25.7782L3.69314 24.8343L5.16626 24.0012L3.72183 22.3591L3.31106 22.7623L2.90792 21.97L3.11106 21.4907L2.78122 20.9136L3.987 19.8404L3.49912 19.1149L3.01438 19.6208L2.12484 19.0872L2.07924 18.5699L3.46545 17.7276L4.37937 18.4199L4.70225 17.4548L2.78238 16.2348L2.90294 15.1111L3.43776 14.5052L2.94705 12.8385L2.05901 11.3752L2.49863 10.772L2.3323 10.0199L1.2358 9.84981L0.689044 10.2443L0.298337 8.78745L0.585895 8.4201L0.338635 7.05561L0 5.99325L0.0467654 4.85372L0.271306 4.3478L1.27975 4.12392L2.13944 4.46355L2.4323 2.75019L3.26479 1.14115L4.4729 0L5.11136 0.874883L5.74718 0.664044Z" fill="#F2F2F2" stroke="#07122B" mask="url(#path-1-inside-1_81_122)"/>
</svg>
