<svg width="48" height="51" viewBox="0 0 48 51" fill="none" xmlns="http://www.w3.org/2000/svg">
<mask id="path-1-inside-1_81_117" fill="white">
<path d="M0 36.4018L0.583076 36.2882L0.698331 35.3606L1.32486 35.0949L1.60362 34.4124L2.16497 33.9891L3.17574 33.8445L2.89697 32.1638L3.27789 31.5883L4.32779 31.7269L5.54386 32.5018L5.5684 31.0487L6.14103 30.3624L7.07186 28.3496L7.24533 27.5442L6.75728 26.7634L7.10719 24.8984L7.61597 25.4049L9.39223 25.3788L9.73899 25.0158L10.7507 24.6066L10.8633 23.7801L11.5464 23.5334L11.5572 22.9003L11.1453 22.4623L11.223 21.6673L10.6524 21.4543L10.9166 20.7397L10.0602 20.2392L9.66237 19.7344L8.73104 20.3245L8.22889 19.5094L6.85943 18.6883L7.29524 17.9037L6.96872 17.1913L7.47998 16.5783L7.51315 15.7572L6.79044 14.8084L7.15611 14.4802L7.97185 14.1351L7.52841 13.5656L7.44085 12.25L6.37154 10.1753L6.06276 10.0509L6.68713 9.09882L8.06422 9.14337L7.82774 8.54943L8.39888 8.09243L8.55592 7.37785L9.62274 7.01865L10.0378 6.19321L11.1106 6.36168L11.1975 5.88619L13.3097 6.16659L13.827 6.37689L13.9205 5.1852L14.6824 4.14674L14.8416 2.88712L15.5497 2.20894L16.543 2.22526L17.3016 2.01332L17.6244 2.45077L18.415 2.64042L18.3977 1.96278L19.0758 1.2982L19.5503 0.519499L20.1914 0.861305L20.5246 1.19061L21.4022 0.548292L21.5478 1.57968L22.4482 1.81716L23.266 1.133L24.8543 1.54925L25.6706 0.245622L26.7988 0L27.8019 1.34059L28.749 2.07418L28.9816 2.8279L29.3098 3.46151L29.9125 3.42565L29.9022 5.31942L29.3478 5.44332L29.1354 6.56327L28.5549 7.47893L29.0593 8.46032L28.2883 8.51629L27.4427 9.76776L28.2301 10.7111L28.1921 11.1975L28.8729 11.8631L30.444 11.6952L30.6688 12.4304L30.5146 13.1798L32.3507 14.8296L31.7861 15.1986L32.0551 16.1778L32.9897 16.5403L33.0343 17.0337L33.694 17.3043L33.2539 18.2014L33.4315 18.8883L33.8869 19.3502L33.4181 19.9436L33.2909 20.9005L33.4909 21.4325L34.2234 21.2956L34.9466 22.4792L34.558 23.2323L32.9197 23.8018L32.424 24.4849L32.5909 24.9837L33.2066 24.9125L33.9467 25.7331L34.9064 25.7282L35.3325 24.9201L36.7958 24.8799L37.06 25.2473L36.6963 25.7548L37.3387 26.8769L35.6606 27.1715L35.9263 27.5807L36.0742 28.9115L37.1251 29.5005L37.7934 29.4956L37.981 30.0863L39.1624 29.5424L40.0183 29.7972L41.5267 28.8897L42.0859 28.298L42.4559 29.106L42.2348 30.0858L43.4759 30.7156L44.2013 30.7993L45.1474 31.1987L45.8262 31.9747L46.1381 32.0078L46.6608 34.0423L46.0257 34.07L46.299 34.99L45.887 35.5269L46.5391 36.185L46.1097 36.517L46.8004 37.2653L47.214 37.5783L46.9847 38.3423L46.1625 38.1695L46.1538 38.8749L44.9605 39.1308L44.0671 38.952L43.7459 38.1902L43.1939 38.4244L42.6168 38.1087L42.269 39.3666L41.4256 39.6976L40.535 40.4246L39.9078 40.2633L38.7777 41.1148L38.0223 42.0136L37.9114 42.7901L37.3669 43.2879L36.4567 43.6797L35.5301 43.715L35.1656 44.8094L34.1506 45.1208L32.9333 44.347L32.3894 45.0496L31.7899 44.5187L30.4395 45.2642L29.9738 46.5331L29.3583 46.0881L28.7088 46.2793L28.0437 47.4803L27.1449 48.3448L26.5542 49.4588L25.72 49.1089L25.1538 48.5997L24.2698 48.4421L23.6627 48.8812L23.5013 49.8359L22.9965 50.6527L22.2781 50.8673L22.358 50.0875L21.6456 49.7343L20.211 49.9914L19.9067 49.0953L18.4412 49.1491L17.9939 48.6736L18.5422 47.5987L19.083 46.8918L19.836 46.4108L18.4324 45.3898L17.5765 45.3735L17.4989 45.7756L16.6294 45.8125L16.4478 45.336L15.3535 44.7203L14.9339 43.79L14.922 42.5467L14.5193 41.9272L13.4635 41.9223L13.1418 42.2445L11.367 41.8457L9.91345 42.4527L9.31777 42.0206L8.807 41.243L7.77301 43.4286L6.69973 43.7248L6.547 42.7374L5.48681 42.9254L4.52613 41.4615L4.94619 40.9664L4.96079 40.2546L5.28516 39.8236L5.42048 38.8721L4.94934 38.8716L4.1875 37.6875L3.53328 37.4028L2.67475 37.8647L1.48787 37.9288L0.400491 37.2935L0 36.4018Z"/>
</mask>
<path d="M0 36.4018L0.583076 36.2882L0.698331 35.3606L1.32486 35.0949L1.60362 34.4124L2.16497 33.9891L3.17574 33.8445L2.89697 32.1638L3.27789 31.5883L4.32779 31.7269L5.54386 32.5018L5.5684 31.0487L6.14103 30.3624L7.07186 28.3496L7.24533 27.5442L6.75728 26.7634L7.10719 24.8984L7.61597 25.4049L9.39223 25.3788L9.73899 25.0158L10.7507 24.6066L10.8633 23.7801L11.5464 23.5334L11.5572 22.9003L11.1453 22.4623L11.223 21.6673L10.6524 21.4543L10.9166 20.7397L10.0602 20.2392L9.66237 19.7344L8.73104 20.3245L8.22889 19.5094L6.85943 18.6883L7.29524 17.9037L6.96872 17.1913L7.47998 16.5783L7.51315 15.7572L6.79044 14.8084L7.15611 14.4802L7.97185 14.1351L7.52841 13.5656L7.44085 12.25L6.37154 10.1753L6.06276 10.0509L6.68713 9.09882L8.06422 9.14337L7.82774 8.54943L8.39888 8.09243L8.55592 7.37785L9.62274 7.01865L10.0378 6.19321L11.1106 6.36168L11.1975 5.88619L13.3097 6.16659L13.827 6.37689L13.9205 5.1852L14.6824 4.14674L14.8416 2.88712L15.5497 2.20894L16.543 2.22526L17.3016 2.01332L17.6244 2.45077L18.415 2.64042L18.3977 1.96278L19.0758 1.2982L19.5503 0.519499L20.1914 0.861305L20.5246 1.19061L21.4022 0.548292L21.5478 1.57968L22.4482 1.81716L23.266 1.133L24.8543 1.54925L25.6706 0.245622L26.7988 0L27.8019 1.34059L28.749 2.07418L28.9816 2.8279L29.3098 3.46151L29.9125 3.42565L29.9022 5.31942L29.3478 5.44332L29.1354 6.56327L28.5549 7.47893L29.0593 8.46032L28.2883 8.51629L27.4427 9.76776L28.2301 10.7111L28.1921 11.1975L28.8729 11.8631L30.444 11.6952L30.6688 12.4304L30.5146 13.1798L32.3507 14.8296L31.7861 15.1986L32.0551 16.1778L32.9897 16.5403L33.0343 17.0337L33.694 17.3043L33.2539 18.2014L33.4315 18.8883L33.8869 19.3502L33.4181 19.9436L33.2909 20.9005L33.4909 21.4325L34.2234 21.2956L34.9466 22.4792L34.558 23.2323L32.9197 23.8018L32.424 24.4849L32.5909 24.9837L33.2066 24.9125L33.9467 25.7331L34.9064 25.7282L35.3325 24.9201L36.7958 24.8799L37.06 25.2473L36.6963 25.7548L37.3387 26.8769L35.6606 27.1715L35.9263 27.5807L36.0742 28.9115L37.1251 29.5005L37.7934 29.4956L37.981 30.0863L39.1624 29.5424L40.0183 29.7972L41.5267 28.8897L42.0859 28.298L42.4559 29.106L42.2348 30.0858L43.4759 30.7156L44.2013 30.7993L45.1474 31.1987L45.8262 31.9747L46.1381 32.0078L46.6608 34.0423L46.0257 34.07L46.299 34.99L45.887 35.5269L46.5391 36.185L46.1097 36.517L46.8004 37.2653L47.214 37.5783L46.9847 38.3423L46.1625 38.1695L46.1538 38.8749L44.9605 39.1308L44.0671 38.952L43.7459 38.1902L43.1939 38.4244L42.6168 38.1087L42.269 39.3666L41.4256 39.6976L40.535 40.4246L39.9078 40.2633L38.7777 41.1148L38.0223 42.0136L37.9114 42.7901L37.3669 43.2879L36.4567 43.6797L35.5301 43.715L35.1656 44.8094L34.1506 45.1208L32.9333 44.347L32.3894 45.0496L31.7899 44.5187L30.4395 45.2642L29.9738 46.5331L29.3583 46.0881L28.7088 46.2793L28.0437 47.4803L27.1449 48.3448L26.5542 49.4588L25.72 49.1089L25.1538 48.5997L24.2698 48.4421L23.6627 48.8812L23.5013 49.8359L22.9965 50.6527L22.2781 50.8673L22.358 50.0875L21.6456 49.7343L20.211 49.9914L19.9067 49.0953L18.4412 49.1491L17.9939 48.6736L18.5422 47.5987L19.083 46.8918L19.836 46.4108L18.4324 45.3898L17.5765 45.3735L17.4989 45.7756L16.6294 45.8125L16.4478 45.336L15.3535 44.7203L14.9339 43.79L14.922 42.5467L14.5193 41.9272L13.4635 41.9223L13.1418 42.2445L11.367 41.8457L9.91345 42.4527L9.31777 42.0206L8.807 41.243L7.77301 43.4286L6.69973 43.7248L6.547 42.7374L5.48681 42.9254L4.52613 41.4615L4.94619 40.9664L4.96079 40.2546L5.28516 39.8236L5.42048 38.8721L4.94934 38.8716L4.1875 37.6875L3.53328 37.4028L2.67475 37.8647L1.48787 37.9288L0.400491 37.2935L0 36.4018Z" fill="#F2F2F2" stroke="#07122B" mask="url(#path-1-inside-1_81_117)"/>
</svg>
