<svg width="67" height="39" viewBox="0 0 67 39" fill="none" xmlns="http://www.w3.org/2000/svg">
<mask id="path-1-inside-1_81_180" fill="white">
<path d="M2.32318 5.14444L3.49099 5.77425L3.79148 5.49494L4.01801 4.57061L5.04072 4.40704L5.29445 4.10056L6.40637 4.14783L7.39524 3.95492L7.6964 4.12447L8.274 3.43868L9.11843 3.0534L9.14082 2.51163L10.144 2.391L10.6187 2.79801L11.5046 2.97136L12.2746 2.63825L12.8424 1.22376L13.2021 0.954225L13.9451 1.59491L14.8873 0.856952L15.3361 0.966724L16.1969 0.368972L16.7919 0.384737L17.0696 0.787395L18.1032 1.12866L18.3108 1.86552L17.8314 2.36546L17.6891 3.33435L18.1521 3.61203L16.6502 5.43462L16.5218 5.8036L17.2979 6.11443L17.9934 6.01226L18.4498 5.23519L19.1916 6.65893L19.7911 6.25299L20.1811 6.97518L19.847 7.59141L20.2594 8.12449L20.362 9.06296L21.1506 9.15425L22.0017 8.36522L22.3494 8.55488L23.4335 8.51411L23.8824 8.22013L24.2676 8.58911L24.7958 8.33045L24.6142 7.62782L25.0343 7.26427L25.9636 8.84559L26.7422 8.36196L27.4589 7.27786L27.3916 5.7911L28.5312 5.9927L28.8991 6.55839L29.869 6.22147L30.5082 6.37363L31.4731 5.96119L31.8008 4.86187L32.8405 4.40487L33.1952 5.67263L34.1043 6.05357L34.9151 6.09269L35.8895 5.63243L36.3306 5.83784L36.0227 6.60893L37.1001 6.69479L37.3969 5.96065L38.7011 5.333L39.2744 5.70796L40.2357 5.53352L41.5854 4.55756L42.9993 5.4656L43.3809 5.34441L42.7647 4.04731L43.0434 3.90873L43.3874 2.96266L44.8421 2.26003L45.3937 2.75834L45.2925 3.52238L45.7512 4.4391L47.6407 5.59004L48.158 5.0537L49.116 5.66557L50.0616 5.67481L50.1153 6.3633L50.6783 6.17366L51.6645 6.34428L52.1672 6.07802L52.3949 5.37865L53.792 4.73526L54.2148 5.40963L54.7278 5.33789L55.9847 4.16848L57.4416 2.34209L58.3213 1.809L59.0266 1.8052L59.5863 1.26614L61.1319 0.818375L62.173 0.0407539L63.2599 0L62.8136 0.799355L62.0589 0.558076L62.167 1.35145L63.0609 1.58621L63.1022 2.18504L62.4664 3.46477L62.7475 4.20869L62.4024 4.39835L62.311 5.32703L61.8649 6.42852L62.5659 6.96649L62.7475 7.49957L62.2529 7.92126L61.6078 9.03144L62.7436 9.4504L63.0881 10.0166L64.3471 10.0286L64.9623 9.55691L65.496 9.69331L65.2662 10.4715L66.0295 11.2964L65.859 11.7501L65.0813 12.0153L64.9151 12.6913L64.1609 13.8401L63.0587 16.9511L62.4024 17.9912L61.884 18.2775L61.666 19.3078L60.8732 20.8527L61.2987 21.288L61.8219 21.2983L60.7797 23.6393L60.1765 24.0811L59.5653 24.9267L59.0739 26.0765L59.3158 26.3732L58.7163 27.2715L57.2786 28.4251L56.6243 28.4958L56.6461 29.5157L56.0874 30.126L55.7434 31.5062L56.1005 33.4055L55.7103 34.0315L54.9136 34.4244L55.3386 35.4834L55.2978 35.9209L55.7814 36.6224L55.3043 36.9094L54.8625 37.6402L53.8224 37.8228L53.0328 38.176L52.1911 38.6836L51.0941 37.8076L50.7826 36.6414L50.0594 36.498L48.0558 35.296L47.0255 34.4624L46.781 34.4749L45.5958 33.6799L45.5013 32.9936L45.1192 32.3909L44.6063 32.1752L44.2378 31.5187L43.6211 31.61L42.7755 32.0687L41.8778 33.7962L40.4649 34.1249L39.482 34.7493L38.6841 33.5636L38.9021 32.9898L38.3641 32.7295L37.792 31.509L36.9041 31.5666L36.7921 31.027L35.3406 30.4662L33.8131 31.2693L32.7915 30.8819L32.1872 30.9281L30.6407 32.1361L29.9538 31.973L29.5354 31.3617L28.5666 30.8531L27.7851 30.7248L27.9193 29.9255L27.4737 28.762L27.6536 28.142L26.6906 27.1133L25.8837 27.7393L24.661 27.6562L23.4476 28.2067L22.8074 28.8881L22.4862 30.0869L21.9396 30.8503L20.7697 30.7873L20.7126 31.3209L19.9954 31.991L19.371 31.5269L20.3969 30.2113L19.5503 29.5614L18.8063 30.2972L18.8173 31.1628L18.1755 31.4981L18.0581 32.242L17.6163 32.5257L17.0409 31.4965L16.5919 31.3139L16.2838 30.4058L15.1024 30.7694L14.3096 31.2041L13.7205 29.7032L14.2406 29.1473L14.289 28.555L13.6603 26.7281L13.1587 26.5308L12.1854 25.6836L11.5464 25.6048L11.1405 24.8419L10.202 24.048L9.24181 23.6915L8.88378 24.4707L8.3609 23.6371L8.93203 22.6465L9.72705 22.4917L9.19074 21.7852L9.40649 21.3222L10.2454 20.462L10.2743 19.2062L10.0569 18.5492L10.6736 17.9998L11.9393 17.7385L11.4975 16.6375L10.3552 15.504L9.87978 15.7529L8.64846 15.0861L9.10052 13.6151L7.54035 12.3109L6.68066 13.0771L5.4374 11.6316L4.32182 9.96067L4.41204 9.24662L2.74324 8.73855L2.02053 8.97167L1.41192 9.78732L0.689044 10.0487L0.407622 9.64713L0.424537 8.4788L1.26466 7.40502L0.0169152 7.27406L0 6.76271L0.779258 6.23181L1.46134 5.45908L2.32318 5.14444Z"/>
</mask>
<path d="M2.32318 5.14444L3.49099 5.77425L3.79148 5.49494L4.01801 4.57061L5.04072 4.40704L5.29445 4.10056L6.40637 4.14783L7.39524 3.95492L7.6964 4.12447L8.274 3.43868L9.11843 3.0534L9.14082 2.51163L10.144 2.391L10.6187 2.79801L11.5046 2.97136L12.2746 2.63825L12.8424 1.22376L13.2021 0.954225L13.9451 1.59491L14.8873 0.856952L15.3361 0.966724L16.1969 0.368972L16.7919 0.384737L17.0696 0.787395L18.1032 1.12866L18.3108 1.86552L17.8314 2.36546L17.6891 3.33435L18.1521 3.61203L16.6502 5.43462L16.5218 5.8036L17.2979 6.11443L17.9934 6.01226L18.4498 5.23519L19.1916 6.65893L19.7911 6.25299L20.1811 6.97518L19.847 7.59141L20.2594 8.12449L20.362 9.06296L21.1506 9.15425L22.0017 8.36522L22.3494 8.55488L23.4335 8.51411L23.8824 8.22013L24.2676 8.58911L24.7958 8.33045L24.6142 7.62782L25.0343 7.26427L25.9636 8.84559L26.7422 8.36196L27.4589 7.27786L27.3916 5.7911L28.5312 5.9927L28.8991 6.55839L29.869 6.22147L30.5082 6.37363L31.4731 5.96119L31.8008 4.86187L32.8405 4.40487L33.1952 5.67263L34.1043 6.05357L34.9151 6.09269L35.8895 5.63243L36.3306 5.83784L36.0227 6.60893L37.1001 6.69479L37.3969 5.96065L38.7011 5.333L39.2744 5.70796L40.2357 5.53352L41.5854 4.55756L42.9993 5.4656L43.3809 5.34441L42.7647 4.04731L43.0434 3.90873L43.3874 2.96266L44.8421 2.26003L45.3937 2.75834L45.2925 3.52238L45.7512 4.4391L47.6407 5.59004L48.158 5.0537L49.116 5.66557L50.0616 5.67481L50.1153 6.3633L50.6783 6.17366L51.6645 6.34428L52.1672 6.07802L52.3949 5.37865L53.792 4.73526L54.2148 5.40963L54.7278 5.33789L55.9847 4.16848L57.4416 2.34209L58.3213 1.809L59.0266 1.8052L59.5863 1.26614L61.1319 0.818375L62.173 0.0407539L63.2599 0L62.8136 0.799355L62.0589 0.558076L62.167 1.35145L63.0609 1.58621L63.1022 2.18504L62.4664 3.46477L62.7475 4.20869L62.4024 4.39835L62.311 5.32703L61.8649 6.42852L62.5659 6.96649L62.7475 7.49957L62.2529 7.92126L61.6078 9.03144L62.7436 9.4504L63.0881 10.0166L64.3471 10.0286L64.9623 9.55691L65.496 9.69331L65.2662 10.4715L66.0295 11.2964L65.859 11.7501L65.0813 12.0153L64.9151 12.6913L64.1609 13.8401L63.0587 16.9511L62.4024 17.9912L61.884 18.2775L61.666 19.3078L60.8732 20.8527L61.2987 21.288L61.8219 21.2983L60.7797 23.6393L60.1765 24.0811L59.5653 24.9267L59.0739 26.0765L59.3158 26.3732L58.7163 27.2715L57.2786 28.4251L56.6243 28.4958L56.6461 29.5157L56.0874 30.126L55.7434 31.5062L56.1005 33.4055L55.7103 34.0315L54.9136 34.4244L55.3386 35.4834L55.2978 35.9209L55.7814 36.6224L55.3043 36.9094L54.8625 37.6402L53.8224 37.8228L53.0328 38.176L52.1911 38.6836L51.0941 37.8076L50.7826 36.6414L50.0594 36.498L48.0558 35.296L47.0255 34.4624L46.781 34.4749L45.5958 33.6799L45.5013 32.9936L45.1192 32.3909L44.6063 32.1752L44.2378 31.5187L43.6211 31.61L42.7755 32.0687L41.8778 33.7962L40.4649 34.1249L39.482 34.7493L38.6841 33.5636L38.9021 32.9898L38.3641 32.7295L37.792 31.509L36.9041 31.5666L36.7921 31.027L35.3406 30.4662L33.8131 31.2693L32.7915 30.8819L32.1872 30.9281L30.6407 32.1361L29.9538 31.973L29.5354 31.3617L28.5666 30.8531L27.7851 30.7248L27.9193 29.9255L27.4737 28.762L27.6536 28.142L26.6906 27.1133L25.8837 27.7393L24.661 27.6562L23.4476 28.2067L22.8074 28.8881L22.4862 30.0869L21.9396 30.8503L20.7697 30.7873L20.7126 31.3209L19.9954 31.991L19.371 31.5269L20.3969 30.2113L19.5503 29.5614L18.8063 30.2972L18.8173 31.1628L18.1755 31.4981L18.0581 32.242L17.6163 32.5257L17.0409 31.4965L16.5919 31.3139L16.2838 30.4058L15.1024 30.7694L14.3096 31.2041L13.7205 29.7032L14.2406 29.1473L14.289 28.555L13.6603 26.7281L13.1587 26.5308L12.1854 25.6836L11.5464 25.6048L11.1405 24.8419L10.202 24.048L9.24181 23.6915L8.88378 24.4707L8.3609 23.6371L8.93203 22.6465L9.72705 22.4917L9.19074 21.7852L9.40649 21.3222L10.2454 20.462L10.2743 19.2062L10.0569 18.5492L10.6736 17.9998L11.9393 17.7385L11.4975 16.6375L10.3552 15.504L9.87978 15.7529L8.64846 15.0861L9.10052 13.6151L7.54035 12.3109L6.68066 13.0771L5.4374 11.6316L4.32182 9.96067L4.41204 9.24662L2.74324 8.73855L2.02053 8.97167L1.41192 9.78732L0.689044 10.0487L0.407622 9.64713L0.424537 8.4788L1.26466 7.40502L0.0169152 7.27406L0 6.76271L0.779258 6.23181L1.46134 5.45908L2.32318 5.14444Z" fill="#F2F2F2" stroke="#07122B" mask="url(#path-1-inside-1_81_180)"/>
</svg>
