<svg width="55" height="60" viewBox="0 0 55 60" fill="none" xmlns="http://www.w3.org/2000/svg">
<mask id="path-1-inside-1_81_132" fill="white">
<path d="M3.12134 13.0586L3.25501 11.9811L3.81702 11.4545L4.38749 11.3589L4.47671 10.7263L5.71998 10.2204L6.31068 9.35531L6.15314 9.09665L6.62809 8.32229L7.20403 8.28968L7.07684 7.05724L6.37038 6.83771L6.55247 6.29321L5.99759 5.15749L7.05296 3.71909L6.82527 3.13981L7.16009 2.29047L8.36969 2.10353L9.44015 2.53935L9.65922 1.95464L10.6118 1.4797L11.6128 1.57045L11.7827 1.21017L12.8386 1.97583L13.689 1.59707L15.1084 1.71499L15.3389 1.18844L16.1963 1.06562L17.6875 1.48785L18.9188 1.49601L18.9949 0.274965L19.5926 0L20.7458 0.503195L20.7197 1.30962L21.2164 2.22036L22.8069 1.35961L22.9743 1.66338L23.7953 1.63675L24.4567 2.27633L25.1311 3.34305L25.5271 3.58051L25.5006 4.35324L26.2168 4.31575L26.3477 5.10043L27.1253 5.45473L27.1205 6.61653L27.59 6.64968L28.2442 7.19146L28.4725 8.02614L27.5704 9.03144L28.3828 9.62864L27.5677 10.922L26.6455 11.6583L27.3465 12.2207L28.4334 11.461L29.1403 11.8941L29.8093 13.2928L30.0793 14.3932L30.908 14.0835L31.4504 14.1194L32.0813 13.4798L31.9493 12.3897L33.005 12.8923L33.2816 13.7955L32.7187 14.4335L33.3599 15.166L34.0049 14.9584L34.6325 15.5703L35.1086 16.3848L34.8549 16.9902L36.0373 18.903L35.8993 19.7714L36.5523 20.111L37.5865 21.5119L36.6545 21.889L36.4676 22.3064L37.2251 23.3703L37.8936 23.2274L37.956 22.0542L38.6565 22.2276L39.1749 23.4144L38.7173 24.7968L38.8135 26.2113L39.5961 25.6711L40.4193 25.8733L40.9322 25.5951L42.005 25.8021L42.5012 25.2299L42.9804 25.9923L43.4831 25.7478L44.034 26.108L44.4927 25.8331L44.5584 25.062L45.7376 25.2457L45.6925 25.9466L46.3615 26.1673L47.2222 25.494L48.0885 24.4876L49.091 24.5012L49.1568 25.3657L49.9773 25.018L49.8077 23.5453L50.7337 23.7708L50.4952 24.8316L51.2299 25.8005L52.165 26.2683L53.1085 26.1624L53.5703 26.4145L53.7219 27.3753L52.5465 27.6046L51.9211 28.9185L52.0722 30.4265L52.3183 30.9313L53.3949 30.4184L54.4816 30.5564L54.1551 31.3036L54.3295 31.954L54.1056 32.4333L54.8539 33.1055L54.3708 33.8494L54.5897 35.4503L53.7045 35.7975L52.9605 36.7088L51.9526 36.2138L51.6325 37.6663L51.9624 38.8749L51.5037 39.8073L50.7685 39.6715L50.6609 40.1165L51.507 40.7159L50.7125 41.6544L50.5185 42.3326L50.142 42.4831L50.2039 43.9329L49.7621 43.9644L49.184 45.0518L49.2823 45.3197L48.6649 46.738L48.0563 46.7217L47.6971 47.2803L47.8651 47.7123L47.3341 48.5339L46.5691 48.7111L46.4658 49.2947L46.8749 50.0017L46.5691 50.4755L47.1245 51.0488L46.6625 52.5046L44.7297 54.5446L45.3078 55.2385L45.2774 56.2596L46.2262 56.5503L45.9371 57.3773L46.2338 58.2528L45.3399 58.1077L44.8817 58.3441L43.9378 58.2169L43.1196 59.7716L42.4086 59.8096L41.3441 58.6755L40.9377 56.6351L41.3441 56.4275L40.4367 55.2401L40.2753 56.021L38.9613 55.9205L38.1266 56.7704L37.6001 56.7867L37.5333 55.984L37.1523 55.3227L37.755 55.0988L38.3576 54.4L38.3027 53.9398L37.4284 53.0687L36.9556 53.1035L36.6752 54.0566L36.0139 55.1766L35.9611 55.9118L35.4184 56.0259L34.9336 55.4624L34.4243 55.4645L34.3537 54.7418L33.456 54.825L32.7622 55.1222L31.8818 54.7636L31.5569 53.799L30.0533 52.428L28.2442 51.8672L28.1568 51.326L27.5916 51.3955L27.0997 51.8819L26.8195 51.3314L26.6754 50.2049L26.857 49.6148L25.8202 49.3545L25.2963 48.5861L24.3844 47.9943L24.2942 46.7304L23.6779 46.7967L23.603 49.5403L23.1661 49.8305L22.0091 49.0409L19.847 48.9909L19.8763 49.6256L19.4694 50.2375L19.0992 50.1288L18.5558 50.6462L17.3564 50.3098L16.7719 49.7816L16.3843 49.9435L15.9747 49.273L15.6155 49.9941L14.163 50.125L13.7859 49.2735L12.9668 48.2035L11.5459 48.5329L10.6395 47.4129L9.95142 47.2417L9.74181 45.705L10.0319 45.3256L9.17764 44.6649L8.42557 44.8149L7.77683 45.5919L6.70852 46.0054L6.30853 46.4228L5.10589 45.73L4.56577 45.712L4.09413 44.8746L3.37955 44.4122L3.30725 43.4466L2.96878 42.5483L3.11057 42.0261L3.76147 41.5289L2.82964 40.8648L2.44275 40.216L2.75568 39.5411L2.31771 39.0558L0.991859 38.3418L0.982074 37.4397L0.327192 37.9967L0.0577106 36.9544L0.231008 35.7611L0 35.3922L0.667983 34.9949L1.66515 35.0281L2.30461 34.7526L2.62848 35.0493L3.60293 34.958L3.83543 34.4129L5.00158 33.8434L6.33357 33.8255L6.49542 33.0147L5.99659 31.2987L6.6052 31.009L6.61764 30.2961L6.32644 29.7353L5.45215 29.3984L5.915 29.0098L5.71567 28.4643L5.94601 27.8084L5.80256 27.278L6.84318 27.2084L7.32244 26.9889L7.33438 26.2509L8.34465 25.851L8.5609 25.2386L9.49388 24.7115L9.48642 24.1724L10.1934 23.6627L10.1998 22.9932L9.90797 22.2911L10.0401 21.7374L9.30384 21.3565L9.2516 20.756L9.67763 20.193L8.97283 19.6311L8.33155 18.7003L7.70336 18.5248L7.33289 18.0939L7.31647 17.0521L6.87154 16.6446L6.75794 15.6713L6.06773 15.5784L6.54385 14.7117L5.90041 14.0857L4.12664 13.6346L3.73228 12.9652L3.12134 13.0586Z"/>
</mask>
<path d="M3.12134 13.0586L3.25501 11.9811L3.81702 11.4545L4.38749 11.3589L4.47671 10.7263L5.71998 10.2204L6.31068 9.35531L6.15314 9.09665L6.62809 8.32229L7.20403 8.28968L7.07684 7.05724L6.37038 6.83771L6.55247 6.29321L5.99759 5.15749L7.05296 3.71909L6.82527 3.13981L7.16009 2.29047L8.36969 2.10353L9.44015 2.53935L9.65922 1.95464L10.6118 1.4797L11.6128 1.57045L11.7827 1.21017L12.8386 1.97583L13.689 1.59707L15.1084 1.71499L15.3389 1.18844L16.1963 1.06562L17.6875 1.48785L18.9188 1.49601L18.9949 0.274965L19.5926 0L20.7458 0.503195L20.7197 1.30962L21.2164 2.22036L22.8069 1.35961L22.9743 1.66338L23.7953 1.63675L24.4567 2.27633L25.1311 3.34305L25.5271 3.58051L25.5006 4.35324L26.2168 4.31575L26.3477 5.10043L27.1253 5.45473L27.1205 6.61653L27.59 6.64968L28.2442 7.19146L28.4725 8.02614L27.5704 9.03144L28.3828 9.62864L27.5677 10.922L26.6455 11.6583L27.3465 12.2207L28.4334 11.461L29.1403 11.8941L29.8093 13.2928L30.0793 14.3932L30.908 14.0835L31.4504 14.1194L32.0813 13.4798L31.9493 12.3897L33.005 12.8923L33.2816 13.7955L32.7187 14.4335L33.3599 15.166L34.0049 14.9584L34.6325 15.5703L35.1086 16.3848L34.8549 16.9902L36.0373 18.903L35.8993 19.7714L36.5523 20.111L37.5865 21.5119L36.6545 21.889L36.4676 22.3064L37.2251 23.3703L37.8936 23.2274L37.956 22.0542L38.6565 22.2276L39.1749 23.4144L38.7173 24.7968L38.8135 26.2113L39.5961 25.6711L40.4193 25.8733L40.9322 25.5951L42.005 25.8021L42.5012 25.2299L42.9804 25.9923L43.4831 25.7478L44.034 26.108L44.4927 25.8331L44.5584 25.062L45.7376 25.2457L45.6925 25.9466L46.3615 26.1673L47.2222 25.494L48.0885 24.4876L49.091 24.5012L49.1568 25.3657L49.9773 25.018L49.8077 23.5453L50.7337 23.7708L50.4952 24.8316L51.2299 25.8005L52.165 26.2683L53.1085 26.1624L53.5703 26.4145L53.7219 27.3753L52.5465 27.6046L51.9211 28.9185L52.0722 30.4265L52.3183 30.9313L53.3949 30.4184L54.4816 30.5564L54.1551 31.3036L54.3295 31.954L54.1056 32.4333L54.8539 33.1055L54.3708 33.8494L54.5897 35.4503L53.7045 35.7975L52.9605 36.7088L51.9526 36.2138L51.6325 37.6663L51.9624 38.8749L51.5037 39.8073L50.7685 39.6715L50.6609 40.1165L51.507 40.7159L50.7125 41.6544L50.5185 42.3326L50.142 42.4831L50.2039 43.9329L49.7621 43.9644L49.184 45.0518L49.2823 45.3197L48.6649 46.738L48.0563 46.7217L47.6971 47.2803L47.8651 47.7123L47.3341 48.5339L46.5691 48.7111L46.4658 49.2947L46.8749 50.0017L46.5691 50.4755L47.1245 51.0488L46.6625 52.5046L44.7297 54.5446L45.3078 55.2385L45.2774 56.2596L46.2262 56.5503L45.9371 57.3773L46.2338 58.2528L45.3399 58.1077L44.8817 58.3441L43.9378 58.2169L43.1196 59.7716L42.4086 59.8096L41.3441 58.6755L40.9377 56.6351L41.3441 56.4275L40.4367 55.2401L40.2753 56.021L38.9613 55.9205L38.1266 56.7704L37.6001 56.7867L37.5333 55.984L37.1523 55.3227L37.755 55.0988L38.3576 54.4L38.3027 53.9398L37.4284 53.0687L36.9556 53.1035L36.6752 54.0566L36.0139 55.1766L35.9611 55.9118L35.4184 56.0259L34.9336 55.4624L34.4243 55.4645L34.3537 54.7418L33.456 54.825L32.7622 55.1222L31.8818 54.7636L31.5569 53.799L30.0533 52.428L28.2442 51.8672L28.1568 51.326L27.5916 51.3955L27.0997 51.8819L26.8195 51.3314L26.6754 50.2049L26.857 49.6148L25.8202 49.3545L25.2963 48.5861L24.3844 47.9943L24.2942 46.7304L23.6779 46.7967L23.603 49.5403L23.1661 49.8305L22.0091 49.0409L19.847 48.9909L19.8763 49.6256L19.4694 50.2375L19.0992 50.1288L18.5558 50.6462L17.3564 50.3098L16.7719 49.7816L16.3843 49.9435L15.9747 49.273L15.6155 49.9941L14.163 50.125L13.7859 49.2735L12.9668 48.2035L11.5459 48.5329L10.6395 47.4129L9.95142 47.2417L9.74181 45.705L10.0319 45.3256L9.17764 44.6649L8.42557 44.8149L7.77683 45.5919L6.70852 46.0054L6.30853 46.4228L5.10589 45.73L4.56577 45.712L4.09413 44.8746L3.37955 44.4122L3.30725 43.4466L2.96878 42.5483L3.11057 42.0261L3.76147 41.5289L2.82964 40.8648L2.44275 40.216L2.75568 39.5411L2.31771 39.0558L0.991859 38.3418L0.982074 37.4397L0.327192 37.9967L0.0577106 36.9544L0.231008 35.7611L0 35.3922L0.667983 34.9949L1.66515 35.0281L2.30461 34.7526L2.62848 35.0493L3.60293 34.958L3.83543 34.4129L5.00158 33.8434L6.33357 33.8255L6.49542 33.0147L5.99659 31.2987L6.6052 31.009L6.61764 30.2961L6.32644 29.7353L5.45215 29.3984L5.915 29.0098L5.71567 28.4643L5.94601 27.8084L5.80256 27.278L6.84318 27.2084L7.32244 26.9889L7.33438 26.2509L8.34465 25.851L8.5609 25.2386L9.49388 24.7115L9.48642 24.1724L10.1934 23.6627L10.1998 22.9932L9.90797 22.2911L10.0401 21.7374L9.30384 21.3565L9.2516 20.756L9.67763 20.193L8.97283 19.6311L8.33155 18.7003L7.70336 18.5248L7.33289 18.0939L7.31647 17.0521L6.87154 16.6446L6.75794 15.6713L6.06773 15.5784L6.54385 14.7117L5.90041 14.0857L4.12664 13.6346L3.73228 12.9652L3.12134 13.0586Z" fill="#F2F2F2" stroke="#07122B" mask="url(#path-1-inside-1_81_132)"/>
</svg>
