<svg width="50" height="38" viewBox="0 0 50 38" fill="none" xmlns="http://www.w3.org/2000/svg">
<mask id="path-1-inside-1_81_123" fill="white">
<path d="M31.7713 2.1345L32.2071 2.72902L32.3028 3.88319L33.0537 4.60594L33.1016 5.21891L32.5315 5.87752L33.833 7.07029L34.8346 7.65229L35.259 8.12993L36.0495 8.0408L36.8435 8.62226L37.8092 8.4951L38.846 8.88743L38.8465 9.52651L40.2131 9.23684L41.3821 9.86287L41.3838 10.5959L41.8277 12.5995L41.2891 12.6511L41.1213 13.3727L42.2342 13.6091L42.7254 14.7682L42.2151 15.4219L42.7688 15.848L42.6101 16.6571L42.7113 17.6276L40.9077 18.2808L40.7941 18.9992L42.533 19.4953L42.9459 20.7147L42.539 22.07L42.7819 22.4737L41.2506 23.2225L38.7085 23.3633L38.7128 23.9784L38.0603 24.7517L38.2009 25.1147L39.1753 25.4505L40.2936 27.0019L39.8697 27.5801L40.0816 28.1751L40.6952 28.2909L41.2995 28.7794L41.3685 29.1995L43.7123 29.2739L45.4804 28.2605L46.2835 28.4642L46.6281 29.2913L48.3898 30.446L48.6948 30.9585L49.4387 31.153L49.7256 31.9008L49.3566 32.8593L48.7643 32.9251L47.8296 32.4197L46.7916 32.8305L45.8565 32.7066L44.2675 33.425L43.3123 32.9897L42.0848 35.2302L41.5761 35.1031L40.8153 35.8128L39.7964 35.5851L38.6298 36.9811L37.2517 36.818L35.8616 37.393L35.3714 37.3561L33.7336 36.6605L33.2071 36.6404L33.2076 36.003L33.6031 35.4666L32.6778 35.3019L32.1348 34.9096L31.4844 34.8069L30.8567 35.1025L29.87 34.5347L28.5158 34.7569L27.7676 34.195L27.6029 33.7299L26.6329 33.2511L25.5059 33.7755L24.0333 33.4756L23.6366 34.5059L23.9882 35.3199L23.2001 35.9519L22.535 35.9133L21.8824 34.8015L21.6357 33.2702L20.7466 32.3795L20.7521 31.7595L20.28 31.272L19.3224 30.8922L19.5582 30.0516L18.848 30.1146L18.3785 29.8228L17.7846 30.1608L16.5178 30.1021L15.7049 30.3124L15.4674 29.8896L14.8361 29.6456L14.3736 30.0412L12.5076 30.5928L11.2957 29.6239L11.2799 28.5164L10.4013 27.4546L9.09223 26.896L7.99938 26.9715L7.83636 26.6938L6.58448 26.483L5.86658 26.6938L4.92215 25.7282L3.6744 26.5569L2.60825 25.6445L1.65354 25.2332L1.1698 24.7289L1.24923 24.1637L0.336313 22.1852L0.642776 21.5119L0 20.28L0.630339 19.7105L1.78339 19.692L2.18935 19.2796L1.88073 18.0586L3.0376 18.0716L3.73095 17.6477L4.66079 17.6532L5.66061 17.2293L6.44683 15.8398L7.011 15.4426L6.63323 14.9361L5.90405 14.6546L5.77902 13.6988L5.82843 12.5256L6.63174 11.8153L6.05944 11.2964L6.74898 10.315L7.30718 10.8301L7.81961 10.8872L8.71297 8.94344L9.48128 9.12055L9.69438 8.80376L10.5589 8.66355L10.9909 8.11198L11.7463 9.00915L12.5098 9.40802L12.726 8.99941L14.022 9.89711L14.616 11.574L15.9979 11.3524L15.9256 10.6242L16.7195 10.403L17.1233 9.69819L16.4923 8.46902L16.1347 8.58859L14.4573 8.19569L14.2807 7.7653L14.7867 7.1855L14.8235 6.52308L16.0636 6.55566L16.4901 6.04978L17.3069 6.397L17.6699 6.10737L18.3508 6.27146L18.4443 5.74166L19.1072 5.25477L20.1902 5.15369L20.5108 4.3826L19.8995 3.74244L18.911 3.62018L18.6214 2.96214L17.683 2.60075L17.3651 1.47266L18.1069 1.01076L18.3453 0.283661L19.2778 0L20.3033 1.00367L20.5191 1.4183L21.8177 2.57902L22.1894 3.09796L21.7096 4.51465L22.3607 4.99992L23.6278 5.41074L24.3767 4.48691L24.9913 3.36533L24.4278 2.88876L24.356 2.36327L24.9407 1.46067L25.4804 1.35093L25.4852 2.33284L26.315 1.90735L26.6633 2.09052L27.2454 3.18436L27.5692 2.70456L28.4989 2.49698L28.7745 2.80833L29.8836 3.04962L29.7884 3.97179L30.5417 3.63705L30.3438 2.78499L31.2219 1.74056L31.7713 2.1345Z"/>
</mask>
<path d="M31.7713 2.1345L32.2071 2.72902L32.3028 3.88319L33.0537 4.60594L33.1016 5.21891L32.5315 5.87752L33.833 7.07029L34.8346 7.65229L35.259 8.12993L36.0495 8.0408L36.8435 8.62226L37.8092 8.4951L38.846 8.88743L38.8465 9.52651L40.2131 9.23684L41.3821 9.86287L41.3838 10.5959L41.8277 12.5995L41.2891 12.6511L41.1213 13.3727L42.2342 13.6091L42.7254 14.7682L42.2151 15.4219L42.7688 15.848L42.6101 16.6571L42.7113 17.6276L40.9077 18.2808L40.7941 18.9992L42.533 19.4953L42.9459 20.7147L42.539 22.07L42.7819 22.4737L41.2506 23.2225L38.7085 23.3633L38.7128 23.9784L38.0603 24.7517L38.2009 25.1147L39.1753 25.4505L40.2936 27.0019L39.8697 27.5801L40.0816 28.1751L40.6952 28.2909L41.2995 28.7794L41.3685 29.1995L43.7123 29.2739L45.4804 28.2605L46.2835 28.4642L46.6281 29.2913L48.3898 30.446L48.6948 30.9585L49.4387 31.153L49.7256 31.9008L49.3566 32.8593L48.7643 32.9251L47.8296 32.4197L46.7916 32.8305L45.8565 32.7066L44.2675 33.425L43.3123 32.9897L42.0848 35.2302L41.5761 35.1031L40.8153 35.8128L39.7964 35.5851L38.6298 36.9811L37.2517 36.818L35.8616 37.393L35.3714 37.3561L33.7336 36.6605L33.2071 36.6404L33.2076 36.003L33.6031 35.4666L32.6778 35.3019L32.1348 34.9096L31.4844 34.8069L30.8567 35.1025L29.87 34.5347L28.5158 34.7569L27.7676 34.195L27.6029 33.7299L26.6329 33.2511L25.5059 33.7755L24.0333 33.4756L23.6366 34.5059L23.9882 35.3199L23.2001 35.9519L22.535 35.9133L21.8824 34.8015L21.6357 33.2702L20.7466 32.3795L20.7521 31.7595L20.28 31.272L19.3224 30.8922L19.5582 30.0516L18.848 30.1146L18.3785 29.8228L17.7846 30.1608L16.5178 30.1021L15.7049 30.3124L15.4674 29.8896L14.8361 29.6456L14.3736 30.0412L12.5076 30.5928L11.2957 29.6239L11.2799 28.5164L10.4013 27.4546L9.09223 26.896L7.99938 26.9715L7.83636 26.6938L6.58448 26.483L5.86658 26.6938L4.92215 25.7282L3.6744 26.5569L2.60825 25.6445L1.65354 25.2332L1.1698 24.7289L1.24923 24.1637L0.336313 22.1852L0.642776 21.5119L0 20.28L0.630339 19.7105L1.78339 19.692L2.18935 19.2796L1.88073 18.0586L3.0376 18.0716L3.73095 17.6477L4.66079 17.6532L5.66061 17.2293L6.44683 15.8398L7.011 15.4426L6.63323 14.9361L5.90405 14.6546L5.77902 13.6988L5.82843 12.5256L6.63174 11.8153L6.05944 11.2964L6.74898 10.315L7.30718 10.8301L7.81961 10.8872L8.71297 8.94344L9.48128 9.12055L9.69438 8.80376L10.5589 8.66355L10.9909 8.11198L11.7463 9.00915L12.5098 9.40802L12.726 8.99941L14.022 9.89711L14.616 11.574L15.9979 11.3524L15.9256 10.6242L16.7195 10.403L17.1233 9.69819L16.4923 8.46902L16.1347 8.58859L14.4573 8.19569L14.2807 7.7653L14.7867 7.1855L14.8235 6.52308L16.0636 6.55566L16.4901 6.04978L17.3069 6.397L17.6699 6.10737L18.3508 6.27146L18.4443 5.74166L19.1072 5.25477L20.1902 5.15369L20.5108 4.3826L19.8995 3.74244L18.911 3.62018L18.6214 2.96214L17.683 2.60075L17.3651 1.47266L18.1069 1.01076L18.3453 0.283661L19.2778 0L20.3033 1.00367L20.5191 1.4183L21.8177 2.57902L22.1894 3.09796L21.7096 4.51465L22.3607 4.99992L23.6278 5.41074L24.3767 4.48691L24.9913 3.36533L24.4278 2.88876L24.356 2.36327L24.9407 1.46067L25.4804 1.35093L25.4852 2.33284L26.315 1.90735L26.6633 2.09052L27.2454 3.18436L27.5692 2.70456L28.4989 2.49698L28.7745 2.80833L29.8836 3.04962L29.7884 3.97179L30.5417 3.63705L30.3438 2.78499L31.2219 1.74056L31.7713 2.1345Z" fill="#F2F2F2" stroke="#07122B" mask="url(#path-1-inside-1_81_123)"/>
</svg>
