<svg width="15" height="22" viewBox="0 0 15 22" fill="none" xmlns="http://www.w3.org/2000/svg">
<path d="M2.93555 0.529297L2.91895 0.613281L2.95703 0.689453L3.69824 2.16895L3.74121 2.25586L3.83105 2.29102L4.94141 2.71875L4.99023 2.7373L5.04395 2.73438L5.6123 2.70508L6.02539 3.09473L6.07227 3.13965L6.13672 3.15625L6.7959 3.31934L7.75391 3.98145L7.77148 3.99316L7.79102 4.00293L9.28906 4.69336L10.0791 5.59961L9.76172 6.35449L9.71973 6.4541L9.76367 6.55273L10.2012 7.54004L9.98633 8.81934L9.97559 8.87988L9.99512 8.93848L10.0889 9.22852L9.60449 9.25391L9.38281 9.26465L9.36816 9.48633L9.32422 10.1406L9.02734 10.4512L8.95801 10.5234L8.95703 10.624L8.95605 11.5V11.5625L8.98535 11.6182L9.54883 12.6709L9.67285 12.9023L9.89746 12.7676L10.5146 12.3975L11.335 12.3828L11.9473 12.7949L12.2148 13.7354L12.2432 13.8359L12.334 13.8857L12.625 14.0469L12.6748 14.9189L12.6807 15.0391L12.7783 15.1084L13.751 15.8027L13.8643 16.5781L13.5732 17.3457L13.04 17.6963L11.6465 17.8359L10.4512 17.5781L10.0566 17.248L9.94043 17.1504L9.7998 17.209L8.36621 17.8057L8.20898 17.8711L8.21191 18.041L8.22754 18.9688L8.22852 19.0732L8.30371 19.1455L8.75293 19.5762L8.79395 20.0576L8.52148 20.2656L7.86621 20.3086L7.69141 20.3193L7.6416 20.4883L7.53223 20.8652L6.94922 21.0078L6.62012 19.8359L6.59277 19.7402L6.50879 19.6895L6.30371 19.5654L5.87891 18.1377L6.22852 17.9883L6.35352 18.5117L6.40918 18.7471L6.64746 18.6982L7.12598 18.5996L7.31738 18.5596L7.3252 18.3652L7.37207 17.2051L7.37695 17.0908L7.29395 17.0127L6.67383 16.4297L6.62109 16.3809L6.55078 16.3662L6.19824 16.2969L6.06641 15.6885L6.05859 15.6504L6.03906 15.6162L5.5791 14.8203L5.53906 14.749L5.46387 14.7158L4.78711 14.416L4.68945 14.373L4.59082 14.4141L3.80566 14.7373L2.38086 14.7891L2.14746 14.248L2.50293 13.543L2.60742 13.334L2.40625 13.2148L1.875 12.9004L1.37402 11.5664L1.35156 11.5068L1.30371 11.4648L1.12891 11.3145L1.83398 10.4502L1.93652 10.3242L1.86328 10.1787L0.984375 8.44629L1.18164 7.57324L1.19434 7.5166L1.18066 7.45996L0.84375 6.04102L0.830078 5.98438L0.792969 5.93945L0.25293 5.28711L0.291992 4.17969L1.30566 2.37012L2.15332 1.77441L2.21289 1.73242L2.24023 1.66602L2.64844 0.678711L2.94043 0.50293L2.93555 0.529297Z" fill="#F2F2F2" stroke="#07122B" stroke-width="0.5"/>
</svg>
