<svg width="25" height="28" viewBox="0 0 25 28" fill="none" xmlns="http://www.w3.org/2000/svg">
<mask id="path-1-inside-1_81_100" fill="white">
<path d="M11.4821 0L11.7224 0.553733L12.2353 0.853697L12.9826 0.770013L13.6308 1.70413L14.722 2.55294L14.9523 1.52915L16.2805 2.12309L16.7424 1.67479L16.7961 3.13057L17.3211 3.19904L17.9367 2.76812L18.4432 3.10938L19.3365 2.84203L19.6625 3.02733L20.8255 2.69368L21.6726 2.28503L22.1347 2.61977L22.2079 3.30175L22.7013 4.25271L23.5474 4.90643L24.2066 4.70048L24.7054 5.42104L23.8973 6.04867L23.3137 5.82805L22.7927 6.64153L23.3263 7.05887L23.0872 8.0294L22.1361 8.20274L23.0595 9.20262L23.1806 9.60473L22.823 10.4247L22.2428 10.6926L22.2943 11.912L21.7846 12.5381L21.9655 13.0065L21.6199 13.7113L21.7221 14.4883L22.122 15.0752L21.9416 16.043L21.6222 16.255L21.8232 17.088L21.827 18.1335L21.5721 18.7199L21.7433 19.2986L22.1884 19.4154L22.5862 20.1007L22.3633 20.6816L20.6022 21.4885L21.0081 21.8803L19.7761 22.3542L19.248 23.1389L18.9307 24.4305L18.2959 24.4843L17.6455 25.0201L17.9835 25.3576L17.877 25.6249L16.3266 26.0113L15.481 24.9794L14.659 24.8115L14.0242 26.0618L12.9678 25.6896L12.5477 26.3901L12.2136 24.8397L11.6038 24.8778L10.7708 24.1925L10.0595 24.7082L9.79968 25.8635L8.72491 25.7266L8.86835 26.2792L7.19956 26.6699L6.98762 26.0901L6.06608 26.8509L5.06991 26.7552L4.63243 27.3584L4.04455 27.1014L2.90112 27.2356L2.12418 27.1503L1.6285 26.0287L2.36 25.4712L2.48122 24.9272L1.96863 24.2077L2.13993 23.4013L2.54424 22.7101L2.25834 22.052L2.29101 20.9821L1.05255 20.6212L0.398833 20.2506L0.945425 19.5263L0.764499 18.6824L0.2592 17.7504L0 16.8614L0.649907 16.4761L0.677601 15.7251L1.12867 14.4172L1.89864 13.5347L0.700321 12.7397L0.835145 11.924L3.28751 12.3278L3.7608 12.1865L3.9603 10.9453L4.4467 10.4394L4.40922 9.52268L5.37637 8.96134L4.85797 8.64345L4.42597 7.84627L3.57059 6.92084L4.17224 6.64207L4.38252 5.41886L4.81668 4.96186L5.66442 4.80916L6.08233 5.11293L6.84417 4.09675L7.25876 2.97734L6.76109 2.28394L7.15279 2.05789L8.11082 2.17037L8.67002 1.29223L10.2415 0.893363L10.1508 0.0494499L11.399 0.330395L11.4821 0Z"/>
</mask>
<path d="M11.4821 0L11.7224 0.553733L12.2353 0.853697L12.9826 0.770013L13.6308 1.70413L14.722 2.55294L14.9523 1.52915L16.2805 2.12309L16.7424 1.67479L16.7961 3.13057L17.3211 3.19904L17.9367 2.76812L18.4432 3.10938L19.3365 2.84203L19.6625 3.02733L20.8255 2.69368L21.6726 2.28503L22.1347 2.61977L22.2079 3.30175L22.7013 4.25271L23.5474 4.90643L24.2066 4.70048L24.7054 5.42104L23.8973 6.04867L23.3137 5.82805L22.7927 6.64153L23.3263 7.05887L23.0872 8.0294L22.1361 8.20274L23.0595 9.20262L23.1806 9.60473L22.823 10.4247L22.2428 10.6926L22.2943 11.912L21.7846 12.5381L21.9655 13.0065L21.6199 13.7113L21.7221 14.4883L22.122 15.0752L21.9416 16.043L21.6222 16.255L21.8232 17.088L21.827 18.1335L21.5721 18.7199L21.7433 19.2986L22.1884 19.4154L22.5862 20.1007L22.3633 20.6816L20.6022 21.4885L21.0081 21.8803L19.7761 22.3542L19.248 23.1389L18.9307 24.4305L18.2959 24.4843L17.6455 25.0201L17.9835 25.3576L17.877 25.6249L16.3266 26.0113L15.481 24.9794L14.659 24.8115L14.0242 26.0618L12.9678 25.6896L12.5477 26.3901L12.2136 24.8397L11.6038 24.8778L10.7708 24.1925L10.0595 24.7082L9.79968 25.8635L8.72491 25.7266L8.86835 26.2792L7.19956 26.6699L6.98762 26.0901L6.06608 26.8509L5.06991 26.7552L4.63243 27.3584L4.04455 27.1014L2.90112 27.2356L2.12418 27.1503L1.6285 26.0287L2.36 25.4712L2.48122 24.9272L1.96863 24.2077L2.13993 23.4013L2.54424 22.7101L2.25834 22.052L2.29101 20.9821L1.05255 20.6212L0.398833 20.2506L0.945425 19.5263L0.764499 18.6824L0.2592 17.7504L0 16.8614L0.649907 16.4761L0.677601 15.7251L1.12867 14.4172L1.89864 13.5347L0.700321 12.7397L0.835145 11.924L3.28751 12.3278L3.7608 12.1865L3.9603 10.9453L4.4467 10.4394L4.40922 9.52268L5.37637 8.96134L4.85797 8.64345L4.42597 7.84627L3.57059 6.92084L4.17224 6.64207L4.38252 5.41886L4.81668 4.96186L5.66442 4.80916L6.08233 5.11293L6.84417 4.09675L7.25876 2.97734L6.76109 2.28394L7.15279 2.05789L8.11082 2.17037L8.67002 1.29223L10.2415 0.893363L10.1508 0.0494499L11.399 0.330395L11.4821 0Z" fill="#F2F2F2" stroke="#07122B" mask="url(#path-1-inside-1_81_100)"/>
</svg>
