<svg width="7" height="13" viewBox="0 0 7 13" fill="none" xmlns="http://www.w3.org/2000/svg">
<path d="M6.58594 0.579102L6.66602 1.22559L6.01367 1.90625L5.91309 2.01172L5.95508 2.15039L6.125 2.72656L5.02637 3.40625L4.97656 3.43652L4.94629 3.48633L4.73438 3.82324L4.21777 3.72559L4.12305 3.70801L4.04102 3.75781L3.05273 4.36133L2.97363 4.41016L2.94531 4.49805L2.65332 5.39746L2.58496 5.61133L2.78906 5.70312L3.65723 6.0918L3.79199 6.58496L3.83496 6.74219L3.99707 6.76562L4.84082 6.8916L6.55371 7.65332L6.13867 9.05273L6.10352 9.1709L6.17676 9.27148L6.35156 9.51074L5.77539 10.8633L5.70312 11.0332L5.84473 11.1523L6.17188 11.4268L6.06152 11.918L5.31055 11.333L4.68555 10.4316L4.60059 10.3096L4.45215 10.3262L3.78613 10.3994L3.41602 10.1826L3.20898 9.70508L3.19824 9.68066L3.18359 9.66016L2.30273 8.41211L2.21973 8.29492L2.07617 8.30762L1.56348 8.35352L1.38477 7.62402L1.34668 7.46582L1.18652 7.4375L0.435547 7.30078L0.253906 6.13672L0.574219 4.80176L0.607422 4.66309L0.504883 4.56348L0.445312 4.50586L1.30176 3.04492L2.13574 2.59961L2.16602 2.58398L2.19043 2.56055L3.30957 1.49609L4.62988 0.491211L5.35449 0.259766L6.58594 0.579102Z" fill="#F2F2F2" stroke="#07122B" stroke-width="0.5"/>
</svg>
