<svg width="12" height="12" viewBox="0 0 12 12" fill="none" xmlns="http://www.w3.org/2000/svg">
<path d="M10.4502 1.17871L10.3945 1.55371L10.0029 1.55664L9.5459 1.55957L9.79395 1.94238L10.9297 3.69434L11.21 4.53027L10.8008 4.94336L10.708 5.03711L10.7334 5.16699L10.8535 5.78516L10.6143 6.34082L9.9375 6.58984L9.73828 6.66309L9.77832 6.87207L9.96387 7.83398L9.97266 7.87695L9.99414 7.91406L10.4033 8.60449L10.3535 8.625L10.1123 8.71875L10.2158 8.95703L10.8213 10.3555L10.835 11.0205L10.5283 10.8545L10.5078 10.4863L10.5 10.3672L10.4033 10.2979L7.52344 8.23828L7.45312 8.1875L7.36621 8.19141L6.47363 8.23633L6.40234 8.23926L6.34375 8.28027L5.6748 8.74121L4.85645 8.81934L4.77637 7.77246L4.77051 7.69824L4.72559 7.63965L4.23242 6.99023L4.10547 6.2998L4.08398 6.18066L3.97754 6.12402L3.56836 5.90625L3.50879 5.87402L3.44043 5.87695L1.25586 5.96387L1.12695 5.5293L1.76172 4.86816L1.84375 4.78223L1.8291 4.66406L1.71289 3.73047L1.69238 3.5625L1.52734 3.51953L0.324219 3.20703L0.438477 2.87402L1.45898 3.36914L1.67676 3.47461L1.79004 3.26074L2.13672 2.59863L2.64062 2.35742L3.33008 2.49609L4.11914 3.28027L4.21973 3.38086L4.3584 3.3457L5.02734 3.1709L6.06836 3.36523L6.21387 3.39258L6.30762 3.27734L6.66895 2.83008L8.37695 1.85352L8.44238 1.81543L8.47656 1.74805L9.0752 0.549805L9.7373 0.311523L10.0947 0.269531L10.4502 1.17871Z" fill="#F2F2F2" stroke="#07122B" stroke-width="0.5"/>
</svg>
