<svg width="12" height="10" viewBox="0 0 12 10" fill="none" xmlns="http://www.w3.org/2000/svg">
<path d="M9.35742 2.19336L9.38086 2.58203L9.38867 2.72168L9.51172 2.78711L10.2412 3.18164L10.4521 3.66504L10.0957 4.21973L10.0518 4.28906L10.0566 4.37109L10.0986 5.03613L10.1191 5.34668L10.418 5.25977L10.8477 5.13574L10.9512 5.41211L10.7764 5.45801L10.6328 5.49512L10.5967 5.63965L10.2803 6.91309L9.39648 8.23828L9.34766 8.31152L9.35547 8.39941L9.43066 9.26562L9.08789 9.37305L8.38965 8.83398L7.94238 7.9707L7.875 7.33789L7.86328 7.22656L7.77246 7.16211L7.31055 6.82715L7.19043 6.73926L7.05566 6.80469L6.22656 7.2041L5.18457 7.50195L4.95117 7.36914L4.8584 7.31641L4.75684 7.34668L3.97559 7.58008L3.56836 7.30566L3.42578 7.20898L3.28516 7.30762L2.74805 7.68262L2.52832 7.65332L2.4834 6.41016L2.46289 5.84863L2.05957 6.24023L1.71875 6.57031L0.578125 6.06055L0.301758 5.8291L0.861328 4.5166L0.916992 4.38672L0.833984 4.27148L0.647461 4.01562L1.03418 2.71387L2.00684 2.75879L2.0752 2.76172L2.13477 2.73047L3.46191 2.02832L4.63281 2.61133L4.69043 2.64062L4.75586 2.6377L5.69336 2.59277L5.91992 2.58105L5.93164 2.35547L5.99609 1.0957L6.00684 0.896484L5.81445 0.842773L5.31445 0.702148L5.91016 0.290039L6.64648 0.253906L9.35742 2.19336Z" fill="#F2F2F2" stroke="#07122B" stroke-width="0.5"/>
</svg>
