<svg width="37" height="19" viewBox="0 0 37 19" fill="none" xmlns="http://www.w3.org/2000/svg">
<mask id="path-1-inside-1_81_156" fill="white">
<path d="M0 8.71137L0.537968 8.23969L0.316247 7.7941L0.770967 6.87465L1.61772 5.81718L1.62518 4.93196L1.86 4.56245L2.10013 3.13328L2.48271 1.79541L2.3323 1.45524L3.51802 0L4.44603 0.179869L4.59495 1.20691L3.94289 1.58295L4.82381 2.27362L4.83243 2.90886L5.37687 3.25827L6.18548 2.72138L7.1518 2.6665L7.57285 3.17241L8.02823 2.97352L8.70484 3.51965L9.86718 3.43543L10.3491 3.79842L11.9217 3.2436L12.9374 3.32185L13.4379 2.7366L14.0721 3.14307L14.5893 3.10775L15.211 2.4562L17.0808 1.59164L17.7792 1.54002L17.6944 2.17634L18.5068 2.55944L19.1296 2.18776L20.4945 3.01483L20.4468 3.72723L22.4297 2.96754L23.0491 3.7419L22.4035 4.41301L23.7643 4.49616L24.9723 4.08969L24.92 3.75929L25.9568 2.62466L27.1676 3.9522L27.655 4.79231L28.0958 4.12121L28.8304 4.68362L29.6402 4.5092L30.6617 4.87599L30.4672 5.54275L31.793 5.46722L31.9343 5.85684L32.8071 6.21006L32.4783 7.10832L33.9933 7.4925L34.069 6.35407L34.7542 6.76053L34.9743 7.54249L35.7583 7.93647L36.1719 8.59128L35.4583 9.67972L36.0882 10.2845L35.3986 10.8644L35.2747 11.4751L34.5444 11.7963L34.8144 12.5174L34.0275 12.7994L33.3842 14.0868L31.6372 15.0866L31.2453 15.5703L30.1509 15.3659L29.4266 15.554L28.5836 14.716L27.7399 14.5459L27.0855 14.8595L26.6998 15.5947L25.4265 14.9774L25.1315 15.8322L24.2963 16.099L22.9318 17.1369L21.8015 18.2112L21.9726 17.4635L21.7559 16.7163L22.0008 15.9012L20.97 15.6382L21.0146 15.035L20.5771 14.14L18.8599 13.4624L19.0806 12.4006L18.4747 12.5935L17.5297 12.2604L16.2185 12.944L14.8528 12.8282L14.1263 11.9088L13.4471 11.987L13.0907 11.6545L12.1229 11.8588L11.1816 10.7524L10.1095 11.1909L10.0529 11.9849L9.22805 11.7485L9.21279 10.7443L9.43999 9.85252L8.13304 8.76734L6.93107 9.03959L7.03704 9.47268L6.46491 9.89436L5.4694 9.82861L5.23508 10.3856L4.52049 10.246L4.19877 10.5671L3.10277 9.90795L3.27342 9.46073L2.59299 8.82222L1.83712 8.51031L0 8.71137Z"/>
</mask>
<path d="M0 8.71137L0.537968 8.23969L0.316247 7.7941L0.770967 6.87465L1.61772 5.81718L1.62518 4.93196L1.86 4.56245L2.10013 3.13328L2.48271 1.79541L2.3323 1.45524L3.51802 0L4.44603 0.179869L4.59495 1.20691L3.94289 1.58295L4.82381 2.27362L4.83243 2.90886L5.37687 3.25827L6.18548 2.72138L7.1518 2.6665L7.57285 3.17241L8.02823 2.97352L8.70484 3.51965L9.86718 3.43543L10.3491 3.79842L11.9217 3.2436L12.9374 3.32185L13.4379 2.7366L14.0721 3.14307L14.5893 3.10775L15.211 2.4562L17.0808 1.59164L17.7792 1.54002L17.6944 2.17634L18.5068 2.55944L19.1296 2.18776L20.4945 3.01483L20.4468 3.72723L22.4297 2.96754L23.0491 3.7419L22.4035 4.41301L23.7643 4.49616L24.9723 4.08969L24.92 3.75929L25.9568 2.62466L27.1676 3.9522L27.655 4.79231L28.0958 4.12121L28.8304 4.68362L29.6402 4.5092L30.6617 4.87599L30.4672 5.54275L31.793 5.46722L31.9343 5.85684L32.8071 6.21006L32.4783 7.10832L33.9933 7.4925L34.069 6.35407L34.7542 6.76053L34.9743 7.54249L35.7583 7.93647L36.1719 8.59128L35.4583 9.67972L36.0882 10.2845L35.3986 10.8644L35.2747 11.4751L34.5444 11.7963L34.8144 12.5174L34.0275 12.7994L33.3842 14.0868L31.6372 15.0866L31.2453 15.5703L30.1509 15.3659L29.4266 15.554L28.5836 14.716L27.7399 14.5459L27.0855 14.8595L26.6998 15.5947L25.4265 14.9774L25.1315 15.8322L24.2963 16.099L22.9318 17.1369L21.8015 18.2112L21.9726 17.4635L21.7559 16.7163L22.0008 15.9012L20.97 15.6382L21.0146 15.035L20.5771 14.14L18.8599 13.4624L19.0806 12.4006L18.4747 12.5935L17.5297 12.2604L16.2185 12.944L14.8528 12.8282L14.1263 11.9088L13.4471 11.987L13.0907 11.6545L12.1229 11.8588L11.1816 10.7524L10.1095 11.1909L10.0529 11.9849L9.22805 11.7485L9.21279 10.7443L9.43999 9.85252L8.13304 8.76734L6.93107 9.03959L7.03704 9.47268L6.46491 9.89436L5.4694 9.82861L5.23508 10.3856L4.52049 10.246L4.19877 10.5671L3.10277 9.90795L3.27342 9.46073L2.59299 8.82222L1.83712 8.51031L0 8.71137Z" fill="#F2F2F2" stroke="#07122B" mask="url(#path-1-inside-1_81_156)"/>
</svg>
