<svg width="14" height="21" viewBox="0 0 14 21" fill="none" xmlns="http://www.w3.org/2000/svg">
<path d="M3.76172 17.3203L2.89453 18.3906L2.79688 18.5107L2.86133 18.6523L3.01465 18.9893L3.05566 19.0762L3.14355 19.1143L3.69629 19.3525L2.83691 19.8018L2.64551 19.3945L2.60742 19.3125L2.52539 19.2744L1.64551 18.8613L1.55176 18.8164L1.4541 18.8525L1.09277 18.9824L1.02246 18.7783L1.29883 18.5938L1.98535 18.5752L2.12402 18.5713L2.19434 18.4512L2.70312 17.5752L3.79785 17.1338L3.76172 17.3203ZM3.32227 0.889648L3.36523 0.96875L3.44922 1.00195L4.04883 1.24023L3.90527 2.1875L3.82422 2.72266L4.28418 2.4375L5.31348 1.7998L5.83301 1.82617L6.69629 2.32324L6.79492 3.11523L6.81445 3.27148L6.96289 3.32227L7.66895 3.56055L7.47559 4.31543L7.44043 4.45312L7.54004 4.55371L8.0293 5.0459L8.14453 6.02832L8.06836 6.94043L8.04199 7.25L8.35059 7.20898L9.92676 6.99609L10.5371 7.27441L10.6328 7.31738L10.7305 7.2793L11.2891 7.06348L11.5801 7.25195L11.6709 7.31152L11.7764 7.28516L13.1377 6.94727L13.2256 6.97266L13.1943 8.51465L13.0547 8.95215L12.6016 9.08984L12.2725 9.18945L12.4688 9.47168L12.5781 9.62988L12.0264 9.59473L11.9717 9.5918L11.9219 9.61035L10.877 10.0049L10.7842 10.04L10.7402 10.1299L10.1201 11.4062L10.0254 11.6025L10.2061 11.7236L11.0146 12.2666L10.6758 13.0381L10.2285 13.4121L10.1553 13.4736L10.1406 13.5684L9.95508 14.8379L9.54883 15.1758L8.45508 14.5303L8.11621 14.3301L8.0791 14.7217L8.03516 15.165L7.67676 15.2969L7.77637 14.7656L7.80566 14.6074L7.6748 14.5156L7.34473 14.2832L7.27344 14.2334L7.1875 14.2383L6.0625 14.2979L5.83398 14.3096L5.82617 14.5381L5.7832 15.707L5.53613 15.9219L4.30566 15.7383L4.06836 15.7031L4.05469 15.7725L3.38574 15.6143L3.32422 15.3838L3.625 14.7988L3.65137 14.749L3.65234 14.6924L3.6748 14.0312L3.67676 13.9668L3.64746 13.9092L3.25 13.1328L3.18262 13.002L3.03613 12.9971L2.95508 12.9941L3.0332 12.3125L3.44922 11.5303L3.53711 11.3652L3.4043 11.2344L3.08496 10.9199L3.00684 10.8438L2.89746 10.8486L1.8125 10.9023L0.854492 10.3174L1.11719 9.59082L1.14258 9.52148L1.12598 9.4502L0.943359 8.65332L0.915039 8.52832L0.795898 8.47852L0.454102 8.33496L0.650391 7.8125L0.683594 7.72266L0.648438 7.63281L0.254883 6.63281L0.294922 6.23633L1.64941 6.1709L1.93457 6.15723L1.88281 5.87598L1.74805 5.14355L1.81055 4.00879L2.32715 4.81836L2.44824 5.00684L2.64941 4.9082L3.42383 4.52539L3.5127 4.48145L3.54785 4.38867L3.82227 3.65137L3.83887 3.60449L3.83789 3.55566L3.78711 2.13672L3.77832 1.88965L3.53125 1.89648L2.64551 1.91797L1.85059 1.69141L1.79199 1.49512L2.65625 0.396484L2.99609 0.295898L3.32227 0.889648Z" fill="#F2F2F2" stroke="#07122B" stroke-width="0.5"/>
</svg>
