<svg width="18" height="19" viewBox="0 0 18 19" fill="none" xmlns="http://www.w3.org/2000/svg">
<mask id="path-1-inside-1_93_97" fill="white">
<path d="M16.0566 1.15039L15.959 1.80273L15.3525 1.80664L16.5049 3.58496L16.8457 4.59863L16.3271 5.11914L16.4629 5.81348L16.1504 6.53906L15.373 6.82422L15.5586 7.78711L16.1172 8.73047L15.793 8.85742L16.4199 10.3018L16.4424 11.4443L15.6367 11.0088L15.6064 10.501L15.6357 11.0088L16.4424 11.4443L16.7412 12.1289L16.3125 12.7969L16.3545 13.4609L17.0068 13.2734L17.2891 14.0254L16.8447 14.1406L16.5195 15.4551L15.6104 16.8184L15.7041 17.8857L15.0449 18.0918L14.1992 17.4385L13.7051 16.4873L13.6318 15.8057L13.1699 15.4707L12.3232 15.8789L11.1602 16.2129L10.834 16.0273L9.94043 16.2949L9.43457 15.9541L8.81836 16.3848L8.29395 16.3164L8.24023 14.8604L7.77832 15.3086L6.4502 14.7148L6.00586 14.3428L6.44922 14.7148L6.21973 15.7383L5.12793 14.8896L4.47949 13.9561L3.73242 14.0391L3.21973 13.7393L2.97949 13.1855L2.09863 11.9385L1.37207 12.0039L1.14258 11.0645L0.21582 10.8965L0 9.50879L0.331055 8.125L0.129883 7.93066L1.12305 6.24023L2.01855 5.76074L3.14844 4.68652L4.5127 3.64844L5.34863 3.38184L5.64355 2.52637L6.91699 3.14453L7.30273 2.40918L7.95703 2.0957L8.80078 2.26562L9.64355 3.10352L10.3682 2.91504L11.4619 3.12012L11.8545 2.63574L13.6016 1.63574L14.2441 0.348633L15.0312 0.0664062L15.6064 0L16.0566 1.15039ZM4.0332 9.90039L4.91309 10.0322H4.91406L4.03418 9.90039H4.0332ZM9.34473 7.09375H9.3457H9.34473Z"/>
</mask>
<path d="M16.0566 1.15039L15.959 1.80273L15.3525 1.80664L16.5049 3.58496L16.8457 4.59863L16.3271 5.11914L16.4629 5.81348L16.1504 6.53906L15.373 6.82422L15.5586 7.78711L16.1172 8.73047L15.793 8.85742L16.4199 10.3018L16.4424 11.4443L15.6367 11.0088L15.6064 10.501L15.6357 11.0088L16.4424 11.4443L16.7412 12.1289L16.3125 12.7969L16.3545 13.4609L17.0068 13.2734L17.2891 14.0254L16.8447 14.1406L16.5195 15.4551L15.6104 16.8184L15.7041 17.8857L15.0449 18.0918L14.1992 17.4385L13.7051 16.4873L13.6318 15.8057L13.1699 15.4707L12.3232 15.8789L11.1602 16.2129L10.834 16.0273L9.94043 16.2949L9.43457 15.9541L8.81836 16.3848L8.29395 16.3164L8.24023 14.8604L7.77832 15.3086L6.4502 14.7148L6.00586 14.3428L6.44922 14.7148L6.21973 15.7383L5.12793 14.8896L4.47949 13.9561L3.73242 14.0391L3.21973 13.7393L2.97949 13.1855L2.09863 11.9385L1.37207 12.0039L1.14258 11.0645L0.21582 10.8965L0 9.50879L0.331055 8.125L0.129883 7.93066L1.12305 6.24023L2.01855 5.76074L3.14844 4.68652L4.5127 3.64844L5.34863 3.38184L5.64355 2.52637L6.91699 3.14453L7.30273 2.40918L7.95703 2.0957L8.80078 2.26562L9.64355 3.10352L10.3682 2.91504L11.4619 3.12012L11.8545 2.63574L13.6016 1.63574L14.2441 0.348633L15.0312 0.0664062L15.6064 0L16.0566 1.15039ZM4.0332 9.90039L4.91309 10.0322H4.91406L4.03418 9.90039H4.0332ZM9.34473 7.09375H9.3457H9.34473Z" fill="#F2F2F2"/>
<path d="M16.0566 1.15039L16.5511 1.22442L16.5709 1.09244L16.5223 0.968176L16.0566 1.15039ZM15.959 1.80273L15.9622 2.30272L16.3901 2.29997L16.4535 1.87676L15.959 1.80273ZM15.3525 1.80664L15.3493 1.30665L14.4366 1.31253L14.9329 2.07854L15.3525 1.80664ZM16.5049 3.58496L16.9788 3.42561L16.9587 3.36592L16.9245 3.31306L16.5049 3.58496ZM16.8457 4.59863L17.1999 4.95152L17.4182 4.73243L17.3196 4.43929L16.8457 4.59863ZM16.3271 5.11914L15.9729 4.76625L15.7855 4.95441L15.8364 5.21507L16.3271 5.11914ZM16.4629 5.81348L16.9221 6.01126L16.9833 5.86927L16.9536 5.71754L16.4629 5.81348ZM16.1504 6.53906L16.3226 7.00848L16.5245 6.9344L16.6096 6.73684L16.1504 6.53906ZM15.373 6.82422L15.2009 6.35481L14.8016 6.50126L14.8821 6.91883L15.373 6.82422ZM15.5586 7.78711L15.0676 7.88172L15.0841 7.96707L15.1284 8.04186L15.5586 7.78711ZM16.1172 8.73047L16.2995 9.19605L16.847 8.98166L16.5474 8.47571L16.1172 8.73047ZM15.793 8.85742L15.6107 8.39184L15.1279 8.58089L15.3343 9.05651L15.793 8.85742ZM16.4199 10.3018L16.9198 10.2919L16.9179 10.1932L16.8786 10.1027L16.4199 10.3018ZM15.6367 11.0088L15.1376 11.0385L15.1542 11.3163L15.3989 11.4486L15.6367 11.0088ZM15.6064 10.501L16.1056 10.4712L15.1073 10.5298L15.6064 10.501ZM15.6357 11.0088L15.1366 11.0376L15.1526 11.3162L15.3982 11.4488L15.6357 11.0088ZM16.7412 12.1289L17.162 12.399L17.3064 12.1739L17.1995 11.9289L16.7412 12.1289ZM16.3125 12.7969L15.8917 12.5268L15.8031 12.6648L15.8135 12.8284L16.3125 12.7969ZM16.3545 13.4609L15.8555 13.4925L15.8947 14.1133L16.4926 13.9415L16.3545 13.4609ZM17.0068 13.2734L17.475 13.0977L17.3126 12.6653L16.8687 12.7929L17.0068 13.2734ZM17.2891 14.0254L17.4146 14.5094L17.9524 14.3699L17.7572 13.8497L17.2891 14.0254ZM16.8447 14.1406L16.7192 13.6566L16.4309 13.7314L16.3594 14.0205L16.8447 14.1406ZM16.5195 15.4551L16.9355 15.7325L16.9839 15.6599L17.0049 15.5752L16.5195 15.4551ZM15.6104 16.8184L15.1944 16.5409L15.0969 16.6871L15.1123 16.8621L15.6104 16.8184ZM15.7041 17.8857L15.8533 18.363L16.2374 18.2429L16.2022 17.842L15.7041 17.8857ZM15.0449 18.0918L14.7393 18.4875L14.9454 18.6468L15.1941 18.569L15.0449 18.0918ZM14.1992 17.4385L13.7555 17.669L13.8063 17.7668L13.8935 17.8342L14.1992 17.4385ZM13.7051 16.4873L13.2079 16.5407L13.218 16.6343L13.2614 16.7178L13.7051 16.4873ZM13.6318 15.8057L14.129 15.7522L14.1052 15.5313L13.9254 15.4009L13.6318 15.8057ZM13.1699 15.4707L13.4634 15.0659L13.2217 14.8906L12.9528 15.0203L13.1699 15.4707ZM12.3232 15.8789L12.4612 16.3595L12.5021 16.3478L12.5404 16.3293L12.3232 15.8789ZM11.1602 16.2129L10.9129 16.6475L11.0959 16.7516L11.2982 16.6935L11.1602 16.2129ZM10.834 16.0273L11.0812 15.5927L10.8954 15.487L10.6906 15.5484L10.834 16.0273ZM9.94043 16.2949L9.66105 16.7096L9.85724 16.8418L10.0839 16.7739L9.94043 16.2949ZM9.43457 15.9541L9.71395 15.5394L9.42939 15.3477L9.14814 15.5443L9.43457 15.9541ZM8.81836 16.3848L8.75373 16.8806L8.94592 16.9056L9.10478 16.7946L8.81836 16.3848ZM8.29395 16.3164L7.79429 16.3348L7.80988 16.7575L8.22931 16.8122L8.29395 16.3164ZM8.24023 14.8604L8.73989 14.8419L8.69847 13.719L7.89203 14.5015L8.24023 14.8604ZM7.77832 15.3086L7.57425 15.7651L7.88346 15.9033L8.12652 15.6674L7.77832 15.3086ZM6.4502 14.7148L6.12919 15.0982L6.18257 15.1429L6.24613 15.1713L6.4502 14.7148ZM6.00586 14.3428L6.32686 13.9594L5.68444 14.7258L6.00586 14.3428ZM6.44922 14.7148L6.9371 14.8242L7.00367 14.5274L6.77064 14.3318L6.44922 14.7148ZM6.21973 15.7383L5.91288 16.1331L6.53516 16.6167L6.70761 15.8477L6.21973 15.7383ZM5.12793 14.8896L4.71727 15.1749L4.76081 15.2376L4.82108 15.2844L5.12793 14.8896ZM4.47949 13.9561L4.89015 13.6708L4.72027 13.4262L4.42428 13.4591L4.47949 13.9561ZM3.73242 14.0391L3.48003 14.4707L3.62301 14.5543L3.78764 14.536L3.73242 14.0391ZM3.21973 13.7393L2.76104 13.9383L2.82614 14.0883L2.96733 14.1709L3.21973 13.7393ZM2.97949 13.1855L3.43818 12.9865L3.41765 12.9392L3.38789 12.8971L2.97949 13.1855ZM2.09863 11.9385L2.50703 11.65L2.34078 11.4146L2.05379 11.4405L2.09863 11.9385ZM1.37207 12.0039L0.886353 12.1226L0.988443 12.5405L1.41692 12.5019L1.37207 12.0039ZM1.14258 11.0645L1.6283 10.9458L1.55124 10.6304L1.23175 10.5725L1.14258 11.0645ZM0.21582 10.8965L-0.27824 10.9733L-0.223546 11.325L0.126651 11.3885L0.21582 10.8965ZM0 9.50879L-0.486278 9.39245L-0.509201 9.48827L-0.494061 9.58563L0 9.50879ZM0.331055 8.125L0.817332 8.24134L0.883749 7.96372L0.678445 7.76539L0.331055 8.125ZM0.129883 7.93066L-0.301219 7.67738L-0.500622 8.01678L-0.217508 8.29027L0.129883 7.93066ZM1.12305 6.24023L0.88703 5.79944L0.763136 5.86578L0.691945 5.98695L1.12305 6.24023ZM2.01855 5.76074L2.25457 6.20153L2.31412 6.16965L2.36307 6.12311L2.01855 5.76074ZM3.14844 4.68652L2.84566 4.28862L2.82382 4.30524L2.80392 4.32416L3.14844 4.68652ZM4.5127 3.64844L4.36077 3.17208L4.27858 3.19829L4.20992 3.25053L4.5127 3.64844ZM5.34863 3.38184L5.50056 3.8582L5.73957 3.78197L5.82133 3.5448L5.34863 3.38184ZM5.64355 2.52637L5.8619 2.07656L5.35464 1.83032L5.17086 2.3634L5.64355 2.52637ZM6.91699 3.14453L6.69864 3.59434L7.13464 3.80598L7.35977 3.3768L6.91699 3.14453ZM7.30273 2.40918L7.0867 1.95826L6.93704 2.02996L6.85996 2.17691L7.30273 2.40918ZM7.95703 2.0957L8.05574 1.60554L7.89181 1.57253L7.74099 1.64478L7.95703 2.0957ZM8.80078 2.26562L9.15331 1.91105L9.04677 1.80513L8.89949 1.77547L8.80078 2.26562ZM9.64355 3.10352L9.29103 3.45809L9.49333 3.65923L9.76942 3.58741L9.64355 3.10352ZM10.3682 2.91504L10.4603 2.4236L10.3505 2.40301L10.2423 2.43114L10.3682 2.91504ZM11.4619 3.12012L11.3698 3.61155L11.6627 3.66648L11.8504 3.43494L11.4619 3.12012ZM11.8545 2.63574L11.6061 2.2018L11.5249 2.24826L11.4661 2.32092L11.8545 2.63574ZM13.6016 1.63574L13.8499 2.06968L13.9813 1.9945L14.0489 1.85908L13.6016 1.63574ZM14.2441 0.348633L14.0754 -0.122026L13.8864 -0.0542813L13.7968 0.125298L14.2441 0.348633ZM15.0312 0.0664062L14.9739 -0.430295L14.9167 -0.42369L14.8625 -0.404253L15.0312 0.0664062ZM15.6064 0L16.0721 -0.182215L15.9317 -0.540872L15.5491 -0.496701L15.6064 0ZM4.0332 9.90039V9.40039L3.95911 10.3949L4.0332 9.90039ZM4.91309 10.0322L4.839 10.5267L4.87584 10.5322H4.91309V10.0322ZM4.91406 10.0322V10.5322L4.98815 9.53775L4.91406 10.0322ZM4.03418 9.90039L4.10827 9.40591L4.07143 9.40039H4.03418V9.90039ZM16.0566 1.15039L15.5622 1.07637L15.4645 1.72871L15.959 1.80273L16.4535 1.87676L16.5511 1.22442L16.0566 1.15039ZM15.959 1.80273L15.9558 1.30274L15.3493 1.30665L15.3525 1.80664L15.3558 2.30663L15.9622 2.30272L15.959 1.80273ZM15.3525 1.80664L14.9329 2.07854L16.0853 3.85686L16.5049 3.58496L16.9245 3.31306L15.7721 1.53474L15.3525 1.80664ZM16.5049 3.58496L16.031 3.74431L16.3718 4.75798L16.8457 4.59863L17.3196 4.43929L16.9788 3.42561L16.5049 3.58496ZM16.8457 4.59863L16.4915 4.24574L15.9729 4.76625L16.3271 5.11914L16.6814 5.47203L17.1999 4.95152L16.8457 4.59863ZM16.3271 5.11914L15.8364 5.21507L15.9722 5.90941L16.4629 5.81348L16.9536 5.71754L16.8179 5.02321L16.3271 5.11914ZM16.4629 5.81348L16.0037 5.6157L15.6912 6.34128L16.1504 6.53906L16.6096 6.73684L16.9221 6.01126L16.4629 5.81348ZM16.1504 6.53906L15.9782 6.06965L15.2009 6.35481L15.373 6.82422L15.5452 7.29363L16.3226 7.00848L16.1504 6.53906ZM15.373 6.82422L14.8821 6.91883L15.0676 7.88172L15.5586 7.78711L16.0496 7.6925L15.864 6.72961L15.373 6.82422ZM15.5586 7.78711L15.1284 8.04186L15.687 8.98522L16.1172 8.73047L16.5474 8.47571L15.9888 7.53235L15.5586 7.78711ZM16.1172 8.73047L15.9349 8.26489L15.6107 8.39184L15.793 8.85742L15.9753 9.323L16.2995 9.19605L16.1172 8.73047ZM15.793 8.85742L15.3343 9.05651L15.9613 10.5008L16.4199 10.3018L16.8786 10.1027L16.2516 8.65833L15.793 8.85742ZM16.4199 10.3018L15.92 10.3116L15.9425 11.4542L16.4424 11.4443L16.9423 11.4345L16.9198 10.2919L16.4199 10.3018ZM16.4424 11.4443L16.6802 11.0045L15.8745 10.5689L15.6367 11.0088L15.3989 11.4486L16.2046 11.8842L16.4424 11.4443ZM15.6367 11.0088L16.1358 10.979L16.1056 10.4712L15.6064 10.501L15.1073 10.5307L15.1376 11.0385L15.6367 11.0088ZM15.6064 10.501L15.1073 10.5298L15.1366 11.0376L15.6357 11.0088L16.1349 10.98L16.1056 10.4722L15.6064 10.501ZM15.6357 11.0088L15.3982 11.4488L16.2048 11.8843L16.4424 11.4443L16.6799 11.0044L15.8733 10.5688L15.6357 11.0088ZM16.4424 11.4443L15.9841 11.6444L16.283 12.3289L16.7412 12.1289L17.1995 11.9289L16.9006 11.2443L16.4424 11.4443ZM16.7412 12.1289L16.3204 11.8588L15.8917 12.5268L16.3125 12.7969L16.7333 13.0669L17.162 12.399L16.7412 12.1289ZM16.3125 12.7969L15.8135 12.8284L15.8555 13.4925L16.3545 13.4609L16.8535 13.4294L16.8115 12.7653L16.3125 12.7969ZM16.3545 13.4609L16.4926 13.9415L17.145 13.754L17.0068 13.2734L16.8687 12.7929L16.2164 12.9804L16.3545 13.4609ZM17.0068 13.2734L16.5387 13.4491L16.8209 14.2011L17.2891 14.0254L17.7572 13.8497L17.475 13.0977L17.0068 13.2734ZM17.2891 14.0254L17.1635 13.5414L16.7192 13.6566L16.8447 14.1406L16.9702 14.6246L17.4146 14.5094L17.2891 14.0254ZM16.8447 14.1406L16.3594 14.0205L16.0342 15.335L16.5195 15.4551L17.0049 15.5752L17.3301 14.2607L16.8447 14.1406ZM16.5195 15.4551L16.1036 15.1777L15.1944 16.5409L15.6104 16.8184L16.0263 17.0958L16.9355 15.7325L16.5195 15.4551ZM15.6104 16.8184L15.1123 16.8621L15.206 17.9295L15.7041 17.8857L16.2022 17.842L16.1084 16.7746L15.6104 16.8184ZM15.7041 17.8857L15.5549 17.4085L14.8957 17.6146L15.0449 18.0918L15.1941 18.569L15.8533 18.363L15.7041 17.8857ZM15.0449 18.0918L15.3506 17.6961L14.5049 17.0428L14.1992 17.4385L13.8935 17.8342L14.7393 18.4875L15.0449 18.0918ZM14.1992 17.4385L14.6429 17.208L14.1488 16.2568L13.7051 16.4873L13.2614 16.7178L13.7555 17.669L14.1992 17.4385ZM13.7051 16.4873L14.2022 16.4339L14.129 15.7522L13.6318 15.8057L13.1347 15.8591L13.2079 16.5407L13.7051 16.4873ZM13.6318 15.8057L13.9254 15.4009L13.4634 15.0659L13.1699 15.4707L12.8764 15.8755L13.3383 16.2104L13.6318 15.8057ZM13.1699 15.4707L12.9528 15.0203L12.1061 15.4285L12.3232 15.8789L12.5404 16.3293L13.3871 15.9211L13.1699 15.4707ZM12.3232 15.8789L12.1852 15.3983L11.0222 15.7323L11.1602 16.2129L11.2982 16.6935L12.4612 16.3595L12.3232 15.8789ZM11.1602 16.2129L11.4074 15.7783L11.0812 15.5927L10.834 16.0273L10.5868 16.4619L10.9129 16.6475L11.1602 16.2129ZM10.834 16.0273L10.6906 15.5484L9.797 15.8159L9.94043 16.2949L10.0839 16.7739L10.9774 16.5063L10.834 16.0273ZM9.94043 16.2949L10.2198 15.8803L9.71395 15.5394L9.43457 15.9541L9.15519 16.3688L9.66105 16.7096L9.94043 16.2949ZM9.43457 15.9541L9.14814 15.5443L8.53193 15.9749L8.81836 16.3848L9.10478 16.7946L9.721 16.3639L9.43457 15.9541ZM8.81836 16.3848L8.88299 15.889L8.35858 15.8206L8.29395 16.3164L8.22931 16.8122L8.75373 16.8806L8.81836 16.3848ZM8.29395 16.3164L8.79361 16.298L8.73989 14.8419L8.24023 14.8604L7.74057 14.8788L7.79429 16.3348L8.29395 16.3164ZM8.24023 14.8604L7.89203 14.5015L7.43012 14.9498L7.77832 15.3086L8.12652 15.6674L8.58844 15.2192L8.24023 14.8604ZM7.77832 15.3086L7.98239 14.8521L6.65426 14.2584L6.4502 14.7148L6.24613 15.1713L7.57425 15.7651L7.77832 15.3086ZM6.4502 14.7148L6.7712 14.3315L6.32686 13.9594L6.00586 14.3428L5.68486 14.7261L6.12919 15.0982L6.4502 14.7148ZM6.00586 14.3428L5.68444 14.7258L6.1278 15.0978L6.44922 14.7148L6.77064 14.3318L6.32728 13.9598L6.00586 14.3428ZM6.44922 14.7148L5.96133 14.6054L5.73184 15.6289L6.21973 15.7383L6.70761 15.8477L6.9371 14.8242L6.44922 14.7148ZM6.21973 15.7383L6.52657 15.3435L5.43478 14.4949L5.12793 14.8896L4.82108 15.2844L5.91288 16.1331L6.21973 15.7383ZM5.12793 14.8896L5.53859 14.6044L4.89015 13.6708L4.47949 13.9561L4.06883 14.2413L4.71727 15.1749L5.12793 14.8896ZM4.47949 13.9561L4.42428 13.4591L3.67721 13.5421L3.73242 14.0391L3.78764 14.536L4.53471 14.453L4.47949 13.9561ZM3.73242 14.0391L3.98482 13.6074L3.47212 13.3076L3.21973 13.7393L2.96733 14.1709L3.48003 14.4707L3.73242 14.0391ZM3.21973 13.7393L3.67842 13.5402L3.43818 12.9865L2.97949 13.1855L2.5208 13.3846L2.76104 13.9383L3.21973 13.7393ZM2.97949 13.1855L3.38789 12.8971L2.50703 11.65L2.09863 11.9385L1.69024 12.2269L2.5711 13.474L2.97949 13.1855ZM2.09863 11.9385L2.05379 11.4405L1.32722 11.5059L1.37207 12.0039L1.41692 12.5019L2.14348 12.4365L2.09863 11.9385ZM1.37207 12.0039L1.85779 11.8853L1.6283 10.9458L1.14258 11.0645L0.656861 11.1831L0.886353 12.1226L1.37207 12.0039ZM1.14258 11.0645L1.23175 10.5725L0.304989 10.4045L0.21582 10.8965L0.126651 11.3885L1.05341 11.5564L1.14258 11.0645ZM0.21582 10.8965L0.709881 10.8196L0.494061 9.43195L0 9.50879L-0.494061 9.58563L-0.27824 10.9733L0.21582 10.8965ZM0 9.50879L0.486278 9.62512L0.817332 8.24134L0.331055 8.125L-0.155223 8.00866L-0.486278 9.39245L0 9.50879ZM0.331055 8.125L0.678445 7.76539L0.477274 7.57105L0.129883 7.93066L-0.217508 8.29027L-0.016336 8.48461L0.331055 8.125ZM0.129883 7.93066L0.560984 8.18395L1.55415 6.49352L1.12305 6.24023L0.691945 5.98695L-0.301219 7.67738L0.129883 7.93066ZM1.12305 6.24023L1.35906 6.68102L2.25457 6.20153L2.01855 5.76074L1.78254 5.31995L0.88703 5.79944L1.12305 6.24023ZM2.01855 5.76074L2.36307 6.12311L3.49295 5.04889L3.14844 4.68652L2.80392 4.32416L1.67404 5.39838L2.01855 5.76074ZM3.14844 4.68652L3.45121 5.08443L4.81547 4.04634L4.5127 3.64844L4.20992 3.25053L2.84566 4.28862L3.14844 4.68652ZM4.5127 3.64844L4.66462 4.1248L5.50056 3.8582L5.34863 3.38184L5.19671 2.90548L4.36077 3.17208L4.5127 3.64844ZM5.34863 3.38184L5.82133 3.5448L6.11625 2.68933L5.64355 2.52637L5.17086 2.3634L4.87594 3.21887L5.34863 3.38184ZM5.64355 2.52637L5.42521 2.97617L6.69864 3.59434L6.91699 3.14453L7.13534 2.69473L5.8619 2.07656L5.64355 2.52637ZM6.91699 3.14453L7.35977 3.3768L7.74551 2.64145L7.30273 2.40918L6.85996 2.17691L6.47421 2.91226L6.91699 3.14453ZM7.30273 2.40918L7.51877 2.8601L8.17307 2.54662L7.95703 2.0957L7.74099 1.64478L7.0867 1.95826L7.30273 2.40918ZM7.95703 2.0957L7.85832 2.58586L8.70207 2.75578L8.80078 2.26562L8.89949 1.77547L8.05574 1.60554L7.95703 2.0957ZM8.80078 2.26562L8.44826 2.6202L9.29103 3.45809L9.64355 3.10352L9.99608 2.74894L9.15331 1.91105L8.80078 2.26562ZM9.64355 3.10352L9.76942 3.58741L10.494 3.39894L10.3682 2.91504L10.2423 2.43114L9.51769 2.61962L9.64355 3.10352ZM10.3682 2.91504L10.276 3.40648L11.3698 3.61155L11.4619 3.12012L11.5541 2.62868L10.4603 2.4236L10.3682 2.91504ZM11.4619 3.12012L11.8504 3.43494L12.2429 2.95057L11.8545 2.63574L11.4661 2.32092L11.0735 2.80529L11.4619 3.12012ZM11.8545 2.63574L12.1029 3.06968L13.8499 2.06968L13.6016 1.63574L13.3532 1.2018L11.6061 2.2018L11.8545 2.63574ZM13.6016 1.63574L14.0489 1.85908L14.6915 0.571968L14.2441 0.348633L13.7968 0.125298L13.1542 1.41241L13.6016 1.63574ZM14.2441 0.348633L14.4129 0.819292L15.2 0.537065L15.0312 0.0664062L14.8625 -0.404253L14.0754 -0.122026L14.2441 0.348633ZM15.0312 0.0664062L15.0886 0.563107L15.6638 0.496701L15.6064 0L15.5491 -0.496701L14.9739 -0.430295L15.0312 0.0664062ZM15.6064 0L15.1408 0.182215L15.591 1.33261L16.0566 1.15039L16.5223 0.968176L16.0721 -0.182215L15.6064 0ZM4.0332 9.90039L3.95911 10.3949L4.839 10.5267L4.91309 10.0322L4.98718 9.53775L4.10729 9.40591L4.0332 9.90039ZM4.91309 10.0322V10.5322H4.91406V10.0322V9.53223H4.91309V10.0322ZM4.91406 10.0322L4.98815 9.53775L4.10827 9.40591L4.03418 9.90039L3.96009 10.3949L4.83997 10.5267L4.91406 10.0322ZM4.03418 9.90039V9.40039H4.0332V9.90039V10.4004H4.03418V9.90039ZM9.34473 7.09375V7.59375H9.3457V7.09375V6.59375H9.34473V7.09375ZM9.3457 7.09375V6.59375H9.34473V7.09375V7.59375H9.3457V7.09375Z" fill="black" mask="url(#path-1-inside-1_93_97)"/>
</svg>
